G75*
G70*
%OFA0B0*%
%FSLAX24Y24*%
%IPPOS*%
%LPD*%
%AMOC8*
5,1,8,0,0,1.08239X$1,22.5*
%
%ADD10C,0.0000*%
%ADD11C,0.0080*%
%ADD12R,0.2000X1.0000*%
%ADD13C,0.0150*%
%ADD14C,0.0120*%
%ADD15C,0.0050*%
%ADD16C,0.0060*%
%ADD17R,0.1811X0.1024*%
%ADD18R,0.1024X0.1811*%
%ADD19C,0.0040*%
D10*
X012609Y000181D02*
X012609Y040181D01*
X172609Y040181D01*
X172609Y000181D01*
X012609Y000181D01*
D11*
X015502Y012221D02*
X015399Y012325D01*
X015502Y012221D02*
X015709Y012221D01*
X015812Y012325D01*
X015812Y012428D01*
X015709Y012532D01*
X015502Y012532D01*
X015399Y012635D01*
X015399Y012739D01*
X015502Y012842D01*
X015709Y012842D01*
X015812Y012739D01*
X016043Y012842D02*
X016043Y012221D01*
X016043Y012532D02*
X016457Y012532D01*
X016457Y012842D02*
X016457Y012221D01*
X016688Y012221D02*
X017101Y012221D01*
X017332Y012221D02*
X017642Y012221D01*
X017746Y012325D01*
X017746Y012739D01*
X017642Y012842D01*
X017332Y012842D01*
X017332Y012221D01*
X016688Y012221D02*
X016688Y012842D01*
X016688Y013471D02*
X017101Y013471D01*
X017332Y013471D02*
X017642Y013471D01*
X017746Y013575D01*
X017746Y013989D01*
X017642Y014092D01*
X017332Y014092D01*
X017332Y013471D01*
X016688Y013471D02*
X016688Y014092D01*
X016457Y014092D02*
X016457Y013471D01*
X016457Y013782D02*
X016043Y013782D01*
X015812Y013678D02*
X015812Y013575D01*
X015709Y013471D01*
X015502Y013471D01*
X015399Y013575D01*
X015502Y013782D02*
X015709Y013782D01*
X015812Y013678D01*
X016043Y013471D02*
X016043Y014092D01*
X015812Y013989D02*
X015709Y014092D01*
X015502Y014092D01*
X015399Y013989D01*
X015399Y013885D01*
X015502Y013782D01*
X015248Y014971D02*
X015248Y015592D01*
X014938Y015282D01*
X015351Y015282D01*
X015582Y015178D02*
X015789Y014971D01*
X015996Y015178D01*
X015996Y015592D01*
X015582Y015592D02*
X015582Y015178D01*
X014707Y014971D02*
X014293Y014971D01*
X014707Y015385D01*
X014707Y015489D01*
X014603Y015592D01*
X014396Y015592D01*
X014293Y015489D01*
X014062Y015282D02*
X013649Y015282D01*
X013855Y015489D02*
X013855Y015075D01*
X016871Y014971D02*
X017078Y014971D01*
X016975Y014971D02*
X016975Y015592D01*
X017078Y015592D02*
X016871Y015592D01*
X017301Y015592D02*
X017714Y014971D01*
X017714Y015592D01*
X017301Y015592D02*
X017301Y014971D01*
X017207Y016471D02*
X017207Y017092D01*
X017438Y017092D02*
X017748Y017092D01*
X017851Y016989D01*
X017851Y016575D01*
X017748Y016471D01*
X017438Y016471D01*
X017438Y017092D01*
X017301Y017721D02*
X017301Y018342D01*
X017714Y017721D01*
X017714Y018342D01*
X017078Y018342D02*
X016871Y018342D01*
X016975Y018342D02*
X016975Y017721D01*
X017078Y017721D02*
X016871Y017721D01*
X016793Y017092D02*
X017207Y016471D01*
X016793Y016471D02*
X016793Y017092D01*
X016562Y016989D02*
X016459Y017092D01*
X016252Y017092D01*
X016149Y016989D01*
X016149Y016575D01*
X016252Y016471D01*
X016459Y016471D01*
X016562Y016575D01*
X016562Y016782D01*
X016355Y016782D01*
X015789Y017721D02*
X015996Y017928D01*
X015996Y018342D01*
X015582Y018342D02*
X015582Y017928D01*
X015789Y017721D01*
X015351Y017825D02*
X015248Y017721D01*
X015041Y017721D01*
X014938Y017825D01*
X014938Y018032D02*
X015144Y018135D01*
X015248Y018135D01*
X015351Y018032D01*
X015351Y017825D01*
X014938Y018032D02*
X014938Y018342D01*
X015351Y018342D01*
X014500Y018342D02*
X014500Y017721D01*
X014293Y017721D02*
X014707Y017721D01*
X014293Y018135D02*
X014500Y018342D01*
X014062Y018032D02*
X013649Y018032D01*
X016149Y019325D02*
X016252Y019221D01*
X016459Y019221D01*
X016562Y019325D01*
X016562Y019532D01*
X016355Y019532D01*
X016149Y019739D02*
X016149Y019325D01*
X016149Y019739D02*
X016252Y019842D01*
X016459Y019842D01*
X016562Y019739D01*
X016793Y019842D02*
X017207Y019221D01*
X017207Y019842D01*
X017438Y019842D02*
X017748Y019842D01*
X017851Y019739D01*
X017851Y019325D01*
X017748Y019221D01*
X017438Y019221D01*
X017438Y019842D01*
X017301Y020471D02*
X017301Y021092D01*
X017714Y020471D01*
X017714Y021092D01*
X017078Y021092D02*
X016871Y021092D01*
X016975Y021092D02*
X016975Y020471D01*
X017078Y020471D02*
X016871Y020471D01*
X016793Y019842D02*
X016793Y019221D01*
X015789Y020471D02*
X015996Y020678D01*
X015996Y021092D01*
X015582Y021092D02*
X015582Y020678D01*
X015789Y020471D01*
X015351Y020575D02*
X015351Y020782D01*
X015248Y020885D01*
X015144Y020885D01*
X014938Y020782D01*
X014938Y021092D01*
X015351Y021092D01*
X014500Y021092D02*
X014500Y020471D01*
X014293Y020471D02*
X014707Y020471D01*
X014938Y020575D02*
X015041Y020471D01*
X015248Y020471D01*
X015351Y020575D01*
X014500Y021092D02*
X014293Y020885D01*
X014062Y020782D02*
X013649Y020782D01*
X013855Y020989D02*
X013855Y020575D01*
X016149Y022075D02*
X016252Y021971D01*
X016459Y021971D01*
X016562Y022075D01*
X016562Y022282D01*
X016355Y022282D01*
X016149Y022489D02*
X016149Y022075D01*
X016149Y022489D02*
X016252Y022592D01*
X016459Y022592D01*
X016562Y022489D01*
X016793Y022592D02*
X017207Y021971D01*
X017207Y022592D01*
X017438Y022592D02*
X017748Y022592D01*
X017851Y022489D01*
X017851Y022075D01*
X017748Y021971D01*
X017438Y021971D01*
X017438Y022592D01*
X016793Y022592D02*
X016793Y021971D01*
X016977Y023221D02*
X017183Y023221D01*
X017080Y023221D02*
X017080Y023842D01*
X016977Y023842D02*
X017183Y023842D01*
X017406Y023842D02*
X017820Y023221D01*
X017820Y023842D01*
X017406Y023842D02*
X017406Y023221D01*
X016101Y023428D02*
X015894Y023221D01*
X015688Y023428D01*
X015688Y023842D01*
X015457Y023842D02*
X015043Y023842D01*
X015043Y023532D01*
X015250Y023635D01*
X015353Y023635D01*
X015457Y023532D01*
X015457Y023325D01*
X015353Y023221D01*
X015146Y023221D01*
X015043Y023325D01*
X014812Y023532D02*
X014399Y023532D01*
X016101Y023428D02*
X016101Y023842D01*
X016252Y024721D02*
X016459Y024721D01*
X016562Y024825D01*
X016562Y025032D01*
X016355Y025032D01*
X016149Y025239D02*
X016149Y024825D01*
X016252Y024721D01*
X016149Y025239D02*
X016252Y025342D01*
X016459Y025342D01*
X016562Y025239D01*
X016793Y025342D02*
X017207Y024721D01*
X017207Y025342D01*
X017438Y025342D02*
X017748Y025342D01*
X017851Y025239D01*
X017851Y024825D01*
X017748Y024721D01*
X017438Y024721D01*
X017438Y025342D01*
X016793Y025342D02*
X016793Y024721D01*
X016977Y025971D02*
X017183Y025971D01*
X017080Y025971D02*
X017080Y026592D01*
X016977Y026592D02*
X017183Y026592D01*
X017406Y026592D02*
X017820Y025971D01*
X017820Y026592D01*
X017406Y026592D02*
X017406Y025971D01*
X016101Y026178D02*
X016101Y026592D01*
X015688Y026592D02*
X015688Y026178D01*
X015894Y025971D01*
X016101Y026178D01*
X015457Y026282D02*
X015457Y026075D01*
X015353Y025971D01*
X015146Y025971D01*
X015043Y026075D01*
X015043Y026282D02*
X015250Y026385D01*
X015353Y026385D01*
X015457Y026282D01*
X015457Y026592D02*
X015043Y026592D01*
X015043Y026282D01*
X014812Y026282D02*
X014399Y026282D01*
X014605Y026489D02*
X014605Y026075D01*
X016149Y027575D02*
X016252Y027471D01*
X016459Y027471D01*
X016562Y027575D01*
X016562Y027782D01*
X016355Y027782D01*
X016149Y027989D02*
X016149Y027575D01*
X016149Y027989D02*
X016252Y028092D01*
X016459Y028092D01*
X016562Y027989D01*
X016793Y028092D02*
X017207Y027471D01*
X017207Y028092D01*
X017438Y028092D02*
X017748Y028092D01*
X017851Y027989D01*
X017851Y027575D01*
X017748Y027471D01*
X017438Y027471D01*
X017438Y028092D01*
X016793Y028092D02*
X016793Y027471D01*
X016830Y032721D02*
X016830Y033342D01*
X016727Y033342D02*
X016933Y033342D01*
X017156Y033342D02*
X017570Y032721D01*
X017570Y033342D01*
X017801Y033342D02*
X018111Y033342D01*
X018214Y033239D01*
X018214Y033032D01*
X018111Y032928D01*
X017801Y032928D01*
X017801Y032721D02*
X017801Y033342D01*
X017801Y033721D02*
X017801Y034342D01*
X018111Y034342D01*
X018214Y034239D01*
X018214Y034032D01*
X018111Y033928D01*
X017801Y033928D01*
X017570Y033721D02*
X017156Y034342D01*
X017156Y033721D01*
X016933Y033721D02*
X016727Y033721D01*
X016830Y033721D02*
X016830Y034342D01*
X016727Y034342D02*
X016933Y034342D01*
X017570Y034342D02*
X017570Y033721D01*
X017156Y033342D02*
X017156Y032721D01*
X016933Y032721D02*
X016727Y032721D01*
X015851Y032825D02*
X015851Y033032D01*
X015644Y033032D01*
X015438Y033239D02*
X015438Y032825D01*
X015541Y032721D01*
X015748Y032721D01*
X015851Y032825D01*
X015851Y033239D02*
X015748Y033342D01*
X015541Y033342D01*
X015438Y033239D01*
X015207Y033342D02*
X014793Y033342D01*
X014793Y032721D01*
X015207Y032721D01*
X015000Y033032D02*
X014793Y033032D01*
X014562Y033342D02*
X014562Y032721D01*
X014149Y033342D01*
X014149Y032721D01*
X014149Y033721D02*
X014149Y034342D01*
X014459Y034342D01*
X014562Y034239D01*
X014562Y034032D01*
X014459Y033928D01*
X014149Y033928D01*
X014793Y033825D02*
X014793Y034239D01*
X014896Y034342D01*
X015103Y034342D01*
X015207Y034239D01*
X015207Y033825D01*
X015103Y033721D01*
X014896Y033721D01*
X014793Y033825D01*
X015438Y033825D02*
X015541Y033721D01*
X015748Y033721D01*
X015851Y033825D01*
X015851Y033928D01*
X015748Y034032D01*
X015541Y034032D01*
X015438Y034135D01*
X015438Y034239D01*
X015541Y034342D01*
X015748Y034342D01*
X015851Y034239D01*
X018445Y034342D02*
X018445Y033825D01*
X018549Y033721D01*
X018756Y033721D01*
X018859Y033825D01*
X018859Y034342D01*
X019090Y034342D02*
X019504Y034342D01*
X019297Y034342D02*
X019297Y033721D01*
X019297Y033342D02*
X019297Y032721D01*
X019734Y032825D02*
X019838Y032721D01*
X020045Y032721D01*
X020148Y032825D01*
X020148Y032928D01*
X020045Y033032D01*
X019838Y033032D01*
X019734Y033135D01*
X019734Y033239D01*
X019838Y033342D01*
X020045Y033342D01*
X020148Y033239D01*
X020045Y033721D02*
X019838Y033721D01*
X019734Y033825D01*
X019838Y034032D02*
X020045Y034032D01*
X020148Y033928D01*
X020148Y033825D01*
X020045Y033721D01*
X019838Y034032D02*
X019734Y034135D01*
X019734Y034239D01*
X019838Y034342D01*
X020045Y034342D01*
X020148Y034239D01*
X021023Y034032D02*
X021437Y034032D01*
X021668Y034135D02*
X021875Y034342D01*
X021875Y033721D01*
X021668Y033721D02*
X022082Y033721D01*
X022313Y033721D02*
X022416Y033721D01*
X022416Y033825D01*
X022313Y033825D01*
X022313Y033721D01*
X022635Y033825D02*
X022738Y033721D01*
X022945Y033721D01*
X023048Y033825D01*
X023048Y034032D01*
X022945Y034135D01*
X022842Y034135D01*
X022635Y034032D01*
X022635Y034342D01*
X023048Y034342D01*
X023279Y034342D02*
X023279Y033928D01*
X023486Y033721D01*
X023693Y033928D01*
X023693Y034342D01*
X024568Y034135D02*
X024775Y034342D01*
X024982Y034135D01*
X024982Y033721D01*
X025213Y033721D02*
X025523Y033721D01*
X025627Y033825D01*
X025627Y033928D01*
X025523Y034032D01*
X025213Y034032D01*
X024982Y034032D02*
X024568Y034032D01*
X024568Y034135D02*
X024568Y033721D01*
X024568Y033342D02*
X024879Y033342D01*
X024982Y033239D01*
X024982Y033135D01*
X024879Y033032D01*
X024568Y033032D01*
X024568Y033342D02*
X024568Y032721D01*
X024879Y032721D01*
X024982Y032825D01*
X024982Y032928D01*
X024879Y033032D01*
X025213Y033032D02*
X025420Y033032D01*
X025627Y033342D02*
X025213Y033342D01*
X025213Y032721D01*
X025627Y032721D01*
X025857Y032721D02*
X026271Y032721D01*
X026502Y032825D02*
X026605Y032721D01*
X026812Y032721D01*
X026916Y032825D01*
X026916Y033239D01*
X026812Y033342D01*
X026605Y033342D01*
X026502Y033239D01*
X026502Y032825D01*
X027146Y032721D02*
X027353Y032928D01*
X027560Y032721D01*
X027560Y033342D01*
X027560Y033721D02*
X027146Y033721D01*
X027146Y034342D01*
X027560Y034342D01*
X027353Y034032D02*
X027146Y034032D01*
X026916Y033928D02*
X026916Y034342D01*
X026916Y033928D02*
X026709Y033721D01*
X026502Y033928D01*
X026502Y034342D01*
X026271Y034239D02*
X026168Y034342D01*
X025961Y034342D01*
X025857Y034239D01*
X025857Y033825D01*
X025961Y033721D01*
X026168Y033721D01*
X026271Y033825D01*
X026271Y034239D01*
X025627Y034239D02*
X025523Y034342D01*
X025213Y034342D01*
X025213Y033721D01*
X025523Y034032D02*
X025627Y034135D01*
X025627Y034239D01*
X025857Y033342D02*
X025857Y032721D01*
X027146Y032721D02*
X027146Y033342D01*
X023693Y033342D02*
X023693Y032928D01*
X023486Y032721D01*
X023279Y032928D01*
X023279Y033342D01*
X023048Y033342D02*
X022635Y033342D01*
X022635Y033032D01*
X022842Y033135D01*
X022945Y033135D01*
X023048Y033032D01*
X023048Y032825D01*
X022945Y032721D01*
X022738Y032721D01*
X022635Y032825D01*
X022416Y032825D02*
X022416Y032721D01*
X022313Y032721D01*
X022313Y032825D01*
X022416Y032825D01*
X022082Y032721D02*
X021668Y032721D01*
X021875Y032721D02*
X021875Y033342D01*
X021668Y033135D01*
X021437Y033032D02*
X021023Y033032D01*
X019504Y033342D02*
X019090Y033342D01*
X018859Y033342D02*
X018859Y032825D01*
X018756Y032721D01*
X018549Y032721D01*
X018445Y032825D01*
X018445Y033342D01*
X021230Y033825D02*
X021230Y034239D01*
X066948Y026959D02*
X066948Y026546D01*
X066948Y026752D02*
X067569Y026752D01*
X067948Y026760D02*
X067948Y027071D01*
X068051Y027174D01*
X068258Y027174D01*
X068362Y027071D01*
X068362Y026760D01*
X068569Y026760D02*
X067948Y026760D01*
X068051Y026530D02*
X067948Y026426D01*
X067948Y026219D01*
X068051Y026116D01*
X068465Y026116D01*
X068569Y026219D01*
X068569Y026426D01*
X068465Y026530D01*
X068258Y026530D01*
X068258Y026323D01*
X068362Y026967D02*
X068569Y027174D01*
X068465Y027405D02*
X068569Y027508D01*
X068569Y027715D01*
X068465Y027819D01*
X068051Y027819D01*
X067948Y027715D01*
X067948Y027508D01*
X068051Y027405D01*
X068465Y027405D01*
X068465Y028049D02*
X067948Y028049D01*
X067948Y028463D02*
X068465Y028463D01*
X068569Y028360D01*
X068569Y028153D01*
X068465Y028049D01*
X068362Y028694D02*
X068362Y029004D01*
X068258Y029108D01*
X068051Y029108D01*
X067948Y029004D01*
X067948Y028694D01*
X068569Y028694D01*
X067465Y026315D02*
X066948Y026315D01*
X066948Y025901D02*
X067465Y025901D01*
X067569Y026004D01*
X067569Y026211D01*
X067465Y026315D01*
X067465Y025670D02*
X067051Y025670D01*
X066948Y025567D01*
X066948Y025360D01*
X067051Y025256D01*
X067465Y025256D01*
X067569Y025360D01*
X067569Y025567D01*
X067465Y025670D01*
X067569Y025026D02*
X067258Y024715D01*
X067362Y024612D02*
X066948Y025026D01*
X067948Y025137D02*
X068051Y025240D01*
X068258Y025240D01*
X068362Y025137D01*
X068362Y024827D01*
X068569Y024827D02*
X067948Y024827D01*
X067948Y025137D01*
X068948Y025042D02*
X069155Y025248D01*
X069362Y025248D01*
X069569Y025042D01*
X069569Y024811D02*
X069362Y024604D01*
X069362Y024707D02*
X069362Y024397D01*
X069569Y024397D02*
X068948Y024397D01*
X068948Y024707D01*
X069051Y024811D01*
X069258Y024811D01*
X069362Y024707D01*
X068569Y024596D02*
X068155Y024596D01*
X067948Y024389D01*
X068155Y024182D01*
X068569Y024182D01*
X068569Y023951D02*
X068362Y023745D01*
X068362Y023848D02*
X068362Y023538D01*
X068569Y023538D02*
X067948Y023538D01*
X067948Y023848D01*
X068051Y023951D01*
X068258Y023951D01*
X068362Y023848D01*
X068258Y024182D02*
X068258Y024596D01*
X067569Y024612D02*
X066948Y024612D01*
X067155Y024381D02*
X067569Y024381D01*
X067258Y024381D02*
X067258Y023967D01*
X067155Y023967D02*
X066948Y024174D01*
X067155Y024381D01*
X067155Y023967D02*
X067569Y023967D01*
X067569Y023737D02*
X067569Y023323D01*
X066948Y023323D01*
X066948Y023737D01*
X067258Y023530D02*
X067258Y023323D01*
X067258Y023092D02*
X067362Y022989D01*
X067362Y022678D01*
X067569Y022678D02*
X066948Y022678D01*
X066948Y022989D01*
X067051Y023092D01*
X067258Y023092D01*
X067362Y022885D02*
X067569Y023092D01*
X067948Y023100D02*
X068569Y023100D01*
X068948Y023108D02*
X068948Y023418D01*
X069051Y023522D01*
X069258Y023522D01*
X069362Y023418D01*
X069362Y023108D01*
X069569Y023108D02*
X068948Y023108D01*
X068948Y022885D02*
X069155Y022678D01*
X069362Y022678D01*
X069569Y022885D01*
X069362Y023315D02*
X069569Y023522D01*
X069569Y023753D02*
X069362Y023959D01*
X069569Y024166D01*
X068948Y024166D01*
X068948Y023753D02*
X069569Y023753D01*
X067948Y023307D02*
X067948Y022893D01*
X067465Y022448D02*
X067569Y022344D01*
X067569Y022034D01*
X066948Y022034D01*
X066948Y022344D01*
X067051Y022448D01*
X067155Y022448D01*
X067258Y022344D01*
X067258Y022034D01*
X067258Y022344D02*
X067362Y022448D01*
X067465Y022448D01*
X067948Y022018D02*
X068569Y022018D01*
X067948Y021604D01*
X068569Y021604D01*
X068465Y021373D02*
X068051Y021373D01*
X067948Y021270D01*
X067948Y021063D01*
X068051Y020960D01*
X068465Y020960D01*
X068569Y021063D01*
X068569Y021270D01*
X068465Y021373D01*
X068948Y021493D02*
X069051Y021389D01*
X069155Y021389D01*
X069258Y021493D01*
X069258Y021700D01*
X069362Y021803D01*
X069465Y021803D01*
X069569Y021700D01*
X069569Y021493D01*
X069465Y021389D01*
X069362Y021389D01*
X069258Y021493D01*
X069258Y021700D02*
X069155Y021803D01*
X069051Y021803D01*
X068948Y021700D01*
X068948Y021493D01*
X069569Y021158D02*
X069569Y020745D01*
X069569Y020952D02*
X068948Y020952D01*
X069155Y020745D01*
X069051Y020514D02*
X069465Y020100D01*
X069569Y020204D01*
X069569Y020411D01*
X069465Y020514D01*
X069051Y020514D01*
X068948Y020411D01*
X068948Y020204D01*
X069051Y020100D01*
X069465Y020100D01*
X069569Y019869D02*
X069569Y019456D01*
X069155Y019869D01*
X069051Y019869D01*
X068948Y019766D01*
X068948Y019559D01*
X069051Y019456D01*
X068569Y019551D02*
X068465Y019655D01*
X068569Y019551D02*
X068569Y019344D01*
X068465Y019241D01*
X068051Y019241D01*
X067948Y019344D01*
X067948Y019551D01*
X068051Y019655D01*
X067569Y019663D02*
X066948Y019663D01*
X066948Y019869D02*
X066948Y019456D01*
X067155Y019225D02*
X067569Y019225D01*
X067258Y019225D02*
X067258Y018811D01*
X067155Y018811D02*
X066948Y019018D01*
X067155Y019225D01*
X067155Y018811D02*
X067569Y018811D01*
X067569Y018580D02*
X067569Y018167D01*
X066948Y018167D01*
X066948Y017936D02*
X067465Y017936D01*
X067569Y017832D01*
X067569Y017626D01*
X067465Y017522D01*
X066948Y017522D01*
X067051Y017291D02*
X066948Y017188D01*
X066948Y016981D01*
X067051Y016878D01*
X067465Y016878D01*
X067569Y016981D01*
X067569Y017188D01*
X067465Y017291D01*
X067258Y017291D01*
X067258Y017084D01*
X066948Y016647D02*
X066948Y016233D01*
X067569Y016233D01*
X067569Y016647D01*
X067258Y016440D02*
X067258Y016233D01*
X067258Y016002D02*
X067362Y015899D01*
X067362Y015589D01*
X067362Y015795D02*
X067569Y016002D01*
X067258Y016002D02*
X067051Y016002D01*
X066948Y015899D01*
X066948Y015589D01*
X067569Y015589D01*
X067948Y015589D02*
X068569Y015589D01*
X068569Y016002D01*
X068465Y016233D02*
X068051Y016233D01*
X067948Y016336D01*
X067948Y016543D01*
X068051Y016647D01*
X068465Y016647D01*
X068569Y016543D01*
X068569Y016336D01*
X068465Y016233D01*
X068948Y016002D02*
X069569Y015589D01*
X068569Y015358D02*
X068362Y015151D01*
X068362Y015254D02*
X068362Y014944D01*
X068569Y014944D02*
X067948Y014944D01*
X067948Y015254D01*
X068051Y015358D01*
X068258Y015358D01*
X068362Y015254D01*
X068569Y014713D02*
X068569Y014300D01*
X067948Y014300D01*
X067948Y014713D01*
X068258Y014506D02*
X068258Y014300D01*
X067948Y014069D02*
X067948Y013655D01*
X067948Y013862D02*
X068569Y013862D01*
X068569Y013424D02*
X068155Y013424D01*
X067948Y013217D01*
X068155Y013010D01*
X068569Y013010D01*
X068569Y012780D02*
X067948Y012780D01*
X068258Y013010D02*
X068258Y013424D01*
X067569Y013424D02*
X067362Y013217D01*
X067569Y013010D01*
X066948Y013010D01*
X067051Y012780D02*
X066948Y012676D01*
X066948Y012469D01*
X067051Y012366D01*
X067465Y012366D01*
X067569Y012469D01*
X067569Y012676D01*
X067465Y012780D01*
X067051Y012780D01*
X067051Y012135D02*
X067258Y012135D01*
X067362Y012032D01*
X067362Y011721D01*
X067569Y011721D02*
X066948Y011721D01*
X066948Y012032D01*
X067051Y012135D01*
X067948Y012135D02*
X068465Y012135D01*
X068569Y012032D01*
X068569Y011825D01*
X068465Y011721D01*
X067948Y011721D01*
X067948Y012366D02*
X068569Y012366D01*
X068362Y012573D01*
X068569Y012780D01*
X068948Y012780D02*
X068948Y012366D01*
X069569Y012366D01*
X069569Y012780D01*
X069362Y013010D02*
X069569Y013217D01*
X069362Y013424D01*
X068948Y013424D01*
X068948Y013010D02*
X069362Y013010D01*
X069258Y012573D02*
X069258Y012366D01*
X069258Y012135D02*
X069362Y012032D01*
X069362Y011721D01*
X069569Y011721D02*
X068948Y011721D01*
X068948Y012032D01*
X069051Y012135D01*
X069258Y012135D01*
X069362Y011928D02*
X069569Y012135D01*
X067569Y013424D02*
X066948Y013424D01*
X066948Y013655D02*
X067569Y013655D01*
X067569Y014069D01*
X067569Y014300D02*
X066948Y014300D01*
X066948Y014610D01*
X067051Y014713D01*
X067258Y014713D01*
X067362Y014610D01*
X067362Y014300D01*
X067362Y014506D02*
X067569Y014713D01*
X068948Y014610D02*
X068948Y014300D01*
X069569Y014300D01*
X069569Y014610D01*
X069465Y014713D01*
X069362Y014713D01*
X069258Y014610D01*
X069258Y014300D01*
X069258Y014610D02*
X069155Y014713D01*
X069051Y014713D01*
X068948Y014610D01*
X067258Y013862D02*
X067258Y013655D01*
X066948Y013655D02*
X066948Y014069D01*
X076948Y013424D02*
X077569Y013424D01*
X076948Y013010D01*
X077569Y013010D01*
X077569Y012366D02*
X076948Y012780D01*
X077051Y012135D02*
X076948Y012032D01*
X076948Y011825D01*
X077051Y011721D01*
X077155Y011721D01*
X077258Y011825D01*
X077258Y012032D01*
X077362Y012135D01*
X077465Y012135D01*
X077569Y012032D01*
X077569Y011825D01*
X077465Y011721D01*
X091926Y014332D02*
X092339Y014332D01*
X092133Y014539D02*
X092133Y014125D01*
X092570Y014021D02*
X092984Y014435D01*
X092984Y014539D01*
X092881Y014642D01*
X092674Y014642D01*
X092570Y014539D01*
X093215Y014332D02*
X093629Y014332D01*
X093859Y014228D02*
X094066Y014021D01*
X094273Y014228D01*
X094273Y014642D01*
X094504Y014435D02*
X094711Y014642D01*
X094918Y014435D01*
X094918Y014021D01*
X094918Y014332D02*
X094504Y014332D01*
X094504Y014435D02*
X094504Y014021D01*
X093859Y014228D02*
X093859Y014642D01*
X093525Y014642D02*
X093215Y014332D01*
X092984Y014021D02*
X092570Y014021D01*
X093525Y014021D02*
X093525Y014642D01*
X094649Y015221D02*
X094855Y015221D01*
X094752Y015221D02*
X094752Y015842D01*
X094649Y015842D02*
X094855Y015842D01*
X094855Y016221D02*
X095062Y016428D01*
X095062Y016842D01*
X094649Y016842D02*
X094649Y016428D01*
X094855Y016221D01*
X092863Y017325D02*
X092863Y017532D01*
X092656Y017532D01*
X092449Y017739D02*
X092449Y017325D01*
X092553Y017221D01*
X092759Y017221D01*
X092863Y017325D01*
X092863Y017739D02*
X092759Y017842D01*
X092553Y017842D01*
X092449Y017739D01*
X092218Y017842D02*
X091805Y017842D01*
X091805Y017221D01*
X092218Y017221D01*
X092012Y017532D02*
X091805Y017532D01*
X091574Y017532D02*
X091470Y017428D01*
X091160Y017428D01*
X091160Y017221D02*
X091160Y017842D01*
X091470Y017842D01*
X091574Y017739D01*
X091574Y017532D01*
X091367Y017428D02*
X091574Y017221D01*
X090929Y017221D02*
X090929Y017842D01*
X090516Y017842D02*
X090929Y017221D01*
X090516Y017221D02*
X090516Y017842D01*
X090285Y017842D02*
X090285Y017325D01*
X090181Y017221D01*
X089975Y017221D01*
X089871Y017325D01*
X089871Y017842D01*
X088996Y017842D02*
X088996Y017428D01*
X088789Y017221D01*
X088582Y017428D01*
X088582Y017842D01*
X088351Y017842D02*
X087938Y017842D01*
X087938Y017532D01*
X088144Y017635D01*
X088248Y017635D01*
X088351Y017532D01*
X088351Y017325D01*
X088248Y017221D01*
X088041Y017221D01*
X087938Y017325D01*
X087707Y017221D02*
X087293Y017221D01*
X087500Y017221D02*
X087500Y017842D01*
X087293Y017635D01*
X087062Y017532D02*
X086649Y017532D01*
X090793Y018721D02*
X091207Y018721D01*
X091000Y018721D02*
X091000Y019342D01*
X090793Y019135D01*
X090562Y019032D02*
X090149Y019032D01*
X091438Y019032D02*
X091644Y019135D01*
X091748Y019135D01*
X091851Y019032D01*
X091851Y018825D01*
X091748Y018721D01*
X091541Y018721D01*
X091438Y018825D01*
X091438Y019032D02*
X091438Y019342D01*
X091851Y019342D01*
X092082Y019342D02*
X092082Y018928D01*
X092289Y018721D01*
X092496Y018928D01*
X092496Y019342D01*
X092727Y019135D02*
X092727Y018721D01*
X092727Y019032D02*
X093140Y019032D01*
X093140Y019135D02*
X093140Y018721D01*
X093140Y019135D02*
X092933Y019342D01*
X092727Y019135D01*
X094649Y018842D02*
X094855Y018842D01*
X094752Y018842D02*
X094752Y018221D01*
X094649Y018221D02*
X094855Y018221D01*
X094855Y019221D02*
X095062Y019428D01*
X095062Y019842D01*
X094649Y019842D02*
X094649Y019428D01*
X094855Y019221D01*
X098149Y019428D02*
X098149Y019842D01*
X098562Y019842D02*
X098562Y019428D01*
X098355Y019221D01*
X098149Y019428D01*
X099649Y019032D02*
X100062Y019032D01*
X100293Y019135D02*
X100500Y019342D01*
X100500Y018721D01*
X100293Y018721D02*
X100707Y018721D01*
X100938Y018825D02*
X101041Y018721D01*
X101248Y018721D01*
X101351Y018825D01*
X101351Y019032D01*
X101248Y019135D01*
X101144Y019135D01*
X100938Y019032D01*
X100938Y019342D01*
X101351Y019342D01*
X101582Y019342D02*
X101582Y018928D01*
X101789Y018721D01*
X101996Y018928D01*
X101996Y019342D01*
X102227Y019342D02*
X102537Y019342D01*
X102640Y019239D01*
X102640Y019135D01*
X102537Y019032D01*
X102227Y019032D01*
X102537Y019032D02*
X102640Y018928D01*
X102640Y018825D01*
X102537Y018721D01*
X102227Y018721D01*
X102227Y019342D01*
X098355Y018842D02*
X098149Y018842D01*
X098252Y018842D02*
X098252Y018221D01*
X098149Y018221D02*
X098355Y018221D01*
X100293Y017635D02*
X100500Y017842D01*
X100500Y017221D01*
X100293Y017221D02*
X100707Y017221D01*
X100938Y017325D02*
X101041Y017221D01*
X101248Y017221D01*
X101351Y017325D01*
X101351Y017532D01*
X101248Y017635D01*
X101144Y017635D01*
X100938Y017532D01*
X100938Y017842D01*
X101351Y017842D01*
X101582Y017842D02*
X101582Y017428D01*
X101789Y017221D01*
X101996Y017428D01*
X101996Y017842D01*
X102871Y017842D02*
X102871Y017325D01*
X102975Y017221D01*
X103181Y017221D01*
X103285Y017325D01*
X103285Y017842D01*
X103516Y017842D02*
X103929Y017221D01*
X103929Y017842D01*
X104160Y017842D02*
X104470Y017842D01*
X104574Y017739D01*
X104574Y017532D01*
X104470Y017428D01*
X104160Y017428D01*
X104160Y017221D02*
X104160Y017842D01*
X104367Y017428D02*
X104574Y017221D01*
X104805Y017221D02*
X105218Y017221D01*
X105449Y017325D02*
X105553Y017221D01*
X105759Y017221D01*
X105863Y017325D01*
X105863Y017532D01*
X105656Y017532D01*
X105449Y017739D02*
X105449Y017325D01*
X105449Y017739D02*
X105553Y017842D01*
X105759Y017842D01*
X105863Y017739D01*
X105218Y017842D02*
X104805Y017842D01*
X104805Y017221D01*
X104805Y017532D02*
X105012Y017532D01*
X103516Y017221D02*
X103516Y017842D01*
X100062Y017532D02*
X099649Y017532D01*
X098562Y016842D02*
X098562Y016428D01*
X098355Y016221D01*
X098149Y016428D01*
X098149Y016842D01*
X099855Y016239D02*
X099855Y015825D01*
X099649Y016032D02*
X100062Y016032D01*
X100293Y016239D02*
X100396Y016342D01*
X100603Y016342D01*
X100707Y016239D01*
X100707Y016135D01*
X100293Y015721D01*
X100707Y015721D01*
X100938Y016032D02*
X101351Y016032D01*
X101582Y015928D02*
X101789Y015721D01*
X101996Y015928D01*
X101996Y016342D01*
X102227Y016342D02*
X102537Y016342D01*
X102640Y016239D01*
X102640Y016135D01*
X102537Y016032D01*
X102227Y016032D01*
X102537Y016032D02*
X102640Y015928D01*
X102640Y015825D01*
X102537Y015721D01*
X102227Y015721D01*
X102227Y016342D01*
X101582Y016342D02*
X101582Y015928D01*
X101248Y015721D02*
X101248Y016342D01*
X100938Y016032D01*
X098355Y015842D02*
X098149Y015842D01*
X098252Y015842D02*
X098252Y015221D01*
X098149Y015221D02*
X098355Y015221D01*
X100252Y020221D02*
X100459Y020221D01*
X100562Y020325D01*
X100562Y020532D01*
X100355Y020532D01*
X100149Y020739D02*
X100149Y020325D01*
X100252Y020221D01*
X100149Y020739D02*
X100252Y020842D01*
X100459Y020842D01*
X100562Y020739D01*
X100793Y020842D02*
X101207Y020221D01*
X101207Y020842D01*
X101438Y020842D02*
X101438Y020221D01*
X101748Y020221D01*
X101851Y020325D01*
X101851Y020739D01*
X101748Y020842D01*
X101438Y020842D01*
X100793Y020842D02*
X100793Y020221D01*
X098355Y021221D02*
X098149Y021221D01*
X098252Y021221D02*
X098252Y021842D01*
X098149Y021842D02*
X098355Y021842D01*
X098355Y022221D02*
X098562Y022428D01*
X098562Y022842D01*
X098149Y022842D02*
X098149Y022428D01*
X098355Y022221D01*
X099649Y022032D02*
X100062Y022032D01*
X100293Y022135D02*
X100500Y022342D01*
X100500Y021721D01*
X100293Y021721D02*
X100707Y021721D01*
X100938Y021825D02*
X101041Y021721D01*
X101248Y021721D01*
X101351Y021825D01*
X101351Y022032D01*
X101248Y022135D01*
X101144Y022135D01*
X100938Y022032D01*
X100938Y022342D01*
X101351Y022342D01*
X101582Y022342D02*
X101582Y021928D01*
X101789Y021721D01*
X101996Y021928D01*
X101996Y022342D01*
X102227Y022342D02*
X102537Y022342D01*
X102640Y022239D01*
X102640Y022135D01*
X102537Y022032D01*
X102227Y022032D01*
X102537Y022032D02*
X102640Y021928D01*
X102640Y021825D01*
X102537Y021721D01*
X102227Y021721D01*
X102227Y022342D01*
X099855Y022239D02*
X099855Y021825D01*
X100252Y023221D02*
X100459Y023221D01*
X100562Y023325D01*
X100562Y023532D01*
X100355Y023532D01*
X100149Y023739D02*
X100149Y023325D01*
X100252Y023221D01*
X100149Y023739D02*
X100252Y023842D01*
X100459Y023842D01*
X100562Y023739D01*
X100793Y023842D02*
X101207Y023221D01*
X101207Y023842D01*
X101438Y023842D02*
X101748Y023842D01*
X101851Y023739D01*
X101851Y023325D01*
X101748Y023221D01*
X101438Y023221D01*
X101438Y023842D01*
X100793Y023842D02*
X100793Y023221D01*
X098355Y024221D02*
X098149Y024221D01*
X098252Y024221D02*
X098252Y024842D01*
X098149Y024842D02*
X098355Y024842D01*
X098355Y025221D02*
X098562Y025428D01*
X098562Y025842D01*
X098149Y025842D02*
X098149Y025428D01*
X098355Y025221D01*
X099649Y025032D02*
X100062Y025032D01*
X100293Y025032D02*
X100500Y025135D01*
X100603Y025135D01*
X100707Y025032D01*
X100707Y024825D01*
X100603Y024721D01*
X100396Y024721D01*
X100293Y024825D01*
X100293Y025032D02*
X100293Y025342D01*
X100707Y025342D01*
X100938Y025342D02*
X100938Y024928D01*
X101144Y024721D01*
X101351Y024928D01*
X101351Y025342D01*
X101582Y025342D02*
X101582Y024721D01*
X101892Y024721D01*
X101996Y024825D01*
X101996Y024928D01*
X101892Y025032D01*
X101582Y025032D01*
X101582Y025342D02*
X101892Y025342D01*
X101996Y025239D01*
X101996Y025135D01*
X101892Y025032D01*
X101748Y026221D02*
X101851Y026325D01*
X101851Y026739D01*
X101748Y026842D01*
X101438Y026842D01*
X101438Y026221D01*
X101748Y026221D01*
X101207Y026221D02*
X101207Y026842D01*
X100793Y026842D02*
X101207Y026221D01*
X100793Y026221D02*
X100793Y026842D01*
X100562Y026739D02*
X100459Y026842D01*
X100252Y026842D01*
X100149Y026739D01*
X100149Y026325D01*
X100252Y026221D01*
X100459Y026221D01*
X100562Y026325D01*
X100562Y026532D01*
X100355Y026532D01*
X098355Y027221D02*
X098149Y027221D01*
X098252Y027221D02*
X098252Y027842D01*
X098149Y027842D02*
X098355Y027842D01*
X098355Y028221D02*
X098562Y028428D01*
X098562Y028842D01*
X098149Y028842D02*
X098149Y028428D01*
X098355Y028221D01*
X099649Y028032D02*
X100062Y028032D01*
X100293Y028032D02*
X100500Y028135D01*
X100603Y028135D01*
X100707Y028032D01*
X100707Y027825D01*
X100603Y027721D01*
X100396Y027721D01*
X100293Y027825D01*
X100293Y028032D02*
X100293Y028342D01*
X100707Y028342D01*
X100938Y028342D02*
X100938Y027928D01*
X101144Y027721D01*
X101351Y027928D01*
X101351Y028342D01*
X101582Y028342D02*
X101892Y028342D01*
X101996Y028239D01*
X101996Y028135D01*
X101892Y028032D01*
X101582Y028032D01*
X101582Y028342D02*
X101582Y027721D01*
X101892Y027721D01*
X101996Y027825D01*
X101996Y027928D01*
X101892Y028032D01*
X099855Y028239D02*
X099855Y027825D01*
X095062Y028428D02*
X095062Y028842D01*
X094649Y028842D02*
X094649Y028428D01*
X094855Y028221D01*
X095062Y028428D01*
X092996Y028532D02*
X092582Y028532D01*
X092582Y028635D02*
X092789Y028842D01*
X092996Y028635D01*
X092996Y028221D01*
X092582Y028221D02*
X092582Y028635D01*
X092351Y028428D02*
X092351Y028842D01*
X091938Y028842D02*
X091938Y028428D01*
X092144Y028221D01*
X092351Y028428D01*
X091707Y028325D02*
X091603Y028221D01*
X091396Y028221D01*
X091293Y028325D01*
X091293Y028532D02*
X091500Y028635D01*
X091603Y028635D01*
X091707Y028532D01*
X091707Y028325D01*
X091293Y028532D02*
X091293Y028842D01*
X091707Y028842D01*
X091062Y028532D02*
X090649Y028532D01*
X090855Y028739D02*
X090855Y028325D01*
X094649Y027842D02*
X094855Y027842D01*
X094752Y027842D02*
X094752Y027221D01*
X094649Y027221D02*
X094855Y027221D01*
X091851Y026739D02*
X091851Y026325D01*
X091748Y026221D01*
X091438Y026221D01*
X091438Y026842D01*
X091748Y026842D01*
X091851Y026739D01*
X091207Y026842D02*
X091207Y026221D01*
X090793Y026842D01*
X090793Y026221D01*
X090562Y026325D02*
X090459Y026221D01*
X090252Y026221D01*
X090149Y026325D01*
X090149Y026739D01*
X090252Y026842D01*
X090459Y026842D01*
X090562Y026739D01*
X090562Y026532D02*
X090355Y026532D01*
X090562Y026532D02*
X090562Y026325D01*
X090793Y025342D02*
X090793Y025032D01*
X091000Y025135D01*
X091103Y025135D01*
X091207Y025032D01*
X091207Y024825D01*
X091103Y024721D01*
X090896Y024721D01*
X090793Y024825D01*
X090562Y025032D02*
X090149Y025032D01*
X090793Y025342D02*
X091207Y025342D01*
X091438Y025342D02*
X091438Y024928D01*
X091644Y024721D01*
X091851Y024928D01*
X091851Y025342D01*
X092082Y025135D02*
X092289Y025342D01*
X092496Y025135D01*
X092496Y024721D01*
X092496Y025032D02*
X092082Y025032D01*
X092082Y025135D02*
X092082Y024721D01*
X091748Y023842D02*
X091438Y023842D01*
X091438Y023221D01*
X091748Y023221D01*
X091851Y023325D01*
X091851Y023739D01*
X091748Y023842D01*
X091207Y023842D02*
X091207Y023221D01*
X090793Y023842D01*
X090793Y023221D01*
X090562Y023325D02*
X090562Y023532D01*
X090355Y023532D01*
X090149Y023739D02*
X090149Y023325D01*
X090252Y023221D01*
X090459Y023221D01*
X090562Y023325D01*
X090562Y023739D02*
X090459Y023842D01*
X090252Y023842D01*
X090149Y023739D01*
X090355Y022239D02*
X090355Y021825D01*
X090149Y022032D02*
X090562Y022032D01*
X090793Y022135D02*
X091000Y022342D01*
X091000Y021721D01*
X090793Y021721D02*
X091207Y021721D01*
X091438Y021825D02*
X091541Y021721D01*
X091748Y021721D01*
X091851Y021825D01*
X091851Y022032D01*
X091748Y022135D01*
X091644Y022135D01*
X091438Y022032D01*
X091438Y022342D01*
X091851Y022342D01*
X092082Y022342D02*
X092082Y021928D01*
X092289Y021721D01*
X092496Y021928D01*
X092496Y022342D01*
X092727Y022135D02*
X092933Y022342D01*
X093140Y022135D01*
X093140Y021721D01*
X093140Y022032D02*
X092727Y022032D01*
X092727Y022135D02*
X092727Y021721D01*
X094649Y021842D02*
X094855Y021842D01*
X094752Y021842D02*
X094752Y021221D01*
X094649Y021221D02*
X094855Y021221D01*
X091851Y020739D02*
X091851Y020325D01*
X091748Y020221D01*
X091438Y020221D01*
X091438Y020842D01*
X091748Y020842D01*
X091851Y020739D01*
X091207Y020842D02*
X091207Y020221D01*
X090793Y020842D01*
X090793Y020221D01*
X090562Y020325D02*
X090562Y020532D01*
X090355Y020532D01*
X090149Y020739D02*
X090149Y020325D01*
X090252Y020221D01*
X090459Y020221D01*
X090562Y020325D01*
X090562Y020739D02*
X090459Y020842D01*
X090252Y020842D01*
X090149Y020739D01*
X094649Y022428D02*
X094855Y022221D01*
X095062Y022428D01*
X095062Y022842D01*
X094649Y022842D02*
X094649Y022428D01*
X094649Y024221D02*
X094855Y024221D01*
X094752Y024221D02*
X094752Y024842D01*
X094649Y024842D02*
X094855Y024842D01*
X094855Y025221D02*
X095062Y025428D01*
X095062Y025842D01*
X094649Y025842D02*
X094649Y025428D01*
X094855Y025221D01*
X068569Y020737D02*
X068569Y020530D01*
X068569Y020633D02*
X067948Y020633D01*
X067948Y020530D02*
X067948Y020737D01*
X067569Y020745D02*
X066948Y020745D01*
X066948Y021055D01*
X067051Y021158D01*
X067258Y021158D01*
X067362Y021055D01*
X067362Y020745D01*
X067362Y020952D02*
X067569Y021158D01*
X067465Y020514D02*
X067051Y020514D01*
X066948Y020411D01*
X066948Y020204D01*
X067051Y020100D01*
X067465Y020100D01*
X067569Y020204D01*
X067569Y020411D01*
X067465Y020514D01*
X068051Y019010D02*
X068465Y019010D01*
X068569Y018907D01*
X068569Y018700D01*
X068465Y018596D01*
X068051Y018596D01*
X067948Y018700D01*
X067948Y018907D01*
X068051Y019010D01*
X068362Y018803D02*
X068569Y019010D01*
X068948Y018580D02*
X069569Y018580D01*
X068948Y018167D01*
X069569Y018167D01*
X069465Y017936D02*
X068948Y017936D01*
X068948Y017522D02*
X069465Y017522D01*
X069569Y017626D01*
X069569Y017832D01*
X069465Y017936D01*
X068569Y018167D02*
X068569Y018374D01*
X068569Y018270D02*
X067948Y018270D01*
X067948Y018167D02*
X067948Y018374D01*
X067948Y017936D02*
X068569Y017522D01*
X068465Y017291D02*
X068051Y017291D01*
X067948Y017188D01*
X067948Y016981D01*
X068051Y016878D01*
X068465Y016878D01*
X068569Y016981D01*
X068569Y017188D01*
X068465Y017291D01*
X068948Y017291D02*
X068948Y017084D01*
X068948Y017188D02*
X069465Y017188D01*
X069569Y017084D01*
X069569Y016981D01*
X069465Y016878D01*
X089649Y031928D02*
X089855Y031721D01*
X090062Y031928D01*
X090062Y032342D01*
X090293Y032239D02*
X090396Y032342D01*
X090603Y032342D01*
X090707Y032239D01*
X090707Y031825D01*
X090603Y031721D01*
X090396Y031721D01*
X090293Y031825D01*
X090293Y032239D01*
X089649Y032342D02*
X089649Y031928D01*
X090938Y031721D02*
X091351Y031721D01*
X090938Y031721D02*
X090938Y032342D01*
X090938Y032721D02*
X090938Y033342D01*
X091248Y033342D01*
X091351Y033239D01*
X091351Y033032D01*
X091248Y032928D01*
X090938Y032928D01*
X091144Y032928D02*
X091351Y032721D01*
X091582Y032721D02*
X091582Y033342D01*
X091892Y033342D01*
X091996Y033239D01*
X091996Y033032D01*
X091892Y032928D01*
X091582Y032928D01*
X091789Y032928D02*
X091996Y032721D01*
X092227Y032721D02*
X092640Y032721D01*
X092871Y032721D02*
X092871Y033342D01*
X093285Y032721D01*
X093285Y033342D01*
X093516Y033342D02*
X093929Y033342D01*
X093722Y033342D02*
X093722Y032721D01*
X093516Y032342D02*
X093516Y031721D01*
X093929Y031721D01*
X093722Y032032D02*
X093516Y032032D01*
X093285Y032032D02*
X093078Y032032D01*
X093285Y032032D02*
X093285Y031825D01*
X093181Y031721D01*
X092975Y031721D01*
X092871Y031825D01*
X092871Y032239D01*
X092975Y032342D01*
X093181Y032342D01*
X093285Y032239D01*
X093516Y032342D02*
X093929Y032342D01*
X094805Y032342D02*
X095012Y032135D01*
X095218Y032342D01*
X095218Y031721D01*
X095449Y031825D02*
X095553Y031721D01*
X095759Y031721D01*
X095863Y031825D01*
X095863Y032239D01*
X095759Y032342D01*
X095553Y032342D01*
X095449Y032239D01*
X095449Y031825D01*
X094805Y031721D02*
X094805Y032342D01*
X094805Y032721D02*
X094805Y033342D01*
X095012Y033135D01*
X095218Y033342D01*
X095218Y032721D01*
X095449Y032825D02*
X095553Y032721D01*
X095759Y032721D01*
X095863Y032825D01*
X095863Y033239D01*
X095759Y033342D01*
X095553Y033342D01*
X095449Y033239D01*
X095449Y032825D01*
X096094Y032721D02*
X096094Y033342D01*
X096507Y032721D01*
X096507Y033342D01*
X096738Y033135D02*
X096738Y033032D01*
X096842Y033032D01*
X096842Y033135D01*
X096738Y033135D01*
X096738Y032825D02*
X096738Y032721D01*
X096842Y032721D01*
X096842Y032825D01*
X096738Y032825D01*
X096507Y032342D02*
X096507Y031721D01*
X096094Y032342D01*
X096094Y031721D01*
X096738Y031721D02*
X096738Y031825D01*
X096842Y031825D01*
X096842Y031721D01*
X096738Y031721D01*
X096738Y032032D02*
X096738Y032135D01*
X096842Y032135D01*
X096842Y032032D01*
X096738Y032032D01*
X097705Y032135D02*
X097912Y032342D01*
X097912Y031721D01*
X097705Y031721D02*
X098119Y031721D01*
X098350Y031928D02*
X098556Y031721D01*
X098763Y031928D01*
X098763Y032342D01*
X098350Y032342D02*
X098350Y031928D01*
X098994Y031721D02*
X099408Y032342D01*
X099639Y032342D02*
X099639Y031928D01*
X099845Y031721D01*
X100052Y031928D01*
X100052Y032342D01*
X100283Y032239D02*
X100387Y032342D01*
X100593Y032342D01*
X100697Y032239D01*
X100697Y031825D01*
X100593Y031721D01*
X100387Y031721D01*
X100283Y031825D01*
X100283Y032239D01*
X100928Y032342D02*
X100928Y031721D01*
X101341Y031721D01*
X101779Y031721D02*
X101779Y032342D01*
X101572Y032342D02*
X101986Y032342D01*
X101341Y033032D02*
X101238Y032928D01*
X100928Y032928D01*
X100928Y032721D02*
X100928Y033342D01*
X101238Y033342D01*
X101341Y033239D01*
X101341Y033032D01*
X100697Y033342D02*
X100697Y032721D01*
X100283Y032721D02*
X100283Y033342D01*
X100490Y033135D01*
X100697Y033342D01*
X100052Y033135D02*
X100052Y032721D01*
X100052Y033032D02*
X099639Y033032D01*
X099639Y033135D02*
X099639Y032721D01*
X099639Y033135D02*
X099845Y033342D01*
X100052Y033135D01*
X099408Y033342D02*
X098994Y032721D01*
X098763Y032928D02*
X098763Y033342D01*
X098350Y033342D02*
X098350Y032928D01*
X098556Y032721D01*
X098763Y032928D01*
X098119Y032721D02*
X097705Y032721D01*
X097912Y032721D02*
X097912Y033342D01*
X097705Y033135D01*
X092640Y033342D02*
X092227Y033342D01*
X092227Y032721D01*
X092227Y033032D02*
X092433Y033032D01*
X092433Y032342D02*
X092640Y032135D01*
X092640Y031721D01*
X092640Y032032D02*
X092227Y032032D01*
X092227Y032135D02*
X092433Y032342D01*
X092227Y032135D02*
X092227Y031721D01*
X091789Y031721D02*
X091789Y032342D01*
X091582Y032342D02*
X091996Y032342D01*
X090707Y032825D02*
X090707Y033342D01*
X090293Y033342D02*
X090293Y032825D01*
X090396Y032721D01*
X090603Y032721D01*
X090707Y032825D01*
X090062Y032825D02*
X089959Y032721D01*
X089752Y032721D01*
X089649Y032825D01*
X089649Y033239D01*
X089752Y033342D01*
X089959Y033342D01*
X090062Y033239D01*
X169399Y025032D02*
X169812Y025032D01*
X170043Y025032D02*
X170250Y025135D01*
X170353Y025135D01*
X170457Y025032D01*
X170457Y024825D01*
X170353Y024721D01*
X170146Y024721D01*
X170043Y024825D01*
X170043Y025032D02*
X170043Y025342D01*
X170457Y025342D01*
X170688Y025342D02*
X170688Y024928D01*
X170894Y024721D01*
X171101Y024928D01*
X171101Y025342D01*
X171248Y026221D02*
X171351Y026325D01*
X171351Y026739D01*
X171248Y026842D01*
X170938Y026842D01*
X170938Y026221D01*
X171248Y026221D01*
X170707Y026221D02*
X170707Y026842D01*
X170293Y026842D02*
X170707Y026221D01*
X170293Y026221D02*
X170293Y026842D01*
X170062Y026739D02*
X169959Y026842D01*
X169752Y026842D01*
X169649Y026739D01*
X169649Y026325D01*
X169752Y026221D01*
X169959Y026221D01*
X170062Y026325D01*
X170062Y026532D01*
X169855Y026532D01*
X169855Y027575D02*
X169855Y027989D01*
X169649Y027782D02*
X170062Y027782D01*
X170293Y027782D02*
X170500Y027885D01*
X170603Y027885D01*
X170707Y027782D01*
X170707Y027575D01*
X170603Y027471D01*
X170396Y027471D01*
X170293Y027575D01*
X170293Y027782D02*
X170293Y028092D01*
X170707Y028092D01*
X170938Y028092D02*
X170938Y027678D01*
X171144Y027471D01*
X171351Y027678D01*
X171351Y028092D01*
X171248Y023842D02*
X170938Y023842D01*
X170938Y023221D01*
X171248Y023221D01*
X171351Y023325D01*
X171351Y023739D01*
X171248Y023842D01*
X170707Y023842D02*
X170707Y023221D01*
X170293Y023842D01*
X170293Y023221D01*
X170062Y023325D02*
X170062Y023532D01*
X169855Y023532D01*
X169649Y023739D02*
X169649Y023325D01*
X169752Y023221D01*
X169959Y023221D01*
X170062Y023325D01*
X170062Y023739D02*
X169959Y023842D01*
X169752Y023842D01*
X169649Y023739D01*
X169605Y022489D02*
X169605Y022075D01*
X169399Y022282D02*
X169812Y022282D01*
X170043Y022385D02*
X170250Y022592D01*
X170250Y021971D01*
X170043Y021971D02*
X170457Y021971D01*
X170688Y022075D02*
X170791Y021971D01*
X170998Y021971D01*
X171101Y022075D01*
X171101Y022282D01*
X170998Y022385D01*
X170894Y022385D01*
X170688Y022282D01*
X170688Y022592D01*
X171101Y022592D01*
X171332Y022592D02*
X171332Y022178D01*
X171539Y021971D01*
X171746Y022178D01*
X171746Y022592D01*
X171248Y021092D02*
X170938Y021092D01*
X170938Y020471D01*
X171248Y020471D01*
X171351Y020575D01*
X171351Y020989D01*
X171248Y021092D01*
X170707Y021092D02*
X170707Y020471D01*
X170293Y021092D01*
X170293Y020471D01*
X170062Y020575D02*
X170062Y020782D01*
X169855Y020782D01*
X169649Y020989D02*
X169649Y020575D01*
X169752Y020471D01*
X169959Y020471D01*
X170062Y020575D01*
X170062Y020989D02*
X169959Y021092D01*
X169752Y021092D01*
X169649Y020989D01*
X170250Y019592D02*
X170250Y018971D01*
X170043Y018971D02*
X170457Y018971D01*
X170688Y019075D02*
X170791Y018971D01*
X170998Y018971D01*
X171101Y019075D01*
X171101Y019282D01*
X170998Y019385D01*
X170894Y019385D01*
X170688Y019282D01*
X170688Y019592D01*
X171101Y019592D01*
X171332Y019592D02*
X171332Y019178D01*
X171539Y018971D01*
X171746Y019178D01*
X171746Y019592D01*
X170250Y019592D02*
X170043Y019385D01*
X169812Y019282D02*
X169399Y019282D01*
X169752Y018342D02*
X169649Y018239D01*
X169649Y017825D01*
X169752Y017721D01*
X169959Y017721D01*
X170062Y017825D01*
X170062Y018032D01*
X169855Y018032D01*
X170062Y018239D02*
X169959Y018342D01*
X169752Y018342D01*
X170293Y018342D02*
X170707Y017721D01*
X170707Y018342D01*
X170938Y018342D02*
X171248Y018342D01*
X171351Y018239D01*
X171351Y017825D01*
X171248Y017721D01*
X170938Y017721D01*
X170938Y018342D01*
X170293Y018342D02*
X170293Y017721D01*
X170353Y016842D02*
X170146Y016842D01*
X170043Y016739D01*
X169812Y016532D02*
X169399Y016532D01*
X169605Y016739D02*
X169605Y016325D01*
X170043Y016221D02*
X170457Y016635D01*
X170457Y016739D01*
X170353Y016842D01*
X170688Y016532D02*
X170998Y016842D01*
X170998Y016221D01*
X171101Y016532D02*
X170688Y016532D01*
X170457Y016221D02*
X170043Y016221D01*
X171332Y016428D02*
X171332Y016842D01*
X171746Y016842D02*
X171746Y016428D01*
X171539Y016221D01*
X171332Y016428D01*
X171248Y015592D02*
X170938Y015592D01*
X170938Y014971D01*
X171248Y014971D01*
X171351Y015075D01*
X171351Y015489D01*
X171248Y015592D01*
X170707Y015592D02*
X170707Y014971D01*
X170293Y015592D01*
X170293Y014971D01*
X170062Y015075D02*
X170062Y015282D01*
X169855Y015282D01*
X169649Y015489D02*
X169649Y015075D01*
X169752Y014971D01*
X169959Y014971D01*
X170062Y015075D01*
X170062Y015489D02*
X169959Y015592D01*
X169752Y015592D01*
X169649Y015489D01*
X169709Y014342D02*
X169502Y014342D01*
X169399Y014239D01*
X169399Y014135D01*
X169502Y014032D01*
X169709Y014032D01*
X169812Y013928D01*
X169812Y013825D01*
X169709Y013721D01*
X169502Y013721D01*
X169399Y013825D01*
X169812Y014239D02*
X169709Y014342D01*
X170043Y014342D02*
X170043Y013721D01*
X170043Y014032D02*
X170457Y014032D01*
X170457Y014342D02*
X170457Y013721D01*
X170688Y013721D02*
X171101Y013721D01*
X171332Y013721D02*
X171642Y013721D01*
X171746Y013825D01*
X171746Y014239D01*
X171642Y014342D01*
X171332Y014342D01*
X171332Y013721D01*
X170688Y013721D02*
X170688Y014342D01*
X170688Y012842D02*
X170688Y012221D01*
X171101Y012221D01*
X171332Y012221D02*
X171332Y012842D01*
X171642Y012842D01*
X171746Y012739D01*
X171746Y012325D01*
X171642Y012221D01*
X171332Y012221D01*
X170457Y012221D02*
X170457Y012842D01*
X170457Y012532D02*
X170043Y012532D01*
X169812Y012428D02*
X169709Y012532D01*
X169502Y012532D01*
X169399Y012635D01*
X169399Y012739D01*
X169502Y012842D01*
X169709Y012842D01*
X169812Y012739D01*
X170043Y012842D02*
X170043Y012221D01*
X169812Y012325D02*
X169709Y012221D01*
X169502Y012221D01*
X169399Y012325D01*
X169812Y012325D02*
X169812Y012428D01*
D12*
X077109Y018681D03*
D13*
X092109Y020681D02*
X095109Y020681D01*
X094109Y020181D02*
X093609Y020181D01*
X093609Y018181D01*
X094109Y018181D01*
X095109Y017681D02*
X093109Y017681D01*
X093609Y017181D02*
X094109Y017181D01*
X093609Y017181D02*
X093609Y015181D01*
X094109Y015181D01*
X098609Y015181D02*
X099109Y015181D01*
X099109Y017181D01*
X098609Y017181D01*
X098109Y017681D02*
X099609Y017681D01*
X099109Y018181D02*
X098609Y018181D01*
X099109Y018181D02*
X099109Y020181D01*
X098609Y020181D01*
X098109Y020681D02*
X099609Y020681D01*
X099109Y021181D02*
X098609Y021181D01*
X099109Y021181D02*
X099109Y023181D01*
X098609Y023181D01*
X098109Y023681D02*
X099609Y023681D01*
X099109Y024181D02*
X098609Y024181D01*
X099109Y024181D02*
X099109Y026181D01*
X098609Y026181D01*
X098109Y026681D02*
X099609Y026681D01*
X099109Y027181D02*
X098609Y027181D01*
X099109Y027181D02*
X099109Y029181D01*
X098609Y029181D01*
X094109Y029181D02*
X093609Y029181D01*
X093609Y027181D01*
X094109Y027181D01*
X095109Y026681D02*
X092109Y026681D01*
X093609Y026181D02*
X094109Y026181D01*
X093609Y026181D02*
X093609Y024181D01*
X094109Y024181D01*
X095109Y023681D02*
X092109Y023681D01*
X093609Y023181D02*
X094109Y023181D01*
X093609Y023181D02*
X093609Y021181D01*
X094109Y021181D01*
D14*
X094181Y033741D02*
X094475Y033741D01*
X094622Y033888D01*
X094955Y033888D02*
X095102Y033741D01*
X095396Y033741D01*
X095542Y033888D01*
X095542Y034622D01*
X095876Y034622D02*
X096316Y034622D01*
X096463Y034475D01*
X096463Y034182D01*
X096316Y034035D01*
X095876Y034035D01*
X095876Y033741D02*
X095876Y034622D01*
X096170Y034035D02*
X096463Y033741D01*
X096797Y033741D02*
X096797Y034622D01*
X097237Y034622D01*
X097384Y034475D01*
X097384Y034182D01*
X097237Y034035D01*
X096797Y034035D01*
X097090Y034035D02*
X097384Y033741D01*
X097717Y033741D02*
X098305Y033741D01*
X098638Y033741D02*
X098638Y034622D01*
X099225Y033741D01*
X099225Y034622D01*
X099559Y034622D02*
X100146Y034622D01*
X099853Y034622D02*
X099853Y033741D01*
X101400Y033741D02*
X101400Y034622D01*
X101694Y034329D01*
X101988Y034622D01*
X101988Y033741D01*
X102321Y033888D02*
X102468Y033741D01*
X102762Y033741D01*
X102908Y033888D01*
X102908Y034475D01*
X102762Y034622D01*
X102468Y034622D01*
X102321Y034475D01*
X102321Y033888D01*
X103242Y033741D02*
X103242Y034622D01*
X103829Y033741D01*
X103829Y034622D01*
X104163Y034622D02*
X104456Y034622D01*
X104309Y034622D02*
X104309Y033741D01*
X104163Y033741D02*
X104456Y033741D01*
X105070Y033741D02*
X105070Y034622D01*
X104777Y034622D02*
X105364Y034622D01*
X105697Y034475D02*
X105697Y033888D01*
X105844Y033741D01*
X106138Y033741D01*
X106284Y033888D01*
X106284Y034475D01*
X106138Y034622D01*
X105844Y034622D01*
X105697Y034475D01*
X106618Y034622D02*
X107058Y034622D01*
X107205Y034475D01*
X107205Y034182D01*
X107058Y034035D01*
X106618Y034035D01*
X106618Y033741D02*
X106618Y034622D01*
X106912Y034035D02*
X107205Y033741D01*
X098305Y034622D02*
X097717Y034622D01*
X097717Y033741D01*
X097717Y034182D02*
X098011Y034182D01*
X094955Y033888D02*
X094955Y034622D01*
X094622Y034475D02*
X094475Y034622D01*
X094181Y034622D01*
X094034Y034475D01*
X094034Y033888D01*
X094181Y033741D01*
X093701Y034622D02*
X093114Y033741D01*
X092780Y033741D02*
X092193Y033741D01*
X092193Y034622D01*
X092780Y034622D01*
X092487Y034182D02*
X092193Y034182D01*
X091859Y034182D02*
X091566Y034182D01*
X091859Y034182D02*
X091859Y033888D01*
X091713Y033741D01*
X091419Y033741D01*
X091272Y033888D01*
X091272Y034475D01*
X091419Y034622D01*
X091713Y034622D01*
X091859Y034475D01*
X090939Y034329D02*
X090939Y033741D01*
X090939Y034182D02*
X090351Y034182D01*
X090351Y034329D02*
X090351Y033741D01*
X089724Y033741D02*
X089724Y034622D01*
X089431Y034622D02*
X090018Y034622D01*
X090351Y034329D02*
X090645Y034622D01*
X090939Y034329D01*
X089097Y033741D02*
X088510Y033741D01*
X088510Y034622D01*
X088176Y034475D02*
X088030Y034622D01*
X087736Y034622D01*
X087589Y034475D01*
X087589Y033888D01*
X087736Y033741D01*
X088030Y033741D01*
X088176Y033888D01*
X088176Y034475D01*
X087256Y034622D02*
X087256Y034035D01*
X086962Y033741D01*
X086669Y034035D01*
X086669Y034622D01*
X023894Y034741D02*
X023894Y035622D01*
X023307Y035622D02*
X023894Y034741D01*
X023307Y034741D02*
X023307Y035622D01*
X022987Y035622D02*
X022693Y035622D01*
X022840Y035622D02*
X022840Y034741D01*
X022693Y034741D02*
X022987Y034741D01*
X021439Y034741D02*
X021145Y035035D01*
X021292Y035035D02*
X020851Y035035D01*
X020851Y034741D02*
X020851Y035622D01*
X021292Y035622D01*
X021439Y035475D01*
X021439Y035182D01*
X021292Y035035D01*
X020518Y034741D02*
X019931Y034741D01*
X019931Y035622D01*
X020518Y035622D01*
X020224Y035182D02*
X019931Y035182D01*
X019597Y035622D02*
X019597Y034741D01*
X019304Y035035D01*
X019010Y034741D01*
X019010Y035622D01*
X018676Y035475D02*
X018530Y035622D01*
X018236Y035622D01*
X018089Y035475D01*
X018089Y034888D01*
X018236Y034741D01*
X018530Y034741D01*
X018676Y034888D01*
X018676Y035475D01*
X017756Y035475D02*
X017756Y035182D01*
X017609Y035035D01*
X017169Y035035D01*
X017169Y034741D02*
X017169Y035622D01*
X017609Y035622D01*
X017756Y035475D01*
D15*
X030859Y037806D02*
X030859Y031556D01*
X035359Y031556D01*
X035359Y037806D01*
X030859Y037806D01*
X047809Y034281D02*
X048409Y034281D01*
X048409Y033081D01*
X047809Y033081D01*
X047809Y034281D01*
X048809Y034281D02*
X049409Y034281D01*
X049409Y033081D01*
X048809Y033081D01*
X048809Y034281D01*
X049703Y035835D02*
X049703Y032528D01*
X051514Y032528D01*
X051514Y035835D01*
X049703Y035835D01*
X040262Y033087D02*
X036955Y033087D01*
X036955Y031276D01*
X040262Y031276D01*
X040262Y033087D01*
X046203Y031835D02*
X048014Y031835D01*
X048014Y028528D01*
X046203Y028528D01*
X046203Y031835D01*
X045909Y030281D02*
X045309Y030281D01*
X045309Y029081D01*
X045909Y029081D01*
X045909Y030281D01*
X049859Y029306D02*
X054359Y029306D01*
X054359Y023056D01*
X049859Y023056D01*
X049859Y029306D01*
X051309Y030081D02*
X051909Y030081D01*
X051909Y031281D01*
X051309Y031281D01*
X051309Y030081D01*
X052809Y030081D02*
X053409Y030081D01*
X053409Y031281D01*
X052809Y031281D01*
X052809Y030081D01*
X039209Y029881D02*
X038009Y029881D01*
X038009Y030481D01*
X039209Y030481D01*
X039209Y029881D01*
X037409Y030031D02*
X036809Y030031D01*
X036809Y028831D01*
X037409Y028831D01*
X037409Y030031D01*
X035909Y030281D02*
X035309Y030281D01*
X035309Y029081D01*
X035909Y029081D01*
X035909Y030281D01*
X035014Y030835D02*
X035014Y027528D01*
X033203Y027528D01*
X033203Y030835D01*
X035014Y030835D01*
X032209Y030981D02*
X032209Y030381D01*
X031009Y030381D01*
X031009Y030981D01*
X032209Y030981D01*
X032309Y029781D02*
X032909Y029781D01*
X032909Y028581D01*
X032309Y028581D01*
X032309Y029781D01*
X021687Y028626D02*
X021687Y025477D01*
X018687Y025477D01*
X018687Y028626D01*
X021687Y028626D01*
X020876Y029118D02*
X020876Y011205D01*
X017431Y011205D01*
X018687Y011697D02*
X018687Y014847D01*
X021687Y014847D01*
X021687Y011697D01*
X018687Y011697D01*
X022955Y012587D02*
X026262Y012587D01*
X026262Y010776D01*
X022955Y010776D01*
X022955Y012587D01*
X021687Y014453D02*
X018687Y014453D01*
X018687Y017603D01*
X021687Y017603D01*
X021687Y014453D01*
X028509Y016381D02*
X028509Y016981D01*
X029709Y016981D01*
X029709Y016381D01*
X028509Y016381D01*
X029809Y016781D02*
X030409Y016781D01*
X030409Y015581D01*
X029809Y015581D01*
X029809Y016781D01*
X028359Y017556D02*
X028359Y023806D01*
X032859Y023806D01*
X032859Y017556D01*
X028359Y017556D01*
X032703Y015835D02*
X034514Y015835D01*
X034514Y012528D01*
X032703Y012528D01*
X032703Y015835D01*
X035309Y015281D02*
X035909Y015281D01*
X035909Y014081D01*
X035309Y014081D01*
X035309Y015281D01*
X037509Y016381D02*
X037509Y016981D01*
X038709Y016981D01*
X038709Y016381D01*
X037509Y016381D01*
X036955Y017776D02*
X036955Y019587D01*
X040262Y019587D01*
X040262Y017776D01*
X036955Y017776D01*
X037634Y020631D02*
X037634Y021231D01*
X038834Y021231D01*
X038834Y020631D01*
X037634Y020631D01*
X021687Y020359D02*
X021687Y017209D01*
X018687Y017209D01*
X018687Y020359D01*
X021687Y020359D01*
X021687Y019965D02*
X021687Y023114D01*
X018687Y023114D01*
X018687Y019965D01*
X021687Y019965D01*
X021687Y022721D02*
X018687Y022721D01*
X018687Y025870D01*
X021687Y025870D01*
X021687Y022721D01*
X020876Y029118D02*
X017431Y029118D01*
X056455Y016587D02*
X059762Y016587D01*
X059762Y014776D01*
X056455Y014776D01*
X056455Y016587D01*
X052359Y014806D02*
X047859Y014806D01*
X047859Y008556D01*
X052359Y008556D01*
X052359Y014806D01*
X057009Y013481D02*
X057009Y012881D01*
X058209Y012881D01*
X058209Y013481D01*
X057009Y013481D01*
X056014Y009335D02*
X054203Y009335D01*
X054203Y006028D01*
X056014Y006028D01*
X056014Y009335D01*
X052909Y008281D02*
X052309Y008281D01*
X052309Y007081D01*
X052909Y007081D01*
X052909Y008281D01*
X050909Y008281D02*
X050309Y008281D01*
X050309Y007081D01*
X050909Y007081D01*
X050909Y008281D01*
X049334Y007856D02*
X049334Y007256D01*
X048134Y007256D01*
X048134Y007856D01*
X049334Y007856D01*
X056809Y008031D02*
X056809Y006831D01*
X057409Y006831D01*
X057409Y008031D01*
X056809Y008031D01*
X038709Y006231D02*
X038709Y005631D01*
X037509Y005631D01*
X037509Y006231D01*
X038709Y006231D01*
X038709Y004981D02*
X037509Y004981D01*
X037509Y004381D01*
X038709Y004381D01*
X038709Y004981D01*
X040262Y003587D02*
X036955Y003587D01*
X036955Y001776D01*
X040262Y001776D01*
X040262Y003587D01*
X032359Y002556D02*
X032359Y008806D01*
X027859Y008806D01*
X027859Y002556D01*
X032359Y002556D01*
X032209Y009381D02*
X031009Y009381D01*
X031009Y009981D01*
X032209Y009981D01*
X032209Y009381D01*
X030909Y011081D02*
X030309Y011081D01*
X030309Y012281D01*
X030909Y012281D01*
X030909Y011081D01*
X025209Y009981D02*
X025209Y009381D01*
X024009Y009381D01*
X024009Y009981D01*
X025209Y009981D01*
X095359Y014931D02*
X095359Y029431D01*
X097859Y029431D01*
X097859Y014931D01*
X095359Y014931D01*
X105859Y015556D02*
X105859Y021806D01*
X110359Y021806D01*
X110359Y015556D01*
X105859Y015556D01*
X106009Y014981D02*
X107209Y014981D01*
X107209Y014381D01*
X106009Y014381D01*
X106009Y014981D01*
X107309Y014281D02*
X107909Y014281D01*
X107909Y013081D01*
X107309Y013081D01*
X107309Y014281D01*
X108703Y014835D02*
X110514Y014835D01*
X110514Y011528D01*
X108703Y011528D01*
X108703Y014835D01*
X111309Y014281D02*
X111909Y014281D01*
X111909Y013081D01*
X111309Y013081D01*
X111309Y014281D01*
X107514Y011835D02*
X105703Y011835D01*
X105703Y008528D01*
X107514Y008528D01*
X107514Y011835D01*
X110809Y011281D02*
X111409Y011281D01*
X111409Y010081D01*
X110809Y010081D01*
X110809Y011281D01*
X115203Y010835D02*
X115203Y007528D01*
X117014Y007528D01*
X117014Y010835D01*
X115203Y010835D01*
X114409Y009781D02*
X114409Y008581D01*
X113809Y008581D01*
X113809Y009781D01*
X114409Y009781D01*
X112709Y009981D02*
X112709Y009381D01*
X111509Y009381D01*
X111509Y009981D01*
X112709Y009981D01*
X112859Y008806D02*
X108359Y008806D01*
X108359Y002556D01*
X112859Y002556D01*
X112859Y008806D01*
X117259Y006981D02*
X117259Y006381D01*
X118459Y006381D01*
X118459Y006981D01*
X117259Y006981D01*
X129955Y007587D02*
X129955Y005776D01*
X133262Y005776D01*
X133262Y007587D01*
X129955Y007587D01*
X130859Y008556D02*
X130859Y014806D01*
X135359Y014806D01*
X135359Y008556D01*
X130859Y008556D01*
X130509Y004981D02*
X130509Y004381D01*
X131709Y004381D01*
X131709Y004981D01*
X130509Y004981D01*
X104459Y008381D02*
X104459Y008981D01*
X103259Y008981D01*
X103259Y008381D01*
X104459Y008381D01*
X126809Y014081D02*
X127409Y014081D01*
X127409Y015281D01*
X126809Y015281D01*
X126809Y014081D01*
X125959Y014131D02*
X124759Y014131D01*
X124759Y014731D01*
X125959Y014731D01*
X125959Y014131D01*
X128203Y013028D02*
X128203Y016335D01*
X130014Y016335D01*
X130014Y013028D01*
X128203Y013028D01*
X132309Y015081D02*
X132909Y015081D01*
X132909Y016281D01*
X132309Y016281D01*
X132309Y015081D01*
X133809Y015081D02*
X134409Y015081D01*
X134409Y016281D01*
X133809Y016281D01*
X133809Y015081D01*
X117014Y019528D02*
X115203Y019528D01*
X115203Y022835D01*
X117014Y022835D01*
X117014Y019528D01*
X117809Y020081D02*
X118409Y020081D01*
X118409Y021281D01*
X117809Y021281D01*
X117809Y020081D01*
X119059Y020081D02*
X119659Y020081D01*
X119659Y021281D01*
X119059Y021281D01*
X119059Y020081D01*
X126703Y022528D02*
X126703Y025835D01*
X128514Y025835D01*
X128514Y022528D01*
X126703Y022528D01*
X130359Y023556D02*
X130359Y029806D01*
X134859Y029806D01*
X134859Y023556D01*
X130359Y023556D01*
X131309Y023281D02*
X131909Y023281D01*
X131909Y022081D01*
X131309Y022081D01*
X131309Y023281D01*
X132809Y023281D02*
X133409Y023281D01*
X133409Y022081D01*
X132809Y022081D01*
X132809Y023281D01*
X129409Y024081D02*
X128809Y024081D01*
X128809Y025281D01*
X129409Y025281D01*
X129409Y024081D01*
X135703Y024335D02*
X135703Y021028D01*
X137514Y021028D01*
X137514Y024335D01*
X135703Y024335D01*
X137809Y023781D02*
X138409Y023781D01*
X138409Y022581D01*
X137809Y022581D01*
X137809Y023781D01*
X139059Y023781D02*
X139659Y023781D01*
X139659Y022581D01*
X139059Y022581D01*
X139059Y023781D01*
X116262Y028276D02*
X112955Y028276D01*
X112955Y030087D01*
X116262Y030087D01*
X116262Y028276D01*
X114709Y027981D02*
X114709Y027381D01*
X113509Y027381D01*
X113509Y027981D01*
X114709Y027981D01*
X111909Y027581D02*
X111309Y027581D01*
X111309Y028781D01*
X111909Y028781D01*
X111909Y027581D01*
X108514Y028528D02*
X108514Y031835D01*
X106703Y031835D01*
X106703Y028528D01*
X108514Y028528D01*
X110009Y029381D02*
X110009Y029981D01*
X111209Y029981D01*
X111209Y029381D01*
X110009Y029381D01*
X105909Y030081D02*
X105309Y030081D01*
X105309Y031281D01*
X105909Y031281D01*
X105909Y030081D01*
X109866Y030501D02*
X109866Y036751D01*
X114366Y036751D01*
X114366Y030501D01*
X109866Y030501D01*
X105459Y032006D02*
X104259Y032006D01*
X104259Y032606D01*
X105459Y032606D01*
X105459Y032006D01*
X166284Y028626D02*
X166284Y025477D01*
X169284Y025477D01*
X169284Y028626D01*
X166284Y028626D01*
X167097Y030496D02*
X170542Y030496D01*
X167097Y030496D02*
X167097Y012583D01*
X170542Y012583D01*
X169284Y011697D02*
X166284Y011697D01*
X166284Y014847D01*
X169284Y014847D01*
X169284Y011697D01*
X169284Y014453D02*
X166284Y014453D01*
X166284Y017603D01*
X169284Y017603D01*
X169284Y014453D01*
X169284Y017209D02*
X166284Y017209D01*
X166284Y020359D01*
X169284Y020359D01*
X169284Y017209D01*
X169284Y019965D02*
X166284Y019965D01*
X166284Y023114D01*
X169284Y023114D01*
X169284Y019965D01*
X169284Y022721D02*
X166284Y022721D01*
X166284Y025870D01*
X169284Y025870D01*
X169284Y022721D01*
D16*
X166004Y023399D02*
X166004Y023472D01*
X165930Y023546D01*
X165563Y023546D01*
X165563Y023619D02*
X165563Y023472D01*
X165784Y023786D02*
X165784Y024080D01*
X165930Y024246D02*
X166004Y024320D01*
X166004Y024466D01*
X165930Y024540D01*
X165857Y024540D01*
X165784Y024466D01*
X165784Y024393D01*
X165784Y024466D02*
X165710Y024540D01*
X165637Y024540D01*
X165563Y024466D01*
X165563Y024320D01*
X165637Y024246D01*
X165563Y024006D02*
X165784Y023786D01*
X166004Y024006D02*
X165563Y024006D01*
X166004Y023399D02*
X165930Y023326D01*
X165784Y021784D02*
X165784Y021490D01*
X165563Y021711D01*
X166004Y021711D01*
X165784Y021324D02*
X165784Y021030D01*
X165563Y021250D01*
X166004Y021250D01*
X165930Y020790D02*
X165563Y020790D01*
X165563Y020863D02*
X165563Y020716D01*
X165930Y020790D02*
X166004Y020716D01*
X166004Y020643D01*
X165930Y020570D01*
X166315Y019501D02*
X166315Y019207D01*
X166536Y019207D01*
X166462Y019354D01*
X166462Y019427D01*
X166536Y019501D01*
X166682Y019501D01*
X166756Y019427D01*
X166756Y019280D01*
X166682Y019207D01*
X166682Y019040D02*
X166756Y018967D01*
X166756Y018820D01*
X166682Y018747D01*
X166536Y018747D02*
X166462Y018893D01*
X166462Y018967D01*
X166536Y019040D01*
X166682Y019040D01*
X166536Y018747D02*
X166315Y018747D01*
X166315Y019040D01*
X166004Y018955D02*
X166004Y018808D01*
X165930Y018734D01*
X165784Y018734D02*
X165710Y018881D01*
X165710Y018955D01*
X165784Y019028D01*
X165930Y019028D01*
X166004Y018955D01*
X165784Y018734D02*
X165563Y018734D01*
X165563Y019028D01*
X165784Y018568D02*
X165784Y018274D01*
X165563Y018494D01*
X166004Y018494D01*
X166315Y018506D02*
X166682Y018506D01*
X166756Y018433D01*
X166756Y018360D01*
X166682Y018286D01*
X166315Y018433D02*
X166315Y018580D01*
X165930Y018034D02*
X165563Y018034D01*
X165563Y017961D02*
X165563Y018107D01*
X165930Y018034D02*
X166004Y017961D01*
X166004Y017887D01*
X165930Y017814D01*
X166004Y016272D02*
X166004Y015979D01*
X165710Y016272D01*
X165637Y016272D01*
X165563Y016199D01*
X165563Y016052D01*
X165637Y015979D01*
X165563Y015812D02*
X165563Y015518D01*
X165784Y015518D01*
X165710Y015665D01*
X165710Y015738D01*
X165784Y015812D01*
X165930Y015812D01*
X166004Y015738D01*
X166004Y015592D01*
X165930Y015518D01*
X165930Y015278D02*
X165563Y015278D01*
X165563Y015205D02*
X165563Y015351D01*
X165930Y015278D02*
X166004Y015205D01*
X166004Y015131D01*
X165930Y015058D01*
X165930Y013516D02*
X166004Y013443D01*
X166004Y013296D01*
X165930Y013223D01*
X165930Y013056D02*
X166004Y012982D01*
X166004Y012836D01*
X165930Y012762D01*
X165784Y012762D02*
X165710Y012909D01*
X165710Y012982D01*
X165784Y013056D01*
X165930Y013056D01*
X165784Y012762D02*
X165563Y012762D01*
X165563Y013056D01*
X165637Y013223D02*
X165563Y013296D01*
X165563Y013443D01*
X165637Y013516D01*
X165710Y013516D01*
X165784Y013443D01*
X165857Y013516D01*
X165930Y013516D01*
X165784Y013443D02*
X165784Y013369D01*
X165563Y012596D02*
X165563Y012449D01*
X165563Y012522D02*
X165930Y012522D01*
X166004Y012449D01*
X166004Y012375D01*
X165930Y012302D01*
X134097Y008402D02*
X134097Y008328D01*
X133803Y008035D01*
X133803Y007961D01*
X133636Y008035D02*
X133636Y008402D01*
X133803Y008402D02*
X134097Y008402D01*
X133636Y008035D02*
X133563Y007961D01*
X133416Y007961D01*
X133343Y008035D01*
X133343Y008402D01*
X132456Y005668D02*
X132456Y005594D01*
X132162Y005301D01*
X132162Y005227D01*
X131996Y005301D02*
X131922Y005227D01*
X131775Y005227D01*
X131702Y005301D01*
X131535Y005301D02*
X131462Y005227D01*
X131315Y005227D01*
X131242Y005301D01*
X131242Y005594D01*
X131315Y005668D01*
X131462Y005668D01*
X131535Y005594D01*
X131702Y005594D02*
X131775Y005668D01*
X131922Y005668D01*
X131996Y005594D01*
X131996Y005521D01*
X131922Y005447D01*
X131996Y005374D01*
X131996Y005301D01*
X131922Y005447D02*
X131849Y005447D01*
X132162Y005668D02*
X132456Y005668D01*
X115094Y008301D02*
X115094Y008447D01*
X115021Y008521D01*
X115094Y008688D02*
X115094Y008981D01*
X115094Y008834D02*
X114654Y008834D01*
X114801Y008688D01*
X114727Y008521D02*
X114654Y008447D01*
X114654Y008301D01*
X114727Y008227D01*
X115021Y008227D01*
X115094Y008301D01*
X115021Y009148D02*
X114947Y009148D01*
X114874Y009221D01*
X114874Y009368D01*
X114947Y009441D01*
X115021Y009441D01*
X115094Y009368D01*
X115094Y009221D01*
X115021Y009148D01*
X114874Y009221D02*
X114801Y009148D01*
X114727Y009148D01*
X114654Y009221D01*
X114654Y009368D01*
X114727Y009441D01*
X114801Y009441D01*
X114874Y009368D01*
X108094Y010301D02*
X108094Y010447D01*
X108021Y010521D01*
X108094Y010688D02*
X108094Y010981D01*
X108094Y010834D02*
X107654Y010834D01*
X107801Y010688D01*
X107727Y010521D02*
X107654Y010447D01*
X107654Y010301D01*
X107727Y010227D01*
X108021Y010227D01*
X108094Y010301D01*
X108094Y011148D02*
X108021Y011148D01*
X107727Y011441D01*
X107654Y011441D01*
X107654Y011148D01*
X110622Y012888D02*
X110696Y012815D01*
X110989Y012815D01*
X111063Y012888D01*
X111063Y013035D01*
X110989Y013108D01*
X110843Y013275D02*
X110843Y013568D01*
X110989Y013735D02*
X111063Y013809D01*
X111063Y013955D01*
X110989Y014029D01*
X110916Y014029D01*
X110843Y013955D01*
X110843Y013882D01*
X110843Y013955D02*
X110769Y014029D01*
X110696Y014029D01*
X110622Y013955D01*
X110622Y013809D01*
X110696Y013735D01*
X110622Y013495D02*
X110843Y013275D01*
X110696Y013108D02*
X110622Y013035D01*
X110622Y012888D01*
X110622Y013495D02*
X111063Y013495D01*
X130122Y014388D02*
X130196Y014315D01*
X130489Y014315D01*
X130563Y014388D01*
X130563Y014535D01*
X130489Y014608D01*
X130489Y014775D02*
X130563Y014848D01*
X130563Y014995D01*
X130489Y015068D01*
X130416Y015068D01*
X130343Y014995D01*
X130343Y014922D01*
X130343Y014995D02*
X130269Y015068D01*
X130196Y015068D01*
X130122Y014995D01*
X130122Y014848D01*
X130196Y014775D01*
X130196Y014608D02*
X130122Y014535D01*
X130122Y014388D01*
X130196Y015235D02*
X130269Y015235D01*
X130343Y015309D01*
X130343Y015529D01*
X130489Y015529D02*
X130196Y015529D01*
X130122Y015455D01*
X130122Y015309D01*
X130196Y015235D01*
X130489Y015235D02*
X130563Y015309D01*
X130563Y015455D01*
X130489Y015529D01*
X115094Y020301D02*
X115094Y020447D01*
X115021Y020521D01*
X114874Y020688D02*
X114874Y020981D01*
X114874Y021148D02*
X114874Y021441D01*
X114654Y021368D02*
X114874Y021148D01*
X115094Y021368D02*
X114654Y021368D01*
X114654Y020908D02*
X114874Y020688D01*
X114727Y020521D02*
X114654Y020447D01*
X114654Y020301D01*
X114727Y020227D01*
X115021Y020227D01*
X115094Y020301D01*
X115094Y020908D02*
X114654Y020908D01*
X107767Y022035D02*
X107694Y021961D01*
X107547Y021961D01*
X107474Y022035D01*
X107474Y022108D01*
X107547Y022182D01*
X107694Y022182D01*
X107767Y022108D01*
X107767Y022035D01*
X107694Y022182D02*
X107767Y022255D01*
X107767Y022328D01*
X107694Y022402D01*
X107547Y022402D01*
X107474Y022328D01*
X107474Y022255D01*
X107547Y022182D01*
X107307Y022035D02*
X107307Y022402D01*
X107014Y022402D02*
X107014Y022035D01*
X107087Y021961D01*
X107234Y021961D01*
X107307Y022035D01*
X126154Y023301D02*
X126227Y023227D01*
X126521Y023227D01*
X126594Y023301D01*
X126594Y023447D01*
X126521Y023521D01*
X126521Y023688D02*
X126594Y023761D01*
X126594Y023908D01*
X126521Y023981D01*
X126374Y023981D01*
X126301Y023908D01*
X126301Y023834D01*
X126374Y023688D01*
X126154Y023688D01*
X126154Y023981D01*
X126154Y024148D02*
X126374Y024148D01*
X126301Y024295D01*
X126301Y024368D01*
X126374Y024441D01*
X126521Y024441D01*
X126594Y024368D01*
X126594Y024221D01*
X126521Y024148D01*
X126154Y024148D02*
X126154Y024441D01*
X126227Y023521D02*
X126154Y023447D01*
X126154Y023301D01*
X135154Y022941D02*
X135227Y022941D01*
X135521Y022648D01*
X135594Y022648D01*
X135521Y022481D02*
X135594Y022408D01*
X135594Y022261D01*
X135521Y022188D01*
X135374Y022188D02*
X135301Y022334D01*
X135301Y022408D01*
X135374Y022481D01*
X135521Y022481D01*
X135374Y022188D02*
X135154Y022188D01*
X135154Y022481D01*
X135154Y022648D02*
X135154Y022941D01*
X135227Y022021D02*
X135154Y021947D01*
X135154Y021801D01*
X135227Y021727D01*
X135521Y021727D01*
X135594Y021801D01*
X135594Y021947D01*
X135521Y022021D01*
X165563Y026228D02*
X165563Y026375D01*
X165563Y026302D02*
X165930Y026302D01*
X166004Y026228D01*
X166004Y026155D01*
X165930Y026081D01*
X165784Y026542D02*
X165784Y026835D01*
X165637Y027002D02*
X165563Y027076D01*
X165563Y027222D01*
X165637Y027296D01*
X165710Y027296D01*
X166004Y027002D01*
X166004Y027296D01*
X166004Y026762D02*
X165563Y026762D01*
X165784Y026542D01*
X132728Y030035D02*
X132654Y029961D01*
X132508Y029961D01*
X132434Y030035D01*
X132728Y030328D01*
X132728Y030035D01*
X132728Y030328D02*
X132654Y030402D01*
X132508Y030402D01*
X132434Y030328D01*
X132434Y030035D01*
X132267Y029961D02*
X131974Y029961D01*
X132121Y029961D02*
X132121Y030402D01*
X131974Y030255D01*
X131807Y030402D02*
X131807Y030035D01*
X131734Y029961D01*
X131587Y029961D01*
X131514Y030035D01*
X131514Y030402D01*
X117869Y030063D02*
X117869Y029769D01*
X117795Y029696D01*
X117648Y029696D01*
X117575Y029769D01*
X117648Y029916D02*
X117869Y029916D01*
X117869Y030063D02*
X117795Y030136D01*
X117648Y030136D01*
X117575Y030063D01*
X117575Y029989D01*
X117648Y029916D01*
X117408Y029916D02*
X117115Y029916D01*
X117335Y030136D01*
X117335Y029696D01*
X116948Y029769D02*
X116874Y029696D01*
X116728Y029696D01*
X116654Y029769D01*
X116654Y030063D01*
X116728Y030136D01*
X116874Y030136D01*
X116948Y030063D01*
X109063Y030035D02*
X108989Y030108D01*
X109063Y030035D02*
X109063Y029888D01*
X108989Y029815D01*
X108696Y029815D01*
X108622Y029888D01*
X108622Y030035D01*
X108696Y030108D01*
X108622Y030275D02*
X108843Y030275D01*
X108769Y030422D01*
X108769Y030495D01*
X108843Y030568D01*
X108989Y030568D01*
X109063Y030495D01*
X109063Y030348D01*
X108989Y030275D01*
X108622Y030275D02*
X108622Y030568D01*
X108696Y030735D02*
X108622Y030809D01*
X108622Y030955D01*
X108696Y031029D01*
X108989Y030735D01*
X109063Y030809D01*
X109063Y030955D01*
X108989Y031029D01*
X108696Y031029D01*
X108696Y030735D02*
X108989Y030735D01*
X097853Y029711D02*
X097559Y029711D01*
X097706Y029711D02*
X097706Y030152D01*
X097559Y030005D01*
X097392Y029932D02*
X097099Y029932D01*
X097319Y030152D01*
X097319Y029711D01*
X096859Y029785D02*
X096859Y030152D01*
X096932Y030152D02*
X096785Y030152D01*
X096859Y029785D02*
X096785Y029711D01*
X096712Y029711D01*
X096639Y029785D01*
X111021Y036980D02*
X111095Y036906D01*
X111242Y036906D01*
X111315Y036980D01*
X111315Y037347D01*
X111482Y037273D02*
X111482Y037200D01*
X111555Y037126D01*
X111775Y037126D01*
X111775Y036980D02*
X111775Y037273D01*
X111702Y037347D01*
X111555Y037347D01*
X111482Y037273D01*
X111482Y036980D02*
X111555Y036906D01*
X111702Y036906D01*
X111775Y036980D01*
X111021Y036980D02*
X111021Y037347D01*
X052063Y034735D02*
X051989Y034735D01*
X051696Y035029D01*
X051622Y035029D01*
X051622Y034735D01*
X051696Y034569D02*
X051622Y034495D01*
X051622Y034348D01*
X051696Y034275D01*
X051989Y034275D01*
X052063Y034348D01*
X052063Y034495D01*
X051989Y034569D01*
X038408Y033563D02*
X038408Y033489D01*
X038115Y033196D01*
X038408Y033196D01*
X038408Y033563D02*
X038335Y033636D01*
X038188Y033636D01*
X038115Y033563D01*
X037948Y033563D02*
X037874Y033636D01*
X037728Y033636D01*
X037654Y033563D01*
X037654Y033269D01*
X037728Y033196D01*
X037874Y033196D01*
X037948Y033269D01*
X048122Y031029D02*
X048122Y030735D01*
X048343Y030735D01*
X048269Y030882D01*
X048269Y030955D01*
X048343Y031029D01*
X048489Y031029D01*
X048563Y030955D01*
X048563Y030809D01*
X048489Y030735D01*
X048489Y030569D02*
X048563Y030495D01*
X048563Y030348D01*
X048489Y030275D01*
X048196Y030275D01*
X048122Y030348D01*
X048122Y030495D01*
X048196Y030569D01*
X035563Y028029D02*
X035563Y027735D01*
X035563Y027882D02*
X035122Y027882D01*
X035269Y027735D01*
X035196Y027569D02*
X035122Y027495D01*
X035122Y027348D01*
X035196Y027275D01*
X035489Y027275D01*
X035563Y027348D01*
X035563Y027495D01*
X035489Y027569D01*
X030267Y024328D02*
X030267Y024255D01*
X030194Y024182D01*
X030267Y024108D01*
X030267Y024035D01*
X030194Y023961D01*
X030047Y023961D01*
X029974Y024035D01*
X029807Y024035D02*
X029807Y024402D01*
X029974Y024328D02*
X030047Y024402D01*
X030194Y024402D01*
X030267Y024328D01*
X030194Y024182D02*
X030121Y024182D01*
X029807Y024035D02*
X029734Y023961D01*
X029587Y023961D01*
X029514Y024035D01*
X029514Y024402D01*
X022407Y024625D02*
X021967Y024625D01*
X022187Y024405D01*
X022187Y024698D01*
X022334Y024865D02*
X022407Y024865D01*
X022334Y024865D02*
X022040Y025159D01*
X021967Y025159D01*
X021967Y024865D01*
X021967Y024238D02*
X021967Y024091D01*
X021967Y024165D02*
X022334Y024165D01*
X022407Y024091D01*
X022407Y024018D01*
X022334Y023944D01*
X022334Y022403D02*
X022407Y022329D01*
X022407Y022183D01*
X022334Y022109D01*
X022260Y022109D01*
X022187Y022183D01*
X022187Y022329D01*
X022260Y022403D01*
X022334Y022403D01*
X022187Y022329D02*
X022114Y022403D01*
X022040Y022403D01*
X021967Y022329D01*
X021967Y022183D01*
X022040Y022109D01*
X022114Y022109D01*
X022187Y022183D01*
X022187Y021942D02*
X022187Y021649D01*
X021967Y021869D01*
X022407Y021869D01*
X022334Y021409D02*
X021967Y021409D01*
X021967Y021482D02*
X021967Y021335D01*
X021657Y021207D02*
X021584Y021281D01*
X021217Y021281D01*
X021217Y021354D02*
X021217Y021207D01*
X021217Y021521D02*
X021437Y021521D01*
X021364Y021668D01*
X021364Y021741D01*
X021437Y021815D01*
X021584Y021815D01*
X021657Y021741D01*
X021657Y021594D01*
X021584Y021521D01*
X021657Y021207D02*
X021657Y021134D01*
X021584Y021061D01*
X021217Y021521D02*
X021217Y021815D01*
X021437Y021981D02*
X021437Y022275D01*
X021217Y022201D02*
X021437Y021981D01*
X021657Y022201D02*
X021217Y022201D01*
X022334Y021409D02*
X022407Y021335D01*
X022407Y021262D01*
X022334Y021189D01*
X022334Y019647D02*
X022040Y019647D01*
X021967Y019574D01*
X021967Y019427D01*
X022040Y019353D01*
X022114Y019353D01*
X022187Y019427D01*
X022187Y019647D01*
X022334Y019647D02*
X022407Y019574D01*
X022407Y019427D01*
X022334Y019353D01*
X022187Y019187D02*
X022187Y018893D01*
X021967Y019113D01*
X022407Y019113D01*
X022334Y018653D02*
X021967Y018653D01*
X021967Y018726D02*
X021967Y018579D01*
X022334Y018653D02*
X022407Y018579D01*
X022407Y018506D01*
X022334Y018433D01*
X022334Y016891D02*
X022407Y016818D01*
X022407Y016671D01*
X022334Y016597D01*
X022040Y016891D01*
X022334Y016891D01*
X022334Y016597D02*
X022040Y016597D01*
X021967Y016671D01*
X021967Y016818D01*
X022040Y016891D01*
X021967Y016431D02*
X021967Y016137D01*
X022187Y016137D01*
X022114Y016284D01*
X022114Y016357D01*
X022187Y016431D01*
X022334Y016431D01*
X022407Y016357D01*
X022407Y016210D01*
X022334Y016137D01*
X022334Y015897D02*
X021967Y015897D01*
X021967Y015824D02*
X021967Y015970D01*
X022334Y015897D02*
X022407Y015824D01*
X022407Y015750D01*
X022334Y015677D01*
X022407Y014135D02*
X022407Y013842D01*
X022407Y013988D02*
X021967Y013988D01*
X022114Y013842D01*
X022187Y013675D02*
X022334Y013675D01*
X022407Y013601D01*
X022407Y013455D01*
X022334Y013381D01*
X022187Y013381D02*
X022114Y013528D01*
X022114Y013601D01*
X022187Y013675D01*
X021967Y013675D02*
X021967Y013381D01*
X022187Y013381D01*
X021967Y013214D02*
X021967Y013068D01*
X021967Y013141D02*
X022334Y013141D01*
X022407Y013068D01*
X022407Y012994D01*
X022334Y012921D01*
X024315Y010668D02*
X024242Y010594D01*
X024242Y010301D01*
X024315Y010227D01*
X024462Y010227D01*
X024535Y010301D01*
X024702Y010301D02*
X024775Y010227D01*
X024922Y010227D01*
X024996Y010301D01*
X024996Y010374D01*
X024922Y010447D01*
X024849Y010447D01*
X024922Y010447D02*
X024996Y010521D01*
X024996Y010594D01*
X024922Y010668D01*
X024775Y010668D01*
X024702Y010594D01*
X024535Y010594D02*
X024462Y010668D01*
X024315Y010668D01*
X025162Y010521D02*
X025309Y010668D01*
X025309Y010227D01*
X025162Y010227D02*
X025456Y010227D01*
X034622Y014348D02*
X034696Y014275D01*
X034989Y014275D01*
X035063Y014348D01*
X035063Y014495D01*
X034989Y014569D01*
X034989Y014735D02*
X035063Y014809D01*
X035063Y014955D01*
X034989Y015029D01*
X034696Y015029D01*
X034622Y014955D01*
X034622Y014809D01*
X034696Y014735D01*
X034769Y014735D01*
X034843Y014809D01*
X034843Y015029D01*
X034696Y014569D02*
X034622Y014495D01*
X034622Y014348D01*
X049014Y015035D02*
X049087Y014961D01*
X049234Y014961D01*
X049307Y015035D01*
X049307Y015402D01*
X049474Y015182D02*
X049694Y015402D01*
X049694Y014961D01*
X049767Y015182D02*
X049474Y015182D01*
X049014Y015035D02*
X049014Y015402D01*
X057742Y014594D02*
X057742Y014301D01*
X057815Y014227D01*
X057962Y014227D01*
X058035Y014301D01*
X058202Y014227D02*
X058496Y014227D01*
X058349Y014227D02*
X058349Y014668D01*
X058202Y014521D01*
X058035Y014594D02*
X057962Y014668D01*
X057815Y014668D01*
X057742Y014594D01*
X058662Y014594D02*
X058736Y014668D01*
X058882Y014668D01*
X058956Y014594D01*
X058956Y014521D01*
X058882Y014447D01*
X058956Y014374D01*
X058956Y014301D01*
X058882Y014227D01*
X058736Y014227D01*
X058662Y014301D01*
X058809Y014447D02*
X058882Y014447D01*
X038869Y019769D02*
X038795Y019696D01*
X038648Y019696D01*
X038575Y019769D01*
X038869Y020063D01*
X038869Y019769D01*
X038869Y020063D02*
X038795Y020136D01*
X038648Y020136D01*
X038575Y020063D01*
X038575Y019769D01*
X038408Y019696D02*
X038115Y019696D01*
X038261Y019696D02*
X038261Y020136D01*
X038115Y019989D01*
X037948Y020063D02*
X037874Y020136D01*
X037728Y020136D01*
X037654Y020063D01*
X037654Y019769D01*
X037728Y019696D01*
X037874Y019696D01*
X037948Y019769D01*
X052343Y022535D02*
X052343Y022902D01*
X052636Y022902D02*
X052636Y022535D01*
X052563Y022461D01*
X052416Y022461D01*
X052343Y022535D01*
X052803Y022461D02*
X053097Y022755D01*
X053097Y022828D01*
X053023Y022902D01*
X052876Y022902D01*
X052803Y022828D01*
X052803Y022461D02*
X053097Y022461D01*
X022407Y026774D02*
X022407Y026847D01*
X022334Y026921D01*
X021967Y026921D01*
X021967Y026994D02*
X021967Y026847D01*
X022187Y027161D02*
X022187Y027454D01*
X022187Y027621D02*
X022187Y027841D01*
X022260Y027915D01*
X022334Y027915D01*
X022407Y027841D01*
X022407Y027694D01*
X022334Y027621D01*
X022187Y027621D01*
X022040Y027768D01*
X021967Y027915D01*
X021967Y027381D02*
X022187Y027161D01*
X022407Y027381D02*
X021967Y027381D01*
X022407Y026774D02*
X022334Y026700D01*
X032087Y037961D02*
X032234Y037961D01*
X032307Y038035D01*
X032307Y038402D01*
X032474Y038255D02*
X032621Y038402D01*
X032621Y037961D01*
X032767Y037961D02*
X032474Y037961D01*
X032087Y037961D02*
X032014Y038035D01*
X032014Y038402D01*
X056154Y007941D02*
X056154Y007648D01*
X056374Y007648D01*
X056301Y007795D01*
X056301Y007868D01*
X056374Y007941D01*
X056521Y007941D01*
X056594Y007868D01*
X056594Y007721D01*
X056521Y007648D01*
X056594Y007481D02*
X056594Y007188D01*
X056594Y007334D02*
X056154Y007334D01*
X056301Y007188D01*
X056227Y007021D02*
X056154Y006947D01*
X056154Y006801D01*
X056227Y006727D01*
X056521Y006727D01*
X056594Y006801D01*
X056594Y006947D01*
X056521Y007021D01*
X038869Y004063D02*
X038869Y003989D01*
X038575Y003696D01*
X038869Y003696D01*
X038869Y004063D02*
X038795Y004136D01*
X038648Y004136D01*
X038575Y004063D01*
X038408Y004063D02*
X038408Y003989D01*
X038335Y003916D01*
X038408Y003842D01*
X038408Y003769D01*
X038335Y003696D01*
X038188Y003696D01*
X038115Y003769D01*
X037948Y003769D02*
X037874Y003696D01*
X037728Y003696D01*
X037654Y003769D01*
X037654Y004063D01*
X037728Y004136D01*
X037874Y004136D01*
X037948Y004063D01*
X038115Y004063D02*
X038188Y004136D01*
X038335Y004136D01*
X038408Y004063D01*
X038335Y003916D02*
X038261Y003916D01*
X031097Y002402D02*
X030950Y002328D01*
X030803Y002182D01*
X031023Y002182D01*
X031097Y002108D01*
X031097Y002035D01*
X031023Y001961D01*
X030876Y001961D01*
X030803Y002035D01*
X030803Y002182D01*
X030636Y002035D02*
X030636Y002402D01*
X030343Y002402D02*
X030343Y002035D01*
X030416Y001961D01*
X030563Y001961D01*
X030636Y002035D01*
X110843Y002035D02*
X110916Y001961D01*
X111063Y001961D01*
X111136Y002035D01*
X111136Y002402D01*
X111303Y002402D02*
X111303Y002182D01*
X111450Y002255D01*
X111523Y002255D01*
X111597Y002182D01*
X111597Y002035D01*
X111523Y001961D01*
X111376Y001961D01*
X111303Y002035D01*
X111303Y002402D02*
X111597Y002402D01*
X110843Y002402D02*
X110843Y002035D01*
D17*
X116109Y008040D03*
X106609Y009040D03*
X109609Y014323D03*
X129109Y015823D03*
X116109Y020040D03*
X127609Y023040D03*
X136609Y021540D03*
X107609Y031323D03*
X050609Y035323D03*
X047109Y031323D03*
X034109Y030323D03*
X033609Y015323D03*
X055109Y006540D03*
D18*
X037467Y002681D03*
X025750Y011681D03*
X037467Y018681D03*
X059250Y015681D03*
X113467Y029181D03*
X037467Y032181D03*
X132750Y006681D03*
D19*
X130113Y004710D02*
X130113Y004658D01*
X130061Y004607D01*
X129958Y004607D01*
X129906Y004658D01*
X129906Y004710D01*
X129958Y004762D01*
X130061Y004762D01*
X130113Y004710D01*
X130061Y004607D02*
X130113Y004555D01*
X130113Y004503D01*
X130061Y004451D01*
X129958Y004451D01*
X129906Y004503D01*
X129906Y004555D01*
X129958Y004607D01*
X129791Y004658D02*
X129739Y004607D01*
X129791Y004555D01*
X129791Y004503D01*
X129739Y004451D01*
X129636Y004451D01*
X129584Y004503D01*
X129469Y004503D02*
X129417Y004451D01*
X129313Y004451D01*
X129262Y004503D01*
X129262Y004710D01*
X129313Y004762D01*
X129417Y004762D01*
X129469Y004710D01*
X129584Y004710D02*
X129636Y004762D01*
X129739Y004762D01*
X129791Y004710D01*
X129791Y004658D01*
X129739Y004607D02*
X129687Y004607D01*
X118130Y007153D02*
X118130Y007360D01*
X117923Y007153D01*
X117975Y007101D01*
X118078Y007101D01*
X118130Y007153D01*
X118130Y007360D02*
X118078Y007412D01*
X117975Y007412D01*
X117923Y007360D01*
X117923Y007153D01*
X117808Y007153D02*
X117756Y007101D01*
X117652Y007101D01*
X117601Y007153D01*
X117485Y007101D02*
X117382Y007205D01*
X117434Y007205D02*
X117279Y007205D01*
X117279Y007101D02*
X117279Y007412D01*
X117434Y007412D01*
X117485Y007360D01*
X117485Y007257D01*
X117434Y007205D01*
X117601Y007360D02*
X117652Y007412D01*
X117756Y007412D01*
X117808Y007360D01*
X117808Y007308D01*
X117756Y007257D01*
X117808Y007205D01*
X117808Y007153D01*
X117756Y007257D02*
X117704Y007257D01*
X113689Y008653D02*
X113689Y008757D01*
X113637Y008808D01*
X113689Y008924D02*
X113482Y009130D01*
X113430Y009130D01*
X113378Y009079D01*
X113378Y008975D01*
X113430Y008924D01*
X113430Y008808D02*
X113378Y008757D01*
X113378Y008653D01*
X113430Y008601D01*
X113637Y008601D01*
X113689Y008653D01*
X113689Y008924D02*
X113689Y009130D01*
X113637Y009246D02*
X113430Y009453D01*
X113637Y009453D01*
X113689Y009401D01*
X113689Y009298D01*
X113637Y009246D01*
X113430Y009246D01*
X113378Y009298D01*
X113378Y009401D01*
X113430Y009453D01*
X112058Y010153D02*
X112006Y010101D01*
X111902Y010101D01*
X111851Y010153D01*
X111851Y010257D02*
X111954Y010308D01*
X112006Y010308D01*
X112058Y010257D01*
X112058Y010153D01*
X111851Y010257D02*
X111851Y010412D01*
X112058Y010412D01*
X111735Y010360D02*
X111735Y010257D01*
X111684Y010205D01*
X111529Y010205D01*
X111632Y010205D02*
X111735Y010101D01*
X111529Y010101D02*
X111529Y010412D01*
X111684Y010412D01*
X111735Y010360D01*
X110689Y010308D02*
X110585Y010205D01*
X110585Y010257D02*
X110585Y010101D01*
X110689Y010101D02*
X110378Y010101D01*
X110378Y010257D01*
X110430Y010308D01*
X110533Y010308D01*
X110585Y010257D01*
X110482Y010424D02*
X110378Y010527D01*
X110689Y010527D01*
X110689Y010424D02*
X110689Y010630D01*
X110637Y010746D02*
X110689Y010798D01*
X110689Y010901D01*
X110637Y010953D01*
X110533Y010953D01*
X110482Y010901D01*
X110482Y010849D01*
X110533Y010746D01*
X110378Y010746D01*
X110378Y010953D01*
X112080Y013335D02*
X112287Y013335D01*
X112339Y013386D01*
X112339Y013490D01*
X112287Y013541D01*
X112183Y013657D02*
X112183Y013864D01*
X112183Y013979D02*
X112132Y014082D01*
X112132Y014134D01*
X112183Y014186D01*
X112287Y014186D01*
X112339Y014134D01*
X112339Y014031D01*
X112287Y013979D01*
X112183Y013979D02*
X112028Y013979D01*
X112028Y014186D01*
X112028Y013812D02*
X112183Y013657D01*
X112080Y013541D02*
X112028Y013490D01*
X112028Y013386D01*
X112080Y013335D01*
X112028Y013812D02*
X112339Y013812D01*
X108339Y013864D02*
X108339Y013657D01*
X108339Y013760D02*
X108028Y013760D01*
X108132Y013657D01*
X108183Y013541D02*
X108235Y013490D01*
X108235Y013335D01*
X108235Y013438D02*
X108339Y013541D01*
X108183Y013541D02*
X108080Y013541D01*
X108028Y013490D01*
X108028Y013335D01*
X108339Y013335D01*
X108287Y013979D02*
X108235Y013979D01*
X108183Y014031D01*
X108183Y014134D01*
X108235Y014186D01*
X108287Y014186D01*
X108339Y014134D01*
X108339Y014031D01*
X108287Y013979D01*
X108183Y014031D02*
X108132Y013979D01*
X108080Y013979D01*
X108028Y014031D01*
X108028Y014134D01*
X108080Y014186D01*
X108132Y014186D01*
X108183Y014134D01*
X107113Y014158D02*
X107061Y014107D01*
X106958Y014107D01*
X106906Y014158D01*
X106906Y014210D01*
X106958Y014262D01*
X107061Y014262D01*
X107113Y014210D01*
X107113Y014158D01*
X107061Y014107D02*
X107113Y014055D01*
X107113Y014003D01*
X107061Y013951D01*
X106958Y013951D01*
X106906Y014003D01*
X106906Y014055D01*
X106958Y014107D01*
X106791Y014107D02*
X106739Y014055D01*
X106584Y014055D01*
X106687Y014055D02*
X106791Y013951D01*
X106791Y014107D02*
X106791Y014210D01*
X106739Y014262D01*
X106584Y014262D01*
X106584Y013951D01*
X125012Y014012D02*
X125012Y013701D01*
X125012Y013805D02*
X125167Y013805D01*
X125219Y013857D01*
X125219Y013960D01*
X125167Y014012D01*
X125012Y014012D01*
X125115Y013805D02*
X125219Y013701D01*
X125334Y013701D02*
X125541Y013908D01*
X125541Y013960D01*
X125489Y014012D01*
X125386Y014012D01*
X125334Y013960D01*
X125334Y013701D02*
X125541Y013701D01*
X125656Y013753D02*
X125708Y013701D01*
X125811Y013701D01*
X125863Y013753D01*
X125863Y013805D01*
X125811Y013857D01*
X125708Y013857D01*
X125656Y013908D01*
X125656Y013960D01*
X125708Y014012D01*
X125811Y014012D01*
X125863Y013960D01*
X125863Y013908D01*
X125811Y013857D01*
X125708Y013857D02*
X125656Y013805D01*
X125656Y013753D01*
X126378Y014153D02*
X126430Y014101D01*
X126637Y014101D01*
X126689Y014153D01*
X126689Y014257D01*
X126637Y014308D01*
X126533Y014424D02*
X126533Y014630D01*
X126430Y014746D02*
X126378Y014798D01*
X126378Y014901D01*
X126430Y014953D01*
X126637Y014746D01*
X126689Y014798D01*
X126689Y014901D01*
X126637Y014953D01*
X126430Y014953D01*
X126430Y014746D02*
X126637Y014746D01*
X126689Y014579D02*
X126378Y014579D01*
X126533Y014424D01*
X126430Y014308D02*
X126378Y014257D01*
X126378Y014153D01*
X131878Y015101D02*
X131878Y015257D01*
X131930Y015308D01*
X132033Y015308D01*
X132085Y015257D01*
X132085Y015101D01*
X132189Y015101D02*
X131878Y015101D01*
X132085Y015205D02*
X132189Y015308D01*
X132189Y015424D02*
X132137Y015424D01*
X131930Y015630D01*
X131878Y015630D01*
X131878Y015424D01*
X133378Y015527D02*
X133689Y015527D01*
X133689Y015424D02*
X133689Y015630D01*
X133689Y015746D02*
X133637Y015746D01*
X133430Y015953D01*
X133378Y015953D01*
X133378Y015746D01*
X133378Y015527D02*
X133482Y015424D01*
X133533Y015308D02*
X133585Y015257D01*
X133585Y015101D01*
X133689Y015101D02*
X133378Y015101D01*
X133378Y015257D01*
X133430Y015308D01*
X133533Y015308D01*
X133585Y015205D02*
X133689Y015308D01*
X118939Y020101D02*
X118628Y020101D01*
X118628Y020257D01*
X118680Y020308D01*
X118783Y020308D01*
X118835Y020257D01*
X118835Y020101D01*
X118835Y020205D02*
X118939Y020308D01*
X118939Y020424D02*
X118732Y020630D01*
X118680Y020630D01*
X118628Y020579D01*
X118628Y020475D01*
X118680Y020424D01*
X118939Y020424D02*
X118939Y020630D01*
X118887Y020746D02*
X118939Y020798D01*
X118939Y020901D01*
X118887Y020953D01*
X118835Y020953D01*
X118783Y020901D01*
X118783Y020746D01*
X118887Y020746D01*
X118783Y020746D02*
X118680Y020849D01*
X118628Y020953D01*
X117689Y020901D02*
X117637Y020953D01*
X117585Y020953D01*
X117533Y020901D01*
X117533Y020746D01*
X117637Y020746D01*
X117689Y020798D01*
X117689Y020901D01*
X117533Y020746D02*
X117430Y020849D01*
X117378Y020953D01*
X117533Y020630D02*
X117533Y020424D01*
X117378Y020579D01*
X117689Y020579D01*
X117637Y020308D02*
X117689Y020257D01*
X117689Y020153D01*
X117637Y020101D01*
X117430Y020101D01*
X117378Y020153D01*
X117378Y020257D01*
X117430Y020308D01*
X132028Y022335D02*
X132028Y022490D01*
X132080Y022541D01*
X132183Y022541D01*
X132235Y022490D01*
X132235Y022335D01*
X132235Y022438D02*
X132339Y022541D01*
X132339Y022657D02*
X132132Y022864D01*
X132080Y022864D01*
X132028Y022812D01*
X132028Y022709D01*
X132080Y022657D01*
X132339Y022657D02*
X132339Y022864D01*
X132287Y022979D02*
X132080Y023186D01*
X132287Y023186D01*
X132339Y023134D01*
X132339Y023031D01*
X132287Y022979D01*
X132080Y022979D01*
X132028Y023031D01*
X132028Y023134D01*
X132080Y023186D01*
X133528Y023134D02*
X133580Y023186D01*
X133787Y022979D01*
X133839Y023031D01*
X133839Y023134D01*
X133787Y023186D01*
X133580Y023186D01*
X133528Y023134D02*
X133528Y023031D01*
X133580Y022979D01*
X133787Y022979D01*
X133839Y022864D02*
X133839Y022657D01*
X133839Y022760D02*
X133528Y022760D01*
X133632Y022657D01*
X133683Y022541D02*
X133735Y022490D01*
X133735Y022335D01*
X133735Y022438D02*
X133839Y022541D01*
X133683Y022541D02*
X133580Y022541D01*
X133528Y022490D01*
X133528Y022335D01*
X133839Y022335D01*
X132339Y022335D02*
X132028Y022335D01*
X138528Y022886D02*
X138580Y022835D01*
X138787Y022835D01*
X138839Y022886D01*
X138839Y022990D01*
X138787Y023041D01*
X138787Y023157D02*
X138839Y023209D01*
X138839Y023312D01*
X138787Y023364D01*
X138683Y023364D01*
X138632Y023312D01*
X138632Y023260D01*
X138683Y023157D01*
X138528Y023157D01*
X138528Y023364D01*
X138580Y023479D02*
X138632Y023479D01*
X138683Y023531D01*
X138683Y023634D01*
X138735Y023686D01*
X138787Y023686D01*
X138839Y023634D01*
X138839Y023531D01*
X138787Y023479D01*
X138735Y023479D01*
X138683Y023531D01*
X138683Y023634D02*
X138632Y023686D01*
X138580Y023686D01*
X138528Y023634D01*
X138528Y023531D01*
X138580Y023479D01*
X138580Y023041D02*
X138528Y022990D01*
X138528Y022886D01*
X139778Y022835D02*
X139778Y022990D01*
X139830Y023041D01*
X139933Y023041D01*
X139985Y022990D01*
X139985Y022835D01*
X139985Y022938D02*
X140089Y023041D01*
X140089Y023157D02*
X139882Y023364D01*
X139830Y023364D01*
X139778Y023312D01*
X139778Y023209D01*
X139830Y023157D01*
X140089Y023157D02*
X140089Y023364D01*
X139933Y023479D02*
X139778Y023634D01*
X140089Y023634D01*
X139933Y023686D02*
X139933Y023479D01*
X140089Y022835D02*
X139778Y022835D01*
X129839Y024386D02*
X129839Y024490D01*
X129787Y024541D01*
X129787Y024657D02*
X129839Y024709D01*
X129839Y024812D01*
X129787Y024864D01*
X129683Y024864D01*
X129632Y024812D01*
X129632Y024760D01*
X129683Y024657D01*
X129528Y024657D01*
X129528Y024864D01*
X129683Y024979D02*
X129683Y025134D01*
X129735Y025186D01*
X129787Y025186D01*
X129839Y025134D01*
X129839Y025031D01*
X129787Y024979D01*
X129683Y024979D01*
X129580Y025082D01*
X129528Y025186D01*
X129580Y024541D02*
X129528Y024490D01*
X129528Y024386D01*
X129580Y024335D01*
X129787Y024335D01*
X129839Y024386D01*
X114380Y026851D02*
X114173Y026851D01*
X114276Y026851D02*
X114276Y027162D01*
X114173Y027058D01*
X114058Y027007D02*
X114006Y027058D01*
X113954Y027058D01*
X113851Y027007D01*
X113851Y027162D01*
X114058Y027162D01*
X114058Y027007D02*
X114058Y026903D01*
X114006Y026851D01*
X113902Y026851D01*
X113851Y026903D01*
X113735Y026903D02*
X113684Y026851D01*
X113580Y026851D01*
X113529Y026903D01*
X113529Y027110D01*
X113580Y027162D01*
X113684Y027162D01*
X113735Y027110D01*
X112339Y027835D02*
X112028Y027835D01*
X112028Y027990D01*
X112080Y028041D01*
X112183Y028041D01*
X112235Y027990D01*
X112235Y027835D01*
X112235Y027938D02*
X112339Y028041D01*
X112339Y028157D02*
X112339Y028364D01*
X112339Y028260D02*
X112028Y028260D01*
X112132Y028157D01*
X112132Y028479D02*
X112183Y028531D01*
X112183Y028686D01*
X112080Y028686D02*
X112028Y028634D01*
X112028Y028531D01*
X112080Y028479D01*
X112132Y028479D01*
X112287Y028479D02*
X112339Y028531D01*
X112339Y028634D01*
X112287Y028686D01*
X112080Y028686D01*
X111113Y029003D02*
X111113Y029210D01*
X111061Y029262D01*
X110958Y029262D01*
X110906Y029210D01*
X110906Y029158D01*
X110958Y029107D01*
X111113Y029107D01*
X111113Y029003D02*
X111061Y028951D01*
X110958Y028951D01*
X110906Y029003D01*
X110791Y028951D02*
X110687Y029055D01*
X110739Y029055D02*
X110584Y029055D01*
X110584Y028951D02*
X110584Y029262D01*
X110739Y029262D01*
X110791Y029210D01*
X110791Y029107D01*
X110739Y029055D01*
X106339Y030386D02*
X106339Y030490D01*
X106287Y030541D01*
X106287Y030657D02*
X106339Y030709D01*
X106339Y030812D01*
X106287Y030864D01*
X106183Y030864D01*
X106132Y030812D01*
X106132Y030760D01*
X106183Y030657D01*
X106028Y030657D01*
X106028Y030864D01*
X106080Y030979D02*
X106028Y031031D01*
X106028Y031134D01*
X106080Y031186D01*
X106132Y031186D01*
X106339Y030979D01*
X106339Y031186D01*
X105363Y031576D02*
X105156Y031576D01*
X105363Y031783D01*
X105363Y031835D01*
X105311Y031887D01*
X105208Y031887D01*
X105156Y031835D01*
X105041Y031835D02*
X104989Y031887D01*
X104886Y031887D01*
X104834Y031835D01*
X104719Y031835D02*
X104719Y031732D01*
X104667Y031680D01*
X104512Y031680D01*
X104615Y031680D02*
X104719Y031576D01*
X104834Y031576D02*
X105041Y031783D01*
X105041Y031835D01*
X105041Y031576D02*
X104834Y031576D01*
X104719Y031835D02*
X104667Y031887D01*
X104512Y031887D01*
X104512Y031576D01*
X106028Y030490D02*
X106028Y030386D01*
X106080Y030335D01*
X106287Y030335D01*
X106339Y030386D01*
X106080Y030541D02*
X106028Y030490D01*
X052689Y030527D02*
X052378Y030527D01*
X052482Y030424D01*
X052533Y030308D02*
X052585Y030257D01*
X052585Y030101D01*
X052689Y030101D02*
X052378Y030101D01*
X052378Y030257D01*
X052430Y030308D01*
X052533Y030308D01*
X052585Y030205D02*
X052689Y030308D01*
X052689Y030424D02*
X052689Y030630D01*
X052689Y030746D02*
X052482Y030953D01*
X052430Y030953D01*
X052378Y030901D01*
X052378Y030798D01*
X052430Y030746D01*
X052689Y030746D02*
X052689Y030953D01*
X051189Y030630D02*
X051189Y030424D01*
X050982Y030630D01*
X050930Y030630D01*
X050878Y030579D01*
X050878Y030475D01*
X050930Y030424D01*
X050930Y030308D02*
X051033Y030308D01*
X051085Y030257D01*
X051085Y030101D01*
X051189Y030101D02*
X050878Y030101D01*
X050878Y030257D01*
X050930Y030308D01*
X051085Y030205D02*
X051189Y030308D01*
X045189Y029579D02*
X045137Y029630D01*
X045085Y029630D01*
X045033Y029579D01*
X045033Y029424D01*
X045137Y029424D01*
X045189Y029475D01*
X045189Y029579D01*
X045033Y029424D02*
X044930Y029527D01*
X044878Y029630D01*
X044930Y029308D02*
X044878Y029257D01*
X044878Y029153D01*
X044930Y029101D01*
X045137Y029101D01*
X045189Y029153D01*
X045189Y029257D01*
X045137Y029308D01*
X038506Y030601D02*
X038506Y030912D01*
X038351Y030757D01*
X038558Y030757D01*
X038235Y030860D02*
X038184Y030912D01*
X038080Y030912D01*
X038029Y030860D01*
X038029Y030653D01*
X038080Y030601D01*
X038184Y030601D01*
X038235Y030653D01*
X037839Y029936D02*
X037839Y029729D01*
X037839Y029832D02*
X037528Y029832D01*
X037632Y029729D01*
X037632Y029614D02*
X037580Y029614D01*
X037528Y029562D01*
X037528Y029459D01*
X037580Y029407D01*
X037580Y029291D02*
X037683Y029291D01*
X037735Y029240D01*
X037735Y029085D01*
X037735Y029188D02*
X037839Y029291D01*
X037839Y029407D02*
X037632Y029614D01*
X037839Y029614D02*
X037839Y029407D01*
X037580Y029291D02*
X037528Y029240D01*
X037528Y029085D01*
X037839Y029085D01*
X036339Y029709D02*
X036339Y029812D01*
X036287Y029864D01*
X036287Y029979D02*
X036339Y030031D01*
X036339Y030134D01*
X036287Y030186D01*
X036235Y030186D01*
X036183Y030134D01*
X036183Y030083D01*
X036183Y030134D02*
X036132Y030186D01*
X036080Y030186D01*
X036028Y030134D01*
X036028Y030031D01*
X036080Y029979D01*
X036080Y029864D02*
X036028Y029812D01*
X036028Y029709D01*
X036080Y029657D01*
X036287Y029657D01*
X036339Y029709D01*
X032214Y029561D02*
X032214Y029354D01*
X032214Y029457D02*
X031903Y029457D01*
X032007Y029354D01*
X032214Y029239D02*
X032214Y029032D01*
X032214Y029135D02*
X031903Y029135D01*
X032007Y029032D01*
X032058Y028916D02*
X032110Y028865D01*
X032110Y028710D01*
X032110Y028813D02*
X032214Y028916D01*
X032058Y028916D02*
X031955Y028916D01*
X031903Y028865D01*
X031903Y028710D01*
X032214Y028710D01*
X032113Y029951D02*
X031906Y029951D01*
X032010Y029951D02*
X032010Y030262D01*
X031906Y030158D01*
X031791Y030107D02*
X031739Y030055D01*
X031584Y030055D01*
X031687Y030055D02*
X031791Y029951D01*
X031791Y030107D02*
X031791Y030210D01*
X031739Y030262D01*
X031584Y030262D01*
X031584Y029951D01*
X047378Y033101D02*
X047378Y033257D01*
X047430Y033308D01*
X047533Y033308D01*
X047585Y033257D01*
X047585Y033101D01*
X047689Y033101D02*
X047378Y033101D01*
X047585Y033205D02*
X047689Y033308D01*
X047689Y033424D02*
X047482Y033630D01*
X047430Y033630D01*
X047378Y033579D01*
X047378Y033475D01*
X047430Y033424D01*
X047689Y033424D02*
X047689Y033630D01*
X047637Y033746D02*
X047689Y033798D01*
X047689Y033901D01*
X047637Y033953D01*
X047585Y033953D01*
X047533Y033901D01*
X047533Y033849D01*
X047533Y033901D02*
X047482Y033953D01*
X047430Y033953D01*
X047378Y033901D01*
X047378Y033798D01*
X047430Y033746D01*
X048378Y033579D02*
X048430Y033630D01*
X048482Y033630D01*
X048533Y033579D01*
X048533Y033475D01*
X048482Y033424D01*
X048430Y033424D01*
X048378Y033475D01*
X048378Y033579D01*
X048533Y033579D02*
X048585Y033630D01*
X048637Y033630D01*
X048689Y033579D01*
X048689Y033475D01*
X048637Y033424D01*
X048585Y033424D01*
X048533Y033475D01*
X048430Y033308D02*
X048378Y033257D01*
X048378Y033153D01*
X048430Y033101D01*
X048637Y033101D01*
X048689Y033153D01*
X048689Y033257D01*
X048637Y033308D01*
X038505Y021662D02*
X038298Y021662D01*
X038298Y021507D01*
X038401Y021558D01*
X038453Y021558D01*
X038505Y021507D01*
X038505Y021403D01*
X038453Y021351D01*
X038350Y021351D01*
X038298Y021403D01*
X038183Y021351D02*
X037976Y021351D01*
X038183Y021558D01*
X038183Y021610D01*
X038131Y021662D01*
X038027Y021662D01*
X037976Y021610D01*
X037860Y021610D02*
X037860Y021507D01*
X037809Y021455D01*
X037654Y021455D01*
X037757Y021455D02*
X037860Y021351D01*
X037654Y021351D02*
X037654Y021662D01*
X037809Y021662D01*
X037860Y021610D01*
X037954Y017412D02*
X037954Y017101D01*
X037851Y017101D02*
X038058Y017101D01*
X038173Y017101D02*
X038380Y017308D01*
X038380Y017360D01*
X038328Y017412D01*
X038225Y017412D01*
X038173Y017360D01*
X037954Y017412D02*
X037851Y017308D01*
X037735Y017360D02*
X037684Y017412D01*
X037580Y017412D01*
X037529Y017360D01*
X037529Y017153D01*
X037580Y017101D01*
X037684Y017101D01*
X037735Y017153D01*
X038173Y017101D02*
X038380Y017101D01*
X030839Y016634D02*
X030839Y016531D01*
X030787Y016479D01*
X030839Y016364D02*
X030839Y016157D01*
X030839Y016260D02*
X030528Y016260D01*
X030632Y016157D01*
X030683Y016041D02*
X030735Y015990D01*
X030735Y015835D01*
X030735Y015938D02*
X030839Y016041D01*
X030683Y016041D02*
X030580Y016041D01*
X030528Y015990D01*
X030528Y015835D01*
X030839Y015835D01*
X030580Y016479D02*
X030528Y016531D01*
X030528Y016634D01*
X030580Y016686D01*
X030632Y016686D01*
X030683Y016634D01*
X030735Y016686D01*
X030787Y016686D01*
X030839Y016634D01*
X030683Y016634D02*
X030683Y016582D01*
X029613Y016210D02*
X029613Y016158D01*
X029561Y016107D01*
X029613Y016055D01*
X029613Y016003D01*
X029561Y015951D01*
X029458Y015951D01*
X029406Y016003D01*
X029291Y015951D02*
X029187Y016055D01*
X029239Y016055D02*
X029084Y016055D01*
X029084Y015951D02*
X029084Y016262D01*
X029239Y016262D01*
X029291Y016210D01*
X029291Y016107D01*
X029239Y016055D01*
X029406Y016210D02*
X029458Y016262D01*
X029561Y016262D01*
X029613Y016210D01*
X029561Y016107D02*
X029510Y016107D01*
X036028Y015082D02*
X036339Y015082D01*
X036339Y014979D02*
X036339Y015186D01*
X036132Y014979D02*
X036028Y015082D01*
X036028Y014760D02*
X036339Y014760D01*
X036339Y014657D02*
X036339Y014864D01*
X036132Y014657D02*
X036028Y014760D01*
X036080Y014541D02*
X036028Y014490D01*
X036028Y014386D01*
X036080Y014335D01*
X036287Y014335D01*
X036339Y014386D01*
X036339Y014490D01*
X036287Y014541D01*
X030189Y011901D02*
X030137Y011953D01*
X030085Y011953D01*
X030033Y011901D01*
X030033Y011746D01*
X030137Y011746D01*
X030189Y011798D01*
X030189Y011901D01*
X030033Y011746D02*
X029930Y011849D01*
X029878Y011953D01*
X029878Y011527D02*
X030189Y011527D01*
X030189Y011424D02*
X030189Y011630D01*
X029982Y011424D02*
X029878Y011527D01*
X029930Y011308D02*
X030033Y011308D01*
X030085Y011257D01*
X030085Y011101D01*
X030189Y011101D02*
X029878Y011101D01*
X029878Y011257D01*
X029930Y011308D01*
X030085Y011205D02*
X030189Y011308D01*
X031029Y010412D02*
X031184Y010412D01*
X031235Y010360D01*
X031235Y010257D01*
X031184Y010205D01*
X031029Y010205D01*
X031132Y010205D02*
X031235Y010101D01*
X031351Y010153D02*
X031402Y010101D01*
X031506Y010101D01*
X031558Y010153D01*
X031558Y010205D01*
X031506Y010257D01*
X031351Y010257D01*
X031351Y010153D01*
X031351Y010257D02*
X031454Y010360D01*
X031558Y010412D01*
X031029Y010412D02*
X031029Y010101D01*
X025113Y009210D02*
X025113Y009158D01*
X025061Y009107D01*
X025113Y009055D01*
X025113Y009003D01*
X025061Y008951D01*
X024958Y008951D01*
X024906Y009003D01*
X024791Y009003D02*
X024739Y008951D01*
X024636Y008951D01*
X024584Y009003D01*
X024469Y009003D02*
X024417Y008951D01*
X024313Y008951D01*
X024262Y009003D01*
X024262Y009210D01*
X024313Y009262D01*
X024417Y009262D01*
X024469Y009210D01*
X024584Y009210D02*
X024636Y009262D01*
X024739Y009262D01*
X024791Y009210D01*
X024791Y009158D01*
X024739Y009107D01*
X024791Y009055D01*
X024791Y009003D01*
X024739Y009107D02*
X024687Y009107D01*
X024906Y009210D02*
X024958Y009262D01*
X025061Y009262D01*
X025113Y009210D01*
X025061Y009107D02*
X025010Y009107D01*
X037529Y006662D02*
X037529Y006351D01*
X037529Y006455D02*
X037684Y006455D01*
X037735Y006507D01*
X037735Y006610D01*
X037684Y006662D01*
X037529Y006662D01*
X037632Y006455D02*
X037735Y006351D01*
X037851Y006351D02*
X038058Y006558D01*
X038058Y006610D01*
X038006Y006662D01*
X037902Y006662D01*
X037851Y006610D01*
X037851Y006351D02*
X038058Y006351D01*
X038173Y006403D02*
X038225Y006351D01*
X038328Y006351D01*
X038380Y006403D01*
X038380Y006610D01*
X038328Y006662D01*
X038225Y006662D01*
X038173Y006610D01*
X038173Y006558D01*
X038225Y006507D01*
X038380Y006507D01*
X038328Y005412D02*
X038173Y005257D01*
X038380Y005257D01*
X038328Y005412D02*
X038328Y005101D01*
X038058Y005153D02*
X038006Y005101D01*
X037902Y005101D01*
X037851Y005153D01*
X037735Y005153D02*
X037684Y005101D01*
X037580Y005101D01*
X037529Y005153D01*
X037529Y005360D01*
X037580Y005412D01*
X037684Y005412D01*
X037735Y005360D01*
X037851Y005360D02*
X037902Y005412D01*
X038006Y005412D01*
X038058Y005360D01*
X038058Y005308D01*
X038006Y005257D01*
X038058Y005205D01*
X038058Y005153D01*
X038006Y005257D02*
X037954Y005257D01*
X048387Y006826D02*
X048387Y007137D01*
X048542Y007137D01*
X048594Y007085D01*
X048594Y006982D01*
X048542Y006930D01*
X048387Y006930D01*
X048490Y006930D02*
X048594Y006826D01*
X048709Y006826D02*
X048916Y006826D01*
X048812Y006826D02*
X048812Y007137D01*
X048709Y007033D01*
X049031Y006982D02*
X049238Y006982D01*
X049186Y007137D02*
X049031Y006982D01*
X049186Y006826D02*
X049186Y007137D01*
X051028Y007657D02*
X051028Y007812D01*
X051080Y007864D01*
X051183Y007864D01*
X051235Y007812D01*
X051235Y007657D01*
X051235Y007760D02*
X051339Y007864D01*
X051183Y007979D02*
X051183Y008186D01*
X051028Y008134D02*
X051183Y007979D01*
X051339Y008134D02*
X051028Y008134D01*
X051878Y007953D02*
X051930Y007849D01*
X052033Y007746D01*
X052033Y007901D01*
X052085Y007953D01*
X052137Y007953D01*
X052189Y007901D01*
X052189Y007798D01*
X052137Y007746D01*
X052033Y007746D01*
X052189Y007630D02*
X052189Y007424D01*
X052189Y007527D02*
X051878Y007527D01*
X051982Y007424D01*
X051930Y007308D02*
X051878Y007257D01*
X051878Y007153D01*
X051930Y007101D01*
X052137Y007101D01*
X052189Y007153D01*
X052189Y007257D01*
X052137Y007308D01*
X051339Y007657D02*
X051028Y007657D01*
X057528Y007729D02*
X057528Y007936D01*
X057580Y007936D01*
X057787Y007729D01*
X057839Y007729D01*
X057839Y007614D02*
X057839Y007407D01*
X057632Y007614D01*
X057580Y007614D01*
X057528Y007562D01*
X057528Y007459D01*
X057580Y007407D01*
X057580Y007291D02*
X057683Y007291D01*
X057735Y007240D01*
X057735Y007085D01*
X057735Y007188D02*
X057839Y007291D01*
X057839Y007085D02*
X057528Y007085D01*
X057528Y007240D01*
X057580Y007291D01*
X057558Y013601D02*
X057351Y013601D01*
X057454Y013601D02*
X057454Y013912D01*
X057351Y013808D01*
X057235Y013860D02*
X057184Y013912D01*
X057080Y013912D01*
X057029Y013860D01*
X057029Y013653D01*
X057080Y013601D01*
X057184Y013601D01*
X057235Y013653D01*
X057673Y013757D02*
X057880Y013757D01*
X057828Y013912D02*
X057673Y013757D01*
X057828Y013601D02*
X057828Y013912D01*
X103512Y008210D02*
X103512Y008003D01*
X103563Y007951D01*
X103667Y007951D01*
X103719Y008003D01*
X103834Y007951D02*
X104041Y007951D01*
X103937Y007951D02*
X103937Y008262D01*
X103834Y008158D01*
X103719Y008210D02*
X103667Y008262D01*
X103563Y008262D01*
X103512Y008210D01*
X104156Y008210D02*
X104156Y008158D01*
X104208Y008107D01*
X104363Y008107D01*
X104363Y008210D02*
X104311Y008262D01*
X104208Y008262D01*
X104156Y008210D01*
X104156Y008003D02*
X104208Y007951D01*
X104311Y007951D01*
X104363Y008003D01*
X104363Y008210D01*
M02*
