G75*
G70*
%OFA0B0*%
%FSLAX24Y24*%
%IPPOS*%
%LPD*%
%AMOC8*
5,1,8,0,0,1.08239X$1,22.5*
%
%ADD10R,0.0350X0.0900*%
%ADD11R,0.1875X0.1575*%
%ADD12R,0.1875X0.1575*%
%ADD13R,0.0984X0.0748*%
%ADD14R,0.0748X0.0984*%
%ADD15R,0.0500X0.0300*%
%ADD16R,0.0300X0.0500*%
%ADD17R,0.0787X0.3228*%
D10*
X028609Y008181D03*
X029109Y008181D03*
X029609Y008181D03*
X030109Y008181D03*
X030609Y008181D03*
X031109Y008181D03*
X031609Y008181D03*
X048609Y009181D03*
X049109Y009181D03*
X049609Y009181D03*
X050109Y009181D03*
X050609Y009181D03*
X051109Y009181D03*
X051609Y009181D03*
X032109Y018181D03*
X031609Y018181D03*
X031109Y018181D03*
X030609Y018181D03*
X030109Y018181D03*
X029609Y018181D03*
X029109Y018181D03*
X050609Y028681D03*
X051109Y028681D03*
X051609Y028681D03*
X052109Y028681D03*
X052609Y028681D03*
X053109Y028681D03*
X053609Y028681D03*
X034609Y032181D03*
X034109Y032181D03*
X033609Y032181D03*
X033109Y032181D03*
X032609Y032181D03*
X032109Y032181D03*
X031609Y032181D03*
X126609Y016181D03*
X127109Y016181D03*
X127609Y016181D03*
X128109Y016181D03*
X128609Y016181D03*
X129109Y016181D03*
X129609Y016181D03*
X151609Y014181D03*
X152109Y014181D03*
X152609Y014181D03*
X153109Y014181D03*
X153609Y014181D03*
X154109Y014181D03*
X154609Y014181D03*
X132109Y008181D03*
X131609Y008181D03*
X131109Y008181D03*
X130609Y008181D03*
X130109Y008181D03*
X129609Y008181D03*
X129109Y008181D03*
X151109Y024181D03*
X151609Y024181D03*
X152109Y024181D03*
X152609Y024181D03*
X153109Y024181D03*
X153609Y024181D03*
X154109Y024181D03*
X133616Y031126D03*
X133116Y031126D03*
X132616Y031126D03*
X132116Y031126D03*
X131616Y031126D03*
X131116Y031126D03*
X130616Y031126D03*
D11*
X151546Y028769D03*
X131054Y035714D03*
X127046Y020769D03*
X154171Y009594D03*
X131671Y003594D03*
X049046Y013769D03*
X029546Y022769D03*
X053171Y024094D03*
X032046Y036769D03*
X031171Y003594D03*
D12*
X029046Y003594D03*
X029046Y005344D03*
X031171Y005344D03*
X049046Y012019D03*
X051171Y012019D03*
X051171Y013769D03*
X031671Y021019D03*
X029546Y021019D03*
X031671Y022769D03*
X051046Y024094D03*
X051046Y025844D03*
X053171Y025844D03*
X034171Y035019D03*
X032046Y035019D03*
X034171Y036769D03*
X127046Y019019D03*
X129171Y019019D03*
X129171Y020769D03*
X151546Y027019D03*
X153671Y027019D03*
X153671Y028769D03*
X133179Y033964D03*
X131054Y033964D03*
X133179Y035714D03*
X152046Y011344D03*
X154171Y011344D03*
X152046Y009594D03*
X131671Y005344D03*
X129546Y005344D03*
X129546Y003594D03*
D13*
X136109Y007961D03*
X126609Y008961D03*
X136109Y010402D03*
X129609Y011961D03*
X126609Y011402D03*
X129609Y014402D03*
X149109Y013461D03*
X149109Y015902D03*
X136109Y019961D03*
X136109Y022402D03*
X147609Y022961D03*
X156609Y023902D03*
X147609Y025402D03*
X156609Y021461D03*
X127609Y028961D03*
X127609Y031402D03*
X050609Y032961D03*
X047109Y031402D03*
X047109Y028961D03*
X034109Y027961D03*
X034109Y030402D03*
X050609Y035402D03*
X033609Y015402D03*
X033609Y012961D03*
X055109Y008902D03*
X055109Y006461D03*
D14*
X039829Y002681D03*
X037388Y002681D03*
X025829Y011681D03*
X023388Y011681D03*
X056888Y015681D03*
X059329Y015681D03*
X039829Y018681D03*
X037388Y018681D03*
X037388Y032181D03*
X039829Y032181D03*
X133388Y029181D03*
X135829Y029181D03*
X150388Y006681D03*
X152829Y006681D03*
D15*
X134109Y008781D03*
X134109Y009581D03*
X131109Y010281D03*
X131109Y011081D03*
X131609Y013281D03*
X131609Y014081D03*
X127609Y014081D03*
X127609Y013281D03*
X147109Y014281D03*
X147109Y015081D03*
X152609Y015281D03*
X154109Y015281D03*
X154109Y016081D03*
X152609Y016081D03*
X138109Y020281D03*
X138109Y021081D03*
X151609Y022281D03*
X153109Y022281D03*
X153109Y023081D03*
X151609Y023081D03*
X149109Y024281D03*
X149109Y025081D03*
X158109Y023581D03*
X158109Y022781D03*
X131609Y027781D03*
X131609Y028581D03*
X125609Y030281D03*
X125609Y031081D03*
X053109Y031081D03*
X051609Y031081D03*
X051609Y030281D03*
X053109Y030281D03*
X045609Y030081D03*
X045609Y029281D03*
X035609Y029281D03*
X032609Y029581D03*
X035609Y030081D03*
X032609Y028781D03*
X049109Y033281D03*
X049109Y034081D03*
X030109Y016581D03*
X030109Y015781D03*
X035609Y015081D03*
X035609Y014281D03*
X030609Y012081D03*
X030609Y011281D03*
X050609Y008081D03*
X052609Y008081D03*
X052609Y007281D03*
X050609Y007281D03*
D16*
X049134Y007556D03*
X048334Y007556D03*
X038509Y004681D03*
X037709Y004681D03*
X032009Y009681D03*
X031209Y009681D03*
X025009Y009681D03*
X024209Y009681D03*
X057209Y013181D03*
X058009Y013181D03*
X038509Y016681D03*
X037709Y016681D03*
X029509Y016681D03*
X028709Y016681D03*
X038209Y030181D03*
X039009Y030181D03*
X032009Y030681D03*
X031209Y030681D03*
X126209Y014681D03*
X127009Y014681D03*
X131709Y009681D03*
X132509Y009681D03*
X124259Y008681D03*
X123459Y008681D03*
X150709Y004681D03*
X151509Y004681D03*
X134509Y027681D03*
X133709Y027681D03*
X131009Y029681D03*
X130209Y029681D03*
D17*
X027421Y004589D03*
X032796Y004589D03*
X047421Y012774D03*
X052796Y012774D03*
X033296Y022089D03*
X027921Y022089D03*
X049421Y025089D03*
X054796Y025089D03*
X035796Y036089D03*
X030421Y036089D03*
X125421Y020089D03*
X130796Y020089D03*
X149921Y028089D03*
X155296Y028089D03*
X134803Y035034D03*
X129429Y035034D03*
X150421Y010089D03*
X155796Y010089D03*
X133296Y004274D03*
X127921Y004274D03*
M02*
