G75*
G70*
%OFA0B0*%
%FSLAX24Y24*%
%IPPOS*%
%LPD*%
%AMOC8*
5,1,8,0,0,1.08239X$1,22.5*
%
%ADD10C,0.0080*%
%ADD11C,0.1004*%
%ADD12C,0.1181*%
%ADD13R,0.4200X0.3500*%
%ADD14R,0.0350X0.0900*%
%ADD15R,0.0984X0.0748*%
%ADD16R,0.0748X0.0984*%
%ADD17R,0.0500X0.0300*%
%ADD18R,0.0300X0.0500*%
%ADD19R,0.0787X0.3228*%
%ADD20C,0.2500*%
%ADD21R,0.0709X0.0709*%
%ADD22R,0.0590X0.0590*%
%ADD23C,0.0590*%
%ADD24C,0.0455*%
%ADD25C,0.0396*%
%ADD26C,0.0160*%
%ADD27C,0.0320*%
%ADD28C,0.0150*%
D10*
X014149Y000721D02*
X014562Y000721D01*
X014355Y000721D02*
X014355Y001342D01*
X014149Y001135D01*
D11*
X043238Y004681D03*
X063238Y004681D03*
X083238Y004681D03*
X103238Y004681D03*
X103238Y012181D03*
X083238Y012181D03*
X063238Y012181D03*
X043238Y012181D03*
X043238Y019681D03*
X063238Y019681D03*
X083238Y019681D03*
X103238Y019681D03*
X103238Y027181D03*
X083238Y027181D03*
X063238Y027181D03*
X043238Y027181D03*
X043238Y034681D03*
X063238Y034681D03*
X083238Y034681D03*
X103238Y034681D03*
X143238Y034681D03*
X163238Y034681D03*
X183238Y034681D03*
X203238Y034681D03*
X203238Y027181D03*
X183238Y027181D03*
X163238Y027181D03*
X143238Y027181D03*
X143238Y019681D03*
X163238Y019681D03*
X183238Y019681D03*
X203238Y019681D03*
X203238Y012181D03*
X183238Y012181D03*
X163238Y012181D03*
X143238Y012181D03*
X143238Y004681D03*
X163238Y004681D03*
X183238Y004681D03*
X203238Y004681D03*
D12*
X202609Y002654D03*
X182609Y002654D03*
X162609Y002654D03*
X162609Y006709D03*
X162609Y010154D03*
X182609Y010154D03*
X182609Y006709D03*
X202609Y006709D03*
X202609Y010154D03*
X202609Y014209D03*
X202609Y017654D03*
X182609Y017654D03*
X182609Y014209D03*
X162609Y014209D03*
X162609Y017654D03*
X162609Y021709D03*
X162609Y025154D03*
X182609Y025154D03*
X182609Y021709D03*
X202609Y021709D03*
X202609Y025154D03*
X202609Y029209D03*
X202609Y032654D03*
X182609Y032654D03*
X182609Y029209D03*
X162609Y029209D03*
X162609Y032654D03*
X162609Y036709D03*
X182609Y036709D03*
X202609Y036709D03*
X142609Y036709D03*
X142609Y032654D03*
X142609Y029209D03*
X142609Y025154D03*
X142609Y021709D03*
X142609Y017654D03*
X142609Y014209D03*
X142609Y010154D03*
X142609Y006709D03*
X142609Y002654D03*
X102609Y002654D03*
X102609Y006709D03*
X102609Y010154D03*
X102609Y014209D03*
X102609Y017654D03*
X102609Y021709D03*
X102609Y025154D03*
X102609Y029209D03*
X102609Y032654D03*
X102609Y036709D03*
X082609Y036709D03*
X062609Y036709D03*
X062609Y032654D03*
X062609Y029209D03*
X082609Y029209D03*
X082609Y032654D03*
X082609Y025154D03*
X082609Y021709D03*
X062609Y021709D03*
X062609Y025154D03*
X042609Y025154D03*
X042609Y021709D03*
X042609Y017654D03*
X042609Y014209D03*
X042609Y010154D03*
X042609Y006709D03*
X042609Y002654D03*
X062609Y002654D03*
X082609Y002654D03*
X082609Y006709D03*
X082609Y010154D03*
X062609Y010154D03*
X062609Y006709D03*
X062609Y014209D03*
X062609Y017654D03*
X082609Y017654D03*
X082609Y014209D03*
X042609Y029209D03*
X042609Y032654D03*
X042609Y036709D03*
D13*
X033109Y035881D03*
X052109Y024981D03*
X030609Y021881D03*
X050109Y012881D03*
X030109Y004481D03*
X128109Y019881D03*
X152609Y027881D03*
X132116Y034826D03*
X153109Y010481D03*
X130609Y004481D03*
D14*
X130609Y008181D03*
X131109Y008181D03*
X131609Y008181D03*
X132109Y008181D03*
X130109Y008181D03*
X129609Y008181D03*
X129109Y008181D03*
X151609Y014181D03*
X152109Y014181D03*
X152609Y014181D03*
X153109Y014181D03*
X153609Y014181D03*
X154109Y014181D03*
X154609Y014181D03*
X129609Y016181D03*
X129109Y016181D03*
X128609Y016181D03*
X128109Y016181D03*
X127609Y016181D03*
X127109Y016181D03*
X126609Y016181D03*
X151109Y024181D03*
X151609Y024181D03*
X152109Y024181D03*
X152609Y024181D03*
X153109Y024181D03*
X153609Y024181D03*
X154109Y024181D03*
X133616Y031126D03*
X133116Y031126D03*
X132616Y031126D03*
X132116Y031126D03*
X131616Y031126D03*
X131116Y031126D03*
X130616Y031126D03*
X053609Y028681D03*
X053109Y028681D03*
X052609Y028681D03*
X052109Y028681D03*
X051609Y028681D03*
X051109Y028681D03*
X050609Y028681D03*
X034609Y032181D03*
X034109Y032181D03*
X033609Y032181D03*
X033109Y032181D03*
X032609Y032181D03*
X032109Y032181D03*
X031609Y032181D03*
X031609Y018181D03*
X032109Y018181D03*
X031109Y018181D03*
X030609Y018181D03*
X030109Y018181D03*
X029609Y018181D03*
X029109Y018181D03*
X048609Y009181D03*
X049109Y009181D03*
X049609Y009181D03*
X050109Y009181D03*
X050609Y009181D03*
X051109Y009181D03*
X051609Y009181D03*
X031609Y008181D03*
X031109Y008181D03*
X030609Y008181D03*
X030109Y008181D03*
X029609Y008181D03*
X029109Y008181D03*
X028609Y008181D03*
D15*
X033609Y012961D03*
X033609Y015402D03*
X055109Y008902D03*
X055109Y006461D03*
X126609Y008961D03*
X136109Y007961D03*
X136109Y010402D03*
X129609Y011961D03*
X126609Y011402D03*
X129609Y014402D03*
X149109Y013461D03*
X149109Y015902D03*
X136109Y019961D03*
X136109Y022402D03*
X147609Y022961D03*
X156609Y023902D03*
X147609Y025402D03*
X156609Y021461D03*
X127609Y028961D03*
X127609Y031402D03*
X050609Y032961D03*
X047109Y031402D03*
X047109Y028961D03*
X034109Y027961D03*
X034109Y030402D03*
X050609Y035402D03*
D16*
X039829Y032181D03*
X037388Y032181D03*
X037388Y018681D03*
X039829Y018681D03*
X056888Y015681D03*
X059329Y015681D03*
X025829Y011681D03*
X023388Y011681D03*
X037388Y002681D03*
X039829Y002681D03*
X150388Y006681D03*
X152829Y006681D03*
X135829Y029181D03*
X133388Y029181D03*
D17*
X131609Y028581D03*
X131609Y027781D03*
X125609Y030281D03*
X125609Y031081D03*
X149109Y025081D03*
X149109Y024281D03*
X151609Y023081D03*
X153109Y023081D03*
X153109Y022281D03*
X151609Y022281D03*
X158109Y022781D03*
X159359Y022781D03*
X159359Y023581D03*
X158109Y023581D03*
X139359Y021081D03*
X138109Y021081D03*
X138109Y020281D03*
X139359Y020281D03*
X152609Y016081D03*
X154109Y016081D03*
X154109Y015281D03*
X152609Y015281D03*
X147109Y015081D03*
X147109Y014281D03*
X131609Y014081D03*
X131609Y013281D03*
X127609Y013281D03*
X127609Y014081D03*
X131109Y011081D03*
X131109Y010281D03*
X134109Y009581D03*
X134109Y008781D03*
X057109Y007831D03*
X057109Y007031D03*
X052609Y007281D03*
X050609Y007281D03*
X050609Y008081D03*
X052609Y008081D03*
X030609Y011281D03*
X030609Y012081D03*
X035609Y014281D03*
X035609Y015081D03*
X030109Y015781D03*
X030109Y016581D03*
X032609Y028781D03*
X035609Y029281D03*
X037109Y029031D03*
X037109Y029831D03*
X035609Y030081D03*
X032609Y029581D03*
X045609Y029281D03*
X045609Y030081D03*
X051609Y030281D03*
X053109Y030281D03*
X053109Y031081D03*
X051609Y031081D03*
X049109Y033281D03*
X048109Y033281D03*
X048109Y034081D03*
X049109Y034081D03*
D18*
X032009Y030681D03*
X031209Y030681D03*
X038209Y030181D03*
X039009Y030181D03*
X038634Y020931D03*
X037834Y020931D03*
X037709Y016681D03*
X038509Y016681D03*
X029509Y016681D03*
X028709Y016681D03*
X057209Y013181D03*
X058009Y013181D03*
X032009Y009681D03*
X031209Y009681D03*
X025009Y009681D03*
X024209Y009681D03*
X037709Y005931D03*
X038509Y005931D03*
X038509Y004681D03*
X037709Y004681D03*
X048334Y007556D03*
X049134Y007556D03*
X123459Y008681D03*
X124259Y008681D03*
X131709Y009681D03*
X132509Y009681D03*
X137459Y006681D03*
X138259Y006681D03*
X150709Y004681D03*
X151509Y004681D03*
X145759Y014431D03*
X144959Y014431D03*
X127009Y014681D03*
X126209Y014681D03*
X133709Y027681D03*
X134509Y027681D03*
X131009Y029681D03*
X130209Y029681D03*
X125259Y032306D03*
X124459Y032306D03*
D19*
X129429Y035034D03*
X134803Y035034D03*
X149921Y028089D03*
X155296Y028089D03*
X130796Y020089D03*
X125421Y020089D03*
X150421Y010089D03*
X155796Y010089D03*
X133296Y004274D03*
X127921Y004274D03*
X052796Y012774D03*
X047421Y012774D03*
X032796Y004589D03*
X027421Y004589D03*
X027921Y022089D03*
X033296Y022089D03*
X049421Y025089D03*
X054796Y025089D03*
X035796Y036089D03*
X030421Y036089D03*
D20*
X016109Y037181D03*
X072609Y037181D03*
X116609Y037181D03*
X172609Y037181D03*
X210109Y037181D03*
X209609Y003681D03*
X172609Y003681D03*
X116609Y003181D03*
X072609Y003681D03*
X016109Y003681D03*
D21*
X020187Y012583D03*
X020187Y013961D03*
X020187Y015339D03*
X020187Y016717D03*
X020187Y018095D03*
X020187Y019473D03*
X020187Y020851D03*
X020187Y022229D03*
X020187Y023607D03*
X020187Y024985D03*
X020187Y026363D03*
X020187Y027740D03*
D22*
X116109Y028681D03*
D23*
X117109Y028681D03*
X117109Y027681D03*
X116109Y027681D03*
X116109Y026681D03*
X117109Y026681D03*
X117109Y025681D03*
X116109Y025681D03*
X116109Y024681D03*
X117109Y024681D03*
X117109Y023681D03*
X116109Y023681D03*
X116109Y022681D03*
X117109Y022681D03*
X117109Y021681D03*
X116109Y021681D03*
X116109Y020681D03*
X117109Y020681D03*
X117109Y019681D03*
X116109Y019681D03*
X116109Y018681D03*
X117109Y018681D03*
X117109Y017681D03*
X116109Y017681D03*
X116109Y016681D03*
X117109Y016681D03*
X117109Y015681D03*
X116109Y015681D03*
D24*
X125609Y014681D03*
X126609Y012681D03*
X127609Y012681D03*
X131609Y012681D03*
X131109Y011681D03*
X129609Y011181D03*
X134109Y010181D03*
X133109Y009681D03*
X136109Y011181D03*
X122859Y008681D03*
X138859Y006681D03*
X152109Y004681D03*
X153609Y006681D03*
X152109Y013181D03*
X144359Y014431D03*
X147109Y015681D03*
X149109Y016681D03*
X152609Y016681D03*
X154109Y016681D03*
X156609Y020681D03*
X153109Y021681D03*
X151609Y021681D03*
X147609Y022181D03*
X149109Y023681D03*
X153609Y025181D03*
X158109Y022181D03*
X159359Y022181D03*
X139359Y021681D03*
X138109Y021681D03*
X136109Y023181D03*
X131609Y027181D03*
X135109Y027681D03*
X136609Y029181D03*
X129609Y029681D03*
X125609Y029681D03*
X127609Y028181D03*
X123859Y032306D03*
X053109Y031681D03*
X051609Y031681D03*
X047109Y032181D03*
X045609Y030681D03*
X040609Y032181D03*
X039609Y030181D03*
X035609Y028681D03*
X037109Y028431D03*
X032609Y028181D03*
X034109Y027181D03*
X051109Y027681D03*
X030609Y030681D03*
X048109Y034681D03*
X049109Y034681D03*
X050609Y036181D03*
X039359Y020931D03*
X040609Y018681D03*
X039109Y016681D03*
X030109Y015181D03*
X028109Y016681D03*
X035609Y013681D03*
X033609Y012181D03*
D25*
X030609Y012681D03*
X022609Y011681D03*
X023609Y009681D03*
X025609Y009181D03*
X026609Y009181D03*
X027609Y009181D03*
X027609Y008181D03*
X026609Y008181D03*
X025609Y008181D03*
X032609Y009681D03*
X047609Y007556D03*
X050609Y006681D03*
X052609Y006681D03*
X055109Y005681D03*
X057109Y006431D03*
X053609Y008181D03*
X053609Y009181D03*
X052734Y009181D03*
X051109Y010181D03*
X051609Y011681D03*
X050109Y011681D03*
X048609Y011681D03*
X048609Y012931D03*
X050109Y012931D03*
X051609Y012931D03*
X051609Y014181D03*
X050109Y014181D03*
X048609Y014181D03*
X059109Y013181D03*
X060609Y015681D03*
X035109Y017681D03*
X034109Y017681D03*
X033109Y017681D03*
X033109Y018681D03*
X034109Y018681D03*
X035109Y018681D03*
X032109Y020681D03*
X030609Y020681D03*
X029109Y020681D03*
X029109Y021681D03*
X030609Y021681D03*
X032109Y021681D03*
X032109Y022681D03*
X030609Y022681D03*
X029109Y022681D03*
X050609Y024181D03*
X052109Y024181D03*
X053609Y024181D03*
X053609Y025181D03*
X052109Y025181D03*
X050609Y025181D03*
X050609Y026181D03*
X052109Y026181D03*
X053609Y026181D03*
X049484Y028681D03*
X049484Y029681D03*
X050234Y029681D03*
X050234Y030681D03*
X049484Y030681D03*
X035734Y032181D03*
X035359Y033306D03*
X034359Y033306D03*
X034609Y035181D03*
X033109Y035181D03*
X031609Y035181D03*
X031609Y036181D03*
X033109Y036181D03*
X034609Y036181D03*
X034609Y037181D03*
X033109Y037181D03*
X031609Y037181D03*
X126609Y021181D03*
X128109Y021181D03*
X129609Y021181D03*
X129609Y019931D03*
X128109Y019931D03*
X126609Y019931D03*
X126609Y018681D03*
X128109Y018681D03*
X129609Y018681D03*
X129609Y017181D03*
X131109Y017181D03*
X132109Y017181D03*
X133109Y017181D03*
X133109Y016181D03*
X132109Y016181D03*
X131109Y016181D03*
X144609Y016681D03*
X150859Y015181D03*
X149359Y014181D03*
X151109Y013181D03*
X147609Y013181D03*
X146109Y013181D03*
X146109Y011681D03*
X147609Y011681D03*
X151609Y011681D03*
X153109Y011681D03*
X154609Y011681D03*
X154609Y010681D03*
X153109Y010681D03*
X151609Y010681D03*
X147609Y009681D03*
X146109Y009681D03*
X151609Y009181D03*
X153109Y009181D03*
X154609Y009181D03*
X132109Y005681D03*
X130609Y005681D03*
X129109Y005681D03*
X125609Y005181D03*
X124609Y005181D03*
X124609Y004181D03*
X125609Y004181D03*
X129109Y004431D03*
X130609Y004431D03*
X132109Y004431D03*
X132109Y003181D03*
X130609Y003181D03*
X129109Y003181D03*
X125609Y003181D03*
X124609Y003181D03*
X131234Y007181D03*
X117109Y007181D03*
X120109Y010181D03*
X125109Y013181D03*
X158109Y024681D03*
X159109Y024681D03*
X160109Y024681D03*
X160109Y025681D03*
X159109Y025681D03*
X158109Y025681D03*
X146609Y025681D03*
X146609Y026681D03*
X146609Y027681D03*
X146609Y028681D03*
X146609Y029681D03*
X135609Y031181D03*
X134609Y031181D03*
X134609Y032181D03*
X135609Y032181D03*
X133609Y032181D03*
X133609Y033681D03*
X132109Y033681D03*
X130609Y033681D03*
X130609Y034681D03*
X132109Y034681D03*
X133609Y034681D03*
X133609Y035681D03*
X132109Y035681D03*
X130609Y035681D03*
X039109Y005931D03*
X039109Y004681D03*
X031609Y004431D03*
X030109Y004431D03*
X028609Y004431D03*
X028609Y003181D03*
X030109Y003181D03*
X031609Y003181D03*
X040609Y002681D03*
X031609Y005681D03*
X030109Y005681D03*
X028609Y005681D03*
D26*
X031109Y009681D02*
X031209Y009681D01*
X032009Y009681D02*
X032609Y009681D01*
X030609Y012081D02*
X030609Y012681D01*
X030109Y015181D02*
X030109Y015781D01*
X030109Y016581D02*
X030109Y018181D01*
X028709Y016681D02*
X028109Y016681D01*
X050609Y009181D02*
X050609Y008081D01*
X050609Y007281D02*
X050609Y006681D01*
X048334Y007556D02*
X047609Y007556D01*
X127009Y014681D02*
X127109Y014681D01*
X131609Y009681D02*
X131709Y009681D01*
X051109Y027681D02*
X051109Y028681D01*
X051609Y028681D02*
X051609Y030281D01*
X053109Y030281D02*
X053109Y028681D01*
X053109Y031081D02*
X053109Y031681D01*
X051609Y031681D02*
X051609Y031081D01*
X032109Y032181D02*
X032009Y032181D01*
X032009Y030681D01*
X131009Y029681D02*
X131109Y029681D01*
X131609Y028581D02*
X131616Y028581D01*
X131116Y031126D02*
X131109Y031126D01*
D27*
X131109Y029681D01*
X130209Y029681D02*
X129609Y029681D01*
X132109Y030181D02*
X132109Y031126D01*
X132116Y031126D01*
X132116Y033681D01*
X132109Y033681D01*
X124459Y032306D02*
X123859Y032306D01*
X125509Y031181D02*
X118109Y031181D01*
X117109Y030181D01*
X117109Y028681D01*
X116109Y028681D02*
X116109Y032681D01*
X114109Y034681D01*
X103238Y034681D01*
X125509Y031181D02*
X125609Y031081D01*
X125609Y030281D02*
X125609Y029681D01*
X127609Y028961D02*
X127609Y028181D01*
X131509Y028681D02*
X131609Y028581D01*
X131616Y028581D02*
X131616Y031126D01*
X132616Y031126D02*
X132616Y030181D01*
X132109Y030181D01*
X133116Y029181D02*
X133388Y029181D01*
X135829Y029181D02*
X136609Y029181D01*
X135109Y027681D02*
X134509Y027681D01*
X131609Y027781D02*
X131609Y027181D01*
X138609Y025681D02*
X140109Y027181D01*
X143238Y027181D01*
X138609Y025681D02*
X117109Y025681D01*
X116109Y025681D02*
X113109Y025681D01*
X111609Y027181D01*
X103238Y027181D01*
X111609Y021681D02*
X112609Y022681D01*
X116109Y022681D01*
X117109Y022681D02*
X121109Y022681D01*
X122109Y021681D01*
X123109Y021681D01*
X123609Y021181D01*
X126609Y021181D01*
X120109Y019181D02*
X119609Y019681D01*
X117109Y019681D01*
X116109Y019681D02*
X114109Y019681D01*
X112109Y017681D01*
X112109Y013681D01*
X110609Y012181D01*
X103238Y012181D01*
X118609Y009681D02*
X119109Y009181D01*
X120609Y009181D01*
X121609Y010181D01*
X130109Y010181D01*
X130109Y009181D01*
X130109Y008181D01*
X130609Y008181D02*
X130609Y009181D01*
X130109Y009181D01*
X131609Y009681D02*
X131609Y008181D01*
X131109Y008181D02*
X131109Y007306D01*
X131234Y007181D01*
X131109Y008181D02*
X131109Y010281D01*
X134109Y010181D02*
X134109Y009581D01*
X133109Y009681D02*
X132509Y009681D01*
X136109Y010402D02*
X136109Y011181D01*
X131109Y011081D02*
X131109Y011681D01*
X129609Y011961D02*
X129609Y011181D01*
X126609Y011402D02*
X126609Y012681D01*
X127609Y012681D02*
X127609Y013281D01*
X125109Y013181D02*
X122109Y013181D01*
X121609Y013681D01*
X121609Y016681D01*
X120109Y018181D01*
X120109Y019181D01*
X128109Y018681D02*
X128109Y016181D01*
X128109Y015181D01*
X128609Y015181D01*
X128609Y016181D01*
X127609Y016181D02*
X127609Y014081D01*
X127109Y014681D02*
X127109Y016181D01*
X120109Y017181D02*
X120109Y010181D01*
X118609Y009681D02*
X118609Y016181D01*
X118109Y016681D01*
X117109Y016681D01*
X116109Y016681D02*
X115109Y016681D01*
X114109Y015681D01*
X114109Y007681D01*
X111109Y004681D01*
X103238Y004681D01*
X122859Y008681D02*
X123459Y008681D01*
X130609Y008181D02*
X130609Y005681D01*
X138259Y006681D02*
X138859Y006681D01*
X151509Y004681D02*
X152109Y004681D01*
X152829Y006681D02*
X153609Y006681D01*
X131609Y012681D02*
X131609Y013281D01*
X126209Y014681D02*
X125609Y014681D01*
X120109Y017181D02*
X119609Y017681D01*
X117109Y017681D01*
X111609Y020181D02*
X111109Y019681D01*
X103238Y019681D01*
X111609Y020181D02*
X111609Y021681D01*
X136109Y022402D02*
X136109Y023181D01*
X138109Y021681D02*
X138109Y021081D01*
X139359Y021081D02*
X139359Y021681D01*
X147609Y022181D02*
X147609Y022961D01*
X151609Y023081D02*
X151609Y024181D01*
X153109Y024181D02*
X153109Y023081D01*
X153109Y022281D02*
X153109Y021681D01*
X151609Y021681D02*
X151609Y022281D01*
X149109Y023681D02*
X149109Y024281D01*
X153609Y024181D02*
X153609Y025181D01*
X158109Y022781D02*
X158109Y022181D01*
X159359Y022181D02*
X159359Y022781D01*
X156609Y021461D02*
X156609Y020681D01*
X154109Y016681D02*
X154109Y016081D01*
X152609Y016081D02*
X152609Y016681D01*
X149109Y016681D02*
X149109Y015902D01*
X147109Y015681D02*
X147109Y015081D01*
X144959Y014431D02*
X144359Y014431D01*
X152109Y014181D02*
X152109Y013181D01*
X152609Y014181D02*
X152609Y015281D01*
X154109Y015281D02*
X154109Y014181D01*
X060609Y015681D02*
X059329Y015681D01*
X059109Y013181D02*
X058009Y013181D01*
X050109Y011681D02*
X049609Y011681D01*
X049609Y009181D01*
X049134Y009156D02*
X049134Y007556D01*
X052609Y007281D02*
X052609Y006681D01*
X055109Y006461D02*
X055109Y005681D01*
X057109Y006431D02*
X057109Y007031D01*
X051109Y009181D02*
X051109Y010181D01*
X050109Y009181D02*
X050109Y011681D01*
X048609Y011681D02*
X048609Y009181D01*
X049109Y009181D02*
X049134Y009156D01*
X039109Y005931D02*
X038509Y005931D01*
X038509Y004681D02*
X039109Y004681D01*
X030109Y005681D02*
X030109Y008181D01*
X029609Y008181D01*
X030609Y008181D02*
X030609Y011281D01*
X033609Y012181D02*
X033609Y012961D01*
X035609Y013681D02*
X035609Y014281D01*
X038509Y016681D02*
X039109Y016681D01*
X031109Y018181D02*
X030609Y018181D01*
X030609Y020681D01*
X038634Y020931D02*
X039359Y020931D01*
X039829Y018681D02*
X040609Y018681D01*
X052109Y026181D02*
X052109Y028681D01*
X052609Y028681D01*
X053609Y028681D02*
X053609Y026181D01*
X037109Y028431D02*
X037109Y029031D01*
X035609Y029281D02*
X035609Y028681D01*
X032609Y028781D02*
X032609Y028181D01*
X034109Y027961D02*
X034109Y027181D01*
X032609Y029581D02*
X032609Y032181D01*
X033109Y032181D02*
X033609Y032181D01*
X033109Y032181D02*
X033109Y035181D01*
X048109Y034681D02*
X048109Y034081D01*
X049109Y034081D02*
X049109Y034681D01*
X050609Y035402D02*
X050609Y036181D01*
X047109Y032181D02*
X047109Y031402D01*
X045609Y030681D02*
X045609Y030081D01*
X039609Y030181D02*
X039009Y030181D01*
X031209Y030681D02*
X030609Y030681D01*
X039829Y032181D02*
X040609Y032181D01*
X023388Y011681D02*
X022609Y011681D01*
X023609Y009681D02*
X024209Y009681D01*
X031109Y009681D02*
X031109Y008181D01*
X039829Y002681D02*
X040609Y002681D01*
D28*
X038109Y002707D02*
X037463Y002707D01*
X037463Y002756D02*
X037937Y002756D01*
X037937Y003246D01*
X037835Y003349D01*
X037463Y003349D01*
X037463Y002757D01*
X037313Y002757D01*
X037313Y003349D01*
X036941Y003349D01*
X036839Y003246D01*
X036839Y002756D01*
X037313Y002756D01*
X037313Y002606D01*
X037463Y002606D01*
X037463Y002014D01*
X037835Y002014D01*
X037937Y002117D01*
X037937Y002606D01*
X037463Y002606D01*
X037463Y002756D01*
X037463Y002855D02*
X037313Y002855D01*
X037313Y002707D02*
X032383Y002707D01*
X032383Y002659D02*
X032383Y002800D01*
X032721Y002800D01*
X032721Y004514D01*
X032870Y004514D01*
X032870Y002800D01*
X033262Y002800D01*
X033364Y002902D01*
X033364Y004514D01*
X032871Y004514D01*
X032871Y004664D01*
X033364Y004664D01*
X033364Y006276D01*
X033262Y006378D01*
X032870Y006378D01*
X032870Y004664D01*
X032721Y004664D01*
X032721Y006378D01*
X032329Y006378D01*
X032319Y006368D01*
X032281Y006406D01*
X030183Y006406D01*
X030183Y004557D01*
X030034Y004557D01*
X030034Y006406D01*
X027936Y006406D01*
X027898Y006368D01*
X027888Y006378D01*
X027496Y006378D01*
X027496Y004664D01*
X027347Y004664D01*
X027347Y006378D01*
X026955Y006378D01*
X026853Y006276D01*
X026853Y004664D01*
X027346Y004664D01*
X027346Y004514D01*
X026853Y004514D01*
X026853Y002902D01*
X026955Y002800D01*
X027347Y002800D01*
X027347Y004514D01*
X027496Y004514D01*
X027496Y002800D01*
X027834Y002800D01*
X027834Y002659D01*
X027936Y002556D01*
X030034Y002556D01*
X030034Y004406D01*
X030183Y004406D01*
X030183Y002556D01*
X032281Y002556D01*
X032383Y002659D01*
X032283Y002558D02*
X036839Y002558D01*
X036839Y002606D02*
X036839Y002117D01*
X036941Y002014D01*
X037313Y002014D01*
X037313Y002606D01*
X036839Y002606D01*
X036839Y002410D02*
X025609Y002410D01*
X025609Y002558D02*
X027934Y002558D01*
X027834Y002707D02*
X025609Y002707D01*
X025609Y002855D02*
X026900Y002855D01*
X026853Y003004D02*
X025609Y003004D01*
X025609Y003152D02*
X026853Y003152D01*
X026853Y003301D02*
X025609Y003301D01*
X025609Y003449D02*
X026853Y003449D01*
X026853Y003598D02*
X025609Y003598D01*
X025609Y003746D02*
X026853Y003746D01*
X026853Y003895D02*
X025609Y003895D01*
X025609Y004044D02*
X026853Y004044D01*
X026853Y004192D02*
X025609Y004192D01*
X025609Y004341D02*
X026853Y004341D01*
X026853Y004489D02*
X025609Y004489D01*
X025609Y004638D02*
X027346Y004638D01*
X027347Y004786D02*
X027496Y004786D01*
X027497Y004664D02*
X027834Y004664D01*
X027834Y004556D01*
X030033Y004556D01*
X030033Y004406D01*
X027990Y004406D01*
X027990Y004514D01*
X027497Y004514D01*
X027497Y004664D01*
X027497Y004638D02*
X027834Y004638D01*
X027990Y004489D02*
X030033Y004489D01*
X030034Y004341D02*
X030183Y004341D01*
X030184Y004406D02*
X030184Y004556D01*
X032383Y004556D01*
X032383Y004664D01*
X032720Y004664D01*
X032720Y004514D01*
X032227Y004514D01*
X032227Y004406D01*
X030184Y004406D01*
X030184Y004489D02*
X032227Y004489D01*
X032383Y004638D02*
X032720Y004638D01*
X032721Y004786D02*
X032870Y004786D01*
X032871Y004638D02*
X037384Y004638D01*
X037384Y004681D02*
X037384Y004359D01*
X037486Y004256D01*
X037708Y004256D01*
X037708Y004681D01*
X037384Y004681D01*
X037384Y004682D02*
X037384Y005004D01*
X037486Y005106D01*
X037708Y005106D01*
X037708Y004682D01*
X037709Y004682D01*
X037709Y005106D01*
X037931Y005106D01*
X038033Y005004D01*
X038033Y004682D01*
X037709Y004682D01*
X037709Y004681D01*
X038033Y004681D01*
X038033Y004359D01*
X037931Y004256D01*
X037709Y004256D01*
X037709Y004681D01*
X037708Y004681D01*
X037708Y004682D01*
X037384Y004682D01*
X037384Y004786D02*
X033364Y004786D01*
X033364Y004935D02*
X037384Y004935D01*
X037463Y005083D02*
X033364Y005083D01*
X033364Y005232D02*
X038109Y005232D01*
X038109Y005380D02*
X033364Y005380D01*
X033364Y005529D02*
X037463Y005529D01*
X037486Y005506D02*
X037708Y005506D01*
X037708Y005931D01*
X037384Y005931D01*
X037384Y005609D01*
X037486Y005506D01*
X037384Y005678D02*
X033364Y005678D01*
X033364Y005826D02*
X037384Y005826D01*
X037384Y005932D02*
X037384Y006254D01*
X037486Y006356D01*
X037708Y006356D01*
X037708Y005932D01*
X037709Y005932D01*
X037709Y006356D01*
X037931Y006356D01*
X038033Y006254D01*
X038033Y005932D01*
X037709Y005932D01*
X037709Y005931D01*
X038033Y005931D01*
X038033Y005609D01*
X037931Y005506D01*
X037709Y005506D01*
X037709Y005931D01*
X037708Y005931D01*
X037708Y005932D01*
X037384Y005932D01*
X037384Y005975D02*
X033364Y005975D01*
X033364Y006123D02*
X037384Y006123D01*
X037401Y006272D02*
X033364Y006272D01*
X032870Y006272D02*
X032721Y006272D01*
X032721Y006123D02*
X032870Y006123D01*
X032870Y005975D02*
X032721Y005975D01*
X032721Y005826D02*
X032870Y005826D01*
X032870Y005678D02*
X032721Y005678D01*
X032721Y005529D02*
X032870Y005529D01*
X032870Y005380D02*
X032721Y005380D01*
X032721Y005232D02*
X032870Y005232D01*
X032870Y005083D02*
X032721Y005083D01*
X032721Y004935D02*
X032870Y004935D01*
X032870Y004489D02*
X032721Y004489D01*
X032721Y004341D02*
X032870Y004341D01*
X032870Y004192D02*
X032721Y004192D01*
X032721Y004044D02*
X032870Y004044D01*
X032870Y003895D02*
X032721Y003895D01*
X032721Y003746D02*
X032870Y003746D01*
X032870Y003598D02*
X032721Y003598D01*
X032721Y003449D02*
X032870Y003449D01*
X032870Y003301D02*
X032721Y003301D01*
X032721Y003152D02*
X032870Y003152D01*
X032870Y003004D02*
X032721Y003004D01*
X032721Y002855D02*
X032870Y002855D01*
X033317Y002855D02*
X036839Y002855D01*
X036839Y003004D02*
X033364Y003004D01*
X033364Y003152D02*
X036839Y003152D01*
X036894Y003301D02*
X033364Y003301D01*
X033364Y003449D02*
X038109Y003449D01*
X038109Y003301D02*
X037882Y003301D01*
X037937Y003152D02*
X038109Y003152D01*
X038109Y003004D02*
X037937Y003004D01*
X037937Y002855D02*
X038109Y002855D01*
X038109Y002558D02*
X037937Y002558D01*
X037937Y002410D02*
X038109Y002410D01*
X038109Y002261D02*
X037937Y002261D01*
X037933Y002112D02*
X038109Y002112D01*
X038109Y001964D02*
X025609Y001964D01*
X025609Y002112D02*
X036843Y002112D01*
X036839Y002261D02*
X025609Y002261D01*
X025609Y001815D02*
X038109Y001815D01*
X038109Y001681D02*
X025609Y001681D01*
X025609Y007056D01*
X033109Y007056D01*
X034609Y007181D01*
X038109Y007181D01*
X038109Y001681D01*
X037463Y002112D02*
X037313Y002112D01*
X037313Y002261D02*
X037463Y002261D01*
X037463Y002410D02*
X037313Y002410D01*
X037313Y002558D02*
X037463Y002558D01*
X037463Y003004D02*
X037313Y003004D01*
X037313Y003152D02*
X037463Y003152D01*
X037463Y003301D02*
X037313Y003301D01*
X038109Y003598D02*
X033364Y003598D01*
X033364Y003746D02*
X038109Y003746D01*
X038109Y003895D02*
X033364Y003895D01*
X033364Y004044D02*
X038109Y004044D01*
X038109Y004192D02*
X033364Y004192D01*
X033364Y004341D02*
X037402Y004341D01*
X037384Y004489D02*
X033364Y004489D01*
X030183Y004638D02*
X030034Y004638D01*
X030034Y004786D02*
X030183Y004786D01*
X030183Y004935D02*
X030034Y004935D01*
X030034Y005083D02*
X030183Y005083D01*
X030183Y005232D02*
X030034Y005232D01*
X030034Y005380D02*
X030183Y005380D01*
X030183Y005529D02*
X030034Y005529D01*
X030034Y005678D02*
X030183Y005678D01*
X030183Y005826D02*
X030034Y005826D01*
X030034Y005975D02*
X030183Y005975D01*
X030183Y006123D02*
X030034Y006123D01*
X030034Y006272D02*
X030183Y006272D01*
X027496Y006272D02*
X027347Y006272D01*
X027347Y006123D02*
X027496Y006123D01*
X027496Y005975D02*
X027347Y005975D01*
X027347Y005826D02*
X027496Y005826D01*
X027496Y005678D02*
X027347Y005678D01*
X027347Y005529D02*
X027496Y005529D01*
X027496Y005380D02*
X027347Y005380D01*
X027347Y005232D02*
X027496Y005232D01*
X027496Y005083D02*
X027347Y005083D01*
X027347Y004935D02*
X027496Y004935D01*
X027496Y004489D02*
X027347Y004489D01*
X027347Y004341D02*
X027496Y004341D01*
X027496Y004192D02*
X027347Y004192D01*
X027347Y004044D02*
X027496Y004044D01*
X027496Y003895D02*
X027347Y003895D01*
X027347Y003746D02*
X027496Y003746D01*
X027496Y003598D02*
X027347Y003598D01*
X027347Y003449D02*
X027496Y003449D01*
X027496Y003301D02*
X027347Y003301D01*
X027347Y003152D02*
X027496Y003152D01*
X027496Y003004D02*
X027347Y003004D01*
X027347Y002855D02*
X027496Y002855D01*
X030034Y002855D02*
X030183Y002855D01*
X030183Y002707D02*
X030034Y002707D01*
X030034Y002558D02*
X030183Y002558D01*
X030183Y003004D02*
X030034Y003004D01*
X030034Y003152D02*
X030183Y003152D01*
X030183Y003301D02*
X030034Y003301D01*
X030034Y003449D02*
X030183Y003449D01*
X030183Y003598D02*
X030034Y003598D01*
X030034Y003746D02*
X030183Y003746D01*
X030183Y003895D02*
X030034Y003895D01*
X030034Y004044D02*
X030183Y004044D01*
X030183Y004192D02*
X030034Y004192D01*
X026853Y004786D02*
X025609Y004786D01*
X025609Y004935D02*
X026853Y004935D01*
X026853Y005083D02*
X025609Y005083D01*
X025609Y005232D02*
X026853Y005232D01*
X026853Y005380D02*
X025609Y005380D01*
X025609Y005529D02*
X026853Y005529D01*
X026853Y005678D02*
X025609Y005678D01*
X025609Y005826D02*
X026853Y005826D01*
X026853Y005975D02*
X025609Y005975D01*
X025609Y006123D02*
X026853Y006123D01*
X026853Y006272D02*
X025609Y006272D01*
X025609Y006420D02*
X038109Y006420D01*
X038109Y006272D02*
X038016Y006272D01*
X038033Y006123D02*
X038109Y006123D01*
X038109Y005975D02*
X038033Y005975D01*
X038033Y005826D02*
X038109Y005826D01*
X038109Y005678D02*
X038033Y005678D01*
X038109Y005529D02*
X037954Y005529D01*
X037709Y005529D02*
X037708Y005529D01*
X037708Y005678D02*
X037709Y005678D01*
X037708Y005826D02*
X037709Y005826D01*
X037708Y005975D02*
X037709Y005975D01*
X037708Y006123D02*
X037709Y006123D01*
X037708Y006272D02*
X037709Y006272D01*
X038109Y006569D02*
X025609Y006569D01*
X025609Y006717D02*
X038109Y006717D01*
X038109Y006866D02*
X025609Y006866D01*
X025609Y007014D02*
X038109Y007014D01*
X038109Y007163D02*
X034387Y007163D01*
X036109Y011181D02*
X039609Y007681D01*
X043609Y007681D01*
X045109Y006181D01*
X045109Y004181D01*
X047609Y001681D01*
X112609Y001681D01*
X116109Y005181D01*
X116109Y015681D01*
X117109Y015681D02*
X117109Y007181D01*
X124109Y007163D02*
X126109Y007163D01*
X126109Y007181D02*
X126109Y002681D01*
X124109Y002681D01*
X124109Y009431D01*
X129724Y009431D01*
X129724Y009258D01*
X129724Y008740D01*
X129709Y008725D01*
X129709Y007638D01*
X129734Y007613D01*
X129734Y007181D01*
X126109Y007181D01*
X126109Y007014D02*
X124109Y007014D01*
X124109Y006866D02*
X126109Y006866D01*
X126109Y006717D02*
X124109Y006717D01*
X124109Y006569D02*
X126109Y006569D01*
X126109Y006420D02*
X124109Y006420D01*
X124109Y006272D02*
X126109Y006272D01*
X126109Y006123D02*
X124109Y006123D01*
X124109Y005975D02*
X126109Y005975D01*
X126109Y005826D02*
X124109Y005826D01*
X124109Y005678D02*
X126109Y005678D01*
X126109Y005529D02*
X124109Y005529D01*
X124109Y005380D02*
X126109Y005380D01*
X126109Y005232D02*
X124109Y005232D01*
X124109Y005083D02*
X126109Y005083D01*
X126109Y004935D02*
X124109Y004935D01*
X124109Y004786D02*
X126109Y004786D01*
X126109Y004638D02*
X124109Y004638D01*
X124109Y004489D02*
X126109Y004489D01*
X126109Y004341D02*
X124109Y004341D01*
X124109Y004192D02*
X126109Y004192D01*
X126109Y004044D02*
X124109Y004044D01*
X124109Y003895D02*
X126109Y003895D01*
X126109Y003746D02*
X124109Y003746D01*
X124109Y003598D02*
X126109Y003598D01*
X126109Y003449D02*
X124109Y003449D01*
X124109Y003301D02*
X126109Y003301D01*
X126109Y003152D02*
X124109Y003152D01*
X124109Y003004D02*
X126109Y003004D01*
X126109Y002855D02*
X124109Y002855D01*
X124109Y002707D02*
X126109Y002707D01*
X126609Y002707D02*
X127353Y002707D01*
X127353Y002587D02*
X127455Y002485D01*
X127847Y002485D01*
X127847Y004199D01*
X127996Y004199D01*
X127996Y002485D01*
X128388Y002485D01*
X128459Y002556D01*
X130534Y002556D01*
X130534Y004406D01*
X130683Y004406D01*
X130683Y002556D01*
X132758Y002556D01*
X132829Y002485D01*
X133221Y002485D01*
X133221Y004199D01*
X133370Y004199D01*
X133370Y002485D01*
X133762Y002485D01*
X133864Y002587D01*
X133864Y004199D01*
X133371Y004199D01*
X133371Y004349D01*
X133864Y004349D01*
X133864Y005961D01*
X133762Y006063D01*
X133370Y006063D01*
X133370Y004349D01*
X133221Y004349D01*
X133221Y006063D01*
X132883Y006063D01*
X132883Y006304D01*
X132781Y006406D01*
X130683Y006406D01*
X130683Y004557D01*
X130534Y004557D01*
X130534Y006406D01*
X128436Y006406D01*
X128334Y006304D01*
X128334Y006063D01*
X127996Y006063D01*
X127996Y004349D01*
X127847Y004349D01*
X127847Y006063D01*
X127455Y006063D01*
X127353Y005961D01*
X127353Y004349D01*
X127846Y004349D01*
X127846Y004199D01*
X127353Y004199D01*
X127353Y002587D01*
X127382Y002558D02*
X126609Y002558D01*
X126609Y002410D02*
X137609Y002410D01*
X137609Y002558D02*
X133835Y002558D01*
X133864Y002707D02*
X137609Y002707D01*
X137609Y002855D02*
X133864Y002855D01*
X133864Y003004D02*
X137609Y003004D01*
X137609Y003152D02*
X133864Y003152D01*
X133864Y003301D02*
X137609Y003301D01*
X137609Y003449D02*
X133864Y003449D01*
X133864Y003598D02*
X137609Y003598D01*
X137609Y003746D02*
X133864Y003746D01*
X133864Y003895D02*
X137609Y003895D01*
X137609Y004044D02*
X133864Y004044D01*
X133864Y004192D02*
X137609Y004192D01*
X137609Y004341D02*
X133371Y004341D01*
X133370Y004489D02*
X133221Y004489D01*
X133221Y004638D02*
X133370Y004638D01*
X133370Y004786D02*
X133221Y004786D01*
X133221Y004935D02*
X133370Y004935D01*
X133370Y005083D02*
X133221Y005083D01*
X133221Y005232D02*
X133370Y005232D01*
X133370Y005380D02*
X133221Y005380D01*
X133221Y005529D02*
X133370Y005529D01*
X133370Y005678D02*
X133221Y005678D01*
X133221Y005826D02*
X133370Y005826D01*
X133370Y005975D02*
X133221Y005975D01*
X132883Y006123D02*
X137609Y006123D01*
X137609Y006256D02*
X137609Y001181D01*
X126609Y001181D01*
X126609Y006681D01*
X133609Y006681D01*
X133609Y009181D01*
X137609Y009181D01*
X137609Y007106D01*
X137459Y007106D01*
X137459Y006682D01*
X137458Y006682D01*
X137458Y007106D01*
X137236Y007106D01*
X137134Y007004D01*
X137134Y006682D01*
X137458Y006682D01*
X137458Y006681D01*
X137134Y006681D01*
X137134Y006359D01*
X137236Y006256D01*
X137458Y006256D01*
X137458Y006681D01*
X137459Y006681D01*
X137459Y006256D01*
X137609Y006256D01*
X137459Y006272D02*
X137458Y006272D01*
X137458Y006420D02*
X137459Y006420D01*
X137458Y006569D02*
X137459Y006569D01*
X137458Y006717D02*
X137459Y006717D01*
X137458Y006866D02*
X137459Y006866D01*
X137458Y007014D02*
X137459Y007014D01*
X137609Y007163D02*
X133609Y007163D01*
X133609Y007311D02*
X137609Y007311D01*
X137609Y007460D02*
X136721Y007460D01*
X136673Y007412D02*
X136776Y007514D01*
X136776Y007886D01*
X136184Y007886D01*
X136184Y008036D01*
X136776Y008036D01*
X136776Y008407D01*
X136673Y008510D01*
X136183Y008510D01*
X136183Y008036D01*
X136034Y008036D01*
X136034Y008510D01*
X135544Y008510D01*
X135441Y008407D01*
X135441Y008036D01*
X136033Y008036D01*
X136033Y007886D01*
X135441Y007886D01*
X135441Y007514D01*
X135544Y007412D01*
X136034Y007412D01*
X136034Y007886D01*
X136183Y007886D01*
X136183Y007412D01*
X136673Y007412D01*
X136776Y007609D02*
X137609Y007609D01*
X137609Y007757D02*
X136776Y007757D01*
X136776Y008054D02*
X137609Y008054D01*
X137609Y007906D02*
X136184Y007906D01*
X136183Y008054D02*
X136034Y008054D01*
X136033Y007906D02*
X133609Y007906D01*
X133609Y008054D02*
X135441Y008054D01*
X135441Y008203D02*
X133609Y008203D01*
X133609Y008351D02*
X135441Y008351D01*
X135534Y008500D02*
X134474Y008500D01*
X134431Y008456D02*
X134533Y008559D01*
X134533Y008781D01*
X134109Y008781D01*
X134109Y008782D01*
X134108Y008782D01*
X134108Y009106D01*
X133786Y009106D01*
X133684Y009004D01*
X133684Y008782D01*
X134108Y008782D01*
X134108Y008781D01*
X133684Y008781D01*
X133684Y008559D01*
X133786Y008456D01*
X134108Y008456D01*
X134108Y008781D01*
X134109Y008781D01*
X134109Y008456D01*
X134431Y008456D01*
X134533Y008648D02*
X137609Y008648D01*
X137609Y008500D02*
X136683Y008500D01*
X136776Y008351D02*
X137609Y008351D01*
X137609Y008203D02*
X136776Y008203D01*
X136183Y008203D02*
X136034Y008203D01*
X136034Y008351D02*
X136183Y008351D01*
X136183Y008500D02*
X136034Y008500D01*
X134533Y008782D02*
X134533Y009004D01*
X134431Y009106D01*
X134109Y009106D01*
X134109Y008782D01*
X134533Y008782D01*
X134533Y008797D02*
X137609Y008797D01*
X137609Y008945D02*
X134533Y008945D01*
X134443Y009094D02*
X137609Y009094D01*
X134109Y009094D02*
X134108Y009094D01*
X134108Y008945D02*
X134109Y008945D01*
X134108Y008797D02*
X134109Y008797D01*
X134108Y008648D02*
X134109Y008648D01*
X134108Y008500D02*
X134109Y008500D01*
X133743Y008500D02*
X133609Y008500D01*
X133609Y008648D02*
X133684Y008648D01*
X133684Y008797D02*
X133609Y008797D01*
X133609Y008945D02*
X133684Y008945D01*
X133609Y009094D02*
X133774Y009094D01*
X129724Y009094D02*
X124109Y009094D01*
X124109Y009243D02*
X129724Y009243D01*
X129724Y009391D02*
X124109Y009391D01*
X124109Y008945D02*
X129724Y008945D01*
X129724Y008797D02*
X129436Y008797D01*
X129377Y008856D02*
X128840Y008856D01*
X128709Y008725D01*
X128709Y007638D01*
X128840Y007506D01*
X129377Y007506D01*
X129508Y007638D01*
X129508Y008725D01*
X129377Y008856D01*
X129508Y008648D02*
X129709Y008648D01*
X129709Y008500D02*
X129508Y008500D01*
X129508Y008351D02*
X129709Y008351D01*
X129709Y008203D02*
X129508Y008203D01*
X129508Y008054D02*
X129709Y008054D01*
X129709Y007906D02*
X129508Y007906D01*
X129508Y007757D02*
X129709Y007757D01*
X129734Y007609D02*
X129479Y007609D01*
X129734Y007460D02*
X124109Y007460D01*
X124109Y007311D02*
X129734Y007311D01*
X128738Y007609D02*
X124109Y007609D01*
X124109Y007757D02*
X128709Y007757D01*
X128709Y007906D02*
X124109Y007906D01*
X124109Y008054D02*
X128709Y008054D01*
X128709Y008203D02*
X124109Y008203D01*
X124109Y008351D02*
X128709Y008351D01*
X128709Y008500D02*
X124109Y008500D01*
X124109Y008648D02*
X128709Y008648D01*
X128781Y008797D02*
X124109Y008797D01*
X133609Y007757D02*
X135441Y007757D01*
X135441Y007609D02*
X133609Y007609D01*
X133609Y007460D02*
X135496Y007460D01*
X136034Y007460D02*
X136183Y007460D01*
X136183Y007609D02*
X136034Y007609D01*
X136034Y007757D02*
X136183Y007757D01*
X137144Y007014D02*
X133609Y007014D01*
X133609Y006866D02*
X137134Y006866D01*
X137134Y006717D02*
X133609Y006717D01*
X132883Y006272D02*
X137221Y006272D01*
X137134Y006420D02*
X126609Y006420D01*
X126609Y006272D02*
X128334Y006272D01*
X128334Y006123D02*
X126609Y006123D01*
X126609Y005975D02*
X127367Y005975D01*
X127353Y005826D02*
X126609Y005826D01*
X126609Y005678D02*
X127353Y005678D01*
X127353Y005529D02*
X126609Y005529D01*
X126609Y005380D02*
X127353Y005380D01*
X127353Y005232D02*
X126609Y005232D01*
X126609Y005083D02*
X127353Y005083D01*
X127353Y004935D02*
X126609Y004935D01*
X126609Y004786D02*
X127353Y004786D01*
X127353Y004638D02*
X126609Y004638D01*
X126609Y004489D02*
X127353Y004489D01*
X127353Y004192D02*
X126609Y004192D01*
X126609Y004044D02*
X127353Y004044D01*
X127353Y003895D02*
X126609Y003895D01*
X126609Y003746D02*
X127353Y003746D01*
X127353Y003598D02*
X126609Y003598D01*
X126609Y003449D02*
X127353Y003449D01*
X127353Y003301D02*
X126609Y003301D01*
X126609Y003152D02*
X127353Y003152D01*
X127353Y003004D02*
X126609Y003004D01*
X126609Y002855D02*
X127353Y002855D01*
X127847Y002855D02*
X127996Y002855D01*
X127996Y002707D02*
X127847Y002707D01*
X127847Y002558D02*
X127996Y002558D01*
X127996Y003004D02*
X127847Y003004D01*
X127847Y003152D02*
X127996Y003152D01*
X127996Y003301D02*
X127847Y003301D01*
X127847Y003449D02*
X127996Y003449D01*
X127996Y003598D02*
X127847Y003598D01*
X127847Y003746D02*
X127996Y003746D01*
X127996Y003895D02*
X127847Y003895D01*
X127847Y004044D02*
X127996Y004044D01*
X127996Y004192D02*
X127847Y004192D01*
X127846Y004341D02*
X126609Y004341D01*
X127847Y004489D02*
X127996Y004489D01*
X127996Y004638D02*
X127847Y004638D01*
X127847Y004786D02*
X127996Y004786D01*
X127996Y004935D02*
X127847Y004935D01*
X127847Y005083D02*
X127996Y005083D01*
X127996Y005232D02*
X127847Y005232D01*
X127847Y005380D02*
X127996Y005380D01*
X127996Y005529D02*
X127847Y005529D01*
X127847Y005678D02*
X127996Y005678D01*
X127996Y005826D02*
X127847Y005826D01*
X127847Y005975D02*
X127996Y005975D01*
X126609Y006569D02*
X137134Y006569D01*
X137609Y005975D02*
X133850Y005975D01*
X133864Y005826D02*
X137609Y005826D01*
X137609Y005678D02*
X133864Y005678D01*
X133864Y005529D02*
X137609Y005529D01*
X137609Y005380D02*
X133864Y005380D01*
X133864Y005232D02*
X137609Y005232D01*
X137609Y005083D02*
X133864Y005083D01*
X133864Y004935D02*
X137609Y004935D01*
X137609Y004786D02*
X133864Y004786D01*
X133864Y004638D02*
X137609Y004638D01*
X137609Y004489D02*
X133864Y004489D01*
X133370Y004192D02*
X133221Y004192D01*
X133221Y004044D02*
X133370Y004044D01*
X133370Y003895D02*
X133221Y003895D01*
X133221Y003746D02*
X133370Y003746D01*
X133370Y003598D02*
X133221Y003598D01*
X133221Y003449D02*
X133370Y003449D01*
X133370Y003301D02*
X133221Y003301D01*
X133221Y003152D02*
X133370Y003152D01*
X133370Y003004D02*
X133221Y003004D01*
X133221Y002855D02*
X133370Y002855D01*
X133370Y002707D02*
X133221Y002707D01*
X133221Y002558D02*
X133370Y002558D01*
X130683Y002558D02*
X130534Y002558D01*
X130534Y002707D02*
X130683Y002707D01*
X130683Y002855D02*
X130534Y002855D01*
X130534Y003004D02*
X130683Y003004D01*
X130683Y003152D02*
X130534Y003152D01*
X130534Y003301D02*
X130683Y003301D01*
X130683Y003449D02*
X130534Y003449D01*
X130534Y003598D02*
X130683Y003598D01*
X130683Y003746D02*
X130534Y003746D01*
X130534Y003895D02*
X130683Y003895D01*
X130683Y004044D02*
X130534Y004044D01*
X130534Y004192D02*
X130683Y004192D01*
X130683Y004341D02*
X130534Y004341D01*
X130533Y004406D02*
X128490Y004406D01*
X128490Y004556D01*
X130533Y004556D01*
X130533Y004406D01*
X130533Y004489D02*
X128490Y004489D01*
X130534Y004638D02*
X130683Y004638D01*
X130684Y004556D02*
X132727Y004556D01*
X132727Y004406D01*
X130684Y004406D01*
X130684Y004556D01*
X130684Y004489D02*
X132727Y004489D01*
X130683Y004786D02*
X130534Y004786D01*
X130534Y004935D02*
X130683Y004935D01*
X130683Y005083D02*
X130534Y005083D01*
X130534Y005232D02*
X130683Y005232D01*
X130683Y005380D02*
X130534Y005380D01*
X130534Y005529D02*
X130683Y005529D01*
X130683Y005678D02*
X130534Y005678D01*
X130534Y005826D02*
X130683Y005826D01*
X130683Y005975D02*
X130534Y005975D01*
X130534Y006123D02*
X130683Y006123D01*
X130683Y006272D02*
X130534Y006272D01*
X145609Y008681D02*
X145609Y014681D01*
X150234Y014681D01*
X150234Y015681D01*
X151734Y015681D01*
X151734Y014750D01*
X151709Y014725D01*
X151709Y013681D01*
X151609Y013681D01*
X151609Y012681D01*
X148109Y012681D01*
X148109Y008681D01*
X145609Y008681D01*
X145609Y008797D02*
X148109Y008797D01*
X148109Y008945D02*
X145609Y008945D01*
X145609Y009094D02*
X148109Y009094D01*
X148109Y009243D02*
X145609Y009243D01*
X145609Y009391D02*
X148109Y009391D01*
X148109Y009540D02*
X145609Y009540D01*
X145609Y009688D02*
X148109Y009688D01*
X148109Y009837D02*
X145609Y009837D01*
X145609Y009985D02*
X148109Y009985D01*
X148109Y010134D02*
X145609Y010134D01*
X145609Y010282D02*
X148109Y010282D01*
X148109Y010431D02*
X145609Y010431D01*
X145609Y010579D02*
X148109Y010579D01*
X148109Y010728D02*
X145609Y010728D01*
X145609Y010877D02*
X148109Y010877D01*
X148109Y011025D02*
X145609Y011025D01*
X145609Y011174D02*
X148109Y011174D01*
X148109Y011322D02*
X145609Y011322D01*
X145609Y011471D02*
X148109Y011471D01*
X148109Y011619D02*
X145609Y011619D01*
X145609Y011768D02*
X148109Y011768D01*
X148109Y011916D02*
X145609Y011916D01*
X145609Y012065D02*
X148109Y012065D01*
X148109Y012213D02*
X145609Y012213D01*
X145609Y012362D02*
X148109Y012362D01*
X148109Y012511D02*
X145609Y012511D01*
X145609Y012659D02*
X148109Y012659D01*
X148609Y012181D02*
X150834Y012181D01*
X150834Y011878D01*
X150496Y011878D01*
X150496Y010164D01*
X150347Y010164D01*
X150347Y011878D01*
X149955Y011878D01*
X149853Y011776D01*
X149853Y010164D01*
X150346Y010164D01*
X150346Y010014D01*
X149853Y010014D01*
X149853Y008402D01*
X149955Y008300D01*
X150347Y008300D01*
X150347Y010014D01*
X150496Y010014D01*
X150496Y008300D01*
X150888Y008300D01*
X150990Y008402D01*
X150990Y008556D01*
X153034Y008556D01*
X153034Y010406D01*
X153183Y010406D01*
X153183Y008556D01*
X155227Y008556D01*
X155227Y008402D01*
X155329Y008300D01*
X155721Y008300D01*
X155721Y010014D01*
X155870Y010014D01*
X155870Y008300D01*
X156262Y008300D01*
X156364Y008402D01*
X156364Y010014D01*
X155871Y010014D01*
X155871Y010164D01*
X156364Y010164D01*
X156364Y011776D01*
X156262Y011878D01*
X155870Y011878D01*
X155870Y010164D01*
X155721Y010164D01*
X155721Y011878D01*
X155383Y011878D01*
X155383Y012304D01*
X155281Y012406D01*
X153183Y012406D01*
X153183Y010557D01*
X153034Y010557D01*
X153034Y012406D01*
X152984Y012406D01*
X152984Y013556D01*
X153096Y013556D01*
X153096Y014169D01*
X153121Y014169D01*
X153121Y014194D01*
X153096Y014194D01*
X153096Y014806D01*
X152993Y014806D01*
X152993Y014806D01*
X153724Y014806D01*
X153621Y014806D01*
X153621Y014194D01*
X153596Y014194D01*
X153596Y014806D01*
X153361Y014806D01*
X153359Y014804D01*
X153356Y014806D01*
X153121Y014806D01*
X153121Y014194D01*
X153458Y014194D01*
X153596Y014194D01*
X153596Y014169D01*
X153458Y014169D01*
X153121Y014169D01*
X153121Y013556D01*
X153356Y013556D01*
X153359Y013559D01*
X153361Y013556D01*
X153596Y013556D01*
X153596Y014169D01*
X153621Y014169D01*
X153621Y013556D01*
X153790Y013556D01*
X153840Y013506D01*
X154377Y013506D01*
X154427Y013556D01*
X154596Y013556D01*
X154596Y014169D01*
X154621Y014169D01*
X154621Y014194D01*
X154596Y014194D01*
X154596Y014806D01*
X154493Y014806D01*
X154493Y014806D01*
X156609Y014806D01*
X156609Y008181D01*
X151109Y008181D01*
X151109Y004181D01*
X148609Y004181D01*
X148609Y012181D01*
X148609Y012065D02*
X150834Y012065D01*
X150834Y011916D02*
X148609Y011916D01*
X148609Y011768D02*
X149853Y011768D01*
X149853Y011619D02*
X148609Y011619D01*
X148609Y011471D02*
X149853Y011471D01*
X149853Y011322D02*
X148609Y011322D01*
X148609Y011174D02*
X149853Y011174D01*
X149853Y011025D02*
X148609Y011025D01*
X148609Y010877D02*
X149853Y010877D01*
X149853Y010728D02*
X148609Y010728D01*
X148609Y010579D02*
X149853Y010579D01*
X149853Y010431D02*
X148609Y010431D01*
X148609Y010282D02*
X149853Y010282D01*
X149853Y009985D02*
X148609Y009985D01*
X148609Y009837D02*
X149853Y009837D01*
X149853Y009688D02*
X148609Y009688D01*
X148609Y009540D02*
X149853Y009540D01*
X149853Y009391D02*
X148609Y009391D01*
X148609Y009243D02*
X149853Y009243D01*
X149853Y009094D02*
X148609Y009094D01*
X148609Y008945D02*
X149853Y008945D01*
X149853Y008797D02*
X148609Y008797D01*
X148609Y008648D02*
X149853Y008648D01*
X149853Y008500D02*
X148609Y008500D01*
X148609Y008351D02*
X149904Y008351D01*
X150347Y008351D02*
X150496Y008351D01*
X150496Y008500D02*
X150347Y008500D01*
X150347Y008648D02*
X150496Y008648D01*
X150496Y008797D02*
X150347Y008797D01*
X150347Y008945D02*
X150496Y008945D01*
X150496Y009094D02*
X150347Y009094D01*
X150347Y009243D02*
X150496Y009243D01*
X150496Y009391D02*
X150347Y009391D01*
X150347Y009540D02*
X150496Y009540D01*
X150496Y009688D02*
X150347Y009688D01*
X150347Y009837D02*
X150496Y009837D01*
X150496Y009985D02*
X150347Y009985D01*
X150346Y010134D02*
X148609Y010134D01*
X150347Y010282D02*
X150496Y010282D01*
X150496Y010431D02*
X150347Y010431D01*
X150347Y010579D02*
X150496Y010579D01*
X150496Y010728D02*
X150347Y010728D01*
X150347Y010877D02*
X150496Y010877D01*
X150496Y011025D02*
X150347Y011025D01*
X150347Y011174D02*
X150496Y011174D01*
X150496Y011322D02*
X150347Y011322D01*
X150347Y011471D02*
X150496Y011471D01*
X150496Y011619D02*
X150347Y011619D01*
X150347Y011768D02*
X150496Y011768D01*
X153034Y011768D02*
X153183Y011768D01*
X153183Y011916D02*
X153034Y011916D01*
X153034Y012065D02*
X153183Y012065D01*
X153183Y012213D02*
X153034Y012213D01*
X153034Y012362D02*
X153183Y012362D01*
X152984Y012511D02*
X156609Y012511D01*
X156609Y012659D02*
X152984Y012659D01*
X152984Y012808D02*
X156609Y012808D01*
X156609Y012956D02*
X152984Y012956D01*
X152984Y013105D02*
X156609Y013105D01*
X156609Y013253D02*
X152984Y013253D01*
X152984Y013402D02*
X156609Y013402D01*
X156609Y013550D02*
X154421Y013550D01*
X154621Y013556D02*
X154856Y013556D01*
X154958Y013659D01*
X154958Y014169D01*
X154621Y014169D01*
X154621Y013556D01*
X154621Y013699D02*
X154596Y013699D01*
X154596Y013847D02*
X154621Y013847D01*
X154621Y013996D02*
X154596Y013996D01*
X154596Y014144D02*
X154621Y014144D01*
X154621Y014194D02*
X154958Y014194D01*
X154958Y014704D01*
X154856Y014806D01*
X154621Y014806D01*
X154621Y014194D01*
X154621Y014293D02*
X154596Y014293D01*
X154596Y014442D02*
X154621Y014442D01*
X154621Y014590D02*
X154596Y014590D01*
X154596Y014739D02*
X154621Y014739D01*
X154924Y014739D02*
X156609Y014739D01*
X156609Y014590D02*
X154958Y014590D01*
X154958Y014442D02*
X156609Y014442D01*
X156609Y014293D02*
X154958Y014293D01*
X154958Y014144D02*
X156609Y014144D01*
X156609Y013996D02*
X154958Y013996D01*
X154958Y013847D02*
X156609Y013847D01*
X156609Y013699D02*
X154958Y013699D01*
X153796Y013550D02*
X152984Y013550D01*
X153096Y013699D02*
X153121Y013699D01*
X153121Y013847D02*
X153096Y013847D01*
X153096Y013996D02*
X153121Y013996D01*
X153121Y014144D02*
X153096Y014144D01*
X153096Y014293D02*
X153121Y014293D01*
X153121Y014442D02*
X153096Y014442D01*
X153096Y014590D02*
X153121Y014590D01*
X153121Y014739D02*
X153096Y014739D01*
X153596Y014739D02*
X153621Y014739D01*
X153724Y014806D02*
X153724Y014806D01*
X153621Y014590D02*
X153596Y014590D01*
X153596Y014442D02*
X153621Y014442D01*
X153621Y014293D02*
X153596Y014293D01*
X153596Y014144D02*
X153621Y014144D01*
X153621Y013996D02*
X153596Y013996D01*
X153596Y013847D02*
X153621Y013847D01*
X153621Y013699D02*
X153596Y013699D01*
X151709Y013699D02*
X145609Y013699D01*
X145609Y013847D02*
X151709Y013847D01*
X151709Y013996D02*
X145609Y013996D01*
X145609Y014144D02*
X151709Y014144D01*
X151709Y014293D02*
X145609Y014293D01*
X145609Y014442D02*
X151709Y014442D01*
X151709Y014590D02*
X145609Y014590D01*
X150234Y014739D02*
X151723Y014739D01*
X151734Y014887D02*
X150234Y014887D01*
X150234Y015036D02*
X151734Y015036D01*
X151734Y015184D02*
X150234Y015184D01*
X150234Y015333D02*
X151734Y015333D01*
X151734Y015481D02*
X150234Y015481D01*
X150234Y015630D02*
X151734Y015630D01*
X154109Y015281D02*
X155209Y015281D01*
X155609Y015681D01*
X155609Y017181D01*
X155109Y017681D01*
X145609Y017681D01*
X144609Y016681D01*
X139859Y018181D02*
X130383Y018181D01*
X130383Y018300D01*
X130721Y018300D01*
X130721Y020014D01*
X130870Y020014D01*
X130870Y018300D01*
X131262Y018300D01*
X131364Y018402D01*
X131364Y020014D01*
X130871Y020014D01*
X130871Y020164D01*
X131364Y020164D01*
X131364Y021776D01*
X131262Y021878D01*
X130870Y021878D01*
X130870Y020164D01*
X130721Y020164D01*
X130721Y021878D01*
X130329Y021878D01*
X130258Y021806D01*
X128183Y021806D01*
X128183Y019957D01*
X128034Y019957D01*
X128034Y021806D01*
X125959Y021806D01*
X125888Y021878D01*
X125496Y021878D01*
X125496Y020164D01*
X125347Y020164D01*
X125347Y021878D01*
X124955Y021878D01*
X124853Y021776D01*
X124853Y020164D01*
X125346Y020164D01*
X125346Y020014D01*
X124853Y020014D01*
X124853Y018402D01*
X124955Y018300D01*
X125347Y018300D01*
X125347Y020014D01*
X125496Y020014D01*
X125496Y018300D01*
X125834Y018300D01*
X125834Y018181D01*
X122609Y018181D01*
X122609Y022681D01*
X134109Y022681D01*
X134109Y020681D01*
X139859Y020681D01*
X139859Y018181D01*
X139859Y018304D02*
X131266Y018304D01*
X131364Y018452D02*
X139859Y018452D01*
X139859Y018601D02*
X131364Y018601D01*
X131364Y018749D02*
X139859Y018749D01*
X139859Y018898D02*
X131364Y018898D01*
X131364Y019046D02*
X139859Y019046D01*
X139859Y019195D02*
X131364Y019195D01*
X131364Y019344D02*
X139859Y019344D01*
X139859Y019492D02*
X136753Y019492D01*
X136776Y019514D02*
X136673Y019412D01*
X136183Y019412D01*
X136183Y019886D01*
X136034Y019886D01*
X136034Y019412D01*
X135544Y019412D01*
X135441Y019514D01*
X135441Y019886D01*
X136033Y019886D01*
X136033Y020036D01*
X135441Y020036D01*
X135441Y020407D01*
X135544Y020510D01*
X136034Y020510D01*
X136034Y020036D01*
X136183Y020036D01*
X136183Y020510D01*
X136673Y020510D01*
X136776Y020407D01*
X136776Y020036D01*
X136184Y020036D01*
X136184Y019886D01*
X136776Y019886D01*
X136776Y019514D01*
X136776Y019641D02*
X139859Y019641D01*
X139859Y019789D02*
X136776Y019789D01*
X136776Y020086D02*
X137684Y020086D01*
X137684Y020059D02*
X137786Y019956D01*
X138108Y019956D01*
X138108Y020281D01*
X137684Y020281D01*
X137684Y020059D01*
X137684Y020235D02*
X136776Y020235D01*
X136776Y020383D02*
X137684Y020383D01*
X137684Y020282D02*
X138108Y020282D01*
X138108Y020606D01*
X137786Y020606D01*
X137684Y020504D01*
X137684Y020282D01*
X137711Y020532D02*
X131364Y020532D01*
X131364Y020680D02*
X139859Y020680D01*
X139859Y020532D02*
X139756Y020532D01*
X139783Y020504D02*
X139681Y020606D01*
X139359Y020606D01*
X139359Y020282D01*
X139358Y020282D01*
X139358Y020606D01*
X139036Y020606D01*
X138934Y020504D01*
X138934Y020282D01*
X139358Y020282D01*
X139358Y020281D01*
X138934Y020281D01*
X138934Y020059D01*
X139036Y019956D01*
X139358Y019956D01*
X139358Y020281D01*
X139359Y020281D01*
X139359Y020282D01*
X139783Y020282D01*
X139783Y020504D01*
X139783Y020383D02*
X139859Y020383D01*
X139783Y020281D02*
X139359Y020281D01*
X139359Y019956D01*
X139681Y019956D01*
X139783Y020059D01*
X139783Y020281D01*
X139783Y020235D02*
X139859Y020235D01*
X139859Y020086D02*
X139783Y020086D01*
X139859Y019938D02*
X136184Y019938D01*
X136183Y020086D02*
X136034Y020086D01*
X136033Y019938D02*
X131364Y019938D01*
X131364Y019789D02*
X135441Y019789D01*
X135441Y019641D02*
X131364Y019641D01*
X131364Y019492D02*
X135464Y019492D01*
X136034Y019492D02*
X136183Y019492D01*
X136183Y019641D02*
X136034Y019641D01*
X136034Y019789D02*
X136183Y019789D01*
X136183Y020235D02*
X136034Y020235D01*
X136034Y020383D02*
X136183Y020383D01*
X135441Y020383D02*
X131364Y020383D01*
X131364Y020235D02*
X135441Y020235D01*
X135441Y020086D02*
X130871Y020086D01*
X130870Y019938D02*
X130721Y019938D01*
X130721Y019789D02*
X130870Y019789D01*
X130870Y019641D02*
X130721Y019641D01*
X130721Y019492D02*
X130870Y019492D01*
X130870Y019344D02*
X130721Y019344D01*
X130721Y019195D02*
X130870Y019195D01*
X130870Y019046D02*
X130721Y019046D01*
X130721Y018898D02*
X130870Y018898D01*
X130870Y018749D02*
X130721Y018749D01*
X130721Y018601D02*
X130870Y018601D01*
X130870Y018452D02*
X130721Y018452D01*
X130721Y018304D02*
X130870Y018304D01*
X128984Y017681D02*
X133609Y017681D01*
X133609Y013681D01*
X128609Y013681D01*
X128609Y014681D01*
X128984Y014681D01*
X128984Y015081D01*
X128993Y015105D01*
X128993Y015258D01*
X128993Y015623D01*
X129008Y015638D01*
X129008Y016725D01*
X128984Y016750D01*
X128984Y017681D01*
X128984Y017561D02*
X133609Y017561D01*
X133609Y017412D02*
X128984Y017412D01*
X128984Y017264D02*
X133609Y017264D01*
X133609Y017115D02*
X128984Y017115D01*
X128984Y016967D02*
X133609Y016967D01*
X133609Y016818D02*
X129915Y016818D01*
X129877Y016856D02*
X129340Y016856D01*
X129209Y016725D01*
X129209Y015638D01*
X129340Y015506D01*
X129877Y015506D01*
X130008Y015638D01*
X130008Y016725D01*
X129877Y016856D01*
X130008Y016670D02*
X133609Y016670D01*
X133609Y016521D02*
X130008Y016521D01*
X130008Y016373D02*
X133609Y016373D01*
X133609Y016224D02*
X130008Y016224D01*
X130008Y016076D02*
X133609Y016076D01*
X133609Y015927D02*
X130008Y015927D01*
X130008Y015778D02*
X133609Y015778D01*
X133609Y015630D02*
X130000Y015630D01*
X129217Y015630D02*
X129000Y015630D01*
X129008Y015778D02*
X129209Y015778D01*
X129209Y015927D02*
X129008Y015927D01*
X129008Y016076D02*
X129209Y016076D01*
X129209Y016224D02*
X129008Y016224D01*
X129008Y016373D02*
X129209Y016373D01*
X129209Y016521D02*
X129008Y016521D01*
X129008Y016670D02*
X129209Y016670D01*
X129302Y016818D02*
X128984Y016818D01*
X127609Y017181D02*
X127609Y016181D01*
X127609Y017181D02*
X127109Y017681D01*
X121609Y017681D01*
X121109Y018181D01*
X121109Y020681D01*
X120109Y021681D01*
X117109Y021681D01*
X116109Y021681D02*
X113109Y021681D01*
X112609Y021181D01*
X112609Y019681D01*
X111609Y018681D01*
X045609Y018681D01*
X039609Y012681D01*
X035109Y012681D01*
X034109Y013681D01*
X031609Y013681D01*
X031109Y014181D01*
X031109Y016181D01*
X030709Y016581D01*
X030109Y016581D01*
X029509Y016681D02*
X029509Y018081D01*
X029609Y018181D01*
X031508Y018155D02*
X031709Y018155D01*
X031709Y018007D02*
X031508Y018007D01*
X031508Y017858D02*
X031709Y017858D01*
X031709Y017710D02*
X031508Y017710D01*
X031508Y017638D02*
X031508Y018725D01*
X031484Y018750D01*
X031484Y019306D01*
X036109Y019306D01*
X036109Y014681D01*
X032609Y014681D01*
X032609Y017181D01*
X031484Y017181D01*
X031484Y017613D01*
X031508Y017638D01*
X031484Y017561D02*
X031786Y017561D01*
X031840Y017506D02*
X032377Y017506D01*
X032508Y017638D01*
X032508Y018725D01*
X032377Y018856D01*
X031840Y018856D01*
X031709Y018725D01*
X031709Y017638D01*
X031840Y017506D01*
X031484Y017412D02*
X036109Y017412D01*
X036109Y017264D02*
X031484Y017264D01*
X032431Y017561D02*
X036109Y017561D01*
X036109Y017710D02*
X032508Y017710D01*
X032508Y017858D02*
X036109Y017858D01*
X036109Y018007D02*
X032508Y018007D01*
X032508Y018155D02*
X036109Y018155D01*
X036109Y018304D02*
X032508Y018304D01*
X032508Y018452D02*
X036109Y018452D01*
X036109Y018601D02*
X032508Y018601D01*
X032484Y018749D02*
X036109Y018749D01*
X036109Y018898D02*
X031484Y018898D01*
X031484Y019046D02*
X036109Y019046D01*
X036109Y019195D02*
X031484Y019195D01*
X031484Y018749D02*
X031733Y018749D01*
X031709Y018601D02*
X031508Y018601D01*
X031508Y018452D02*
X031709Y018452D01*
X031709Y018304D02*
X031508Y018304D01*
X032609Y017115D02*
X036109Y017115D01*
X036109Y016967D02*
X032609Y016967D01*
X032609Y016818D02*
X036109Y016818D01*
X036109Y016670D02*
X032609Y016670D01*
X032609Y016521D02*
X036109Y016521D01*
X036109Y016373D02*
X032609Y016373D01*
X032609Y016224D02*
X036109Y016224D01*
X036109Y016076D02*
X032609Y016076D01*
X032609Y015927D02*
X036109Y015927D01*
X036109Y015778D02*
X032609Y015778D01*
X032609Y015630D02*
X036109Y015630D01*
X036109Y015481D02*
X032609Y015481D01*
X032609Y015333D02*
X036109Y015333D01*
X036109Y015184D02*
X032609Y015184D01*
X032609Y015036D02*
X036109Y015036D01*
X036109Y014887D02*
X032609Y014887D01*
X032609Y014739D02*
X036109Y014739D01*
X036609Y016181D02*
X036609Y019681D01*
X027609Y019681D01*
X027609Y020300D01*
X027847Y020300D01*
X027847Y022014D01*
X027996Y022014D01*
X027996Y020300D01*
X028334Y020300D01*
X028334Y020059D01*
X028436Y019956D01*
X030534Y019956D01*
X030534Y021806D01*
X030683Y021806D01*
X030683Y019956D01*
X032781Y019956D01*
X032883Y020059D01*
X032883Y020300D01*
X033221Y020300D01*
X033221Y022014D01*
X033370Y022014D01*
X033370Y020300D01*
X033762Y020300D01*
X033864Y020402D01*
X033864Y022014D01*
X033371Y022014D01*
X033371Y022164D01*
X033864Y022164D01*
X033864Y023776D01*
X033762Y023878D01*
X033370Y023878D01*
X033370Y022164D01*
X033221Y022164D01*
X033221Y023878D01*
X032829Y023878D01*
X032758Y023806D01*
X030683Y023806D01*
X030683Y021957D01*
X030534Y021957D01*
X030534Y023806D01*
X028459Y023806D01*
X028388Y023878D01*
X027996Y023878D01*
X027996Y022164D01*
X027847Y022164D01*
X027847Y023878D01*
X027609Y023878D01*
X027609Y025681D01*
X038109Y025681D01*
X038109Y021304D01*
X038056Y021356D01*
X037834Y021356D01*
X037834Y020932D01*
X037833Y020932D01*
X037833Y021356D01*
X037611Y021356D01*
X037509Y021254D01*
X037509Y020932D01*
X037833Y020932D01*
X037833Y020931D01*
X037509Y020931D01*
X037509Y020609D01*
X037611Y020506D01*
X037833Y020506D01*
X037833Y020931D01*
X037834Y020931D01*
X037834Y020506D01*
X038056Y020506D01*
X038109Y020559D01*
X038109Y016181D01*
X036609Y016181D01*
X036609Y016224D02*
X038109Y016224D01*
X038109Y016373D02*
X038033Y016373D01*
X038033Y016359D02*
X038033Y016681D01*
X037709Y016681D01*
X037709Y016682D01*
X037708Y016682D01*
X037708Y017106D01*
X037486Y017106D01*
X037384Y017004D01*
X037384Y016682D01*
X037708Y016682D01*
X037708Y016681D01*
X037384Y016681D01*
X037384Y016359D01*
X037486Y016256D01*
X037708Y016256D01*
X037708Y016681D01*
X037709Y016681D01*
X037709Y016256D01*
X037931Y016256D01*
X038033Y016359D01*
X038033Y016521D02*
X038109Y016521D01*
X038109Y016670D02*
X038033Y016670D01*
X038033Y016682D02*
X038033Y017004D01*
X037931Y017106D01*
X037709Y017106D01*
X037709Y016682D01*
X038033Y016682D01*
X038033Y016818D02*
X038109Y016818D01*
X038109Y016967D02*
X038033Y016967D01*
X038109Y017115D02*
X036609Y017115D01*
X036609Y016967D02*
X037384Y016967D01*
X037384Y016818D02*
X036609Y016818D01*
X036609Y016670D02*
X037384Y016670D01*
X037384Y016521D02*
X036609Y016521D01*
X036609Y016373D02*
X037384Y016373D01*
X037708Y016373D02*
X037709Y016373D01*
X037708Y016521D02*
X037709Y016521D01*
X037708Y016670D02*
X037709Y016670D01*
X037708Y016818D02*
X037709Y016818D01*
X037708Y016967D02*
X037709Y016967D01*
X038109Y017264D02*
X036609Y017264D01*
X036609Y017412D02*
X038109Y017412D01*
X038109Y017561D02*
X036609Y017561D01*
X036609Y017710D02*
X038109Y017710D01*
X038109Y017858D02*
X036609Y017858D01*
X036609Y018007D02*
X038109Y018007D01*
X038109Y018155D02*
X037937Y018155D01*
X037937Y018117D02*
X037937Y018606D01*
X037463Y018606D01*
X037463Y018014D01*
X037835Y018014D01*
X037937Y018117D01*
X037937Y018304D02*
X038109Y018304D01*
X038109Y018452D02*
X037937Y018452D01*
X037937Y018601D02*
X038109Y018601D01*
X038109Y018749D02*
X037463Y018749D01*
X037463Y018756D02*
X037937Y018756D01*
X037937Y019246D01*
X037835Y019349D01*
X037463Y019349D01*
X037463Y018757D01*
X037313Y018757D01*
X037313Y019349D01*
X036941Y019349D01*
X036839Y019246D01*
X036839Y018756D01*
X037313Y018756D01*
X037313Y018606D01*
X037463Y018606D01*
X037463Y018756D01*
X037463Y018898D02*
X037313Y018898D01*
X037313Y019046D02*
X037463Y019046D01*
X037463Y019195D02*
X037313Y019195D01*
X037313Y019344D02*
X037463Y019344D01*
X037840Y019344D02*
X038109Y019344D01*
X038109Y019492D02*
X036609Y019492D01*
X036609Y019344D02*
X036936Y019344D01*
X036839Y019195D02*
X036609Y019195D01*
X036609Y019046D02*
X036839Y019046D01*
X036839Y018898D02*
X036609Y018898D01*
X036609Y018749D02*
X037313Y018749D01*
X037313Y018606D02*
X036839Y018606D01*
X036839Y018117D01*
X036941Y018014D01*
X037313Y018014D01*
X037313Y018606D01*
X037313Y018601D02*
X037463Y018601D01*
X037463Y018452D02*
X037313Y018452D01*
X037313Y018304D02*
X037463Y018304D01*
X037463Y018155D02*
X037313Y018155D01*
X036839Y018155D02*
X036609Y018155D01*
X036609Y018304D02*
X036839Y018304D01*
X036839Y018452D02*
X036609Y018452D01*
X036609Y018601D02*
X036839Y018601D01*
X037937Y018898D02*
X038109Y018898D01*
X038109Y019046D02*
X037937Y019046D01*
X037937Y019195D02*
X038109Y019195D01*
X038109Y019641D02*
X036609Y019641D01*
X038109Y019789D02*
X027609Y019789D01*
X027609Y019938D02*
X038109Y019938D01*
X038109Y020086D02*
X032883Y020086D01*
X032883Y020235D02*
X038109Y020235D01*
X038109Y020383D02*
X033845Y020383D01*
X033864Y020532D02*
X037586Y020532D01*
X037509Y020680D02*
X033864Y020680D01*
X033864Y020829D02*
X037509Y020829D01*
X037509Y020977D02*
X033864Y020977D01*
X033864Y021126D02*
X037509Y021126D01*
X037529Y021275D02*
X033864Y021275D01*
X033864Y021423D02*
X038109Y021423D01*
X038109Y021572D02*
X033864Y021572D01*
X033864Y021720D02*
X038109Y021720D01*
X038109Y021869D02*
X033864Y021869D01*
X033864Y022166D02*
X038109Y022166D01*
X038109Y022314D02*
X033864Y022314D01*
X033864Y022463D02*
X038109Y022463D01*
X038109Y022611D02*
X033864Y022611D01*
X033864Y022760D02*
X038109Y022760D01*
X038109Y022909D02*
X033864Y022909D01*
X033864Y023057D02*
X038109Y023057D01*
X038109Y023206D02*
X033864Y023206D01*
X033864Y023354D02*
X038109Y023354D01*
X038109Y023503D02*
X033864Y023503D01*
X033864Y023651D02*
X038109Y023651D01*
X038109Y023800D02*
X033840Y023800D01*
X033370Y023800D02*
X033221Y023800D01*
X033221Y023651D02*
X033370Y023651D01*
X033370Y023503D02*
X033221Y023503D01*
X033221Y023354D02*
X033370Y023354D01*
X033370Y023206D02*
X033221Y023206D01*
X033221Y023057D02*
X033370Y023057D01*
X033370Y022909D02*
X033221Y022909D01*
X033221Y022760D02*
X033370Y022760D01*
X033370Y022611D02*
X033221Y022611D01*
X033221Y022463D02*
X033370Y022463D01*
X033370Y022314D02*
X033221Y022314D01*
X033221Y022166D02*
X033370Y022166D01*
X033371Y022017D02*
X038109Y022017D01*
X037833Y021275D02*
X037834Y021275D01*
X037833Y021126D02*
X037834Y021126D01*
X037833Y020977D02*
X037834Y020977D01*
X037833Y020829D02*
X037834Y020829D01*
X037833Y020680D02*
X037834Y020680D01*
X037833Y020532D02*
X037834Y020532D01*
X038081Y020532D02*
X038109Y020532D01*
X033370Y020532D02*
X033221Y020532D01*
X033221Y020680D02*
X033370Y020680D01*
X033370Y020829D02*
X033221Y020829D01*
X033221Y020977D02*
X033370Y020977D01*
X033370Y021126D02*
X033221Y021126D01*
X033221Y021275D02*
X033370Y021275D01*
X033370Y021423D02*
X033221Y021423D01*
X033221Y021572D02*
X033370Y021572D01*
X033370Y021720D02*
X033221Y021720D01*
X033221Y021869D02*
X033370Y021869D01*
X032727Y021869D02*
X030684Y021869D01*
X030684Y021806D02*
X032727Y021806D01*
X032727Y021956D01*
X030684Y021956D01*
X030684Y021806D01*
X030683Y021720D02*
X030534Y021720D01*
X030533Y021806D02*
X028490Y021806D01*
X028490Y021956D01*
X030533Y021956D01*
X030533Y021806D01*
X030533Y021869D02*
X028490Y021869D01*
X027996Y021869D02*
X027847Y021869D01*
X027847Y021720D02*
X027996Y021720D01*
X027996Y021572D02*
X027847Y021572D01*
X027847Y021423D02*
X027996Y021423D01*
X027996Y021275D02*
X027847Y021275D01*
X027847Y021126D02*
X027996Y021126D01*
X027996Y020977D02*
X027847Y020977D01*
X027847Y020829D02*
X027996Y020829D01*
X027996Y020680D02*
X027847Y020680D01*
X027847Y020532D02*
X027996Y020532D01*
X027996Y020383D02*
X027847Y020383D01*
X027609Y020235D02*
X028334Y020235D01*
X028334Y020086D02*
X027609Y020086D01*
X030534Y020086D02*
X030683Y020086D01*
X030683Y020235D02*
X030534Y020235D01*
X030534Y020383D02*
X030683Y020383D01*
X030683Y020532D02*
X030534Y020532D01*
X030534Y020680D02*
X030683Y020680D01*
X030683Y020829D02*
X030534Y020829D01*
X030534Y020977D02*
X030683Y020977D01*
X030683Y021126D02*
X030534Y021126D01*
X030534Y021275D02*
X030683Y021275D01*
X030683Y021423D02*
X030534Y021423D01*
X030534Y021572D02*
X030683Y021572D01*
X030683Y022017D02*
X030534Y022017D01*
X030534Y022166D02*
X030683Y022166D01*
X030683Y022314D02*
X030534Y022314D01*
X030534Y022463D02*
X030683Y022463D01*
X030683Y022611D02*
X030534Y022611D01*
X030534Y022760D02*
X030683Y022760D01*
X030683Y022909D02*
X030534Y022909D01*
X030534Y023057D02*
X030683Y023057D01*
X030683Y023206D02*
X030534Y023206D01*
X030534Y023354D02*
X030683Y023354D01*
X030683Y023503D02*
X030534Y023503D01*
X030534Y023651D02*
X030683Y023651D01*
X030683Y023800D02*
X030534Y023800D01*
X027996Y023800D02*
X027847Y023800D01*
X027847Y023651D02*
X027996Y023651D01*
X027996Y023503D02*
X027847Y023503D01*
X027847Y023354D02*
X027996Y023354D01*
X027996Y023206D02*
X027847Y023206D01*
X027847Y023057D02*
X027996Y023057D01*
X027996Y022909D02*
X027847Y022909D01*
X027847Y022760D02*
X027996Y022760D01*
X027996Y022611D02*
X027847Y022611D01*
X027847Y022463D02*
X027996Y022463D01*
X027996Y022314D02*
X027847Y022314D01*
X027847Y022166D02*
X027996Y022166D01*
X033221Y020383D02*
X033370Y020383D01*
X044609Y022181D02*
X044609Y029681D01*
X048609Y029681D01*
X048609Y027181D01*
X057109Y027181D01*
X057109Y022181D01*
X044609Y022181D01*
X044609Y022314D02*
X057109Y022314D01*
X057109Y022463D02*
X044609Y022463D01*
X044609Y022611D02*
X057109Y022611D01*
X057109Y022760D02*
X044609Y022760D01*
X044609Y022909D02*
X057109Y022909D01*
X057109Y023057D02*
X054282Y023057D01*
X054281Y023056D02*
X054383Y023159D01*
X054383Y023300D01*
X054721Y023300D01*
X054721Y025014D01*
X054870Y025014D01*
X054870Y023300D01*
X055262Y023300D01*
X055364Y023402D01*
X055364Y025014D01*
X054871Y025014D01*
X054871Y025164D01*
X055364Y025164D01*
X055364Y026776D01*
X055262Y026878D01*
X054870Y026878D01*
X054870Y025164D01*
X054721Y025164D01*
X054721Y026878D01*
X054329Y026878D01*
X054319Y026868D01*
X054281Y026906D01*
X052183Y026906D01*
X052183Y025057D01*
X052034Y025057D01*
X052034Y026906D01*
X049936Y026906D01*
X049898Y026868D01*
X049888Y026878D01*
X049496Y026878D01*
X049496Y025164D01*
X049347Y025164D01*
X049347Y026878D01*
X048955Y026878D01*
X048853Y026776D01*
X048853Y025164D01*
X049346Y025164D01*
X049346Y025014D01*
X048853Y025014D01*
X048853Y023402D01*
X048955Y023300D01*
X049347Y023300D01*
X049347Y025014D01*
X049496Y025014D01*
X049496Y023300D01*
X049834Y023300D01*
X049834Y023159D01*
X049936Y023056D01*
X052034Y023056D01*
X052034Y024906D01*
X052183Y024906D01*
X052183Y023056D01*
X054281Y023056D01*
X054383Y023206D02*
X057109Y023206D01*
X057109Y023354D02*
X055316Y023354D01*
X055364Y023503D02*
X057109Y023503D01*
X057109Y023651D02*
X055364Y023651D01*
X055364Y023800D02*
X057109Y023800D01*
X057109Y023948D02*
X055364Y023948D01*
X055364Y024097D02*
X057109Y024097D01*
X057109Y024245D02*
X055364Y024245D01*
X055364Y024394D02*
X057109Y024394D01*
X057109Y024543D02*
X055364Y024543D01*
X055364Y024691D02*
X057109Y024691D01*
X057109Y024840D02*
X055364Y024840D01*
X055364Y024988D02*
X057109Y024988D01*
X057109Y025137D02*
X054871Y025137D01*
X054870Y025285D02*
X054721Y025285D01*
X054720Y025164D02*
X054720Y025014D01*
X054227Y025014D01*
X054227Y024906D01*
X052184Y024906D01*
X052184Y025056D01*
X054383Y025056D01*
X054383Y025164D01*
X054720Y025164D01*
X054720Y025137D02*
X054383Y025137D01*
X054227Y024988D02*
X052184Y024988D01*
X052183Y024840D02*
X052034Y024840D01*
X052033Y024906D02*
X049990Y024906D01*
X049990Y025014D01*
X049497Y025014D01*
X049497Y025164D01*
X049834Y025164D01*
X049834Y025056D01*
X052033Y025056D01*
X052033Y024906D01*
X052033Y024988D02*
X049990Y024988D01*
X049834Y025137D02*
X049497Y025137D01*
X049496Y025285D02*
X049347Y025285D01*
X049346Y025137D02*
X044609Y025137D01*
X044609Y025285D02*
X048853Y025285D01*
X048853Y025434D02*
X044609Y025434D01*
X044609Y025582D02*
X048853Y025582D01*
X048853Y025731D02*
X044609Y025731D01*
X044609Y025879D02*
X048853Y025879D01*
X048853Y026028D02*
X044609Y026028D01*
X044609Y026176D02*
X048853Y026176D01*
X048853Y026325D02*
X044609Y026325D01*
X044609Y026474D02*
X048853Y026474D01*
X048853Y026622D02*
X044609Y026622D01*
X044609Y026771D02*
X048853Y026771D01*
X049347Y026771D02*
X049496Y026771D01*
X049496Y026622D02*
X049347Y026622D01*
X049347Y026474D02*
X049496Y026474D01*
X049496Y026325D02*
X049347Y026325D01*
X049347Y026176D02*
X049496Y026176D01*
X049496Y026028D02*
X049347Y026028D01*
X049347Y025879D02*
X049496Y025879D01*
X049496Y025731D02*
X049347Y025731D01*
X049347Y025582D02*
X049496Y025582D01*
X049496Y025434D02*
X049347Y025434D01*
X052034Y025434D02*
X052183Y025434D01*
X052183Y025582D02*
X052034Y025582D01*
X052034Y025731D02*
X052183Y025731D01*
X052183Y025879D02*
X052034Y025879D01*
X052034Y026028D02*
X052183Y026028D01*
X052183Y026176D02*
X052034Y026176D01*
X052034Y026325D02*
X052183Y026325D01*
X052183Y026474D02*
X052034Y026474D01*
X052034Y026622D02*
X052183Y026622D01*
X052183Y026771D02*
X052034Y026771D01*
X054721Y026771D02*
X054870Y026771D01*
X054870Y026622D02*
X054721Y026622D01*
X054721Y026474D02*
X054870Y026474D01*
X054870Y026325D02*
X054721Y026325D01*
X054721Y026176D02*
X054870Y026176D01*
X054870Y026028D02*
X054721Y026028D01*
X054721Y025879D02*
X054870Y025879D01*
X054870Y025731D02*
X054721Y025731D01*
X054721Y025582D02*
X054870Y025582D01*
X054870Y025434D02*
X054721Y025434D01*
X055364Y025434D02*
X057109Y025434D01*
X057109Y025582D02*
X055364Y025582D01*
X055364Y025731D02*
X057109Y025731D01*
X057109Y025879D02*
X055364Y025879D01*
X055364Y026028D02*
X057109Y026028D01*
X057109Y026176D02*
X055364Y026176D01*
X055364Y026325D02*
X057109Y026325D01*
X057109Y026474D02*
X055364Y026474D01*
X055364Y026622D02*
X057109Y026622D01*
X057109Y026771D02*
X055364Y026771D01*
X057109Y026919D02*
X044609Y026919D01*
X044609Y027068D02*
X057109Y027068D01*
X050709Y028181D02*
X049109Y028181D01*
X049109Y032681D01*
X047609Y032681D01*
X047609Y033681D01*
X051234Y033681D01*
X051234Y032681D01*
X050609Y032681D01*
X050709Y029080D01*
X050709Y028181D01*
X050709Y028256D02*
X049109Y028256D01*
X049109Y028405D02*
X050709Y028405D01*
X050709Y028553D02*
X049109Y028553D01*
X049109Y028702D02*
X050709Y028702D01*
X050709Y028850D02*
X049109Y028850D01*
X049109Y028999D02*
X050709Y028999D01*
X050707Y029147D02*
X049109Y029147D01*
X049109Y029296D02*
X050702Y029296D01*
X050698Y029444D02*
X049109Y029444D01*
X049109Y029593D02*
X050694Y029593D01*
X050690Y029742D02*
X049109Y029742D01*
X049109Y029890D02*
X050686Y029890D01*
X050682Y030039D02*
X049109Y030039D01*
X049109Y030187D02*
X050678Y030187D01*
X050674Y030336D02*
X049109Y030336D01*
X049109Y030484D02*
X050669Y030484D01*
X050665Y030633D02*
X049109Y030633D01*
X049109Y030781D02*
X050661Y030781D01*
X050657Y030930D02*
X049109Y030930D01*
X049109Y031078D02*
X050653Y031078D01*
X050649Y031227D02*
X049109Y031227D01*
X049109Y031376D02*
X050645Y031376D01*
X050641Y031524D02*
X049109Y031524D01*
X049109Y031673D02*
X050636Y031673D01*
X050632Y031821D02*
X049109Y031821D01*
X049109Y031970D02*
X050628Y031970D01*
X050624Y032118D02*
X049109Y032118D01*
X049109Y032267D02*
X050620Y032267D01*
X050616Y032415D02*
X049109Y032415D01*
X049109Y032564D02*
X050612Y032564D01*
X051234Y032712D02*
X047609Y032712D01*
X047609Y032861D02*
X051234Y032861D01*
X051234Y033009D02*
X047609Y033009D01*
X047609Y033158D02*
X051234Y033158D01*
X051234Y033307D02*
X047609Y033307D01*
X047609Y033455D02*
X051234Y033455D01*
X051234Y033604D02*
X047609Y033604D01*
X038609Y033604D02*
X036609Y033604D01*
X036609Y033752D02*
X038609Y033752D01*
X038609Y033901D02*
X036609Y033901D01*
X036609Y034049D02*
X038609Y034049D01*
X038609Y034198D02*
X035383Y034198D01*
X035383Y034181D02*
X035383Y034300D01*
X035721Y034300D01*
X035721Y036014D01*
X035870Y036014D01*
X035870Y034300D01*
X036262Y034300D01*
X036364Y034402D01*
X036364Y036014D01*
X035871Y036014D01*
X035871Y036164D01*
X036364Y036164D01*
X036364Y037776D01*
X036262Y037878D01*
X035870Y037878D01*
X035870Y036164D01*
X035721Y036164D01*
X035721Y037878D01*
X035329Y037878D01*
X035258Y037806D01*
X033183Y037806D01*
X033183Y035957D01*
X033034Y035957D01*
X033034Y037806D01*
X030959Y037806D01*
X030888Y037878D01*
X030496Y037878D01*
X030496Y036164D01*
X030347Y036164D01*
X030347Y037878D01*
X029955Y037878D01*
X029853Y037776D01*
X029853Y036164D01*
X030346Y036164D01*
X030346Y036014D01*
X029853Y036014D01*
X029853Y034402D01*
X029955Y034300D01*
X030347Y034300D01*
X030347Y036014D01*
X030496Y036014D01*
X030496Y034300D01*
X030834Y034300D01*
X030834Y034181D01*
X028609Y034181D01*
X028609Y038681D01*
X038609Y038681D01*
X038609Y029681D01*
X037533Y029681D01*
X037533Y029831D01*
X037109Y029831D01*
X037109Y029832D01*
X037108Y029832D01*
X037108Y030156D01*
X036786Y030156D01*
X036684Y030054D01*
X036684Y029832D01*
X037108Y029832D01*
X037108Y029831D01*
X036684Y029831D01*
X036684Y029681D01*
X036609Y029681D01*
X036609Y034181D01*
X035383Y034181D01*
X035721Y034346D02*
X035870Y034346D01*
X035870Y034495D02*
X035721Y034495D01*
X035721Y034643D02*
X035870Y034643D01*
X035870Y034792D02*
X035721Y034792D01*
X035721Y034941D02*
X035870Y034941D01*
X035870Y035089D02*
X035721Y035089D01*
X035721Y035238D02*
X035870Y035238D01*
X035870Y035386D02*
X035721Y035386D01*
X035721Y035535D02*
X035870Y035535D01*
X035870Y035683D02*
X035721Y035683D01*
X035721Y035832D02*
X035870Y035832D01*
X035870Y035980D02*
X035721Y035980D01*
X035871Y036129D02*
X038609Y036129D01*
X038609Y036277D02*
X036364Y036277D01*
X036364Y036426D02*
X038609Y036426D01*
X038609Y036575D02*
X036364Y036575D01*
X036364Y036723D02*
X038609Y036723D01*
X038609Y036872D02*
X036364Y036872D01*
X036364Y037020D02*
X038609Y037020D01*
X038609Y037169D02*
X036364Y037169D01*
X036364Y037317D02*
X038609Y037317D01*
X038609Y037466D02*
X036364Y037466D01*
X036364Y037614D02*
X038609Y037614D01*
X038609Y037763D02*
X036364Y037763D01*
X035870Y037763D02*
X035721Y037763D01*
X035721Y037614D02*
X035870Y037614D01*
X035870Y037466D02*
X035721Y037466D01*
X035721Y037317D02*
X035870Y037317D01*
X035870Y037169D02*
X035721Y037169D01*
X035721Y037020D02*
X035870Y037020D01*
X035870Y036872D02*
X035721Y036872D01*
X035721Y036723D02*
X035870Y036723D01*
X035870Y036575D02*
X035721Y036575D01*
X035721Y036426D02*
X035870Y036426D01*
X035870Y036277D02*
X035721Y036277D01*
X036364Y035980D02*
X038609Y035980D01*
X038609Y035832D02*
X036364Y035832D01*
X036364Y035683D02*
X038609Y035683D01*
X038609Y035535D02*
X036364Y035535D01*
X036364Y035386D02*
X038609Y035386D01*
X038609Y035238D02*
X036364Y035238D01*
X036364Y035089D02*
X038609Y035089D01*
X038609Y034941D02*
X036364Y034941D01*
X036364Y034792D02*
X038609Y034792D01*
X038609Y034643D02*
X036364Y034643D01*
X036364Y034495D02*
X038609Y034495D01*
X038609Y034346D02*
X036308Y034346D01*
X033183Y034346D02*
X033034Y034346D01*
X033034Y034198D02*
X033183Y034198D01*
X033183Y034181D02*
X033183Y035806D01*
X033034Y035806D01*
X033034Y034181D01*
X033183Y034181D01*
X033183Y034495D02*
X033034Y034495D01*
X033034Y034643D02*
X033183Y034643D01*
X033183Y034792D02*
X033034Y034792D01*
X033034Y034941D02*
X033183Y034941D01*
X033183Y035089D02*
X033034Y035089D01*
X033034Y035238D02*
X033183Y035238D01*
X033183Y035386D02*
X033034Y035386D01*
X033034Y035535D02*
X033183Y035535D01*
X033183Y035683D02*
X033034Y035683D01*
X033034Y035980D02*
X033183Y035980D01*
X033183Y036129D02*
X033034Y036129D01*
X033034Y036277D02*
X033183Y036277D01*
X033183Y036426D02*
X033034Y036426D01*
X033034Y036575D02*
X033183Y036575D01*
X033183Y036723D02*
X033034Y036723D01*
X033034Y036872D02*
X033183Y036872D01*
X033183Y037020D02*
X033034Y037020D01*
X033034Y037169D02*
X033183Y037169D01*
X033183Y037317D02*
X033034Y037317D01*
X033034Y037466D02*
X033183Y037466D01*
X033183Y037614D02*
X033034Y037614D01*
X033034Y037763D02*
X033183Y037763D01*
X030496Y037763D02*
X030347Y037763D01*
X030347Y037614D02*
X030496Y037614D01*
X030496Y037466D02*
X030347Y037466D01*
X030347Y037317D02*
X030496Y037317D01*
X030496Y037169D02*
X030347Y037169D01*
X030347Y037020D02*
X030496Y037020D01*
X030496Y036872D02*
X030347Y036872D01*
X030347Y036723D02*
X030496Y036723D01*
X030496Y036575D02*
X030347Y036575D01*
X030347Y036426D02*
X030496Y036426D01*
X030496Y036277D02*
X030347Y036277D01*
X030346Y036129D02*
X028609Y036129D01*
X028609Y036277D02*
X029853Y036277D01*
X029853Y036426D02*
X028609Y036426D01*
X028609Y036575D02*
X029853Y036575D01*
X029853Y036723D02*
X028609Y036723D01*
X028609Y036872D02*
X029853Y036872D01*
X029853Y037020D02*
X028609Y037020D01*
X028609Y037169D02*
X029853Y037169D01*
X029853Y037317D02*
X028609Y037317D01*
X028609Y037466D02*
X029853Y037466D01*
X029853Y037614D02*
X028609Y037614D01*
X028609Y037763D02*
X029853Y037763D01*
X028609Y037911D02*
X038609Y037911D01*
X038609Y038060D02*
X028609Y038060D01*
X028609Y038209D02*
X038609Y038209D01*
X038609Y038357D02*
X028609Y038357D01*
X028609Y038506D02*
X038609Y038506D01*
X038609Y038654D02*
X028609Y038654D01*
X028609Y035980D02*
X029853Y035980D01*
X029853Y035832D02*
X028609Y035832D01*
X028609Y035683D02*
X029853Y035683D01*
X029853Y035535D02*
X028609Y035535D01*
X028609Y035386D02*
X029853Y035386D01*
X029853Y035238D02*
X028609Y035238D01*
X028609Y035089D02*
X029853Y035089D01*
X029853Y034941D02*
X028609Y034941D01*
X028609Y034792D02*
X029853Y034792D01*
X029853Y034643D02*
X028609Y034643D01*
X028609Y034495D02*
X029853Y034495D01*
X029909Y034346D02*
X028609Y034346D01*
X028609Y034198D02*
X030834Y034198D01*
X030496Y034346D02*
X030347Y034346D01*
X030347Y034495D02*
X030496Y034495D01*
X030496Y034643D02*
X030347Y034643D01*
X030347Y034792D02*
X030496Y034792D01*
X030496Y034941D02*
X030347Y034941D01*
X030347Y035089D02*
X030496Y035089D01*
X030496Y035238D02*
X030347Y035238D01*
X030347Y035386D02*
X030496Y035386D01*
X030496Y035535D02*
X030347Y035535D01*
X030347Y035683D02*
X030496Y035683D01*
X030496Y035832D02*
X030347Y035832D01*
X030347Y035980D02*
X030496Y035980D01*
X041109Y036681D02*
X042609Y038181D01*
X058109Y038181D01*
X060109Y036181D01*
X060109Y032181D01*
X061609Y030681D01*
X110609Y030681D01*
X113609Y027681D01*
X116109Y027681D01*
X117109Y027681D02*
X125609Y027681D01*
X126109Y027181D01*
X128109Y027181D01*
X129609Y028681D01*
X131509Y028681D01*
X132984Y028702D02*
X134109Y028702D01*
X134109Y028850D02*
X132984Y028850D01*
X132984Y028999D02*
X134109Y028999D01*
X134109Y029147D02*
X132984Y029147D01*
X132984Y029296D02*
X134109Y029296D01*
X134109Y029444D02*
X132984Y029444D01*
X132984Y029593D02*
X134109Y029593D01*
X134109Y029742D02*
X132984Y029742D01*
X132984Y029890D02*
X134109Y029890D01*
X134109Y030039D02*
X132984Y030039D01*
X132984Y030062D02*
X133001Y030105D01*
X133001Y030258D01*
X133001Y030568D01*
X133016Y030583D01*
X133016Y031669D01*
X132984Y031702D01*
X132984Y032681D01*
X136109Y032681D01*
X136109Y030681D01*
X134109Y030681D01*
X134109Y027181D01*
X132984Y027181D01*
X132984Y030062D01*
X133001Y030187D02*
X134109Y030187D01*
X134109Y030336D02*
X133001Y030336D01*
X133001Y030484D02*
X133315Y030484D01*
X133348Y030451D02*
X133885Y030451D01*
X134016Y030583D01*
X134016Y031669D01*
X133885Y031801D01*
X133348Y031801D01*
X133216Y031669D01*
X133216Y030583D01*
X133348Y030451D01*
X133216Y030633D02*
X133016Y030633D01*
X133016Y030781D02*
X133216Y030781D01*
X133216Y030930D02*
X133016Y030930D01*
X133016Y031078D02*
X133216Y031078D01*
X133216Y031227D02*
X133016Y031227D01*
X133016Y031376D02*
X133216Y031376D01*
X133216Y031524D02*
X133016Y031524D01*
X133013Y031673D02*
X133219Y031673D01*
X132984Y031821D02*
X136109Y031821D01*
X136109Y031673D02*
X134013Y031673D01*
X134016Y031524D02*
X136109Y031524D01*
X136109Y031376D02*
X134016Y031376D01*
X134016Y031227D02*
X136109Y031227D01*
X136109Y031078D02*
X134016Y031078D01*
X134016Y030930D02*
X136109Y030930D01*
X136109Y030781D02*
X134016Y030781D01*
X134016Y030633D02*
X134109Y030633D01*
X134109Y030484D02*
X133918Y030484D01*
X129109Y030681D02*
X125109Y030681D01*
X125109Y031881D01*
X125258Y031881D01*
X125258Y032306D01*
X125259Y032306D01*
X125259Y032307D01*
X125258Y032307D01*
X125258Y032731D01*
X125109Y032731D01*
X125109Y038181D01*
X137109Y038181D01*
X137109Y033181D01*
X134391Y033181D01*
X134391Y033245D01*
X134728Y033245D01*
X134728Y034959D01*
X134878Y034959D01*
X134878Y033245D01*
X135270Y033245D01*
X135372Y033347D01*
X135372Y034959D01*
X134879Y034959D01*
X134879Y035109D01*
X135372Y035109D01*
X135372Y036720D01*
X135270Y036823D01*
X134878Y036823D01*
X134878Y035109D01*
X134728Y035109D01*
X134728Y036823D01*
X134337Y036823D01*
X134266Y036751D01*
X132191Y036751D01*
X132191Y034901D01*
X132041Y034901D01*
X129998Y034901D01*
X129998Y034751D01*
X132041Y034751D01*
X132041Y034901D01*
X132041Y036751D01*
X129967Y036751D01*
X129896Y036823D01*
X129504Y036823D01*
X129504Y035109D01*
X129354Y035109D01*
X129354Y034959D01*
X128861Y034959D01*
X128861Y033347D01*
X128963Y033245D01*
X129354Y033245D01*
X129354Y034959D01*
X129504Y034959D01*
X129504Y033245D01*
X129841Y033245D01*
X129841Y033181D01*
X129109Y033181D01*
X129109Y030681D01*
X129109Y030781D02*
X125956Y030781D01*
X125931Y030756D02*
X126033Y030859D01*
X126033Y031081D01*
X125609Y031081D01*
X125609Y031082D01*
X125608Y031082D01*
X125608Y031406D01*
X125286Y031406D01*
X125184Y031304D01*
X125184Y031082D01*
X125608Y031082D01*
X125608Y031081D01*
X125184Y031081D01*
X125184Y030859D01*
X125286Y030756D01*
X125608Y030756D01*
X125608Y031081D01*
X125609Y031081D01*
X125609Y030756D01*
X125931Y030756D01*
X126033Y030930D02*
X126967Y030930D01*
X126941Y030955D02*
X127044Y030853D01*
X127534Y030853D01*
X127534Y031327D01*
X127683Y031327D01*
X127683Y030853D01*
X128173Y030853D01*
X128276Y030955D01*
X128276Y031327D01*
X127684Y031327D01*
X127684Y031477D01*
X128276Y031477D01*
X128276Y031848D01*
X128173Y031951D01*
X127683Y031951D01*
X127683Y031477D01*
X127534Y031477D01*
X127534Y031951D01*
X127044Y031951D01*
X126941Y031848D01*
X126941Y031477D01*
X127533Y031477D01*
X127533Y031327D01*
X126941Y031327D01*
X126941Y030955D01*
X126941Y031078D02*
X126033Y031078D01*
X126033Y031082D02*
X126033Y031304D01*
X125931Y031406D01*
X125609Y031406D01*
X125609Y031082D01*
X126033Y031082D01*
X126033Y031227D02*
X126941Y031227D01*
X126941Y031524D02*
X125109Y031524D01*
X125109Y031376D02*
X125255Y031376D01*
X125184Y031227D02*
X125109Y031227D01*
X125109Y031078D02*
X125184Y031078D01*
X125184Y030930D02*
X125109Y030930D01*
X125109Y030781D02*
X125261Y030781D01*
X125608Y030781D02*
X125609Y030781D01*
X125608Y030930D02*
X125609Y030930D01*
X125608Y031078D02*
X125609Y031078D01*
X125608Y031227D02*
X125609Y031227D01*
X125608Y031376D02*
X125609Y031376D01*
X125962Y031376D02*
X127533Y031376D01*
X127534Y031524D02*
X127683Y031524D01*
X127684Y031376D02*
X129109Y031376D01*
X129109Y031524D02*
X128276Y031524D01*
X128276Y031673D02*
X129109Y031673D01*
X129109Y031821D02*
X128276Y031821D01*
X127683Y031821D02*
X127534Y031821D01*
X127534Y031673D02*
X127683Y031673D01*
X127683Y031227D02*
X127534Y031227D01*
X127534Y031078D02*
X127683Y031078D01*
X127683Y030930D02*
X127534Y030930D01*
X128250Y030930D02*
X129109Y030930D01*
X129109Y031078D02*
X128276Y031078D01*
X128276Y031227D02*
X129109Y031227D01*
X126941Y031673D02*
X125109Y031673D01*
X125109Y031821D02*
X126941Y031821D01*
X125583Y031984D02*
X125583Y032306D01*
X125259Y032306D01*
X125259Y031881D01*
X125481Y031881D01*
X125583Y031984D01*
X125569Y031970D02*
X129109Y031970D01*
X129109Y032118D02*
X125583Y032118D01*
X125583Y032267D02*
X129109Y032267D01*
X129109Y032415D02*
X125583Y032415D01*
X125583Y032307D02*
X125583Y032629D01*
X125481Y032731D01*
X125259Y032731D01*
X125259Y032307D01*
X125583Y032307D01*
X125583Y032564D02*
X129109Y032564D01*
X129109Y032712D02*
X125500Y032712D01*
X125259Y032712D02*
X125258Y032712D01*
X125258Y032564D02*
X125259Y032564D01*
X125258Y032415D02*
X125259Y032415D01*
X125258Y032267D02*
X125259Y032267D01*
X125258Y032118D02*
X125259Y032118D01*
X125258Y031970D02*
X125259Y031970D01*
X125109Y032861D02*
X129109Y032861D01*
X129109Y033009D02*
X125109Y033009D01*
X125109Y033158D02*
X129109Y033158D01*
X128901Y033307D02*
X125109Y033307D01*
X125109Y033455D02*
X128861Y033455D01*
X128861Y033604D02*
X125109Y033604D01*
X125109Y033752D02*
X128861Y033752D01*
X128861Y033901D02*
X125109Y033901D01*
X125109Y034049D02*
X128861Y034049D01*
X128861Y034198D02*
X125109Y034198D01*
X125109Y034346D02*
X128861Y034346D01*
X128861Y034495D02*
X125109Y034495D01*
X125109Y034643D02*
X128861Y034643D01*
X128861Y034792D02*
X125109Y034792D01*
X125109Y034941D02*
X128861Y034941D01*
X128861Y035109D02*
X129354Y035109D01*
X129354Y036823D01*
X128963Y036823D01*
X128861Y036720D01*
X128861Y035109D01*
X128861Y035238D02*
X125109Y035238D01*
X125109Y035386D02*
X128861Y035386D01*
X128861Y035535D02*
X125109Y035535D01*
X125109Y035683D02*
X128861Y035683D01*
X128861Y035832D02*
X125109Y035832D01*
X125109Y035980D02*
X128861Y035980D01*
X128861Y036129D02*
X125109Y036129D01*
X125109Y036277D02*
X128861Y036277D01*
X128861Y036426D02*
X125109Y036426D01*
X125109Y036575D02*
X128861Y036575D01*
X128863Y036723D02*
X125109Y036723D01*
X125109Y036872D02*
X137109Y036872D01*
X137109Y037020D02*
X125109Y037020D01*
X125109Y037169D02*
X137109Y037169D01*
X137109Y037317D02*
X125109Y037317D01*
X125109Y037466D02*
X137109Y037466D01*
X137109Y037614D02*
X125109Y037614D01*
X125109Y037763D02*
X137109Y037763D01*
X137109Y037911D02*
X125109Y037911D01*
X125109Y038060D02*
X137109Y038060D01*
X137109Y036723D02*
X135369Y036723D01*
X135372Y036575D02*
X137109Y036575D01*
X137109Y036426D02*
X135372Y036426D01*
X135372Y036277D02*
X137109Y036277D01*
X137109Y036129D02*
X135372Y036129D01*
X135372Y035980D02*
X137109Y035980D01*
X137109Y035832D02*
X135372Y035832D01*
X135372Y035683D02*
X137109Y035683D01*
X137109Y035535D02*
X135372Y035535D01*
X135372Y035386D02*
X137109Y035386D01*
X137109Y035238D02*
X135372Y035238D01*
X135372Y034941D02*
X137109Y034941D01*
X137109Y035089D02*
X134879Y035089D01*
X134878Y034941D02*
X134728Y034941D01*
X134728Y034792D02*
X134878Y034792D01*
X134878Y034643D02*
X134728Y034643D01*
X134728Y034495D02*
X134878Y034495D01*
X134878Y034346D02*
X134728Y034346D01*
X134728Y034198D02*
X134878Y034198D01*
X134878Y034049D02*
X134728Y034049D01*
X134728Y033901D02*
X134878Y033901D01*
X134878Y033752D02*
X134728Y033752D01*
X134728Y033604D02*
X134878Y033604D01*
X134878Y033455D02*
X134728Y033455D01*
X134728Y033307D02*
X134878Y033307D01*
X135332Y033307D02*
X137109Y033307D01*
X137109Y033455D02*
X135372Y033455D01*
X135372Y033604D02*
X137109Y033604D01*
X137109Y033752D02*
X135372Y033752D01*
X135372Y033901D02*
X137109Y033901D01*
X137109Y034049D02*
X135372Y034049D01*
X135372Y034198D02*
X137109Y034198D01*
X137109Y034346D02*
X135372Y034346D01*
X135372Y034495D02*
X137109Y034495D01*
X137109Y034643D02*
X135372Y034643D01*
X135372Y034792D02*
X137109Y034792D01*
X134878Y035238D02*
X134728Y035238D01*
X134728Y035386D02*
X134878Y035386D01*
X134878Y035535D02*
X134728Y035535D01*
X134728Y035683D02*
X134878Y035683D01*
X134878Y035832D02*
X134728Y035832D01*
X134728Y035980D02*
X134878Y035980D01*
X134878Y036129D02*
X134728Y036129D01*
X134728Y036277D02*
X134878Y036277D01*
X134878Y036426D02*
X134728Y036426D01*
X134728Y036575D02*
X134878Y036575D01*
X134878Y036723D02*
X134728Y036723D01*
X132191Y036723D02*
X132041Y036723D01*
X132041Y036575D02*
X132191Y036575D01*
X132191Y036426D02*
X132041Y036426D01*
X132041Y036277D02*
X132191Y036277D01*
X132191Y036129D02*
X132041Y036129D01*
X132041Y035980D02*
X132191Y035980D01*
X132191Y035832D02*
X132041Y035832D01*
X132041Y035683D02*
X132191Y035683D01*
X132191Y035535D02*
X132041Y035535D01*
X132041Y035386D02*
X132191Y035386D01*
X132191Y035238D02*
X132041Y035238D01*
X132041Y035089D02*
X132191Y035089D01*
X132191Y034941D02*
X132041Y034941D01*
X132041Y034792D02*
X129998Y034792D01*
X129504Y034792D02*
X129354Y034792D01*
X129354Y034941D02*
X129504Y034941D01*
X129354Y035089D02*
X125109Y035089D01*
X129354Y035238D02*
X129504Y035238D01*
X129504Y035386D02*
X129354Y035386D01*
X129354Y035535D02*
X129504Y035535D01*
X129504Y035683D02*
X129354Y035683D01*
X129354Y035832D02*
X129504Y035832D01*
X129504Y035980D02*
X129354Y035980D01*
X129354Y036129D02*
X129504Y036129D01*
X129504Y036277D02*
X129354Y036277D01*
X129354Y036426D02*
X129504Y036426D01*
X129504Y036575D02*
X129354Y036575D01*
X129354Y036723D02*
X129504Y036723D01*
X132041Y034751D02*
X132191Y034751D01*
X132191Y033181D01*
X132041Y033181D01*
X132041Y034751D01*
X132041Y034643D02*
X132191Y034643D01*
X132191Y034751D02*
X134235Y034751D01*
X134235Y034901D01*
X132191Y034901D01*
X132191Y034751D01*
X132191Y034792D02*
X134235Y034792D01*
X132191Y034495D02*
X132041Y034495D01*
X132041Y034346D02*
X132191Y034346D01*
X132191Y034198D02*
X132041Y034198D01*
X132041Y034049D02*
X132191Y034049D01*
X132191Y033901D02*
X132041Y033901D01*
X132041Y033752D02*
X132191Y033752D01*
X132191Y033604D02*
X132041Y033604D01*
X132041Y033455D02*
X132191Y033455D01*
X132191Y033307D02*
X132041Y033307D01*
X129504Y033307D02*
X129354Y033307D01*
X129354Y033455D02*
X129504Y033455D01*
X129504Y033604D02*
X129354Y033604D01*
X129354Y033752D02*
X129504Y033752D01*
X129504Y033901D02*
X129354Y033901D01*
X129354Y034049D02*
X129504Y034049D01*
X129504Y034198D02*
X129354Y034198D01*
X129354Y034346D02*
X129504Y034346D01*
X129504Y034495D02*
X129354Y034495D01*
X129354Y034643D02*
X129504Y034643D01*
X132984Y032564D02*
X136109Y032564D01*
X136109Y032415D02*
X132984Y032415D01*
X132984Y032267D02*
X136109Y032267D01*
X136109Y032118D02*
X132984Y032118D01*
X132984Y031970D02*
X136109Y031970D01*
X146109Y030681D02*
X157109Y030681D01*
X157109Y025681D01*
X152609Y025681D01*
X152609Y024194D01*
X152596Y024194D01*
X152596Y024806D01*
X152361Y024806D01*
X152358Y024804D01*
X152356Y024806D01*
X152121Y024806D01*
X152121Y024194D01*
X152096Y024194D01*
X152096Y024806D01*
X151927Y024806D01*
X151877Y024856D01*
X151340Y024856D01*
X151290Y024806D01*
X151121Y024806D01*
X151121Y024194D01*
X151096Y024194D01*
X151096Y024806D01*
X150861Y024806D01*
X150759Y024704D01*
X150759Y024194D01*
X151096Y024194D01*
X151096Y024169D01*
X150759Y024169D01*
X150759Y023681D01*
X150609Y023681D01*
X150609Y024681D01*
X146109Y024681D01*
X146109Y030681D01*
X146109Y030633D02*
X157109Y030633D01*
X157109Y030484D02*
X146109Y030484D01*
X146109Y030336D02*
X157109Y030336D01*
X157109Y030187D02*
X146109Y030187D01*
X146109Y030039D02*
X157109Y030039D01*
X157109Y029890D02*
X146109Y029890D01*
X146109Y029742D02*
X149353Y029742D01*
X149353Y029776D02*
X149353Y028164D01*
X149846Y028164D01*
X149846Y028014D01*
X149353Y028014D01*
X149353Y026402D01*
X149455Y026300D01*
X149847Y026300D01*
X149847Y028014D01*
X149996Y028014D01*
X149996Y026300D01*
X150334Y026300D01*
X150334Y026059D01*
X150436Y025956D01*
X152534Y025956D01*
X152534Y027806D01*
X152683Y027806D01*
X152683Y025956D01*
X154781Y025956D01*
X154883Y026059D01*
X154883Y026300D01*
X155221Y026300D01*
X155221Y028014D01*
X155370Y028014D01*
X155370Y026300D01*
X155762Y026300D01*
X155864Y026402D01*
X155864Y028014D01*
X155371Y028014D01*
X155371Y028164D01*
X155864Y028164D01*
X155864Y029776D01*
X155762Y029878D01*
X155370Y029878D01*
X155370Y028164D01*
X155221Y028164D01*
X155221Y029878D01*
X154829Y029878D01*
X154758Y029806D01*
X152683Y029806D01*
X152683Y027957D01*
X152534Y027957D01*
X152534Y029806D01*
X150459Y029806D01*
X150388Y029878D01*
X149996Y029878D01*
X149996Y028164D01*
X149847Y028164D01*
X149847Y029878D01*
X149455Y029878D01*
X149353Y029776D01*
X149353Y029593D02*
X146109Y029593D01*
X146109Y029444D02*
X149353Y029444D01*
X149353Y029296D02*
X146109Y029296D01*
X146109Y029147D02*
X149353Y029147D01*
X149353Y028999D02*
X146109Y028999D01*
X146109Y028850D02*
X149353Y028850D01*
X149353Y028702D02*
X146109Y028702D01*
X146109Y028553D02*
X149353Y028553D01*
X149353Y028405D02*
X146109Y028405D01*
X146109Y028256D02*
X149353Y028256D01*
X149353Y027959D02*
X146109Y027959D01*
X146109Y028108D02*
X149846Y028108D01*
X149847Y028256D02*
X149996Y028256D01*
X149996Y028405D02*
X149847Y028405D01*
X149847Y028553D02*
X149996Y028553D01*
X149996Y028702D02*
X149847Y028702D01*
X149847Y028850D02*
X149996Y028850D01*
X149996Y028999D02*
X149847Y028999D01*
X149847Y029147D02*
X149996Y029147D01*
X149996Y029296D02*
X149847Y029296D01*
X149847Y029444D02*
X149996Y029444D01*
X149996Y029593D02*
X149847Y029593D01*
X149847Y029742D02*
X149996Y029742D01*
X152534Y029742D02*
X152683Y029742D01*
X152683Y029593D02*
X152534Y029593D01*
X152534Y029444D02*
X152683Y029444D01*
X152683Y029296D02*
X152534Y029296D01*
X152534Y029147D02*
X152683Y029147D01*
X152683Y028999D02*
X152534Y028999D01*
X152534Y028850D02*
X152683Y028850D01*
X152683Y028702D02*
X152534Y028702D01*
X152534Y028553D02*
X152683Y028553D01*
X152683Y028405D02*
X152534Y028405D01*
X152534Y028256D02*
X152683Y028256D01*
X152683Y028108D02*
X152534Y028108D01*
X152534Y027959D02*
X152683Y027959D01*
X152683Y027662D02*
X152534Y027662D01*
X152534Y027513D02*
X152683Y027513D01*
X152683Y027365D02*
X152534Y027365D01*
X152534Y027216D02*
X152683Y027216D01*
X152683Y027068D02*
X152534Y027068D01*
X152534Y026919D02*
X152683Y026919D01*
X152683Y026771D02*
X152534Y026771D01*
X152534Y026622D02*
X152683Y026622D01*
X152683Y026474D02*
X152534Y026474D01*
X152534Y026325D02*
X152683Y026325D01*
X152683Y026176D02*
X152534Y026176D01*
X152534Y026028D02*
X152683Y026028D01*
X152609Y025582D02*
X148276Y025582D01*
X148276Y025477D02*
X148276Y025848D01*
X148173Y025951D01*
X147683Y025951D01*
X147683Y025477D01*
X147534Y025477D01*
X147534Y025951D01*
X147044Y025951D01*
X146941Y025848D01*
X146941Y025477D01*
X147533Y025477D01*
X147533Y025327D01*
X146941Y025327D01*
X146941Y024955D01*
X147044Y024853D01*
X147534Y024853D01*
X147534Y025327D01*
X147683Y025327D01*
X147683Y024853D01*
X148173Y024853D01*
X148276Y024955D01*
X148276Y025327D01*
X147684Y025327D01*
X147684Y025477D01*
X148276Y025477D01*
X148276Y025285D02*
X148684Y025285D01*
X148684Y025304D02*
X148684Y025082D01*
X149108Y025082D01*
X149108Y025406D01*
X148786Y025406D01*
X148684Y025304D01*
X148684Y025137D02*
X148276Y025137D01*
X148276Y024988D02*
X148684Y024988D01*
X148684Y025081D02*
X148684Y024859D01*
X148786Y024756D01*
X149108Y024756D01*
X149108Y025081D01*
X148684Y025081D01*
X148703Y024840D02*
X146109Y024840D01*
X146109Y024988D02*
X146941Y024988D01*
X146941Y025137D02*
X146109Y025137D01*
X146109Y025285D02*
X146941Y025285D01*
X146941Y025582D02*
X146109Y025582D01*
X146109Y025434D02*
X147533Y025434D01*
X147534Y025582D02*
X147683Y025582D01*
X147684Y025434D02*
X152609Y025434D01*
X152609Y025285D02*
X149533Y025285D01*
X149533Y025304D02*
X149431Y025406D01*
X149109Y025406D01*
X149109Y025082D01*
X149108Y025082D01*
X149108Y025081D01*
X149109Y025081D01*
X149109Y025082D01*
X149533Y025082D01*
X149533Y025304D01*
X149533Y025137D02*
X152609Y025137D01*
X152609Y024988D02*
X149533Y024988D01*
X149533Y025081D02*
X149533Y024859D01*
X149431Y024756D01*
X149109Y024756D01*
X149109Y025081D01*
X149533Y025081D01*
X149514Y024840D02*
X151324Y024840D01*
X151121Y024691D02*
X151096Y024691D01*
X151096Y024543D02*
X151121Y024543D01*
X151121Y024394D02*
X151096Y024394D01*
X151096Y024245D02*
X151121Y024245D01*
X150759Y024245D02*
X150609Y024245D01*
X150609Y024097D02*
X150759Y024097D01*
X150759Y023948D02*
X150609Y023948D01*
X150609Y023800D02*
X150759Y023800D01*
X150509Y023081D02*
X151609Y023081D01*
X150509Y023081D02*
X150109Y022681D01*
X150109Y021181D01*
X149609Y020681D01*
X147109Y020681D01*
X144109Y023681D01*
X141609Y023681D01*
X140609Y024681D01*
X117109Y024681D01*
X116109Y024681D02*
X109109Y024681D01*
X108109Y023681D01*
X091609Y023681D01*
X061109Y023681D01*
X059609Y025181D01*
X059609Y029181D01*
X058509Y030281D01*
X053109Y030281D01*
X048609Y029593D02*
X045944Y029593D01*
X045931Y029606D02*
X045609Y029606D01*
X045609Y029282D01*
X045608Y029282D01*
X045608Y029606D01*
X045286Y029606D01*
X045184Y029504D01*
X045184Y029282D01*
X045608Y029282D01*
X045608Y029281D01*
X045184Y029281D01*
X045184Y029059D01*
X045286Y028956D01*
X045608Y028956D01*
X045608Y029281D01*
X045609Y029281D01*
X045609Y029282D01*
X046033Y029282D01*
X046033Y029504D01*
X045931Y029606D01*
X046033Y029444D02*
X046478Y029444D01*
X046441Y029407D02*
X046441Y029036D01*
X047033Y029036D01*
X047033Y028886D01*
X046441Y028886D01*
X046441Y028514D01*
X046544Y028412D01*
X047034Y028412D01*
X047034Y028886D01*
X047183Y028886D01*
X047183Y028412D01*
X047673Y028412D01*
X047776Y028514D01*
X047776Y028886D01*
X047184Y028886D01*
X047184Y029036D01*
X047776Y029036D01*
X047776Y029407D01*
X047673Y029510D01*
X047183Y029510D01*
X047183Y029036D01*
X047034Y029036D01*
X047034Y029510D01*
X046544Y029510D01*
X046441Y029407D01*
X046441Y029296D02*
X046033Y029296D01*
X046033Y029281D02*
X045609Y029281D01*
X045609Y028956D01*
X045931Y028956D01*
X046033Y029059D01*
X046033Y029281D01*
X046033Y029147D02*
X046441Y029147D01*
X046441Y028850D02*
X044609Y028850D01*
X044609Y028702D02*
X046441Y028702D01*
X046441Y028553D02*
X044609Y028553D01*
X044609Y028405D02*
X048609Y028405D01*
X048609Y028553D02*
X047776Y028553D01*
X047776Y028702D02*
X048609Y028702D01*
X048609Y028850D02*
X047776Y028850D01*
X047776Y029147D02*
X048609Y029147D01*
X048609Y028999D02*
X047184Y028999D01*
X047183Y029147D02*
X047034Y029147D01*
X047033Y028999D02*
X045973Y028999D01*
X045609Y028999D02*
X045608Y028999D01*
X045608Y029147D02*
X045609Y029147D01*
X045608Y029296D02*
X045609Y029296D01*
X045608Y029444D02*
X045609Y029444D01*
X045608Y029593D02*
X045609Y029593D01*
X045273Y029593D02*
X044609Y029593D01*
X044609Y029444D02*
X045184Y029444D01*
X045184Y029296D02*
X044609Y029296D01*
X044609Y029147D02*
X045184Y029147D01*
X045244Y028999D02*
X044609Y028999D01*
X044609Y028256D02*
X048609Y028256D01*
X048609Y028108D02*
X044609Y028108D01*
X044609Y027959D02*
X048609Y027959D01*
X048609Y027810D02*
X044609Y027810D01*
X044609Y027662D02*
X048609Y027662D01*
X048609Y027513D02*
X044609Y027513D01*
X044609Y027365D02*
X048609Y027365D01*
X048609Y027216D02*
X044609Y027216D01*
X041109Y027181D02*
X040109Y026181D01*
X031109Y026181D01*
X030609Y026681D01*
X030609Y029181D01*
X031009Y029581D01*
X032609Y029581D01*
X033109Y029681D02*
X033109Y031181D01*
X033984Y031181D01*
X033984Y031613D01*
X034008Y031638D01*
X034008Y032725D01*
X033984Y032750D01*
X033984Y033681D01*
X036109Y033681D01*
X036109Y029681D01*
X033109Y029681D01*
X033109Y029742D02*
X036109Y029742D01*
X036109Y029890D02*
X033109Y029890D01*
X033109Y030039D02*
X036109Y030039D01*
X036109Y030187D02*
X033109Y030187D01*
X033109Y030336D02*
X036109Y030336D01*
X036109Y030484D02*
X033109Y030484D01*
X033109Y030633D02*
X036109Y030633D01*
X036109Y030781D02*
X033109Y030781D01*
X033109Y030930D02*
X036109Y030930D01*
X036109Y031078D02*
X033109Y031078D01*
X033984Y031227D02*
X036109Y031227D01*
X036109Y031376D02*
X033984Y031376D01*
X033984Y031524D02*
X034323Y031524D01*
X034340Y031506D02*
X034877Y031506D01*
X035008Y031638D01*
X035008Y032725D01*
X034877Y032856D01*
X034340Y032856D01*
X034209Y032725D01*
X034209Y031638D01*
X034340Y031506D01*
X034209Y031673D02*
X034008Y031673D01*
X034008Y031821D02*
X034209Y031821D01*
X034209Y031970D02*
X034008Y031970D01*
X034008Y032118D02*
X034209Y032118D01*
X034209Y032267D02*
X034008Y032267D01*
X034008Y032415D02*
X034209Y032415D01*
X034209Y032564D02*
X034008Y032564D01*
X034008Y032712D02*
X034209Y032712D01*
X033984Y032861D02*
X036109Y032861D01*
X036109Y033009D02*
X033984Y033009D01*
X033984Y033158D02*
X036109Y033158D01*
X036109Y033307D02*
X033984Y033307D01*
X033984Y033455D02*
X036109Y033455D01*
X036109Y033604D02*
X033984Y033604D01*
X035008Y032712D02*
X036109Y032712D01*
X036109Y032564D02*
X035008Y032564D01*
X035008Y032415D02*
X036109Y032415D01*
X036109Y032267D02*
X035008Y032267D01*
X035008Y032118D02*
X036109Y032118D01*
X036109Y031970D02*
X035008Y031970D01*
X035008Y031821D02*
X036109Y031821D01*
X036109Y031673D02*
X035008Y031673D01*
X034894Y031524D02*
X036109Y031524D01*
X036609Y031524D02*
X036932Y031524D01*
X036941Y031514D02*
X037313Y031514D01*
X037313Y032106D01*
X037463Y032106D01*
X037463Y031514D01*
X037835Y031514D01*
X037937Y031617D01*
X037937Y032106D01*
X037463Y032106D01*
X037463Y032256D01*
X037937Y032256D01*
X037937Y032746D01*
X037835Y032849D01*
X037463Y032849D01*
X037463Y032257D01*
X037313Y032257D01*
X037313Y032849D01*
X036941Y032849D01*
X036839Y032746D01*
X036839Y032256D01*
X037313Y032256D01*
X037313Y032106D01*
X036839Y032106D01*
X036839Y031617D01*
X036941Y031514D01*
X036839Y031673D02*
X036609Y031673D01*
X036609Y031821D02*
X036839Y031821D01*
X036839Y031970D02*
X036609Y031970D01*
X036609Y032118D02*
X037313Y032118D01*
X037313Y031970D02*
X037463Y031970D01*
X037463Y032118D02*
X038609Y032118D01*
X038609Y031970D02*
X037937Y031970D01*
X037937Y031821D02*
X038609Y031821D01*
X038609Y031673D02*
X037937Y031673D01*
X037844Y031524D02*
X038609Y031524D01*
X038609Y031376D02*
X036609Y031376D01*
X036609Y031227D02*
X038609Y031227D01*
X038609Y031078D02*
X036609Y031078D01*
X036609Y030930D02*
X038609Y030930D01*
X038609Y030781D02*
X036609Y030781D01*
X036609Y030633D02*
X038609Y030633D01*
X038609Y030484D02*
X038533Y030484D01*
X038533Y030504D02*
X038431Y030606D01*
X038209Y030606D01*
X038209Y030182D01*
X038208Y030182D01*
X038208Y030606D01*
X037986Y030606D01*
X037884Y030504D01*
X037884Y030182D01*
X038208Y030182D01*
X038208Y030181D01*
X037884Y030181D01*
X037884Y029859D01*
X037986Y029756D01*
X038208Y029756D01*
X038208Y030181D01*
X038209Y030181D01*
X038209Y030182D01*
X038533Y030182D01*
X038533Y030504D01*
X038533Y030336D02*
X038609Y030336D01*
X038609Y030187D02*
X038533Y030187D01*
X038533Y030181D02*
X038209Y030181D01*
X038209Y029756D01*
X038431Y029756D01*
X038533Y029859D01*
X038533Y030181D01*
X038533Y030039D02*
X038609Y030039D01*
X038609Y029890D02*
X038533Y029890D01*
X038609Y029742D02*
X037533Y029742D01*
X037533Y029832D02*
X037533Y030054D01*
X037431Y030156D01*
X037109Y030156D01*
X037109Y029832D01*
X037533Y029832D01*
X037533Y029890D02*
X037884Y029890D01*
X037884Y030039D02*
X037533Y030039D01*
X037884Y030187D02*
X036609Y030187D01*
X036609Y030039D02*
X036684Y030039D01*
X036684Y029890D02*
X036609Y029890D01*
X036609Y029742D02*
X036684Y029742D01*
X037108Y029890D02*
X037109Y029890D01*
X037108Y030039D02*
X037109Y030039D01*
X036609Y030336D02*
X037884Y030336D01*
X037884Y030484D02*
X036609Y030484D01*
X038208Y030484D02*
X038209Y030484D01*
X038208Y030336D02*
X038209Y030336D01*
X038208Y030187D02*
X038209Y030187D01*
X038208Y030039D02*
X038209Y030039D01*
X038208Y029890D02*
X038209Y029890D01*
X037463Y031524D02*
X037313Y031524D01*
X037313Y031673D02*
X037463Y031673D01*
X037463Y031821D02*
X037313Y031821D01*
X037313Y032267D02*
X037463Y032267D01*
X037463Y032415D02*
X037313Y032415D01*
X037313Y032564D02*
X037463Y032564D01*
X037463Y032712D02*
X037313Y032712D01*
X036839Y032712D02*
X036609Y032712D01*
X036609Y032564D02*
X036839Y032564D01*
X036839Y032415D02*
X036609Y032415D01*
X036609Y032267D02*
X036839Y032267D01*
X037937Y032267D02*
X038609Y032267D01*
X038609Y032415D02*
X037937Y032415D01*
X037937Y032564D02*
X038609Y032564D01*
X038609Y032712D02*
X037937Y032712D01*
X038609Y032861D02*
X036609Y032861D01*
X036609Y033009D02*
X038609Y033009D01*
X038609Y033158D02*
X036609Y033158D01*
X036609Y033307D02*
X038609Y033307D01*
X038609Y033455D02*
X036609Y033455D01*
X041109Y036681D02*
X041109Y027181D01*
X047034Y028553D02*
X047183Y028553D01*
X047183Y028702D02*
X047034Y028702D01*
X047034Y028850D02*
X047183Y028850D01*
X047183Y029296D02*
X047034Y029296D01*
X047034Y029444D02*
X047183Y029444D01*
X047739Y029444D02*
X048609Y029444D01*
X048609Y029296D02*
X047776Y029296D01*
X038109Y025582D02*
X027609Y025582D01*
X027609Y025434D02*
X038109Y025434D01*
X038109Y025285D02*
X027609Y025285D01*
X027609Y025137D02*
X038109Y025137D01*
X038109Y024988D02*
X027609Y024988D01*
X027609Y024840D02*
X038109Y024840D01*
X038109Y024691D02*
X027609Y024691D01*
X027609Y024543D02*
X038109Y024543D01*
X038109Y024394D02*
X027609Y024394D01*
X027609Y024245D02*
X038109Y024245D01*
X038109Y024097D02*
X027609Y024097D01*
X027609Y023948D02*
X038109Y023948D01*
X044609Y023948D02*
X048853Y023948D01*
X048853Y023800D02*
X044609Y023800D01*
X044609Y023651D02*
X048853Y023651D01*
X048853Y023503D02*
X044609Y023503D01*
X044609Y023354D02*
X048901Y023354D01*
X049347Y023354D02*
X049496Y023354D01*
X049496Y023503D02*
X049347Y023503D01*
X049347Y023651D02*
X049496Y023651D01*
X049496Y023800D02*
X049347Y023800D01*
X049347Y023948D02*
X049496Y023948D01*
X049496Y024097D02*
X049347Y024097D01*
X049347Y024245D02*
X049496Y024245D01*
X049496Y024394D02*
X049347Y024394D01*
X049347Y024543D02*
X049496Y024543D01*
X049496Y024691D02*
X049347Y024691D01*
X049347Y024840D02*
X049496Y024840D01*
X049496Y024988D02*
X049347Y024988D01*
X048853Y024988D02*
X044609Y024988D01*
X044609Y024840D02*
X048853Y024840D01*
X048853Y024691D02*
X044609Y024691D01*
X044609Y024543D02*
X048853Y024543D01*
X048853Y024394D02*
X044609Y024394D01*
X044609Y024245D02*
X048853Y024245D01*
X048853Y024097D02*
X044609Y024097D01*
X044609Y023206D02*
X049834Y023206D01*
X049935Y023057D02*
X044609Y023057D01*
X052034Y023057D02*
X052183Y023057D01*
X052183Y023206D02*
X052034Y023206D01*
X052034Y023354D02*
X052183Y023354D01*
X052183Y023503D02*
X052034Y023503D01*
X052034Y023651D02*
X052183Y023651D01*
X052183Y023800D02*
X052034Y023800D01*
X052034Y023948D02*
X052183Y023948D01*
X052183Y024097D02*
X052034Y024097D01*
X052034Y024245D02*
X052183Y024245D01*
X052183Y024394D02*
X052034Y024394D01*
X052034Y024543D02*
X052183Y024543D01*
X052183Y024691D02*
X052034Y024691D01*
X052034Y025137D02*
X052183Y025137D01*
X052183Y025285D02*
X052034Y025285D01*
X054721Y024988D02*
X054870Y024988D01*
X054870Y024840D02*
X054721Y024840D01*
X054721Y024691D02*
X054870Y024691D01*
X054870Y024543D02*
X054721Y024543D01*
X054721Y024394D02*
X054870Y024394D01*
X054870Y024245D02*
X054721Y024245D01*
X054721Y024097D02*
X054870Y024097D01*
X054870Y023948D02*
X054721Y023948D01*
X054721Y023800D02*
X054870Y023800D01*
X054870Y023651D02*
X054721Y023651D01*
X054721Y023503D02*
X054870Y023503D01*
X054870Y023354D02*
X054721Y023354D01*
X055364Y025285D02*
X057109Y025285D01*
X057609Y016681D02*
X045109Y016681D01*
X045109Y010681D01*
X057609Y010681D01*
X057609Y016681D01*
X057609Y016670D02*
X045109Y016670D01*
X045109Y016521D02*
X057609Y016521D01*
X057609Y016373D02*
X045109Y016373D01*
X045109Y016224D02*
X056339Y016224D01*
X056339Y016246D02*
X056339Y015756D01*
X056813Y015756D01*
X056813Y015606D01*
X056963Y015606D01*
X056963Y015014D01*
X057335Y015014D01*
X057437Y015117D01*
X057437Y015606D01*
X056963Y015606D01*
X056963Y015756D01*
X057437Y015756D01*
X057437Y016246D01*
X057335Y016349D01*
X056963Y016349D01*
X056963Y015757D01*
X056813Y015757D01*
X056813Y016349D01*
X056441Y016349D01*
X056339Y016246D01*
X056339Y016076D02*
X045109Y016076D01*
X045109Y015927D02*
X056339Y015927D01*
X056339Y015778D02*
X045109Y015778D01*
X045109Y015630D02*
X056813Y015630D01*
X056813Y015606D02*
X056339Y015606D01*
X056339Y015117D01*
X056441Y015014D01*
X056813Y015014D01*
X056813Y015606D01*
X056813Y015481D02*
X056963Y015481D01*
X056963Y015333D02*
X056813Y015333D01*
X056813Y015184D02*
X056963Y015184D01*
X056963Y015036D02*
X056813Y015036D01*
X056420Y015036D02*
X045109Y015036D01*
X045109Y015184D02*
X056339Y015184D01*
X056339Y015333D02*
X045109Y015333D01*
X045109Y015481D02*
X056339Y015481D01*
X056813Y015778D02*
X056963Y015778D01*
X056963Y015630D02*
X057609Y015630D01*
X057609Y015778D02*
X057437Y015778D01*
X057437Y015927D02*
X057609Y015927D01*
X057609Y016076D02*
X057437Y016076D01*
X057437Y016224D02*
X057609Y016224D01*
X056963Y016224D02*
X056813Y016224D01*
X056813Y016076D02*
X056963Y016076D01*
X056963Y015927D02*
X056813Y015927D01*
X057437Y015481D02*
X057609Y015481D01*
X057609Y015333D02*
X057437Y015333D01*
X057437Y015184D02*
X057609Y015184D01*
X057609Y015036D02*
X057356Y015036D01*
X057609Y014887D02*
X045109Y014887D01*
X045109Y014739D02*
X047868Y014739D01*
X047834Y014704D02*
X047834Y014563D01*
X047496Y014563D01*
X047496Y012849D01*
X047347Y012849D01*
X047347Y014563D01*
X046955Y014563D01*
X046853Y014461D01*
X046853Y012849D01*
X047346Y012849D01*
X047346Y012699D01*
X046853Y012699D01*
X046853Y011087D01*
X046955Y010985D01*
X047347Y010985D01*
X047347Y012699D01*
X047496Y012699D01*
X047496Y010985D01*
X047888Y010985D01*
X047898Y010995D01*
X047936Y010956D01*
X050034Y010956D01*
X050034Y012806D01*
X050183Y012806D01*
X050183Y010956D01*
X052281Y010956D01*
X052319Y010995D01*
X052329Y010985D01*
X052721Y010985D01*
X052721Y012699D01*
X052870Y012699D01*
X052870Y010985D01*
X053262Y010985D01*
X053364Y011087D01*
X053364Y012699D01*
X052871Y012699D01*
X052871Y012849D01*
X053364Y012849D01*
X053364Y014461D01*
X053262Y014563D01*
X052870Y014563D01*
X052870Y012849D01*
X052721Y012849D01*
X052721Y014563D01*
X052383Y014563D01*
X052383Y014704D01*
X052281Y014806D01*
X050183Y014806D01*
X050183Y012957D01*
X050034Y012957D01*
X050034Y014806D01*
X047936Y014806D01*
X047834Y014704D01*
X047834Y014590D02*
X045109Y014590D01*
X045109Y014442D02*
X046853Y014442D01*
X046853Y014293D02*
X045109Y014293D01*
X045109Y014144D02*
X046853Y014144D01*
X046853Y013996D02*
X045109Y013996D01*
X045109Y013847D02*
X046853Y013847D01*
X046853Y013699D02*
X045109Y013699D01*
X045109Y013550D02*
X046853Y013550D01*
X046853Y013402D02*
X045109Y013402D01*
X045109Y013253D02*
X046853Y013253D01*
X046853Y013105D02*
X045109Y013105D01*
X045109Y012956D02*
X046853Y012956D01*
X046853Y012659D02*
X045109Y012659D01*
X045109Y012511D02*
X046853Y012511D01*
X046853Y012362D02*
X045109Y012362D01*
X045109Y012213D02*
X046853Y012213D01*
X046853Y012065D02*
X045109Y012065D01*
X045109Y011916D02*
X046853Y011916D01*
X046853Y011768D02*
X045109Y011768D01*
X045109Y011619D02*
X046853Y011619D01*
X046853Y011471D02*
X045109Y011471D01*
X045109Y011322D02*
X046853Y011322D01*
X046853Y011174D02*
X045109Y011174D01*
X045109Y011025D02*
X046915Y011025D01*
X047347Y011025D02*
X047496Y011025D01*
X047496Y011174D02*
X047347Y011174D01*
X047347Y011322D02*
X047496Y011322D01*
X047496Y011471D02*
X047347Y011471D01*
X047347Y011619D02*
X047496Y011619D01*
X047496Y011768D02*
X047347Y011768D01*
X047347Y011916D02*
X047496Y011916D01*
X047496Y012065D02*
X047347Y012065D01*
X047347Y012213D02*
X047496Y012213D01*
X047496Y012362D02*
X047347Y012362D01*
X047347Y012511D02*
X047496Y012511D01*
X047496Y012659D02*
X047347Y012659D01*
X047346Y012808D02*
X045109Y012808D01*
X047347Y012956D02*
X047496Y012956D01*
X047497Y012849D02*
X047990Y012849D01*
X047990Y012956D01*
X050033Y012956D01*
X050033Y012806D01*
X047834Y012806D01*
X047834Y012699D01*
X047497Y012699D01*
X047497Y012849D01*
X047497Y012808D02*
X050033Y012808D01*
X050033Y012956D02*
X047990Y012956D01*
X047496Y013105D02*
X047347Y013105D01*
X047347Y013253D02*
X047496Y013253D01*
X047496Y013402D02*
X047347Y013402D01*
X047347Y013550D02*
X047496Y013550D01*
X047496Y013699D02*
X047347Y013699D01*
X047347Y013847D02*
X047496Y013847D01*
X047496Y013996D02*
X047347Y013996D01*
X047347Y014144D02*
X047496Y014144D01*
X047496Y014293D02*
X047347Y014293D01*
X047347Y014442D02*
X047496Y014442D01*
X050034Y014442D02*
X050183Y014442D01*
X050183Y014590D02*
X050034Y014590D01*
X050034Y014739D02*
X050183Y014739D01*
X050183Y014293D02*
X050034Y014293D01*
X050034Y014144D02*
X050183Y014144D01*
X050183Y013996D02*
X050034Y013996D01*
X050034Y013847D02*
X050183Y013847D01*
X050183Y013699D02*
X050034Y013699D01*
X050034Y013550D02*
X050183Y013550D01*
X050183Y013402D02*
X050034Y013402D01*
X050034Y013253D02*
X050183Y013253D01*
X050183Y013105D02*
X050034Y013105D01*
X050184Y012956D02*
X052227Y012956D01*
X050184Y012956D01*
X050184Y012806D01*
X052383Y012806D01*
X052383Y012699D01*
X052720Y012699D01*
X052720Y012849D01*
X052227Y012849D01*
X052227Y012956D01*
X052721Y012956D02*
X052870Y012956D01*
X052871Y012808D02*
X056935Y012808D01*
X056884Y012859D02*
X056986Y012756D01*
X057208Y012756D01*
X057208Y013181D01*
X056884Y013181D01*
X056884Y012859D01*
X056884Y012956D02*
X053364Y012956D01*
X053364Y013105D02*
X056884Y013105D01*
X056884Y013182D02*
X056884Y013504D01*
X056986Y013606D01*
X057208Y013606D01*
X057208Y013182D01*
X057209Y013182D01*
X057209Y013606D01*
X057431Y013606D01*
X057533Y013504D01*
X057533Y013182D01*
X057209Y013182D01*
X057209Y013181D01*
X057533Y013181D01*
X057533Y012859D01*
X057431Y012756D01*
X057209Y012756D01*
X057209Y013181D01*
X057208Y013181D01*
X057208Y013182D01*
X056884Y013182D01*
X056884Y013253D02*
X053364Y013253D01*
X053364Y013402D02*
X056884Y013402D01*
X056930Y013550D02*
X053364Y013550D01*
X053364Y013699D02*
X057609Y013699D01*
X057609Y013847D02*
X053364Y013847D01*
X053364Y013996D02*
X057609Y013996D01*
X057609Y014144D02*
X053364Y014144D01*
X053364Y014293D02*
X057609Y014293D01*
X057609Y014442D02*
X053364Y014442D01*
X052870Y014442D02*
X052721Y014442D01*
X052721Y014293D02*
X052870Y014293D01*
X052870Y014144D02*
X052721Y014144D01*
X052721Y013996D02*
X052870Y013996D01*
X052870Y013847D02*
X052721Y013847D01*
X052721Y013699D02*
X052870Y013699D01*
X052870Y013550D02*
X052721Y013550D01*
X052721Y013402D02*
X052870Y013402D01*
X052870Y013253D02*
X052721Y013253D01*
X052721Y013105D02*
X052870Y013105D01*
X052720Y012808D02*
X050184Y012808D01*
X050183Y012659D02*
X050034Y012659D01*
X050034Y012511D02*
X050183Y012511D01*
X050183Y012362D02*
X050034Y012362D01*
X050034Y012213D02*
X050183Y012213D01*
X050183Y012065D02*
X050034Y012065D01*
X050034Y011916D02*
X050183Y011916D01*
X050183Y011768D02*
X050034Y011768D01*
X050034Y011619D02*
X050183Y011619D01*
X050183Y011471D02*
X050034Y011471D01*
X050034Y011322D02*
X050183Y011322D01*
X050183Y011174D02*
X050034Y011174D01*
X050034Y011025D02*
X050183Y011025D01*
X052721Y011025D02*
X052870Y011025D01*
X052870Y011174D02*
X052721Y011174D01*
X052721Y011322D02*
X052870Y011322D01*
X052870Y011471D02*
X052721Y011471D01*
X052721Y011619D02*
X052870Y011619D01*
X052870Y011768D02*
X052721Y011768D01*
X052721Y011916D02*
X052870Y011916D01*
X052870Y012065D02*
X052721Y012065D01*
X052721Y012213D02*
X052870Y012213D01*
X052870Y012362D02*
X052721Y012362D01*
X052721Y012511D02*
X052870Y012511D01*
X052870Y012659D02*
X052721Y012659D01*
X053364Y012659D02*
X057609Y012659D01*
X057609Y012511D02*
X053364Y012511D01*
X053364Y012362D02*
X057609Y012362D01*
X057609Y012213D02*
X053364Y012213D01*
X053364Y012065D02*
X057609Y012065D01*
X057609Y011916D02*
X053364Y011916D01*
X053364Y011768D02*
X057609Y011768D01*
X057609Y011619D02*
X053364Y011619D01*
X053364Y011471D02*
X057609Y011471D01*
X057609Y011322D02*
X053364Y011322D01*
X053364Y011174D02*
X057609Y011174D01*
X057609Y011025D02*
X053302Y011025D01*
X057609Y010877D02*
X045109Y010877D01*
X045109Y010728D02*
X057609Y010728D01*
X057609Y009681D02*
X051508Y009681D01*
X051508Y008638D01*
X051484Y008613D01*
X051484Y007681D01*
X057609Y007681D01*
X057609Y009681D01*
X057609Y009540D02*
X051508Y009540D01*
X051508Y009391D02*
X057609Y009391D01*
X057609Y009243D02*
X051508Y009243D01*
X051508Y009094D02*
X057609Y009094D01*
X057609Y008945D02*
X051508Y008945D01*
X051508Y008797D02*
X057609Y008797D01*
X057609Y008648D02*
X051508Y008648D01*
X051484Y008500D02*
X057609Y008500D01*
X057609Y008351D02*
X051484Y008351D01*
X051484Y008203D02*
X057609Y008203D01*
X057609Y008054D02*
X051484Y008054D01*
X051484Y007906D02*
X057609Y007906D01*
X057609Y007757D02*
X051484Y007757D01*
X049134Y007556D02*
X049134Y004156D01*
X049609Y003681D01*
X058109Y003681D01*
X059109Y004681D01*
X059109Y006681D01*
X060609Y008181D01*
X093109Y008181D01*
X096109Y011181D01*
X111609Y011181D01*
X113109Y012681D01*
X113109Y017181D01*
X114609Y018681D01*
X116109Y018681D01*
X122609Y018749D02*
X124853Y018749D01*
X124853Y018601D02*
X122609Y018601D01*
X122609Y018452D02*
X124853Y018452D01*
X124951Y018304D02*
X122609Y018304D01*
X122609Y018898D02*
X124853Y018898D01*
X124853Y019046D02*
X122609Y019046D01*
X122609Y019195D02*
X124853Y019195D01*
X124853Y019344D02*
X122609Y019344D01*
X122609Y019492D02*
X124853Y019492D01*
X124853Y019641D02*
X122609Y019641D01*
X122609Y019789D02*
X124853Y019789D01*
X124853Y019938D02*
X122609Y019938D01*
X122609Y020086D02*
X125346Y020086D01*
X125347Y019938D02*
X125496Y019938D01*
X125496Y019789D02*
X125347Y019789D01*
X125347Y019641D02*
X125496Y019641D01*
X125496Y019492D02*
X125347Y019492D01*
X125347Y019344D02*
X125496Y019344D01*
X125496Y019195D02*
X125347Y019195D01*
X125347Y019046D02*
X125496Y019046D01*
X125496Y018898D02*
X125347Y018898D01*
X125347Y018749D02*
X125496Y018749D01*
X125496Y018601D02*
X125347Y018601D01*
X125347Y018452D02*
X125496Y018452D01*
X125496Y018304D02*
X125347Y018304D01*
X128034Y018304D02*
X128183Y018304D01*
X128183Y018181D02*
X128183Y019806D01*
X128034Y019806D01*
X128034Y018181D01*
X128183Y018181D01*
X128183Y018452D02*
X128034Y018452D01*
X128034Y018601D02*
X128183Y018601D01*
X128183Y018749D02*
X128034Y018749D01*
X128034Y018898D02*
X128183Y018898D01*
X128183Y019046D02*
X128034Y019046D01*
X128034Y019195D02*
X128183Y019195D01*
X128183Y019344D02*
X128034Y019344D01*
X128034Y019492D02*
X128183Y019492D01*
X128183Y019641D02*
X128034Y019641D01*
X128034Y019789D02*
X128183Y019789D01*
X128184Y019806D02*
X130227Y019806D01*
X130227Y019956D01*
X128184Y019956D01*
X128184Y019806D01*
X128184Y019938D02*
X130227Y019938D01*
X130721Y020235D02*
X130870Y020235D01*
X130870Y020383D02*
X130721Y020383D01*
X130721Y020532D02*
X130870Y020532D01*
X130870Y020680D02*
X130721Y020680D01*
X130721Y020829D02*
X130870Y020829D01*
X130870Y020977D02*
X130721Y020977D01*
X130721Y021126D02*
X130870Y021126D01*
X130870Y021275D02*
X130721Y021275D01*
X130721Y021423D02*
X130870Y021423D01*
X130870Y021572D02*
X130721Y021572D01*
X130721Y021720D02*
X130870Y021720D01*
X130870Y021869D02*
X130721Y021869D01*
X130320Y021869D02*
X125897Y021869D01*
X125496Y021869D02*
X125347Y021869D01*
X125347Y021720D02*
X125496Y021720D01*
X125496Y021572D02*
X125347Y021572D01*
X125347Y021423D02*
X125496Y021423D01*
X125496Y021275D02*
X125347Y021275D01*
X125347Y021126D02*
X125496Y021126D01*
X125496Y020977D02*
X125347Y020977D01*
X125347Y020829D02*
X125496Y020829D01*
X125496Y020680D02*
X125347Y020680D01*
X125347Y020532D02*
X125496Y020532D01*
X125496Y020383D02*
X125347Y020383D01*
X125347Y020235D02*
X125496Y020235D01*
X125990Y019956D02*
X128033Y019956D01*
X128033Y019806D01*
X125990Y019806D01*
X125990Y019956D01*
X125990Y019938D02*
X128033Y019938D01*
X128034Y020086D02*
X128183Y020086D01*
X128183Y020235D02*
X128034Y020235D01*
X128034Y020383D02*
X128183Y020383D01*
X128183Y020532D02*
X128034Y020532D01*
X128034Y020680D02*
X128183Y020680D01*
X128183Y020829D02*
X128034Y020829D01*
X128034Y020977D02*
X128183Y020977D01*
X128183Y021126D02*
X128034Y021126D01*
X128034Y021275D02*
X128183Y021275D01*
X128183Y021423D02*
X128034Y021423D01*
X128034Y021572D02*
X128183Y021572D01*
X128183Y021720D02*
X128034Y021720D01*
X124946Y021869D02*
X122609Y021869D01*
X122609Y022017D02*
X134109Y022017D01*
X134109Y021869D02*
X131271Y021869D01*
X131364Y021720D02*
X134109Y021720D01*
X134109Y021572D02*
X131364Y021572D01*
X131364Y021423D02*
X134109Y021423D01*
X134109Y021275D02*
X131364Y021275D01*
X131364Y021126D02*
X134109Y021126D01*
X134109Y020977D02*
X131364Y020977D01*
X131364Y020829D02*
X134109Y020829D01*
X138109Y020606D02*
X138109Y020282D01*
X138108Y020282D01*
X138108Y020281D01*
X138109Y020281D01*
X138109Y020282D01*
X138533Y020282D01*
X138533Y020504D01*
X138431Y020606D01*
X138109Y020606D01*
X138108Y020532D02*
X138109Y020532D01*
X138108Y020383D02*
X138109Y020383D01*
X138109Y020281D02*
X138533Y020281D01*
X138533Y020059D01*
X138431Y019956D01*
X138109Y019956D01*
X138109Y020281D01*
X138108Y020235D02*
X138109Y020235D01*
X138108Y020086D02*
X138109Y020086D01*
X138533Y020086D02*
X138934Y020086D01*
X138934Y020235D02*
X138533Y020235D01*
X138533Y020383D02*
X138934Y020383D01*
X138961Y020532D02*
X138506Y020532D01*
X139358Y020532D02*
X139359Y020532D01*
X139358Y020383D02*
X139359Y020383D01*
X139358Y020235D02*
X139359Y020235D01*
X139358Y020086D02*
X139359Y020086D01*
X134109Y022166D02*
X122609Y022166D01*
X122609Y022314D02*
X134109Y022314D01*
X134109Y022463D02*
X122609Y022463D01*
X122609Y022611D02*
X134109Y022611D01*
X124853Y021720D02*
X122609Y021720D01*
X122609Y021572D02*
X124853Y021572D01*
X124853Y021423D02*
X122609Y021423D01*
X122609Y021275D02*
X124853Y021275D01*
X124853Y021126D02*
X122609Y021126D01*
X122609Y020977D02*
X124853Y020977D01*
X124853Y020829D02*
X122609Y020829D01*
X122609Y020680D02*
X124853Y020680D01*
X124853Y020532D02*
X122609Y020532D01*
X122609Y020383D02*
X124853Y020383D01*
X124853Y020235D02*
X122609Y020235D01*
X146109Y024691D02*
X150759Y024691D01*
X150759Y024543D02*
X150609Y024543D01*
X150609Y024394D02*
X150759Y024394D01*
X151893Y024840D02*
X152609Y024840D01*
X152596Y024691D02*
X152609Y024691D01*
X152596Y024543D02*
X152609Y024543D01*
X152596Y024394D02*
X152609Y024394D01*
X152596Y024245D02*
X152609Y024245D01*
X152596Y024194D02*
X152596Y024169D01*
X152259Y024169D01*
X152121Y024169D01*
X152121Y024194D01*
X152259Y024194D01*
X152596Y024194D01*
X152121Y024245D02*
X152096Y024245D01*
X152096Y024394D02*
X152121Y024394D01*
X152121Y024543D02*
X152096Y024543D01*
X152096Y024691D02*
X152121Y024691D01*
X154008Y024681D02*
X157609Y024681D01*
X157609Y026181D01*
X160609Y026181D01*
X160609Y023181D01*
X153984Y023181D01*
X153984Y023613D01*
X154008Y023638D01*
X154008Y024681D01*
X154008Y024543D02*
X160609Y024543D01*
X160609Y024691D02*
X157609Y024691D01*
X157609Y024840D02*
X160609Y024840D01*
X160609Y024988D02*
X157609Y024988D01*
X157609Y025137D02*
X160609Y025137D01*
X160609Y025285D02*
X157609Y025285D01*
X157609Y025434D02*
X160609Y025434D01*
X160609Y025582D02*
X157609Y025582D01*
X157609Y025731D02*
X160609Y025731D01*
X160609Y025879D02*
X157609Y025879D01*
X157609Y026028D02*
X160609Y026028D01*
X160609Y026176D02*
X157609Y026176D01*
X157109Y026176D02*
X154883Y026176D01*
X154853Y026028D02*
X157109Y026028D01*
X157109Y025879D02*
X148245Y025879D01*
X148276Y025731D02*
X157109Y025731D01*
X157109Y026325D02*
X155787Y026325D01*
X155864Y026474D02*
X157109Y026474D01*
X157109Y026622D02*
X155864Y026622D01*
X155864Y026771D02*
X157109Y026771D01*
X157109Y026919D02*
X155864Y026919D01*
X155864Y027068D02*
X157109Y027068D01*
X157109Y027216D02*
X155864Y027216D01*
X155864Y027365D02*
X157109Y027365D01*
X157109Y027513D02*
X155864Y027513D01*
X155864Y027662D02*
X157109Y027662D01*
X157109Y027810D02*
X155864Y027810D01*
X155864Y027959D02*
X157109Y027959D01*
X157109Y028108D02*
X155371Y028108D01*
X155370Y028256D02*
X155221Y028256D01*
X155221Y028405D02*
X155370Y028405D01*
X155370Y028553D02*
X155221Y028553D01*
X155221Y028702D02*
X155370Y028702D01*
X155370Y028850D02*
X155221Y028850D01*
X155221Y028999D02*
X155370Y028999D01*
X155370Y029147D02*
X155221Y029147D01*
X155221Y029296D02*
X155370Y029296D01*
X155370Y029444D02*
X155221Y029444D01*
X155221Y029593D02*
X155370Y029593D01*
X155370Y029742D02*
X155221Y029742D01*
X155864Y029742D02*
X157109Y029742D01*
X157109Y029593D02*
X155864Y029593D01*
X155864Y029444D02*
X157109Y029444D01*
X157109Y029296D02*
X155864Y029296D01*
X155864Y029147D02*
X157109Y029147D01*
X157109Y028999D02*
X155864Y028999D01*
X155864Y028850D02*
X157109Y028850D01*
X157109Y028702D02*
X155864Y028702D01*
X155864Y028553D02*
X157109Y028553D01*
X157109Y028405D02*
X155864Y028405D01*
X155864Y028256D02*
X157109Y028256D01*
X155370Y027959D02*
X155221Y027959D01*
X155221Y027810D02*
X155370Y027810D01*
X155370Y027662D02*
X155221Y027662D01*
X155221Y027513D02*
X155370Y027513D01*
X155370Y027365D02*
X155221Y027365D01*
X155221Y027216D02*
X155370Y027216D01*
X155370Y027068D02*
X155221Y027068D01*
X155221Y026919D02*
X155370Y026919D01*
X155370Y026771D02*
X155221Y026771D01*
X155221Y026622D02*
X155370Y026622D01*
X155370Y026474D02*
X155221Y026474D01*
X155221Y026325D02*
X155370Y026325D01*
X150364Y026028D02*
X146109Y026028D01*
X146109Y026176D02*
X150334Y026176D01*
X149996Y026325D02*
X149847Y026325D01*
X149847Y026474D02*
X149996Y026474D01*
X149996Y026622D02*
X149847Y026622D01*
X149847Y026771D02*
X149996Y026771D01*
X149996Y026919D02*
X149847Y026919D01*
X149847Y027068D02*
X149996Y027068D01*
X149996Y027216D02*
X149847Y027216D01*
X149847Y027365D02*
X149996Y027365D01*
X149996Y027513D02*
X149847Y027513D01*
X149847Y027662D02*
X149996Y027662D01*
X149996Y027810D02*
X149847Y027810D01*
X149847Y027959D02*
X149996Y027959D01*
X149353Y027810D02*
X146109Y027810D01*
X146109Y027662D02*
X149353Y027662D01*
X149353Y027513D02*
X146109Y027513D01*
X146109Y027365D02*
X149353Y027365D01*
X149353Y027216D02*
X146109Y027216D01*
X146109Y027068D02*
X149353Y027068D01*
X149353Y026919D02*
X146109Y026919D01*
X146109Y026771D02*
X149353Y026771D01*
X149353Y026622D02*
X146109Y026622D01*
X146109Y026474D02*
X149353Y026474D01*
X149430Y026325D02*
X146109Y026325D01*
X146109Y025879D02*
X146972Y025879D01*
X146941Y025731D02*
X146109Y025731D01*
X147534Y025731D02*
X147683Y025731D01*
X147683Y025879D02*
X147534Y025879D01*
X147534Y025285D02*
X147683Y025285D01*
X147683Y025137D02*
X147534Y025137D01*
X147534Y024988D02*
X147683Y024988D01*
X149108Y024988D02*
X149109Y024988D01*
X149108Y024840D02*
X149109Y024840D01*
X149108Y025137D02*
X149109Y025137D01*
X149108Y025285D02*
X149109Y025285D01*
X154008Y024394D02*
X160609Y024394D01*
X160609Y024245D02*
X154008Y024245D01*
X154008Y024097D02*
X160609Y024097D01*
X160609Y023948D02*
X154008Y023948D01*
X154008Y023800D02*
X160609Y023800D01*
X160609Y023651D02*
X154008Y023651D01*
X153984Y023503D02*
X160609Y023503D01*
X160609Y023354D02*
X153984Y023354D01*
X153984Y023206D02*
X160609Y023206D01*
X134109Y027216D02*
X132984Y027216D01*
X132984Y027365D02*
X134109Y027365D01*
X134109Y027513D02*
X132984Y027513D01*
X132984Y027662D02*
X134109Y027662D01*
X134109Y027810D02*
X132984Y027810D01*
X132984Y027959D02*
X134109Y027959D01*
X134109Y028108D02*
X132984Y028108D01*
X132984Y028256D02*
X134109Y028256D01*
X134109Y028405D02*
X132984Y028405D01*
X132984Y028553D02*
X134109Y028553D01*
X133609Y015481D02*
X128993Y015481D01*
X128993Y015333D02*
X133609Y015333D01*
X133609Y015184D02*
X128993Y015184D01*
X128984Y015036D02*
X133609Y015036D01*
X133609Y014887D02*
X128984Y014887D01*
X128984Y014739D02*
X133609Y014739D01*
X133609Y014590D02*
X128609Y014590D01*
X128609Y014442D02*
X133609Y014442D01*
X133609Y014293D02*
X128609Y014293D01*
X128609Y014144D02*
X133609Y014144D01*
X133609Y013996D02*
X128609Y013996D01*
X128609Y013847D02*
X133609Y013847D01*
X133609Y013699D02*
X128609Y013699D01*
X145609Y013550D02*
X151609Y013550D01*
X151609Y013402D02*
X145609Y013402D01*
X145609Y013253D02*
X151609Y013253D01*
X151609Y013105D02*
X145609Y013105D01*
X145609Y012956D02*
X151609Y012956D01*
X151609Y012808D02*
X145609Y012808D01*
X153034Y011619D02*
X153183Y011619D01*
X153183Y011471D02*
X153034Y011471D01*
X153034Y011322D02*
X153183Y011322D01*
X153183Y011174D02*
X153034Y011174D01*
X153034Y011025D02*
X153183Y011025D01*
X153183Y010877D02*
X153034Y010877D01*
X153034Y010728D02*
X153183Y010728D01*
X153183Y010579D02*
X153034Y010579D01*
X153033Y010556D02*
X150990Y010556D01*
X150990Y010406D01*
X153033Y010406D01*
X153033Y010556D01*
X153033Y010431D02*
X150990Y010431D01*
X153034Y010282D02*
X153183Y010282D01*
X153184Y010406D02*
X155227Y010406D01*
X155227Y010556D01*
X153184Y010556D01*
X153184Y010406D01*
X153184Y010431D02*
X155227Y010431D01*
X155721Y010431D02*
X155870Y010431D01*
X155870Y010579D02*
X155721Y010579D01*
X155721Y010728D02*
X155870Y010728D01*
X155870Y010877D02*
X155721Y010877D01*
X155721Y011025D02*
X155870Y011025D01*
X155870Y011174D02*
X155721Y011174D01*
X155721Y011322D02*
X155870Y011322D01*
X155870Y011471D02*
X155721Y011471D01*
X155721Y011619D02*
X155870Y011619D01*
X155870Y011768D02*
X155721Y011768D01*
X155383Y011916D02*
X156609Y011916D01*
X156609Y011768D02*
X156364Y011768D01*
X156364Y011619D02*
X156609Y011619D01*
X156609Y011471D02*
X156364Y011471D01*
X156364Y011322D02*
X156609Y011322D01*
X156609Y011174D02*
X156364Y011174D01*
X156364Y011025D02*
X156609Y011025D01*
X156609Y010877D02*
X156364Y010877D01*
X156364Y010728D02*
X156609Y010728D01*
X156609Y010579D02*
X156364Y010579D01*
X156364Y010431D02*
X156609Y010431D01*
X156609Y010282D02*
X156364Y010282D01*
X156609Y010134D02*
X155871Y010134D01*
X155870Y010282D02*
X155721Y010282D01*
X155721Y009985D02*
X155870Y009985D01*
X155870Y009837D02*
X155721Y009837D01*
X155721Y009688D02*
X155870Y009688D01*
X155870Y009540D02*
X155721Y009540D01*
X155721Y009391D02*
X155870Y009391D01*
X155870Y009243D02*
X155721Y009243D01*
X155721Y009094D02*
X155870Y009094D01*
X155870Y008945D02*
X155721Y008945D01*
X155721Y008797D02*
X155870Y008797D01*
X155870Y008648D02*
X155721Y008648D01*
X155721Y008500D02*
X155870Y008500D01*
X155870Y008351D02*
X155721Y008351D01*
X155278Y008351D02*
X150939Y008351D01*
X150990Y008500D02*
X155227Y008500D01*
X156313Y008351D02*
X156609Y008351D01*
X156609Y008203D02*
X148609Y008203D01*
X148609Y008054D02*
X151109Y008054D01*
X151109Y007906D02*
X148609Y007906D01*
X148609Y007757D02*
X151109Y007757D01*
X151109Y007609D02*
X148609Y007609D01*
X148609Y007460D02*
X151109Y007460D01*
X151109Y007311D02*
X150872Y007311D01*
X150835Y007349D02*
X150463Y007349D01*
X150463Y006757D01*
X150313Y006757D01*
X150313Y007349D01*
X149941Y007349D01*
X149839Y007246D01*
X149839Y006756D01*
X150313Y006756D01*
X150313Y006606D01*
X150463Y006606D01*
X150463Y006014D01*
X150835Y006014D01*
X150937Y006117D01*
X150937Y006606D01*
X150463Y006606D01*
X150463Y006756D01*
X150937Y006756D01*
X150937Y007246D01*
X150835Y007349D01*
X150937Y007163D02*
X151109Y007163D01*
X151109Y007014D02*
X150937Y007014D01*
X150937Y006866D02*
X151109Y006866D01*
X151109Y006717D02*
X150463Y006717D01*
X150463Y006569D02*
X150313Y006569D01*
X150313Y006606D02*
X150313Y006014D01*
X149941Y006014D01*
X149839Y006117D01*
X149839Y006606D01*
X150313Y006606D01*
X150313Y006717D02*
X148609Y006717D01*
X148609Y006569D02*
X149839Y006569D01*
X149839Y006420D02*
X148609Y006420D01*
X148609Y006272D02*
X149839Y006272D01*
X149839Y006123D02*
X148609Y006123D01*
X148609Y005975D02*
X151109Y005975D01*
X151109Y006123D02*
X150937Y006123D01*
X150937Y006272D02*
X151109Y006272D01*
X151109Y006420D02*
X150937Y006420D01*
X150937Y006569D02*
X151109Y006569D01*
X150463Y006420D02*
X150313Y006420D01*
X150313Y006272D02*
X150463Y006272D01*
X150463Y006123D02*
X150313Y006123D01*
X151109Y005826D02*
X148609Y005826D01*
X148609Y005678D02*
X151109Y005678D01*
X151109Y005529D02*
X148609Y005529D01*
X148609Y005380D02*
X151109Y005380D01*
X151109Y005232D02*
X148609Y005232D01*
X148609Y005083D02*
X150463Y005083D01*
X150486Y005106D02*
X150384Y005004D01*
X150384Y004682D01*
X150708Y004682D01*
X150708Y005106D01*
X150486Y005106D01*
X150384Y004935D02*
X148609Y004935D01*
X148609Y004786D02*
X150384Y004786D01*
X150384Y004681D02*
X150384Y004359D01*
X150486Y004256D01*
X150708Y004256D01*
X150708Y004681D01*
X150384Y004681D01*
X150384Y004638D02*
X148609Y004638D01*
X148609Y004489D02*
X150384Y004489D01*
X150402Y004341D02*
X148609Y004341D01*
X148609Y004192D02*
X151109Y004192D01*
X151109Y004341D02*
X151015Y004341D01*
X151033Y004359D02*
X151033Y004681D01*
X150709Y004681D01*
X150709Y004682D01*
X150708Y004682D01*
X150708Y004681D01*
X150709Y004681D01*
X150709Y004256D01*
X150931Y004256D01*
X151033Y004359D01*
X151033Y004489D02*
X151109Y004489D01*
X151109Y004638D02*
X151033Y004638D01*
X151033Y004682D02*
X151033Y005004D01*
X150931Y005106D01*
X150709Y005106D01*
X150709Y004682D01*
X151033Y004682D01*
X151033Y004786D02*
X151109Y004786D01*
X151109Y004935D02*
X151033Y004935D01*
X151109Y005083D02*
X150954Y005083D01*
X150709Y005083D02*
X150708Y005083D01*
X150708Y004935D02*
X150709Y004935D01*
X150708Y004786D02*
X150709Y004786D01*
X150708Y004638D02*
X150709Y004638D01*
X150708Y004489D02*
X150709Y004489D01*
X150708Y004341D02*
X150709Y004341D01*
X137609Y002261D02*
X126609Y002261D01*
X126609Y002112D02*
X137609Y002112D01*
X137609Y001964D02*
X126609Y001964D01*
X126609Y001815D02*
X137609Y001815D01*
X137609Y001667D02*
X126609Y001667D01*
X126609Y001518D02*
X137609Y001518D01*
X137609Y001370D02*
X126609Y001370D01*
X126609Y001221D02*
X137609Y001221D01*
X148609Y006866D02*
X149839Y006866D01*
X149839Y007014D02*
X148609Y007014D01*
X148609Y007163D02*
X149839Y007163D01*
X149904Y007311D02*
X148609Y007311D01*
X150313Y007311D02*
X150463Y007311D01*
X150463Y007163D02*
X150313Y007163D01*
X150313Y007014D02*
X150463Y007014D01*
X150463Y006866D02*
X150313Y006866D01*
X153034Y008648D02*
X153183Y008648D01*
X153183Y008797D02*
X153034Y008797D01*
X153034Y008945D02*
X153183Y008945D01*
X153183Y009094D02*
X153034Y009094D01*
X153034Y009243D02*
X153183Y009243D01*
X153183Y009391D02*
X153034Y009391D01*
X153034Y009540D02*
X153183Y009540D01*
X153183Y009688D02*
X153034Y009688D01*
X153034Y009837D02*
X153183Y009837D01*
X153183Y009985D02*
X153034Y009985D01*
X153034Y010134D02*
X153183Y010134D01*
X156364Y009985D02*
X156609Y009985D01*
X156609Y009837D02*
X156364Y009837D01*
X156364Y009688D02*
X156609Y009688D01*
X156609Y009540D02*
X156364Y009540D01*
X156364Y009391D02*
X156609Y009391D01*
X156609Y009243D02*
X156364Y009243D01*
X156364Y009094D02*
X156609Y009094D01*
X156609Y008945D02*
X156364Y008945D01*
X156364Y008797D02*
X156609Y008797D01*
X156609Y008648D02*
X156364Y008648D01*
X156364Y008500D02*
X156609Y008500D01*
X156609Y012065D02*
X155383Y012065D01*
X155383Y012213D02*
X156609Y012213D01*
X156609Y012362D02*
X155325Y012362D01*
X057609Y012808D02*
X057482Y012808D01*
X057533Y012956D02*
X057609Y012956D01*
X057609Y013105D02*
X057533Y013105D01*
X057533Y013253D02*
X057609Y013253D01*
X057609Y013402D02*
X057533Y013402D01*
X057487Y013550D02*
X057609Y013550D01*
X057209Y013550D02*
X057208Y013550D01*
X057208Y013402D02*
X057209Y013402D01*
X057208Y013253D02*
X057209Y013253D01*
X057208Y013105D02*
X057209Y013105D01*
X057208Y012956D02*
X057209Y012956D01*
X057208Y012808D02*
X057209Y012808D01*
X057609Y014590D02*
X052383Y014590D01*
X052349Y014739D02*
X057609Y014739D01*
X036109Y011181D02*
X030709Y011181D01*
X030609Y011281D01*
X029234Y011322D02*
X024609Y011322D01*
X024609Y011174D02*
X029234Y011174D01*
X029234Y011025D02*
X024609Y011025D01*
X024609Y010877D02*
X029234Y010877D01*
X029234Y010728D02*
X024609Y010728D01*
X024609Y010579D02*
X029234Y010579D01*
X029234Y010431D02*
X024609Y010431D01*
X024609Y010282D02*
X029234Y010282D01*
X029234Y010134D02*
X024609Y010134D01*
X024609Y009985D02*
X029234Y009985D01*
X029234Y009837D02*
X024609Y009837D01*
X024609Y009688D02*
X029234Y009688D01*
X029234Y009540D02*
X024609Y009540D01*
X024609Y009391D02*
X029234Y009391D01*
X029234Y009243D02*
X024609Y009243D01*
X024609Y009094D02*
X029234Y009094D01*
X029234Y008945D02*
X024609Y008945D01*
X024609Y008797D02*
X028281Y008797D01*
X028340Y008856D02*
X028209Y008725D01*
X028209Y007638D01*
X028340Y007506D01*
X028877Y007506D01*
X029008Y007638D01*
X029008Y008725D01*
X028877Y008856D01*
X028340Y008856D01*
X028209Y008648D02*
X024609Y008648D01*
X024609Y008500D02*
X028209Y008500D01*
X028209Y008351D02*
X024609Y008351D01*
X024609Y008203D02*
X028209Y008203D01*
X028209Y008054D02*
X024609Y008054D01*
X024609Y007906D02*
X028209Y007906D01*
X028209Y007757D02*
X024609Y007757D01*
X024609Y007609D02*
X028238Y007609D01*
X028979Y007609D02*
X029234Y007609D01*
X029234Y007613D02*
X029234Y007431D01*
X024609Y007431D01*
X024609Y013181D01*
X029234Y013181D01*
X029234Y008750D01*
X029209Y008725D01*
X029209Y007638D01*
X029234Y007613D01*
X029209Y007757D02*
X029008Y007757D01*
X029008Y007906D02*
X029209Y007906D01*
X029209Y008054D02*
X029008Y008054D01*
X029008Y008203D02*
X029209Y008203D01*
X029209Y008351D02*
X029008Y008351D01*
X029008Y008500D02*
X029209Y008500D01*
X029209Y008648D02*
X029008Y008648D01*
X028936Y008797D02*
X029234Y008797D01*
X029234Y007460D02*
X024609Y007460D01*
X037708Y005083D02*
X037709Y005083D01*
X037708Y004935D02*
X037709Y004935D01*
X037708Y004786D02*
X037709Y004786D01*
X037708Y004638D02*
X037709Y004638D01*
X037708Y004489D02*
X037709Y004489D01*
X037708Y004341D02*
X037709Y004341D01*
X038015Y004341D02*
X038109Y004341D01*
X038109Y004489D02*
X038033Y004489D01*
X038033Y004638D02*
X038109Y004638D01*
X038109Y004786D02*
X038033Y004786D01*
X038033Y004935D02*
X038109Y004935D01*
X038109Y005083D02*
X037954Y005083D01*
X029234Y011471D02*
X024609Y011471D01*
X024609Y011619D02*
X029234Y011619D01*
X029234Y011768D02*
X024609Y011768D01*
X024609Y011916D02*
X029234Y011916D01*
X029234Y012065D02*
X024609Y012065D01*
X024609Y012213D02*
X029234Y012213D01*
X029234Y012362D02*
X024609Y012362D01*
X024609Y012511D02*
X029234Y012511D01*
X029234Y012659D02*
X024609Y012659D01*
X024609Y012808D02*
X029234Y012808D01*
X029234Y012956D02*
X024609Y012956D01*
X024609Y013105D02*
X029234Y013105D01*
M02*
