G75*
G70*
%OFA0B0*%
%FSLAX24Y24*%
%IPPOS*%
%LPD*%
%AMOC8*
5,1,8,0,0,1.08239X$1,22.5*
%
%ADD10C,0.0080*%
%ADD11C,0.1004*%
%ADD12C,0.1181*%
%ADD13C,0.2410*%
%ADD14C,0.0709*%
%ADD15C,0.0590*%
%ADD16C,0.0455*%
%ADD17C,0.0396*%
%ADD18C,0.0150*%
D10*
X197147Y000825D02*
X197251Y000721D01*
X197458Y000721D01*
X197561Y000825D01*
X197354Y001032D02*
X197251Y001032D01*
X197147Y000928D01*
X197147Y000825D01*
X197251Y001032D02*
X197147Y001135D01*
X197147Y001239D01*
X197251Y001342D01*
X197458Y001342D01*
X197561Y001239D01*
D11*
X170471Y004681D03*
X150471Y004681D03*
X130471Y004681D03*
X110471Y004681D03*
X110471Y012181D03*
X130471Y012181D03*
X150471Y012181D03*
X170471Y012181D03*
X170471Y019681D03*
X150471Y019681D03*
X130471Y019681D03*
X110471Y019681D03*
X110471Y027181D03*
X130471Y027181D03*
X150471Y027181D03*
X170471Y027181D03*
X170471Y034681D03*
X150471Y034681D03*
X130471Y034681D03*
X110471Y034681D03*
X070471Y034681D03*
X050471Y034681D03*
X030471Y034681D03*
X010471Y034681D03*
X010471Y027181D03*
X030471Y027181D03*
X050471Y027181D03*
X070471Y027181D03*
X070471Y019681D03*
X050471Y019681D03*
X030471Y019681D03*
X010471Y019681D03*
X010471Y012181D03*
X030471Y012181D03*
X050471Y012181D03*
X070471Y012181D03*
X070471Y004681D03*
X050471Y004681D03*
X030471Y004681D03*
X010471Y004681D03*
D12*
X011101Y002654D03*
X031101Y002654D03*
X051101Y002654D03*
X051101Y006709D03*
X051101Y010154D03*
X031101Y010154D03*
X031101Y006709D03*
X011101Y006709D03*
X011101Y010154D03*
X011101Y014209D03*
X011101Y017654D03*
X031101Y017654D03*
X031101Y014209D03*
X051101Y014209D03*
X051101Y017654D03*
X051101Y021709D03*
X051101Y025154D03*
X031101Y025154D03*
X031101Y021709D03*
X011101Y021709D03*
X011101Y025154D03*
X011101Y029209D03*
X011101Y032654D03*
X031101Y032654D03*
X031101Y029209D03*
X051101Y029209D03*
X051101Y032654D03*
X051101Y036709D03*
X031101Y036709D03*
X011101Y036709D03*
X071101Y036709D03*
X071101Y032654D03*
X071101Y029209D03*
X071101Y025154D03*
X071101Y021709D03*
X071101Y017654D03*
X071101Y014209D03*
X071101Y010154D03*
X071101Y006709D03*
X071101Y002654D03*
X111101Y002654D03*
X111101Y006709D03*
X111101Y010154D03*
X111101Y014209D03*
X111101Y017654D03*
X111101Y021709D03*
X111101Y025154D03*
X111101Y029209D03*
X111101Y032654D03*
X111101Y036709D03*
X131101Y036709D03*
X151101Y036709D03*
X151101Y032654D03*
X151101Y029209D03*
X131101Y029209D03*
X131101Y032654D03*
X131101Y025154D03*
X131101Y021709D03*
X151101Y021709D03*
X151101Y025154D03*
X171101Y025154D03*
X171101Y021709D03*
X171101Y017654D03*
X171101Y014209D03*
X171101Y010154D03*
X171101Y006709D03*
X171101Y002654D03*
X151101Y002654D03*
X131101Y002654D03*
X131101Y006709D03*
X131101Y010154D03*
X151101Y010154D03*
X151101Y006709D03*
X151101Y014209D03*
X151101Y017654D03*
X131101Y017654D03*
X131101Y014209D03*
X171101Y029209D03*
X171101Y032654D03*
X171101Y036709D03*
D13*
X197601Y037181D03*
X097101Y037181D03*
X003601Y037181D03*
X004101Y003681D03*
X097101Y003181D03*
X197601Y003681D03*
D14*
X193735Y011217D03*
X193735Y012595D03*
X193735Y014662D03*
X193735Y016040D03*
X193735Y018107D03*
X193735Y019485D03*
X193735Y021551D03*
X193735Y022929D03*
X193735Y024996D03*
X193735Y026374D03*
X193735Y028441D03*
X193735Y029819D03*
D15*
X097601Y028681D03*
X096601Y028681D03*
X096601Y027681D03*
X097601Y027681D03*
X097601Y026681D03*
X096601Y026681D03*
X096601Y025681D03*
X097601Y025681D03*
X097601Y024681D03*
X096601Y024681D03*
X096601Y023681D03*
X097601Y023681D03*
X097601Y022681D03*
X096601Y022681D03*
X096601Y021681D03*
X097601Y021681D03*
X097601Y020681D03*
X096601Y020681D03*
X096601Y019681D03*
X097601Y019681D03*
X097601Y018681D03*
X096601Y018681D03*
X096601Y017681D03*
X097601Y017681D03*
X097601Y016681D03*
X096601Y016681D03*
X096601Y015681D03*
X097601Y015681D03*
D16*
X088101Y014681D03*
X087101Y012681D03*
X086101Y012681D03*
X082101Y012681D03*
X082601Y011681D03*
X084101Y011181D03*
X079601Y010181D03*
X080601Y009681D03*
X077601Y011181D03*
X090851Y008681D03*
X061601Y004681D03*
X060101Y006681D03*
X061601Y013181D03*
X066601Y015681D03*
X064601Y016681D03*
X061101Y016681D03*
X059601Y016681D03*
X057101Y020681D03*
X060601Y021681D03*
X062101Y021681D03*
X066101Y022181D03*
X064601Y023681D03*
X060101Y025181D03*
X055601Y022181D03*
X075601Y021681D03*
X077601Y023181D03*
X082101Y027181D03*
X078601Y027681D03*
X077101Y029181D03*
X084101Y029681D03*
X088101Y029681D03*
X086101Y028181D03*
X160601Y031681D03*
X162101Y031681D03*
X166601Y032181D03*
X168101Y030681D03*
X173101Y032181D03*
X174101Y030181D03*
X178101Y028681D03*
X181101Y028181D03*
X179601Y027181D03*
X162601Y027681D03*
X183101Y030681D03*
X164601Y034681D03*
X163101Y036181D03*
X173101Y018681D03*
X174601Y016681D03*
X183601Y015181D03*
X185601Y016681D03*
X178101Y013681D03*
X180101Y012181D03*
D17*
X183101Y012681D03*
X191101Y011681D03*
X190101Y009681D03*
X188101Y009181D03*
X187101Y009181D03*
X186101Y009181D03*
X186101Y008181D03*
X187101Y008181D03*
X188101Y008181D03*
X181101Y009681D03*
X166101Y007556D03*
X163101Y006681D03*
X161101Y006681D03*
X158601Y005681D03*
X160101Y008181D03*
X160101Y009181D03*
X160976Y009181D03*
X162601Y010181D03*
X162101Y011681D03*
X163601Y011681D03*
X165101Y011681D03*
X165101Y012931D03*
X163601Y012931D03*
X162101Y012931D03*
X162101Y014181D03*
X163601Y014181D03*
X165101Y014181D03*
X154601Y013181D03*
X153101Y015681D03*
X178601Y017681D03*
X179601Y017681D03*
X180601Y017681D03*
X180601Y018681D03*
X179601Y018681D03*
X178601Y018681D03*
X181601Y020681D03*
X183101Y020681D03*
X184601Y020681D03*
X184601Y021681D03*
X183101Y021681D03*
X181601Y021681D03*
X181601Y022681D03*
X183101Y022681D03*
X184601Y022681D03*
X163101Y024181D03*
X161601Y024181D03*
X160101Y024181D03*
X160101Y025181D03*
X161601Y025181D03*
X163101Y025181D03*
X163101Y026181D03*
X161601Y026181D03*
X160101Y026181D03*
X164226Y028681D03*
X164226Y029681D03*
X163476Y029681D03*
X163476Y030681D03*
X164226Y030681D03*
X177976Y032181D03*
X178351Y033306D03*
X179351Y033306D03*
X179101Y035181D03*
X180601Y035181D03*
X182101Y035181D03*
X182101Y036181D03*
X180601Y036181D03*
X179101Y036181D03*
X179101Y037181D03*
X180601Y037181D03*
X182101Y037181D03*
X087101Y021181D03*
X085601Y021181D03*
X084101Y021181D03*
X084101Y019931D03*
X085601Y019931D03*
X087101Y019931D03*
X087101Y018681D03*
X085601Y018681D03*
X084101Y018681D03*
X084101Y017181D03*
X082601Y017181D03*
X081601Y017181D03*
X080601Y017181D03*
X080601Y016181D03*
X081601Y016181D03*
X082601Y016181D03*
X069101Y016681D03*
X062851Y015181D03*
X064351Y014181D03*
X062601Y013181D03*
X066101Y013181D03*
X067601Y013181D03*
X067601Y011681D03*
X066101Y011681D03*
X062101Y011681D03*
X060601Y011681D03*
X059101Y011681D03*
X059101Y010681D03*
X060601Y010681D03*
X062101Y010681D03*
X066101Y009681D03*
X067601Y009681D03*
X062101Y009181D03*
X060601Y009181D03*
X059101Y009181D03*
X081601Y005681D03*
X083101Y005681D03*
X084601Y005681D03*
X088101Y005181D03*
X089101Y005181D03*
X089101Y004181D03*
X088101Y004181D03*
X084601Y004431D03*
X083101Y004431D03*
X081601Y004431D03*
X081601Y003181D03*
X083101Y003181D03*
X084601Y003181D03*
X088101Y003181D03*
X089101Y003181D03*
X082476Y007181D03*
X096601Y007181D03*
X093601Y010181D03*
X088601Y013181D03*
X055601Y024681D03*
X054601Y024681D03*
X053601Y024681D03*
X053601Y025681D03*
X054601Y025681D03*
X055601Y025681D03*
X067101Y025681D03*
X067101Y026681D03*
X067101Y027681D03*
X067101Y028681D03*
X067101Y029681D03*
X078101Y031181D03*
X079101Y031181D03*
X079101Y032181D03*
X078101Y032181D03*
X080101Y032181D03*
X080101Y033681D03*
X081601Y033681D03*
X083101Y033681D03*
X083101Y034681D03*
X081601Y034681D03*
X080101Y034681D03*
X080101Y035681D03*
X081601Y035681D03*
X083101Y035681D03*
X182101Y005681D03*
X183601Y005681D03*
X185101Y005681D03*
X185101Y004431D03*
X183601Y004431D03*
X182101Y004431D03*
X182101Y003181D03*
X183601Y003181D03*
X185101Y003181D03*
X174601Y004681D03*
X173101Y002681D03*
D18*
X172715Y002855D02*
X171900Y002855D01*
X171917Y002816D02*
X171792Y003116D01*
X171563Y003345D01*
X171263Y003469D01*
X170939Y003469D01*
X170639Y003345D01*
X170410Y003116D01*
X170286Y002816D01*
X170286Y002492D01*
X170410Y002192D01*
X170639Y001962D01*
X170939Y001838D01*
X171263Y001838D01*
X171563Y001962D01*
X171792Y002192D01*
X171917Y002492D01*
X171917Y002816D01*
X171917Y002707D02*
X172678Y002707D01*
X172678Y002766D02*
X172742Y002921D01*
X172861Y003040D01*
X173017Y003104D01*
X173185Y003104D01*
X173341Y003040D01*
X173460Y002921D01*
X173524Y002766D01*
X173524Y002597D01*
X173460Y002442D01*
X173341Y002323D01*
X173185Y002258D01*
X173017Y002258D01*
X172861Y002323D01*
X172742Y002442D01*
X172678Y002597D01*
X172678Y002766D01*
X172694Y002558D02*
X171917Y002558D01*
X171883Y002410D02*
X172775Y002410D01*
X173010Y002261D02*
X171821Y002261D01*
X171713Y002112D02*
X195601Y002112D01*
X195601Y001964D02*
X171565Y001964D01*
X170638Y001964D02*
X151565Y001964D01*
X151563Y001962D02*
X151263Y001838D01*
X150939Y001838D01*
X150639Y001962D01*
X150410Y002192D01*
X150286Y002492D01*
X150286Y002816D01*
X150410Y003116D01*
X150639Y003345D01*
X150939Y003469D01*
X151263Y003469D01*
X151563Y003345D01*
X151792Y003116D01*
X151917Y002816D01*
X151917Y002492D01*
X151792Y002192D01*
X151563Y001962D01*
X151713Y002112D02*
X170489Y002112D01*
X170381Y002261D02*
X151821Y002261D01*
X151883Y002410D02*
X170320Y002410D01*
X170286Y002558D02*
X151917Y002558D01*
X151917Y002707D02*
X170286Y002707D01*
X170302Y002855D02*
X151900Y002855D01*
X151839Y003004D02*
X170363Y003004D01*
X170446Y003152D02*
X151756Y003152D01*
X151607Y003301D02*
X170595Y003301D01*
X170891Y003449D02*
X151312Y003449D01*
X150891Y003449D02*
X131312Y003449D01*
X131263Y003469D02*
X131563Y003345D01*
X131792Y003116D01*
X131917Y002816D01*
X131917Y002492D01*
X131792Y002192D01*
X131563Y001962D01*
X131263Y001838D01*
X130939Y001838D01*
X130639Y001962D01*
X130410Y002192D01*
X130286Y002492D01*
X130286Y002816D01*
X130410Y003116D01*
X130639Y003345D01*
X130939Y003469D01*
X131263Y003469D01*
X130891Y003449D02*
X111312Y003449D01*
X111263Y003469D02*
X111563Y003345D01*
X111792Y003116D01*
X111917Y002816D01*
X111917Y002492D01*
X111792Y002192D01*
X111563Y001962D01*
X111263Y001838D01*
X110939Y001838D01*
X110639Y001962D01*
X110410Y002192D01*
X110286Y002492D01*
X110286Y002816D01*
X110410Y003116D01*
X110639Y003345D01*
X110939Y003469D01*
X111263Y003469D01*
X110891Y003449D02*
X098510Y003449D01*
X098531Y003370D02*
X098531Y002993D01*
X098434Y002629D01*
X098245Y002303D01*
X097979Y002037D01*
X097653Y001849D01*
X097289Y001751D01*
X096913Y001751D01*
X096549Y001849D01*
X096223Y002037D01*
X095957Y002303D01*
X095769Y002629D01*
X095671Y002993D01*
X095671Y003370D01*
X095769Y003733D01*
X095957Y004059D01*
X096223Y004326D01*
X096549Y004514D01*
X096913Y004611D01*
X097289Y004611D01*
X097653Y004514D01*
X097979Y004326D01*
X098245Y004059D01*
X098434Y003733D01*
X098531Y003370D01*
X098531Y003301D02*
X110595Y003301D01*
X110446Y003152D02*
X098531Y003152D01*
X098531Y003004D02*
X110363Y003004D01*
X110302Y002855D02*
X098494Y002855D01*
X098454Y002707D02*
X110286Y002707D01*
X110286Y002558D02*
X098392Y002558D01*
X098307Y002410D02*
X110320Y002410D01*
X110381Y002261D02*
X098203Y002261D01*
X098055Y002112D02*
X110489Y002112D01*
X110638Y001964D02*
X097852Y001964D01*
X097528Y001815D02*
X195601Y001815D01*
X195601Y001667D02*
X076601Y001667D01*
X076601Y001815D02*
X096674Y001815D01*
X096350Y001964D02*
X076601Y001964D01*
X076601Y002112D02*
X096148Y002112D01*
X095999Y002261D02*
X076601Y002261D01*
X076601Y002410D02*
X095896Y002410D01*
X095810Y002558D02*
X076601Y002558D01*
X076601Y002707D02*
X095748Y002707D01*
X095708Y002855D02*
X084873Y002855D01*
X084841Y002823D02*
X084960Y002942D01*
X085024Y003097D01*
X085024Y003266D01*
X084960Y003421D01*
X084841Y003540D01*
X084685Y003604D01*
X084517Y003604D01*
X084361Y003540D01*
X084242Y003421D01*
X084178Y003266D01*
X084178Y003097D01*
X084242Y002942D01*
X084361Y002823D01*
X084517Y002758D01*
X084685Y002758D01*
X084841Y002823D01*
X084986Y003004D02*
X095671Y003004D01*
X095671Y003152D02*
X085024Y003152D01*
X085010Y003301D02*
X095671Y003301D01*
X095692Y003449D02*
X084931Y003449D01*
X084701Y003598D02*
X095732Y003598D01*
X095776Y003746D02*
X076601Y003746D01*
X076601Y003598D02*
X081501Y003598D01*
X081517Y003604D02*
X081685Y003604D01*
X081841Y003540D01*
X081960Y003421D01*
X082024Y003266D01*
X082024Y003097D01*
X081960Y002942D01*
X081841Y002823D01*
X081685Y002758D01*
X081517Y002758D01*
X081361Y002823D01*
X081242Y002942D01*
X081178Y003097D01*
X081178Y003266D01*
X081242Y003421D01*
X081361Y003540D01*
X081517Y003604D01*
X081701Y003598D02*
X083001Y003598D01*
X083017Y003604D02*
X083185Y003604D01*
X083341Y003540D01*
X083460Y003421D01*
X083524Y003266D01*
X083524Y003097D01*
X083460Y002942D01*
X083341Y002823D01*
X083185Y002758D01*
X083017Y002758D01*
X082861Y002823D01*
X082742Y002942D01*
X082678Y003097D01*
X082678Y003266D01*
X082742Y003421D01*
X082861Y003540D01*
X083017Y003604D01*
X083201Y003598D02*
X084501Y003598D01*
X084271Y003449D02*
X083431Y003449D01*
X083510Y003301D02*
X084193Y003301D01*
X084178Y003152D02*
X083524Y003152D01*
X083486Y003004D02*
X084217Y003004D01*
X084329Y002855D02*
X083373Y002855D01*
X082829Y002855D02*
X081873Y002855D01*
X081986Y003004D02*
X082717Y003004D01*
X082678Y003152D02*
X082024Y003152D01*
X082010Y003301D02*
X082693Y003301D01*
X082771Y003449D02*
X081931Y003449D01*
X081685Y004008D02*
X081517Y004008D01*
X081361Y004073D01*
X081242Y004192D01*
X076601Y004192D01*
X076601Y004044D02*
X081432Y004044D01*
X081242Y004192D02*
X081178Y004347D01*
X081178Y004516D01*
X081242Y004671D01*
X081361Y004790D01*
X081517Y004854D01*
X081685Y004854D01*
X081841Y004790D01*
X081960Y004671D01*
X082024Y004516D01*
X082024Y004347D01*
X081960Y004192D01*
X082742Y004192D01*
X082678Y004347D01*
X082678Y004516D01*
X082742Y004671D01*
X082861Y004790D01*
X083017Y004854D01*
X083185Y004854D01*
X083341Y004790D01*
X083460Y004671D01*
X083524Y004516D01*
X083524Y004347D01*
X083460Y004192D01*
X084242Y004192D01*
X084178Y004347D01*
X084178Y004516D01*
X084242Y004671D01*
X084361Y004790D01*
X084517Y004854D01*
X084685Y004854D01*
X084841Y004790D01*
X084960Y004671D01*
X085024Y004516D01*
X085024Y004347D01*
X084960Y004192D01*
X096089Y004192D01*
X095948Y004044D02*
X084770Y004044D01*
X084841Y004073D02*
X084685Y004008D01*
X084517Y004008D01*
X084361Y004073D01*
X084242Y004192D01*
X084181Y004341D02*
X083521Y004341D01*
X083524Y004489D02*
X084178Y004489D01*
X084229Y004638D02*
X083474Y004638D01*
X083345Y004786D02*
X084358Y004786D01*
X084845Y004786D02*
X109744Y004786D01*
X109744Y004826D02*
X109855Y005093D01*
X110059Y005298D01*
X110327Y005408D01*
X110616Y005408D01*
X110883Y005298D01*
X111087Y005093D01*
X111198Y004826D01*
X111198Y004537D01*
X111087Y004270D01*
X110883Y004065D01*
X110616Y003954D01*
X110327Y003954D01*
X110059Y004065D01*
X109855Y004270D01*
X109744Y004537D01*
X109744Y004826D01*
X109789Y004935D02*
X076601Y004935D01*
X076601Y005083D02*
X109851Y005083D01*
X109994Y005232D02*
X076601Y005232D01*
X076601Y005380D02*
X081304Y005380D01*
X081361Y005323D02*
X081242Y005442D01*
X081178Y005597D01*
X081178Y005681D01*
X076601Y005681D01*
X076601Y000681D01*
X195601Y000681D01*
X195601Y016681D01*
X188101Y016681D01*
X188101Y009681D01*
X181524Y009681D01*
X181524Y009597D01*
X181460Y009442D01*
X181341Y009323D01*
X181185Y009258D01*
X181017Y009258D01*
X180861Y009323D01*
X180742Y009442D01*
X180678Y009597D01*
X180678Y009681D01*
X175601Y009681D01*
X175601Y005681D01*
X159024Y005681D01*
X159024Y005597D01*
X158960Y005442D01*
X158841Y005323D01*
X158685Y005258D01*
X158517Y005258D01*
X158361Y005323D01*
X158242Y005442D01*
X158178Y005597D01*
X158178Y005681D01*
X085024Y005681D01*
X085024Y005597D01*
X084960Y005442D01*
X084841Y005323D01*
X084685Y005258D01*
X084517Y005258D01*
X084361Y005323D01*
X084242Y005442D01*
X084178Y005597D01*
X084178Y005681D01*
X083524Y005681D01*
X083524Y005597D01*
X083460Y005442D01*
X083341Y005323D01*
X083185Y005258D01*
X083017Y005258D01*
X082861Y005323D01*
X082742Y005442D01*
X082678Y005597D01*
X082678Y005681D01*
X082024Y005681D01*
X082024Y005597D01*
X081960Y005442D01*
X081841Y005323D01*
X081685Y005258D01*
X081517Y005258D01*
X081361Y005323D01*
X081206Y005529D02*
X076601Y005529D01*
X076601Y005678D02*
X081178Y005678D01*
X081899Y005380D02*
X082804Y005380D01*
X082706Y005529D02*
X081996Y005529D01*
X082024Y005678D02*
X082678Y005678D01*
X083399Y005380D02*
X084304Y005380D01*
X084206Y005529D02*
X083496Y005529D01*
X083524Y005678D02*
X084178Y005678D01*
X084899Y005380D02*
X110259Y005380D01*
X110683Y005380D02*
X130259Y005380D01*
X130327Y005408D02*
X130616Y005408D01*
X130883Y005298D01*
X131087Y005093D01*
X131198Y004826D01*
X131198Y004537D01*
X131087Y004270D01*
X130883Y004065D01*
X130616Y003954D01*
X130327Y003954D01*
X130059Y004065D01*
X129855Y004270D01*
X129744Y004537D01*
X129744Y004826D01*
X129855Y005093D01*
X130059Y005298D01*
X130327Y005408D01*
X130683Y005380D02*
X150259Y005380D01*
X150327Y005408D02*
X150616Y005408D01*
X150883Y005298D01*
X151087Y005093D01*
X151198Y004826D01*
X151198Y004537D01*
X151087Y004270D01*
X150883Y004065D01*
X150616Y003954D01*
X150327Y003954D01*
X150059Y004065D01*
X149855Y004270D01*
X149744Y004537D01*
X149744Y004826D01*
X149855Y005093D01*
X150059Y005298D01*
X150327Y005408D01*
X150683Y005380D02*
X158304Y005380D01*
X158206Y005529D02*
X084996Y005529D01*
X085024Y005678D02*
X158178Y005678D01*
X158899Y005380D02*
X170259Y005380D01*
X170327Y005408D02*
X170616Y005408D01*
X170883Y005298D01*
X171087Y005093D01*
X171198Y004826D01*
X171198Y004537D01*
X171087Y004270D01*
X170883Y004065D01*
X170616Y003954D01*
X170327Y003954D01*
X170059Y004065D01*
X169855Y004270D01*
X169744Y004537D01*
X169744Y004826D01*
X169855Y005093D01*
X170059Y005298D01*
X170327Y005408D01*
X170683Y005380D02*
X181804Y005380D01*
X181861Y005323D02*
X181742Y005442D01*
X181678Y005597D01*
X181678Y005766D01*
X181742Y005921D01*
X181861Y006040D01*
X182017Y006104D01*
X182185Y006104D01*
X182341Y006040D01*
X182460Y005921D01*
X182524Y005766D01*
X182524Y005597D01*
X182460Y005442D01*
X182341Y005323D01*
X182185Y005258D01*
X182017Y005258D01*
X181861Y005323D01*
X181706Y005529D02*
X158996Y005529D01*
X159024Y005678D02*
X181678Y005678D01*
X181703Y005826D02*
X175601Y005826D01*
X175601Y005975D02*
X181796Y005975D01*
X182406Y005975D02*
X183296Y005975D01*
X183242Y005921D02*
X183361Y006040D01*
X183517Y006104D01*
X183685Y006104D01*
X183841Y006040D01*
X183960Y005921D01*
X184024Y005766D01*
X184024Y005597D01*
X183960Y005442D01*
X183841Y005323D01*
X183685Y005258D01*
X183517Y005258D01*
X183361Y005323D01*
X183242Y005442D01*
X183178Y005597D01*
X183178Y005766D01*
X183242Y005921D01*
X183203Y005826D02*
X182499Y005826D01*
X182524Y005678D02*
X183178Y005678D01*
X183206Y005529D02*
X182496Y005529D01*
X182399Y005380D02*
X183304Y005380D01*
X183517Y004854D02*
X183685Y004854D01*
X183841Y004790D01*
X183960Y004671D01*
X184024Y004516D01*
X184024Y004347D01*
X183960Y004192D01*
X184742Y004192D01*
X184678Y004347D01*
X184678Y004516D01*
X184742Y004671D01*
X184861Y004790D01*
X185017Y004854D01*
X185185Y004854D01*
X185341Y004790D01*
X185460Y004671D01*
X185524Y004516D01*
X185524Y004347D01*
X185460Y004192D01*
X195601Y004192D01*
X195601Y004044D02*
X185270Y004044D01*
X185341Y004073D02*
X185185Y004008D01*
X185017Y004008D01*
X184861Y004073D01*
X184742Y004192D01*
X184681Y004341D02*
X184021Y004341D01*
X184024Y004489D02*
X184678Y004489D01*
X184729Y004638D02*
X183974Y004638D01*
X183845Y004786D02*
X184858Y004786D01*
X185345Y004786D02*
X195601Y004786D01*
X195601Y004638D02*
X185474Y004638D01*
X185524Y004489D02*
X195601Y004489D01*
X195601Y004341D02*
X185521Y004341D01*
X185460Y004192D02*
X185341Y004073D01*
X184932Y004044D02*
X183770Y004044D01*
X183841Y004073D02*
X183685Y004008D01*
X183517Y004008D01*
X183361Y004073D01*
X183242Y004192D01*
X182460Y004192D01*
X182341Y004073D01*
X182185Y004008D01*
X182017Y004008D01*
X181861Y004073D01*
X181742Y004192D01*
X171010Y004192D01*
X171117Y004341D02*
X174344Y004341D01*
X174361Y004323D02*
X174242Y004442D01*
X174178Y004597D01*
X174178Y004766D01*
X174242Y004921D01*
X174361Y005040D01*
X174517Y005104D01*
X174685Y005104D01*
X174841Y005040D01*
X174960Y004921D01*
X175024Y004766D01*
X175024Y004597D01*
X174960Y004442D01*
X174841Y004323D01*
X174685Y004258D01*
X174517Y004258D01*
X174361Y004323D01*
X174223Y004489D02*
X171178Y004489D01*
X171198Y004638D02*
X174178Y004638D01*
X174187Y004786D02*
X171198Y004786D01*
X171153Y004935D02*
X174256Y004935D01*
X174466Y005083D02*
X171092Y005083D01*
X170949Y005232D02*
X195601Y005232D01*
X195601Y005380D02*
X185399Y005380D01*
X185341Y005323D02*
X185185Y005258D01*
X185017Y005258D01*
X184861Y005323D01*
X184742Y005442D01*
X184678Y005597D01*
X184678Y005766D01*
X184742Y005921D01*
X184861Y006040D01*
X185017Y006104D01*
X185185Y006104D01*
X185341Y006040D01*
X185460Y005921D01*
X185524Y005766D01*
X185524Y005597D01*
X185460Y005442D01*
X185341Y005323D01*
X185496Y005529D02*
X195601Y005529D01*
X195601Y005678D02*
X185524Y005678D01*
X185499Y005826D02*
X195601Y005826D01*
X195601Y005975D02*
X185406Y005975D01*
X184796Y005975D02*
X183906Y005975D01*
X183999Y005826D02*
X184703Y005826D01*
X184678Y005678D02*
X184024Y005678D01*
X183996Y005529D02*
X184706Y005529D01*
X184804Y005380D02*
X183899Y005380D01*
X183517Y004854D02*
X183361Y004790D01*
X183242Y004671D01*
X183178Y004516D01*
X183178Y004347D01*
X183242Y004192D01*
X183181Y004341D02*
X182521Y004341D01*
X182524Y004347D02*
X182460Y004192D01*
X182524Y004347D02*
X182524Y004516D01*
X182460Y004671D01*
X182341Y004790D01*
X182185Y004854D01*
X182017Y004854D01*
X181861Y004790D01*
X181742Y004671D01*
X181678Y004516D01*
X181678Y004347D01*
X181742Y004192D01*
X181681Y004341D02*
X174859Y004341D01*
X174979Y004489D02*
X181678Y004489D01*
X181729Y004638D02*
X175024Y004638D01*
X175016Y004786D02*
X181858Y004786D01*
X182345Y004786D02*
X183358Y004786D01*
X183229Y004638D02*
X182474Y004638D01*
X182524Y004489D02*
X183178Y004489D01*
X183432Y004044D02*
X182270Y004044D01*
X181932Y004044D02*
X170831Y004044D01*
X170111Y004044D02*
X150831Y004044D01*
X151010Y004192D02*
X169932Y004192D01*
X169826Y004341D02*
X151117Y004341D01*
X151178Y004489D02*
X169764Y004489D01*
X169744Y004638D02*
X151198Y004638D01*
X151198Y004786D02*
X169744Y004786D01*
X169789Y004935D02*
X151153Y004935D01*
X151092Y005083D02*
X169851Y005083D01*
X169994Y005232D02*
X150949Y005232D01*
X149994Y005232D02*
X130949Y005232D01*
X131092Y005083D02*
X149851Y005083D01*
X149789Y004935D02*
X131153Y004935D01*
X131198Y004786D02*
X149744Y004786D01*
X149744Y004638D02*
X131198Y004638D01*
X131178Y004489D02*
X149764Y004489D01*
X149826Y004341D02*
X131117Y004341D01*
X131010Y004192D02*
X149932Y004192D01*
X150111Y004044D02*
X130831Y004044D01*
X130111Y004044D02*
X110831Y004044D01*
X111010Y004192D02*
X129932Y004192D01*
X129826Y004341D02*
X111117Y004341D01*
X111178Y004489D02*
X129764Y004489D01*
X129744Y004638D02*
X111198Y004638D01*
X111198Y004786D02*
X129744Y004786D01*
X129789Y004935D02*
X111153Y004935D01*
X111092Y005083D02*
X129851Y005083D01*
X129994Y005232D02*
X110949Y005232D01*
X109744Y004638D02*
X084974Y004638D01*
X085024Y004489D02*
X096506Y004489D01*
X096249Y004341D02*
X085021Y004341D01*
X084960Y004192D02*
X084841Y004073D01*
X084432Y004044D02*
X083270Y004044D01*
X083341Y004073D02*
X083185Y004008D01*
X083017Y004008D01*
X082861Y004073D01*
X082742Y004192D01*
X082681Y004341D02*
X082021Y004341D01*
X082024Y004489D02*
X082678Y004489D01*
X082729Y004638D02*
X081974Y004638D01*
X081845Y004786D02*
X082858Y004786D01*
X082932Y004044D02*
X081770Y004044D01*
X081841Y004073D02*
X081685Y004008D01*
X081841Y004073D02*
X081960Y004192D01*
X081181Y004341D02*
X076601Y004341D01*
X076601Y004489D02*
X081178Y004489D01*
X081229Y004638D02*
X076601Y004638D01*
X076601Y004786D02*
X081358Y004786D01*
X083341Y004073D02*
X083460Y004192D01*
X081271Y003449D02*
X076601Y003449D01*
X076601Y003301D02*
X081193Y003301D01*
X081178Y003152D02*
X076601Y003152D01*
X076601Y003004D02*
X081217Y003004D01*
X081329Y002855D02*
X076601Y002855D01*
X076601Y003895D02*
X095862Y003895D01*
X097953Y004341D02*
X109826Y004341D01*
X109764Y004489D02*
X097696Y004489D01*
X098113Y004192D02*
X109932Y004192D01*
X110111Y004044D02*
X098255Y004044D01*
X098340Y003895D02*
X195601Y003895D01*
X195601Y003746D02*
X098426Y003746D01*
X098470Y003598D02*
X182001Y003598D01*
X182017Y003604D02*
X182185Y003604D01*
X182341Y003540D01*
X182460Y003421D01*
X182524Y003266D01*
X182524Y003097D01*
X182460Y002942D01*
X182341Y002823D01*
X182185Y002758D01*
X182017Y002758D01*
X181861Y002823D01*
X181742Y002942D01*
X181678Y003097D01*
X181678Y003266D01*
X181742Y003421D01*
X181861Y003540D01*
X182017Y003604D01*
X182201Y003598D02*
X183501Y003598D01*
X183517Y003604D02*
X183685Y003604D01*
X183841Y003540D01*
X183960Y003421D01*
X184024Y003266D01*
X184024Y003097D01*
X183960Y002942D01*
X183841Y002823D01*
X183685Y002758D01*
X183517Y002758D01*
X183361Y002823D01*
X183242Y002942D01*
X183178Y003097D01*
X183178Y003266D01*
X183242Y003421D01*
X183361Y003540D01*
X183517Y003604D01*
X183701Y003598D02*
X185001Y003598D01*
X185017Y003604D02*
X185185Y003604D01*
X185341Y003540D01*
X185460Y003421D01*
X185524Y003266D01*
X185524Y003097D01*
X185460Y002942D01*
X185341Y002823D01*
X185185Y002758D01*
X185017Y002758D01*
X184861Y002823D01*
X184742Y002942D01*
X184678Y003097D01*
X184678Y003266D01*
X184742Y003421D01*
X184861Y003540D01*
X185017Y003604D01*
X185201Y003598D02*
X195601Y003598D01*
X195601Y003449D02*
X185431Y003449D01*
X185510Y003301D02*
X195601Y003301D01*
X195601Y003152D02*
X185524Y003152D01*
X185486Y003004D02*
X195601Y003004D01*
X195601Y002855D02*
X185373Y002855D01*
X184829Y002855D02*
X183873Y002855D01*
X183986Y003004D02*
X184717Y003004D01*
X184678Y003152D02*
X184024Y003152D01*
X184010Y003301D02*
X184693Y003301D01*
X184771Y003449D02*
X183931Y003449D01*
X183271Y003449D02*
X182431Y003449D01*
X182510Y003301D02*
X183193Y003301D01*
X183178Y003152D02*
X182524Y003152D01*
X182486Y003004D02*
X183217Y003004D01*
X183329Y002855D02*
X182373Y002855D01*
X181829Y002855D02*
X173487Y002855D01*
X173524Y002707D02*
X195601Y002707D01*
X195601Y002558D02*
X173508Y002558D01*
X173428Y002410D02*
X195601Y002410D01*
X195601Y002261D02*
X173192Y002261D01*
X173377Y003004D02*
X181717Y003004D01*
X181678Y003152D02*
X171756Y003152D01*
X171839Y003004D02*
X172825Y003004D01*
X171607Y003301D02*
X181693Y003301D01*
X181771Y003449D02*
X171312Y003449D01*
X174736Y005083D02*
X195601Y005083D01*
X195601Y004935D02*
X174946Y004935D01*
X175601Y006123D02*
X195601Y006123D01*
X195601Y006272D02*
X175601Y006272D01*
X175601Y006420D02*
X195601Y006420D01*
X195601Y006569D02*
X175601Y006569D01*
X175601Y006717D02*
X195601Y006717D01*
X195601Y006866D02*
X175601Y006866D01*
X175601Y007014D02*
X195601Y007014D01*
X195601Y007163D02*
X175601Y007163D01*
X175601Y007311D02*
X195601Y007311D01*
X195601Y007460D02*
X175601Y007460D01*
X175601Y007609D02*
X195601Y007609D01*
X195601Y007757D02*
X175601Y007757D01*
X175601Y007906D02*
X195601Y007906D01*
X195601Y008054D02*
X175601Y008054D01*
X175601Y008203D02*
X195601Y008203D01*
X195601Y008351D02*
X175601Y008351D01*
X175601Y008500D02*
X195601Y008500D01*
X195601Y008648D02*
X175601Y008648D01*
X175601Y008797D02*
X195601Y008797D01*
X195601Y008945D02*
X175601Y008945D01*
X175601Y009094D02*
X195601Y009094D01*
X195601Y009243D02*
X175601Y009243D01*
X175601Y009391D02*
X180793Y009391D01*
X180702Y009540D02*
X175601Y009540D01*
X174101Y009540D02*
X171640Y009540D01*
X171563Y009462D02*
X171263Y009338D01*
X170939Y009338D01*
X170639Y009462D01*
X170410Y009692D01*
X170286Y009992D01*
X170286Y010316D01*
X170410Y010616D01*
X170639Y010845D01*
X170939Y010969D01*
X171263Y010969D01*
X171563Y010845D01*
X171792Y010616D01*
X171917Y010316D01*
X171917Y009992D01*
X171792Y009692D01*
X171563Y009462D01*
X171391Y009391D02*
X174101Y009391D01*
X174101Y009243D02*
X161399Y009243D01*
X161399Y009266D02*
X161399Y009097D01*
X161335Y008942D01*
X161216Y008823D01*
X161060Y008758D01*
X160892Y008758D01*
X160736Y008823D01*
X160617Y008942D01*
X160553Y009097D01*
X160553Y009266D01*
X160617Y009421D01*
X160736Y009540D01*
X160341Y009540D01*
X160460Y009421D01*
X160524Y009266D01*
X160524Y009097D01*
X160460Y008942D01*
X160341Y008823D01*
X160185Y008758D01*
X160017Y008758D01*
X159861Y008823D01*
X159742Y008942D01*
X159678Y009097D01*
X159678Y009266D01*
X159742Y009421D01*
X159861Y009540D01*
X151640Y009540D01*
X151563Y009462D02*
X151263Y009338D01*
X150939Y009338D01*
X150639Y009462D01*
X150410Y009692D01*
X150286Y009992D01*
X150286Y010316D01*
X150410Y010616D01*
X150639Y010845D01*
X150939Y010969D01*
X151263Y010969D01*
X151563Y010845D01*
X151792Y010616D01*
X151917Y010316D01*
X151917Y009992D01*
X151792Y009692D01*
X151563Y009462D01*
X151391Y009391D02*
X159730Y009391D01*
X159678Y009243D02*
X080724Y009243D01*
X080691Y009229D02*
X080511Y009229D01*
X080345Y009298D01*
X080217Y009425D01*
X080149Y009591D01*
X080149Y009771D01*
X080217Y009938D01*
X080345Y010065D01*
X080511Y010134D01*
X080691Y010134D01*
X080858Y010065D01*
X080985Y009938D01*
X081054Y009771D01*
X081054Y009591D01*
X080985Y009425D01*
X080858Y009298D01*
X080691Y009229D01*
X080478Y009243D02*
X053101Y009243D01*
X053101Y009391D02*
X065793Y009391D01*
X065742Y009442D02*
X065678Y009597D01*
X065678Y009766D01*
X065742Y009921D01*
X065861Y010040D01*
X066017Y010104D01*
X066185Y010104D01*
X066341Y010040D01*
X066460Y009921D01*
X066524Y009766D01*
X066524Y009597D01*
X066460Y009442D01*
X066341Y009323D01*
X066185Y009258D01*
X066017Y009258D01*
X065861Y009323D01*
X065742Y009442D01*
X065702Y009540D02*
X053101Y009540D01*
X053101Y009688D02*
X065678Y009688D01*
X065707Y009837D02*
X053101Y009837D01*
X053101Y009985D02*
X065807Y009985D01*
X066396Y009985D02*
X067307Y009985D01*
X067361Y010040D02*
X067517Y010104D01*
X067685Y010104D01*
X067841Y010040D01*
X067960Y009921D01*
X068024Y009766D01*
X068024Y009597D01*
X067960Y009442D01*
X067841Y009323D01*
X067685Y009258D01*
X067517Y009258D01*
X067361Y009323D01*
X067242Y009442D01*
X067178Y009597D01*
X067178Y009766D01*
X067242Y009921D01*
X067361Y010040D01*
X067207Y009837D02*
X066495Y009837D01*
X066524Y009688D02*
X067178Y009688D01*
X067202Y009540D02*
X066500Y009540D01*
X066409Y009391D02*
X067293Y009391D01*
X067909Y009391D02*
X070811Y009391D01*
X070939Y009338D02*
X070639Y009462D01*
X070410Y009692D01*
X070286Y009992D01*
X070286Y010316D01*
X070410Y010616D01*
X070639Y010845D01*
X070939Y010969D01*
X071263Y010969D01*
X071563Y010845D01*
X071792Y010616D01*
X071917Y010316D01*
X071917Y009992D01*
X071792Y009692D01*
X071563Y009462D01*
X071263Y009338D01*
X070939Y009338D01*
X070562Y009540D02*
X068000Y009540D01*
X068024Y009688D02*
X070413Y009688D01*
X070350Y009837D02*
X067995Y009837D01*
X067896Y009985D02*
X070288Y009985D01*
X070286Y010134D02*
X053101Y010134D01*
X053101Y010282D02*
X070286Y010282D01*
X070333Y010431D02*
X053101Y010431D01*
X053101Y010579D02*
X070395Y010579D01*
X070522Y010728D02*
X053101Y010728D01*
X053101Y010877D02*
X070715Y010877D01*
X071487Y010877D02*
X077266Y010877D01*
X077217Y010925D02*
X077345Y010798D01*
X077511Y010729D01*
X077691Y010729D01*
X077858Y010798D01*
X077985Y010925D01*
X078054Y011091D01*
X078054Y011271D01*
X077985Y011438D01*
X077858Y011565D01*
X077691Y011634D01*
X077511Y011634D01*
X077345Y011565D01*
X077217Y011438D01*
X077149Y011271D01*
X077149Y011091D01*
X077217Y010925D01*
X077176Y011025D02*
X053101Y011025D01*
X053101Y011174D02*
X077149Y011174D01*
X077169Y011322D02*
X067839Y011322D01*
X067841Y011323D02*
X067685Y011258D01*
X067517Y011258D01*
X067361Y011323D01*
X067242Y011442D01*
X067178Y011597D01*
X067178Y011766D01*
X067242Y011921D01*
X067361Y012040D01*
X067517Y012104D01*
X067685Y012104D01*
X067841Y012040D01*
X067960Y011921D01*
X068024Y011766D01*
X068024Y011597D01*
X067960Y011442D01*
X067841Y011323D01*
X067972Y011471D02*
X070287Y011471D01*
X070327Y011454D02*
X070059Y011565D01*
X069855Y011770D01*
X069744Y012037D01*
X069744Y012326D01*
X069855Y012593D01*
X070059Y012798D01*
X070327Y012908D01*
X070616Y012908D01*
X070883Y012798D01*
X071087Y012593D01*
X071198Y012326D01*
X071198Y012037D01*
X071087Y011770D01*
X070883Y011565D01*
X070616Y011454D01*
X070327Y011454D01*
X070655Y011471D02*
X077250Y011471D01*
X077475Y011619D02*
X070937Y011619D01*
X071086Y011768D02*
X082149Y011768D01*
X082149Y011771D02*
X082217Y011938D01*
X082345Y012065D01*
X082511Y012134D01*
X082691Y012134D01*
X082858Y012065D01*
X091101Y012065D01*
X091101Y012213D02*
X071198Y012213D01*
X071198Y012065D02*
X082344Y012065D01*
X082209Y011916D02*
X071148Y011916D01*
X071183Y012362D02*
X081780Y012362D01*
X081717Y012425D02*
X081649Y012591D01*
X081649Y012771D01*
X081717Y012938D01*
X081845Y013065D01*
X082011Y013134D01*
X082191Y013134D01*
X082358Y013065D01*
X082485Y012938D01*
X082554Y012771D01*
X082554Y012591D01*
X082485Y012425D01*
X082358Y012298D01*
X082191Y012229D01*
X082011Y012229D01*
X081845Y012298D01*
X081717Y012425D01*
X081682Y012511D02*
X071122Y012511D01*
X071022Y012659D02*
X081649Y012659D01*
X081663Y012808D02*
X070859Y012808D01*
X070083Y012808D02*
X067804Y012808D01*
X067841Y012823D02*
X067685Y012758D01*
X067517Y012758D01*
X067361Y012823D01*
X067242Y012942D01*
X067178Y013097D01*
X067178Y013266D01*
X067242Y013421D01*
X067361Y013540D01*
X067517Y013604D01*
X067685Y013604D01*
X067841Y013540D01*
X067960Y013421D01*
X068024Y013266D01*
X068024Y013097D01*
X067960Y012942D01*
X067841Y012823D01*
X067966Y012956D02*
X081736Y012956D01*
X081940Y013105D02*
X068024Y013105D01*
X068024Y013253D02*
X088178Y013253D01*
X088178Y013266D02*
X088242Y013421D01*
X088361Y013540D01*
X088517Y013604D01*
X088685Y013604D01*
X088841Y013540D01*
X088960Y013421D01*
X089024Y013266D01*
X089024Y013097D01*
X088960Y012942D01*
X088841Y012823D01*
X088685Y012758D01*
X088517Y012758D01*
X088361Y012823D01*
X088242Y012942D01*
X088178Y013097D01*
X088178Y013266D01*
X088234Y013402D02*
X071284Y013402D01*
X071263Y013393D02*
X070939Y013393D01*
X070639Y013518D01*
X070475Y013681D01*
X053101Y013681D01*
X053101Y006681D01*
X059649Y006681D01*
X059649Y006771D01*
X059717Y006938D01*
X059845Y007065D01*
X060011Y007134D01*
X060191Y007134D01*
X060358Y007065D01*
X060485Y006938D01*
X060554Y006771D01*
X060554Y006681D01*
X070286Y006681D01*
X070286Y006871D01*
X070410Y007171D01*
X070639Y007400D01*
X070939Y007524D01*
X071263Y007524D01*
X071563Y007400D01*
X071792Y007171D01*
X071917Y006871D01*
X071917Y006681D01*
X110286Y006681D01*
X110286Y006871D01*
X110410Y007171D01*
X110639Y007400D01*
X110939Y007524D01*
X111263Y007524D01*
X111563Y007400D01*
X111792Y007171D01*
X111917Y006871D01*
X111917Y006681D01*
X130286Y006681D01*
X130286Y006871D01*
X130410Y007171D01*
X130639Y007400D01*
X130939Y007524D01*
X131263Y007524D01*
X131563Y007400D01*
X131792Y007171D01*
X131917Y006871D01*
X131917Y006681D01*
X150286Y006681D01*
X150286Y006871D01*
X150410Y007171D01*
X150639Y007400D01*
X150939Y007524D01*
X151263Y007524D01*
X151563Y007400D01*
X151792Y007171D01*
X151917Y006871D01*
X151917Y006681D01*
X160678Y006681D01*
X160678Y006766D01*
X160742Y006921D01*
X160861Y007040D01*
X161017Y007104D01*
X161185Y007104D01*
X161341Y007040D01*
X161460Y006921D01*
X161524Y006766D01*
X161524Y006681D01*
X162678Y006681D01*
X162678Y006766D01*
X162742Y006921D01*
X162861Y007040D01*
X163017Y007104D01*
X163185Y007104D01*
X163341Y007040D01*
X163460Y006921D01*
X163524Y006766D01*
X163524Y006681D01*
X170286Y006681D01*
X170286Y006871D01*
X170410Y007171D01*
X170639Y007400D01*
X170939Y007524D01*
X171263Y007524D01*
X171563Y007400D01*
X171792Y007171D01*
X171917Y006871D01*
X171917Y006681D01*
X174101Y006681D01*
X174101Y010681D01*
X187601Y010681D01*
X187601Y017181D01*
X195601Y017181D01*
X195601Y020181D01*
X184101Y020181D01*
X184101Y016681D01*
X175054Y016681D01*
X175054Y016591D01*
X174985Y016425D01*
X174858Y016298D01*
X174691Y016229D01*
X174511Y016229D01*
X174345Y016298D01*
X174217Y016425D01*
X174149Y016591D01*
X174149Y016681D01*
X107101Y016681D01*
X107101Y011181D01*
X091101Y011181D01*
X091101Y013681D01*
X071727Y013681D01*
X071563Y013518D01*
X071263Y013393D01*
X070919Y013402D02*
X067968Y013402D01*
X067816Y013550D02*
X070606Y013550D01*
X071596Y013550D02*
X088386Y013550D01*
X088816Y013550D02*
X091101Y013550D01*
X091101Y013402D02*
X088968Y013402D01*
X089024Y013253D02*
X091101Y013253D01*
X091101Y013105D02*
X089024Y013105D01*
X088966Y012956D02*
X091101Y012956D01*
X091101Y012808D02*
X088804Y012808D01*
X088398Y012808D02*
X087539Y012808D01*
X087554Y012771D02*
X087554Y012591D01*
X087485Y012425D01*
X087358Y012298D01*
X087191Y012229D01*
X087011Y012229D01*
X086845Y012298D01*
X086717Y012425D01*
X086649Y012591D01*
X086649Y012771D01*
X086717Y012938D01*
X086845Y013065D01*
X087011Y013134D01*
X087191Y013134D01*
X087358Y013065D01*
X087485Y012938D01*
X087554Y012771D01*
X087554Y012659D02*
X091101Y012659D01*
X091101Y012511D02*
X087520Y012511D01*
X087422Y012362D02*
X091101Y012362D01*
X091101Y011916D02*
X082994Y011916D01*
X082985Y011938D02*
X083054Y011771D01*
X083054Y011591D01*
X082985Y011425D01*
X082858Y011298D01*
X082691Y011229D01*
X082511Y011229D01*
X082345Y011298D01*
X082217Y011425D01*
X082149Y011591D01*
X082149Y011771D01*
X082149Y011619D02*
X077727Y011619D01*
X077952Y011471D02*
X082199Y011471D01*
X082320Y011322D02*
X078033Y011322D01*
X078054Y011174D02*
X083649Y011174D01*
X083649Y011091D02*
X083717Y010925D01*
X083845Y010798D01*
X084011Y010729D01*
X084191Y010729D01*
X084358Y010798D01*
X084485Y010925D01*
X084554Y011091D01*
X084554Y011271D01*
X084485Y011438D01*
X084358Y011565D01*
X084191Y011634D01*
X084011Y011634D01*
X083845Y011565D01*
X083717Y011438D01*
X083649Y011271D01*
X083649Y011091D01*
X083676Y011025D02*
X078026Y011025D01*
X077936Y010877D02*
X083766Y010877D01*
X084436Y010877D02*
X110715Y010877D01*
X110639Y010845D02*
X110939Y010969D01*
X111263Y010969D01*
X111563Y010845D01*
X111792Y010616D01*
X111917Y010316D01*
X111917Y009992D01*
X111792Y009692D01*
X111563Y009462D01*
X111263Y009338D01*
X110939Y009338D01*
X110639Y009462D01*
X110410Y009692D01*
X110286Y009992D01*
X110286Y010316D01*
X110410Y010616D01*
X110639Y010845D01*
X110522Y010728D02*
X071680Y010728D01*
X071808Y010579D02*
X079379Y010579D01*
X079345Y010565D02*
X079511Y010634D01*
X079691Y010634D01*
X079858Y010565D01*
X079985Y010438D01*
X080054Y010271D01*
X080054Y010091D01*
X079985Y009925D01*
X079858Y009798D01*
X079691Y009729D01*
X079511Y009729D01*
X079345Y009798D01*
X079217Y009925D01*
X079149Y010091D01*
X079149Y010271D01*
X079217Y010438D01*
X079345Y010565D01*
X079215Y010431D02*
X071869Y010431D01*
X071917Y010282D02*
X079153Y010282D01*
X079149Y010134D02*
X071917Y010134D01*
X071914Y009985D02*
X079192Y009985D01*
X079306Y009837D02*
X071853Y009837D01*
X071789Y009688D02*
X080149Y009688D01*
X080170Y009540D02*
X071640Y009540D01*
X071391Y009391D02*
X080251Y009391D01*
X080176Y009837D02*
X079897Y009837D01*
X080010Y009985D02*
X080265Y009985D01*
X080054Y010134D02*
X080511Y010134D01*
X080692Y010134D02*
X110286Y010134D01*
X110286Y010282D02*
X080049Y010282D01*
X079988Y010431D02*
X110333Y010431D01*
X110395Y010579D02*
X079823Y010579D01*
X080937Y009985D02*
X110288Y009985D01*
X110350Y009837D02*
X081027Y009837D01*
X081054Y009688D02*
X110413Y009688D01*
X110562Y009540D02*
X081032Y009540D01*
X080951Y009391D02*
X110811Y009391D01*
X111391Y009391D02*
X130811Y009391D01*
X130939Y009338D02*
X130639Y009462D01*
X130410Y009692D01*
X130286Y009992D01*
X130286Y010316D01*
X130410Y010616D01*
X130639Y010845D01*
X130939Y010969D01*
X131263Y010969D01*
X131563Y010845D01*
X131792Y010616D01*
X131917Y010316D01*
X131917Y009992D01*
X131792Y009692D01*
X131563Y009462D01*
X131263Y009338D01*
X130939Y009338D01*
X130562Y009540D02*
X111640Y009540D01*
X111789Y009688D02*
X130413Y009688D01*
X130350Y009837D02*
X111853Y009837D01*
X111914Y009985D02*
X130288Y009985D01*
X130286Y010134D02*
X111917Y010134D01*
X111917Y010282D02*
X130286Y010282D01*
X130333Y010431D02*
X111869Y010431D01*
X111808Y010579D02*
X130395Y010579D01*
X130522Y010728D02*
X111680Y010728D01*
X111487Y010877D02*
X130715Y010877D01*
X131487Y010877D02*
X150715Y010877D01*
X150522Y010728D02*
X131680Y010728D01*
X131808Y010579D02*
X150395Y010579D01*
X150333Y010431D02*
X131869Y010431D01*
X131917Y010282D02*
X150286Y010282D01*
X150286Y010134D02*
X131917Y010134D01*
X131914Y009985D02*
X150288Y009985D01*
X150350Y009837D02*
X131853Y009837D01*
X131789Y009688D02*
X150413Y009688D01*
X150562Y009540D02*
X131640Y009540D01*
X131391Y009391D02*
X150811Y009391D01*
X151789Y009688D02*
X170413Y009688D01*
X170350Y009837D02*
X162855Y009837D01*
X162841Y009823D02*
X162685Y009758D01*
X162517Y009758D01*
X162361Y009823D01*
X162242Y009942D01*
X162178Y010097D01*
X162178Y010266D01*
X162242Y010421D01*
X162361Y010540D01*
X162517Y010604D01*
X162685Y010604D01*
X162841Y010540D01*
X162960Y010421D01*
X163024Y010266D01*
X163024Y010097D01*
X162960Y009942D01*
X162841Y009823D01*
X162978Y009985D02*
X170288Y009985D01*
X170286Y010134D02*
X163024Y010134D01*
X163017Y010282D02*
X170286Y010282D01*
X170333Y010431D02*
X162950Y010431D01*
X162746Y010579D02*
X170395Y010579D01*
X170522Y010728D02*
X151680Y010728D01*
X151808Y010579D02*
X162456Y010579D01*
X162252Y010431D02*
X151869Y010431D01*
X151917Y010282D02*
X162185Y010282D01*
X162178Y010134D02*
X151917Y010134D01*
X151914Y009985D02*
X162224Y009985D01*
X162347Y009837D02*
X151853Y009837D01*
X151487Y010877D02*
X170715Y010877D01*
X171487Y010877D02*
X187601Y010877D01*
X187601Y011025D02*
X084526Y011025D01*
X084554Y011174D02*
X187601Y011174D01*
X187601Y011322D02*
X107101Y011322D01*
X107101Y011471D02*
X110287Y011471D01*
X110327Y011454D02*
X110059Y011565D01*
X109855Y011770D01*
X109744Y012037D01*
X109744Y012326D01*
X109855Y012593D01*
X110059Y012798D01*
X110327Y012908D01*
X110616Y012908D01*
X110883Y012798D01*
X111087Y012593D01*
X111198Y012326D01*
X111198Y012037D01*
X111087Y011770D01*
X110883Y011565D01*
X110616Y011454D01*
X110327Y011454D01*
X110655Y011471D02*
X130287Y011471D01*
X130327Y011454D02*
X130059Y011565D01*
X129855Y011770D01*
X129744Y012037D01*
X129744Y012326D01*
X129855Y012593D01*
X130059Y012798D01*
X130327Y012908D01*
X130616Y012908D01*
X130883Y012798D01*
X131087Y012593D01*
X131198Y012326D01*
X131198Y012037D01*
X131087Y011770D01*
X130883Y011565D01*
X130616Y011454D01*
X130327Y011454D01*
X130655Y011471D02*
X150287Y011471D01*
X150327Y011454D02*
X150059Y011565D01*
X149855Y011770D01*
X149744Y012037D01*
X149744Y012326D01*
X149855Y012593D01*
X150059Y012798D01*
X150327Y012908D01*
X150616Y012908D01*
X150883Y012798D01*
X151087Y012593D01*
X151198Y012326D01*
X151198Y012037D01*
X151087Y011770D01*
X150883Y011565D01*
X150616Y011454D01*
X150327Y011454D01*
X150655Y011471D02*
X170287Y011471D01*
X170327Y011454D02*
X170059Y011565D01*
X169855Y011770D01*
X169744Y012037D01*
X169744Y012326D01*
X169855Y012593D01*
X170059Y012798D01*
X170327Y012908D01*
X170616Y012908D01*
X170883Y012798D01*
X171087Y012593D01*
X171198Y012326D01*
X171198Y012037D01*
X171087Y011770D01*
X170883Y011565D01*
X170616Y011454D01*
X170327Y011454D01*
X170655Y011471D02*
X187601Y011471D01*
X187601Y011619D02*
X170937Y011619D01*
X171086Y011768D02*
X179917Y011768D01*
X179845Y011798D02*
X179717Y011925D01*
X179649Y012091D01*
X179649Y012271D01*
X179717Y012438D01*
X179845Y012565D01*
X180011Y012634D01*
X180191Y012634D01*
X180358Y012565D01*
X180485Y012438D01*
X180554Y012271D01*
X180554Y012091D01*
X180485Y011925D01*
X180358Y011798D01*
X180191Y011729D01*
X180011Y011729D01*
X179845Y011798D01*
X179726Y011916D02*
X171148Y011916D01*
X171198Y012065D02*
X179659Y012065D01*
X179649Y012213D02*
X171198Y012213D01*
X171183Y012362D02*
X179686Y012362D01*
X179790Y012511D02*
X171122Y012511D01*
X171022Y012659D02*
X182678Y012659D01*
X182678Y012597D02*
X182742Y012442D01*
X182861Y012323D01*
X183017Y012258D01*
X183185Y012258D01*
X183341Y012323D01*
X183460Y012442D01*
X183524Y012597D01*
X183524Y012766D01*
X183460Y012921D01*
X183341Y013040D01*
X183185Y013104D01*
X183017Y013104D01*
X182861Y013040D01*
X182742Y012921D01*
X182678Y012766D01*
X182678Y012597D01*
X182714Y012511D02*
X180412Y012511D01*
X180516Y012362D02*
X182822Y012362D01*
X182695Y012808D02*
X170859Y012808D01*
X170083Y012808D02*
X154804Y012808D01*
X154841Y012823D02*
X154685Y012758D01*
X154517Y012758D01*
X154361Y012823D01*
X154242Y012942D01*
X154178Y013097D01*
X154178Y013266D01*
X154242Y013421D01*
X154361Y013540D01*
X154517Y013604D01*
X154685Y013604D01*
X154841Y013540D01*
X154960Y013421D01*
X155024Y013266D01*
X155024Y013097D01*
X154960Y012942D01*
X154841Y012823D01*
X154966Y012956D02*
X182778Y012956D01*
X183425Y012956D02*
X187601Y012956D01*
X187601Y012808D02*
X183507Y012808D01*
X183524Y012659D02*
X187601Y012659D01*
X187601Y012511D02*
X183488Y012511D01*
X183380Y012362D02*
X187601Y012362D01*
X187601Y012213D02*
X180554Y012213D01*
X180543Y012065D02*
X187601Y012065D01*
X187601Y011916D02*
X180476Y011916D01*
X180285Y011768D02*
X187601Y011768D01*
X188101Y011768D02*
X190679Y011768D01*
X190678Y011766D02*
X190742Y011921D01*
X190861Y012040D01*
X191017Y012104D01*
X191185Y012104D01*
X191341Y012040D01*
X191460Y011921D01*
X191524Y011766D01*
X191524Y011597D01*
X191460Y011442D01*
X191341Y011323D01*
X191185Y011258D01*
X191017Y011258D01*
X190861Y011323D01*
X190742Y011442D01*
X190678Y011597D01*
X190678Y011766D01*
X190678Y011619D02*
X188101Y011619D01*
X188101Y011471D02*
X190730Y011471D01*
X190863Y011322D02*
X188101Y011322D01*
X188101Y011174D02*
X193156Y011174D01*
X193156Y011102D02*
X193244Y010889D01*
X193407Y010726D01*
X193620Y010638D01*
X193850Y010638D01*
X194063Y010726D01*
X194226Y010889D01*
X194314Y011102D01*
X194314Y011332D01*
X194226Y011545D01*
X194063Y011708D01*
X193850Y011796D01*
X193620Y011796D01*
X193407Y011708D01*
X193244Y011545D01*
X193156Y011332D01*
X193156Y011102D01*
X193187Y011025D02*
X188101Y011025D01*
X188101Y010877D02*
X193256Y010877D01*
X193405Y010728D02*
X188101Y010728D01*
X188101Y010579D02*
X195601Y010579D01*
X195601Y010431D02*
X188101Y010431D01*
X188101Y010282D02*
X195601Y010282D01*
X195601Y010134D02*
X188101Y010134D01*
X188101Y009985D02*
X189807Y009985D01*
X189861Y010040D02*
X190017Y010104D01*
X190185Y010104D01*
X190341Y010040D01*
X190460Y009921D01*
X190524Y009766D01*
X190524Y009597D01*
X190460Y009442D01*
X190341Y009323D01*
X190185Y009258D01*
X190017Y009258D01*
X189861Y009323D01*
X189742Y009442D01*
X189678Y009597D01*
X189678Y009766D01*
X189742Y009921D01*
X189861Y010040D01*
X189707Y009837D02*
X188101Y009837D01*
X188101Y009688D02*
X189678Y009688D01*
X189702Y009540D02*
X181500Y009540D01*
X181409Y009391D02*
X189793Y009391D01*
X190409Y009391D02*
X195601Y009391D01*
X195601Y009540D02*
X190500Y009540D01*
X190524Y009688D02*
X195601Y009688D01*
X195601Y009837D02*
X190495Y009837D01*
X190396Y009985D02*
X195601Y009985D01*
X195601Y010728D02*
X194065Y010728D01*
X194214Y010877D02*
X195601Y010877D01*
X195601Y011025D02*
X194283Y011025D01*
X194314Y011174D02*
X195601Y011174D01*
X195601Y011322D02*
X194314Y011322D01*
X194257Y011471D02*
X195601Y011471D01*
X195601Y011619D02*
X194152Y011619D01*
X193919Y011768D02*
X195601Y011768D01*
X195601Y011916D02*
X191462Y011916D01*
X191523Y011768D02*
X193551Y011768D01*
X193620Y012015D02*
X193407Y012104D01*
X193244Y012267D01*
X193156Y012480D01*
X193156Y012710D01*
X193244Y012923D01*
X193407Y013086D01*
X193620Y013174D01*
X193850Y013174D01*
X194063Y013086D01*
X194226Y012923D01*
X194314Y012710D01*
X194314Y012480D01*
X194226Y012267D01*
X194063Y012104D01*
X193850Y012015D01*
X193620Y012015D01*
X193500Y012065D02*
X191281Y012065D01*
X190921Y012065D02*
X188101Y012065D01*
X188101Y012213D02*
X193297Y012213D01*
X193204Y012362D02*
X188101Y012362D01*
X188101Y012511D02*
X193156Y012511D01*
X193156Y012659D02*
X188101Y012659D01*
X188101Y012808D02*
X193196Y012808D01*
X193277Y012956D02*
X188101Y012956D01*
X188101Y013105D02*
X193452Y013105D01*
X194018Y013105D02*
X195601Y013105D01*
X195601Y013253D02*
X188101Y013253D01*
X188101Y013402D02*
X195601Y013402D01*
X195601Y013550D02*
X188101Y013550D01*
X188101Y013699D02*
X195601Y013699D01*
X195601Y013847D02*
X188101Y013847D01*
X188101Y013996D02*
X195601Y013996D01*
X195601Y014144D02*
X194000Y014144D01*
X194063Y014171D02*
X193850Y014082D01*
X193620Y014082D01*
X193407Y014171D01*
X193244Y014334D01*
X193156Y014546D01*
X193156Y014777D01*
X193244Y014990D01*
X193407Y015153D01*
X193620Y015241D01*
X193850Y015241D01*
X194063Y015153D01*
X194226Y014990D01*
X194314Y014777D01*
X194314Y014546D01*
X194226Y014334D01*
X194063Y014171D01*
X194186Y014293D02*
X195601Y014293D01*
X195601Y014442D02*
X194271Y014442D01*
X194314Y014590D02*
X195601Y014590D01*
X195601Y014739D02*
X194314Y014739D01*
X194269Y014887D02*
X195601Y014887D01*
X195601Y015036D02*
X194180Y015036D01*
X193987Y015184D02*
X195601Y015184D01*
X195601Y015333D02*
X188101Y015333D01*
X188101Y015481D02*
X195601Y015481D01*
X195601Y015630D02*
X194074Y015630D01*
X194035Y015591D02*
X193840Y015510D01*
X193778Y015510D01*
X193778Y015996D01*
X193692Y015996D01*
X193692Y015510D01*
X193630Y015510D01*
X193435Y015591D01*
X193286Y015740D01*
X193206Y015934D01*
X193206Y015996D01*
X193692Y015996D01*
X193692Y016083D01*
X193778Y016083D01*
X193778Y016569D01*
X193840Y016569D01*
X194035Y016488D01*
X194184Y016339D01*
X194264Y016145D01*
X194264Y016083D01*
X193778Y016083D01*
X193778Y015996D01*
X194264Y015996D01*
X194264Y015934D01*
X194184Y015740D01*
X194035Y015591D01*
X194200Y015778D02*
X195601Y015778D01*
X195601Y015927D02*
X194261Y015927D01*
X194231Y016224D02*
X195601Y016224D01*
X195601Y016076D02*
X193778Y016076D01*
X193692Y016076D02*
X188101Y016076D01*
X188101Y016224D02*
X193238Y016224D01*
X193206Y016145D02*
X193286Y016339D01*
X193435Y016488D01*
X193630Y016569D01*
X193692Y016569D01*
X193692Y016083D01*
X193206Y016083D01*
X193206Y016145D01*
X193209Y015927D02*
X188101Y015927D01*
X188101Y015778D02*
X193270Y015778D01*
X193396Y015630D02*
X188101Y015630D01*
X188101Y015184D02*
X193483Y015184D01*
X193290Y015036D02*
X188101Y015036D01*
X188101Y014887D02*
X193201Y014887D01*
X193156Y014739D02*
X188101Y014739D01*
X188101Y014590D02*
X193156Y014590D01*
X193199Y014442D02*
X188101Y014442D01*
X188101Y014293D02*
X193284Y014293D01*
X193470Y014144D02*
X188101Y014144D01*
X187601Y014144D02*
X171917Y014144D01*
X171917Y014047D02*
X171917Y014371D01*
X171792Y014671D01*
X171563Y014900D01*
X171263Y015024D01*
X170939Y015024D01*
X170639Y014900D01*
X170410Y014671D01*
X170286Y014371D01*
X170286Y014047D01*
X170410Y013747D01*
X170639Y013518D01*
X170939Y013393D01*
X171263Y013393D01*
X171563Y013518D01*
X171792Y013747D01*
X171917Y014047D01*
X171896Y013996D02*
X177776Y013996D01*
X177717Y013938D02*
X177845Y014065D01*
X178011Y014134D01*
X178191Y014134D01*
X178358Y014065D01*
X178485Y013938D01*
X178554Y013771D01*
X178554Y013591D01*
X178485Y013425D01*
X178358Y013298D01*
X178191Y013229D01*
X178011Y013229D01*
X177845Y013298D01*
X177717Y013425D01*
X177649Y013591D01*
X177649Y013771D01*
X177717Y013938D01*
X177680Y013847D02*
X171834Y013847D01*
X171744Y013699D02*
X177649Y013699D01*
X177666Y013550D02*
X171596Y013550D01*
X171284Y013402D02*
X177741Y013402D01*
X177952Y013253D02*
X155024Y013253D01*
X155024Y013105D02*
X187601Y013105D01*
X187601Y013253D02*
X178250Y013253D01*
X178462Y013402D02*
X187601Y013402D01*
X187601Y013550D02*
X178537Y013550D01*
X178554Y013699D02*
X187601Y013699D01*
X187601Y013847D02*
X178522Y013847D01*
X178427Y013996D02*
X187601Y013996D01*
X187601Y014293D02*
X171917Y014293D01*
X171887Y014442D02*
X187601Y014442D01*
X187601Y014590D02*
X171826Y014590D01*
X171725Y014739D02*
X183487Y014739D01*
X183511Y014729D02*
X183345Y014798D01*
X183217Y014925D01*
X183149Y015091D01*
X183149Y015271D01*
X183217Y015438D01*
X183345Y015565D01*
X183511Y015634D01*
X183691Y015634D01*
X183858Y015565D01*
X183985Y015438D01*
X184054Y015271D01*
X184054Y015091D01*
X183985Y014925D01*
X183858Y014798D01*
X183691Y014729D01*
X183511Y014729D01*
X183715Y014739D02*
X187601Y014739D01*
X187601Y014887D02*
X183947Y014887D01*
X184031Y015036D02*
X187601Y015036D01*
X187601Y015184D02*
X184054Y015184D01*
X184028Y015333D02*
X187601Y015333D01*
X187601Y015481D02*
X183941Y015481D01*
X183701Y015630D02*
X187601Y015630D01*
X187601Y015778D02*
X153519Y015778D01*
X153524Y015766D02*
X153524Y015597D01*
X153460Y015442D01*
X153341Y015323D01*
X153185Y015258D01*
X153017Y015258D01*
X152861Y015323D01*
X152742Y015442D01*
X152678Y015597D01*
X152678Y015766D01*
X152742Y015921D01*
X152861Y016040D01*
X153017Y016104D01*
X153185Y016104D01*
X153341Y016040D01*
X153460Y015921D01*
X153524Y015766D01*
X153524Y015630D02*
X183501Y015630D01*
X183261Y015481D02*
X153476Y015481D01*
X153351Y015333D02*
X183174Y015333D01*
X183149Y015184D02*
X107101Y015184D01*
X107101Y015036D02*
X183172Y015036D01*
X183255Y014887D02*
X171576Y014887D01*
X170626Y014887D02*
X151576Y014887D01*
X151563Y014900D02*
X151792Y014671D01*
X151917Y014371D01*
X151917Y014047D01*
X151792Y013747D01*
X151563Y013518D01*
X151263Y013393D01*
X150939Y013393D01*
X150639Y013518D01*
X150410Y013747D01*
X150286Y014047D01*
X150286Y014371D01*
X150410Y014671D01*
X150639Y014900D01*
X150939Y015024D01*
X151263Y015024D01*
X151563Y014900D01*
X151725Y014739D02*
X170477Y014739D01*
X170376Y014590D02*
X151826Y014590D01*
X151887Y014442D02*
X170315Y014442D01*
X170286Y014293D02*
X151917Y014293D01*
X151917Y014144D02*
X170286Y014144D01*
X170307Y013996D02*
X151896Y013996D01*
X151834Y013847D02*
X170368Y013847D01*
X170458Y013699D02*
X151744Y013699D01*
X151596Y013550D02*
X154386Y013550D01*
X154234Y013402D02*
X151284Y013402D01*
X150919Y013402D02*
X131284Y013402D01*
X131263Y013393D02*
X130939Y013393D01*
X130639Y013518D01*
X130410Y013747D01*
X130286Y014047D01*
X130286Y014371D01*
X130410Y014671D01*
X130639Y014900D01*
X130939Y015024D01*
X131263Y015024D01*
X131563Y014900D01*
X131792Y014671D01*
X131917Y014371D01*
X131917Y014047D01*
X131792Y013747D01*
X131563Y013518D01*
X131263Y013393D01*
X130919Y013402D02*
X111284Y013402D01*
X111263Y013393D02*
X110939Y013393D01*
X110639Y013518D01*
X110410Y013747D01*
X110286Y014047D01*
X110286Y014371D01*
X110410Y014671D01*
X110639Y014900D01*
X110939Y015024D01*
X111263Y015024D01*
X111563Y014900D01*
X111792Y014671D01*
X111917Y014371D01*
X111917Y014047D01*
X111792Y013747D01*
X111563Y013518D01*
X111263Y013393D01*
X110919Y013402D02*
X107101Y013402D01*
X107101Y013550D02*
X110606Y013550D01*
X110458Y013699D02*
X107101Y013699D01*
X107101Y013847D02*
X110368Y013847D01*
X110307Y013996D02*
X107101Y013996D01*
X107101Y014144D02*
X110286Y014144D01*
X110286Y014293D02*
X107101Y014293D01*
X107101Y014442D02*
X110315Y014442D01*
X110376Y014590D02*
X107101Y014590D01*
X107101Y014739D02*
X110477Y014739D01*
X110626Y014887D02*
X107101Y014887D01*
X107101Y015333D02*
X152851Y015333D01*
X152726Y015481D02*
X107101Y015481D01*
X107101Y015630D02*
X152678Y015630D01*
X152683Y015778D02*
X107101Y015778D01*
X107101Y015927D02*
X152748Y015927D01*
X152947Y016076D02*
X107101Y016076D01*
X107101Y016224D02*
X187601Y016224D01*
X187601Y016076D02*
X153255Y016076D01*
X153454Y015927D02*
X187601Y015927D01*
X187601Y016373D02*
X185932Y016373D01*
X185985Y016425D02*
X185858Y016298D01*
X185691Y016229D01*
X185511Y016229D01*
X185345Y016298D01*
X185217Y016425D01*
X185149Y016591D01*
X185149Y016771D01*
X185217Y016938D01*
X185345Y017065D01*
X185511Y017134D01*
X185691Y017134D01*
X185858Y017065D01*
X185985Y016938D01*
X186054Y016771D01*
X186054Y016591D01*
X185985Y016425D01*
X186025Y016521D02*
X187601Y016521D01*
X187601Y016670D02*
X186054Y016670D01*
X186034Y016818D02*
X187601Y016818D01*
X187601Y016967D02*
X185956Y016967D01*
X185736Y017115D02*
X187601Y017115D01*
X188101Y016670D02*
X195601Y016670D01*
X195601Y016521D02*
X193956Y016521D01*
X193778Y016521D02*
X193692Y016521D01*
X193692Y016373D02*
X193778Y016373D01*
X193778Y016224D02*
X193692Y016224D01*
X193692Y015927D02*
X193778Y015927D01*
X193778Y015778D02*
X193692Y015778D01*
X193692Y015630D02*
X193778Y015630D01*
X194151Y016373D02*
X195601Y016373D01*
X193514Y016521D02*
X188101Y016521D01*
X188101Y016373D02*
X193319Y016373D01*
X195601Y017264D02*
X184101Y017264D01*
X184101Y017412D02*
X195601Y017412D01*
X195601Y017561D02*
X193932Y017561D01*
X193850Y017527D02*
X193620Y017527D01*
X193407Y017615D01*
X193244Y017778D01*
X193156Y017991D01*
X193156Y018222D01*
X193244Y018435D01*
X193407Y018598D01*
X193620Y018686D01*
X193850Y018686D01*
X194063Y018598D01*
X194226Y018435D01*
X194314Y018222D01*
X194314Y017991D01*
X194226Y017778D01*
X194063Y017615D01*
X193850Y017527D01*
X193538Y017561D02*
X184101Y017561D01*
X184101Y017710D02*
X193313Y017710D01*
X193211Y017858D02*
X184101Y017858D01*
X184101Y018007D02*
X193156Y018007D01*
X193156Y018155D02*
X184101Y018155D01*
X184101Y018304D02*
X193190Y018304D01*
X193261Y018452D02*
X184101Y018452D01*
X184101Y018601D02*
X193414Y018601D01*
X193630Y018955D02*
X193435Y019036D01*
X193286Y019185D01*
X193206Y019379D01*
X193206Y019441D01*
X193692Y019441D01*
X193692Y018955D01*
X193630Y018955D01*
X193692Y019046D02*
X193778Y019046D01*
X193778Y018955D02*
X193778Y019441D01*
X193692Y019441D01*
X193692Y019528D01*
X193778Y019528D01*
X193778Y020014D01*
X193840Y020014D01*
X194035Y019933D01*
X194184Y019784D01*
X194264Y019590D01*
X194264Y019528D01*
X193778Y019528D01*
X193778Y019441D01*
X194264Y019441D01*
X194264Y019379D01*
X194184Y019185D01*
X194035Y019036D01*
X193840Y018955D01*
X193778Y018955D01*
X193778Y019195D02*
X193692Y019195D01*
X193692Y019344D02*
X193778Y019344D01*
X193778Y019492D02*
X195601Y019492D01*
X195601Y019344D02*
X194249Y019344D01*
X194188Y019195D02*
X195601Y019195D01*
X195601Y019046D02*
X194045Y019046D01*
X194056Y018601D02*
X195601Y018601D01*
X195601Y018749D02*
X184101Y018749D01*
X184101Y018898D02*
X195601Y018898D01*
X195601Y018452D02*
X194209Y018452D01*
X194280Y018304D02*
X195601Y018304D01*
X195601Y018155D02*
X194314Y018155D01*
X194314Y018007D02*
X195601Y018007D01*
X195601Y017858D02*
X194259Y017858D01*
X194157Y017710D02*
X195601Y017710D01*
X193425Y019046D02*
X184101Y019046D01*
X184101Y019195D02*
X193282Y019195D01*
X193221Y019344D02*
X184101Y019344D01*
X184101Y019492D02*
X193692Y019492D01*
X193692Y019528D02*
X193206Y019528D01*
X193206Y019590D01*
X193286Y019784D01*
X193435Y019933D01*
X193630Y020014D01*
X193692Y020014D01*
X193692Y019528D01*
X193692Y019641D02*
X193778Y019641D01*
X193778Y019789D02*
X193692Y019789D01*
X193692Y019938D02*
X193778Y019938D01*
X194024Y019938D02*
X195601Y019938D01*
X195601Y020086D02*
X184101Y020086D01*
X184101Y019938D02*
X193446Y019938D01*
X193291Y019789D02*
X184101Y019789D01*
X184101Y019641D02*
X193227Y019641D01*
X194179Y019789D02*
X195601Y019789D01*
X195601Y019641D02*
X194243Y019641D01*
X193850Y020972D02*
X193620Y020972D01*
X193407Y021060D01*
X193244Y021223D01*
X193156Y021436D01*
X193156Y021667D01*
X193244Y021880D01*
X193407Y022043D01*
X193620Y022131D01*
X193850Y022131D01*
X194063Y022043D01*
X194226Y021880D01*
X194314Y021667D01*
X194314Y021436D01*
X194226Y021223D01*
X194063Y021060D01*
X193850Y020972D01*
X193863Y020977D02*
X195601Y020977D01*
X195601Y020829D02*
X184998Y020829D01*
X185024Y020766D02*
X185024Y020681D01*
X195601Y020681D01*
X195601Y023681D01*
X098121Y023681D01*
X098121Y023578D01*
X098042Y023387D01*
X097896Y023241D01*
X097753Y023181D01*
X097896Y023122D01*
X098042Y022976D01*
X098121Y022785D01*
X098121Y022578D01*
X098042Y022387D01*
X097896Y022241D01*
X097753Y022181D01*
X097896Y022122D01*
X098042Y021976D01*
X098121Y021785D01*
X098121Y021578D01*
X098042Y021387D01*
X097896Y021241D01*
X097753Y021181D01*
X097896Y021122D01*
X098042Y020976D01*
X098121Y020785D01*
X098121Y020578D01*
X098042Y020387D01*
X097896Y020241D01*
X097753Y020181D01*
X097896Y020122D01*
X098042Y019976D01*
X098121Y019785D01*
X098121Y019578D01*
X098042Y019387D01*
X097896Y019241D01*
X097753Y019181D01*
X097896Y019122D01*
X098042Y018976D01*
X098121Y018785D01*
X098121Y018578D01*
X098042Y018387D01*
X097896Y018241D01*
X097705Y018161D01*
X097498Y018161D01*
X097307Y018241D01*
X097160Y018387D01*
X097101Y018530D01*
X097042Y018387D01*
X096896Y018241D01*
X096753Y018181D01*
X096896Y018122D01*
X097042Y017976D01*
X097121Y017785D01*
X097121Y017578D01*
X097042Y017387D01*
X096896Y017241D01*
X096753Y017181D01*
X096896Y017122D01*
X097042Y016976D01*
X097101Y016833D01*
X097160Y016976D01*
X097307Y017122D01*
X097498Y017201D01*
X097705Y017201D01*
X097896Y017122D01*
X098042Y016976D01*
X098121Y016785D01*
X098121Y016578D01*
X098042Y016387D01*
X097896Y016241D01*
X097753Y016181D01*
X097896Y016122D01*
X098042Y015976D01*
X098121Y015785D01*
X098121Y015578D01*
X098042Y015387D01*
X097896Y015241D01*
X097705Y015161D01*
X097498Y015161D01*
X097307Y015241D01*
X097160Y015387D01*
X097101Y015530D01*
X097042Y015387D01*
X096896Y015241D01*
X096705Y015161D01*
X096498Y015161D01*
X096307Y015241D01*
X096160Y015387D01*
X096081Y015578D01*
X096081Y015785D01*
X096160Y015976D01*
X096307Y016122D01*
X096450Y016181D01*
X096307Y016241D01*
X096160Y016387D01*
X096081Y016578D01*
X096081Y016785D01*
X096160Y016976D01*
X096307Y017122D01*
X096450Y017181D01*
X096307Y017241D01*
X096160Y017387D01*
X096081Y017578D01*
X096081Y017785D01*
X096160Y017976D01*
X096307Y018122D01*
X096449Y018181D01*
X096307Y018241D01*
X096160Y018387D01*
X096081Y018578D01*
X096081Y018785D01*
X096160Y018976D01*
X096307Y019122D01*
X096449Y019181D01*
X096307Y019241D01*
X096160Y019387D01*
X096081Y019578D01*
X096081Y019785D01*
X096160Y019976D01*
X096307Y020122D01*
X096449Y020181D01*
X096307Y020241D01*
X096160Y020387D01*
X096081Y020578D01*
X096081Y020785D01*
X096160Y020976D01*
X096307Y021122D01*
X096449Y021181D01*
X096307Y021241D01*
X096160Y021387D01*
X096081Y021578D01*
X096081Y021785D01*
X096160Y021976D01*
X096307Y022122D01*
X096449Y022181D01*
X096307Y022241D01*
X096160Y022387D01*
X096081Y022578D01*
X096081Y022785D01*
X096160Y022976D01*
X096307Y023122D01*
X096449Y023181D01*
X096307Y023241D01*
X096160Y023387D01*
X096081Y023578D01*
X096081Y023681D01*
X065054Y023681D01*
X065054Y023591D01*
X064985Y023425D01*
X064858Y023298D01*
X064691Y023229D01*
X064511Y023229D01*
X064345Y023298D01*
X064217Y023425D01*
X064149Y023591D01*
X064149Y023681D01*
X052601Y023681D01*
X052601Y014681D01*
X070420Y014681D01*
X070639Y014900D01*
X070939Y015024D01*
X071263Y015024D01*
X071563Y014900D01*
X071782Y014681D01*
X087649Y014681D01*
X087649Y014771D01*
X087717Y014938D01*
X087845Y015065D01*
X088011Y015134D01*
X088191Y015134D01*
X088358Y015065D01*
X088485Y014938D01*
X088554Y014771D01*
X088554Y014681D01*
X092101Y014681D01*
X092101Y011681D01*
X106101Y011681D01*
X106101Y017181D01*
X110420Y017181D01*
X110410Y017192D01*
X110286Y017492D01*
X110286Y017816D01*
X110410Y018116D01*
X110639Y018345D01*
X110939Y018469D01*
X111263Y018469D01*
X111563Y018345D01*
X111792Y018116D01*
X111917Y017816D01*
X111917Y017492D01*
X111792Y017192D01*
X111782Y017181D01*
X130420Y017181D01*
X130410Y017192D01*
X130286Y017492D01*
X130286Y017816D01*
X130410Y018116D01*
X130639Y018345D01*
X130939Y018469D01*
X131263Y018469D01*
X131563Y018345D01*
X131792Y018116D01*
X131917Y017816D01*
X131917Y017492D01*
X131792Y017192D01*
X131782Y017181D01*
X150420Y017181D01*
X150410Y017192D01*
X150286Y017492D01*
X150286Y017816D01*
X150410Y018116D01*
X150639Y018345D01*
X150939Y018469D01*
X151263Y018469D01*
X151563Y018345D01*
X151792Y018116D01*
X151917Y017816D01*
X151917Y017492D01*
X151792Y017192D01*
X151782Y017181D01*
X170420Y017181D01*
X170410Y017192D01*
X170286Y017492D01*
X170286Y017816D01*
X170410Y018116D01*
X170639Y018345D01*
X170939Y018469D01*
X171263Y018469D01*
X171563Y018345D01*
X171792Y018116D01*
X171917Y017816D01*
X171917Y017492D01*
X171792Y017192D01*
X171782Y017181D01*
X183601Y017181D01*
X183601Y020681D01*
X184178Y020681D01*
X184178Y020766D01*
X184242Y020921D01*
X184361Y021040D01*
X184517Y021104D01*
X184685Y021104D01*
X184841Y021040D01*
X184960Y020921D01*
X185024Y020766D01*
X184903Y020977D02*
X193607Y020977D01*
X193341Y021126D02*
X171672Y021126D01*
X171563Y021018D02*
X171263Y020893D01*
X170939Y020893D01*
X170639Y021018D01*
X170410Y021247D01*
X170286Y021547D01*
X170286Y021871D01*
X170410Y022171D01*
X170639Y022400D01*
X170939Y022524D01*
X171263Y022524D01*
X171563Y022400D01*
X171792Y022171D01*
X171917Y021871D01*
X171917Y021547D01*
X171792Y021247D01*
X171563Y021018D01*
X171466Y020977D02*
X181299Y020977D01*
X181242Y020921D02*
X181361Y021040D01*
X181517Y021104D01*
X181685Y021104D01*
X181841Y021040D01*
X181960Y020921D01*
X182024Y020766D01*
X182024Y020597D01*
X181960Y020442D01*
X181841Y020323D01*
X181685Y020258D01*
X181517Y020258D01*
X181361Y020323D01*
X181242Y020442D01*
X181178Y020597D01*
X181178Y020766D01*
X181242Y020921D01*
X181204Y020829D02*
X098103Y020829D01*
X098121Y020680D02*
X181178Y020680D01*
X181205Y020532D02*
X098102Y020532D01*
X098038Y020383D02*
X110266Y020383D01*
X110327Y020408D02*
X110616Y020408D01*
X110883Y020298D01*
X111087Y020093D01*
X111198Y019826D01*
X111198Y019537D01*
X111087Y019270D01*
X110883Y019065D01*
X110616Y018954D01*
X110327Y018954D01*
X110059Y019065D01*
X109855Y019270D01*
X109744Y019537D01*
X109744Y019826D01*
X109855Y020093D01*
X110059Y020298D01*
X110327Y020408D01*
X110676Y020383D02*
X130266Y020383D01*
X130327Y020408D02*
X130616Y020408D01*
X130883Y020298D01*
X131087Y020093D01*
X131198Y019826D01*
X131198Y019537D01*
X131087Y019270D01*
X130883Y019065D01*
X130616Y018954D01*
X130327Y018954D01*
X130059Y019065D01*
X129855Y019270D01*
X129744Y019537D01*
X129744Y019826D01*
X129855Y020093D01*
X130059Y020298D01*
X130327Y020408D01*
X130676Y020383D02*
X150266Y020383D01*
X150327Y020408D02*
X150616Y020408D01*
X150883Y020298D01*
X151087Y020093D01*
X151198Y019826D01*
X151198Y019537D01*
X151087Y019270D01*
X150883Y019065D01*
X150616Y018954D01*
X150327Y018954D01*
X150059Y019065D01*
X149855Y019270D01*
X149744Y019537D01*
X149744Y019826D01*
X149855Y020093D01*
X150059Y020298D01*
X150327Y020408D01*
X150676Y020383D02*
X170266Y020383D01*
X170327Y020408D02*
X170616Y020408D01*
X170883Y020298D01*
X171087Y020093D01*
X171198Y019826D01*
X171198Y019537D01*
X171087Y019270D01*
X170883Y019065D01*
X170616Y018954D01*
X170327Y018954D01*
X170059Y019065D01*
X169855Y019270D01*
X169744Y019537D01*
X169744Y019826D01*
X169855Y020093D01*
X170059Y020298D01*
X170327Y020408D01*
X170676Y020383D02*
X181301Y020383D01*
X181901Y020383D02*
X182801Y020383D01*
X182742Y020442D02*
X182678Y020597D01*
X182678Y020766D01*
X182742Y020921D01*
X182861Y021040D01*
X183017Y021104D01*
X183185Y021104D01*
X183341Y021040D01*
X183460Y020921D01*
X183524Y020766D01*
X183524Y020597D01*
X183460Y020442D01*
X183341Y020323D01*
X183185Y020258D01*
X183017Y020258D01*
X182861Y020323D01*
X182742Y020442D01*
X182705Y020532D02*
X181997Y020532D01*
X182024Y020680D02*
X182678Y020680D01*
X182704Y020829D02*
X181998Y020829D01*
X181903Y020977D02*
X182799Y020977D01*
X182978Y021275D02*
X181725Y021275D01*
X181685Y021258D02*
X181517Y021258D01*
X181361Y021323D01*
X181242Y021442D01*
X181178Y021597D01*
X181178Y021766D01*
X181242Y021921D01*
X181361Y022040D01*
X181517Y022104D01*
X181685Y022104D01*
X181841Y022040D01*
X181960Y021921D01*
X182024Y021766D01*
X182024Y021597D01*
X181960Y021442D01*
X181841Y021323D01*
X181685Y021258D01*
X181478Y021275D02*
X171804Y021275D01*
X171865Y021423D02*
X181261Y021423D01*
X181189Y021572D02*
X171917Y021572D01*
X171917Y021720D02*
X181178Y021720D01*
X181221Y021869D02*
X171917Y021869D01*
X171856Y022017D02*
X181339Y022017D01*
X181517Y022258D02*
X181685Y022258D01*
X181841Y022323D01*
X181960Y022442D01*
X182024Y022597D01*
X182024Y022766D01*
X181960Y022921D01*
X181841Y023040D01*
X181685Y023104D01*
X181517Y023104D01*
X181361Y023040D01*
X181242Y022921D01*
X181178Y022766D01*
X181178Y022597D01*
X181242Y022442D01*
X181361Y022323D01*
X181517Y022258D01*
X181382Y022314D02*
X171649Y022314D01*
X171795Y022166D02*
X195601Y022166D01*
X195601Y022314D02*
X184821Y022314D01*
X184841Y022323D02*
X184685Y022258D01*
X184517Y022258D01*
X184361Y022323D01*
X184242Y022442D01*
X184178Y022597D01*
X184178Y022766D01*
X184242Y022921D01*
X184361Y023040D01*
X184517Y023104D01*
X184685Y023104D01*
X184841Y023040D01*
X184960Y022921D01*
X185024Y022766D01*
X185024Y022597D01*
X184960Y022442D01*
X184841Y022323D01*
X184969Y022463D02*
X193478Y022463D01*
X193435Y022481D02*
X193286Y022630D01*
X193206Y022824D01*
X193206Y022886D01*
X193692Y022886D01*
X193692Y022400D01*
X193630Y022400D01*
X193435Y022481D01*
X193304Y022611D02*
X185024Y022611D01*
X185024Y022760D02*
X193232Y022760D01*
X193206Y022973D02*
X193206Y023035D01*
X193286Y023229D01*
X193435Y023378D01*
X193630Y023459D01*
X193692Y023459D01*
X193692Y022973D01*
X193778Y022973D01*
X193778Y023459D01*
X193840Y023459D01*
X194035Y023378D01*
X194184Y023229D01*
X194264Y023035D01*
X194264Y022973D01*
X193778Y022973D01*
X193778Y022886D01*
X193692Y022886D01*
X193692Y022973D01*
X193206Y022973D01*
X193215Y023057D02*
X184800Y023057D01*
X184965Y022909D02*
X193692Y022909D01*
X193778Y022909D02*
X195601Y022909D01*
X195601Y023057D02*
X194255Y023057D01*
X194193Y023206D02*
X195601Y023206D01*
X195601Y023354D02*
X194059Y023354D01*
X193778Y023354D02*
X193692Y023354D01*
X193692Y023206D02*
X193778Y023206D01*
X193778Y023057D02*
X193692Y023057D01*
X193778Y022886D02*
X194264Y022886D01*
X194264Y022824D01*
X194184Y022630D01*
X194035Y022481D01*
X193840Y022400D01*
X193778Y022400D01*
X193778Y022886D01*
X193778Y022760D02*
X193692Y022760D01*
X193692Y022611D02*
X193778Y022611D01*
X193778Y022463D02*
X193692Y022463D01*
X193992Y022463D02*
X195601Y022463D01*
X195601Y022611D02*
X194166Y022611D01*
X194238Y022760D02*
X195601Y022760D01*
X193411Y023354D02*
X098009Y023354D01*
X098090Y023503D02*
X195601Y023503D01*
X195601Y023651D02*
X098121Y023651D01*
X097811Y023206D02*
X193276Y023206D01*
X195601Y024181D02*
X195601Y027181D01*
X191101Y027181D01*
X191101Y031181D01*
X102101Y031181D01*
X102101Y034681D01*
X092601Y034681D01*
X092601Y030181D01*
X052601Y030181D01*
X052601Y024181D01*
X096449Y024181D01*
X096307Y024241D01*
X096160Y024387D01*
X096081Y024578D01*
X096081Y024785D01*
X096160Y024976D01*
X096307Y025122D01*
X096449Y025181D01*
X096307Y025241D01*
X096160Y025387D01*
X096081Y025578D01*
X096081Y025785D01*
X096160Y025976D01*
X096307Y026122D01*
X096449Y026181D01*
X096307Y026241D01*
X096160Y026387D01*
X096081Y026578D01*
X096081Y026785D01*
X096160Y026976D01*
X096307Y027122D01*
X096449Y027181D01*
X096307Y027241D01*
X096160Y027387D01*
X096081Y027578D01*
X096081Y027785D01*
X096160Y027976D01*
X096307Y028122D01*
X096449Y028181D01*
X096307Y028241D01*
X096160Y028387D01*
X096081Y028578D01*
X096081Y028785D01*
X096160Y028976D01*
X096307Y029122D01*
X096498Y029201D01*
X096705Y029201D01*
X096896Y029122D01*
X097042Y028976D01*
X097101Y028833D01*
X097160Y028976D01*
X097307Y029122D01*
X097498Y029201D01*
X097705Y029201D01*
X097896Y029122D01*
X098042Y028976D01*
X098121Y028785D01*
X098121Y028578D01*
X098042Y028387D01*
X097896Y028241D01*
X097753Y028181D01*
X097896Y028122D01*
X098042Y027976D01*
X098121Y027785D01*
X098121Y027578D01*
X098042Y027387D01*
X097896Y027241D01*
X097753Y027181D01*
X097896Y027122D01*
X098042Y026976D01*
X098121Y026785D01*
X098121Y026578D01*
X098042Y026387D01*
X097896Y026241D01*
X097753Y026181D01*
X097896Y026122D01*
X098042Y025976D01*
X098121Y025785D01*
X098121Y025578D01*
X098042Y025387D01*
X097896Y025241D01*
X097753Y025181D01*
X097896Y025122D01*
X098042Y024976D01*
X098121Y024785D01*
X098121Y024578D01*
X098042Y024387D01*
X097896Y024241D01*
X097753Y024181D01*
X195601Y024181D01*
X195601Y024245D02*
X097901Y024245D01*
X098045Y024394D02*
X110805Y024394D01*
X110939Y024338D02*
X110639Y024462D01*
X110410Y024692D01*
X110286Y024992D01*
X110286Y025316D01*
X110410Y025616D01*
X110639Y025845D01*
X110939Y025969D01*
X111263Y025969D01*
X111563Y025845D01*
X111792Y025616D01*
X111917Y025316D01*
X111917Y024992D01*
X111792Y024692D01*
X111563Y024462D01*
X111263Y024338D01*
X110939Y024338D01*
X110559Y024543D02*
X098106Y024543D01*
X098121Y024691D02*
X110411Y024691D01*
X110349Y024840D02*
X098098Y024840D01*
X098030Y024988D02*
X110287Y024988D01*
X110286Y025137D02*
X097861Y025137D01*
X097940Y025285D02*
X110286Y025285D01*
X110334Y025434D02*
X098061Y025434D01*
X098121Y025582D02*
X110396Y025582D01*
X110525Y025731D02*
X098121Y025731D01*
X098082Y025879D02*
X110722Y025879D01*
X110616Y026454D02*
X110327Y026454D01*
X110059Y026565D01*
X109855Y026770D01*
X109744Y027037D01*
X109744Y027326D01*
X109855Y027593D01*
X110059Y027798D01*
X110327Y027908D01*
X110616Y027908D01*
X110883Y027798D01*
X111087Y027593D01*
X111198Y027326D01*
X111198Y027037D01*
X111087Y026770D01*
X110883Y026565D01*
X110616Y026454D01*
X110662Y026474D02*
X130280Y026474D01*
X130327Y026454D02*
X130059Y026565D01*
X129855Y026770D01*
X129744Y027037D01*
X129744Y027326D01*
X129855Y027593D01*
X130059Y027798D01*
X130327Y027908D01*
X130616Y027908D01*
X130883Y027798D01*
X131087Y027593D01*
X131198Y027326D01*
X131198Y027037D01*
X131087Y026770D01*
X130883Y026565D01*
X130616Y026454D01*
X130327Y026454D01*
X130662Y026474D02*
X150280Y026474D01*
X150327Y026454D02*
X150059Y026565D01*
X149855Y026770D01*
X149744Y027037D01*
X149744Y027326D01*
X149855Y027593D01*
X150059Y027798D01*
X150327Y027908D01*
X150616Y027908D01*
X150883Y027798D01*
X151087Y027593D01*
X151198Y027326D01*
X151198Y027037D01*
X151087Y026770D01*
X150883Y026565D01*
X150616Y026454D01*
X150327Y026454D01*
X150662Y026474D02*
X170280Y026474D01*
X170327Y026454D02*
X170059Y026565D01*
X169855Y026770D01*
X169744Y027037D01*
X169744Y027326D01*
X169855Y027593D01*
X170059Y027798D01*
X170327Y027908D01*
X170616Y027908D01*
X170883Y027798D01*
X171087Y027593D01*
X171198Y027326D01*
X171198Y027037D01*
X171087Y026770D01*
X170883Y026565D01*
X170616Y026454D01*
X170327Y026454D01*
X170662Y026474D02*
X193206Y026474D01*
X193206Y026480D02*
X193286Y026674D01*
X193435Y026823D01*
X193630Y026904D01*
X193692Y026904D01*
X193692Y026418D01*
X193778Y026418D01*
X193778Y026904D01*
X193840Y026904D01*
X194035Y026823D01*
X194184Y026674D01*
X194264Y026480D01*
X194264Y026417D01*
X193778Y026417D01*
X193778Y026331D01*
X193692Y026331D01*
X193692Y025845D01*
X193630Y025845D01*
X193435Y025926D01*
X193286Y026074D01*
X193206Y026269D01*
X193206Y026331D01*
X193692Y026331D01*
X193692Y026417D01*
X193206Y026417D01*
X193206Y026480D01*
X193265Y026622D02*
X170940Y026622D01*
X171088Y026771D02*
X179410Y026771D01*
X179345Y026798D02*
X179217Y026925D01*
X179149Y027091D01*
X179149Y027271D01*
X179217Y027438D01*
X179345Y027565D01*
X179511Y027634D01*
X179691Y027634D01*
X179858Y027565D01*
X179985Y027438D01*
X180054Y027271D01*
X180054Y027091D01*
X179985Y026925D01*
X179858Y026798D01*
X179691Y026729D01*
X179511Y026729D01*
X179345Y026798D01*
X179223Y026919D02*
X171149Y026919D01*
X171198Y027068D02*
X179158Y027068D01*
X179149Y027216D02*
X171198Y027216D01*
X171182Y027365D02*
X179187Y027365D01*
X179293Y027513D02*
X171121Y027513D01*
X171019Y027662D02*
X191101Y027662D01*
X191101Y027810D02*
X181370Y027810D01*
X181358Y027798D02*
X181191Y027729D01*
X181011Y027729D01*
X180845Y027798D01*
X180717Y027925D01*
X180649Y028091D01*
X180649Y028271D01*
X180717Y028438D01*
X180845Y028565D01*
X181011Y028634D01*
X181191Y028634D01*
X181358Y028565D01*
X181485Y028438D01*
X181554Y028271D01*
X181554Y028091D01*
X181485Y027925D01*
X181358Y027798D01*
X181499Y027959D02*
X191101Y027959D01*
X191101Y028108D02*
X181554Y028108D01*
X181554Y028256D02*
X191101Y028256D01*
X191101Y028405D02*
X181499Y028405D01*
X181369Y028553D02*
X191101Y028553D01*
X191101Y028702D02*
X178554Y028702D01*
X178554Y028771D02*
X178554Y028591D01*
X178485Y028425D01*
X178358Y028298D01*
X178191Y028229D01*
X178011Y028229D01*
X177845Y028298D01*
X177717Y028425D01*
X177649Y028591D01*
X177649Y028771D01*
X177717Y028938D01*
X177845Y029065D01*
X178011Y029134D01*
X178191Y029134D01*
X178358Y029065D01*
X178485Y028938D01*
X178554Y028771D01*
X178521Y028850D02*
X191101Y028850D01*
X191101Y028999D02*
X178424Y028999D01*
X178538Y028553D02*
X180833Y028553D01*
X180704Y028405D02*
X178464Y028405D01*
X178257Y028256D02*
X180649Y028256D01*
X180649Y028108D02*
X162755Y028108D01*
X162691Y028134D02*
X162858Y028065D01*
X162985Y027938D01*
X163054Y027771D01*
X163054Y027591D01*
X162985Y027425D01*
X162858Y027298D01*
X162691Y027229D01*
X162511Y027229D01*
X162345Y027298D01*
X162217Y027425D01*
X162149Y027591D01*
X162149Y027771D01*
X162217Y027938D01*
X162345Y028065D01*
X162511Y028134D01*
X162691Y028134D01*
X162447Y028108D02*
X097910Y028108D01*
X097911Y028256D02*
X177945Y028256D01*
X177738Y028405D02*
X171290Y028405D01*
X171263Y028393D02*
X170939Y028393D01*
X170639Y028518D01*
X170410Y028747D01*
X170286Y029047D01*
X170286Y029371D01*
X170410Y029671D01*
X170639Y029900D01*
X170939Y030024D01*
X171263Y030024D01*
X171563Y029900D01*
X171792Y029671D01*
X171917Y029371D01*
X171917Y029047D01*
X171792Y028747D01*
X171563Y028518D01*
X171263Y028393D01*
X170912Y028405D02*
X164548Y028405D01*
X164585Y028442D02*
X164466Y028323D01*
X164310Y028258D01*
X164142Y028258D01*
X163986Y028323D01*
X163867Y028442D01*
X163803Y028597D01*
X163803Y028766D01*
X163867Y028921D01*
X163986Y029040D01*
X164142Y029104D01*
X164310Y029104D01*
X164466Y029040D01*
X164585Y028921D01*
X164649Y028766D01*
X164649Y028597D01*
X164585Y028442D01*
X164631Y028553D02*
X170604Y028553D01*
X170455Y028702D02*
X164649Y028702D01*
X164614Y028850D02*
X170367Y028850D01*
X170305Y028999D02*
X164507Y028999D01*
X164401Y029296D02*
X170286Y029296D01*
X170286Y029147D02*
X151917Y029147D01*
X151917Y029047D02*
X151917Y029371D01*
X151792Y029671D01*
X151563Y029900D01*
X151263Y030024D01*
X150939Y030024D01*
X150639Y029900D01*
X150410Y029671D01*
X150286Y029371D01*
X150286Y029047D01*
X150410Y028747D01*
X150639Y028518D01*
X150939Y028393D01*
X151263Y028393D01*
X151563Y028518D01*
X151792Y028747D01*
X151917Y029047D01*
X151897Y028999D02*
X163945Y028999D01*
X163838Y028850D02*
X151835Y028850D01*
X151747Y028702D02*
X163803Y028702D01*
X163821Y028553D02*
X151599Y028553D01*
X151290Y028405D02*
X163905Y028405D01*
X162964Y027959D02*
X180703Y027959D01*
X180832Y027810D02*
X170852Y027810D01*
X170090Y027810D02*
X163038Y027810D01*
X163054Y027662D02*
X169924Y027662D01*
X169822Y027513D02*
X163021Y027513D01*
X162925Y027365D02*
X169760Y027365D01*
X169744Y027216D02*
X151198Y027216D01*
X151198Y027068D02*
X169744Y027068D01*
X169793Y026919D02*
X151149Y026919D01*
X151088Y026771D02*
X169854Y026771D01*
X170002Y026622D02*
X150940Y026622D01*
X150939Y025969D02*
X151263Y025969D01*
X151563Y025845D01*
X151792Y025616D01*
X151917Y025316D01*
X151917Y024992D01*
X151792Y024692D01*
X151563Y024462D01*
X151263Y024338D01*
X150939Y024338D01*
X150639Y024462D01*
X150410Y024692D01*
X150286Y024992D01*
X150286Y025316D01*
X150410Y025616D01*
X150639Y025845D01*
X150939Y025969D01*
X150722Y025879D02*
X131481Y025879D01*
X131563Y025845D02*
X131792Y025616D01*
X131917Y025316D01*
X131917Y024992D01*
X131792Y024692D01*
X131563Y024462D01*
X131263Y024338D01*
X130939Y024338D01*
X130639Y024462D01*
X130410Y024692D01*
X130286Y024992D01*
X130286Y025316D01*
X130410Y025616D01*
X130639Y025845D01*
X130939Y025969D01*
X131263Y025969D01*
X131563Y025845D01*
X131677Y025731D02*
X150525Y025731D01*
X150396Y025582D02*
X131806Y025582D01*
X131868Y025434D02*
X150334Y025434D01*
X150286Y025285D02*
X131917Y025285D01*
X131917Y025137D02*
X150286Y025137D01*
X150287Y024988D02*
X131915Y024988D01*
X131854Y024840D02*
X150349Y024840D01*
X150411Y024691D02*
X131792Y024691D01*
X131643Y024543D02*
X150559Y024543D01*
X150805Y024394D02*
X131398Y024394D01*
X130805Y024394D02*
X111398Y024394D01*
X111643Y024543D02*
X130559Y024543D01*
X130411Y024691D02*
X111792Y024691D01*
X111854Y024840D02*
X130349Y024840D01*
X130287Y024988D02*
X111915Y024988D01*
X111917Y025137D02*
X130286Y025137D01*
X130286Y025285D02*
X111917Y025285D01*
X111868Y025434D02*
X130334Y025434D01*
X130396Y025582D02*
X111806Y025582D01*
X111677Y025731D02*
X130525Y025731D01*
X130722Y025879D02*
X111481Y025879D01*
X110940Y026622D02*
X130002Y026622D01*
X129854Y026771D02*
X111088Y026771D01*
X111149Y026919D02*
X129793Y026919D01*
X129744Y027068D02*
X111198Y027068D01*
X111198Y027216D02*
X129744Y027216D01*
X129760Y027365D02*
X111182Y027365D01*
X111121Y027513D02*
X129822Y027513D01*
X129924Y027662D02*
X111019Y027662D01*
X110852Y027810D02*
X130090Y027810D01*
X130852Y027810D02*
X150090Y027810D01*
X149924Y027662D02*
X131019Y027662D01*
X131121Y027513D02*
X149822Y027513D01*
X149760Y027365D02*
X131182Y027365D01*
X131198Y027216D02*
X149744Y027216D01*
X149744Y027068D02*
X131198Y027068D01*
X131149Y026919D02*
X149793Y026919D01*
X149854Y026771D02*
X131088Y026771D01*
X130940Y026622D02*
X150002Y026622D01*
X151481Y025879D02*
X170722Y025879D01*
X170639Y025845D02*
X170939Y025969D01*
X171263Y025969D01*
X171563Y025845D01*
X171792Y025616D01*
X171917Y025316D01*
X171917Y024992D01*
X171792Y024692D01*
X171563Y024462D01*
X171263Y024338D01*
X170939Y024338D01*
X170639Y024462D01*
X170410Y024692D01*
X170286Y024992D01*
X170286Y025316D01*
X170410Y025616D01*
X170639Y025845D01*
X170525Y025731D02*
X151677Y025731D01*
X151806Y025582D02*
X170396Y025582D01*
X170334Y025434D02*
X151868Y025434D01*
X151917Y025285D02*
X170286Y025285D01*
X170286Y025137D02*
X151917Y025137D01*
X151915Y024988D02*
X170287Y024988D01*
X170349Y024840D02*
X151854Y024840D01*
X151792Y024691D02*
X170411Y024691D01*
X170559Y024543D02*
X151643Y024543D01*
X151398Y024394D02*
X170805Y024394D01*
X171398Y024394D02*
X195601Y024394D01*
X195601Y024543D02*
X194100Y024543D01*
X194063Y024505D02*
X193850Y024417D01*
X193620Y024417D01*
X193407Y024505D01*
X193244Y024668D01*
X193156Y024881D01*
X193156Y025112D01*
X193244Y025325D01*
X193407Y025487D01*
X193620Y025576D01*
X193850Y025576D01*
X194063Y025487D01*
X194226Y025325D01*
X194314Y025112D01*
X194314Y024881D01*
X194226Y024668D01*
X194063Y024505D01*
X194236Y024691D02*
X195601Y024691D01*
X195601Y024840D02*
X194297Y024840D01*
X194314Y024988D02*
X195601Y024988D01*
X195601Y025137D02*
X194304Y025137D01*
X194242Y025285D02*
X195601Y025285D01*
X195601Y025434D02*
X194117Y025434D01*
X193923Y025879D02*
X195601Y025879D01*
X195601Y025731D02*
X171677Y025731D01*
X171806Y025582D02*
X195601Y025582D01*
X195601Y026028D02*
X194137Y026028D01*
X194184Y026074D02*
X194035Y025926D01*
X193840Y025845D01*
X193778Y025845D01*
X193778Y026331D01*
X194264Y026331D01*
X194264Y026269D01*
X194184Y026074D01*
X194226Y026176D02*
X195601Y026176D01*
X195601Y026325D02*
X194264Y026325D01*
X194264Y026474D02*
X195601Y026474D01*
X195601Y026622D02*
X194205Y026622D01*
X194087Y026771D02*
X195601Y026771D01*
X195601Y026919D02*
X179979Y026919D01*
X180044Y027068D02*
X195601Y027068D01*
X195601Y027681D02*
X195601Y039181D01*
X073601Y039181D01*
X073601Y030681D01*
X091101Y030681D01*
X091101Y035181D01*
X103601Y035181D01*
X103601Y031681D01*
X160149Y031681D01*
X160149Y031771D01*
X160217Y031938D01*
X160345Y032065D01*
X160511Y032134D01*
X160691Y032134D01*
X160858Y032065D01*
X160985Y031938D01*
X161054Y031771D01*
X161054Y031681D01*
X161649Y031681D01*
X161649Y031771D01*
X161717Y031938D01*
X161845Y032065D01*
X162011Y032134D01*
X162191Y032134D01*
X162358Y032065D01*
X162485Y031938D01*
X162554Y031771D01*
X162554Y031681D01*
X192101Y031681D01*
X192101Y027681D01*
X195601Y027681D01*
X195601Y027810D02*
X192101Y027810D01*
X192101Y027959D02*
X193398Y027959D01*
X193407Y027950D02*
X193244Y028113D01*
X193156Y028326D01*
X193156Y028556D01*
X193244Y028769D01*
X193407Y028932D01*
X193620Y029021D01*
X193850Y029021D01*
X194063Y028932D01*
X194226Y028769D01*
X194314Y028556D01*
X194314Y028326D01*
X194226Y028113D01*
X194063Y027950D01*
X193850Y027862D01*
X193620Y027862D01*
X193407Y027950D01*
X193249Y028108D02*
X192101Y028108D01*
X192101Y028256D02*
X193185Y028256D01*
X193156Y028405D02*
X192101Y028405D01*
X192101Y028553D02*
X193156Y028553D01*
X193216Y028702D02*
X192101Y028702D01*
X192101Y028850D02*
X193325Y028850D01*
X193567Y028999D02*
X192101Y028999D01*
X192101Y029147D02*
X195601Y029147D01*
X195601Y028999D02*
X193903Y028999D01*
X194145Y028850D02*
X195601Y028850D01*
X195601Y028702D02*
X194254Y028702D01*
X194314Y028553D02*
X195601Y028553D01*
X195601Y028405D02*
X194314Y028405D01*
X194285Y028256D02*
X195601Y028256D01*
X195601Y028108D02*
X194221Y028108D01*
X194072Y027959D02*
X195601Y027959D01*
X191101Y027513D02*
X179909Y027513D01*
X180015Y027365D02*
X191101Y027365D01*
X191101Y027216D02*
X180054Y027216D01*
X179792Y026771D02*
X193383Y026771D01*
X193692Y026771D02*
X193778Y026771D01*
X193778Y026622D02*
X193692Y026622D01*
X193692Y026474D02*
X193778Y026474D01*
X193778Y026325D02*
X193692Y026325D01*
X193692Y026176D02*
X193778Y026176D01*
X193778Y026028D02*
X193692Y026028D01*
X193692Y025879D02*
X193778Y025879D01*
X193547Y025879D02*
X171481Y025879D01*
X171868Y025434D02*
X193353Y025434D01*
X193228Y025285D02*
X171917Y025285D01*
X171917Y025137D02*
X193166Y025137D01*
X193156Y024988D02*
X171915Y024988D01*
X171854Y024840D02*
X193173Y024840D01*
X193234Y024691D02*
X171792Y024691D01*
X171643Y024543D02*
X193370Y024543D01*
X193333Y026028D02*
X097990Y026028D01*
X097765Y026176D02*
X193244Y026176D01*
X193206Y026325D02*
X097980Y026325D01*
X098078Y026474D02*
X110280Y026474D01*
X110002Y026622D02*
X098121Y026622D01*
X098121Y026771D02*
X109854Y026771D01*
X109793Y026919D02*
X098065Y026919D01*
X097950Y027068D02*
X109744Y027068D01*
X109744Y027216D02*
X097837Y027216D01*
X098020Y027365D02*
X109760Y027365D01*
X109822Y027513D02*
X098094Y027513D01*
X098121Y027662D02*
X109924Y027662D01*
X110090Y027810D02*
X098110Y027810D01*
X098049Y027959D02*
X162239Y027959D01*
X162165Y027810D02*
X150852Y027810D01*
X151019Y027662D02*
X162149Y027662D01*
X162181Y027513D02*
X151121Y027513D01*
X151182Y027365D02*
X162278Y027365D01*
X163236Y029323D02*
X163117Y029442D01*
X163053Y029597D01*
X163053Y029766D01*
X163117Y029921D01*
X163236Y030040D01*
X163392Y030104D01*
X163560Y030104D01*
X163716Y030040D01*
X163835Y029921D01*
X163851Y029882D01*
X163867Y029921D01*
X163986Y030040D01*
X164142Y030104D01*
X164310Y030104D01*
X164466Y030040D01*
X164585Y029921D01*
X164649Y029766D01*
X164649Y029597D01*
X164585Y029442D01*
X164466Y029323D01*
X164310Y029258D01*
X164142Y029258D01*
X163986Y029323D01*
X163867Y029442D01*
X163851Y029481D01*
X163835Y029442D01*
X163716Y029323D01*
X163560Y029258D01*
X163392Y029258D01*
X163236Y029323D01*
X163301Y029296D02*
X151917Y029296D01*
X151886Y029444D02*
X163116Y029444D01*
X163055Y029593D02*
X151825Y029593D01*
X151722Y029742D02*
X163053Y029742D01*
X163105Y029890D02*
X151573Y029890D01*
X150629Y029890D02*
X131573Y029890D01*
X131563Y029900D02*
X131792Y029671D01*
X131917Y029371D01*
X131917Y029047D01*
X131792Y028747D01*
X131563Y028518D01*
X131263Y028393D01*
X130939Y028393D01*
X130639Y028518D01*
X130410Y028747D01*
X130286Y029047D01*
X130286Y029371D01*
X130410Y029671D01*
X130639Y029900D01*
X130939Y030024D01*
X131263Y030024D01*
X131563Y029900D01*
X131722Y029742D02*
X150480Y029742D01*
X150377Y029593D02*
X131825Y029593D01*
X131886Y029444D02*
X150316Y029444D01*
X150286Y029296D02*
X131917Y029296D01*
X131917Y029147D02*
X150286Y029147D01*
X150305Y028999D02*
X131897Y028999D01*
X131835Y028850D02*
X150367Y028850D01*
X150455Y028702D02*
X131747Y028702D01*
X131599Y028553D02*
X150604Y028553D01*
X150912Y028405D02*
X131290Y028405D01*
X130912Y028405D02*
X111290Y028405D01*
X111263Y028393D02*
X110939Y028393D01*
X110639Y028518D01*
X110410Y028747D01*
X110286Y029047D01*
X110286Y029371D01*
X110410Y029671D01*
X110639Y029900D01*
X110939Y030024D01*
X111263Y030024D01*
X111563Y029900D01*
X111792Y029671D01*
X111917Y029371D01*
X111917Y029047D01*
X111792Y028747D01*
X111563Y028518D01*
X111263Y028393D01*
X110912Y028405D02*
X098049Y028405D01*
X098111Y028553D02*
X110604Y028553D01*
X110455Y028702D02*
X098121Y028702D01*
X098094Y028850D02*
X110367Y028850D01*
X110305Y028999D02*
X098019Y028999D01*
X097835Y029147D02*
X110286Y029147D01*
X110286Y029296D02*
X088353Y029296D01*
X088358Y029298D02*
X088191Y029229D01*
X088011Y029229D01*
X087845Y029298D01*
X087717Y029425D01*
X087649Y029591D01*
X087649Y029771D01*
X087717Y029938D01*
X087845Y030065D01*
X088011Y030134D01*
X088191Y030134D01*
X088358Y030065D01*
X088485Y029938D01*
X088554Y029771D01*
X088554Y029591D01*
X088485Y029425D01*
X088358Y029298D01*
X088493Y029444D02*
X110316Y029444D01*
X110377Y029593D02*
X088554Y029593D01*
X088554Y029742D02*
X110480Y029742D01*
X110629Y029890D02*
X088505Y029890D01*
X088384Y030039D02*
X163235Y030039D01*
X163392Y030258D02*
X163236Y030323D01*
X163117Y030442D01*
X163053Y030597D01*
X163053Y030766D01*
X163117Y030921D01*
X163236Y031040D01*
X163392Y031104D01*
X163560Y031104D01*
X163716Y031040D01*
X163835Y030921D01*
X163851Y030882D01*
X163867Y030921D01*
X163986Y031040D01*
X164142Y031104D01*
X164310Y031104D01*
X164466Y031040D01*
X164585Y030921D01*
X164649Y030766D01*
X164649Y030597D01*
X164585Y030442D01*
X164466Y030323D01*
X164310Y030258D01*
X164142Y030258D01*
X163986Y030323D01*
X163867Y030442D01*
X163851Y030481D01*
X163835Y030442D01*
X163716Y030323D01*
X163560Y030258D01*
X163392Y030258D01*
X163223Y030336D02*
X092601Y030336D01*
X092601Y030484D02*
X163100Y030484D01*
X163053Y030633D02*
X092601Y030633D01*
X092601Y030781D02*
X163060Y030781D01*
X163126Y030930D02*
X092601Y030930D01*
X092601Y031078D02*
X163329Y031078D01*
X163623Y031078D02*
X164079Y031078D01*
X163876Y030930D02*
X163826Y030930D01*
X164373Y031078D02*
X167877Y031078D01*
X167845Y031065D02*
X168011Y031134D01*
X168191Y031134D01*
X168358Y031065D01*
X168485Y030938D01*
X168554Y030771D01*
X168554Y030591D01*
X168485Y030425D01*
X168358Y030298D01*
X168191Y030229D01*
X168011Y030229D01*
X167845Y030298D01*
X167717Y030425D01*
X167649Y030591D01*
X167649Y030771D01*
X167717Y030938D01*
X167845Y031065D01*
X167714Y030930D02*
X164576Y030930D01*
X164643Y030781D02*
X167653Y030781D01*
X167649Y030633D02*
X164649Y030633D01*
X164602Y030484D02*
X167693Y030484D01*
X167807Y030336D02*
X164479Y030336D01*
X164467Y030039D02*
X173670Y030039D01*
X173649Y030091D02*
X173717Y029925D01*
X173845Y029798D01*
X174011Y029729D01*
X174191Y029729D01*
X174358Y029798D01*
X174485Y029925D01*
X174554Y030091D01*
X174554Y030271D01*
X174485Y030438D01*
X174358Y030565D01*
X174191Y030634D01*
X174011Y030634D01*
X173845Y030565D01*
X173717Y030438D01*
X173649Y030271D01*
X173649Y030091D01*
X173649Y030187D02*
X092601Y030187D01*
X091101Y030781D02*
X073601Y030781D01*
X073601Y030930D02*
X091101Y030930D01*
X091101Y031078D02*
X073601Y031078D01*
X073601Y031227D02*
X091101Y031227D01*
X091101Y031376D02*
X073601Y031376D01*
X073601Y031524D02*
X091101Y031524D01*
X091101Y031673D02*
X073601Y031673D01*
X073601Y031821D02*
X091101Y031821D01*
X091101Y031970D02*
X073601Y031970D01*
X073601Y032118D02*
X091101Y032118D01*
X091101Y032267D02*
X073601Y032267D01*
X073601Y032415D02*
X091101Y032415D01*
X091101Y032564D02*
X073601Y032564D01*
X073601Y032712D02*
X091101Y032712D01*
X091101Y032861D02*
X073601Y032861D01*
X073601Y033009D02*
X091101Y033009D01*
X091101Y033158D02*
X073601Y033158D01*
X073601Y033307D02*
X079900Y033307D01*
X079861Y033323D02*
X079742Y033442D01*
X079678Y033597D01*
X079678Y033766D01*
X079742Y033921D01*
X079861Y034040D01*
X080017Y034104D01*
X080185Y034104D01*
X080341Y034040D01*
X080460Y033921D01*
X080524Y033766D01*
X080524Y033597D01*
X080460Y033442D01*
X080341Y033323D01*
X080185Y033258D01*
X080017Y033258D01*
X079861Y033323D01*
X079737Y033455D02*
X073601Y033455D01*
X073601Y033604D02*
X079678Y033604D01*
X079678Y033752D02*
X073601Y033752D01*
X073601Y033901D02*
X079734Y033901D01*
X079884Y034049D02*
X073601Y034049D01*
X073601Y034198D02*
X091101Y034198D01*
X091101Y034346D02*
X083364Y034346D01*
X083341Y034323D02*
X083460Y034442D01*
X083524Y034597D01*
X083524Y034766D01*
X083460Y034921D01*
X083341Y035040D01*
X083185Y035104D01*
X083017Y035104D01*
X082861Y035040D01*
X082742Y034921D01*
X082678Y034766D01*
X082678Y034597D01*
X082742Y034442D01*
X082861Y034323D01*
X083017Y034258D01*
X083185Y034258D01*
X083341Y034323D01*
X083482Y034495D02*
X091101Y034495D01*
X091101Y034643D02*
X083524Y034643D01*
X083513Y034792D02*
X091101Y034792D01*
X091101Y034941D02*
X083440Y034941D01*
X083222Y035089D02*
X091101Y035089D01*
X092601Y034643D02*
X102101Y034643D01*
X102101Y034495D02*
X092601Y034495D01*
X092601Y034346D02*
X102101Y034346D01*
X102101Y034198D02*
X092601Y034198D01*
X092601Y034049D02*
X102101Y034049D01*
X102101Y033901D02*
X092601Y033901D01*
X092601Y033752D02*
X102101Y033752D01*
X102101Y033604D02*
X092601Y033604D01*
X092601Y033455D02*
X102101Y033455D01*
X102101Y033307D02*
X092601Y033307D01*
X092601Y033158D02*
X102101Y033158D01*
X102101Y033009D02*
X092601Y033009D01*
X092601Y032861D02*
X102101Y032861D01*
X102101Y032712D02*
X092601Y032712D01*
X092601Y032564D02*
X102101Y032564D01*
X102101Y032415D02*
X092601Y032415D01*
X092601Y032267D02*
X102101Y032267D01*
X102101Y032118D02*
X092601Y032118D01*
X092601Y031970D02*
X102101Y031970D01*
X102101Y031821D02*
X092601Y031821D01*
X092601Y031673D02*
X102101Y031673D01*
X102101Y031524D02*
X092601Y031524D01*
X092601Y031376D02*
X102101Y031376D01*
X102101Y031227D02*
X092601Y031227D01*
X087818Y030039D02*
X084384Y030039D01*
X084358Y030065D02*
X084485Y029938D01*
X084554Y029771D01*
X084554Y029591D01*
X084485Y029425D01*
X084358Y029298D01*
X084191Y029229D01*
X084011Y029229D01*
X083845Y029298D01*
X083717Y029425D01*
X083649Y029591D01*
X083649Y029771D01*
X083717Y029938D01*
X083845Y030065D01*
X084011Y030134D01*
X084191Y030134D01*
X084358Y030065D01*
X084505Y029890D02*
X087698Y029890D01*
X087649Y029742D02*
X084554Y029742D01*
X084554Y029593D02*
X087649Y029593D01*
X087709Y029444D02*
X084493Y029444D01*
X084353Y029296D02*
X087849Y029296D01*
X086485Y028438D02*
X086554Y028271D01*
X086554Y028091D01*
X086485Y027925D01*
X086358Y027798D01*
X086191Y027729D01*
X086011Y027729D01*
X085845Y027798D01*
X085717Y027925D01*
X085649Y028091D01*
X085649Y028271D01*
X085717Y028438D01*
X085845Y028565D01*
X086011Y028634D01*
X086191Y028634D01*
X086358Y028565D01*
X086485Y028438D01*
X086499Y028405D02*
X096153Y028405D01*
X096091Y028553D02*
X086369Y028553D01*
X086554Y028256D02*
X096291Y028256D01*
X096292Y028108D02*
X086554Y028108D01*
X086499Y027959D02*
X096153Y027959D01*
X096092Y027810D02*
X086370Y027810D01*
X085832Y027810D02*
X079038Y027810D01*
X079054Y027771D02*
X079054Y027591D01*
X078985Y027425D01*
X078858Y027298D01*
X078691Y027229D01*
X078511Y027229D01*
X078345Y027298D01*
X078217Y027425D01*
X078149Y027591D01*
X078149Y027771D01*
X078217Y027938D01*
X078345Y028065D01*
X078511Y028134D01*
X078691Y028134D01*
X078858Y028065D01*
X078985Y027938D01*
X079054Y027771D01*
X079054Y027662D02*
X096081Y027662D01*
X096108Y027513D02*
X082409Y027513D01*
X082358Y027565D02*
X082485Y027438D01*
X082554Y027271D01*
X082554Y027091D01*
X082485Y026925D01*
X082358Y026798D01*
X082191Y026729D01*
X082011Y026729D01*
X081845Y026798D01*
X081717Y026925D01*
X081649Y027091D01*
X081649Y027271D01*
X081717Y027438D01*
X081845Y027565D01*
X082011Y027634D01*
X082191Y027634D01*
X082358Y027565D01*
X082515Y027365D02*
X096182Y027365D01*
X096365Y027216D02*
X082554Y027216D01*
X082544Y027068D02*
X096252Y027068D01*
X096137Y026919D02*
X082479Y026919D01*
X082292Y026771D02*
X096081Y026771D01*
X096081Y026622D02*
X070940Y026622D01*
X070883Y026565D02*
X070616Y026454D01*
X070327Y026454D01*
X070059Y026565D01*
X069855Y026770D01*
X069744Y027037D01*
X069744Y027326D01*
X069855Y027593D01*
X070059Y027798D01*
X070327Y027908D01*
X070616Y027908D01*
X070883Y027798D01*
X071087Y027593D01*
X071198Y027326D01*
X071198Y027037D01*
X071087Y026770D01*
X070883Y026565D01*
X070662Y026474D02*
X096124Y026474D01*
X096222Y026325D02*
X052601Y026325D01*
X052601Y026176D02*
X096438Y026176D01*
X096212Y026028D02*
X055853Y026028D01*
X055841Y026040D02*
X055960Y025921D01*
X056024Y025766D01*
X056024Y025597D01*
X055960Y025442D01*
X055841Y025323D01*
X055685Y025258D01*
X055517Y025258D01*
X055361Y025323D01*
X055242Y025442D01*
X055178Y025597D01*
X055178Y025766D01*
X055242Y025921D01*
X055361Y026040D01*
X055517Y026104D01*
X055685Y026104D01*
X055841Y026040D01*
X055977Y025879D02*
X070722Y025879D01*
X070639Y025845D02*
X070939Y025969D01*
X071263Y025969D01*
X071563Y025845D01*
X071792Y025616D01*
X071917Y025316D01*
X071917Y024992D01*
X071792Y024692D01*
X071563Y024462D01*
X071263Y024338D01*
X070939Y024338D01*
X070639Y024462D01*
X070410Y024692D01*
X070286Y024992D01*
X070286Y025316D01*
X070410Y025616D01*
X070639Y025845D01*
X070525Y025731D02*
X056024Y025731D01*
X056018Y025582D02*
X059886Y025582D01*
X059845Y025565D02*
X060011Y025634D01*
X060191Y025634D01*
X060358Y025565D01*
X060485Y025438D01*
X060554Y025271D01*
X060554Y025091D01*
X060485Y024925D01*
X060358Y024798D01*
X060191Y024729D01*
X060011Y024729D01*
X059845Y024798D01*
X059717Y024925D01*
X059649Y025091D01*
X059649Y025271D01*
X059717Y025438D01*
X059845Y025565D01*
X059716Y025434D02*
X055952Y025434D01*
X055750Y025285D02*
X059654Y025285D01*
X059649Y025137D02*
X052601Y025137D01*
X052601Y025285D02*
X053452Y025285D01*
X053517Y025258D02*
X053361Y025323D01*
X053242Y025442D01*
X053178Y025597D01*
X053178Y025766D01*
X053242Y025921D01*
X053361Y026040D01*
X053517Y026104D01*
X053685Y026104D01*
X053841Y026040D01*
X053960Y025921D01*
X054024Y025766D01*
X054024Y025597D01*
X053960Y025442D01*
X053841Y025323D01*
X053685Y025258D01*
X053517Y025258D01*
X053517Y025104D02*
X053685Y025104D01*
X053841Y025040D01*
X053960Y024921D01*
X054024Y024766D01*
X054024Y024597D01*
X053960Y024442D01*
X053841Y024323D01*
X053685Y024258D01*
X053517Y024258D01*
X053361Y024323D01*
X053242Y024442D01*
X053178Y024597D01*
X053178Y024766D01*
X053242Y024921D01*
X053361Y025040D01*
X053517Y025104D01*
X053310Y024988D02*
X052601Y024988D01*
X052601Y024840D02*
X053209Y024840D01*
X053178Y024691D02*
X052601Y024691D01*
X052601Y024543D02*
X053201Y024543D01*
X053290Y024394D02*
X052601Y024394D01*
X052601Y024245D02*
X096302Y024245D01*
X096157Y024394D02*
X071398Y024394D01*
X071643Y024543D02*
X096096Y024543D01*
X096081Y024691D02*
X071792Y024691D01*
X071854Y024840D02*
X096104Y024840D01*
X096173Y024988D02*
X071915Y024988D01*
X071917Y025137D02*
X096342Y025137D01*
X096262Y025285D02*
X071917Y025285D01*
X071868Y025434D02*
X096141Y025434D01*
X096081Y025582D02*
X071806Y025582D01*
X071677Y025731D02*
X096081Y025731D01*
X096120Y025879D02*
X071481Y025879D01*
X070396Y025582D02*
X060316Y025582D01*
X060486Y025434D02*
X070334Y025434D01*
X070286Y025285D02*
X060548Y025285D01*
X060554Y025137D02*
X070286Y025137D01*
X070287Y024988D02*
X060511Y024988D01*
X060399Y024840D02*
X070349Y024840D01*
X070411Y024691D02*
X056024Y024691D01*
X056024Y024766D02*
X056024Y024597D01*
X055960Y024442D01*
X055841Y024323D01*
X055685Y024258D01*
X055517Y024258D01*
X055361Y024323D01*
X055242Y024442D01*
X055178Y024597D01*
X055178Y024766D01*
X055242Y024921D01*
X055361Y025040D01*
X055517Y025104D01*
X055685Y025104D01*
X055841Y025040D01*
X055960Y024921D01*
X056024Y024766D01*
X055994Y024840D02*
X059803Y024840D01*
X059691Y024988D02*
X055893Y024988D01*
X056002Y024543D02*
X070559Y024543D01*
X070805Y024394D02*
X055912Y024394D01*
X055290Y024394D02*
X054912Y024394D01*
X054960Y024442D02*
X054841Y024323D01*
X054685Y024258D01*
X054517Y024258D01*
X054361Y024323D01*
X054242Y024442D01*
X054178Y024597D01*
X054178Y024766D01*
X054242Y024921D01*
X054361Y025040D01*
X054517Y025104D01*
X054685Y025104D01*
X054841Y025040D01*
X054960Y024921D01*
X055024Y024766D01*
X055024Y024597D01*
X054960Y024442D01*
X055002Y024543D02*
X055201Y024543D01*
X055178Y024691D02*
X055024Y024691D01*
X054994Y024840D02*
X055209Y024840D01*
X055310Y024988D02*
X054893Y024988D01*
X054750Y025285D02*
X055452Y025285D01*
X055250Y025434D02*
X054952Y025434D01*
X054960Y025442D02*
X054841Y025323D01*
X054685Y025258D01*
X054517Y025258D01*
X054361Y025323D01*
X054242Y025442D01*
X054178Y025597D01*
X054178Y025766D01*
X054242Y025921D01*
X054361Y026040D01*
X054517Y026104D01*
X054685Y026104D01*
X054841Y026040D01*
X054960Y025921D01*
X055024Y025766D01*
X055024Y025597D01*
X054960Y025442D01*
X055018Y025582D02*
X055184Y025582D01*
X055178Y025731D02*
X055024Y025731D01*
X054977Y025879D02*
X055225Y025879D01*
X055349Y026028D02*
X054853Y026028D01*
X054349Y026028D02*
X053853Y026028D01*
X053977Y025879D02*
X054225Y025879D01*
X054178Y025731D02*
X054024Y025731D01*
X054018Y025582D02*
X054184Y025582D01*
X054250Y025434D02*
X053952Y025434D01*
X053750Y025285D02*
X054452Y025285D01*
X054310Y024988D02*
X053893Y024988D01*
X053994Y024840D02*
X054209Y024840D01*
X054178Y024691D02*
X054024Y024691D01*
X054002Y024543D02*
X054201Y024543D01*
X054290Y024394D02*
X053912Y024394D01*
X052601Y023651D02*
X064149Y023651D01*
X064185Y023503D02*
X052601Y023503D01*
X052601Y023354D02*
X064288Y023354D01*
X064914Y023354D02*
X077183Y023354D01*
X077149Y023271D02*
X077217Y023438D01*
X077345Y023565D01*
X077511Y023634D01*
X077691Y023634D01*
X077858Y023565D01*
X077985Y023438D01*
X078054Y023271D01*
X078054Y023091D01*
X077985Y022925D01*
X077858Y022798D01*
X077691Y022729D01*
X077511Y022729D01*
X077345Y022798D01*
X077217Y022925D01*
X077149Y023091D01*
X077149Y023271D01*
X077149Y023206D02*
X052601Y023206D01*
X052601Y023057D02*
X077163Y023057D01*
X077234Y022909D02*
X052601Y022909D01*
X052601Y022760D02*
X077436Y022760D01*
X077767Y022760D02*
X096081Y022760D01*
X096081Y022611D02*
X066246Y022611D01*
X066191Y022634D02*
X066358Y022565D01*
X066485Y022438D01*
X066554Y022271D01*
X066554Y022091D01*
X066485Y021925D01*
X066358Y021798D01*
X066191Y021729D01*
X066011Y021729D01*
X065845Y021798D01*
X065717Y021925D01*
X065649Y022091D01*
X065649Y022271D01*
X065717Y022438D01*
X065845Y022565D01*
X066011Y022634D01*
X066191Y022634D01*
X065957Y022611D02*
X055746Y022611D01*
X055691Y022634D02*
X055858Y022565D01*
X055985Y022438D01*
X056054Y022271D01*
X056054Y022091D01*
X055985Y021925D01*
X055858Y021798D01*
X055691Y021729D01*
X055511Y021729D01*
X055345Y021798D01*
X055217Y021925D01*
X055149Y022091D01*
X055149Y022271D01*
X055217Y022438D01*
X055345Y022565D01*
X055511Y022634D01*
X055691Y022634D01*
X055457Y022611D02*
X052601Y022611D01*
X052601Y022463D02*
X055243Y022463D01*
X055166Y022314D02*
X052601Y022314D01*
X052601Y022166D02*
X055149Y022166D01*
X055179Y022017D02*
X052601Y022017D01*
X052601Y021869D02*
X055274Y021869D01*
X055929Y021869D02*
X060189Y021869D01*
X060217Y021938D02*
X060345Y022065D01*
X060511Y022134D01*
X060691Y022134D01*
X060858Y022065D01*
X060985Y021938D01*
X061054Y021771D01*
X061054Y021591D01*
X060985Y021425D01*
X060858Y021298D01*
X060691Y021229D01*
X060511Y021229D01*
X060345Y021298D01*
X060217Y021425D01*
X060149Y021591D01*
X060149Y021771D01*
X060217Y021938D01*
X060297Y022017D02*
X056023Y022017D01*
X056054Y022166D02*
X065649Y022166D01*
X065666Y022314D02*
X056036Y022314D01*
X055960Y022463D02*
X065743Y022463D01*
X065679Y022017D02*
X062405Y022017D01*
X062358Y022065D02*
X062485Y021938D01*
X062554Y021771D01*
X062554Y021591D01*
X062485Y021425D01*
X062358Y021298D01*
X062191Y021229D01*
X062011Y021229D01*
X061845Y021298D01*
X061717Y021425D01*
X061649Y021591D01*
X061649Y021771D01*
X061717Y021938D01*
X061845Y022065D01*
X062011Y022134D01*
X062191Y022134D01*
X062358Y022065D01*
X062513Y021869D02*
X065774Y021869D01*
X066429Y021869D02*
X070286Y021869D01*
X070286Y021871D02*
X070410Y022171D01*
X070639Y022400D01*
X070939Y022524D01*
X071263Y022524D01*
X071563Y022400D01*
X071792Y022171D01*
X071917Y021871D01*
X071917Y021547D01*
X071792Y021247D01*
X071563Y021018D01*
X071263Y020893D01*
X070939Y020893D01*
X070639Y021018D01*
X070410Y021247D01*
X070286Y021547D01*
X070286Y021871D01*
X070286Y021720D02*
X062554Y021720D01*
X062546Y021572D02*
X070286Y021572D01*
X070337Y021423D02*
X062483Y021423D01*
X062302Y021275D02*
X070398Y021275D01*
X070531Y021126D02*
X057210Y021126D01*
X057191Y021134D02*
X057358Y021065D01*
X057485Y020938D01*
X057554Y020771D01*
X057554Y020591D01*
X057485Y020425D01*
X057358Y020298D01*
X057191Y020229D01*
X057011Y020229D01*
X056845Y020298D01*
X056717Y020425D01*
X056649Y020591D01*
X056649Y020771D01*
X056717Y020938D01*
X056845Y021065D01*
X057011Y021134D01*
X057191Y021134D01*
X056992Y021126D02*
X052601Y021126D01*
X052601Y020977D02*
X056757Y020977D01*
X056672Y020829D02*
X052601Y020829D01*
X052601Y020680D02*
X056649Y020680D01*
X056673Y020532D02*
X052601Y020532D01*
X052601Y020383D02*
X056759Y020383D01*
X056997Y020235D02*
X052601Y020235D01*
X052601Y020086D02*
X069852Y020086D01*
X069855Y020093D02*
X070059Y020298D01*
X070327Y020408D01*
X070616Y020408D01*
X070883Y020298D01*
X071087Y020093D01*
X071198Y019826D01*
X071198Y019537D01*
X071087Y019270D01*
X070883Y019065D01*
X070616Y018954D01*
X070327Y018954D01*
X070059Y019065D01*
X069855Y019270D01*
X069744Y019537D01*
X069744Y019826D01*
X069855Y020093D01*
X069790Y019938D02*
X052601Y019938D01*
X052601Y019789D02*
X069744Y019789D01*
X069744Y019641D02*
X052601Y019641D01*
X052601Y019492D02*
X069763Y019492D01*
X069824Y019344D02*
X052601Y019344D01*
X052601Y019195D02*
X069930Y019195D01*
X070105Y019046D02*
X052601Y019046D01*
X052601Y018898D02*
X083733Y018898D01*
X083742Y018921D02*
X083861Y019040D01*
X084017Y019104D01*
X084185Y019104D01*
X084341Y019040D01*
X084460Y018921D01*
X084524Y018766D01*
X084524Y018597D01*
X084460Y018442D01*
X084341Y018323D01*
X084185Y018258D01*
X084017Y018258D01*
X083861Y018323D01*
X083742Y018442D01*
X083678Y018597D01*
X083678Y018766D01*
X083742Y018921D01*
X083678Y018749D02*
X052601Y018749D01*
X052601Y018601D02*
X083678Y018601D01*
X083738Y018452D02*
X071305Y018452D01*
X071263Y018469D02*
X071563Y018345D01*
X071792Y018116D01*
X071917Y017816D01*
X071917Y017492D01*
X071792Y017192D01*
X071563Y016962D01*
X071263Y016838D01*
X070939Y016838D01*
X070639Y016962D01*
X070410Y017192D01*
X070286Y017492D01*
X070286Y017816D01*
X070410Y018116D01*
X070639Y018345D01*
X070939Y018469D01*
X071263Y018469D01*
X070898Y018452D02*
X052601Y018452D01*
X052601Y018304D02*
X070598Y018304D01*
X070449Y018155D02*
X052601Y018155D01*
X052601Y018007D02*
X070364Y018007D01*
X070303Y017858D02*
X052601Y017858D01*
X052601Y017710D02*
X070286Y017710D01*
X070286Y017561D02*
X052601Y017561D01*
X052601Y017412D02*
X070318Y017412D01*
X070380Y017264D02*
X052601Y017264D01*
X052601Y017115D02*
X059466Y017115D01*
X059511Y017134D02*
X059691Y017134D01*
X059858Y017065D01*
X059985Y016938D01*
X060054Y016771D01*
X060054Y016591D01*
X059985Y016425D01*
X059858Y016298D01*
X059691Y016229D01*
X059511Y016229D01*
X059345Y016298D01*
X059217Y016425D01*
X059149Y016591D01*
X059149Y016771D01*
X059217Y016938D01*
X059345Y017065D01*
X059511Y017134D01*
X059736Y017115D02*
X060966Y017115D01*
X061011Y017134D02*
X061191Y017134D01*
X061358Y017065D01*
X061485Y016938D01*
X061554Y016771D01*
X061554Y016591D01*
X061485Y016425D01*
X061358Y016298D01*
X061191Y016229D01*
X061011Y016229D01*
X060845Y016298D01*
X060717Y016425D01*
X060649Y016591D01*
X060649Y016771D01*
X060717Y016938D01*
X060845Y017065D01*
X061011Y017134D01*
X061236Y017115D02*
X064466Y017115D01*
X064511Y017134D02*
X064691Y017134D01*
X064858Y017065D01*
X064985Y016938D01*
X065054Y016771D01*
X065054Y016591D01*
X064985Y016425D01*
X064858Y016298D01*
X064691Y016229D01*
X064511Y016229D01*
X064345Y016298D01*
X064217Y016425D01*
X064149Y016591D01*
X064149Y016771D01*
X064217Y016938D01*
X064345Y017065D01*
X064511Y017134D01*
X064736Y017115D02*
X070486Y017115D01*
X070635Y016967D02*
X069414Y016967D01*
X069460Y016921D02*
X069341Y017040D01*
X069185Y017104D01*
X069017Y017104D01*
X068861Y017040D01*
X068742Y016921D01*
X068678Y016766D01*
X068678Y016597D01*
X068742Y016442D01*
X068861Y016323D01*
X069017Y016258D01*
X069185Y016258D01*
X069341Y016323D01*
X069460Y016442D01*
X069524Y016597D01*
X069524Y016766D01*
X069460Y016921D01*
X069502Y016818D02*
X096095Y016818D01*
X096081Y016670D02*
X069524Y016670D01*
X069493Y016521D02*
X096105Y016521D01*
X096175Y016373D02*
X069391Y016373D01*
X068812Y016373D02*
X064932Y016373D01*
X065025Y016521D02*
X068710Y016521D01*
X068678Y016670D02*
X065054Y016670D01*
X065034Y016818D02*
X068700Y016818D01*
X068788Y016967D02*
X064956Y016967D01*
X064246Y016967D02*
X061456Y016967D01*
X061534Y016818D02*
X064168Y016818D01*
X064149Y016670D02*
X061554Y016670D01*
X061525Y016521D02*
X064178Y016521D01*
X064270Y016373D02*
X061432Y016373D01*
X060770Y016373D02*
X059932Y016373D01*
X060025Y016521D02*
X060678Y016521D01*
X060649Y016670D02*
X060054Y016670D01*
X060034Y016818D02*
X060668Y016818D01*
X060746Y016967D02*
X059956Y016967D01*
X059246Y016967D02*
X052601Y016967D01*
X052601Y016818D02*
X059168Y016818D01*
X059149Y016670D02*
X052601Y016670D01*
X052601Y016521D02*
X059178Y016521D01*
X059270Y016373D02*
X052601Y016373D01*
X052601Y016224D02*
X096346Y016224D01*
X096260Y016076D02*
X066832Y016076D01*
X066858Y016065D02*
X066985Y015938D01*
X067054Y015771D01*
X067054Y015591D01*
X066985Y015425D01*
X066858Y015298D01*
X066691Y015229D01*
X066511Y015229D01*
X066345Y015298D01*
X066217Y015425D01*
X066149Y015591D01*
X066149Y015771D01*
X066217Y015938D01*
X066345Y016065D01*
X066511Y016134D01*
X066691Y016134D01*
X066858Y016065D01*
X066989Y015927D02*
X096140Y015927D01*
X096081Y015778D02*
X067051Y015778D01*
X067054Y015630D02*
X096081Y015630D01*
X096121Y015481D02*
X067008Y015481D01*
X066893Y015333D02*
X096214Y015333D01*
X096442Y015184D02*
X063274Y015184D01*
X063274Y015266D02*
X063274Y015097D01*
X063210Y014942D01*
X063091Y014823D01*
X062935Y014758D01*
X062767Y014758D01*
X062611Y014823D01*
X062492Y014942D01*
X062428Y015097D01*
X062428Y015266D01*
X062492Y015421D01*
X062611Y015540D01*
X062767Y015604D01*
X062935Y015604D01*
X063091Y015540D01*
X063210Y015421D01*
X063274Y015266D01*
X063246Y015333D02*
X066310Y015333D01*
X066194Y015481D02*
X063149Y015481D01*
X063249Y015036D02*
X087815Y015036D01*
X087696Y014887D02*
X071576Y014887D01*
X071725Y014739D02*
X087649Y014739D01*
X088387Y015036D02*
X106101Y015036D01*
X106101Y015184D02*
X097760Y015184D01*
X097988Y015333D02*
X106101Y015333D01*
X106101Y015481D02*
X098081Y015481D01*
X098121Y015630D02*
X106101Y015630D01*
X106101Y015778D02*
X098121Y015778D01*
X098062Y015927D02*
X106101Y015927D01*
X106101Y016076D02*
X097942Y016076D01*
X097856Y016224D02*
X106101Y016224D01*
X106101Y016373D02*
X098028Y016373D01*
X098098Y016521D02*
X106101Y016521D01*
X106101Y016670D02*
X098121Y016670D01*
X098107Y016818D02*
X106101Y016818D01*
X106101Y016967D02*
X098046Y016967D01*
X097903Y017115D02*
X106101Y017115D01*
X107101Y016670D02*
X174149Y016670D01*
X174178Y016521D02*
X107101Y016521D01*
X107101Y016373D02*
X174270Y016373D01*
X174932Y016373D02*
X185270Y016373D01*
X185178Y016521D02*
X175025Y016521D01*
X175054Y016670D02*
X185149Y016670D01*
X185168Y016818D02*
X184101Y016818D01*
X184101Y016967D02*
X185246Y016967D01*
X185466Y017115D02*
X184101Y017115D01*
X183601Y017264D02*
X171822Y017264D01*
X171884Y017412D02*
X183601Y017412D01*
X183601Y017561D02*
X171917Y017561D01*
X171917Y017710D02*
X183601Y017710D01*
X183601Y017858D02*
X171899Y017858D01*
X171838Y018007D02*
X183601Y018007D01*
X183601Y018155D02*
X171753Y018155D01*
X171605Y018304D02*
X172839Y018304D01*
X172845Y018298D02*
X172717Y018425D01*
X172649Y018591D01*
X172649Y018771D01*
X172717Y018938D01*
X172845Y019065D01*
X173011Y019134D01*
X173191Y019134D01*
X173358Y019065D01*
X173485Y018938D01*
X173554Y018771D01*
X173554Y018591D01*
X173485Y018425D01*
X173358Y018298D01*
X173191Y018229D01*
X173011Y018229D01*
X172845Y018298D01*
X172706Y018452D02*
X171305Y018452D01*
X170898Y018452D02*
X151305Y018452D01*
X151605Y018304D02*
X170598Y018304D01*
X170449Y018155D02*
X151753Y018155D01*
X151838Y018007D02*
X170364Y018007D01*
X170303Y017858D02*
X151899Y017858D01*
X151917Y017710D02*
X170286Y017710D01*
X170286Y017561D02*
X151917Y017561D01*
X151884Y017412D02*
X170318Y017412D01*
X170380Y017264D02*
X151822Y017264D01*
X150380Y017264D02*
X131822Y017264D01*
X131884Y017412D02*
X150318Y017412D01*
X150286Y017561D02*
X131917Y017561D01*
X131917Y017710D02*
X150286Y017710D01*
X150303Y017858D02*
X131899Y017858D01*
X131838Y018007D02*
X150364Y018007D01*
X150449Y018155D02*
X131753Y018155D01*
X131605Y018304D02*
X150598Y018304D01*
X150898Y018452D02*
X131305Y018452D01*
X130898Y018452D02*
X111305Y018452D01*
X111605Y018304D02*
X130598Y018304D01*
X130449Y018155D02*
X111753Y018155D01*
X111838Y018007D02*
X130364Y018007D01*
X130303Y017858D02*
X111899Y017858D01*
X111917Y017710D02*
X130286Y017710D01*
X130286Y017561D02*
X111917Y017561D01*
X111884Y017412D02*
X130318Y017412D01*
X130380Y017264D02*
X111822Y017264D01*
X110380Y017264D02*
X097821Y017264D01*
X097867Y017283D02*
X097695Y017211D01*
X097624Y017211D01*
X097624Y017659D01*
X098071Y017659D01*
X098071Y017588D01*
X098000Y017415D01*
X097867Y017283D01*
X097997Y017412D02*
X110318Y017412D01*
X110286Y017561D02*
X098060Y017561D01*
X098071Y017704D02*
X097624Y017704D01*
X097624Y017659D01*
X097579Y017659D01*
X097579Y017211D01*
X097508Y017211D01*
X097335Y017283D01*
X097203Y017415D01*
X097131Y017588D01*
X097131Y017659D01*
X097578Y017659D01*
X097578Y017704D01*
X097131Y017704D01*
X097131Y017775D01*
X097203Y017948D01*
X097335Y018080D01*
X097508Y018151D01*
X097579Y018151D01*
X097579Y017704D01*
X097624Y017704D01*
X097624Y018151D01*
X097695Y018151D01*
X097867Y018080D01*
X098000Y017948D01*
X098071Y017775D01*
X098071Y017704D01*
X098071Y017710D02*
X110286Y017710D01*
X110303Y017858D02*
X098037Y017858D01*
X097941Y018007D02*
X110364Y018007D01*
X110449Y018155D02*
X096816Y018155D01*
X096959Y018304D02*
X097243Y018304D01*
X097133Y018452D02*
X097069Y018452D01*
X097011Y018007D02*
X097262Y018007D01*
X097166Y017858D02*
X097091Y017858D01*
X097121Y017710D02*
X097131Y017710D01*
X097142Y017561D02*
X097114Y017561D01*
X097053Y017412D02*
X097205Y017412D01*
X097381Y017264D02*
X096919Y017264D01*
X096903Y017115D02*
X097300Y017115D01*
X097156Y016967D02*
X097046Y016967D01*
X097579Y017264D02*
X097624Y017264D01*
X097624Y017412D02*
X097579Y017412D01*
X097579Y017561D02*
X097624Y017561D01*
X097624Y017710D02*
X097579Y017710D01*
X097579Y017858D02*
X097624Y017858D01*
X097624Y018007D02*
X097579Y018007D01*
X097959Y018304D02*
X110598Y018304D01*
X110898Y018452D02*
X098069Y018452D01*
X098121Y018601D02*
X172649Y018601D01*
X172649Y018749D02*
X098121Y018749D01*
X098074Y018898D02*
X172701Y018898D01*
X172826Y019046D02*
X170838Y019046D01*
X171013Y019195D02*
X183601Y019195D01*
X183601Y019344D02*
X171118Y019344D01*
X171180Y019492D02*
X183601Y019492D01*
X183601Y019641D02*
X171198Y019641D01*
X171198Y019789D02*
X183601Y019789D01*
X183601Y019938D02*
X171152Y019938D01*
X171090Y020086D02*
X183601Y020086D01*
X183601Y020235D02*
X170946Y020235D01*
X170736Y020977D02*
X151466Y020977D01*
X151563Y021018D02*
X151263Y020893D01*
X150939Y020893D01*
X150639Y021018D01*
X150410Y021247D01*
X150286Y021547D01*
X150286Y021871D01*
X150410Y022171D01*
X150639Y022400D01*
X150939Y022524D01*
X151263Y022524D01*
X151563Y022400D01*
X151792Y022171D01*
X151917Y021871D01*
X151917Y021547D01*
X151792Y021247D01*
X151563Y021018D01*
X151672Y021126D02*
X170531Y021126D01*
X170398Y021275D02*
X151804Y021275D01*
X151865Y021423D02*
X170337Y021423D01*
X170286Y021572D02*
X151917Y021572D01*
X151917Y021720D02*
X170286Y021720D01*
X170286Y021869D02*
X151917Y021869D01*
X151856Y022017D02*
X170346Y022017D01*
X170408Y022166D02*
X151795Y022166D01*
X151649Y022314D02*
X170553Y022314D01*
X170790Y022463D02*
X151412Y022463D01*
X150790Y022463D02*
X131412Y022463D01*
X131263Y022524D02*
X131563Y022400D01*
X131792Y022171D01*
X131917Y021871D01*
X131917Y021547D01*
X131792Y021247D01*
X131563Y021018D01*
X131263Y020893D01*
X130939Y020893D01*
X130639Y021018D01*
X130410Y021247D01*
X130286Y021547D01*
X130286Y021871D01*
X130410Y022171D01*
X130639Y022400D01*
X130939Y022524D01*
X131263Y022524D01*
X131649Y022314D02*
X150553Y022314D01*
X150408Y022166D02*
X131795Y022166D01*
X131856Y022017D02*
X150346Y022017D01*
X150286Y021869D02*
X131917Y021869D01*
X131917Y021720D02*
X150286Y021720D01*
X150286Y021572D02*
X131917Y021572D01*
X131865Y021423D02*
X150337Y021423D01*
X150398Y021275D02*
X131804Y021275D01*
X131672Y021126D02*
X150531Y021126D01*
X150736Y020977D02*
X131466Y020977D01*
X130736Y020977D02*
X111466Y020977D01*
X111563Y021018D02*
X111263Y020893D01*
X110939Y020893D01*
X110639Y021018D01*
X110410Y021247D01*
X110286Y021547D01*
X110286Y021871D01*
X110410Y022171D01*
X110639Y022400D01*
X110939Y022524D01*
X111263Y022524D01*
X111563Y022400D01*
X111792Y022171D01*
X111917Y021871D01*
X111917Y021547D01*
X111792Y021247D01*
X111563Y021018D01*
X111672Y021126D02*
X130531Y021126D01*
X130398Y021275D02*
X111804Y021275D01*
X111865Y021423D02*
X130337Y021423D01*
X130286Y021572D02*
X111917Y021572D01*
X111917Y021720D02*
X130286Y021720D01*
X130286Y021869D02*
X111917Y021869D01*
X111856Y022017D02*
X130346Y022017D01*
X130408Y022166D02*
X111795Y022166D01*
X111649Y022314D02*
X130553Y022314D01*
X130790Y022463D02*
X111412Y022463D01*
X110790Y022463D02*
X098073Y022463D01*
X098121Y022611D02*
X181178Y022611D01*
X181178Y022760D02*
X098121Y022760D01*
X098070Y022909D02*
X181237Y022909D01*
X181402Y023057D02*
X097961Y023057D01*
X096391Y023206D02*
X078054Y023206D01*
X078040Y023057D02*
X096241Y023057D01*
X096132Y022909D02*
X077968Y022909D01*
X078019Y023354D02*
X096193Y023354D01*
X096112Y023503D02*
X077920Y023503D01*
X077282Y023503D02*
X065017Y023503D01*
X065054Y023651D02*
X096081Y023651D01*
X096129Y022463D02*
X071412Y022463D01*
X071649Y022314D02*
X096233Y022314D01*
X096412Y022166D02*
X071795Y022166D01*
X071856Y022017D02*
X075297Y022017D01*
X075345Y022065D02*
X075511Y022134D01*
X075691Y022134D01*
X075858Y022065D01*
X075985Y021938D01*
X076054Y021771D01*
X076054Y021591D01*
X075985Y021425D01*
X075858Y021298D01*
X075691Y021229D01*
X075511Y021229D01*
X075345Y021298D01*
X075217Y021425D01*
X075149Y021591D01*
X075149Y021771D01*
X075217Y021938D01*
X075345Y022065D01*
X075189Y021869D02*
X071917Y021869D01*
X071917Y021720D02*
X075149Y021720D01*
X075157Y021572D02*
X071917Y021572D01*
X071865Y021423D02*
X075219Y021423D01*
X075401Y021275D02*
X071804Y021275D01*
X071672Y021126D02*
X083678Y021126D01*
X083678Y021097D02*
X083742Y020942D01*
X083861Y020823D01*
X084017Y020758D01*
X084185Y020758D01*
X084341Y020823D01*
X084460Y020942D01*
X084524Y021097D01*
X084524Y021266D01*
X084460Y021421D01*
X084341Y021540D01*
X084185Y021604D01*
X084017Y021604D01*
X083861Y021540D01*
X083742Y021421D01*
X083678Y021266D01*
X083678Y021097D01*
X083728Y020977D02*
X071466Y020977D01*
X070736Y020977D02*
X057445Y020977D01*
X057530Y020829D02*
X083855Y020829D01*
X083682Y021275D02*
X075802Y021275D01*
X075983Y021423D02*
X083744Y021423D01*
X083938Y021572D02*
X076046Y021572D01*
X076054Y021720D02*
X096081Y021720D01*
X096084Y021572D02*
X087265Y021572D01*
X087341Y021540D02*
X087460Y021421D01*
X087524Y021266D01*
X087524Y021097D01*
X087460Y020942D01*
X087341Y020823D01*
X087185Y020758D01*
X087017Y020758D01*
X086861Y020823D01*
X086742Y020942D01*
X086678Y021097D01*
X086678Y021266D01*
X086742Y021421D01*
X086861Y021540D01*
X087017Y021604D01*
X087185Y021604D01*
X087341Y021540D01*
X087458Y021423D02*
X096145Y021423D01*
X096273Y021275D02*
X087520Y021275D01*
X087524Y021126D02*
X096316Y021126D01*
X096162Y020977D02*
X087475Y020977D01*
X087347Y020829D02*
X096099Y020829D01*
X096081Y020680D02*
X057554Y020680D01*
X057529Y020532D02*
X096100Y020532D01*
X096164Y020383D02*
X070676Y020383D01*
X070946Y020235D02*
X083806Y020235D01*
X083861Y020290D02*
X084017Y020354D01*
X084185Y020354D01*
X084341Y020290D01*
X084460Y020171D01*
X084524Y020016D01*
X084524Y019847D01*
X084460Y019692D01*
X084341Y019573D01*
X084185Y019508D01*
X084017Y019508D01*
X083861Y019573D01*
X083742Y019692D01*
X083678Y019847D01*
X083678Y020016D01*
X083742Y020171D01*
X083861Y020290D01*
X083707Y020086D02*
X071090Y020086D01*
X071152Y019938D02*
X083678Y019938D01*
X083702Y019789D02*
X071198Y019789D01*
X071198Y019641D02*
X083794Y019641D01*
X083877Y019046D02*
X070838Y019046D01*
X071013Y019195D02*
X096417Y019195D01*
X096231Y019046D02*
X087325Y019046D01*
X087341Y019040D02*
X087460Y018921D01*
X087524Y018766D01*
X087524Y018597D01*
X087460Y018442D01*
X087341Y018323D01*
X087185Y018258D01*
X087017Y018258D01*
X086861Y018323D01*
X086742Y018442D01*
X086678Y018597D01*
X086678Y018766D01*
X086742Y018921D01*
X086861Y019040D01*
X087017Y019104D01*
X087185Y019104D01*
X087341Y019040D01*
X087469Y018898D02*
X096128Y018898D01*
X096081Y018749D02*
X087524Y018749D01*
X087524Y018601D02*
X096081Y018601D01*
X096133Y018452D02*
X087464Y018452D01*
X087295Y018304D02*
X096243Y018304D01*
X096386Y018155D02*
X071753Y018155D01*
X071838Y018007D02*
X096191Y018007D01*
X096111Y017858D02*
X071899Y017858D01*
X071917Y017710D02*
X096081Y017710D01*
X096088Y017561D02*
X071917Y017561D01*
X071884Y017412D02*
X096150Y017412D01*
X096283Y017264D02*
X071822Y017264D01*
X071716Y017115D02*
X096300Y017115D01*
X096156Y016967D02*
X071567Y016967D01*
X071605Y018304D02*
X083907Y018304D01*
X084295Y018304D02*
X085407Y018304D01*
X085361Y018323D02*
X085242Y018442D01*
X085178Y018597D01*
X085178Y018766D01*
X085242Y018921D01*
X085361Y019040D01*
X085517Y019104D01*
X085685Y019104D01*
X085841Y019040D01*
X085960Y018921D01*
X086024Y018766D01*
X086024Y018597D01*
X085960Y018442D01*
X085841Y018323D01*
X085685Y018258D01*
X085517Y018258D01*
X085361Y018323D01*
X085238Y018452D02*
X084464Y018452D01*
X084524Y018601D02*
X085178Y018601D01*
X085178Y018749D02*
X084524Y018749D01*
X084469Y018898D02*
X085233Y018898D01*
X085377Y019046D02*
X084325Y019046D01*
X084409Y019641D02*
X085294Y019641D01*
X085242Y019692D02*
X085178Y019847D01*
X085178Y020016D01*
X085242Y020171D01*
X085361Y020290D01*
X085517Y020354D01*
X085685Y020354D01*
X085841Y020290D01*
X085960Y020171D01*
X086024Y020016D01*
X086024Y019847D01*
X085960Y019692D01*
X085841Y019573D01*
X085685Y019508D01*
X085517Y019508D01*
X085361Y019573D01*
X085242Y019692D01*
X085202Y019789D02*
X084500Y019789D01*
X084524Y019938D02*
X085178Y019938D01*
X085207Y020086D02*
X084495Y020086D01*
X084396Y020235D02*
X085306Y020235D01*
X085517Y020758D02*
X085361Y020823D01*
X085242Y020942D01*
X085178Y021097D01*
X085178Y021266D01*
X085242Y021421D01*
X085361Y021540D01*
X085517Y021604D01*
X085685Y021604D01*
X085841Y021540D01*
X085960Y021421D01*
X086024Y021266D01*
X086024Y021097D01*
X085960Y020942D01*
X085841Y020823D01*
X085685Y020758D01*
X085517Y020758D01*
X085355Y020829D02*
X084347Y020829D01*
X084475Y020977D02*
X085228Y020977D01*
X085178Y021126D02*
X084524Y021126D01*
X084520Y021275D02*
X085182Y021275D01*
X085244Y021423D02*
X084458Y021423D01*
X084265Y021572D02*
X085438Y021572D01*
X085765Y021572D02*
X086938Y021572D01*
X086744Y021423D02*
X085958Y021423D01*
X086020Y021275D02*
X086682Y021275D01*
X086678Y021126D02*
X086024Y021126D01*
X085975Y020977D02*
X086728Y020977D01*
X086855Y020829D02*
X085847Y020829D01*
X085896Y020235D02*
X086806Y020235D01*
X086861Y020290D02*
X087017Y020354D01*
X087185Y020354D01*
X087341Y020290D01*
X087460Y020171D01*
X087524Y020016D01*
X087524Y019847D01*
X087460Y019692D01*
X087341Y019573D01*
X087185Y019508D01*
X087017Y019508D01*
X086861Y019573D01*
X086742Y019692D01*
X086678Y019847D01*
X086678Y020016D01*
X086742Y020171D01*
X086861Y020290D01*
X086707Y020086D02*
X085995Y020086D01*
X086024Y019938D02*
X086678Y019938D01*
X086702Y019789D02*
X086000Y019789D01*
X085909Y019641D02*
X086794Y019641D01*
X086877Y019046D02*
X085825Y019046D01*
X085969Y018898D02*
X086733Y018898D01*
X086678Y018749D02*
X086024Y018749D01*
X086024Y018601D02*
X086678Y018601D01*
X086738Y018452D02*
X085964Y018452D01*
X085795Y018304D02*
X086907Y018304D01*
X087409Y019641D02*
X096081Y019641D01*
X096083Y019789D02*
X087500Y019789D01*
X087524Y019938D02*
X096144Y019938D01*
X096271Y020086D02*
X087495Y020086D01*
X087396Y020235D02*
X096321Y020235D01*
X097882Y020235D02*
X109996Y020235D01*
X109852Y020086D02*
X097932Y020086D01*
X098058Y019938D02*
X109790Y019938D01*
X109744Y019789D02*
X098119Y019789D01*
X098121Y019641D02*
X109744Y019641D01*
X109763Y019492D02*
X098086Y019492D01*
X097999Y019344D02*
X109824Y019344D01*
X109930Y019195D02*
X097785Y019195D01*
X097971Y019046D02*
X110105Y019046D01*
X110838Y019046D02*
X130105Y019046D01*
X129930Y019195D02*
X111013Y019195D01*
X111118Y019344D02*
X129824Y019344D01*
X129763Y019492D02*
X111180Y019492D01*
X111198Y019641D02*
X129744Y019641D01*
X129744Y019789D02*
X111198Y019789D01*
X111152Y019938D02*
X129790Y019938D01*
X129852Y020086D02*
X111090Y020086D01*
X110946Y020235D02*
X129996Y020235D01*
X130946Y020235D02*
X149996Y020235D01*
X149852Y020086D02*
X131090Y020086D01*
X131152Y019938D02*
X149790Y019938D01*
X149744Y019789D02*
X131198Y019789D01*
X131198Y019641D02*
X149744Y019641D01*
X149763Y019492D02*
X131180Y019492D01*
X131118Y019344D02*
X149824Y019344D01*
X149930Y019195D02*
X131013Y019195D01*
X130838Y019046D02*
X150105Y019046D01*
X150838Y019046D02*
X170105Y019046D01*
X169930Y019195D02*
X151013Y019195D01*
X151118Y019344D02*
X169824Y019344D01*
X169763Y019492D02*
X151180Y019492D01*
X151198Y019641D02*
X169744Y019641D01*
X169744Y019789D02*
X151198Y019789D01*
X151152Y019938D02*
X169790Y019938D01*
X169852Y020086D02*
X151090Y020086D01*
X150946Y020235D02*
X169996Y020235D01*
X173376Y019046D02*
X183601Y019046D01*
X183601Y018898D02*
X173501Y018898D01*
X173554Y018749D02*
X183601Y018749D01*
X183601Y018601D02*
X173554Y018601D01*
X173496Y018452D02*
X183601Y018452D01*
X183601Y018304D02*
X173364Y018304D01*
X183401Y020383D02*
X183601Y020383D01*
X183601Y020532D02*
X183497Y020532D01*
X183524Y020680D02*
X183601Y020680D01*
X183498Y020829D02*
X184204Y020829D01*
X184299Y020977D02*
X183403Y020977D01*
X183225Y021275D02*
X184478Y021275D01*
X184517Y021258D02*
X184361Y021323D01*
X184242Y021442D01*
X184178Y021597D01*
X184178Y021766D01*
X184242Y021921D01*
X184361Y022040D01*
X184517Y022104D01*
X184685Y022104D01*
X184841Y022040D01*
X184960Y021921D01*
X185024Y021766D01*
X185024Y021597D01*
X184960Y021442D01*
X184841Y021323D01*
X184685Y021258D01*
X184517Y021258D01*
X184725Y021275D02*
X193223Y021275D01*
X193161Y021423D02*
X184941Y021423D01*
X185014Y021572D02*
X193156Y021572D01*
X193178Y021720D02*
X185024Y021720D01*
X184981Y021869D02*
X193239Y021869D01*
X193381Y022017D02*
X184864Y022017D01*
X184339Y022017D02*
X183364Y022017D01*
X183341Y022040D02*
X183460Y021921D01*
X183524Y021766D01*
X183524Y021597D01*
X183460Y021442D01*
X183341Y021323D01*
X183185Y021258D01*
X183017Y021258D01*
X182861Y021323D01*
X182742Y021442D01*
X182678Y021597D01*
X182678Y021766D01*
X182742Y021921D01*
X182861Y022040D01*
X183017Y022104D01*
X183185Y022104D01*
X183341Y022040D01*
X183481Y021869D02*
X184221Y021869D01*
X184178Y021720D02*
X183524Y021720D01*
X183514Y021572D02*
X184189Y021572D01*
X184261Y021423D02*
X183441Y021423D01*
X182761Y021423D02*
X181941Y021423D01*
X182014Y021572D02*
X182689Y021572D01*
X182678Y021720D02*
X182024Y021720D01*
X181981Y021869D02*
X182721Y021869D01*
X182839Y022017D02*
X181864Y022017D01*
X181821Y022314D02*
X182882Y022314D01*
X182861Y022323D02*
X182742Y022442D01*
X182678Y022597D01*
X182678Y022766D01*
X182742Y022921D01*
X182861Y023040D01*
X183017Y023104D01*
X183185Y023104D01*
X183341Y023040D01*
X183460Y022921D01*
X183524Y022766D01*
X183524Y022597D01*
X183460Y022442D01*
X183341Y022323D01*
X183185Y022258D01*
X183017Y022258D01*
X182861Y022323D01*
X182734Y022463D02*
X181969Y022463D01*
X182024Y022611D02*
X182678Y022611D01*
X182678Y022760D02*
X182024Y022760D01*
X181965Y022909D02*
X182737Y022909D01*
X182902Y023057D02*
X181800Y023057D01*
X183300Y023057D02*
X184402Y023057D01*
X184237Y022909D02*
X183465Y022909D01*
X183524Y022760D02*
X184178Y022760D01*
X184178Y022611D02*
X183524Y022611D01*
X183469Y022463D02*
X184234Y022463D01*
X184382Y022314D02*
X183321Y022314D01*
X181234Y022463D02*
X171412Y022463D01*
X194088Y022017D02*
X195601Y022017D01*
X195601Y021869D02*
X194231Y021869D01*
X194292Y021720D02*
X195601Y021720D01*
X195601Y021572D02*
X194314Y021572D01*
X194309Y021423D02*
X195601Y021423D01*
X195601Y021275D02*
X194247Y021275D01*
X194129Y021126D02*
X195601Y021126D01*
X177664Y028553D02*
X171599Y028553D01*
X171747Y028702D02*
X177649Y028702D01*
X177681Y028850D02*
X171835Y028850D01*
X171897Y028999D02*
X177778Y028999D01*
X174222Y029742D02*
X191101Y029742D01*
X191101Y029890D02*
X174450Y029890D01*
X174532Y030039D02*
X191101Y030039D01*
X191101Y030187D02*
X174554Y030187D01*
X174527Y030336D02*
X182807Y030336D01*
X182845Y030298D02*
X182717Y030425D01*
X182649Y030591D01*
X182649Y030771D01*
X182717Y030938D01*
X182845Y031065D01*
X183011Y031134D01*
X183191Y031134D01*
X183358Y031065D01*
X183485Y030938D01*
X183554Y030771D01*
X183554Y030591D01*
X183485Y030425D01*
X183358Y030298D01*
X183191Y030229D01*
X183011Y030229D01*
X182845Y030298D01*
X182693Y030484D02*
X174438Y030484D01*
X174194Y030633D02*
X182649Y030633D01*
X182653Y030781D02*
X168550Y030781D01*
X168554Y030633D02*
X174008Y030633D01*
X173764Y030484D02*
X168509Y030484D01*
X168396Y030336D02*
X173675Y030336D01*
X173752Y029890D02*
X171573Y029890D01*
X171722Y029742D02*
X173980Y029742D01*
X171917Y029296D02*
X191101Y029296D01*
X191101Y029444D02*
X171886Y029444D01*
X171825Y029593D02*
X191101Y029593D01*
X191101Y029147D02*
X171917Y029147D01*
X170480Y029742D02*
X164649Y029742D01*
X164647Y029593D02*
X170377Y029593D01*
X170316Y029444D02*
X164586Y029444D01*
X164051Y029296D02*
X163651Y029296D01*
X163836Y029444D02*
X163866Y029444D01*
X163855Y029890D02*
X163848Y029890D01*
X163717Y030039D02*
X163985Y030039D01*
X163973Y030336D02*
X163729Y030336D01*
X164598Y029890D02*
X170629Y029890D01*
X168488Y030930D02*
X182714Y030930D01*
X182877Y031078D02*
X168325Y031078D01*
X166985Y031925D02*
X166858Y031798D01*
X166691Y031729D01*
X166511Y031729D01*
X166345Y031798D01*
X166217Y031925D01*
X166149Y032091D01*
X166149Y032271D01*
X166217Y032438D01*
X166345Y032565D01*
X166511Y032634D01*
X166691Y032634D01*
X166858Y032565D01*
X166985Y032438D01*
X167054Y032271D01*
X167054Y032091D01*
X166985Y031925D01*
X167003Y031970D02*
X170632Y031970D01*
X170639Y031962D02*
X170410Y032192D01*
X170286Y032492D01*
X170286Y032816D01*
X170410Y033116D01*
X170639Y033345D01*
X170939Y033469D01*
X171263Y033469D01*
X171563Y033345D01*
X171792Y033116D01*
X171917Y032816D01*
X171917Y032492D01*
X171792Y032192D01*
X171563Y031962D01*
X171263Y031838D01*
X170939Y031838D01*
X170639Y031962D01*
X170483Y032118D02*
X167054Y032118D01*
X167054Y032267D02*
X170379Y032267D01*
X170317Y032415D02*
X166994Y032415D01*
X166859Y032564D02*
X170286Y032564D01*
X170286Y032712D02*
X151917Y032712D01*
X151917Y032816D02*
X151917Y032492D01*
X151792Y032192D01*
X151563Y031962D01*
X151263Y031838D01*
X150939Y031838D01*
X150639Y031962D01*
X150410Y032192D01*
X150286Y032492D01*
X150286Y032816D01*
X150410Y033116D01*
X150639Y033345D01*
X150939Y033469D01*
X151263Y033469D01*
X151563Y033345D01*
X151792Y033116D01*
X151917Y032816D01*
X151898Y032861D02*
X170304Y032861D01*
X170366Y033009D02*
X151836Y033009D01*
X151750Y033158D02*
X170452Y033158D01*
X170601Y033307D02*
X151602Y033307D01*
X151298Y033455D02*
X170904Y033455D01*
X171298Y033455D02*
X195601Y033455D01*
X195601Y033307D02*
X171602Y033307D01*
X171750Y033158D02*
X195601Y033158D01*
X195601Y033009D02*
X171836Y033009D01*
X171898Y032861D02*
X195601Y032861D01*
X195601Y032712D02*
X171917Y032712D01*
X171917Y032564D02*
X172843Y032564D01*
X172845Y032565D02*
X173011Y032634D01*
X173191Y032634D01*
X173358Y032565D01*
X173485Y032438D01*
X173554Y032271D01*
X173554Y032091D01*
X173485Y031925D01*
X173358Y031798D01*
X173191Y031729D01*
X173011Y031729D01*
X172845Y031798D01*
X172717Y031925D01*
X172649Y032091D01*
X172649Y032271D01*
X172717Y032438D01*
X172845Y032565D01*
X172708Y032415D02*
X171885Y032415D01*
X171824Y032267D02*
X172649Y032267D01*
X172649Y032118D02*
X171719Y032118D01*
X171570Y031970D02*
X172699Y031970D01*
X172821Y031821D02*
X166881Y031821D01*
X166321Y031821D02*
X162533Y031821D01*
X162453Y031970D02*
X166199Y031970D01*
X166149Y032118D02*
X162229Y032118D01*
X161973Y032118D02*
X160729Y032118D01*
X160473Y032118D02*
X151719Y032118D01*
X151824Y032267D02*
X166149Y032267D01*
X166208Y032415D02*
X151885Y032415D01*
X151917Y032564D02*
X166343Y032564D01*
X161749Y031970D02*
X160953Y031970D01*
X161033Y031821D02*
X161669Y031821D01*
X160249Y031970D02*
X151570Y031970D01*
X150632Y031970D02*
X131570Y031970D01*
X131563Y031962D02*
X131263Y031838D01*
X130939Y031838D01*
X130639Y031962D01*
X130410Y032192D01*
X130286Y032492D01*
X130286Y032816D01*
X130410Y033116D01*
X130639Y033345D01*
X130939Y033469D01*
X131263Y033469D01*
X131563Y033345D01*
X131792Y033116D01*
X131917Y032816D01*
X131917Y032492D01*
X131792Y032192D01*
X131563Y031962D01*
X131719Y032118D02*
X150483Y032118D01*
X150379Y032267D02*
X131824Y032267D01*
X131885Y032415D02*
X150317Y032415D01*
X150286Y032564D02*
X131917Y032564D01*
X131917Y032712D02*
X150286Y032712D01*
X150304Y032861D02*
X131898Y032861D01*
X131836Y033009D02*
X150366Y033009D01*
X150452Y033158D02*
X131750Y033158D01*
X131602Y033307D02*
X150601Y033307D01*
X150904Y033455D02*
X131298Y033455D01*
X130904Y033455D02*
X111298Y033455D01*
X111263Y033469D02*
X111563Y033345D01*
X111792Y033116D01*
X111917Y032816D01*
X111917Y032492D01*
X111792Y032192D01*
X111563Y031962D01*
X111263Y031838D01*
X110939Y031838D01*
X110639Y031962D01*
X110410Y032192D01*
X110286Y032492D01*
X110286Y032816D01*
X110410Y033116D01*
X110639Y033345D01*
X110939Y033469D01*
X111263Y033469D01*
X110904Y033455D02*
X103601Y033455D01*
X103601Y033307D02*
X110601Y033307D01*
X110452Y033158D02*
X103601Y033158D01*
X103601Y033009D02*
X110366Y033009D01*
X110304Y032861D02*
X103601Y032861D01*
X103601Y032712D02*
X110286Y032712D01*
X110286Y032564D02*
X103601Y032564D01*
X103601Y032415D02*
X110317Y032415D01*
X110379Y032267D02*
X103601Y032267D01*
X103601Y032118D02*
X110483Y032118D01*
X110632Y031970D02*
X103601Y031970D01*
X103601Y031821D02*
X160169Y031821D01*
X164217Y034425D02*
X164345Y034298D01*
X164511Y034229D01*
X164691Y034229D01*
X164858Y034298D01*
X164985Y034425D01*
X165054Y034591D01*
X165054Y034771D01*
X164985Y034938D01*
X164858Y035065D01*
X164691Y035134D01*
X164511Y035134D01*
X164345Y035065D01*
X164217Y034938D01*
X164149Y034771D01*
X164149Y034591D01*
X164217Y034425D01*
X164188Y034495D02*
X151181Y034495D01*
X151198Y034537D02*
X151087Y034270D01*
X150883Y034065D01*
X150616Y033954D01*
X150327Y033954D01*
X150059Y034065D01*
X149855Y034270D01*
X149744Y034537D01*
X149744Y034826D01*
X149855Y035093D01*
X150059Y035298D01*
X150327Y035408D01*
X150616Y035408D01*
X150883Y035298D01*
X151087Y035093D01*
X151198Y034826D01*
X151198Y034537D01*
X151198Y034643D02*
X164149Y034643D01*
X164157Y034792D02*
X151198Y034792D01*
X151151Y034941D02*
X164220Y034941D01*
X164403Y035089D02*
X151089Y035089D01*
X150943Y035238D02*
X169999Y035238D01*
X170059Y035298D02*
X170327Y035408D01*
X170616Y035408D01*
X170883Y035298D01*
X171087Y035093D01*
X171198Y034826D01*
X171198Y034537D01*
X171087Y034270D01*
X170883Y034065D01*
X170616Y033954D01*
X170327Y033954D01*
X170059Y034065D01*
X169855Y034270D01*
X169744Y034537D01*
X169744Y034826D01*
X169855Y035093D01*
X170059Y035298D01*
X170273Y035386D02*
X150669Y035386D01*
X150273Y035386D02*
X130669Y035386D01*
X130616Y035408D02*
X130883Y035298D01*
X131087Y035093D01*
X131198Y034826D01*
X131198Y034537D01*
X131087Y034270D01*
X130883Y034065D01*
X130616Y033954D01*
X130327Y033954D01*
X130059Y034065D01*
X129855Y034270D01*
X129744Y034537D01*
X129744Y034826D01*
X129855Y035093D01*
X130059Y035298D01*
X130327Y035408D01*
X130616Y035408D01*
X130273Y035386D02*
X110669Y035386D01*
X110616Y035408D02*
X110883Y035298D01*
X111087Y035093D01*
X111198Y034826D01*
X111198Y034537D01*
X111087Y034270D01*
X110883Y034065D01*
X110616Y033954D01*
X110327Y033954D01*
X110059Y034065D01*
X109855Y034270D01*
X109744Y034537D01*
X109744Y034826D01*
X109855Y035093D01*
X110059Y035298D01*
X110327Y035408D01*
X110616Y035408D01*
X110273Y035386D02*
X083404Y035386D01*
X083460Y035442D02*
X083341Y035323D01*
X083185Y035258D01*
X083017Y035258D01*
X082861Y035323D01*
X082742Y035442D01*
X082678Y035597D01*
X082678Y035766D01*
X082742Y035921D01*
X082861Y036040D01*
X083017Y036104D01*
X083185Y036104D01*
X083341Y036040D01*
X083460Y035921D01*
X083524Y035766D01*
X083524Y035597D01*
X083460Y035442D01*
X083498Y035535D02*
X178856Y035535D01*
X178861Y035540D02*
X179017Y035604D01*
X179185Y035604D01*
X179341Y035540D01*
X179460Y035421D01*
X179524Y035266D01*
X179524Y035097D01*
X179460Y034942D01*
X179341Y034823D01*
X179185Y034758D01*
X179017Y034758D01*
X178861Y034823D01*
X178742Y034942D01*
X178678Y035097D01*
X178678Y035266D01*
X178742Y035421D01*
X178861Y035540D01*
X178728Y035386D02*
X170669Y035386D01*
X170943Y035238D02*
X178678Y035238D01*
X178681Y035089D02*
X171089Y035089D01*
X171151Y034941D02*
X178744Y034941D01*
X178936Y034792D02*
X171198Y034792D01*
X171198Y034643D02*
X195601Y034643D01*
X195601Y034495D02*
X171181Y034495D01*
X171119Y034346D02*
X195601Y034346D01*
X195601Y034198D02*
X171016Y034198D01*
X170845Y034049D02*
X195601Y034049D01*
X195601Y033901D02*
X103601Y033901D01*
X103601Y034049D02*
X110098Y034049D01*
X109927Y034198D02*
X103601Y034198D01*
X103601Y034346D02*
X109823Y034346D01*
X109762Y034495D02*
X103601Y034495D01*
X103601Y034643D02*
X109744Y034643D01*
X109744Y034792D02*
X103601Y034792D01*
X103601Y034941D02*
X109792Y034941D01*
X109853Y035089D02*
X103601Y035089D01*
X103601Y033752D02*
X195601Y033752D01*
X195601Y033604D02*
X103601Y033604D01*
X110845Y034049D02*
X130098Y034049D01*
X129927Y034198D02*
X111016Y034198D01*
X111119Y034346D02*
X129823Y034346D01*
X129762Y034495D02*
X111181Y034495D01*
X111198Y034643D02*
X129744Y034643D01*
X129744Y034792D02*
X111198Y034792D01*
X111151Y034941D02*
X129792Y034941D01*
X129853Y035089D02*
X111089Y035089D01*
X110943Y035238D02*
X129999Y035238D01*
X130943Y035238D02*
X149999Y035238D01*
X149853Y035089D02*
X131089Y035089D01*
X131151Y034941D02*
X149792Y034941D01*
X149744Y034792D02*
X131198Y034792D01*
X131198Y034643D02*
X149744Y034643D01*
X149762Y034495D02*
X131181Y034495D01*
X131119Y034346D02*
X149823Y034346D01*
X149927Y034198D02*
X131016Y034198D01*
X130845Y034049D02*
X150098Y034049D01*
X150845Y034049D02*
X170098Y034049D01*
X169927Y034198D02*
X151016Y034198D01*
X151119Y034346D02*
X164296Y034346D01*
X164906Y034346D02*
X169823Y034346D01*
X169762Y034495D02*
X165014Y034495D01*
X165054Y034643D02*
X169744Y034643D01*
X169744Y034792D02*
X165045Y034792D01*
X164982Y034941D02*
X169792Y034941D01*
X169853Y035089D02*
X164800Y035089D01*
X163485Y035925D02*
X163358Y035798D01*
X163191Y035729D01*
X163011Y035729D01*
X162845Y035798D01*
X162717Y035925D01*
X162649Y036091D01*
X162649Y036271D01*
X162717Y036438D01*
X162845Y036565D01*
X163011Y036634D01*
X163191Y036634D01*
X163358Y036565D01*
X163485Y036438D01*
X163554Y036271D01*
X163554Y036091D01*
X163485Y035925D01*
X163508Y035980D02*
X170729Y035980D01*
X170639Y036018D02*
X170410Y036247D01*
X170286Y036547D01*
X170286Y036871D01*
X170410Y037171D01*
X170639Y037400D01*
X170939Y037524D01*
X171263Y037524D01*
X171563Y037400D01*
X171792Y037171D01*
X171917Y036871D01*
X171917Y036547D01*
X171792Y036247D01*
X171563Y036018D01*
X171263Y035893D01*
X170939Y035893D01*
X170639Y036018D01*
X170528Y036129D02*
X163554Y036129D01*
X163551Y036277D02*
X170397Y036277D01*
X170336Y036426D02*
X163490Y036426D01*
X163335Y036575D02*
X170286Y036575D01*
X170286Y036723D02*
X151917Y036723D01*
X151917Y036871D02*
X151917Y036547D01*
X151792Y036247D01*
X151563Y036018D01*
X151263Y035893D01*
X150939Y035893D01*
X150639Y036018D01*
X150410Y036247D01*
X150286Y036547D01*
X150286Y036871D01*
X150410Y037171D01*
X150639Y037400D01*
X150939Y037524D01*
X151263Y037524D01*
X151563Y037400D01*
X151792Y037171D01*
X151917Y036871D01*
X151916Y036872D02*
X170286Y036872D01*
X170347Y037020D02*
X151855Y037020D01*
X151793Y037169D02*
X170409Y037169D01*
X170556Y037317D02*
X151646Y037317D01*
X151405Y037466D02*
X170797Y037466D01*
X171405Y037466D02*
X178787Y037466D01*
X178742Y037421D02*
X178861Y037540D01*
X179017Y037604D01*
X179185Y037604D01*
X179341Y037540D01*
X179460Y037421D01*
X179524Y037266D01*
X179524Y037097D01*
X179460Y036942D01*
X179341Y036823D01*
X179185Y036758D01*
X179017Y036758D01*
X178861Y036823D01*
X178742Y036942D01*
X178678Y037097D01*
X178678Y037266D01*
X178742Y037421D01*
X178699Y037317D02*
X171646Y037317D01*
X171793Y037169D02*
X178678Y037169D01*
X178710Y037020D02*
X171855Y037020D01*
X171916Y036872D02*
X178813Y036872D01*
X178945Y036575D02*
X171917Y036575D01*
X171917Y036723D02*
X195601Y036723D01*
X195601Y036575D02*
X182258Y036575D01*
X182185Y036604D02*
X182341Y036540D01*
X182460Y036421D01*
X182524Y036266D01*
X182524Y036097D01*
X182460Y035942D01*
X182341Y035823D01*
X182185Y035758D01*
X182017Y035758D01*
X181861Y035823D01*
X181742Y035942D01*
X181678Y036097D01*
X181678Y036266D01*
X181742Y036421D01*
X181861Y036540D01*
X182017Y036604D01*
X182185Y036604D01*
X182185Y036758D02*
X182017Y036758D01*
X181861Y036823D01*
X181742Y036942D01*
X181678Y037097D01*
X181678Y037266D01*
X181742Y037421D01*
X181861Y037540D01*
X182017Y037604D01*
X182185Y037604D01*
X182341Y037540D01*
X182460Y037421D01*
X182524Y037266D01*
X182524Y037097D01*
X182460Y036942D01*
X182341Y036823D01*
X182185Y036758D01*
X182390Y036872D02*
X195601Y036872D01*
X195601Y037020D02*
X182492Y037020D01*
X182524Y037169D02*
X195601Y037169D01*
X195601Y037317D02*
X182503Y037317D01*
X182415Y037466D02*
X195601Y037466D01*
X195601Y037614D02*
X098466Y037614D01*
X098434Y037733D02*
X098531Y037370D01*
X098531Y036993D01*
X098434Y036629D01*
X098245Y036303D01*
X097979Y036037D01*
X097653Y035849D01*
X097289Y035751D01*
X096913Y035751D01*
X096549Y035849D01*
X096223Y036037D01*
X095957Y036303D01*
X095769Y036629D01*
X095671Y036993D01*
X095671Y037370D01*
X095769Y037733D01*
X095957Y038059D01*
X096223Y038326D01*
X096549Y038514D01*
X096913Y038611D01*
X097289Y038611D01*
X097653Y038514D01*
X097979Y038326D01*
X098245Y038059D01*
X098434Y037733D01*
X098417Y037763D02*
X195601Y037763D01*
X195601Y037911D02*
X098331Y037911D01*
X098245Y038060D02*
X195601Y038060D01*
X195601Y038209D02*
X098096Y038209D01*
X097925Y038357D02*
X195601Y038357D01*
X195601Y038506D02*
X097668Y038506D01*
X096535Y038506D02*
X073601Y038506D01*
X073601Y038654D02*
X195601Y038654D01*
X195601Y038803D02*
X073601Y038803D01*
X073601Y038951D02*
X195601Y038951D01*
X195601Y039100D02*
X073601Y039100D01*
X073601Y038357D02*
X096277Y038357D01*
X096106Y038209D02*
X073601Y038209D01*
X073601Y038060D02*
X095957Y038060D01*
X095871Y037911D02*
X073601Y037911D01*
X073601Y037763D02*
X095786Y037763D01*
X095737Y037614D02*
X073601Y037614D01*
X073601Y037466D02*
X095697Y037466D01*
X095671Y037317D02*
X073601Y037317D01*
X073601Y037169D02*
X095671Y037169D01*
X095671Y037020D02*
X073601Y037020D01*
X073601Y036872D02*
X095704Y036872D01*
X095744Y036723D02*
X073601Y036723D01*
X073601Y036575D02*
X095800Y036575D01*
X095886Y036426D02*
X073601Y036426D01*
X073601Y036277D02*
X095983Y036277D01*
X096131Y036129D02*
X073601Y036129D01*
X073601Y035980D02*
X079802Y035980D01*
X079742Y035921D02*
X079861Y036040D01*
X080017Y036104D01*
X080185Y036104D01*
X080341Y036040D01*
X080460Y035921D01*
X080524Y035766D01*
X080524Y035597D01*
X080460Y035442D01*
X080341Y035323D01*
X080185Y035258D01*
X080017Y035258D01*
X079861Y035323D01*
X079742Y035442D01*
X079678Y035597D01*
X079678Y035766D01*
X079742Y035921D01*
X079705Y035832D02*
X073601Y035832D01*
X073601Y035683D02*
X079678Y035683D01*
X079704Y035535D02*
X073601Y035535D01*
X073601Y035386D02*
X079798Y035386D01*
X079980Y035089D02*
X073601Y035089D01*
X073601Y034941D02*
X079762Y034941D01*
X079742Y034921D02*
X079861Y035040D01*
X080017Y035104D01*
X080185Y035104D01*
X080341Y035040D01*
X080460Y034921D01*
X080524Y034766D01*
X080524Y034597D01*
X080460Y034442D01*
X080341Y034323D01*
X080185Y034258D01*
X080017Y034258D01*
X079861Y034323D01*
X079742Y034442D01*
X079678Y034597D01*
X079678Y034766D01*
X079742Y034921D01*
X079689Y034792D02*
X073601Y034792D01*
X073601Y034643D02*
X079678Y034643D01*
X079720Y034495D02*
X073601Y034495D01*
X073601Y034346D02*
X079838Y034346D01*
X080364Y034346D02*
X081338Y034346D01*
X081361Y034323D02*
X081242Y034442D01*
X081178Y034597D01*
X081178Y034766D01*
X081242Y034921D01*
X081361Y035040D01*
X081517Y035104D01*
X081685Y035104D01*
X081841Y035040D01*
X081960Y034921D01*
X082024Y034766D01*
X082024Y034597D01*
X081960Y034442D01*
X081841Y034323D01*
X081685Y034258D01*
X081517Y034258D01*
X081361Y034323D01*
X081220Y034495D02*
X080482Y034495D01*
X080524Y034643D02*
X081178Y034643D01*
X081189Y034792D02*
X080513Y034792D01*
X080440Y034941D02*
X081262Y034941D01*
X081480Y035089D02*
X080222Y035089D01*
X080404Y035386D02*
X081298Y035386D01*
X081242Y035442D02*
X081178Y035597D01*
X081178Y035766D01*
X081242Y035921D01*
X081361Y036040D01*
X081517Y036104D01*
X081685Y036104D01*
X081841Y036040D01*
X081960Y035921D01*
X082024Y035766D01*
X082024Y035597D01*
X081960Y035442D01*
X081841Y035323D01*
X081685Y035258D01*
X081517Y035258D01*
X081361Y035323D01*
X081242Y035442D01*
X081204Y035535D02*
X080498Y035535D01*
X080524Y035683D02*
X081178Y035683D01*
X081205Y035832D02*
X080497Y035832D01*
X080401Y035980D02*
X081302Y035980D01*
X081901Y035980D02*
X082802Y035980D01*
X082705Y035832D02*
X081997Y035832D01*
X082024Y035683D02*
X082678Y035683D01*
X082704Y035535D02*
X081998Y035535D01*
X081904Y035386D02*
X082798Y035386D01*
X082980Y035089D02*
X081722Y035089D01*
X081940Y034941D02*
X082762Y034941D01*
X082689Y034792D02*
X082013Y034792D01*
X082024Y034643D02*
X082678Y034643D01*
X082720Y034495D02*
X081982Y034495D01*
X081864Y034346D02*
X082838Y034346D01*
X082884Y034049D02*
X081819Y034049D01*
X081841Y034040D02*
X081960Y033921D01*
X082024Y033766D01*
X082024Y033597D01*
X081960Y033442D01*
X081841Y033323D01*
X081685Y033258D01*
X081517Y033258D01*
X081361Y033323D01*
X081242Y033442D01*
X081178Y033597D01*
X081178Y033766D01*
X081242Y033921D01*
X081361Y034040D01*
X081517Y034104D01*
X081685Y034104D01*
X081841Y034040D01*
X081968Y033901D02*
X082734Y033901D01*
X082742Y033921D02*
X082678Y033766D01*
X082678Y033597D01*
X082742Y033442D01*
X082861Y033323D01*
X083017Y033258D01*
X083185Y033258D01*
X083341Y033323D01*
X083460Y033442D01*
X083524Y033597D01*
X083524Y033766D01*
X083460Y033921D01*
X083341Y034040D01*
X083185Y034104D01*
X083017Y034104D01*
X082861Y034040D01*
X082742Y033921D01*
X082678Y033752D02*
X082024Y033752D01*
X082024Y033604D02*
X082678Y033604D01*
X082737Y033455D02*
X081965Y033455D01*
X081802Y033307D02*
X082900Y033307D01*
X083302Y033307D02*
X091101Y033307D01*
X091101Y033455D02*
X083465Y033455D01*
X083524Y033604D02*
X091101Y033604D01*
X091101Y033752D02*
X083524Y033752D01*
X083468Y033901D02*
X091101Y033901D01*
X091101Y034049D02*
X083319Y034049D01*
X081384Y034049D02*
X080319Y034049D01*
X080468Y033901D02*
X081234Y033901D01*
X081178Y033752D02*
X080524Y033752D01*
X080524Y033604D02*
X081178Y033604D01*
X081237Y033455D02*
X080465Y033455D01*
X080302Y033307D02*
X081400Y033307D01*
X073601Y035238D02*
X109999Y035238D01*
X110639Y036018D02*
X110939Y035893D01*
X111263Y035893D01*
X111563Y036018D01*
X111792Y036247D01*
X111917Y036547D01*
X111917Y036871D01*
X111792Y037171D01*
X111563Y037400D01*
X111263Y037524D01*
X110939Y037524D01*
X110639Y037400D01*
X110410Y037171D01*
X110286Y036871D01*
X110286Y036547D01*
X110410Y036247D01*
X110639Y036018D01*
X110729Y035980D02*
X097881Y035980D01*
X098071Y036129D02*
X110528Y036129D01*
X110397Y036277D02*
X098219Y036277D01*
X098316Y036426D02*
X110336Y036426D01*
X110286Y036575D02*
X098402Y036575D01*
X098459Y036723D02*
X110286Y036723D01*
X110286Y036872D02*
X098499Y036872D01*
X098531Y037020D02*
X110347Y037020D01*
X110409Y037169D02*
X098531Y037169D01*
X098531Y037317D02*
X110556Y037317D01*
X110797Y037466D02*
X098505Y037466D01*
X096321Y035980D02*
X083401Y035980D01*
X083497Y035832D02*
X096613Y035832D01*
X097589Y035832D02*
X162811Y035832D01*
X162694Y035980D02*
X151473Y035980D01*
X151674Y036129D02*
X162649Y036129D01*
X162651Y036277D02*
X151805Y036277D01*
X151867Y036426D02*
X162712Y036426D01*
X162867Y036575D02*
X151917Y036575D01*
X150729Y035980D02*
X131473Y035980D01*
X131563Y036018D02*
X131263Y035893D01*
X130939Y035893D01*
X130639Y036018D01*
X130410Y036247D01*
X130286Y036547D01*
X130286Y036871D01*
X130410Y037171D01*
X130639Y037400D01*
X130939Y037524D01*
X131263Y037524D01*
X131563Y037400D01*
X131792Y037171D01*
X131917Y036871D01*
X131917Y036547D01*
X131792Y036247D01*
X131563Y036018D01*
X131674Y036129D02*
X150528Y036129D01*
X150397Y036277D02*
X131805Y036277D01*
X131867Y036426D02*
X150336Y036426D01*
X150286Y036575D02*
X131917Y036575D01*
X131917Y036723D02*
X150286Y036723D01*
X150286Y036872D02*
X131916Y036872D01*
X131855Y037020D02*
X150347Y037020D01*
X150409Y037169D02*
X131793Y037169D01*
X131646Y037317D02*
X150556Y037317D01*
X150797Y037466D02*
X131405Y037466D01*
X130797Y037466D02*
X111405Y037466D01*
X111646Y037317D02*
X130556Y037317D01*
X130409Y037169D02*
X111793Y037169D01*
X111855Y037020D02*
X130347Y037020D01*
X130286Y036872D02*
X111916Y036872D01*
X111917Y036723D02*
X130286Y036723D01*
X130286Y036575D02*
X111917Y036575D01*
X111867Y036426D02*
X130336Y036426D01*
X130397Y036277D02*
X111805Y036277D01*
X111674Y036129D02*
X130528Y036129D01*
X130729Y035980D02*
X111473Y035980D01*
X111602Y033307D02*
X130601Y033307D01*
X130452Y033158D02*
X111750Y033158D01*
X111836Y033009D02*
X130366Y033009D01*
X130304Y032861D02*
X111898Y032861D01*
X111917Y032712D02*
X130286Y032712D01*
X130286Y032564D02*
X111917Y032564D01*
X111885Y032415D02*
X130317Y032415D01*
X130379Y032267D02*
X111824Y032267D01*
X111719Y032118D02*
X130483Y032118D01*
X130632Y031970D02*
X111570Y031970D01*
X111573Y029890D02*
X130629Y029890D01*
X130480Y029742D02*
X111722Y029742D01*
X111825Y029593D02*
X130377Y029593D01*
X130316Y029444D02*
X111886Y029444D01*
X111917Y029296D02*
X130286Y029296D01*
X130286Y029147D02*
X111917Y029147D01*
X111897Y028999D02*
X130305Y028999D01*
X130367Y028850D02*
X111835Y028850D01*
X111747Y028702D02*
X130455Y028702D01*
X130604Y028553D02*
X111599Y028553D01*
X097367Y029147D02*
X096835Y029147D01*
X097019Y028999D02*
X097183Y028999D01*
X097108Y028850D02*
X097094Y028850D01*
X096367Y029147D02*
X077554Y029147D01*
X077554Y029091D02*
X077485Y028925D01*
X077358Y028798D01*
X077191Y028729D01*
X077011Y028729D01*
X076845Y028798D01*
X076717Y028925D01*
X076649Y029091D01*
X076649Y029271D01*
X076717Y029438D01*
X076845Y029565D01*
X077011Y029634D01*
X077191Y029634D01*
X077358Y029565D01*
X077485Y029438D01*
X077554Y029271D01*
X077554Y029091D01*
X077515Y028999D02*
X096183Y028999D01*
X096108Y028850D02*
X077410Y028850D01*
X077544Y029296D02*
X083849Y029296D01*
X083709Y029444D02*
X077478Y029444D01*
X077290Y029593D02*
X083649Y029593D01*
X083649Y029742D02*
X071722Y029742D01*
X071792Y029671D02*
X071917Y029371D01*
X071917Y029047D01*
X071792Y028747D01*
X071563Y028518D01*
X071263Y028393D01*
X070939Y028393D01*
X070639Y028518D01*
X070410Y028747D01*
X070286Y029047D01*
X070286Y029371D01*
X070410Y029671D01*
X070639Y029900D01*
X070939Y030024D01*
X071263Y030024D01*
X071563Y029900D01*
X071792Y029671D01*
X071825Y029593D02*
X076912Y029593D01*
X076724Y029444D02*
X071886Y029444D01*
X071917Y029296D02*
X076659Y029296D01*
X076649Y029147D02*
X071917Y029147D01*
X071897Y028999D02*
X076687Y028999D01*
X076792Y028850D02*
X071835Y028850D01*
X071747Y028702D02*
X096081Y028702D01*
X085833Y028553D02*
X071599Y028553D01*
X071290Y028405D02*
X085704Y028405D01*
X085649Y028256D02*
X052601Y028256D01*
X052601Y028108D02*
X078447Y028108D01*
X078239Y027959D02*
X052601Y027959D01*
X052601Y027810D02*
X070090Y027810D01*
X069924Y027662D02*
X052601Y027662D01*
X052601Y027513D02*
X069822Y027513D01*
X069760Y027365D02*
X052601Y027365D01*
X052601Y027216D02*
X069744Y027216D01*
X069744Y027068D02*
X052601Y027068D01*
X052601Y026919D02*
X069793Y026919D01*
X069854Y026771D02*
X052601Y026771D01*
X052601Y026622D02*
X070002Y026622D01*
X070280Y026474D02*
X052601Y026474D01*
X052601Y026028D02*
X053349Y026028D01*
X053225Y025879D02*
X052601Y025879D01*
X052601Y025731D02*
X053178Y025731D01*
X053184Y025582D02*
X052601Y025582D01*
X052601Y025434D02*
X053250Y025434D01*
X052601Y028405D02*
X070912Y028405D01*
X070604Y028553D02*
X052601Y028553D01*
X052601Y028702D02*
X070455Y028702D01*
X070367Y028850D02*
X052601Y028850D01*
X052601Y028999D02*
X070305Y028999D01*
X070286Y029147D02*
X052601Y029147D01*
X052601Y029296D02*
X070286Y029296D01*
X070316Y029444D02*
X052601Y029444D01*
X052601Y029593D02*
X070377Y029593D01*
X070480Y029742D02*
X052601Y029742D01*
X052601Y029890D02*
X070629Y029890D01*
X071573Y029890D02*
X083698Y029890D01*
X083818Y030039D02*
X052601Y030039D01*
X070852Y027810D02*
X078165Y027810D01*
X078149Y027662D02*
X071019Y027662D01*
X071121Y027513D02*
X078181Y027513D01*
X078278Y027365D02*
X071182Y027365D01*
X071198Y027216D02*
X081649Y027216D01*
X081658Y027068D02*
X071198Y027068D01*
X071149Y026919D02*
X081723Y026919D01*
X081910Y026771D02*
X071088Y026771D01*
X078755Y028108D02*
X085649Y028108D01*
X085703Y027959D02*
X078964Y027959D01*
X079021Y027513D02*
X081793Y027513D01*
X081687Y027365D02*
X078925Y027365D01*
X070790Y022463D02*
X066460Y022463D01*
X066536Y022314D02*
X070553Y022314D01*
X070408Y022166D02*
X066554Y022166D01*
X066523Y022017D02*
X070346Y022017D01*
X075905Y022017D02*
X096202Y022017D01*
X096116Y021869D02*
X076013Y021869D01*
X070266Y020383D02*
X057443Y020383D01*
X057206Y020235D02*
X069996Y020235D01*
X071180Y019492D02*
X096117Y019492D01*
X096204Y019344D02*
X071118Y019344D01*
X061901Y021275D02*
X060802Y021275D01*
X060983Y021423D02*
X061719Y021423D01*
X061657Y021572D02*
X061046Y021572D01*
X061054Y021720D02*
X061649Y021720D01*
X061689Y021869D02*
X061013Y021869D01*
X060905Y022017D02*
X061797Y022017D01*
X060149Y021720D02*
X052601Y021720D01*
X052601Y021572D02*
X060157Y021572D01*
X060219Y021423D02*
X052601Y021423D01*
X052601Y021275D02*
X060401Y021275D01*
X066213Y015927D02*
X052601Y015927D01*
X052601Y016076D02*
X066370Y016076D01*
X066151Y015778D02*
X052601Y015778D01*
X052601Y015630D02*
X066149Y015630D01*
X062553Y015481D02*
X052601Y015481D01*
X052601Y015333D02*
X062456Y015333D01*
X062428Y015184D02*
X052601Y015184D01*
X052601Y015036D02*
X062454Y015036D01*
X062547Y014887D02*
X052601Y014887D01*
X052601Y014739D02*
X070477Y014739D01*
X070626Y014887D02*
X063155Y014887D01*
X062685Y013604D02*
X062841Y013540D01*
X062960Y013421D01*
X063024Y013266D01*
X063024Y013097D01*
X062960Y012942D01*
X062841Y012823D01*
X062685Y012758D01*
X062517Y012758D01*
X062361Y012823D01*
X062242Y012942D01*
X062178Y013097D01*
X062178Y013266D01*
X062242Y013421D01*
X062361Y013540D01*
X062517Y013604D01*
X062685Y013604D01*
X062816Y013550D02*
X065886Y013550D01*
X065861Y013540D02*
X066017Y013604D01*
X066185Y013604D01*
X066341Y013540D01*
X066460Y013421D01*
X066524Y013266D01*
X066524Y013097D01*
X066460Y012942D01*
X066341Y012823D01*
X066185Y012758D01*
X066017Y012758D01*
X065861Y012823D01*
X065742Y012942D01*
X065678Y013097D01*
X065678Y013266D01*
X065742Y013421D01*
X065861Y013540D01*
X065734Y013402D02*
X062968Y013402D01*
X063024Y013253D02*
X065678Y013253D01*
X065678Y013105D02*
X063024Y013105D01*
X062966Y012956D02*
X065736Y012956D01*
X065898Y012808D02*
X062804Y012808D01*
X062398Y012808D02*
X061867Y012808D01*
X061858Y012798D02*
X061691Y012729D01*
X061511Y012729D01*
X061345Y012798D01*
X061217Y012925D01*
X061149Y013091D01*
X061149Y013271D01*
X061217Y013438D01*
X061345Y013565D01*
X061511Y013634D01*
X061691Y013634D01*
X061858Y013565D01*
X061985Y013438D01*
X062054Y013271D01*
X062054Y013091D01*
X061985Y012925D01*
X061858Y012798D01*
X061998Y012956D02*
X062236Y012956D01*
X062178Y013105D02*
X062054Y013105D01*
X062054Y013253D02*
X062178Y013253D01*
X062234Y013402D02*
X062000Y013402D01*
X061872Y013550D02*
X062386Y013550D01*
X061330Y013550D02*
X053101Y013550D01*
X053101Y013402D02*
X061202Y013402D01*
X061149Y013253D02*
X053101Y013253D01*
X053101Y013105D02*
X061149Y013105D01*
X061205Y012956D02*
X053101Y012956D01*
X053101Y012808D02*
X061335Y012808D01*
X065678Y011766D02*
X065742Y011921D01*
X065861Y012040D01*
X066017Y012104D01*
X066185Y012104D01*
X066341Y012040D01*
X066460Y011921D01*
X066524Y011766D01*
X066524Y011597D01*
X066460Y011442D01*
X066341Y011323D01*
X066185Y011258D01*
X066017Y011258D01*
X065861Y011323D01*
X065742Y011442D01*
X065678Y011597D01*
X065678Y011766D01*
X065679Y011768D02*
X053101Y011768D01*
X053101Y011916D02*
X065740Y011916D01*
X065921Y012065D02*
X053101Y012065D01*
X053101Y012213D02*
X069744Y012213D01*
X069744Y012065D02*
X067781Y012065D01*
X067962Y011916D02*
X069794Y011916D01*
X069857Y011768D02*
X068023Y011768D01*
X068024Y011619D02*
X070005Y011619D01*
X067421Y012065D02*
X066281Y012065D01*
X066462Y011916D02*
X067240Y011916D01*
X067179Y011768D02*
X066523Y011768D01*
X066524Y011619D02*
X067178Y011619D01*
X067230Y011471D02*
X066472Y011471D01*
X066339Y011322D02*
X067363Y011322D01*
X065863Y011322D02*
X053101Y011322D01*
X053101Y011471D02*
X065730Y011471D01*
X065678Y011619D02*
X053101Y011619D01*
X053101Y012362D02*
X069759Y012362D01*
X069821Y012511D02*
X053101Y012511D01*
X053101Y012659D02*
X069921Y012659D01*
X067398Y012808D02*
X066304Y012808D01*
X066466Y012956D02*
X067236Y012956D01*
X067178Y013105D02*
X066524Y013105D01*
X066524Y013253D02*
X067178Y013253D01*
X067234Y013402D02*
X066468Y013402D01*
X066316Y013550D02*
X067386Y013550D01*
X082262Y013105D02*
X085940Y013105D01*
X086011Y013134D02*
X086191Y013134D01*
X086358Y013065D01*
X086485Y012938D01*
X086554Y012771D01*
X086554Y012591D01*
X086485Y012425D01*
X086358Y012298D01*
X086191Y012229D01*
X086011Y012229D01*
X085845Y012298D01*
X085717Y012425D01*
X085649Y012591D01*
X085649Y012771D01*
X085717Y012938D01*
X085845Y013065D01*
X086011Y013134D01*
X086262Y013105D02*
X086940Y013105D01*
X086736Y012956D02*
X086466Y012956D01*
X086539Y012808D02*
X086663Y012808D01*
X086649Y012659D02*
X086554Y012659D01*
X086520Y012511D02*
X086682Y012511D01*
X086780Y012362D02*
X086422Y012362D01*
X085780Y012362D02*
X082422Y012362D01*
X082520Y012511D02*
X085682Y012511D01*
X085649Y012659D02*
X082554Y012659D01*
X082539Y012808D02*
X085663Y012808D01*
X085736Y012956D02*
X082466Y012956D01*
X087262Y013105D02*
X088178Y013105D01*
X088236Y012956D02*
X087466Y012956D01*
X091101Y011768D02*
X083054Y011768D01*
X083054Y011619D02*
X083975Y011619D01*
X084227Y011619D02*
X091101Y011619D01*
X091101Y011471D02*
X084452Y011471D01*
X084533Y011322D02*
X091101Y011322D01*
X092101Y011768D02*
X106101Y011768D01*
X106101Y011916D02*
X092101Y011916D01*
X092101Y012065D02*
X106101Y012065D01*
X106101Y012213D02*
X092101Y012213D01*
X092101Y012362D02*
X106101Y012362D01*
X106101Y012511D02*
X092101Y012511D01*
X092101Y012659D02*
X106101Y012659D01*
X106101Y012808D02*
X092101Y012808D01*
X092101Y012956D02*
X106101Y012956D01*
X106101Y013105D02*
X092101Y013105D01*
X092101Y013253D02*
X106101Y013253D01*
X106101Y013402D02*
X092101Y013402D01*
X092101Y013550D02*
X106101Y013550D01*
X106101Y013699D02*
X092101Y013699D01*
X092101Y013847D02*
X106101Y013847D01*
X106101Y013996D02*
X092101Y013996D01*
X092101Y014144D02*
X106101Y014144D01*
X106101Y014293D02*
X092101Y014293D01*
X092101Y014442D02*
X106101Y014442D01*
X106101Y014590D02*
X092101Y014590D01*
X088554Y014739D02*
X106101Y014739D01*
X106101Y014887D02*
X088506Y014887D01*
X096760Y015184D02*
X097442Y015184D01*
X097214Y015333D02*
X096988Y015333D01*
X097081Y015481D02*
X097121Y015481D01*
X107101Y013253D02*
X154178Y013253D01*
X154178Y013105D02*
X107101Y013105D01*
X107101Y012956D02*
X154236Y012956D01*
X154398Y012808D02*
X150859Y012808D01*
X151022Y012659D02*
X169921Y012659D01*
X169821Y012511D02*
X151122Y012511D01*
X151183Y012362D02*
X169759Y012362D01*
X169744Y012213D02*
X151198Y012213D01*
X151198Y012065D02*
X169744Y012065D01*
X169794Y011916D02*
X151148Y011916D01*
X151086Y011768D02*
X169857Y011768D01*
X170005Y011619D02*
X150937Y011619D01*
X150005Y011619D02*
X130937Y011619D01*
X131086Y011768D02*
X149857Y011768D01*
X149794Y011916D02*
X131148Y011916D01*
X131198Y012065D02*
X149744Y012065D01*
X149744Y012213D02*
X131198Y012213D01*
X131183Y012362D02*
X149759Y012362D01*
X149821Y012511D02*
X131122Y012511D01*
X131022Y012659D02*
X149921Y012659D01*
X150083Y012808D02*
X130859Y012808D01*
X130083Y012808D02*
X110859Y012808D01*
X111022Y012659D02*
X129921Y012659D01*
X129821Y012511D02*
X111122Y012511D01*
X111183Y012362D02*
X129759Y012362D01*
X129744Y012213D02*
X111198Y012213D01*
X111198Y012065D02*
X129744Y012065D01*
X129794Y011916D02*
X111148Y011916D01*
X111086Y011768D02*
X129857Y011768D01*
X130005Y011619D02*
X110937Y011619D01*
X110005Y011619D02*
X107101Y011619D01*
X107101Y011768D02*
X109857Y011768D01*
X109794Y011916D02*
X107101Y011916D01*
X107101Y012065D02*
X109744Y012065D01*
X109744Y012213D02*
X107101Y012213D01*
X107101Y012362D02*
X109759Y012362D01*
X109821Y012511D02*
X107101Y012511D01*
X107101Y012659D02*
X109921Y012659D01*
X110083Y012808D02*
X107101Y012808D01*
X111596Y013550D02*
X130606Y013550D01*
X130458Y013699D02*
X111744Y013699D01*
X111834Y013847D02*
X130368Y013847D01*
X130307Y013996D02*
X111896Y013996D01*
X111917Y014144D02*
X130286Y014144D01*
X130286Y014293D02*
X111917Y014293D01*
X111887Y014442D02*
X130315Y014442D01*
X130376Y014590D02*
X111826Y014590D01*
X111725Y014739D02*
X130477Y014739D01*
X130626Y014887D02*
X111576Y014887D01*
X131576Y014887D02*
X150626Y014887D01*
X150477Y014739D02*
X131725Y014739D01*
X131826Y014590D02*
X150376Y014590D01*
X150315Y014442D02*
X131887Y014442D01*
X131917Y014293D02*
X150286Y014293D01*
X150286Y014144D02*
X131917Y014144D01*
X131896Y013996D02*
X150307Y013996D01*
X150368Y013847D02*
X131834Y013847D01*
X131744Y013699D02*
X150458Y013699D01*
X150606Y013550D02*
X131596Y013550D01*
X154816Y013550D02*
X170606Y013550D01*
X170919Y013402D02*
X154968Y013402D01*
X171680Y010728D02*
X187601Y010728D01*
X191339Y011322D02*
X193156Y011322D01*
X193213Y011471D02*
X191472Y011471D01*
X191524Y011619D02*
X193318Y011619D01*
X193970Y012065D02*
X195601Y012065D01*
X195601Y012213D02*
X194173Y012213D01*
X194266Y012362D02*
X195601Y012362D01*
X195601Y012511D02*
X194314Y012511D01*
X194314Y012659D02*
X195601Y012659D01*
X195601Y012808D02*
X194274Y012808D01*
X194193Y012956D02*
X195601Y012956D01*
X190740Y011916D02*
X188101Y011916D01*
X174101Y010579D02*
X171808Y010579D01*
X171869Y010431D02*
X174101Y010431D01*
X174101Y010282D02*
X171917Y010282D01*
X171917Y010134D02*
X174101Y010134D01*
X174101Y009985D02*
X171914Y009985D01*
X171853Y009837D02*
X174101Y009837D01*
X174101Y009688D02*
X171789Y009688D01*
X170811Y009391D02*
X161347Y009391D01*
X161335Y009421D02*
X161399Y009266D01*
X161335Y009421D02*
X161216Y009540D01*
X161060Y009604D01*
X160892Y009604D01*
X160736Y009540D01*
X160605Y009391D02*
X160472Y009391D01*
X160524Y009243D02*
X160553Y009243D01*
X160554Y009094D02*
X160523Y009094D01*
X160461Y008945D02*
X160616Y008945D01*
X160799Y008797D02*
X160279Y008797D01*
X160185Y008604D02*
X160341Y008540D01*
X160460Y008421D01*
X160524Y008266D01*
X160524Y008097D01*
X160460Y007942D01*
X160341Y007823D01*
X160185Y007758D01*
X160017Y007758D01*
X159861Y007823D01*
X159742Y007942D01*
X159678Y008097D01*
X159678Y008266D01*
X159742Y008421D01*
X159861Y008540D01*
X160017Y008604D01*
X160185Y008604D01*
X160381Y008500D02*
X174101Y008500D01*
X174101Y008648D02*
X091304Y008648D01*
X091304Y008591D02*
X091235Y008425D01*
X091108Y008298D01*
X090941Y008229D01*
X090761Y008229D01*
X090595Y008298D01*
X090467Y008425D01*
X090399Y008591D01*
X090399Y008771D01*
X090467Y008938D01*
X090595Y009065D01*
X090761Y009134D01*
X090941Y009134D01*
X091108Y009065D01*
X091235Y008938D01*
X091304Y008771D01*
X091304Y008591D01*
X091266Y008500D02*
X159821Y008500D01*
X159714Y008351D02*
X091161Y008351D01*
X091293Y008797D02*
X159924Y008797D01*
X159741Y008945D02*
X091227Y008945D01*
X091038Y009094D02*
X159679Y009094D01*
X159861Y009540D02*
X160017Y009604D01*
X160185Y009604D01*
X160341Y009540D01*
X161216Y009540D02*
X170562Y009540D01*
X174101Y009094D02*
X161398Y009094D01*
X161336Y008945D02*
X174101Y008945D01*
X174101Y008797D02*
X161154Y008797D01*
X160489Y008351D02*
X174101Y008351D01*
X174101Y008203D02*
X160524Y008203D01*
X160506Y008054D02*
X174101Y008054D01*
X174101Y007906D02*
X166350Y007906D01*
X166341Y007915D02*
X166460Y007796D01*
X166524Y007641D01*
X166524Y007472D01*
X166460Y007317D01*
X166341Y007198D01*
X166185Y007133D01*
X166017Y007133D01*
X165861Y007198D01*
X165742Y007317D01*
X165678Y007472D01*
X165678Y007641D01*
X165742Y007796D01*
X165861Y007915D01*
X166017Y007979D01*
X166185Y007979D01*
X166341Y007915D01*
X166476Y007757D02*
X174101Y007757D01*
X174101Y007609D02*
X166524Y007609D01*
X166519Y007460D02*
X170783Y007460D01*
X170550Y007311D02*
X166455Y007311D01*
X166257Y007163D02*
X170406Y007163D01*
X170345Y007014D02*
X163366Y007014D01*
X163483Y006866D02*
X170286Y006866D01*
X170286Y006717D02*
X163524Y006717D01*
X162836Y007014D02*
X161366Y007014D01*
X161483Y006866D02*
X162720Y006866D01*
X162678Y006717D02*
X161524Y006717D01*
X160836Y007014D02*
X151857Y007014D01*
X151917Y006866D02*
X160720Y006866D01*
X160678Y006717D02*
X151917Y006717D01*
X151796Y007163D02*
X165945Y007163D01*
X165748Y007311D02*
X151652Y007311D01*
X151419Y007460D02*
X165683Y007460D01*
X165678Y007609D02*
X053101Y007609D01*
X053101Y007757D02*
X165726Y007757D01*
X165852Y007906D02*
X160424Y007906D01*
X159779Y007906D02*
X053101Y007906D01*
X053101Y008054D02*
X159696Y008054D01*
X159678Y008203D02*
X053101Y008203D01*
X053101Y008351D02*
X090541Y008351D01*
X090436Y008500D02*
X053101Y008500D01*
X053101Y008648D02*
X090399Y008648D01*
X090409Y008797D02*
X053101Y008797D01*
X053101Y008945D02*
X090475Y008945D01*
X090664Y009094D02*
X053101Y009094D01*
X053101Y007460D02*
X070783Y007460D01*
X070550Y007311D02*
X053101Y007311D01*
X053101Y007163D02*
X070406Y007163D01*
X070345Y007014D02*
X060408Y007014D01*
X060515Y006866D02*
X070286Y006866D01*
X070286Y006717D02*
X060554Y006717D01*
X059794Y007014D02*
X053101Y007014D01*
X053101Y006866D02*
X059688Y006866D01*
X059649Y006717D02*
X053101Y006717D01*
X071419Y007460D02*
X082156Y007460D01*
X082117Y007421D02*
X082236Y007540D01*
X082392Y007604D01*
X082560Y007604D01*
X082716Y007540D01*
X082835Y007421D01*
X082899Y007266D01*
X082899Y007097D01*
X082835Y006942D01*
X082716Y006823D01*
X082560Y006758D01*
X082392Y006758D01*
X082236Y006823D01*
X082117Y006942D01*
X082053Y007097D01*
X082053Y007266D01*
X082117Y007421D01*
X082072Y007311D02*
X071652Y007311D01*
X071796Y007163D02*
X082053Y007163D01*
X082087Y007014D02*
X071857Y007014D01*
X071917Y006866D02*
X082193Y006866D01*
X082759Y006866D02*
X096318Y006866D01*
X096361Y006823D02*
X096242Y006942D01*
X096178Y007097D01*
X096178Y007266D01*
X096242Y007421D01*
X096361Y007540D01*
X096517Y007604D01*
X096685Y007604D01*
X096841Y007540D01*
X096960Y007421D01*
X097024Y007266D01*
X097024Y007097D01*
X096960Y006942D01*
X096841Y006823D01*
X096685Y006758D01*
X096517Y006758D01*
X096361Y006823D01*
X096212Y007014D02*
X082865Y007014D01*
X082899Y007163D02*
X096178Y007163D01*
X096197Y007311D02*
X082880Y007311D01*
X082796Y007460D02*
X096281Y007460D01*
X096921Y007460D02*
X110783Y007460D01*
X110550Y007311D02*
X097005Y007311D01*
X097024Y007163D02*
X110406Y007163D01*
X110345Y007014D02*
X096990Y007014D01*
X096884Y006866D02*
X110286Y006866D01*
X110286Y006717D02*
X071917Y006717D01*
X082882Y011322D02*
X083669Y011322D01*
X083750Y011471D02*
X083004Y011471D01*
X082985Y011938D02*
X082858Y012065D01*
X111419Y007460D02*
X130783Y007460D01*
X130550Y007311D02*
X111652Y007311D01*
X111796Y007163D02*
X130406Y007163D01*
X130345Y007014D02*
X111857Y007014D01*
X111917Y006866D02*
X130286Y006866D01*
X130286Y006717D02*
X111917Y006717D01*
X111607Y003301D02*
X130595Y003301D01*
X130446Y003152D02*
X111756Y003152D01*
X111839Y003004D02*
X130363Y003004D01*
X130302Y002855D02*
X111900Y002855D01*
X111917Y002707D02*
X130286Y002707D01*
X130286Y002558D02*
X111917Y002558D01*
X111883Y002410D02*
X130320Y002410D01*
X130381Y002261D02*
X111821Y002261D01*
X111713Y002112D02*
X130489Y002112D01*
X130638Y001964D02*
X111565Y001964D01*
X131565Y001964D02*
X150638Y001964D01*
X150489Y002112D02*
X131713Y002112D01*
X131821Y002261D02*
X150381Y002261D01*
X150320Y002410D02*
X131883Y002410D01*
X131917Y002558D02*
X150286Y002558D01*
X150286Y002707D02*
X131917Y002707D01*
X131900Y002855D02*
X150302Y002855D01*
X150363Y003004D02*
X131839Y003004D01*
X131756Y003152D02*
X150446Y003152D01*
X150595Y003301D02*
X131607Y003301D01*
X131917Y006717D02*
X150286Y006717D01*
X150286Y006866D02*
X131917Y006866D01*
X131857Y007014D02*
X150345Y007014D01*
X150406Y007163D02*
X131796Y007163D01*
X131652Y007311D02*
X150550Y007311D01*
X150783Y007460D02*
X131419Y007460D01*
X171419Y007460D02*
X174101Y007460D01*
X174101Y007311D02*
X171652Y007311D01*
X171796Y007163D02*
X174101Y007163D01*
X174101Y007014D02*
X171857Y007014D01*
X171917Y006866D02*
X174101Y006866D01*
X174101Y006717D02*
X171917Y006717D01*
X183841Y004073D02*
X183960Y004192D01*
X195601Y001518D02*
X076601Y001518D01*
X076601Y001370D02*
X195601Y001370D01*
X195601Y001221D02*
X076601Y001221D01*
X076601Y001073D02*
X195601Y001073D01*
X195601Y000924D02*
X076601Y000924D01*
X076601Y000776D02*
X195601Y000776D01*
X110736Y020977D02*
X098040Y020977D01*
X097886Y021126D02*
X110531Y021126D01*
X110398Y021275D02*
X097930Y021275D01*
X098057Y021423D02*
X110337Y021423D01*
X110286Y021572D02*
X098119Y021572D01*
X098121Y021720D02*
X110286Y021720D01*
X110286Y021869D02*
X098086Y021869D01*
X098001Y022017D02*
X110346Y022017D01*
X110408Y022166D02*
X097790Y022166D01*
X097969Y022314D02*
X110553Y022314D01*
X173381Y031821D02*
X195601Y031821D01*
X195601Y031673D02*
X192101Y031673D01*
X192101Y031524D02*
X195601Y031524D01*
X195601Y031376D02*
X192101Y031376D01*
X192101Y031227D02*
X195601Y031227D01*
X195601Y031078D02*
X192101Y031078D01*
X192101Y030930D02*
X195601Y030930D01*
X195601Y030781D02*
X192101Y030781D01*
X192101Y030633D02*
X195601Y030633D01*
X195601Y030484D02*
X192101Y030484D01*
X192101Y030336D02*
X193599Y030336D01*
X193630Y030349D02*
X193692Y030349D01*
X193692Y029863D01*
X193778Y029863D01*
X193778Y030349D01*
X193840Y030349D01*
X194035Y030268D01*
X194184Y030119D01*
X194264Y029924D01*
X194264Y029862D01*
X193778Y029862D01*
X193778Y029776D01*
X193692Y029776D01*
X193692Y029290D01*
X193630Y029290D01*
X193435Y029370D01*
X193286Y029519D01*
X193206Y029714D01*
X193206Y029776D01*
X193692Y029776D01*
X193692Y029862D01*
X193206Y029862D01*
X193206Y029924D01*
X193286Y030119D01*
X193435Y030268D01*
X193630Y030349D01*
X193692Y030336D02*
X193778Y030336D01*
X193871Y030336D02*
X195601Y030336D01*
X195601Y030187D02*
X194116Y030187D01*
X194217Y030039D02*
X195601Y030039D01*
X195601Y029890D02*
X194264Y029890D01*
X194264Y029776D02*
X194264Y029714D01*
X194184Y029519D01*
X194035Y029370D01*
X193840Y029290D01*
X193778Y029290D01*
X193778Y029776D01*
X194264Y029776D01*
X194264Y029742D02*
X195601Y029742D01*
X195601Y029593D02*
X194214Y029593D01*
X194109Y029444D02*
X195601Y029444D01*
X195601Y029296D02*
X193855Y029296D01*
X193778Y029296D02*
X193692Y029296D01*
X193615Y029296D02*
X192101Y029296D01*
X192101Y029444D02*
X193361Y029444D01*
X193256Y029593D02*
X192101Y029593D01*
X192101Y029742D02*
X193206Y029742D01*
X193206Y029890D02*
X192101Y029890D01*
X192101Y030039D02*
X193253Y030039D01*
X193354Y030187D02*
X192101Y030187D01*
X191101Y030336D02*
X183396Y030336D01*
X183509Y030484D02*
X191101Y030484D01*
X191101Y030633D02*
X183554Y030633D01*
X183550Y030781D02*
X191101Y030781D01*
X191101Y030930D02*
X183488Y030930D01*
X183325Y031078D02*
X191101Y031078D01*
X193692Y030187D02*
X193778Y030187D01*
X193778Y030039D02*
X193692Y030039D01*
X193692Y029890D02*
X193778Y029890D01*
X193778Y029742D02*
X193692Y029742D01*
X193692Y029593D02*
X193778Y029593D01*
X193778Y029444D02*
X193692Y029444D01*
X195601Y031970D02*
X173503Y031970D01*
X173554Y032118D02*
X195601Y032118D01*
X195601Y032267D02*
X173554Y032267D01*
X173494Y032415D02*
X195601Y032415D01*
X195601Y032564D02*
X173359Y032564D01*
X179267Y034792D02*
X180436Y034792D01*
X180361Y034823D02*
X180242Y034942D01*
X180178Y035097D01*
X180178Y035266D01*
X180242Y035421D01*
X180361Y035540D01*
X180517Y035604D01*
X180685Y035604D01*
X180841Y035540D01*
X180960Y035421D01*
X181024Y035266D01*
X181024Y035097D01*
X180960Y034942D01*
X180841Y034823D01*
X180685Y034758D01*
X180517Y034758D01*
X180361Y034823D01*
X180244Y034941D02*
X179459Y034941D01*
X179521Y035089D02*
X180181Y035089D01*
X180178Y035238D02*
X179524Y035238D01*
X179474Y035386D02*
X180228Y035386D01*
X180356Y035535D02*
X179346Y035535D01*
X179185Y035758D02*
X179017Y035758D01*
X178861Y035823D01*
X178742Y035942D01*
X178678Y036097D01*
X178678Y036266D01*
X178742Y036421D01*
X178861Y036540D01*
X179017Y036604D01*
X179185Y036604D01*
X179341Y036540D01*
X179460Y036421D01*
X179524Y036266D01*
X179524Y036097D01*
X179460Y035942D01*
X179341Y035823D01*
X179185Y035758D01*
X179350Y035832D02*
X180352Y035832D01*
X180361Y035823D02*
X180242Y035942D01*
X180178Y036097D01*
X180178Y036266D01*
X180242Y036421D01*
X180361Y036540D01*
X180517Y036604D01*
X180685Y036604D01*
X180841Y036540D01*
X180960Y036421D01*
X181024Y036266D01*
X181024Y036097D01*
X180960Y035942D01*
X180841Y035823D01*
X180685Y035758D01*
X180517Y035758D01*
X180361Y035823D01*
X180226Y035980D02*
X179476Y035980D01*
X179524Y036129D02*
X180178Y036129D01*
X180183Y036277D02*
X179519Y036277D01*
X179455Y036426D02*
X180247Y036426D01*
X180445Y036575D02*
X179258Y036575D01*
X179390Y036872D02*
X180313Y036872D01*
X180361Y036823D02*
X180242Y036942D01*
X180178Y037097D01*
X180178Y037266D01*
X180242Y037421D01*
X180361Y037540D01*
X180517Y037604D01*
X180685Y037604D01*
X180841Y037540D01*
X180960Y037421D01*
X181024Y037266D01*
X181024Y037097D01*
X180960Y036942D01*
X180841Y036823D01*
X180685Y036758D01*
X180517Y036758D01*
X180361Y036823D01*
X180210Y037020D02*
X179492Y037020D01*
X179524Y037169D02*
X180178Y037169D01*
X180199Y037317D02*
X179503Y037317D01*
X179415Y037466D02*
X180287Y037466D01*
X180915Y037466D02*
X181787Y037466D01*
X181699Y037317D02*
X181003Y037317D01*
X181024Y037169D02*
X181678Y037169D01*
X181710Y037020D02*
X180992Y037020D01*
X180890Y036872D02*
X181813Y036872D01*
X181945Y036575D02*
X180758Y036575D01*
X180955Y036426D02*
X181747Y036426D01*
X181683Y036277D02*
X181019Y036277D01*
X181024Y036129D02*
X181678Y036129D01*
X181726Y035980D02*
X180976Y035980D01*
X180850Y035832D02*
X181852Y035832D01*
X182017Y035604D02*
X182185Y035604D01*
X182341Y035540D01*
X182460Y035421D01*
X182524Y035266D01*
X182524Y035097D01*
X182460Y034942D01*
X182341Y034823D01*
X182185Y034758D01*
X182017Y034758D01*
X181861Y034823D01*
X181742Y034942D01*
X181678Y035097D01*
X181678Y035266D01*
X181742Y035421D01*
X181861Y035540D01*
X182017Y035604D01*
X181856Y035535D02*
X180846Y035535D01*
X180974Y035386D02*
X181728Y035386D01*
X181678Y035238D02*
X181024Y035238D01*
X181021Y035089D02*
X181681Y035089D01*
X181744Y034941D02*
X180959Y034941D01*
X180767Y034792D02*
X181936Y034792D01*
X182267Y034792D02*
X195601Y034792D01*
X195601Y034941D02*
X182459Y034941D01*
X182521Y035089D02*
X195601Y035089D01*
X195601Y035238D02*
X182524Y035238D01*
X182474Y035386D02*
X195601Y035386D01*
X195601Y035535D02*
X182346Y035535D01*
X182350Y035832D02*
X195601Y035832D01*
X195601Y035980D02*
X182476Y035980D01*
X182524Y036129D02*
X195601Y036129D01*
X195601Y036277D02*
X182519Y036277D01*
X182455Y036426D02*
X195601Y036426D01*
X195601Y035683D02*
X083524Y035683D01*
X163392Y035832D02*
X178852Y035832D01*
X178726Y035980D02*
X171473Y035980D01*
X171674Y036129D02*
X178678Y036129D01*
X178683Y036277D02*
X171805Y036277D01*
X171867Y036426D02*
X178747Y036426D01*
M02*
