G75*
G70*
%OFA0B0*%
%FSLAX24Y24*%
%IPPOS*%
%LPD*%
%AMOC8*
5,1,8,0,0,1.08239X$1,22.5*
%
%ADD10C,0.0000*%
%ADD11C,0.0050*%
%ADD12C,0.0060*%
D10*
X012609Y000181D02*
X012609Y040181D01*
X172609Y040181D01*
X172609Y000181D01*
X012609Y000181D01*
D11*
X041427Y002575D02*
X041427Y003107D01*
X041427Y002575D02*
X043790Y002575D01*
X043790Y003107D01*
X041427Y003106D02*
X041353Y003173D01*
X041283Y003243D01*
X041216Y003316D01*
X041152Y003392D01*
X041092Y003471D01*
X041036Y003553D01*
X040984Y003638D01*
X040936Y003725D01*
X040893Y003814D01*
X040853Y003906D01*
X040818Y003999D01*
X040788Y004093D01*
X040762Y004189D01*
X040741Y004286D01*
X040724Y004384D01*
X040713Y004483D01*
X040705Y004582D01*
X040703Y004681D01*
X040705Y004780D01*
X040713Y004879D01*
X040724Y004978D01*
X040741Y005076D01*
X040762Y005173D01*
X040788Y005269D01*
X040818Y005363D01*
X040853Y005456D01*
X040893Y005548D01*
X040936Y005637D01*
X040984Y005724D01*
X041036Y005809D01*
X041092Y005891D01*
X041152Y005970D01*
X041216Y006046D01*
X041283Y006119D01*
X041353Y006189D01*
X041427Y006256D01*
X041427Y006788D01*
X043790Y006788D01*
X043790Y006256D01*
X043864Y006189D01*
X043934Y006119D01*
X044001Y006046D01*
X044065Y005970D01*
X044125Y005891D01*
X044181Y005809D01*
X044233Y005724D01*
X044281Y005637D01*
X044324Y005548D01*
X044364Y005456D01*
X044399Y005363D01*
X044429Y005269D01*
X044455Y005173D01*
X044476Y005076D01*
X044493Y004978D01*
X044504Y004879D01*
X044512Y004780D01*
X044514Y004681D01*
X044512Y004582D01*
X044504Y004483D01*
X044493Y004384D01*
X044476Y004286D01*
X044455Y004189D01*
X044429Y004093D01*
X044399Y003999D01*
X044364Y003906D01*
X044324Y003814D01*
X044281Y003725D01*
X044233Y003638D01*
X044181Y003553D01*
X044125Y003471D01*
X044065Y003392D01*
X044001Y003316D01*
X043934Y003243D01*
X043864Y003173D01*
X043790Y003106D01*
X061427Y003107D02*
X061427Y002575D01*
X063790Y002575D01*
X063790Y003107D01*
X061427Y003106D02*
X061353Y003173D01*
X061283Y003243D01*
X061216Y003316D01*
X061152Y003392D01*
X061092Y003471D01*
X061036Y003553D01*
X060984Y003638D01*
X060936Y003725D01*
X060893Y003814D01*
X060853Y003906D01*
X060818Y003999D01*
X060788Y004093D01*
X060762Y004189D01*
X060741Y004286D01*
X060724Y004384D01*
X060713Y004483D01*
X060705Y004582D01*
X060703Y004681D01*
X060705Y004780D01*
X060713Y004879D01*
X060724Y004978D01*
X060741Y005076D01*
X060762Y005173D01*
X060788Y005269D01*
X060818Y005363D01*
X060853Y005456D01*
X060893Y005548D01*
X060936Y005637D01*
X060984Y005724D01*
X061036Y005809D01*
X061092Y005891D01*
X061152Y005970D01*
X061216Y006046D01*
X061283Y006119D01*
X061353Y006189D01*
X061427Y006256D01*
X061427Y006788D01*
X063790Y006788D01*
X063790Y006256D01*
X063864Y006189D01*
X063934Y006119D01*
X064001Y006046D01*
X064065Y005970D01*
X064125Y005891D01*
X064181Y005809D01*
X064233Y005724D01*
X064281Y005637D01*
X064324Y005548D01*
X064364Y005456D01*
X064399Y005363D01*
X064429Y005269D01*
X064455Y005173D01*
X064476Y005076D01*
X064493Y004978D01*
X064504Y004879D01*
X064512Y004780D01*
X064514Y004681D01*
X064512Y004582D01*
X064504Y004483D01*
X064493Y004384D01*
X064476Y004286D01*
X064455Y004189D01*
X064429Y004093D01*
X064399Y003999D01*
X064364Y003906D01*
X064324Y003814D01*
X064281Y003725D01*
X064233Y003638D01*
X064181Y003553D01*
X064125Y003471D01*
X064065Y003392D01*
X064001Y003316D01*
X063934Y003243D01*
X063864Y003173D01*
X063790Y003106D01*
X071427Y003107D02*
X071427Y002575D01*
X073790Y002575D01*
X073790Y003107D01*
X071427Y003106D02*
X071353Y003173D01*
X071283Y003243D01*
X071216Y003316D01*
X071152Y003392D01*
X071092Y003471D01*
X071036Y003553D01*
X070984Y003638D01*
X070936Y003725D01*
X070893Y003814D01*
X070853Y003906D01*
X070818Y003999D01*
X070788Y004093D01*
X070762Y004189D01*
X070741Y004286D01*
X070724Y004384D01*
X070713Y004483D01*
X070705Y004582D01*
X070703Y004681D01*
X070705Y004780D01*
X070713Y004879D01*
X070724Y004978D01*
X070741Y005076D01*
X070762Y005173D01*
X070788Y005269D01*
X070818Y005363D01*
X070853Y005456D01*
X070893Y005548D01*
X070936Y005637D01*
X070984Y005724D01*
X071036Y005809D01*
X071092Y005891D01*
X071152Y005970D01*
X071216Y006046D01*
X071283Y006119D01*
X071353Y006189D01*
X071427Y006256D01*
X071427Y006788D01*
X073790Y006788D01*
X073790Y006256D01*
X073864Y006189D01*
X073934Y006119D01*
X074001Y006046D01*
X074065Y005970D01*
X074125Y005891D01*
X074181Y005809D01*
X074233Y005724D01*
X074281Y005637D01*
X074324Y005548D01*
X074364Y005456D01*
X074399Y005363D01*
X074429Y005269D01*
X074455Y005173D01*
X074476Y005076D01*
X074493Y004978D01*
X074504Y004879D01*
X074512Y004780D01*
X074514Y004681D01*
X074512Y004582D01*
X074504Y004483D01*
X074493Y004384D01*
X074476Y004286D01*
X074455Y004189D01*
X074429Y004093D01*
X074399Y003999D01*
X074364Y003906D01*
X074324Y003814D01*
X074281Y003725D01*
X074233Y003638D01*
X074181Y003553D01*
X074125Y003471D01*
X074065Y003392D01*
X074001Y003316D01*
X073934Y003243D01*
X073864Y003173D01*
X073790Y003106D01*
X081427Y003107D02*
X081427Y002575D01*
X083790Y002575D01*
X083790Y003107D01*
X081427Y003106D02*
X081353Y003173D01*
X081283Y003243D01*
X081216Y003316D01*
X081152Y003392D01*
X081092Y003471D01*
X081036Y003553D01*
X080984Y003638D01*
X080936Y003725D01*
X080893Y003814D01*
X080853Y003906D01*
X080818Y003999D01*
X080788Y004093D01*
X080762Y004189D01*
X080741Y004286D01*
X080724Y004384D01*
X080713Y004483D01*
X080705Y004582D01*
X080703Y004681D01*
X080705Y004780D01*
X080713Y004879D01*
X080724Y004978D01*
X080741Y005076D01*
X080762Y005173D01*
X080788Y005269D01*
X080818Y005363D01*
X080853Y005456D01*
X080893Y005548D01*
X080936Y005637D01*
X080984Y005724D01*
X081036Y005809D01*
X081092Y005891D01*
X081152Y005970D01*
X081216Y006046D01*
X081283Y006119D01*
X081353Y006189D01*
X081427Y006256D01*
X081427Y006788D01*
X083790Y006788D01*
X083790Y006256D01*
X083864Y006189D01*
X083934Y006119D01*
X084001Y006046D01*
X084065Y005970D01*
X084125Y005891D01*
X084181Y005809D01*
X084233Y005724D01*
X084281Y005637D01*
X084324Y005548D01*
X084364Y005456D01*
X084399Y005363D01*
X084429Y005269D01*
X084455Y005173D01*
X084476Y005076D01*
X084493Y004978D01*
X084504Y004879D01*
X084512Y004780D01*
X084514Y004681D01*
X084512Y004582D01*
X084504Y004483D01*
X084493Y004384D01*
X084476Y004286D01*
X084455Y004189D01*
X084429Y004093D01*
X084399Y003999D01*
X084364Y003906D01*
X084324Y003814D01*
X084281Y003725D01*
X084233Y003638D01*
X084181Y003553D01*
X084125Y003471D01*
X084065Y003392D01*
X084001Y003316D01*
X083934Y003243D01*
X083864Y003173D01*
X083790Y003106D01*
X083790Y010075D02*
X081427Y010075D01*
X081427Y010607D01*
X083790Y010607D02*
X083790Y010075D01*
X073790Y010075D02*
X071427Y010075D01*
X071427Y010607D01*
X073790Y010607D02*
X073790Y010075D01*
X071427Y010606D02*
X071353Y010673D01*
X071283Y010743D01*
X071216Y010816D01*
X071152Y010892D01*
X071092Y010971D01*
X071036Y011053D01*
X070984Y011138D01*
X070936Y011225D01*
X070893Y011314D01*
X070853Y011406D01*
X070818Y011499D01*
X070788Y011593D01*
X070762Y011689D01*
X070741Y011786D01*
X070724Y011884D01*
X070713Y011983D01*
X070705Y012082D01*
X070703Y012181D01*
X070705Y012280D01*
X070713Y012379D01*
X070724Y012478D01*
X070741Y012576D01*
X070762Y012673D01*
X070788Y012769D01*
X070818Y012863D01*
X070853Y012956D01*
X070893Y013048D01*
X070936Y013137D01*
X070984Y013224D01*
X071036Y013309D01*
X071092Y013391D01*
X071152Y013470D01*
X071216Y013546D01*
X071283Y013619D01*
X071353Y013689D01*
X071427Y013756D01*
X071427Y014288D01*
X073790Y014288D01*
X073790Y013756D01*
X073864Y013689D01*
X073934Y013619D01*
X074001Y013546D01*
X074065Y013470D01*
X074125Y013391D01*
X074181Y013309D01*
X074233Y013224D01*
X074281Y013137D01*
X074324Y013048D01*
X074364Y012956D01*
X074399Y012863D01*
X074429Y012769D01*
X074455Y012673D01*
X074476Y012576D01*
X074493Y012478D01*
X074504Y012379D01*
X074512Y012280D01*
X074514Y012181D01*
X074512Y012082D01*
X074504Y011983D01*
X074493Y011884D01*
X074476Y011786D01*
X074455Y011689D01*
X074429Y011593D01*
X074399Y011499D01*
X074364Y011406D01*
X074324Y011314D01*
X074281Y011225D01*
X074233Y011138D01*
X074181Y011053D01*
X074125Y010971D01*
X074065Y010892D01*
X074001Y010816D01*
X073934Y010743D01*
X073864Y010673D01*
X073790Y010606D01*
X083790Y010606D02*
X083864Y010673D01*
X083934Y010743D01*
X084001Y010816D01*
X084065Y010892D01*
X084125Y010971D01*
X084181Y011053D01*
X084233Y011138D01*
X084281Y011225D01*
X084324Y011314D01*
X084364Y011406D01*
X084399Y011499D01*
X084429Y011593D01*
X084455Y011689D01*
X084476Y011786D01*
X084493Y011884D01*
X084504Y011983D01*
X084512Y012082D01*
X084514Y012181D01*
X084512Y012280D01*
X084504Y012379D01*
X084493Y012478D01*
X084476Y012576D01*
X084455Y012673D01*
X084429Y012769D01*
X084399Y012863D01*
X084364Y012956D01*
X084324Y013048D01*
X084281Y013137D01*
X084233Y013224D01*
X084181Y013309D01*
X084125Y013391D01*
X084065Y013470D01*
X084001Y013546D01*
X083934Y013619D01*
X083864Y013689D01*
X083790Y013756D01*
X083790Y014288D01*
X081427Y014288D01*
X081427Y013756D01*
X081353Y013689D01*
X081283Y013619D01*
X081216Y013546D01*
X081152Y013470D01*
X081092Y013391D01*
X081036Y013309D01*
X080984Y013224D01*
X080936Y013137D01*
X080893Y013048D01*
X080853Y012956D01*
X080818Y012863D01*
X080788Y012769D01*
X080762Y012673D01*
X080741Y012576D01*
X080724Y012478D01*
X080713Y012379D01*
X080705Y012280D01*
X080703Y012181D01*
X080705Y012082D01*
X080713Y011983D01*
X080724Y011884D01*
X080741Y011786D01*
X080762Y011689D01*
X080788Y011593D01*
X080818Y011499D01*
X080853Y011406D01*
X080893Y011314D01*
X080936Y011225D01*
X080984Y011138D01*
X081036Y011053D01*
X081092Y010971D01*
X081152Y010892D01*
X081216Y010816D01*
X081283Y010743D01*
X081353Y010673D01*
X081427Y010606D01*
X063790Y010607D02*
X063790Y010075D01*
X061427Y010075D01*
X061427Y010607D01*
X063790Y010606D02*
X063864Y010673D01*
X063934Y010743D01*
X064001Y010816D01*
X064065Y010892D01*
X064125Y010971D01*
X064181Y011053D01*
X064233Y011138D01*
X064281Y011225D01*
X064324Y011314D01*
X064364Y011406D01*
X064399Y011499D01*
X064429Y011593D01*
X064455Y011689D01*
X064476Y011786D01*
X064493Y011884D01*
X064504Y011983D01*
X064512Y012082D01*
X064514Y012181D01*
X064512Y012280D01*
X064504Y012379D01*
X064493Y012478D01*
X064476Y012576D01*
X064455Y012673D01*
X064429Y012769D01*
X064399Y012863D01*
X064364Y012956D01*
X064324Y013048D01*
X064281Y013137D01*
X064233Y013224D01*
X064181Y013309D01*
X064125Y013391D01*
X064065Y013470D01*
X064001Y013546D01*
X063934Y013619D01*
X063864Y013689D01*
X063790Y013756D01*
X063790Y014288D01*
X061427Y014288D01*
X061427Y013756D01*
X061353Y013689D01*
X061283Y013619D01*
X061216Y013546D01*
X061152Y013470D01*
X061092Y013391D01*
X061036Y013309D01*
X060984Y013224D01*
X060936Y013137D01*
X060893Y013048D01*
X060853Y012956D01*
X060818Y012863D01*
X060788Y012769D01*
X060762Y012673D01*
X060741Y012576D01*
X060724Y012478D01*
X060713Y012379D01*
X060705Y012280D01*
X060703Y012181D01*
X060705Y012082D01*
X060713Y011983D01*
X060724Y011884D01*
X060741Y011786D01*
X060762Y011689D01*
X060788Y011593D01*
X060818Y011499D01*
X060853Y011406D01*
X060893Y011314D01*
X060936Y011225D01*
X060984Y011138D01*
X061036Y011053D01*
X061092Y010971D01*
X061152Y010892D01*
X061216Y010816D01*
X061283Y010743D01*
X061353Y010673D01*
X061427Y010606D01*
X043790Y010607D02*
X043790Y010075D01*
X041427Y010075D01*
X041427Y010607D01*
X043790Y010606D02*
X043864Y010673D01*
X043934Y010743D01*
X044001Y010816D01*
X044065Y010892D01*
X044125Y010971D01*
X044181Y011053D01*
X044233Y011138D01*
X044281Y011225D01*
X044324Y011314D01*
X044364Y011406D01*
X044399Y011499D01*
X044429Y011593D01*
X044455Y011689D01*
X044476Y011786D01*
X044493Y011884D01*
X044504Y011983D01*
X044512Y012082D01*
X044514Y012181D01*
X044512Y012280D01*
X044504Y012379D01*
X044493Y012478D01*
X044476Y012576D01*
X044455Y012673D01*
X044429Y012769D01*
X044399Y012863D01*
X044364Y012956D01*
X044324Y013048D01*
X044281Y013137D01*
X044233Y013224D01*
X044181Y013309D01*
X044125Y013391D01*
X044065Y013470D01*
X044001Y013546D01*
X043934Y013619D01*
X043864Y013689D01*
X043790Y013756D01*
X043790Y014288D01*
X041427Y014288D01*
X041427Y013756D01*
X041353Y013689D01*
X041283Y013619D01*
X041216Y013546D01*
X041152Y013470D01*
X041092Y013391D01*
X041036Y013309D01*
X040984Y013224D01*
X040936Y013137D01*
X040893Y013048D01*
X040853Y012956D01*
X040818Y012863D01*
X040788Y012769D01*
X040762Y012673D01*
X040741Y012576D01*
X040724Y012478D01*
X040713Y012379D01*
X040705Y012280D01*
X040703Y012181D01*
X040705Y012082D01*
X040713Y011983D01*
X040724Y011884D01*
X040741Y011786D01*
X040762Y011689D01*
X040788Y011593D01*
X040818Y011499D01*
X040853Y011406D01*
X040893Y011314D01*
X040936Y011225D01*
X040984Y011138D01*
X041036Y011053D01*
X041092Y010971D01*
X041152Y010892D01*
X041216Y010816D01*
X041283Y010743D01*
X041353Y010673D01*
X041427Y010606D01*
X041427Y017575D02*
X041427Y018107D01*
X041427Y017575D02*
X043790Y017575D01*
X043790Y018107D01*
X041427Y018106D02*
X041353Y018173D01*
X041283Y018243D01*
X041216Y018316D01*
X041152Y018392D01*
X041092Y018471D01*
X041036Y018553D01*
X040984Y018638D01*
X040936Y018725D01*
X040893Y018814D01*
X040853Y018906D01*
X040818Y018999D01*
X040788Y019093D01*
X040762Y019189D01*
X040741Y019286D01*
X040724Y019384D01*
X040713Y019483D01*
X040705Y019582D01*
X040703Y019681D01*
X040705Y019780D01*
X040713Y019879D01*
X040724Y019978D01*
X040741Y020076D01*
X040762Y020173D01*
X040788Y020269D01*
X040818Y020363D01*
X040853Y020456D01*
X040893Y020548D01*
X040936Y020637D01*
X040984Y020724D01*
X041036Y020809D01*
X041092Y020891D01*
X041152Y020970D01*
X041216Y021046D01*
X041283Y021119D01*
X041353Y021189D01*
X041427Y021256D01*
X041427Y021788D01*
X043790Y021788D01*
X043790Y021256D01*
X043864Y021189D01*
X043934Y021119D01*
X044001Y021046D01*
X044065Y020970D01*
X044125Y020891D01*
X044181Y020809D01*
X044233Y020724D01*
X044281Y020637D01*
X044324Y020548D01*
X044364Y020456D01*
X044399Y020363D01*
X044429Y020269D01*
X044455Y020173D01*
X044476Y020076D01*
X044493Y019978D01*
X044504Y019879D01*
X044512Y019780D01*
X044514Y019681D01*
X044512Y019582D01*
X044504Y019483D01*
X044493Y019384D01*
X044476Y019286D01*
X044455Y019189D01*
X044429Y019093D01*
X044399Y018999D01*
X044364Y018906D01*
X044324Y018814D01*
X044281Y018725D01*
X044233Y018638D01*
X044181Y018553D01*
X044125Y018471D01*
X044065Y018392D01*
X044001Y018316D01*
X043934Y018243D01*
X043864Y018173D01*
X043790Y018106D01*
X061427Y018107D02*
X061427Y017575D01*
X063790Y017575D01*
X063790Y018107D01*
X061427Y018106D02*
X061353Y018173D01*
X061283Y018243D01*
X061216Y018316D01*
X061152Y018392D01*
X061092Y018471D01*
X061036Y018553D01*
X060984Y018638D01*
X060936Y018725D01*
X060893Y018814D01*
X060853Y018906D01*
X060818Y018999D01*
X060788Y019093D01*
X060762Y019189D01*
X060741Y019286D01*
X060724Y019384D01*
X060713Y019483D01*
X060705Y019582D01*
X060703Y019681D01*
X060705Y019780D01*
X060713Y019879D01*
X060724Y019978D01*
X060741Y020076D01*
X060762Y020173D01*
X060788Y020269D01*
X060818Y020363D01*
X060853Y020456D01*
X060893Y020548D01*
X060936Y020637D01*
X060984Y020724D01*
X061036Y020809D01*
X061092Y020891D01*
X061152Y020970D01*
X061216Y021046D01*
X061283Y021119D01*
X061353Y021189D01*
X061427Y021256D01*
X061427Y021788D01*
X063790Y021788D01*
X063790Y021256D01*
X063864Y021189D01*
X063934Y021119D01*
X064001Y021046D01*
X064065Y020970D01*
X064125Y020891D01*
X064181Y020809D01*
X064233Y020724D01*
X064281Y020637D01*
X064324Y020548D01*
X064364Y020456D01*
X064399Y020363D01*
X064429Y020269D01*
X064455Y020173D01*
X064476Y020076D01*
X064493Y019978D01*
X064504Y019879D01*
X064512Y019780D01*
X064514Y019681D01*
X064512Y019582D01*
X064504Y019483D01*
X064493Y019384D01*
X064476Y019286D01*
X064455Y019189D01*
X064429Y019093D01*
X064399Y018999D01*
X064364Y018906D01*
X064324Y018814D01*
X064281Y018725D01*
X064233Y018638D01*
X064181Y018553D01*
X064125Y018471D01*
X064065Y018392D01*
X064001Y018316D01*
X063934Y018243D01*
X063864Y018173D01*
X063790Y018106D01*
X071427Y018107D02*
X071427Y017575D01*
X073790Y017575D01*
X073790Y018107D01*
X071427Y018106D02*
X071353Y018173D01*
X071283Y018243D01*
X071216Y018316D01*
X071152Y018392D01*
X071092Y018471D01*
X071036Y018553D01*
X070984Y018638D01*
X070936Y018725D01*
X070893Y018814D01*
X070853Y018906D01*
X070818Y018999D01*
X070788Y019093D01*
X070762Y019189D01*
X070741Y019286D01*
X070724Y019384D01*
X070713Y019483D01*
X070705Y019582D01*
X070703Y019681D01*
X070705Y019780D01*
X070713Y019879D01*
X070724Y019978D01*
X070741Y020076D01*
X070762Y020173D01*
X070788Y020269D01*
X070818Y020363D01*
X070853Y020456D01*
X070893Y020548D01*
X070936Y020637D01*
X070984Y020724D01*
X071036Y020809D01*
X071092Y020891D01*
X071152Y020970D01*
X071216Y021046D01*
X071283Y021119D01*
X071353Y021189D01*
X071427Y021256D01*
X071427Y021788D01*
X073790Y021788D01*
X073790Y021256D01*
X073864Y021189D01*
X073934Y021119D01*
X074001Y021046D01*
X074065Y020970D01*
X074125Y020891D01*
X074181Y020809D01*
X074233Y020724D01*
X074281Y020637D01*
X074324Y020548D01*
X074364Y020456D01*
X074399Y020363D01*
X074429Y020269D01*
X074455Y020173D01*
X074476Y020076D01*
X074493Y019978D01*
X074504Y019879D01*
X074512Y019780D01*
X074514Y019681D01*
X074512Y019582D01*
X074504Y019483D01*
X074493Y019384D01*
X074476Y019286D01*
X074455Y019189D01*
X074429Y019093D01*
X074399Y018999D01*
X074364Y018906D01*
X074324Y018814D01*
X074281Y018725D01*
X074233Y018638D01*
X074181Y018553D01*
X074125Y018471D01*
X074065Y018392D01*
X074001Y018316D01*
X073934Y018243D01*
X073864Y018173D01*
X073790Y018106D01*
X081427Y018107D02*
X081427Y017575D01*
X083790Y017575D01*
X083790Y018107D01*
X081427Y018106D02*
X081353Y018173D01*
X081283Y018243D01*
X081216Y018316D01*
X081152Y018392D01*
X081092Y018471D01*
X081036Y018553D01*
X080984Y018638D01*
X080936Y018725D01*
X080893Y018814D01*
X080853Y018906D01*
X080818Y018999D01*
X080788Y019093D01*
X080762Y019189D01*
X080741Y019286D01*
X080724Y019384D01*
X080713Y019483D01*
X080705Y019582D01*
X080703Y019681D01*
X080705Y019780D01*
X080713Y019879D01*
X080724Y019978D01*
X080741Y020076D01*
X080762Y020173D01*
X080788Y020269D01*
X080818Y020363D01*
X080853Y020456D01*
X080893Y020548D01*
X080936Y020637D01*
X080984Y020724D01*
X081036Y020809D01*
X081092Y020891D01*
X081152Y020970D01*
X081216Y021046D01*
X081283Y021119D01*
X081353Y021189D01*
X081427Y021256D01*
X081427Y021788D01*
X083790Y021788D01*
X083790Y021256D01*
X083864Y021189D01*
X083934Y021119D01*
X084001Y021046D01*
X084065Y020970D01*
X084125Y020891D01*
X084181Y020809D01*
X084233Y020724D01*
X084281Y020637D01*
X084324Y020548D01*
X084364Y020456D01*
X084399Y020363D01*
X084429Y020269D01*
X084455Y020173D01*
X084476Y020076D01*
X084493Y019978D01*
X084504Y019879D01*
X084512Y019780D01*
X084514Y019681D01*
X084512Y019582D01*
X084504Y019483D01*
X084493Y019384D01*
X084476Y019286D01*
X084455Y019189D01*
X084429Y019093D01*
X084399Y018999D01*
X084364Y018906D01*
X084324Y018814D01*
X084281Y018725D01*
X084233Y018638D01*
X084181Y018553D01*
X084125Y018471D01*
X084065Y018392D01*
X084001Y018316D01*
X083934Y018243D01*
X083864Y018173D01*
X083790Y018106D01*
X083790Y025075D02*
X081427Y025075D01*
X081427Y025607D01*
X083790Y025607D02*
X083790Y025075D01*
X081427Y025606D02*
X081353Y025673D01*
X081283Y025743D01*
X081216Y025816D01*
X081152Y025892D01*
X081092Y025971D01*
X081036Y026053D01*
X080984Y026138D01*
X080936Y026225D01*
X080893Y026314D01*
X080853Y026406D01*
X080818Y026499D01*
X080788Y026593D01*
X080762Y026689D01*
X080741Y026786D01*
X080724Y026884D01*
X080713Y026983D01*
X080705Y027082D01*
X080703Y027181D01*
X080705Y027280D01*
X080713Y027379D01*
X080724Y027478D01*
X080741Y027576D01*
X080762Y027673D01*
X080788Y027769D01*
X080818Y027863D01*
X080853Y027956D01*
X080893Y028048D01*
X080936Y028137D01*
X080984Y028224D01*
X081036Y028309D01*
X081092Y028391D01*
X081152Y028470D01*
X081216Y028546D01*
X081283Y028619D01*
X081353Y028689D01*
X081427Y028756D01*
X081427Y029288D01*
X083790Y029288D01*
X083790Y028756D01*
X083864Y028689D01*
X083934Y028619D01*
X084001Y028546D01*
X084065Y028470D01*
X084125Y028391D01*
X084181Y028309D01*
X084233Y028224D01*
X084281Y028137D01*
X084324Y028048D01*
X084364Y027956D01*
X084399Y027863D01*
X084429Y027769D01*
X084455Y027673D01*
X084476Y027576D01*
X084493Y027478D01*
X084504Y027379D01*
X084512Y027280D01*
X084514Y027181D01*
X084512Y027082D01*
X084504Y026983D01*
X084493Y026884D01*
X084476Y026786D01*
X084455Y026689D01*
X084429Y026593D01*
X084399Y026499D01*
X084364Y026406D01*
X084324Y026314D01*
X084281Y026225D01*
X084233Y026138D01*
X084181Y026053D01*
X084125Y025971D01*
X084065Y025892D01*
X084001Y025816D01*
X083934Y025743D01*
X083864Y025673D01*
X083790Y025606D01*
X073790Y025607D02*
X073790Y025075D01*
X071427Y025075D01*
X071427Y025607D01*
X073790Y025606D02*
X073864Y025673D01*
X073934Y025743D01*
X074001Y025816D01*
X074065Y025892D01*
X074125Y025971D01*
X074181Y026053D01*
X074233Y026138D01*
X074281Y026225D01*
X074324Y026314D01*
X074364Y026406D01*
X074399Y026499D01*
X074429Y026593D01*
X074455Y026689D01*
X074476Y026786D01*
X074493Y026884D01*
X074504Y026983D01*
X074512Y027082D01*
X074514Y027181D01*
X074512Y027280D01*
X074504Y027379D01*
X074493Y027478D01*
X074476Y027576D01*
X074455Y027673D01*
X074429Y027769D01*
X074399Y027863D01*
X074364Y027956D01*
X074324Y028048D01*
X074281Y028137D01*
X074233Y028224D01*
X074181Y028309D01*
X074125Y028391D01*
X074065Y028470D01*
X074001Y028546D01*
X073934Y028619D01*
X073864Y028689D01*
X073790Y028756D01*
X073790Y029288D01*
X071427Y029288D01*
X071427Y028756D01*
X071353Y028689D01*
X071283Y028619D01*
X071216Y028546D01*
X071152Y028470D01*
X071092Y028391D01*
X071036Y028309D01*
X070984Y028224D01*
X070936Y028137D01*
X070893Y028048D01*
X070853Y027956D01*
X070818Y027863D01*
X070788Y027769D01*
X070762Y027673D01*
X070741Y027576D01*
X070724Y027478D01*
X070713Y027379D01*
X070705Y027280D01*
X070703Y027181D01*
X070705Y027082D01*
X070713Y026983D01*
X070724Y026884D01*
X070741Y026786D01*
X070762Y026689D01*
X070788Y026593D01*
X070818Y026499D01*
X070853Y026406D01*
X070893Y026314D01*
X070936Y026225D01*
X070984Y026138D01*
X071036Y026053D01*
X071092Y025971D01*
X071152Y025892D01*
X071216Y025816D01*
X071283Y025743D01*
X071353Y025673D01*
X071427Y025606D01*
X063790Y025607D02*
X063790Y025075D01*
X061427Y025075D01*
X061427Y025607D01*
X063790Y025606D02*
X063864Y025673D01*
X063934Y025743D01*
X064001Y025816D01*
X064065Y025892D01*
X064125Y025971D01*
X064181Y026053D01*
X064233Y026138D01*
X064281Y026225D01*
X064324Y026314D01*
X064364Y026406D01*
X064399Y026499D01*
X064429Y026593D01*
X064455Y026689D01*
X064476Y026786D01*
X064493Y026884D01*
X064504Y026983D01*
X064512Y027082D01*
X064514Y027181D01*
X064512Y027280D01*
X064504Y027379D01*
X064493Y027478D01*
X064476Y027576D01*
X064455Y027673D01*
X064429Y027769D01*
X064399Y027863D01*
X064364Y027956D01*
X064324Y028048D01*
X064281Y028137D01*
X064233Y028224D01*
X064181Y028309D01*
X064125Y028391D01*
X064065Y028470D01*
X064001Y028546D01*
X063934Y028619D01*
X063864Y028689D01*
X063790Y028756D01*
X063790Y029288D01*
X061427Y029288D01*
X061427Y028756D01*
X061353Y028689D01*
X061283Y028619D01*
X061216Y028546D01*
X061152Y028470D01*
X061092Y028391D01*
X061036Y028309D01*
X060984Y028224D01*
X060936Y028137D01*
X060893Y028048D01*
X060853Y027956D01*
X060818Y027863D01*
X060788Y027769D01*
X060762Y027673D01*
X060741Y027576D01*
X060724Y027478D01*
X060713Y027379D01*
X060705Y027280D01*
X060703Y027181D01*
X060705Y027082D01*
X060713Y026983D01*
X060724Y026884D01*
X060741Y026786D01*
X060762Y026689D01*
X060788Y026593D01*
X060818Y026499D01*
X060853Y026406D01*
X060893Y026314D01*
X060936Y026225D01*
X060984Y026138D01*
X061036Y026053D01*
X061092Y025971D01*
X061152Y025892D01*
X061216Y025816D01*
X061283Y025743D01*
X061353Y025673D01*
X061427Y025606D01*
X043790Y025607D02*
X043790Y025075D01*
X041427Y025075D01*
X041427Y025607D01*
X043790Y025606D02*
X043864Y025673D01*
X043934Y025743D01*
X044001Y025816D01*
X044065Y025892D01*
X044125Y025971D01*
X044181Y026053D01*
X044233Y026138D01*
X044281Y026225D01*
X044324Y026314D01*
X044364Y026406D01*
X044399Y026499D01*
X044429Y026593D01*
X044455Y026689D01*
X044476Y026786D01*
X044493Y026884D01*
X044504Y026983D01*
X044512Y027082D01*
X044514Y027181D01*
X044512Y027280D01*
X044504Y027379D01*
X044493Y027478D01*
X044476Y027576D01*
X044455Y027673D01*
X044429Y027769D01*
X044399Y027863D01*
X044364Y027956D01*
X044324Y028048D01*
X044281Y028137D01*
X044233Y028224D01*
X044181Y028309D01*
X044125Y028391D01*
X044065Y028470D01*
X044001Y028546D01*
X043934Y028619D01*
X043864Y028689D01*
X043790Y028756D01*
X043790Y029288D01*
X041427Y029288D01*
X041427Y028756D01*
X041353Y028689D01*
X041283Y028619D01*
X041216Y028546D01*
X041152Y028470D01*
X041092Y028391D01*
X041036Y028309D01*
X040984Y028224D01*
X040936Y028137D01*
X040893Y028048D01*
X040853Y027956D01*
X040818Y027863D01*
X040788Y027769D01*
X040762Y027673D01*
X040741Y027576D01*
X040724Y027478D01*
X040713Y027379D01*
X040705Y027280D01*
X040703Y027181D01*
X040705Y027082D01*
X040713Y026983D01*
X040724Y026884D01*
X040741Y026786D01*
X040762Y026689D01*
X040788Y026593D01*
X040818Y026499D01*
X040853Y026406D01*
X040893Y026314D01*
X040936Y026225D01*
X040984Y026138D01*
X041036Y026053D01*
X041092Y025971D01*
X041152Y025892D01*
X041216Y025816D01*
X041283Y025743D01*
X041353Y025673D01*
X041427Y025606D01*
X041427Y032575D02*
X041427Y033107D01*
X041427Y032575D02*
X043790Y032575D01*
X043790Y033107D01*
X041427Y033106D02*
X041353Y033173D01*
X041283Y033243D01*
X041216Y033316D01*
X041152Y033392D01*
X041092Y033471D01*
X041036Y033553D01*
X040984Y033638D01*
X040936Y033725D01*
X040893Y033814D01*
X040853Y033906D01*
X040818Y033999D01*
X040788Y034093D01*
X040762Y034189D01*
X040741Y034286D01*
X040724Y034384D01*
X040713Y034483D01*
X040705Y034582D01*
X040703Y034681D01*
X040705Y034780D01*
X040713Y034879D01*
X040724Y034978D01*
X040741Y035076D01*
X040762Y035173D01*
X040788Y035269D01*
X040818Y035363D01*
X040853Y035456D01*
X040893Y035548D01*
X040936Y035637D01*
X040984Y035724D01*
X041036Y035809D01*
X041092Y035891D01*
X041152Y035970D01*
X041216Y036046D01*
X041283Y036119D01*
X041353Y036189D01*
X041427Y036256D01*
X041427Y036788D01*
X043790Y036788D01*
X043790Y036256D01*
X043864Y036189D01*
X043934Y036119D01*
X044001Y036046D01*
X044065Y035970D01*
X044125Y035891D01*
X044181Y035809D01*
X044233Y035724D01*
X044281Y035637D01*
X044324Y035548D01*
X044364Y035456D01*
X044399Y035363D01*
X044429Y035269D01*
X044455Y035173D01*
X044476Y035076D01*
X044493Y034978D01*
X044504Y034879D01*
X044512Y034780D01*
X044514Y034681D01*
X044512Y034582D01*
X044504Y034483D01*
X044493Y034384D01*
X044476Y034286D01*
X044455Y034189D01*
X044429Y034093D01*
X044399Y033999D01*
X044364Y033906D01*
X044324Y033814D01*
X044281Y033725D01*
X044233Y033638D01*
X044181Y033553D01*
X044125Y033471D01*
X044065Y033392D01*
X044001Y033316D01*
X043934Y033243D01*
X043864Y033173D01*
X043790Y033106D01*
X061427Y033107D02*
X061427Y032575D01*
X063790Y032575D01*
X063790Y033107D01*
X061427Y033106D02*
X061353Y033173D01*
X061283Y033243D01*
X061216Y033316D01*
X061152Y033392D01*
X061092Y033471D01*
X061036Y033553D01*
X060984Y033638D01*
X060936Y033725D01*
X060893Y033814D01*
X060853Y033906D01*
X060818Y033999D01*
X060788Y034093D01*
X060762Y034189D01*
X060741Y034286D01*
X060724Y034384D01*
X060713Y034483D01*
X060705Y034582D01*
X060703Y034681D01*
X060705Y034780D01*
X060713Y034879D01*
X060724Y034978D01*
X060741Y035076D01*
X060762Y035173D01*
X060788Y035269D01*
X060818Y035363D01*
X060853Y035456D01*
X060893Y035548D01*
X060936Y035637D01*
X060984Y035724D01*
X061036Y035809D01*
X061092Y035891D01*
X061152Y035970D01*
X061216Y036046D01*
X061283Y036119D01*
X061353Y036189D01*
X061427Y036256D01*
X061427Y036788D01*
X063790Y036788D01*
X063790Y036256D01*
X063864Y036189D01*
X063934Y036119D01*
X064001Y036046D01*
X064065Y035970D01*
X064125Y035891D01*
X064181Y035809D01*
X064233Y035724D01*
X064281Y035637D01*
X064324Y035548D01*
X064364Y035456D01*
X064399Y035363D01*
X064429Y035269D01*
X064455Y035173D01*
X064476Y035076D01*
X064493Y034978D01*
X064504Y034879D01*
X064512Y034780D01*
X064514Y034681D01*
X064512Y034582D01*
X064504Y034483D01*
X064493Y034384D01*
X064476Y034286D01*
X064455Y034189D01*
X064429Y034093D01*
X064399Y033999D01*
X064364Y033906D01*
X064324Y033814D01*
X064281Y033725D01*
X064233Y033638D01*
X064181Y033553D01*
X064125Y033471D01*
X064065Y033392D01*
X064001Y033316D01*
X063934Y033243D01*
X063864Y033173D01*
X063790Y033106D01*
X071427Y033107D02*
X071427Y032575D01*
X073790Y032575D01*
X073790Y033107D01*
X071427Y033106D02*
X071353Y033173D01*
X071283Y033243D01*
X071216Y033316D01*
X071152Y033392D01*
X071092Y033471D01*
X071036Y033553D01*
X070984Y033638D01*
X070936Y033725D01*
X070893Y033814D01*
X070853Y033906D01*
X070818Y033999D01*
X070788Y034093D01*
X070762Y034189D01*
X070741Y034286D01*
X070724Y034384D01*
X070713Y034483D01*
X070705Y034582D01*
X070703Y034681D01*
X070705Y034780D01*
X070713Y034879D01*
X070724Y034978D01*
X070741Y035076D01*
X070762Y035173D01*
X070788Y035269D01*
X070818Y035363D01*
X070853Y035456D01*
X070893Y035548D01*
X070936Y035637D01*
X070984Y035724D01*
X071036Y035809D01*
X071092Y035891D01*
X071152Y035970D01*
X071216Y036046D01*
X071283Y036119D01*
X071353Y036189D01*
X071427Y036256D01*
X071427Y036788D01*
X073790Y036788D01*
X073790Y036256D01*
X073864Y036189D01*
X073934Y036119D01*
X074001Y036046D01*
X074065Y035970D01*
X074125Y035891D01*
X074181Y035809D01*
X074233Y035724D01*
X074281Y035637D01*
X074324Y035548D01*
X074364Y035456D01*
X074399Y035363D01*
X074429Y035269D01*
X074455Y035173D01*
X074476Y035076D01*
X074493Y034978D01*
X074504Y034879D01*
X074512Y034780D01*
X074514Y034681D01*
X074512Y034582D01*
X074504Y034483D01*
X074493Y034384D01*
X074476Y034286D01*
X074455Y034189D01*
X074429Y034093D01*
X074399Y033999D01*
X074364Y033906D01*
X074324Y033814D01*
X074281Y033725D01*
X074233Y033638D01*
X074181Y033553D01*
X074125Y033471D01*
X074065Y033392D01*
X074001Y033316D01*
X073934Y033243D01*
X073864Y033173D01*
X073790Y033106D01*
X081427Y033107D02*
X081427Y032575D01*
X083790Y032575D01*
X083790Y033107D01*
X081427Y033106D02*
X081353Y033173D01*
X081283Y033243D01*
X081216Y033316D01*
X081152Y033392D01*
X081092Y033471D01*
X081036Y033553D01*
X080984Y033638D01*
X080936Y033725D01*
X080893Y033814D01*
X080853Y033906D01*
X080818Y033999D01*
X080788Y034093D01*
X080762Y034189D01*
X080741Y034286D01*
X080724Y034384D01*
X080713Y034483D01*
X080705Y034582D01*
X080703Y034681D01*
X080705Y034780D01*
X080713Y034879D01*
X080724Y034978D01*
X080741Y035076D01*
X080762Y035173D01*
X080788Y035269D01*
X080818Y035363D01*
X080853Y035456D01*
X080893Y035548D01*
X080936Y035637D01*
X080984Y035724D01*
X081036Y035809D01*
X081092Y035891D01*
X081152Y035970D01*
X081216Y036046D01*
X081283Y036119D01*
X081353Y036189D01*
X081427Y036256D01*
X081427Y036788D01*
X083790Y036788D01*
X083790Y036256D01*
X083864Y036189D01*
X083934Y036119D01*
X084001Y036046D01*
X084065Y035970D01*
X084125Y035891D01*
X084181Y035809D01*
X084233Y035724D01*
X084281Y035637D01*
X084324Y035548D01*
X084364Y035456D01*
X084399Y035363D01*
X084429Y035269D01*
X084455Y035173D01*
X084476Y035076D01*
X084493Y034978D01*
X084504Y034879D01*
X084512Y034780D01*
X084514Y034681D01*
X084512Y034582D01*
X084504Y034483D01*
X084493Y034384D01*
X084476Y034286D01*
X084455Y034189D01*
X084429Y034093D01*
X084399Y033999D01*
X084364Y033906D01*
X084324Y033814D01*
X084281Y033725D01*
X084233Y033638D01*
X084181Y033553D01*
X084125Y033471D01*
X084065Y033392D01*
X084001Y033316D01*
X083934Y033243D01*
X083864Y033173D01*
X083790Y033106D01*
X121427Y033107D02*
X121427Y032575D01*
X123790Y032575D01*
X123790Y033107D01*
X121427Y033106D02*
X121353Y033173D01*
X121283Y033243D01*
X121216Y033316D01*
X121152Y033392D01*
X121092Y033471D01*
X121036Y033553D01*
X120984Y033638D01*
X120936Y033725D01*
X120893Y033814D01*
X120853Y033906D01*
X120818Y033999D01*
X120788Y034093D01*
X120762Y034189D01*
X120741Y034286D01*
X120724Y034384D01*
X120713Y034483D01*
X120705Y034582D01*
X120703Y034681D01*
X120705Y034780D01*
X120713Y034879D01*
X120724Y034978D01*
X120741Y035076D01*
X120762Y035173D01*
X120788Y035269D01*
X120818Y035363D01*
X120853Y035456D01*
X120893Y035548D01*
X120936Y035637D01*
X120984Y035724D01*
X121036Y035809D01*
X121092Y035891D01*
X121152Y035970D01*
X121216Y036046D01*
X121283Y036119D01*
X121353Y036189D01*
X121427Y036256D01*
X121427Y036788D01*
X123790Y036788D01*
X123790Y036256D01*
X123864Y036189D01*
X123934Y036119D01*
X124001Y036046D01*
X124065Y035970D01*
X124125Y035891D01*
X124181Y035809D01*
X124233Y035724D01*
X124281Y035637D01*
X124324Y035548D01*
X124364Y035456D01*
X124399Y035363D01*
X124429Y035269D01*
X124455Y035173D01*
X124476Y035076D01*
X124493Y034978D01*
X124504Y034879D01*
X124512Y034780D01*
X124514Y034681D01*
X124512Y034582D01*
X124504Y034483D01*
X124493Y034384D01*
X124476Y034286D01*
X124455Y034189D01*
X124429Y034093D01*
X124399Y033999D01*
X124364Y033906D01*
X124324Y033814D01*
X124281Y033725D01*
X124233Y033638D01*
X124181Y033553D01*
X124125Y033471D01*
X124065Y033392D01*
X124001Y033316D01*
X123934Y033243D01*
X123864Y033173D01*
X123790Y033106D01*
X123790Y029288D02*
X121427Y029288D01*
X121427Y028756D01*
X123790Y028756D02*
X123790Y029288D01*
X121427Y028756D02*
X121353Y028689D01*
X121283Y028619D01*
X121216Y028546D01*
X121152Y028470D01*
X121092Y028391D01*
X121036Y028309D01*
X120984Y028224D01*
X120936Y028137D01*
X120893Y028048D01*
X120853Y027956D01*
X120818Y027863D01*
X120788Y027769D01*
X120762Y027673D01*
X120741Y027576D01*
X120724Y027478D01*
X120713Y027379D01*
X120705Y027280D01*
X120703Y027181D01*
X120705Y027082D01*
X120713Y026983D01*
X120724Y026884D01*
X120741Y026786D01*
X120762Y026689D01*
X120788Y026593D01*
X120818Y026499D01*
X120853Y026406D01*
X120893Y026314D01*
X120936Y026225D01*
X120984Y026138D01*
X121036Y026053D01*
X121092Y025971D01*
X121152Y025892D01*
X121216Y025816D01*
X121283Y025743D01*
X121353Y025673D01*
X121427Y025606D01*
X121427Y025607D02*
X121427Y025075D01*
X123790Y025075D01*
X123790Y025607D01*
X123790Y025606D02*
X123864Y025673D01*
X123934Y025743D01*
X124001Y025816D01*
X124065Y025892D01*
X124125Y025971D01*
X124181Y026053D01*
X124233Y026138D01*
X124281Y026225D01*
X124324Y026314D01*
X124364Y026406D01*
X124399Y026499D01*
X124429Y026593D01*
X124455Y026689D01*
X124476Y026786D01*
X124493Y026884D01*
X124504Y026983D01*
X124512Y027082D01*
X124514Y027181D01*
X124512Y027280D01*
X124504Y027379D01*
X124493Y027478D01*
X124476Y027576D01*
X124455Y027673D01*
X124429Y027769D01*
X124399Y027863D01*
X124364Y027956D01*
X124324Y028048D01*
X124281Y028137D01*
X124233Y028224D01*
X124181Y028309D01*
X124125Y028391D01*
X124065Y028470D01*
X124001Y028546D01*
X123934Y028619D01*
X123864Y028689D01*
X123790Y028756D01*
X141427Y028756D02*
X141427Y029288D01*
X143790Y029288D01*
X143790Y028756D01*
X141427Y028756D02*
X141353Y028689D01*
X141283Y028619D01*
X141216Y028546D01*
X141152Y028470D01*
X141092Y028391D01*
X141036Y028309D01*
X140984Y028224D01*
X140936Y028137D01*
X140893Y028048D01*
X140853Y027956D01*
X140818Y027863D01*
X140788Y027769D01*
X140762Y027673D01*
X140741Y027576D01*
X140724Y027478D01*
X140713Y027379D01*
X140705Y027280D01*
X140703Y027181D01*
X140705Y027082D01*
X140713Y026983D01*
X140724Y026884D01*
X140741Y026786D01*
X140762Y026689D01*
X140788Y026593D01*
X140818Y026499D01*
X140853Y026406D01*
X140893Y026314D01*
X140936Y026225D01*
X140984Y026138D01*
X141036Y026053D01*
X141092Y025971D01*
X141152Y025892D01*
X141216Y025816D01*
X141283Y025743D01*
X141353Y025673D01*
X141427Y025606D01*
X141427Y025607D02*
X141427Y025075D01*
X143790Y025075D01*
X143790Y025607D01*
X143790Y025606D02*
X143864Y025673D01*
X143934Y025743D01*
X144001Y025816D01*
X144065Y025892D01*
X144125Y025971D01*
X144181Y026053D01*
X144233Y026138D01*
X144281Y026225D01*
X144324Y026314D01*
X144364Y026406D01*
X144399Y026499D01*
X144429Y026593D01*
X144455Y026689D01*
X144476Y026786D01*
X144493Y026884D01*
X144504Y026983D01*
X144512Y027082D01*
X144514Y027181D01*
X144512Y027280D01*
X144504Y027379D01*
X144493Y027478D01*
X144476Y027576D01*
X144455Y027673D01*
X144429Y027769D01*
X144399Y027863D01*
X144364Y027956D01*
X144324Y028048D01*
X144281Y028137D01*
X144233Y028224D01*
X144181Y028309D01*
X144125Y028391D01*
X144065Y028470D01*
X144001Y028546D01*
X143934Y028619D01*
X143864Y028689D01*
X143790Y028756D01*
X151427Y028756D02*
X151427Y029288D01*
X153790Y029288D01*
X153790Y028756D01*
X151427Y028756D02*
X151353Y028689D01*
X151283Y028619D01*
X151216Y028546D01*
X151152Y028470D01*
X151092Y028391D01*
X151036Y028309D01*
X150984Y028224D01*
X150936Y028137D01*
X150893Y028048D01*
X150853Y027956D01*
X150818Y027863D01*
X150788Y027769D01*
X150762Y027673D01*
X150741Y027576D01*
X150724Y027478D01*
X150713Y027379D01*
X150705Y027280D01*
X150703Y027181D01*
X150705Y027082D01*
X150713Y026983D01*
X150724Y026884D01*
X150741Y026786D01*
X150762Y026689D01*
X150788Y026593D01*
X150818Y026499D01*
X150853Y026406D01*
X150893Y026314D01*
X150936Y026225D01*
X150984Y026138D01*
X151036Y026053D01*
X151092Y025971D01*
X151152Y025892D01*
X151216Y025816D01*
X151283Y025743D01*
X151353Y025673D01*
X151427Y025606D01*
X151427Y025607D02*
X151427Y025075D01*
X153790Y025075D01*
X153790Y025607D01*
X153790Y025606D02*
X153864Y025673D01*
X153934Y025743D01*
X154001Y025816D01*
X154065Y025892D01*
X154125Y025971D01*
X154181Y026053D01*
X154233Y026138D01*
X154281Y026225D01*
X154324Y026314D01*
X154364Y026406D01*
X154399Y026499D01*
X154429Y026593D01*
X154455Y026689D01*
X154476Y026786D01*
X154493Y026884D01*
X154504Y026983D01*
X154512Y027082D01*
X154514Y027181D01*
X154512Y027280D01*
X154504Y027379D01*
X154493Y027478D01*
X154476Y027576D01*
X154455Y027673D01*
X154429Y027769D01*
X154399Y027863D01*
X154364Y027956D01*
X154324Y028048D01*
X154281Y028137D01*
X154233Y028224D01*
X154181Y028309D01*
X154125Y028391D01*
X154065Y028470D01*
X154001Y028546D01*
X153934Y028619D01*
X153864Y028689D01*
X153790Y028756D01*
X161427Y028756D02*
X161427Y029288D01*
X163790Y029288D01*
X163790Y028756D01*
X161427Y028756D02*
X161353Y028689D01*
X161283Y028619D01*
X161216Y028546D01*
X161152Y028470D01*
X161092Y028391D01*
X161036Y028309D01*
X160984Y028224D01*
X160936Y028137D01*
X160893Y028048D01*
X160853Y027956D01*
X160818Y027863D01*
X160788Y027769D01*
X160762Y027673D01*
X160741Y027576D01*
X160724Y027478D01*
X160713Y027379D01*
X160705Y027280D01*
X160703Y027181D01*
X160705Y027082D01*
X160713Y026983D01*
X160724Y026884D01*
X160741Y026786D01*
X160762Y026689D01*
X160788Y026593D01*
X160818Y026499D01*
X160853Y026406D01*
X160893Y026314D01*
X160936Y026225D01*
X160984Y026138D01*
X161036Y026053D01*
X161092Y025971D01*
X161152Y025892D01*
X161216Y025816D01*
X161283Y025743D01*
X161353Y025673D01*
X161427Y025606D01*
X161427Y025607D02*
X161427Y025075D01*
X163790Y025075D01*
X163790Y025607D01*
X163790Y025606D02*
X163864Y025673D01*
X163934Y025743D01*
X164001Y025816D01*
X164065Y025892D01*
X164125Y025971D01*
X164181Y026053D01*
X164233Y026138D01*
X164281Y026225D01*
X164324Y026314D01*
X164364Y026406D01*
X164399Y026499D01*
X164429Y026593D01*
X164455Y026689D01*
X164476Y026786D01*
X164493Y026884D01*
X164504Y026983D01*
X164512Y027082D01*
X164514Y027181D01*
X164512Y027280D01*
X164504Y027379D01*
X164493Y027478D01*
X164476Y027576D01*
X164455Y027673D01*
X164429Y027769D01*
X164399Y027863D01*
X164364Y027956D01*
X164324Y028048D01*
X164281Y028137D01*
X164233Y028224D01*
X164181Y028309D01*
X164125Y028391D01*
X164065Y028470D01*
X164001Y028546D01*
X163934Y028619D01*
X163864Y028689D01*
X163790Y028756D01*
X163790Y032575D02*
X161427Y032575D01*
X161427Y033107D01*
X163790Y033107D02*
X163790Y032575D01*
X161427Y033106D02*
X161353Y033173D01*
X161283Y033243D01*
X161216Y033316D01*
X161152Y033392D01*
X161092Y033471D01*
X161036Y033553D01*
X160984Y033638D01*
X160936Y033725D01*
X160893Y033814D01*
X160853Y033906D01*
X160818Y033999D01*
X160788Y034093D01*
X160762Y034189D01*
X160741Y034286D01*
X160724Y034384D01*
X160713Y034483D01*
X160705Y034582D01*
X160703Y034681D01*
X160705Y034780D01*
X160713Y034879D01*
X160724Y034978D01*
X160741Y035076D01*
X160762Y035173D01*
X160788Y035269D01*
X160818Y035363D01*
X160853Y035456D01*
X160893Y035548D01*
X160936Y035637D01*
X160984Y035724D01*
X161036Y035809D01*
X161092Y035891D01*
X161152Y035970D01*
X161216Y036046D01*
X161283Y036119D01*
X161353Y036189D01*
X161427Y036256D01*
X161427Y036788D01*
X163790Y036788D01*
X163790Y036256D01*
X163864Y036189D01*
X163934Y036119D01*
X164001Y036046D01*
X164065Y035970D01*
X164125Y035891D01*
X164181Y035809D01*
X164233Y035724D01*
X164281Y035637D01*
X164324Y035548D01*
X164364Y035456D01*
X164399Y035363D01*
X164429Y035269D01*
X164455Y035173D01*
X164476Y035076D01*
X164493Y034978D01*
X164504Y034879D01*
X164512Y034780D01*
X164514Y034681D01*
X164512Y034582D01*
X164504Y034483D01*
X164493Y034384D01*
X164476Y034286D01*
X164455Y034189D01*
X164429Y034093D01*
X164399Y033999D01*
X164364Y033906D01*
X164324Y033814D01*
X164281Y033725D01*
X164233Y033638D01*
X164181Y033553D01*
X164125Y033471D01*
X164065Y033392D01*
X164001Y033316D01*
X163934Y033243D01*
X163864Y033173D01*
X163790Y033106D01*
X153790Y033107D02*
X153790Y032575D01*
X151427Y032575D01*
X151427Y033107D01*
X153790Y033106D02*
X153864Y033173D01*
X153934Y033243D01*
X154001Y033316D01*
X154065Y033392D01*
X154125Y033471D01*
X154181Y033553D01*
X154233Y033638D01*
X154281Y033725D01*
X154324Y033814D01*
X154364Y033906D01*
X154399Y033999D01*
X154429Y034093D01*
X154455Y034189D01*
X154476Y034286D01*
X154493Y034384D01*
X154504Y034483D01*
X154512Y034582D01*
X154514Y034681D01*
X154512Y034780D01*
X154504Y034879D01*
X154493Y034978D01*
X154476Y035076D01*
X154455Y035173D01*
X154429Y035269D01*
X154399Y035363D01*
X154364Y035456D01*
X154324Y035548D01*
X154281Y035637D01*
X154233Y035724D01*
X154181Y035809D01*
X154125Y035891D01*
X154065Y035970D01*
X154001Y036046D01*
X153934Y036119D01*
X153864Y036189D01*
X153790Y036256D01*
X153790Y036788D01*
X151427Y036788D01*
X151427Y036256D01*
X151353Y036189D01*
X151283Y036119D01*
X151216Y036046D01*
X151152Y035970D01*
X151092Y035891D01*
X151036Y035809D01*
X150984Y035724D01*
X150936Y035637D01*
X150893Y035548D01*
X150853Y035456D01*
X150818Y035363D01*
X150788Y035269D01*
X150762Y035173D01*
X150741Y035076D01*
X150724Y034978D01*
X150713Y034879D01*
X150705Y034780D01*
X150703Y034681D01*
X150705Y034582D01*
X150713Y034483D01*
X150724Y034384D01*
X150741Y034286D01*
X150762Y034189D01*
X150788Y034093D01*
X150818Y033999D01*
X150853Y033906D01*
X150893Y033814D01*
X150936Y033725D01*
X150984Y033638D01*
X151036Y033553D01*
X151092Y033471D01*
X151152Y033392D01*
X151216Y033316D01*
X151283Y033243D01*
X151353Y033173D01*
X151427Y033106D01*
X143790Y033107D02*
X143790Y032575D01*
X141427Y032575D01*
X141427Y033107D01*
X143790Y033106D02*
X143864Y033173D01*
X143934Y033243D01*
X144001Y033316D01*
X144065Y033392D01*
X144125Y033471D01*
X144181Y033553D01*
X144233Y033638D01*
X144281Y033725D01*
X144324Y033814D01*
X144364Y033906D01*
X144399Y033999D01*
X144429Y034093D01*
X144455Y034189D01*
X144476Y034286D01*
X144493Y034384D01*
X144504Y034483D01*
X144512Y034582D01*
X144514Y034681D01*
X144512Y034780D01*
X144504Y034879D01*
X144493Y034978D01*
X144476Y035076D01*
X144455Y035173D01*
X144429Y035269D01*
X144399Y035363D01*
X144364Y035456D01*
X144324Y035548D01*
X144281Y035637D01*
X144233Y035724D01*
X144181Y035809D01*
X144125Y035891D01*
X144065Y035970D01*
X144001Y036046D01*
X143934Y036119D01*
X143864Y036189D01*
X143790Y036256D01*
X143790Y036788D01*
X141427Y036788D01*
X141427Y036256D01*
X141353Y036189D01*
X141283Y036119D01*
X141216Y036046D01*
X141152Y035970D01*
X141092Y035891D01*
X141036Y035809D01*
X140984Y035724D01*
X140936Y035637D01*
X140893Y035548D01*
X140853Y035456D01*
X140818Y035363D01*
X140788Y035269D01*
X140762Y035173D01*
X140741Y035076D01*
X140724Y034978D01*
X140713Y034879D01*
X140705Y034780D01*
X140703Y034681D01*
X140705Y034582D01*
X140713Y034483D01*
X140724Y034384D01*
X140741Y034286D01*
X140762Y034189D01*
X140788Y034093D01*
X140818Y033999D01*
X140853Y033906D01*
X140893Y033814D01*
X140936Y033725D01*
X140984Y033638D01*
X141036Y033553D01*
X141092Y033471D01*
X141152Y033392D01*
X141216Y033316D01*
X141283Y033243D01*
X141353Y033173D01*
X141427Y033106D01*
X141427Y021788D02*
X141427Y021256D01*
X141427Y021788D02*
X143790Y021788D01*
X143790Y021256D01*
X141427Y021256D02*
X141353Y021189D01*
X141283Y021119D01*
X141216Y021046D01*
X141152Y020970D01*
X141092Y020891D01*
X141036Y020809D01*
X140984Y020724D01*
X140936Y020637D01*
X140893Y020548D01*
X140853Y020456D01*
X140818Y020363D01*
X140788Y020269D01*
X140762Y020173D01*
X140741Y020076D01*
X140724Y019978D01*
X140713Y019879D01*
X140705Y019780D01*
X140703Y019681D01*
X140705Y019582D01*
X140713Y019483D01*
X140724Y019384D01*
X140741Y019286D01*
X140762Y019189D01*
X140788Y019093D01*
X140818Y018999D01*
X140853Y018906D01*
X140893Y018814D01*
X140936Y018725D01*
X140984Y018638D01*
X141036Y018553D01*
X141092Y018471D01*
X141152Y018392D01*
X141216Y018316D01*
X141283Y018243D01*
X141353Y018173D01*
X141427Y018106D01*
X141427Y018107D02*
X141427Y017575D01*
X143790Y017575D01*
X143790Y018107D01*
X143790Y018106D02*
X143864Y018173D01*
X143934Y018243D01*
X144001Y018316D01*
X144065Y018392D01*
X144125Y018471D01*
X144181Y018553D01*
X144233Y018638D01*
X144281Y018725D01*
X144324Y018814D01*
X144364Y018906D01*
X144399Y018999D01*
X144429Y019093D01*
X144455Y019189D01*
X144476Y019286D01*
X144493Y019384D01*
X144504Y019483D01*
X144512Y019582D01*
X144514Y019681D01*
X144512Y019780D01*
X144504Y019879D01*
X144493Y019978D01*
X144476Y020076D01*
X144455Y020173D01*
X144429Y020269D01*
X144399Y020363D01*
X144364Y020456D01*
X144324Y020548D01*
X144281Y020637D01*
X144233Y020724D01*
X144181Y020809D01*
X144125Y020891D01*
X144065Y020970D01*
X144001Y021046D01*
X143934Y021119D01*
X143864Y021189D01*
X143790Y021256D01*
X151427Y021256D02*
X151427Y021788D01*
X153790Y021788D01*
X153790Y021256D01*
X151427Y021256D02*
X151353Y021189D01*
X151283Y021119D01*
X151216Y021046D01*
X151152Y020970D01*
X151092Y020891D01*
X151036Y020809D01*
X150984Y020724D01*
X150936Y020637D01*
X150893Y020548D01*
X150853Y020456D01*
X150818Y020363D01*
X150788Y020269D01*
X150762Y020173D01*
X150741Y020076D01*
X150724Y019978D01*
X150713Y019879D01*
X150705Y019780D01*
X150703Y019681D01*
X150705Y019582D01*
X150713Y019483D01*
X150724Y019384D01*
X150741Y019286D01*
X150762Y019189D01*
X150788Y019093D01*
X150818Y018999D01*
X150853Y018906D01*
X150893Y018814D01*
X150936Y018725D01*
X150984Y018638D01*
X151036Y018553D01*
X151092Y018471D01*
X151152Y018392D01*
X151216Y018316D01*
X151283Y018243D01*
X151353Y018173D01*
X151427Y018106D01*
X151427Y018107D02*
X151427Y017575D01*
X153790Y017575D01*
X153790Y018107D01*
X153790Y018106D02*
X153864Y018173D01*
X153934Y018243D01*
X154001Y018316D01*
X154065Y018392D01*
X154125Y018471D01*
X154181Y018553D01*
X154233Y018638D01*
X154281Y018725D01*
X154324Y018814D01*
X154364Y018906D01*
X154399Y018999D01*
X154429Y019093D01*
X154455Y019189D01*
X154476Y019286D01*
X154493Y019384D01*
X154504Y019483D01*
X154512Y019582D01*
X154514Y019681D01*
X154512Y019780D01*
X154504Y019879D01*
X154493Y019978D01*
X154476Y020076D01*
X154455Y020173D01*
X154429Y020269D01*
X154399Y020363D01*
X154364Y020456D01*
X154324Y020548D01*
X154281Y020637D01*
X154233Y020724D01*
X154181Y020809D01*
X154125Y020891D01*
X154065Y020970D01*
X154001Y021046D01*
X153934Y021119D01*
X153864Y021189D01*
X153790Y021256D01*
X161427Y021256D02*
X161427Y021788D01*
X163790Y021788D01*
X163790Y021256D01*
X161427Y021256D02*
X161353Y021189D01*
X161283Y021119D01*
X161216Y021046D01*
X161152Y020970D01*
X161092Y020891D01*
X161036Y020809D01*
X160984Y020724D01*
X160936Y020637D01*
X160893Y020548D01*
X160853Y020456D01*
X160818Y020363D01*
X160788Y020269D01*
X160762Y020173D01*
X160741Y020076D01*
X160724Y019978D01*
X160713Y019879D01*
X160705Y019780D01*
X160703Y019681D01*
X160705Y019582D01*
X160713Y019483D01*
X160724Y019384D01*
X160741Y019286D01*
X160762Y019189D01*
X160788Y019093D01*
X160818Y018999D01*
X160853Y018906D01*
X160893Y018814D01*
X160936Y018725D01*
X160984Y018638D01*
X161036Y018553D01*
X161092Y018471D01*
X161152Y018392D01*
X161216Y018316D01*
X161283Y018243D01*
X161353Y018173D01*
X161427Y018106D01*
X161427Y018107D02*
X161427Y017575D01*
X163790Y017575D01*
X163790Y018107D01*
X163790Y018106D02*
X163864Y018173D01*
X163934Y018243D01*
X164001Y018316D01*
X164065Y018392D01*
X164125Y018471D01*
X164181Y018553D01*
X164233Y018638D01*
X164281Y018725D01*
X164324Y018814D01*
X164364Y018906D01*
X164399Y018999D01*
X164429Y019093D01*
X164455Y019189D01*
X164476Y019286D01*
X164493Y019384D01*
X164504Y019483D01*
X164512Y019582D01*
X164514Y019681D01*
X164512Y019780D01*
X164504Y019879D01*
X164493Y019978D01*
X164476Y020076D01*
X164455Y020173D01*
X164429Y020269D01*
X164399Y020363D01*
X164364Y020456D01*
X164324Y020548D01*
X164281Y020637D01*
X164233Y020724D01*
X164181Y020809D01*
X164125Y020891D01*
X164065Y020970D01*
X164001Y021046D01*
X163934Y021119D01*
X163864Y021189D01*
X163790Y021256D01*
X163790Y014288D02*
X161427Y014288D01*
X161427Y013756D01*
X163790Y013756D02*
X163790Y014288D01*
X161427Y013756D02*
X161353Y013689D01*
X161283Y013619D01*
X161216Y013546D01*
X161152Y013470D01*
X161092Y013391D01*
X161036Y013309D01*
X160984Y013224D01*
X160936Y013137D01*
X160893Y013048D01*
X160853Y012956D01*
X160818Y012863D01*
X160788Y012769D01*
X160762Y012673D01*
X160741Y012576D01*
X160724Y012478D01*
X160713Y012379D01*
X160705Y012280D01*
X160703Y012181D01*
X160705Y012082D01*
X160713Y011983D01*
X160724Y011884D01*
X160741Y011786D01*
X160762Y011689D01*
X160788Y011593D01*
X160818Y011499D01*
X160853Y011406D01*
X160893Y011314D01*
X160936Y011225D01*
X160984Y011138D01*
X161036Y011053D01*
X161092Y010971D01*
X161152Y010892D01*
X161216Y010816D01*
X161283Y010743D01*
X161353Y010673D01*
X161427Y010606D01*
X161427Y010607D02*
X161427Y010075D01*
X163790Y010075D01*
X163790Y010607D01*
X163790Y010606D02*
X163864Y010673D01*
X163934Y010743D01*
X164001Y010816D01*
X164065Y010892D01*
X164125Y010971D01*
X164181Y011053D01*
X164233Y011138D01*
X164281Y011225D01*
X164324Y011314D01*
X164364Y011406D01*
X164399Y011499D01*
X164429Y011593D01*
X164455Y011689D01*
X164476Y011786D01*
X164493Y011884D01*
X164504Y011983D01*
X164512Y012082D01*
X164514Y012181D01*
X164512Y012280D01*
X164504Y012379D01*
X164493Y012478D01*
X164476Y012576D01*
X164455Y012673D01*
X164429Y012769D01*
X164399Y012863D01*
X164364Y012956D01*
X164324Y013048D01*
X164281Y013137D01*
X164233Y013224D01*
X164181Y013309D01*
X164125Y013391D01*
X164065Y013470D01*
X164001Y013546D01*
X163934Y013619D01*
X163864Y013689D01*
X163790Y013756D01*
X153790Y013756D02*
X153790Y014288D01*
X151427Y014288D01*
X151427Y013756D01*
X153790Y013756D02*
X153864Y013689D01*
X153934Y013619D01*
X154001Y013546D01*
X154065Y013470D01*
X154125Y013391D01*
X154181Y013309D01*
X154233Y013224D01*
X154281Y013137D01*
X154324Y013048D01*
X154364Y012956D01*
X154399Y012863D01*
X154429Y012769D01*
X154455Y012673D01*
X154476Y012576D01*
X154493Y012478D01*
X154504Y012379D01*
X154512Y012280D01*
X154514Y012181D01*
X154512Y012082D01*
X154504Y011983D01*
X154493Y011884D01*
X154476Y011786D01*
X154455Y011689D01*
X154429Y011593D01*
X154399Y011499D01*
X154364Y011406D01*
X154324Y011314D01*
X154281Y011225D01*
X154233Y011138D01*
X154181Y011053D01*
X154125Y010971D01*
X154065Y010892D01*
X154001Y010816D01*
X153934Y010743D01*
X153864Y010673D01*
X153790Y010606D01*
X153790Y010607D02*
X153790Y010075D01*
X151427Y010075D01*
X151427Y010607D01*
X151427Y010606D02*
X151353Y010673D01*
X151283Y010743D01*
X151216Y010816D01*
X151152Y010892D01*
X151092Y010971D01*
X151036Y011053D01*
X150984Y011138D01*
X150936Y011225D01*
X150893Y011314D01*
X150853Y011406D01*
X150818Y011499D01*
X150788Y011593D01*
X150762Y011689D01*
X150741Y011786D01*
X150724Y011884D01*
X150713Y011983D01*
X150705Y012082D01*
X150703Y012181D01*
X150705Y012280D01*
X150713Y012379D01*
X150724Y012478D01*
X150741Y012576D01*
X150762Y012673D01*
X150788Y012769D01*
X150818Y012863D01*
X150853Y012956D01*
X150893Y013048D01*
X150936Y013137D01*
X150984Y013224D01*
X151036Y013309D01*
X151092Y013391D01*
X151152Y013470D01*
X151216Y013546D01*
X151283Y013619D01*
X151353Y013689D01*
X151427Y013756D01*
X143790Y013756D02*
X143790Y014288D01*
X141427Y014288D01*
X141427Y013756D01*
X143790Y013756D02*
X143864Y013689D01*
X143934Y013619D01*
X144001Y013546D01*
X144065Y013470D01*
X144125Y013391D01*
X144181Y013309D01*
X144233Y013224D01*
X144281Y013137D01*
X144324Y013048D01*
X144364Y012956D01*
X144399Y012863D01*
X144429Y012769D01*
X144455Y012673D01*
X144476Y012576D01*
X144493Y012478D01*
X144504Y012379D01*
X144512Y012280D01*
X144514Y012181D01*
X144512Y012082D01*
X144504Y011983D01*
X144493Y011884D01*
X144476Y011786D01*
X144455Y011689D01*
X144429Y011593D01*
X144399Y011499D01*
X144364Y011406D01*
X144324Y011314D01*
X144281Y011225D01*
X144233Y011138D01*
X144181Y011053D01*
X144125Y010971D01*
X144065Y010892D01*
X144001Y010816D01*
X143934Y010743D01*
X143864Y010673D01*
X143790Y010606D01*
X143790Y010607D02*
X143790Y010075D01*
X141427Y010075D01*
X141427Y010607D01*
X141427Y010606D02*
X141353Y010673D01*
X141283Y010743D01*
X141216Y010816D01*
X141152Y010892D01*
X141092Y010971D01*
X141036Y011053D01*
X140984Y011138D01*
X140936Y011225D01*
X140893Y011314D01*
X140853Y011406D01*
X140818Y011499D01*
X140788Y011593D01*
X140762Y011689D01*
X140741Y011786D01*
X140724Y011884D01*
X140713Y011983D01*
X140705Y012082D01*
X140703Y012181D01*
X140705Y012280D01*
X140713Y012379D01*
X140724Y012478D01*
X140741Y012576D01*
X140762Y012673D01*
X140788Y012769D01*
X140818Y012863D01*
X140853Y012956D01*
X140893Y013048D01*
X140936Y013137D01*
X140984Y013224D01*
X141036Y013309D01*
X141092Y013391D01*
X141152Y013470D01*
X141216Y013546D01*
X141283Y013619D01*
X141353Y013689D01*
X141427Y013756D01*
X123790Y013756D02*
X123790Y014288D01*
X121427Y014288D01*
X121427Y013756D01*
X123790Y013756D02*
X123864Y013689D01*
X123934Y013619D01*
X124001Y013546D01*
X124065Y013470D01*
X124125Y013391D01*
X124181Y013309D01*
X124233Y013224D01*
X124281Y013137D01*
X124324Y013048D01*
X124364Y012956D01*
X124399Y012863D01*
X124429Y012769D01*
X124455Y012673D01*
X124476Y012576D01*
X124493Y012478D01*
X124504Y012379D01*
X124512Y012280D01*
X124514Y012181D01*
X124512Y012082D01*
X124504Y011983D01*
X124493Y011884D01*
X124476Y011786D01*
X124455Y011689D01*
X124429Y011593D01*
X124399Y011499D01*
X124364Y011406D01*
X124324Y011314D01*
X124281Y011225D01*
X124233Y011138D01*
X124181Y011053D01*
X124125Y010971D01*
X124065Y010892D01*
X124001Y010816D01*
X123934Y010743D01*
X123864Y010673D01*
X123790Y010606D01*
X123790Y010607D02*
X123790Y010075D01*
X121427Y010075D01*
X121427Y010607D01*
X121427Y010606D02*
X121353Y010673D01*
X121283Y010743D01*
X121216Y010816D01*
X121152Y010892D01*
X121092Y010971D01*
X121036Y011053D01*
X120984Y011138D01*
X120936Y011225D01*
X120893Y011314D01*
X120853Y011406D01*
X120818Y011499D01*
X120788Y011593D01*
X120762Y011689D01*
X120741Y011786D01*
X120724Y011884D01*
X120713Y011983D01*
X120705Y012082D01*
X120703Y012181D01*
X120705Y012280D01*
X120713Y012379D01*
X120724Y012478D01*
X120741Y012576D01*
X120762Y012673D01*
X120788Y012769D01*
X120818Y012863D01*
X120853Y012956D01*
X120893Y013048D01*
X120936Y013137D01*
X120984Y013224D01*
X121036Y013309D01*
X121092Y013391D01*
X121152Y013470D01*
X121216Y013546D01*
X121283Y013619D01*
X121353Y013689D01*
X121427Y013756D01*
X121427Y017575D02*
X121427Y018107D01*
X121427Y017575D02*
X123790Y017575D01*
X123790Y018107D01*
X121427Y018106D02*
X121353Y018173D01*
X121283Y018243D01*
X121216Y018316D01*
X121152Y018392D01*
X121092Y018471D01*
X121036Y018553D01*
X120984Y018638D01*
X120936Y018725D01*
X120893Y018814D01*
X120853Y018906D01*
X120818Y018999D01*
X120788Y019093D01*
X120762Y019189D01*
X120741Y019286D01*
X120724Y019384D01*
X120713Y019483D01*
X120705Y019582D01*
X120703Y019681D01*
X120705Y019780D01*
X120713Y019879D01*
X120724Y019978D01*
X120741Y020076D01*
X120762Y020173D01*
X120788Y020269D01*
X120818Y020363D01*
X120853Y020456D01*
X120893Y020548D01*
X120936Y020637D01*
X120984Y020724D01*
X121036Y020809D01*
X121092Y020891D01*
X121152Y020970D01*
X121216Y021046D01*
X121283Y021119D01*
X121353Y021189D01*
X121427Y021256D01*
X121427Y021788D01*
X123790Y021788D01*
X123790Y021256D01*
X123864Y021189D01*
X123934Y021119D01*
X124001Y021046D01*
X124065Y020970D01*
X124125Y020891D01*
X124181Y020809D01*
X124233Y020724D01*
X124281Y020637D01*
X124324Y020548D01*
X124364Y020456D01*
X124399Y020363D01*
X124429Y020269D01*
X124455Y020173D01*
X124476Y020076D01*
X124493Y019978D01*
X124504Y019879D01*
X124512Y019780D01*
X124514Y019681D01*
X124512Y019582D01*
X124504Y019483D01*
X124493Y019384D01*
X124476Y019286D01*
X124455Y019189D01*
X124429Y019093D01*
X124399Y018999D01*
X124364Y018906D01*
X124324Y018814D01*
X124281Y018725D01*
X124233Y018638D01*
X124181Y018553D01*
X124125Y018471D01*
X124065Y018392D01*
X124001Y018316D01*
X123934Y018243D01*
X123864Y018173D01*
X123790Y018106D01*
X123790Y006788D02*
X121427Y006788D01*
X121427Y006256D01*
X123790Y006256D02*
X123790Y006788D01*
X121427Y006256D02*
X121353Y006189D01*
X121283Y006119D01*
X121216Y006046D01*
X121152Y005970D01*
X121092Y005891D01*
X121036Y005809D01*
X120984Y005724D01*
X120936Y005637D01*
X120893Y005548D01*
X120853Y005456D01*
X120818Y005363D01*
X120788Y005269D01*
X120762Y005173D01*
X120741Y005076D01*
X120724Y004978D01*
X120713Y004879D01*
X120705Y004780D01*
X120703Y004681D01*
X120705Y004582D01*
X120713Y004483D01*
X120724Y004384D01*
X120741Y004286D01*
X120762Y004189D01*
X120788Y004093D01*
X120818Y003999D01*
X120853Y003906D01*
X120893Y003814D01*
X120936Y003725D01*
X120984Y003638D01*
X121036Y003553D01*
X121092Y003471D01*
X121152Y003392D01*
X121216Y003316D01*
X121283Y003243D01*
X121353Y003173D01*
X121427Y003106D01*
X121427Y003107D02*
X121427Y002575D01*
X123790Y002575D01*
X123790Y003107D01*
X123790Y003106D02*
X123864Y003173D01*
X123934Y003243D01*
X124001Y003316D01*
X124065Y003392D01*
X124125Y003471D01*
X124181Y003553D01*
X124233Y003638D01*
X124281Y003725D01*
X124324Y003814D01*
X124364Y003906D01*
X124399Y003999D01*
X124429Y004093D01*
X124455Y004189D01*
X124476Y004286D01*
X124493Y004384D01*
X124504Y004483D01*
X124512Y004582D01*
X124514Y004681D01*
X124512Y004780D01*
X124504Y004879D01*
X124493Y004978D01*
X124476Y005076D01*
X124455Y005173D01*
X124429Y005269D01*
X124399Y005363D01*
X124364Y005456D01*
X124324Y005548D01*
X124281Y005637D01*
X124233Y005724D01*
X124181Y005809D01*
X124125Y005891D01*
X124065Y005970D01*
X124001Y006046D01*
X123934Y006119D01*
X123864Y006189D01*
X123790Y006256D01*
X141427Y006256D02*
X141427Y006788D01*
X143790Y006788D01*
X143790Y006256D01*
X141427Y006256D02*
X141353Y006189D01*
X141283Y006119D01*
X141216Y006046D01*
X141152Y005970D01*
X141092Y005891D01*
X141036Y005809D01*
X140984Y005724D01*
X140936Y005637D01*
X140893Y005548D01*
X140853Y005456D01*
X140818Y005363D01*
X140788Y005269D01*
X140762Y005173D01*
X140741Y005076D01*
X140724Y004978D01*
X140713Y004879D01*
X140705Y004780D01*
X140703Y004681D01*
X140705Y004582D01*
X140713Y004483D01*
X140724Y004384D01*
X140741Y004286D01*
X140762Y004189D01*
X140788Y004093D01*
X140818Y003999D01*
X140853Y003906D01*
X140893Y003814D01*
X140936Y003725D01*
X140984Y003638D01*
X141036Y003553D01*
X141092Y003471D01*
X141152Y003392D01*
X141216Y003316D01*
X141283Y003243D01*
X141353Y003173D01*
X141427Y003106D01*
X141427Y003107D02*
X141427Y002575D01*
X143790Y002575D01*
X143790Y003107D01*
X143790Y003106D02*
X143864Y003173D01*
X143934Y003243D01*
X144001Y003316D01*
X144065Y003392D01*
X144125Y003471D01*
X144181Y003553D01*
X144233Y003638D01*
X144281Y003725D01*
X144324Y003814D01*
X144364Y003906D01*
X144399Y003999D01*
X144429Y004093D01*
X144455Y004189D01*
X144476Y004286D01*
X144493Y004384D01*
X144504Y004483D01*
X144512Y004582D01*
X144514Y004681D01*
X144512Y004780D01*
X144504Y004879D01*
X144493Y004978D01*
X144476Y005076D01*
X144455Y005173D01*
X144429Y005269D01*
X144399Y005363D01*
X144364Y005456D01*
X144324Y005548D01*
X144281Y005637D01*
X144233Y005724D01*
X144181Y005809D01*
X144125Y005891D01*
X144065Y005970D01*
X144001Y006046D01*
X143934Y006119D01*
X143864Y006189D01*
X143790Y006256D01*
X151427Y006256D02*
X151427Y006788D01*
X153790Y006788D01*
X153790Y006256D01*
X151427Y006256D02*
X151353Y006189D01*
X151283Y006119D01*
X151216Y006046D01*
X151152Y005970D01*
X151092Y005891D01*
X151036Y005809D01*
X150984Y005724D01*
X150936Y005637D01*
X150893Y005548D01*
X150853Y005456D01*
X150818Y005363D01*
X150788Y005269D01*
X150762Y005173D01*
X150741Y005076D01*
X150724Y004978D01*
X150713Y004879D01*
X150705Y004780D01*
X150703Y004681D01*
X150705Y004582D01*
X150713Y004483D01*
X150724Y004384D01*
X150741Y004286D01*
X150762Y004189D01*
X150788Y004093D01*
X150818Y003999D01*
X150853Y003906D01*
X150893Y003814D01*
X150936Y003725D01*
X150984Y003638D01*
X151036Y003553D01*
X151092Y003471D01*
X151152Y003392D01*
X151216Y003316D01*
X151283Y003243D01*
X151353Y003173D01*
X151427Y003106D01*
X151427Y003107D02*
X151427Y002575D01*
X153790Y002575D01*
X153790Y003107D01*
X153790Y003106D02*
X153864Y003173D01*
X153934Y003243D01*
X154001Y003316D01*
X154065Y003392D01*
X154125Y003471D01*
X154181Y003553D01*
X154233Y003638D01*
X154281Y003725D01*
X154324Y003814D01*
X154364Y003906D01*
X154399Y003999D01*
X154429Y004093D01*
X154455Y004189D01*
X154476Y004286D01*
X154493Y004384D01*
X154504Y004483D01*
X154512Y004582D01*
X154514Y004681D01*
X154512Y004780D01*
X154504Y004879D01*
X154493Y004978D01*
X154476Y005076D01*
X154455Y005173D01*
X154429Y005269D01*
X154399Y005363D01*
X154364Y005456D01*
X154324Y005548D01*
X154281Y005637D01*
X154233Y005724D01*
X154181Y005809D01*
X154125Y005891D01*
X154065Y005970D01*
X154001Y006046D01*
X153934Y006119D01*
X153864Y006189D01*
X153790Y006256D01*
X161427Y006256D02*
X161427Y006788D01*
X163790Y006788D01*
X163790Y006256D01*
X161427Y006256D02*
X161353Y006189D01*
X161283Y006119D01*
X161216Y006046D01*
X161152Y005970D01*
X161092Y005891D01*
X161036Y005809D01*
X160984Y005724D01*
X160936Y005637D01*
X160893Y005548D01*
X160853Y005456D01*
X160818Y005363D01*
X160788Y005269D01*
X160762Y005173D01*
X160741Y005076D01*
X160724Y004978D01*
X160713Y004879D01*
X160705Y004780D01*
X160703Y004681D01*
X160705Y004582D01*
X160713Y004483D01*
X160724Y004384D01*
X160741Y004286D01*
X160762Y004189D01*
X160788Y004093D01*
X160818Y003999D01*
X160853Y003906D01*
X160893Y003814D01*
X160936Y003725D01*
X160984Y003638D01*
X161036Y003553D01*
X161092Y003471D01*
X161152Y003392D01*
X161216Y003316D01*
X161283Y003243D01*
X161353Y003173D01*
X161427Y003106D01*
X161427Y003107D02*
X161427Y002575D01*
X163790Y002575D01*
X163790Y003107D01*
X163790Y003106D02*
X163864Y003173D01*
X163934Y003243D01*
X164001Y003316D01*
X164065Y003392D01*
X164125Y003471D01*
X164181Y003553D01*
X164233Y003638D01*
X164281Y003725D01*
X164324Y003814D01*
X164364Y003906D01*
X164399Y003999D01*
X164429Y004093D01*
X164455Y004189D01*
X164476Y004286D01*
X164493Y004384D01*
X164504Y004483D01*
X164512Y004582D01*
X164514Y004681D01*
X164512Y004780D01*
X164504Y004879D01*
X164493Y004978D01*
X164476Y005076D01*
X164455Y005173D01*
X164429Y005269D01*
X164399Y005363D01*
X164364Y005456D01*
X164324Y005548D01*
X164281Y005637D01*
X164233Y005724D01*
X164181Y005809D01*
X164125Y005891D01*
X164065Y005970D01*
X164001Y006046D01*
X163934Y006119D01*
X163864Y006189D01*
X163790Y006256D01*
D12*
X164680Y005138D02*
X164607Y005065D01*
X164607Y004918D01*
X164680Y004845D01*
X164974Y005138D01*
X164680Y005138D01*
X164680Y004845D02*
X164974Y004845D01*
X165047Y004918D01*
X165047Y005065D01*
X164974Y005138D01*
X164974Y004678D02*
X165047Y004605D01*
X165047Y004458D01*
X164974Y004384D01*
X165047Y004218D02*
X165047Y004071D01*
X165047Y004144D02*
X164680Y004144D01*
X164607Y004071D01*
X164607Y003997D01*
X164680Y003924D01*
X164607Y004384D02*
X164901Y004678D01*
X164974Y004678D01*
X164607Y004678D02*
X164607Y004384D01*
X162079Y004426D02*
X162079Y004132D01*
X162079Y004279D02*
X161639Y004279D01*
X161639Y003965D02*
X162079Y003965D01*
X161859Y003965D02*
X161859Y003672D01*
X161639Y003672D02*
X162079Y003672D01*
X162079Y003505D02*
X161639Y003505D01*
X161785Y003358D01*
X161639Y003211D01*
X162079Y003211D01*
X155047Y004071D02*
X155047Y004218D01*
X155047Y004144D02*
X154680Y004144D01*
X154607Y004071D01*
X154607Y003997D01*
X154680Y003924D01*
X154607Y004384D02*
X154607Y004678D01*
X154607Y004531D02*
X155047Y004531D01*
X154901Y004384D01*
X152079Y004426D02*
X152079Y004132D01*
X152079Y004279D02*
X151639Y004279D01*
X151639Y003965D02*
X152079Y003965D01*
X151859Y003965D02*
X151859Y003672D01*
X151639Y003672D02*
X152079Y003672D01*
X152079Y003505D02*
X151639Y003505D01*
X151785Y003358D01*
X151639Y003211D01*
X152079Y003211D01*
X154607Y004918D02*
X154680Y004845D01*
X154607Y004918D02*
X154607Y005065D01*
X154680Y005138D01*
X154827Y005138D01*
X154901Y005065D01*
X154901Y004991D01*
X154827Y004845D01*
X155047Y004845D01*
X155047Y005138D01*
X145047Y005065D02*
X144974Y005138D01*
X144680Y004845D01*
X144607Y004918D01*
X144607Y005065D01*
X144680Y005138D01*
X144974Y005138D01*
X145047Y005065D02*
X145047Y004918D01*
X144974Y004845D01*
X144680Y004845D01*
X144607Y004678D02*
X144607Y004384D01*
X144607Y004531D02*
X145047Y004531D01*
X144901Y004384D01*
X145047Y004218D02*
X145047Y004071D01*
X145047Y004144D02*
X144680Y004144D01*
X144607Y004071D01*
X144607Y003997D01*
X144680Y003924D01*
X142079Y003965D02*
X141639Y003965D01*
X141859Y003965D02*
X141859Y003672D01*
X141639Y003672D02*
X142079Y003672D01*
X142079Y003505D02*
X141639Y003505D01*
X141785Y003358D01*
X141639Y003211D01*
X142079Y003211D01*
X142079Y004132D02*
X142079Y004426D01*
X142079Y004279D02*
X141639Y004279D01*
X125047Y004218D02*
X125047Y004071D01*
X125047Y004144D02*
X124680Y004144D01*
X124607Y004071D01*
X124607Y003997D01*
X124680Y003924D01*
X124680Y004384D02*
X124607Y004458D01*
X124607Y004605D01*
X124680Y004678D01*
X124827Y004678D01*
X124901Y004605D01*
X124901Y004531D01*
X124827Y004384D01*
X125047Y004384D01*
X125047Y004678D01*
X122079Y004426D02*
X122079Y004132D01*
X122079Y004279D02*
X121639Y004279D01*
X121639Y003965D02*
X122079Y003965D01*
X121859Y003965D02*
X121859Y003672D01*
X121639Y003672D02*
X122079Y003672D01*
X122079Y003505D02*
X121639Y003505D01*
X121785Y003358D01*
X121639Y003211D01*
X122079Y003211D01*
X122079Y010711D02*
X122079Y010932D01*
X122005Y011005D01*
X121859Y011005D01*
X121785Y010932D01*
X121785Y010711D01*
X121639Y010711D02*
X122079Y010711D01*
X121785Y010858D02*
X121639Y011005D01*
X121639Y011172D02*
X121639Y011465D01*
X121639Y011632D02*
X121639Y011852D01*
X121712Y011926D01*
X122005Y011926D01*
X122079Y011852D01*
X122079Y011632D01*
X121639Y011632D01*
X121859Y011319D02*
X121859Y011172D01*
X122079Y011172D02*
X121639Y011172D01*
X122079Y011172D02*
X122079Y011465D01*
X124607Y011497D02*
X124607Y011571D01*
X124680Y011644D01*
X125047Y011644D01*
X125047Y011571D02*
X125047Y011718D01*
X124974Y011884D02*
X125047Y011958D01*
X125047Y012105D01*
X124974Y012178D01*
X124901Y012178D01*
X124607Y011884D01*
X124607Y012178D01*
X124680Y012345D02*
X124607Y012418D01*
X124607Y012565D01*
X124680Y012638D01*
X124827Y012638D01*
X124901Y012565D01*
X124901Y012491D01*
X124827Y012345D01*
X125047Y012345D01*
X125047Y012638D01*
X124607Y011497D02*
X124680Y011424D01*
X141639Y011465D02*
X141639Y011172D01*
X142079Y011172D01*
X142079Y011465D01*
X142079Y011632D02*
X142079Y011852D01*
X142005Y011926D01*
X141712Y011926D01*
X141639Y011852D01*
X141639Y011632D01*
X142079Y011632D01*
X141859Y011319D02*
X141859Y011172D01*
X141859Y011005D02*
X141785Y010932D01*
X141785Y010711D01*
X141639Y010711D02*
X142079Y010711D01*
X142079Y010932D01*
X142005Y011005D01*
X141859Y011005D01*
X141785Y010858D02*
X141639Y011005D01*
X144607Y011497D02*
X144607Y011571D01*
X144680Y011644D01*
X145047Y011644D01*
X145047Y011571D02*
X145047Y011718D01*
X144974Y011884D02*
X145047Y011958D01*
X145047Y012105D01*
X144974Y012178D01*
X144901Y012178D01*
X144607Y011884D01*
X144607Y012178D01*
X144680Y012345D02*
X144607Y012418D01*
X144607Y012565D01*
X144680Y012638D01*
X144754Y012638D01*
X144827Y012565D01*
X144827Y012345D01*
X144680Y012345D01*
X144827Y012345D02*
X144974Y012491D01*
X145047Y012638D01*
X144607Y011497D02*
X144680Y011424D01*
X151639Y011465D02*
X151639Y011172D01*
X152079Y011172D01*
X152079Y011465D01*
X152079Y011632D02*
X152079Y011852D01*
X152005Y011926D01*
X151712Y011926D01*
X151639Y011852D01*
X151639Y011632D01*
X152079Y011632D01*
X151859Y011319D02*
X151859Y011172D01*
X151859Y011005D02*
X151785Y010932D01*
X151785Y010711D01*
X151639Y010711D02*
X152079Y010711D01*
X152079Y010932D01*
X152005Y011005D01*
X151859Y011005D01*
X151785Y010858D02*
X151639Y011005D01*
X154607Y011497D02*
X154607Y011571D01*
X154680Y011644D01*
X155047Y011644D01*
X155047Y011571D02*
X155047Y011718D01*
X154974Y011884D02*
X155047Y011958D01*
X155047Y012105D01*
X154974Y012178D01*
X154901Y012178D01*
X154607Y011884D01*
X154607Y012178D01*
X154607Y012345D02*
X154680Y012345D01*
X154974Y012638D01*
X155047Y012638D01*
X155047Y012345D01*
X154607Y011497D02*
X154680Y011424D01*
X161639Y011465D02*
X161639Y011172D01*
X162079Y011172D01*
X162079Y011465D01*
X162079Y011632D02*
X162079Y011852D01*
X162005Y011926D01*
X161712Y011926D01*
X161639Y011852D01*
X161639Y011632D01*
X162079Y011632D01*
X161859Y011319D02*
X161859Y011172D01*
X161859Y011005D02*
X161785Y010932D01*
X161785Y010711D01*
X161639Y010711D02*
X162079Y010711D01*
X162079Y010932D01*
X162005Y011005D01*
X161859Y011005D01*
X161785Y010858D02*
X161639Y011005D01*
X164607Y011497D02*
X164607Y011571D01*
X164680Y011644D01*
X165047Y011644D01*
X165047Y011571D02*
X165047Y011718D01*
X164974Y011884D02*
X165047Y011958D01*
X165047Y012105D01*
X164974Y012178D01*
X164901Y012178D01*
X164607Y011884D01*
X164607Y012178D01*
X164680Y012345D02*
X164754Y012345D01*
X164827Y012418D01*
X164827Y012565D01*
X164754Y012638D01*
X164680Y012638D01*
X164607Y012565D01*
X164607Y012418D01*
X164680Y012345D01*
X164827Y012418D02*
X164901Y012345D01*
X164974Y012345D01*
X165047Y012418D01*
X165047Y012565D01*
X164974Y012638D01*
X164901Y012638D01*
X164827Y012565D01*
X164607Y011497D02*
X164680Y011424D01*
X162005Y018211D02*
X161712Y018211D01*
X161639Y018285D01*
X161639Y018432D01*
X161712Y018505D01*
X161859Y018505D01*
X161859Y018358D01*
X162005Y018211D02*
X162079Y018285D01*
X162079Y018432D01*
X162005Y018505D01*
X162079Y018672D02*
X162079Y018892D01*
X162005Y018965D01*
X161859Y018965D01*
X161785Y018892D01*
X161785Y018672D01*
X161639Y018672D02*
X162079Y018672D01*
X161785Y018819D02*
X161639Y018965D01*
X161639Y019132D02*
X162079Y019132D01*
X161639Y019426D01*
X162079Y019426D01*
X164607Y019458D02*
X164680Y019384D01*
X164607Y019458D02*
X164607Y019605D01*
X164680Y019678D01*
X164754Y019678D01*
X164827Y019605D01*
X164827Y019531D01*
X164827Y019605D02*
X164901Y019678D01*
X164974Y019678D01*
X165047Y019605D01*
X165047Y019458D01*
X164974Y019384D01*
X165047Y019218D02*
X165047Y019071D01*
X165047Y019144D02*
X164680Y019144D01*
X164607Y019071D01*
X164607Y018997D01*
X164680Y018924D01*
X164607Y019845D02*
X164901Y020138D01*
X164974Y020138D01*
X165047Y020065D01*
X165047Y019918D01*
X164974Y019845D01*
X164607Y019845D02*
X164607Y020138D01*
X155047Y019991D02*
X154607Y019991D01*
X154607Y019845D02*
X154607Y020138D01*
X154901Y019845D02*
X155047Y019991D01*
X154974Y019678D02*
X154901Y019678D01*
X154827Y019605D01*
X154754Y019678D01*
X154680Y019678D01*
X154607Y019605D01*
X154607Y019458D01*
X154680Y019384D01*
X154827Y019531D02*
X154827Y019605D01*
X154974Y019678D02*
X155047Y019605D01*
X155047Y019458D01*
X154974Y019384D01*
X155047Y019218D02*
X155047Y019071D01*
X155047Y019144D02*
X154680Y019144D01*
X154607Y019071D01*
X154607Y018997D01*
X154680Y018924D01*
X152079Y018892D02*
X152005Y018965D01*
X151859Y018965D01*
X151785Y018892D01*
X151785Y018672D01*
X151639Y018672D02*
X152079Y018672D01*
X152079Y018892D01*
X152079Y019132D02*
X151639Y019132D01*
X151639Y018965D02*
X151785Y018819D01*
X151712Y018505D02*
X151859Y018505D01*
X151859Y018358D01*
X152005Y018211D02*
X151712Y018211D01*
X151639Y018285D01*
X151639Y018432D01*
X151712Y018505D01*
X152005Y018505D02*
X152079Y018432D01*
X152079Y018285D01*
X152005Y018211D01*
X152079Y019132D02*
X151639Y019426D01*
X152079Y019426D01*
X145047Y019458D02*
X145047Y019605D01*
X144974Y019678D01*
X144901Y019678D01*
X144827Y019605D01*
X144754Y019678D01*
X144680Y019678D01*
X144607Y019605D01*
X144607Y019458D01*
X144680Y019384D01*
X144827Y019531D02*
X144827Y019605D01*
X145047Y019458D02*
X144974Y019384D01*
X145047Y019218D02*
X145047Y019071D01*
X145047Y019144D02*
X144680Y019144D01*
X144607Y019071D01*
X144607Y018997D01*
X144680Y018924D01*
X142079Y018892D02*
X142005Y018965D01*
X141859Y018965D01*
X141785Y018892D01*
X141785Y018672D01*
X141639Y018672D02*
X142079Y018672D01*
X142079Y018892D01*
X142079Y019132D02*
X141639Y019426D01*
X142079Y019426D01*
X142079Y019132D02*
X141639Y019132D01*
X141639Y018965D02*
X141785Y018819D01*
X141712Y018505D02*
X141859Y018505D01*
X141859Y018358D01*
X142005Y018211D02*
X141712Y018211D01*
X141639Y018285D01*
X141639Y018432D01*
X141712Y018505D01*
X142005Y018505D02*
X142079Y018432D01*
X142079Y018285D01*
X142005Y018211D01*
X144607Y019918D02*
X144680Y019845D01*
X144974Y020138D01*
X144680Y020138D01*
X144607Y020065D01*
X144607Y019918D01*
X144680Y019845D02*
X144974Y019845D01*
X145047Y019918D01*
X145047Y020065D01*
X144974Y020138D01*
X125047Y020065D02*
X125047Y019918D01*
X124974Y019845D01*
X124901Y019845D01*
X124827Y019918D01*
X124827Y020138D01*
X124680Y020138D02*
X124974Y020138D01*
X125047Y020065D01*
X124680Y020138D02*
X124607Y020065D01*
X124607Y019918D01*
X124680Y019845D01*
X124607Y019678D02*
X124607Y019384D01*
X124901Y019678D01*
X124974Y019678D01*
X125047Y019605D01*
X125047Y019458D01*
X124974Y019384D01*
X125047Y019218D02*
X125047Y019071D01*
X125047Y019144D02*
X124680Y019144D01*
X124607Y019071D01*
X124607Y018997D01*
X124680Y018924D01*
X122079Y018892D02*
X122005Y018965D01*
X121859Y018965D01*
X121785Y018892D01*
X121785Y018672D01*
X121639Y018672D02*
X122079Y018672D01*
X122079Y018892D01*
X122079Y019132D02*
X121639Y019426D01*
X122079Y019426D01*
X122079Y019132D02*
X121639Y019132D01*
X121639Y018965D02*
X121785Y018819D01*
X121712Y018505D02*
X121859Y018505D01*
X121859Y018358D01*
X122005Y018211D02*
X121712Y018211D01*
X121639Y018285D01*
X121639Y018432D01*
X121712Y018505D01*
X122005Y018505D02*
X122079Y018432D01*
X122079Y018285D01*
X122005Y018211D01*
X122079Y025711D02*
X122079Y025932D01*
X122005Y026005D01*
X121932Y026005D01*
X121859Y025932D01*
X121859Y025711D01*
X121639Y025711D02*
X122079Y025711D01*
X121859Y025932D02*
X121785Y026005D01*
X121712Y026005D01*
X121639Y025932D01*
X121639Y025711D01*
X121639Y026172D02*
X121639Y026465D01*
X121712Y026632D02*
X121639Y026706D01*
X121639Y026852D01*
X121712Y026926D01*
X122079Y026926D01*
X122079Y026632D02*
X121712Y026632D01*
X121639Y026172D02*
X122079Y026172D01*
X124607Y026497D02*
X124607Y026571D01*
X124680Y026644D01*
X125047Y026644D01*
X125047Y026571D02*
X125047Y026718D01*
X124974Y026884D02*
X125047Y026958D01*
X125047Y027105D01*
X124974Y027178D01*
X124901Y027178D01*
X124827Y027105D01*
X124754Y027178D01*
X124680Y027178D01*
X124607Y027105D01*
X124607Y026958D01*
X124680Y026884D01*
X124827Y027031D02*
X124827Y027105D01*
X124680Y027345D02*
X124607Y027345D01*
X124680Y027345D02*
X124974Y027638D01*
X125047Y027638D01*
X125047Y027345D01*
X124607Y026497D02*
X124680Y026424D01*
X141639Y026465D02*
X141639Y026172D01*
X142079Y026172D01*
X142005Y026005D02*
X141932Y026005D01*
X141859Y025932D01*
X141859Y025711D01*
X142079Y025711D02*
X142079Y025932D01*
X142005Y026005D01*
X141859Y025932D02*
X141785Y026005D01*
X141712Y026005D01*
X141639Y025932D01*
X141639Y025711D01*
X142079Y025711D01*
X142079Y026632D02*
X141712Y026632D01*
X141639Y026706D01*
X141639Y026852D01*
X141712Y026926D01*
X142079Y026926D01*
X144607Y026958D02*
X144607Y027105D01*
X144680Y027178D01*
X144754Y027178D01*
X144827Y027105D01*
X144827Y027031D01*
X144827Y027105D02*
X144901Y027178D01*
X144974Y027178D01*
X145047Y027105D01*
X145047Y026958D01*
X144974Y026884D01*
X145047Y026718D02*
X145047Y026571D01*
X145047Y026644D02*
X144680Y026644D01*
X144607Y026571D01*
X144607Y026497D01*
X144680Y026424D01*
X144680Y026884D02*
X144607Y026958D01*
X144680Y027345D02*
X144754Y027345D01*
X144827Y027418D01*
X144827Y027565D01*
X144754Y027638D01*
X144680Y027638D01*
X144607Y027565D01*
X144607Y027418D01*
X144680Y027345D01*
X144827Y027418D02*
X144901Y027345D01*
X144974Y027345D01*
X145047Y027418D01*
X145047Y027565D01*
X144974Y027638D01*
X144901Y027638D01*
X144827Y027565D01*
X151639Y026852D02*
X151712Y026926D01*
X152079Y026926D01*
X152079Y026632D02*
X151712Y026632D01*
X151639Y026706D01*
X151639Y026852D01*
X151639Y026465D02*
X151639Y026172D01*
X152079Y026172D01*
X152005Y026005D02*
X152079Y025932D01*
X152079Y025711D01*
X151639Y025711D01*
X151639Y025932D01*
X151712Y026005D01*
X151785Y026005D01*
X151859Y025932D01*
X151859Y025711D01*
X151859Y025932D02*
X151932Y026005D01*
X152005Y026005D01*
X154607Y026497D02*
X154607Y026571D01*
X154680Y026644D01*
X155047Y026644D01*
X155047Y026571D02*
X155047Y026718D01*
X154974Y026884D02*
X155047Y026958D01*
X155047Y027105D01*
X154974Y027178D01*
X154901Y027178D01*
X154827Y027105D01*
X154754Y027178D01*
X154680Y027178D01*
X154607Y027105D01*
X154607Y026958D01*
X154680Y026884D01*
X154827Y027031D02*
X154827Y027105D01*
X154901Y027345D02*
X154827Y027418D01*
X154827Y027638D01*
X154680Y027638D02*
X154974Y027638D01*
X155047Y027565D01*
X155047Y027418D01*
X154974Y027345D01*
X154901Y027345D01*
X154680Y027345D02*
X154607Y027418D01*
X154607Y027565D01*
X154680Y027638D01*
X154607Y026497D02*
X154680Y026424D01*
X161639Y026465D02*
X161639Y026172D01*
X162079Y026172D01*
X162005Y026005D02*
X161932Y026005D01*
X161859Y025932D01*
X161859Y025711D01*
X162079Y025711D02*
X162079Y025932D01*
X162005Y026005D01*
X161859Y025932D02*
X161785Y026005D01*
X161712Y026005D01*
X161639Y025932D01*
X161639Y025711D01*
X162079Y025711D01*
X162079Y026632D02*
X161712Y026632D01*
X161639Y026706D01*
X161639Y026852D01*
X161712Y026926D01*
X162079Y026926D01*
X164607Y027105D02*
X165047Y027105D01*
X164827Y026884D01*
X164827Y027178D01*
X164680Y027345D02*
X164974Y027638D01*
X164680Y027638D01*
X164607Y027565D01*
X164607Y027418D01*
X164680Y027345D01*
X164974Y027345D01*
X165047Y027418D01*
X165047Y027565D01*
X164974Y027638D01*
X165047Y026718D02*
X165047Y026571D01*
X165047Y026644D02*
X164680Y026644D01*
X164607Y026571D01*
X164607Y026497D01*
X164680Y026424D01*
X162079Y033211D02*
X162079Y033432D01*
X162005Y033505D01*
X161932Y033505D01*
X161859Y033432D01*
X161859Y033211D01*
X161639Y033211D02*
X162079Y033211D01*
X161859Y033432D02*
X161785Y033505D01*
X161712Y033505D01*
X161639Y033432D01*
X161639Y033211D01*
X161639Y033672D02*
X161639Y033965D01*
X161639Y034132D02*
X162079Y034132D01*
X161859Y034206D02*
X161639Y034426D01*
X161785Y034132D02*
X162079Y034426D01*
X162079Y033672D02*
X161639Y033672D01*
X164607Y033997D02*
X164607Y034071D01*
X164680Y034144D01*
X165047Y034144D01*
X165047Y034071D02*
X165047Y034218D01*
X164974Y034384D02*
X165047Y034458D01*
X165047Y034605D01*
X164974Y034678D01*
X164901Y034678D01*
X164827Y034605D01*
X164754Y034678D01*
X164680Y034678D01*
X164607Y034605D01*
X164607Y034458D01*
X164680Y034384D01*
X164827Y034531D02*
X164827Y034605D01*
X164827Y034845D02*
X164827Y035065D01*
X164754Y035138D01*
X164680Y035138D01*
X164607Y035065D01*
X164607Y034918D01*
X164680Y034845D01*
X164827Y034845D01*
X164974Y034991D01*
X165047Y035138D01*
X164607Y033997D02*
X164680Y033924D01*
X155047Y034071D02*
X155047Y034218D01*
X155047Y034144D02*
X154680Y034144D01*
X154607Y034071D01*
X154607Y033997D01*
X154680Y033924D01*
X154680Y034384D02*
X154607Y034458D01*
X154607Y034605D01*
X154680Y034678D01*
X154754Y034678D01*
X154827Y034605D01*
X154827Y034531D01*
X154827Y034605D02*
X154901Y034678D01*
X154974Y034678D01*
X155047Y034605D01*
X155047Y034458D01*
X154974Y034384D01*
X155047Y034845D02*
X154827Y034845D01*
X154901Y034991D01*
X154901Y035065D01*
X154827Y035138D01*
X154680Y035138D01*
X154607Y035065D01*
X154607Y034918D01*
X154680Y034845D01*
X155047Y034845D02*
X155047Y035138D01*
X152079Y034426D02*
X151785Y034132D01*
X151859Y034206D02*
X151639Y034426D01*
X151639Y034132D02*
X152079Y034132D01*
X152079Y033672D02*
X151639Y033672D01*
X151639Y033965D01*
X151712Y033505D02*
X151639Y033432D01*
X151639Y033211D01*
X152079Y033211D01*
X152079Y033432D01*
X152005Y033505D01*
X151932Y033505D01*
X151859Y033432D01*
X151859Y033211D01*
X151859Y033432D02*
X151785Y033505D01*
X151712Y033505D01*
X145047Y034071D02*
X145047Y034218D01*
X145047Y034144D02*
X144680Y034144D01*
X144607Y034071D01*
X144607Y033997D01*
X144680Y033924D01*
X144680Y034384D02*
X144607Y034458D01*
X144607Y034605D01*
X144680Y034678D01*
X144754Y034678D01*
X144827Y034605D01*
X144827Y034531D01*
X144827Y034605D02*
X144901Y034678D01*
X144974Y034678D01*
X145047Y034605D01*
X145047Y034458D01*
X144974Y034384D01*
X144827Y034845D02*
X144827Y035138D01*
X144607Y035065D02*
X145047Y035065D01*
X144827Y034845D01*
X142079Y034426D02*
X141785Y034132D01*
X141859Y034206D02*
X141639Y034426D01*
X141639Y034132D02*
X142079Y034132D01*
X142079Y033672D02*
X141639Y033672D01*
X141639Y033965D01*
X141712Y033505D02*
X141639Y033432D01*
X141639Y033211D01*
X142079Y033211D01*
X142079Y033432D01*
X142005Y033505D01*
X141932Y033505D01*
X141859Y033432D01*
X141859Y033211D01*
X141859Y033432D02*
X141785Y033505D01*
X141712Y033505D01*
X125047Y034071D02*
X125047Y034218D01*
X125047Y034144D02*
X124680Y034144D01*
X124607Y034071D01*
X124607Y033997D01*
X124680Y033924D01*
X124680Y034384D02*
X124607Y034458D01*
X124607Y034605D01*
X124680Y034678D01*
X124754Y034678D01*
X124827Y034605D01*
X124827Y034531D01*
X124827Y034605D02*
X124901Y034678D01*
X124974Y034678D01*
X125047Y034605D01*
X125047Y034458D01*
X124974Y034384D01*
X124974Y034845D02*
X125047Y034918D01*
X125047Y035065D01*
X124974Y035138D01*
X124901Y035138D01*
X124827Y035065D01*
X124754Y035138D01*
X124680Y035138D01*
X124607Y035065D01*
X124607Y034918D01*
X124680Y034845D01*
X124827Y034991D02*
X124827Y035065D01*
X122079Y034426D02*
X121785Y034132D01*
X121859Y034206D02*
X121639Y034426D01*
X121639Y034132D02*
X122079Y034132D01*
X122079Y033672D02*
X121639Y033672D01*
X121639Y033965D01*
X121712Y033505D02*
X121639Y033432D01*
X121639Y033211D01*
X122079Y033211D01*
X122079Y033432D01*
X122005Y033505D01*
X121932Y033505D01*
X121859Y033432D01*
X121859Y033211D01*
X121859Y033432D02*
X121785Y033505D01*
X121712Y033505D01*
X085047Y034071D02*
X085047Y034218D01*
X085047Y034144D02*
X084680Y034144D01*
X084607Y034071D01*
X084607Y033997D01*
X084680Y033924D01*
X084607Y034384D02*
X084607Y034678D01*
X084607Y034531D02*
X085047Y034531D01*
X084901Y034384D01*
X084827Y034845D02*
X084827Y035065D01*
X084754Y035138D01*
X084680Y035138D01*
X084607Y035065D01*
X084607Y034918D01*
X084680Y034845D01*
X084827Y034845D01*
X084974Y034991D01*
X085047Y035138D01*
X082079Y034426D02*
X081785Y034132D01*
X081859Y034206D02*
X081639Y034426D01*
X081639Y034132D02*
X082079Y034132D01*
X082079Y033672D02*
X081639Y033672D01*
X081639Y033965D01*
X081712Y033505D02*
X081639Y033432D01*
X081639Y033211D01*
X082079Y033211D01*
X082079Y033432D01*
X082005Y033505D01*
X081932Y033505D01*
X081859Y033432D01*
X081859Y033211D01*
X081859Y033432D02*
X081785Y033505D01*
X081712Y033505D01*
X075047Y034071D02*
X075047Y034218D01*
X075047Y034144D02*
X074680Y034144D01*
X074607Y034071D01*
X074607Y033997D01*
X074680Y033924D01*
X074607Y034384D02*
X074607Y034678D01*
X074607Y034531D02*
X075047Y034531D01*
X074901Y034384D01*
X074901Y034845D02*
X075047Y034991D01*
X074607Y034991D01*
X074607Y034845D02*
X074607Y035138D01*
X072079Y034426D02*
X071785Y034132D01*
X071859Y034206D02*
X071639Y034426D01*
X071639Y034132D02*
X072079Y034132D01*
X072079Y033672D02*
X071639Y033672D01*
X071639Y033965D01*
X071712Y033505D02*
X071639Y033432D01*
X071639Y033211D01*
X072079Y033211D01*
X072079Y033432D01*
X072005Y033505D01*
X071932Y033505D01*
X071859Y033432D01*
X071859Y033211D01*
X071859Y033432D02*
X071785Y033505D01*
X071712Y033505D01*
X065047Y034071D02*
X065047Y034218D01*
X065047Y034144D02*
X064680Y034144D01*
X064607Y034071D01*
X064607Y033997D01*
X064680Y033924D01*
X064680Y034384D02*
X064607Y034458D01*
X064607Y034605D01*
X064680Y034678D01*
X064754Y034678D01*
X064827Y034605D01*
X064827Y034384D01*
X064680Y034384D01*
X064827Y034384D02*
X064974Y034531D01*
X065047Y034678D01*
X062079Y034426D02*
X061785Y034132D01*
X061859Y034206D02*
X061639Y034426D01*
X061639Y034132D02*
X062079Y034132D01*
X062079Y033672D02*
X061639Y033672D01*
X061639Y033965D01*
X061712Y033505D02*
X061639Y033432D01*
X061639Y033211D01*
X062079Y033211D01*
X062079Y033432D01*
X062005Y033505D01*
X061932Y033505D01*
X061859Y033432D01*
X061859Y033211D01*
X061859Y033432D02*
X061785Y033505D01*
X061712Y033505D01*
X045047Y034071D02*
X045047Y034218D01*
X045047Y034144D02*
X044680Y034144D01*
X044607Y034071D01*
X044607Y033997D01*
X044680Y033924D01*
X044607Y034384D02*
X044607Y034678D01*
X044607Y034531D02*
X045047Y034531D01*
X044901Y034384D01*
X042079Y034426D02*
X041785Y034132D01*
X041859Y034206D02*
X041639Y034426D01*
X041639Y034132D02*
X042079Y034132D01*
X042079Y033672D02*
X041639Y033672D01*
X041639Y033965D01*
X041712Y033505D02*
X041639Y033432D01*
X041639Y033211D01*
X042079Y033211D01*
X042079Y033432D01*
X042005Y033505D01*
X041932Y033505D01*
X041859Y033432D01*
X041859Y033211D01*
X041859Y033432D02*
X041785Y033505D01*
X041712Y033505D01*
X044607Y027178D02*
X044607Y026884D01*
X044901Y027178D01*
X044974Y027178D01*
X045047Y027105D01*
X045047Y026958D01*
X044974Y026884D01*
X045047Y026718D02*
X045047Y026571D01*
X045047Y026644D02*
X044680Y026644D01*
X044607Y026571D01*
X044607Y026497D01*
X044680Y026424D01*
X042079Y026632D02*
X041712Y026632D01*
X041639Y026706D01*
X041639Y026852D01*
X041712Y026926D01*
X042079Y026926D01*
X041639Y026465D02*
X041639Y026172D01*
X042079Y026172D01*
X042005Y026005D02*
X041932Y026005D01*
X041859Y025932D01*
X041859Y025711D01*
X041639Y025711D02*
X042079Y025711D01*
X042079Y025932D01*
X042005Y026005D01*
X041859Y025932D02*
X041785Y026005D01*
X041712Y026005D01*
X041639Y025932D01*
X041639Y025711D01*
X061639Y025711D02*
X061639Y025932D01*
X061712Y026005D01*
X061785Y026005D01*
X061859Y025932D01*
X061859Y025711D01*
X062079Y025711D02*
X062079Y025932D01*
X062005Y026005D01*
X061932Y026005D01*
X061859Y025932D01*
X061639Y025711D02*
X062079Y025711D01*
X062079Y026172D02*
X061639Y026172D01*
X061639Y026465D01*
X061712Y026632D02*
X061639Y026706D01*
X061639Y026852D01*
X061712Y026926D01*
X062079Y026926D01*
X062079Y026632D02*
X061712Y026632D01*
X064607Y026571D02*
X064680Y026644D01*
X065047Y026644D01*
X065047Y026571D02*
X065047Y026718D01*
X065047Y026884D02*
X065047Y027178D01*
X064974Y027178D01*
X064680Y026884D01*
X064607Y026884D01*
X064607Y026571D02*
X064607Y026497D01*
X064680Y026424D01*
X071639Y026465D02*
X071639Y026172D01*
X072079Y026172D01*
X072005Y026005D02*
X071932Y026005D01*
X071859Y025932D01*
X071859Y025711D01*
X072079Y025711D02*
X072079Y025932D01*
X072005Y026005D01*
X071859Y025932D02*
X071785Y026005D01*
X071712Y026005D01*
X071639Y025932D01*
X071639Y025711D01*
X072079Y025711D01*
X072079Y026632D02*
X071712Y026632D01*
X071639Y026706D01*
X071639Y026852D01*
X071712Y026926D01*
X072079Y026926D01*
X074607Y026884D02*
X074607Y027178D01*
X074607Y027031D02*
X075047Y027031D01*
X074901Y026884D01*
X075047Y026718D02*
X075047Y026571D01*
X075047Y026644D02*
X074680Y026644D01*
X074607Y026571D01*
X074607Y026497D01*
X074680Y026424D01*
X074607Y027345D02*
X074901Y027638D01*
X074974Y027638D01*
X075047Y027565D01*
X075047Y027418D01*
X074974Y027345D01*
X074607Y027345D02*
X074607Y027638D01*
X081639Y026852D02*
X081712Y026926D01*
X082079Y026926D01*
X082079Y026632D02*
X081712Y026632D01*
X081639Y026706D01*
X081639Y026852D01*
X081639Y026465D02*
X081639Y026172D01*
X082079Y026172D01*
X082005Y026005D02*
X081932Y026005D01*
X081859Y025932D01*
X081859Y025711D01*
X082079Y025711D02*
X082079Y025932D01*
X082005Y026005D01*
X081859Y025932D02*
X081785Y026005D01*
X081712Y026005D01*
X081639Y025932D01*
X081639Y025711D01*
X082079Y025711D01*
X084607Y026497D02*
X084607Y026571D01*
X084680Y026644D01*
X085047Y026644D01*
X085047Y026571D02*
X085047Y026718D01*
X084901Y026884D02*
X085047Y027031D01*
X084607Y027031D01*
X084607Y026884D02*
X084607Y027178D01*
X084607Y027345D02*
X084680Y027345D01*
X084974Y027638D01*
X085047Y027638D01*
X085047Y027345D01*
X084607Y026497D02*
X084680Y026424D01*
X084680Y020138D02*
X084607Y020065D01*
X084607Y019918D01*
X084680Y019845D01*
X084754Y019845D01*
X084827Y019918D01*
X084827Y020065D01*
X084754Y020138D01*
X084680Y020138D01*
X084827Y020065D02*
X084901Y020138D01*
X084974Y020138D01*
X085047Y020065D01*
X085047Y019918D01*
X084974Y019845D01*
X084901Y019845D01*
X084827Y019918D01*
X084607Y019678D02*
X084607Y019384D01*
X084607Y019531D02*
X085047Y019531D01*
X084901Y019384D01*
X085047Y019218D02*
X085047Y019071D01*
X085047Y019144D02*
X084680Y019144D01*
X084607Y019071D01*
X084607Y018997D01*
X084680Y018924D01*
X082079Y018892D02*
X082005Y018965D01*
X081859Y018965D01*
X081785Y018892D01*
X081785Y018672D01*
X081639Y018672D02*
X082079Y018672D01*
X082079Y018892D01*
X082079Y019132D02*
X081639Y019426D01*
X082079Y019426D01*
X082079Y019132D02*
X081639Y019132D01*
X081639Y018965D02*
X081785Y018819D01*
X081712Y018505D02*
X081859Y018505D01*
X081859Y018358D01*
X082005Y018211D02*
X081712Y018211D01*
X081639Y018285D01*
X081639Y018432D01*
X081712Y018505D01*
X082005Y018505D02*
X082079Y018432D01*
X082079Y018285D01*
X082005Y018211D01*
X075047Y019071D02*
X075047Y019218D01*
X075047Y019144D02*
X074680Y019144D01*
X074607Y019071D01*
X074607Y018997D01*
X074680Y018924D01*
X072079Y018892D02*
X072005Y018965D01*
X071859Y018965D01*
X071785Y018892D01*
X071785Y018672D01*
X071639Y018672D02*
X072079Y018672D01*
X072079Y018892D01*
X072079Y019132D02*
X071639Y019132D01*
X071639Y018965D02*
X071785Y018819D01*
X071712Y018505D02*
X071639Y018432D01*
X071639Y018285D01*
X071712Y018211D01*
X072005Y018211D01*
X072079Y018285D01*
X072079Y018432D01*
X072005Y018505D01*
X071859Y018505D02*
X071859Y018358D01*
X071859Y018505D02*
X071712Y018505D01*
X072079Y019132D02*
X071639Y019426D01*
X072079Y019426D01*
X074607Y019384D02*
X074607Y019678D01*
X074607Y019531D02*
X075047Y019531D01*
X074901Y019384D01*
X074974Y019845D02*
X075047Y019918D01*
X075047Y020065D01*
X074974Y020138D01*
X074901Y020138D01*
X074827Y020065D01*
X074754Y020138D01*
X074680Y020138D01*
X074607Y020065D01*
X074607Y019918D01*
X074680Y019845D01*
X074827Y019991D02*
X074827Y020065D01*
X065047Y019605D02*
X064974Y019678D01*
X064901Y019678D01*
X064827Y019605D01*
X064827Y019458D01*
X064901Y019384D01*
X064974Y019384D01*
X065047Y019458D01*
X065047Y019605D01*
X064827Y019605D02*
X064754Y019678D01*
X064680Y019678D01*
X064607Y019605D01*
X064607Y019458D01*
X064680Y019384D01*
X064754Y019384D01*
X064827Y019458D01*
X065047Y019218D02*
X065047Y019071D01*
X065047Y019144D02*
X064680Y019144D01*
X064607Y019071D01*
X064607Y018997D01*
X064680Y018924D01*
X062079Y018892D02*
X062005Y018965D01*
X061859Y018965D01*
X061785Y018892D01*
X061785Y018672D01*
X061639Y018672D02*
X062079Y018672D01*
X062079Y018892D01*
X062079Y019132D02*
X061639Y019426D01*
X062079Y019426D01*
X062079Y019132D02*
X061639Y019132D01*
X061639Y018965D02*
X061785Y018819D01*
X061712Y018505D02*
X061859Y018505D01*
X061859Y018358D01*
X062005Y018211D02*
X061712Y018211D01*
X061639Y018285D01*
X061639Y018432D01*
X061712Y018505D01*
X062005Y018505D02*
X062079Y018432D01*
X062079Y018285D01*
X062005Y018211D01*
X045047Y019071D02*
X045047Y019218D01*
X045047Y019144D02*
X044680Y019144D01*
X044607Y019071D01*
X044607Y018997D01*
X044680Y018924D01*
X042079Y018892D02*
X042005Y018965D01*
X041859Y018965D01*
X041785Y018892D01*
X041785Y018672D01*
X041639Y018672D02*
X042079Y018672D01*
X042079Y018892D01*
X042079Y019132D02*
X041639Y019132D01*
X041639Y018965D02*
X041785Y018819D01*
X041712Y018505D02*
X041859Y018505D01*
X041859Y018358D01*
X042005Y018211D02*
X041712Y018211D01*
X041639Y018285D01*
X041639Y018432D01*
X041712Y018505D01*
X042005Y018505D02*
X042079Y018432D01*
X042079Y018285D01*
X042005Y018211D01*
X042079Y019132D02*
X041639Y019426D01*
X042079Y019426D01*
X044607Y019458D02*
X044680Y019384D01*
X044607Y019458D02*
X044607Y019605D01*
X044680Y019678D01*
X044754Y019678D01*
X044827Y019605D01*
X044827Y019531D01*
X044827Y019605D02*
X044901Y019678D01*
X044974Y019678D01*
X045047Y019605D01*
X045047Y019458D01*
X044974Y019384D01*
X074607Y012565D02*
X075047Y012565D01*
X074827Y012345D01*
X074827Y012638D01*
X074607Y012178D02*
X074607Y011884D01*
X074607Y012031D02*
X075047Y012031D01*
X074901Y011884D01*
X075047Y011718D02*
X075047Y011571D01*
X075047Y011644D02*
X074680Y011644D01*
X074607Y011571D01*
X074607Y011497D01*
X074680Y011424D01*
X072079Y011465D02*
X072079Y011172D01*
X071639Y011172D01*
X071639Y011465D01*
X071639Y011632D02*
X071639Y011852D01*
X071712Y011926D01*
X072005Y011926D01*
X072079Y011852D01*
X072079Y011632D01*
X071639Y011632D01*
X071859Y011319D02*
X071859Y011172D01*
X071859Y011005D02*
X071785Y010932D01*
X071785Y010711D01*
X071639Y010711D02*
X072079Y010711D01*
X072079Y010932D01*
X072005Y011005D01*
X071859Y011005D01*
X071785Y010858D02*
X071639Y011005D01*
X065047Y011571D02*
X065047Y011718D01*
X065047Y011644D02*
X064680Y011644D01*
X064607Y011571D01*
X064607Y011497D01*
X064680Y011424D01*
X064680Y011884D02*
X064607Y011958D01*
X064607Y012105D01*
X064680Y012178D01*
X064974Y012178D01*
X065047Y012105D01*
X065047Y011958D01*
X064974Y011884D01*
X064901Y011884D01*
X064827Y011958D01*
X064827Y012178D01*
X062079Y011852D02*
X062079Y011632D01*
X061639Y011632D01*
X061639Y011852D01*
X061712Y011926D01*
X062005Y011926D01*
X062079Y011852D01*
X062079Y011465D02*
X062079Y011172D01*
X061639Y011172D01*
X061639Y011465D01*
X061859Y011319D02*
X061859Y011172D01*
X061859Y011005D02*
X061785Y010932D01*
X061785Y010711D01*
X061639Y010711D02*
X062079Y010711D01*
X062079Y010932D01*
X062005Y011005D01*
X061859Y011005D01*
X061785Y010858D02*
X061639Y011005D01*
X045047Y011571D02*
X045047Y011718D01*
X045047Y011644D02*
X044680Y011644D01*
X044607Y011571D01*
X044607Y011497D01*
X044680Y011424D01*
X044827Y011884D02*
X044827Y012178D01*
X044607Y012105D02*
X045047Y012105D01*
X044827Y011884D01*
X042079Y011852D02*
X042079Y011632D01*
X041639Y011632D01*
X041639Y011852D01*
X041712Y011926D01*
X042005Y011926D01*
X042079Y011852D01*
X042079Y011465D02*
X042079Y011172D01*
X041639Y011172D01*
X041639Y011465D01*
X041859Y011319D02*
X041859Y011172D01*
X041859Y011005D02*
X041785Y010932D01*
X041785Y010711D01*
X041639Y010711D02*
X042079Y010711D01*
X042079Y010932D01*
X042005Y011005D01*
X041859Y011005D01*
X041785Y010858D02*
X041639Y011005D01*
X044607Y005138D02*
X044607Y004845D01*
X044607Y004991D02*
X045047Y004991D01*
X044901Y004845D01*
X044901Y004678D02*
X044974Y004678D01*
X045047Y004605D01*
X045047Y004458D01*
X044974Y004384D01*
X045047Y004218D02*
X045047Y004071D01*
X045047Y004144D02*
X044680Y004144D01*
X044607Y004071D01*
X044607Y003997D01*
X044680Y003924D01*
X044607Y004384D02*
X044901Y004678D01*
X044607Y004678D02*
X044607Y004384D01*
X042079Y004426D02*
X042079Y004132D01*
X042079Y004279D02*
X041639Y004279D01*
X041639Y003965D02*
X042079Y003965D01*
X041859Y003965D02*
X041859Y003672D01*
X041639Y003672D02*
X042079Y003672D01*
X042079Y003505D02*
X041639Y003505D01*
X041785Y003358D01*
X041639Y003211D01*
X042079Y003211D01*
X061639Y003211D02*
X061785Y003358D01*
X061639Y003505D01*
X062079Y003505D01*
X062079Y003672D02*
X061639Y003672D01*
X061859Y003672D02*
X061859Y003965D01*
X062079Y003965D02*
X061639Y003965D01*
X061639Y004279D02*
X062079Y004279D01*
X062079Y004132D02*
X062079Y004426D01*
X064607Y004384D02*
X064607Y004678D01*
X064607Y004845D02*
X064901Y005138D01*
X064974Y005138D01*
X065047Y005065D01*
X065047Y004918D01*
X064974Y004845D01*
X064974Y004678D02*
X065047Y004605D01*
X065047Y004458D01*
X064974Y004384D01*
X065047Y004218D02*
X065047Y004071D01*
X065047Y004144D02*
X064680Y004144D01*
X064607Y004071D01*
X064607Y003997D01*
X064680Y003924D01*
X064607Y004384D02*
X064901Y004678D01*
X064974Y004678D01*
X064607Y004845D02*
X064607Y005138D01*
X071639Y004279D02*
X072079Y004279D01*
X072079Y004132D02*
X072079Y004426D01*
X072079Y003965D02*
X071639Y003965D01*
X071859Y003965D02*
X071859Y003672D01*
X071639Y003672D02*
X072079Y003672D01*
X072079Y003505D02*
X071639Y003505D01*
X071785Y003358D01*
X071639Y003211D01*
X072079Y003211D01*
X074607Y003997D02*
X074607Y004071D01*
X074680Y004144D01*
X075047Y004144D01*
X075047Y004071D02*
X075047Y004218D01*
X074974Y004384D02*
X075047Y004458D01*
X075047Y004605D01*
X074974Y004678D01*
X074901Y004678D01*
X074607Y004384D01*
X074607Y004678D01*
X074680Y004845D02*
X074607Y004918D01*
X074607Y005065D01*
X074680Y005138D01*
X074754Y005138D01*
X074827Y005065D01*
X074827Y004991D01*
X074827Y005065D02*
X074901Y005138D01*
X074974Y005138D01*
X075047Y005065D01*
X075047Y004918D01*
X074974Y004845D01*
X074607Y003997D02*
X074680Y003924D01*
X081639Y003965D02*
X082079Y003965D01*
X082079Y004132D02*
X082079Y004426D01*
X082079Y004279D02*
X081639Y004279D01*
X081859Y003965D02*
X081859Y003672D01*
X081639Y003672D02*
X082079Y003672D01*
X082079Y003505D02*
X081639Y003505D01*
X081785Y003358D01*
X081639Y003211D01*
X082079Y003211D01*
X084607Y003997D02*
X084607Y004071D01*
X084680Y004144D01*
X085047Y004144D01*
X085047Y004071D02*
X085047Y004218D01*
X084974Y004384D02*
X085047Y004458D01*
X085047Y004605D01*
X084974Y004678D01*
X084901Y004678D01*
X084607Y004384D01*
X084607Y004678D01*
X084827Y004845D02*
X084827Y005138D01*
X084607Y005065D02*
X085047Y005065D01*
X084827Y004845D01*
X084607Y003997D02*
X084680Y003924D01*
X062079Y003211D02*
X061639Y003211D01*
X081639Y010711D02*
X082079Y010711D01*
X082079Y010932D01*
X082005Y011005D01*
X081859Y011005D01*
X081785Y010932D01*
X081785Y010711D01*
X081785Y010858D02*
X081639Y011005D01*
X081639Y011172D02*
X081639Y011465D01*
X081639Y011632D02*
X081639Y011852D01*
X081712Y011926D01*
X082005Y011926D01*
X082079Y011852D01*
X082079Y011632D01*
X081639Y011632D01*
X081859Y011319D02*
X081859Y011172D01*
X082079Y011172D02*
X081639Y011172D01*
X082079Y011172D02*
X082079Y011465D01*
X084607Y011497D02*
X084607Y011571D01*
X084680Y011644D01*
X085047Y011644D01*
X085047Y011571D02*
X085047Y011718D01*
X084901Y011884D02*
X085047Y012031D01*
X084607Y012031D01*
X084607Y011884D02*
X084607Y012178D01*
X084680Y012345D02*
X084607Y012418D01*
X084607Y012565D01*
X084680Y012638D01*
X084974Y012638D01*
X085047Y012565D01*
X085047Y012418D01*
X084974Y012345D01*
X084901Y012345D01*
X084827Y012418D01*
X084827Y012638D01*
X084607Y011497D02*
X084680Y011424D01*
M02*
