G75*
G70*
%OFA0B0*%
%FSLAX24Y24*%
%IPPOS*%
%LPD*%
%AMOC8*
5,1,8,0,0,1.08239X$1,22.5*
%
%ADD10C,0.0080*%
%ADD11C,0.1004*%
%ADD12C,0.1181*%
%ADD13C,0.1895*%
%ADD14C,0.0709*%
%ADD15C,0.0590*%
%ADD16C,0.0455*%
%ADD17C,0.0396*%
%ADD18C,0.0150*%
D10*
X016149Y000825D02*
X016252Y000721D01*
X016459Y000721D01*
X016562Y000825D01*
X016562Y000928D01*
X016459Y001032D01*
X016355Y001032D01*
X016459Y001032D02*
X016562Y001135D01*
X016562Y001239D01*
X016459Y001342D01*
X016252Y001342D01*
X016149Y001239D01*
D11*
X043238Y004681D03*
X063238Y004681D03*
X083238Y004681D03*
X103238Y004681D03*
X103238Y012181D03*
X083238Y012181D03*
X063238Y012181D03*
X043238Y012181D03*
X043238Y019681D03*
X063238Y019681D03*
X083238Y019681D03*
X103238Y019681D03*
X103238Y027181D03*
X083238Y027181D03*
X063238Y027181D03*
X043238Y027181D03*
X043238Y034681D03*
X063238Y034681D03*
X083238Y034681D03*
X103238Y034681D03*
X143238Y034681D03*
X163238Y034681D03*
X183238Y034681D03*
X203238Y034681D03*
X203238Y027181D03*
X183238Y027181D03*
X163238Y027181D03*
X143238Y027181D03*
X143238Y019681D03*
X163238Y019681D03*
X183238Y019681D03*
X203238Y019681D03*
X203238Y012181D03*
X183238Y012181D03*
X163238Y012181D03*
X143238Y012181D03*
X143238Y004681D03*
X163238Y004681D03*
X183238Y004681D03*
X203238Y004681D03*
D12*
X202609Y002654D03*
X182609Y002654D03*
X162609Y002654D03*
X162609Y006709D03*
X162609Y010154D03*
X182609Y010154D03*
X182609Y006709D03*
X202609Y006709D03*
X202609Y010154D03*
X202609Y014209D03*
X202609Y017654D03*
X182609Y017654D03*
X182609Y014209D03*
X162609Y014209D03*
X162609Y017654D03*
X162609Y021709D03*
X162609Y025154D03*
X182609Y025154D03*
X182609Y021709D03*
X202609Y021709D03*
X202609Y025154D03*
X202609Y029209D03*
X202609Y032654D03*
X182609Y032654D03*
X182609Y029209D03*
X162609Y029209D03*
X162609Y032654D03*
X162609Y036709D03*
X182609Y036709D03*
X202609Y036709D03*
X142609Y036709D03*
X142609Y032654D03*
X142609Y029209D03*
X142609Y025154D03*
X142609Y021709D03*
X142609Y017654D03*
X142609Y014209D03*
X142609Y010154D03*
X142609Y006709D03*
X142609Y002654D03*
X102609Y002654D03*
X102609Y006709D03*
X102609Y010154D03*
X102609Y014209D03*
X102609Y017654D03*
X102609Y021709D03*
X102609Y025154D03*
X102609Y029209D03*
X102609Y032654D03*
X102609Y036709D03*
X082609Y036709D03*
X062609Y036709D03*
X062609Y032654D03*
X062609Y029209D03*
X082609Y029209D03*
X082609Y032654D03*
X082609Y025154D03*
X082609Y021709D03*
X062609Y021709D03*
X062609Y025154D03*
X042609Y025154D03*
X042609Y021709D03*
X042609Y017654D03*
X042609Y014209D03*
X042609Y010154D03*
X042609Y006709D03*
X042609Y002654D03*
X062609Y002654D03*
X082609Y002654D03*
X082609Y006709D03*
X082609Y010154D03*
X062609Y010154D03*
X062609Y006709D03*
X062609Y014209D03*
X062609Y017654D03*
X082609Y017654D03*
X082609Y014209D03*
X042609Y029209D03*
X042609Y032654D03*
X042609Y036709D03*
D13*
X016109Y037181D03*
X072609Y037181D03*
X116609Y037181D03*
X172609Y037181D03*
X210109Y037181D03*
X209609Y003681D03*
X172609Y003681D03*
X116609Y003181D03*
X072609Y003681D03*
X016109Y003681D03*
D14*
X020187Y012583D03*
X020187Y013961D03*
X020187Y015339D03*
X020187Y016717D03*
X020187Y018095D03*
X020187Y019473D03*
X020187Y020851D03*
X020187Y022229D03*
X020187Y023607D03*
X020187Y024985D03*
X020187Y026363D03*
X020187Y027740D03*
D15*
X116109Y027681D03*
X117109Y027681D03*
X117109Y026681D03*
X116109Y026681D03*
X116109Y025681D03*
X117109Y025681D03*
X117109Y024681D03*
X116109Y024681D03*
X116109Y023681D03*
X117109Y023681D03*
X117109Y022681D03*
X116109Y022681D03*
X116109Y021681D03*
X117109Y021681D03*
X117109Y020681D03*
X116109Y020681D03*
X116109Y019681D03*
X117109Y019681D03*
X117109Y018681D03*
X116109Y018681D03*
X116109Y017681D03*
X117109Y017681D03*
X117109Y016681D03*
X116109Y016681D03*
X116109Y015681D03*
X117109Y015681D03*
X117109Y028681D03*
X116109Y028681D03*
D16*
X125609Y029681D03*
X129609Y029681D03*
X136609Y029181D03*
X135109Y027681D03*
X131609Y027181D03*
X127609Y028181D03*
X123859Y032306D03*
X153609Y025181D03*
X149109Y023681D03*
X147609Y022181D03*
X151609Y021681D03*
X153109Y021681D03*
X156609Y020681D03*
X158109Y022181D03*
X159359Y022181D03*
X139359Y021681D03*
X138109Y021681D03*
X136109Y023181D03*
X149109Y016681D03*
X152609Y016681D03*
X154109Y016681D03*
X147109Y015681D03*
X144359Y014431D03*
X152109Y013181D03*
X136109Y011181D03*
X134109Y010181D03*
X133109Y009681D03*
X129609Y011181D03*
X131109Y011681D03*
X131609Y012681D03*
X127609Y012681D03*
X126609Y012681D03*
X125609Y014681D03*
X122859Y008681D03*
X138859Y006681D03*
X152109Y004681D03*
X153609Y006681D03*
X051109Y027681D03*
X039609Y030181D03*
X035609Y028681D03*
X037109Y028431D03*
X032609Y028181D03*
X034109Y027181D03*
X030609Y030681D03*
X040609Y032181D03*
X045609Y030681D03*
X047109Y032181D03*
X051609Y031681D03*
X053109Y031681D03*
X049109Y034681D03*
X048109Y034681D03*
X050609Y036181D03*
X039359Y020931D03*
X040609Y018681D03*
X039109Y016681D03*
X030109Y015181D03*
X028109Y016681D03*
X035609Y013681D03*
X033609Y012181D03*
D17*
X030609Y012681D03*
X022609Y011681D03*
X023609Y009681D03*
X025609Y009181D03*
X026609Y009181D03*
X027609Y009181D03*
X027609Y008181D03*
X026609Y008181D03*
X025609Y008181D03*
X032609Y009681D03*
X047609Y007556D03*
X050609Y006681D03*
X052609Y006681D03*
X055109Y005681D03*
X057109Y006431D03*
X053609Y008181D03*
X053609Y009181D03*
X052734Y009181D03*
X051109Y010181D03*
X051609Y011681D03*
X050109Y011681D03*
X048609Y011681D03*
X048609Y012931D03*
X050109Y012931D03*
X051609Y012931D03*
X051609Y014181D03*
X050109Y014181D03*
X048609Y014181D03*
X059109Y013181D03*
X060609Y015681D03*
X035109Y017681D03*
X034109Y017681D03*
X033109Y017681D03*
X033109Y018681D03*
X034109Y018681D03*
X035109Y018681D03*
X032109Y020681D03*
X030609Y020681D03*
X029109Y020681D03*
X029109Y021681D03*
X030609Y021681D03*
X032109Y021681D03*
X032109Y022681D03*
X030609Y022681D03*
X029109Y022681D03*
X050609Y024181D03*
X052109Y024181D03*
X053609Y024181D03*
X053609Y025181D03*
X052109Y025181D03*
X050609Y025181D03*
X050609Y026181D03*
X052109Y026181D03*
X053609Y026181D03*
X049484Y028681D03*
X049484Y029681D03*
X050234Y029681D03*
X050234Y030681D03*
X049484Y030681D03*
X035734Y032181D03*
X035359Y033306D03*
X034359Y033306D03*
X034609Y035181D03*
X033109Y035181D03*
X031609Y035181D03*
X031609Y036181D03*
X033109Y036181D03*
X034609Y036181D03*
X034609Y037181D03*
X033109Y037181D03*
X031609Y037181D03*
X126609Y021181D03*
X128109Y021181D03*
X129609Y021181D03*
X129609Y019931D03*
X128109Y019931D03*
X126609Y019931D03*
X126609Y018681D03*
X128109Y018681D03*
X129609Y018681D03*
X129609Y017181D03*
X131109Y017181D03*
X132109Y017181D03*
X133109Y017181D03*
X133109Y016181D03*
X132109Y016181D03*
X131109Y016181D03*
X144609Y016681D03*
X150859Y015181D03*
X149359Y014181D03*
X151109Y013181D03*
X147609Y013181D03*
X146109Y013181D03*
X146109Y011681D03*
X147609Y011681D03*
X151609Y011681D03*
X153109Y011681D03*
X154609Y011681D03*
X154609Y010681D03*
X153109Y010681D03*
X151609Y010681D03*
X147609Y009681D03*
X146109Y009681D03*
X151609Y009181D03*
X153109Y009181D03*
X154609Y009181D03*
X132109Y005681D03*
X130609Y005681D03*
X129109Y005681D03*
X125609Y005181D03*
X124609Y005181D03*
X124609Y004181D03*
X125609Y004181D03*
X129109Y004431D03*
X130609Y004431D03*
X132109Y004431D03*
X132109Y003181D03*
X130609Y003181D03*
X129109Y003181D03*
X125609Y003181D03*
X124609Y003181D03*
X131234Y007181D03*
X117109Y007181D03*
X120109Y010181D03*
X125109Y013181D03*
X158109Y024681D03*
X159109Y024681D03*
X160109Y024681D03*
X160109Y025681D03*
X159109Y025681D03*
X158109Y025681D03*
X146609Y025681D03*
X146609Y026681D03*
X146609Y027681D03*
X146609Y028681D03*
X146609Y029681D03*
X135609Y031181D03*
X134609Y031181D03*
X134609Y032181D03*
X135609Y032181D03*
X133609Y032181D03*
X133609Y033681D03*
X132109Y033681D03*
X130609Y033681D03*
X130609Y034681D03*
X132109Y034681D03*
X133609Y034681D03*
X133609Y035681D03*
X132109Y035681D03*
X130609Y035681D03*
X039109Y005931D03*
X039109Y004681D03*
X031609Y004431D03*
X030109Y004431D03*
X028609Y004431D03*
X028609Y003181D03*
X030109Y003181D03*
X031609Y003181D03*
X040609Y002681D03*
X031609Y005681D03*
X030109Y005681D03*
X028609Y005681D03*
D18*
X028906Y005380D02*
X029811Y005380D01*
X029869Y005323D02*
X030024Y005258D01*
X030193Y005258D01*
X030348Y005323D01*
X030467Y005442D01*
X030532Y005597D01*
X030532Y005766D01*
X030467Y005921D01*
X030348Y006040D01*
X030193Y006104D01*
X030024Y006104D01*
X029869Y006040D01*
X029750Y005921D01*
X029685Y005766D01*
X029685Y005597D01*
X029750Y005442D01*
X029869Y005323D01*
X029714Y005529D02*
X029003Y005529D01*
X029032Y005597D02*
X028967Y005442D01*
X028848Y005323D01*
X028693Y005258D01*
X028524Y005258D01*
X028369Y005323D01*
X028250Y005442D01*
X028185Y005597D01*
X028185Y005766D01*
X028250Y005921D01*
X028369Y006040D01*
X028524Y006104D01*
X028693Y006104D01*
X028848Y006040D01*
X028967Y005921D01*
X029032Y005766D01*
X029032Y005597D01*
X029032Y005678D02*
X029685Y005678D01*
X029710Y005826D02*
X029007Y005826D01*
X028914Y005975D02*
X029803Y005975D01*
X030414Y005975D02*
X031303Y005975D01*
X031250Y005921D02*
X031185Y005766D01*
X031185Y005597D01*
X031250Y005442D01*
X031369Y005323D01*
X031524Y005258D01*
X031693Y005258D01*
X031848Y005323D01*
X031967Y005442D01*
X032032Y005597D01*
X032032Y005766D01*
X031967Y005921D01*
X031848Y006040D01*
X031693Y006104D01*
X031524Y006104D01*
X031369Y006040D01*
X031250Y005921D01*
X031210Y005826D02*
X030507Y005826D01*
X030532Y005678D02*
X031185Y005678D01*
X031214Y005529D02*
X030503Y005529D01*
X030406Y005380D02*
X031311Y005380D01*
X031524Y004854D02*
X031369Y004790D01*
X031250Y004671D01*
X031185Y004516D01*
X031185Y004347D01*
X031250Y004192D01*
X031369Y004073D01*
X031524Y004008D01*
X031693Y004008D01*
X031848Y004073D01*
X031967Y004192D01*
X042700Y004192D01*
X042622Y004270D02*
X042827Y004065D01*
X043094Y003954D01*
X043383Y003954D01*
X043650Y004065D01*
X043855Y004270D01*
X043965Y004537D01*
X043965Y004826D01*
X043855Y005093D01*
X043650Y005298D01*
X043383Y005408D01*
X043094Y005408D01*
X042827Y005298D01*
X042622Y005093D01*
X042511Y004826D01*
X042511Y004537D01*
X042622Y004270D01*
X042593Y004341D02*
X039366Y004341D01*
X039348Y004323D02*
X039467Y004442D01*
X039532Y004597D01*
X039532Y004766D01*
X039467Y004921D01*
X039348Y005040D01*
X039193Y005104D01*
X039024Y005104D01*
X038869Y005040D01*
X038750Y004921D01*
X038685Y004766D01*
X038685Y004597D01*
X038750Y004442D01*
X038869Y004323D01*
X039024Y004258D01*
X039193Y004258D01*
X039348Y004323D01*
X039487Y004489D02*
X042531Y004489D01*
X042511Y004638D02*
X039532Y004638D01*
X039523Y004786D02*
X042511Y004786D01*
X042557Y004935D02*
X039453Y004935D01*
X039244Y005083D02*
X042618Y005083D01*
X042761Y005232D02*
X018109Y005232D01*
X018109Y005380D02*
X028311Y005380D01*
X028214Y005529D02*
X018109Y005529D01*
X018109Y005678D02*
X028185Y005678D01*
X028210Y005826D02*
X018109Y005826D01*
X018109Y005975D02*
X028303Y005975D01*
X031914Y005975D02*
X038109Y005975D01*
X038109Y006123D02*
X018109Y006123D01*
X018109Y006272D02*
X038109Y006272D01*
X038109Y006420D02*
X018109Y006420D01*
X018109Y006569D02*
X038109Y006569D01*
X038109Y006717D02*
X018109Y006717D01*
X018109Y006866D02*
X038109Y006866D01*
X038109Y007014D02*
X018109Y007014D01*
X018109Y007163D02*
X038109Y007163D01*
X038109Y007311D02*
X018109Y007311D01*
X018109Y007460D02*
X038109Y007460D01*
X038109Y007609D02*
X018109Y007609D01*
X018109Y007757D02*
X038109Y007757D01*
X038109Y007906D02*
X018109Y007906D01*
X018109Y008054D02*
X038109Y008054D01*
X038109Y008203D02*
X018109Y008203D01*
X018109Y008351D02*
X038109Y008351D01*
X038109Y008500D02*
X018109Y008500D01*
X018109Y008648D02*
X038109Y008648D01*
X038109Y008797D02*
X018109Y008797D01*
X018109Y008945D02*
X038109Y008945D01*
X038109Y009094D02*
X018109Y009094D01*
X018109Y009243D02*
X038109Y009243D01*
X038109Y009391D02*
X032917Y009391D01*
X032967Y009442D02*
X033032Y009597D01*
X033032Y009681D01*
X038109Y009681D01*
X038109Y005681D01*
X038760Y005681D01*
X038869Y005573D01*
X039024Y005508D01*
X039193Y005508D01*
X039348Y005573D01*
X039457Y005681D01*
X054685Y005681D01*
X054685Y005597D01*
X054750Y005442D01*
X054869Y005323D01*
X055024Y005258D01*
X055193Y005258D01*
X055348Y005323D01*
X055467Y005442D01*
X055532Y005597D01*
X055532Y005681D01*
X128685Y005681D01*
X128685Y005597D01*
X128750Y005442D01*
X128869Y005323D01*
X129024Y005258D01*
X129193Y005258D01*
X129348Y005323D01*
X129467Y005442D01*
X129532Y005597D01*
X129532Y005681D01*
X130185Y005681D01*
X130185Y005597D01*
X130250Y005442D01*
X130369Y005323D01*
X130524Y005258D01*
X130693Y005258D01*
X130848Y005323D01*
X130967Y005442D01*
X131032Y005597D01*
X131032Y005681D01*
X131685Y005681D01*
X131685Y005597D01*
X131750Y005442D01*
X131869Y005323D01*
X132024Y005258D01*
X132193Y005258D01*
X132348Y005323D01*
X132467Y005442D01*
X132532Y005597D01*
X132532Y005681D01*
X137109Y005681D01*
X137109Y000681D01*
X018109Y000681D01*
X018109Y017174D01*
X019907Y017174D01*
X019887Y017166D01*
X019739Y017017D01*
X019658Y016822D01*
X019658Y016760D01*
X020144Y016760D01*
X020144Y016674D01*
X019658Y016674D01*
X019658Y016612D01*
X019739Y016417D01*
X019887Y016268D01*
X020082Y016188D01*
X020144Y016188D01*
X020144Y016673D01*
X020230Y016673D01*
X020230Y016188D01*
X020293Y016188D01*
X020487Y016268D01*
X020636Y016417D01*
X020717Y016612D01*
X020717Y016674D01*
X020231Y016674D01*
X020231Y016760D01*
X020717Y016760D01*
X020717Y016822D01*
X020636Y017017D01*
X020487Y017166D01*
X020468Y017174D01*
X025609Y017174D01*
X025609Y009681D01*
X032185Y009681D01*
X032185Y009597D01*
X032250Y009442D01*
X032369Y009323D01*
X032524Y009258D01*
X032693Y009258D01*
X032848Y009323D01*
X032967Y009442D01*
X033008Y009540D02*
X038109Y009540D01*
X039609Y009540D02*
X042069Y009540D01*
X042146Y009462D02*
X042446Y009338D01*
X042771Y009338D01*
X043070Y009462D01*
X043300Y009692D01*
X043424Y009992D01*
X043424Y010316D01*
X043300Y010616D01*
X043070Y010845D01*
X042771Y010969D01*
X042446Y010969D01*
X042146Y010845D01*
X041917Y010616D01*
X041793Y010316D01*
X041793Y009992D01*
X041917Y009692D01*
X042146Y009462D01*
X042319Y009391D02*
X039609Y009391D01*
X039609Y009243D02*
X052310Y009243D01*
X052310Y009266D02*
X052310Y009097D01*
X052375Y008942D01*
X052494Y008823D01*
X052649Y008758D01*
X052818Y008758D01*
X052973Y008823D01*
X053092Y008942D01*
X053157Y009097D01*
X053157Y009266D01*
X053092Y009421D01*
X052973Y009540D01*
X052818Y009604D01*
X052649Y009604D01*
X052494Y009540D01*
X052375Y009421D01*
X052310Y009266D01*
X052362Y009391D02*
X042898Y009391D01*
X043148Y009540D02*
X052493Y009540D01*
X052974Y009540D02*
X053368Y009540D01*
X053369Y009540D02*
X053250Y009421D01*
X053185Y009266D01*
X053185Y009097D01*
X053250Y008942D01*
X053369Y008823D01*
X053524Y008758D01*
X053693Y008758D01*
X053848Y008823D01*
X053967Y008942D01*
X054032Y009097D01*
X054032Y009266D01*
X053967Y009421D01*
X053848Y009540D01*
X053693Y009604D01*
X053524Y009604D01*
X053369Y009540D01*
X053237Y009391D02*
X053105Y009391D01*
X053157Y009243D02*
X053185Y009243D01*
X053187Y009094D02*
X053155Y009094D01*
X053094Y008945D02*
X053248Y008945D01*
X053431Y008797D02*
X052911Y008797D01*
X052556Y008797D02*
X039609Y008797D01*
X039609Y008945D02*
X052373Y008945D01*
X052312Y009094D02*
X039609Y009094D01*
X039609Y008648D02*
X122406Y008648D01*
X122406Y008591D02*
X122475Y008425D01*
X122602Y008298D01*
X122768Y008229D01*
X122949Y008229D01*
X123115Y008298D01*
X123242Y008425D01*
X123311Y008591D01*
X123311Y008771D01*
X123242Y008938D01*
X123115Y009065D01*
X122949Y009134D01*
X122768Y009134D01*
X122602Y009065D01*
X122475Y008938D01*
X122406Y008771D01*
X122406Y008591D01*
X122444Y008500D02*
X053888Y008500D01*
X053848Y008540D02*
X053693Y008604D01*
X053524Y008604D01*
X053369Y008540D01*
X053250Y008421D01*
X053185Y008266D01*
X053185Y008097D01*
X053250Y007942D01*
X053369Y007823D01*
X053524Y007758D01*
X053693Y007758D01*
X053848Y007823D01*
X053967Y007942D01*
X054032Y008097D01*
X054032Y008266D01*
X053967Y008421D01*
X053848Y008540D01*
X053996Y008351D02*
X122548Y008351D01*
X122416Y008797D02*
X053786Y008797D01*
X053969Y008945D02*
X122482Y008945D01*
X122672Y009094D02*
X054030Y009094D01*
X054032Y009243D02*
X132985Y009243D01*
X133018Y009229D02*
X133199Y009229D01*
X133365Y009298D01*
X133492Y009425D01*
X133561Y009591D01*
X133561Y009771D01*
X133492Y009938D01*
X133365Y010065D01*
X133199Y010134D01*
X133656Y010134D01*
X133656Y010091D02*
X133725Y009925D01*
X133852Y009798D01*
X134018Y009729D01*
X134199Y009729D01*
X134365Y009798D01*
X134492Y009925D01*
X134561Y010091D01*
X134561Y010271D01*
X134492Y010438D01*
X134365Y010565D01*
X134199Y010634D01*
X134018Y010634D01*
X133852Y010565D01*
X133725Y010438D01*
X133656Y010271D01*
X133656Y010091D01*
X133700Y009985D02*
X133445Y009985D01*
X133534Y009837D02*
X133813Y009837D01*
X133561Y009688D02*
X141921Y009688D01*
X141917Y009692D02*
X142146Y009462D01*
X142446Y009338D01*
X142771Y009338D01*
X143070Y009462D01*
X143300Y009692D01*
X143424Y009992D01*
X143424Y010316D01*
X143300Y010616D01*
X143070Y010845D01*
X142771Y010969D01*
X142446Y010969D01*
X142146Y010845D01*
X141917Y010616D01*
X141793Y010316D01*
X141793Y009992D01*
X141917Y009692D01*
X141857Y009837D02*
X134404Y009837D01*
X134517Y009985D02*
X141796Y009985D01*
X141793Y010134D02*
X134561Y010134D01*
X134557Y010282D02*
X141793Y010282D01*
X141841Y010431D02*
X134495Y010431D01*
X134330Y010579D02*
X141902Y010579D01*
X142029Y010728D02*
X103188Y010728D01*
X103300Y010616D02*
X103070Y010845D01*
X102771Y010969D01*
X102446Y010969D01*
X102146Y010845D01*
X101917Y010616D01*
X101793Y010316D01*
X101793Y009992D01*
X101917Y009692D01*
X102146Y009462D01*
X102446Y009338D01*
X102771Y009338D01*
X103070Y009462D01*
X103300Y009692D01*
X103424Y009992D01*
X103424Y010316D01*
X103300Y010616D01*
X103315Y010579D02*
X133887Y010579D01*
X133722Y010431D02*
X103376Y010431D01*
X103424Y010282D02*
X133660Y010282D01*
X133199Y010134D02*
X133018Y010134D01*
X103424Y010134D01*
X103421Y009985D02*
X132772Y009985D01*
X132725Y009938D02*
X132656Y009771D01*
X132656Y009591D01*
X132725Y009425D01*
X132852Y009298D01*
X133018Y009229D01*
X133232Y009243D02*
X160609Y009243D01*
X160609Y009391D02*
X147917Y009391D01*
X147967Y009442D02*
X148032Y009597D01*
X148032Y009766D01*
X147967Y009921D01*
X147848Y010040D01*
X147693Y010104D01*
X147524Y010104D01*
X147369Y010040D01*
X147250Y009921D01*
X147185Y009766D01*
X147185Y009597D01*
X147250Y009442D01*
X147369Y009323D01*
X147524Y009258D01*
X147693Y009258D01*
X147848Y009323D01*
X147967Y009442D01*
X148008Y009540D02*
X160609Y009540D01*
X160609Y009688D02*
X148032Y009688D01*
X148002Y009837D02*
X160609Y009837D01*
X160609Y009985D02*
X147903Y009985D01*
X147314Y009985D02*
X146403Y009985D01*
X146348Y010040D02*
X146193Y010104D01*
X146024Y010104D01*
X145869Y010040D01*
X145750Y009921D01*
X145685Y009766D01*
X145685Y009597D01*
X145750Y009442D01*
X145869Y009323D01*
X146024Y009258D01*
X146193Y009258D01*
X146348Y009323D01*
X146467Y009442D01*
X146532Y009597D01*
X146532Y009766D01*
X146467Y009921D01*
X146348Y010040D01*
X146502Y009837D02*
X147215Y009837D01*
X147185Y009688D02*
X146532Y009688D01*
X146508Y009540D02*
X147209Y009540D01*
X147300Y009391D02*
X146417Y009391D01*
X145800Y009391D02*
X142898Y009391D01*
X143148Y009540D02*
X145709Y009540D01*
X145685Y009688D02*
X143296Y009688D01*
X143360Y009837D02*
X145715Y009837D01*
X145814Y009985D02*
X143421Y009985D01*
X143424Y010134D02*
X160609Y010134D01*
X160609Y010282D02*
X143424Y010282D01*
X143376Y010431D02*
X160609Y010431D01*
X160609Y010579D02*
X143315Y010579D01*
X143188Y010728D02*
X160609Y010728D01*
X160609Y010877D02*
X142995Y010877D01*
X142222Y010877D02*
X136444Y010877D01*
X136492Y010925D02*
X136365Y010798D01*
X136199Y010729D01*
X136018Y010729D01*
X135852Y010798D01*
X135725Y010925D01*
X135656Y011091D01*
X135656Y011271D01*
X135725Y011438D01*
X135852Y011565D01*
X136018Y011634D01*
X136199Y011634D01*
X136365Y011565D01*
X136492Y011438D01*
X136561Y011271D01*
X136561Y011091D01*
X136492Y010925D01*
X136534Y011025D02*
X160609Y011025D01*
X160609Y011174D02*
X136561Y011174D01*
X136540Y011322D02*
X145870Y011322D01*
X145869Y011323D02*
X146024Y011258D01*
X146193Y011258D01*
X146348Y011323D01*
X146467Y011442D01*
X146532Y011597D01*
X146532Y011766D01*
X146467Y011921D01*
X146348Y012040D01*
X146193Y012104D01*
X146024Y012104D01*
X145869Y012040D01*
X145750Y011921D01*
X145685Y011766D01*
X145685Y011597D01*
X145750Y011442D01*
X145869Y011323D01*
X145738Y011471D02*
X143422Y011471D01*
X143383Y011454D02*
X143650Y011565D01*
X143855Y011770D01*
X143965Y012037D01*
X143965Y012326D01*
X143855Y012593D01*
X143650Y012798D01*
X143383Y012908D01*
X143094Y012908D01*
X142827Y012798D01*
X142622Y012593D01*
X142511Y012326D01*
X142511Y012037D01*
X142622Y011770D01*
X142827Y011565D01*
X143094Y011454D01*
X143383Y011454D01*
X143054Y011471D02*
X136459Y011471D01*
X136234Y011619D02*
X142772Y011619D01*
X142624Y011768D02*
X131561Y011768D01*
X131561Y011771D02*
X131492Y011938D01*
X131365Y012065D01*
X142511Y012065D01*
X142511Y012213D02*
X122609Y012213D01*
X122609Y012065D02*
X130852Y012065D01*
X130725Y011938D01*
X130656Y011771D01*
X130656Y011591D01*
X130725Y011425D01*
X130852Y011298D01*
X131018Y011229D01*
X131199Y011229D01*
X131365Y011298D01*
X131492Y011425D01*
X131561Y011591D01*
X131561Y011771D01*
X131561Y011619D02*
X135983Y011619D01*
X135758Y011471D02*
X131511Y011471D01*
X131389Y011322D02*
X135677Y011322D01*
X135656Y011174D02*
X130061Y011174D01*
X130061Y011091D02*
X129992Y010925D01*
X129865Y010798D01*
X129699Y010729D01*
X129518Y010729D01*
X129352Y010798D01*
X129225Y010925D01*
X129156Y011091D01*
X129156Y011271D01*
X129225Y011438D01*
X129352Y011565D01*
X129518Y011634D01*
X129699Y011634D01*
X129865Y011565D01*
X129992Y011438D01*
X130061Y011271D01*
X130061Y011091D01*
X130034Y011025D02*
X135683Y011025D01*
X135773Y010877D02*
X129944Y010877D01*
X129273Y010877D02*
X102995Y010877D01*
X102222Y010877D02*
X082995Y010877D01*
X083070Y010845D02*
X082771Y010969D01*
X082446Y010969D01*
X082146Y010845D01*
X081917Y010616D01*
X081793Y010316D01*
X081793Y009992D01*
X081917Y009692D01*
X082146Y009462D01*
X082446Y009338D01*
X082771Y009338D01*
X083070Y009462D01*
X083300Y009692D01*
X083424Y009992D01*
X083424Y010316D01*
X083300Y010616D01*
X083070Y010845D01*
X083188Y010728D02*
X102029Y010728D01*
X101902Y010579D02*
X083315Y010579D01*
X083376Y010431D02*
X101841Y010431D01*
X101793Y010282D02*
X083424Y010282D01*
X083424Y010134D02*
X101793Y010134D01*
X101796Y009985D02*
X083421Y009985D01*
X083360Y009837D02*
X101857Y009837D01*
X101921Y009688D02*
X083296Y009688D01*
X083148Y009540D02*
X102069Y009540D01*
X102319Y009391D02*
X082898Y009391D01*
X082319Y009391D02*
X062898Y009391D01*
X062771Y009338D02*
X063070Y009462D01*
X063300Y009692D01*
X063424Y009992D01*
X063424Y010316D01*
X063300Y010616D01*
X063070Y010845D01*
X062771Y010969D01*
X062446Y010969D01*
X062146Y010845D01*
X061917Y010616D01*
X061793Y010316D01*
X061793Y009992D01*
X061917Y009692D01*
X062146Y009462D01*
X062446Y009338D01*
X062771Y009338D01*
X063148Y009540D02*
X082069Y009540D01*
X081921Y009688D02*
X063296Y009688D01*
X063360Y009837D02*
X081857Y009837D01*
X081796Y009985D02*
X063421Y009985D01*
X063424Y010134D02*
X081793Y010134D01*
X081793Y010282D02*
X063424Y010282D01*
X063376Y010431D02*
X081841Y010431D01*
X081902Y010579D02*
X063315Y010579D01*
X063188Y010728D02*
X082029Y010728D01*
X082222Y010877D02*
X062995Y010877D01*
X062222Y010877D02*
X042995Y010877D01*
X043188Y010728D02*
X062029Y010728D01*
X061902Y010579D02*
X051253Y010579D01*
X051193Y010604D02*
X051024Y010604D01*
X050869Y010540D01*
X050750Y010421D01*
X050685Y010266D01*
X050685Y010097D01*
X050750Y009942D01*
X050869Y009823D01*
X051024Y009758D01*
X051193Y009758D01*
X051348Y009823D01*
X051467Y009942D01*
X051532Y010097D01*
X051532Y010266D01*
X051467Y010421D01*
X051348Y010540D01*
X051193Y010604D01*
X050964Y010579D02*
X043315Y010579D01*
X043376Y010431D02*
X050760Y010431D01*
X050692Y010282D02*
X043424Y010282D01*
X043424Y010134D02*
X050685Y010134D01*
X050732Y009985D02*
X043421Y009985D01*
X043360Y009837D02*
X050855Y009837D01*
X051362Y009837D02*
X061857Y009837D01*
X061796Y009985D02*
X051485Y009985D01*
X051532Y010134D02*
X061793Y010134D01*
X061793Y010282D02*
X051525Y010282D01*
X051457Y010431D02*
X061841Y010431D01*
X061921Y009688D02*
X043296Y009688D01*
X041921Y009688D02*
X039609Y009688D01*
X039609Y009837D02*
X041857Y009837D01*
X041796Y009985D02*
X039609Y009985D01*
X039609Y010134D02*
X041793Y010134D01*
X041793Y010282D02*
X039609Y010282D01*
X039609Y010431D02*
X041841Y010431D01*
X041902Y010579D02*
X039609Y010579D01*
X039609Y010681D02*
X026109Y010681D01*
X026109Y017674D01*
X020585Y017674D01*
X020678Y017767D01*
X020767Y017980D01*
X020767Y018210D01*
X020678Y018423D01*
X020515Y018586D01*
X020302Y018674D01*
X020072Y018674D01*
X019859Y018586D01*
X019696Y018423D01*
X019608Y018210D01*
X019608Y017980D01*
X019696Y017767D01*
X019789Y017674D01*
X018109Y017674D01*
X018109Y019985D01*
X020040Y019985D01*
X019887Y019921D01*
X019739Y019773D01*
X019658Y019578D01*
X019658Y019516D01*
X020144Y019516D01*
X020144Y019430D01*
X019658Y019430D01*
X019658Y019367D01*
X019739Y019173D01*
X019887Y019024D01*
X020082Y018943D01*
X020144Y018943D01*
X020144Y019429D01*
X020230Y019429D01*
X020230Y018943D01*
X020293Y018943D01*
X020487Y019024D01*
X020636Y019173D01*
X020717Y019367D01*
X020717Y019430D01*
X020231Y019430D01*
X020231Y019516D01*
X020717Y019516D01*
X020717Y019578D01*
X020636Y019773D01*
X020487Y019921D01*
X020335Y019985D01*
X029538Y019985D01*
X029538Y017406D01*
X029510Y017426D01*
X029510Y016681D01*
X038656Y016681D01*
X038656Y016591D01*
X038725Y016425D01*
X038852Y016298D01*
X039018Y016229D01*
X039199Y016229D01*
X039365Y016298D01*
X039492Y016425D01*
X039561Y016591D01*
X039561Y016681D01*
X106609Y016681D01*
X106609Y011181D01*
X122609Y011181D01*
X122609Y013681D01*
X141983Y013681D01*
X142146Y013518D01*
X142446Y013393D01*
X142771Y013393D01*
X143070Y013518D01*
X143234Y013681D01*
X160609Y013681D01*
X160609Y006681D01*
X154061Y006681D01*
X154061Y006771D01*
X153992Y006938D01*
X153865Y007065D01*
X153699Y007134D01*
X153518Y007134D01*
X153352Y007065D01*
X153225Y006938D01*
X153156Y006771D01*
X153156Y006681D01*
X143424Y006681D01*
X143424Y006871D01*
X143300Y007171D01*
X143070Y007400D01*
X142771Y007524D01*
X142446Y007524D01*
X142146Y007400D01*
X141917Y007171D01*
X141793Y006871D01*
X141793Y006681D01*
X139311Y006681D01*
X139311Y006771D01*
X139242Y006938D01*
X139115Y007065D01*
X138949Y007134D01*
X138768Y007134D01*
X138602Y007065D01*
X138475Y006938D01*
X138406Y006771D01*
X138406Y006681D01*
X103424Y006681D01*
X103424Y006871D01*
X103300Y007171D01*
X103070Y007400D01*
X102771Y007524D01*
X102446Y007524D01*
X102146Y007400D01*
X101917Y007171D01*
X101793Y006871D01*
X101793Y006681D01*
X083424Y006681D01*
X083424Y006871D01*
X083300Y007171D01*
X083070Y007400D01*
X082771Y007524D01*
X082446Y007524D01*
X082146Y007400D01*
X081917Y007171D01*
X081793Y006871D01*
X081793Y006681D01*
X063424Y006681D01*
X063424Y006871D01*
X063300Y007171D01*
X063070Y007400D01*
X062771Y007524D01*
X062446Y007524D01*
X062146Y007400D01*
X061917Y007171D01*
X061793Y006871D01*
X061793Y006681D01*
X057457Y006681D01*
X057348Y006790D01*
X057193Y006854D01*
X057024Y006854D01*
X056869Y006790D01*
X056760Y006681D01*
X053032Y006681D01*
X053032Y006766D01*
X052967Y006921D01*
X052848Y007040D01*
X052693Y007104D01*
X052524Y007104D01*
X052369Y007040D01*
X052250Y006921D01*
X052185Y006766D01*
X052185Y006681D01*
X051032Y006681D01*
X051032Y006766D01*
X050967Y006921D01*
X050848Y007040D01*
X050693Y007104D01*
X050524Y007104D01*
X050369Y007040D01*
X050250Y006921D01*
X050185Y006766D01*
X050185Y006681D01*
X043424Y006681D01*
X043424Y006871D01*
X043300Y007171D01*
X043070Y007400D01*
X042771Y007524D01*
X042446Y007524D01*
X042146Y007400D01*
X041917Y007171D01*
X041793Y006871D01*
X041793Y006681D01*
X039609Y006681D01*
X039609Y010681D01*
X042029Y010728D02*
X026109Y010728D01*
X026109Y010877D02*
X042222Y010877D01*
X042827Y011565D02*
X043094Y011454D01*
X043383Y011454D01*
X043650Y011565D01*
X043855Y011770D01*
X043965Y012037D01*
X043965Y012326D01*
X043855Y012593D01*
X043650Y012798D01*
X043383Y012908D01*
X043094Y012908D01*
X042827Y012798D01*
X042622Y012593D01*
X042511Y012326D01*
X042511Y012037D01*
X042622Y011770D01*
X042827Y011565D01*
X042772Y011619D02*
X026109Y011619D01*
X026109Y011471D02*
X043054Y011471D01*
X043422Y011471D02*
X063054Y011471D01*
X063094Y011454D02*
X063383Y011454D01*
X063650Y011565D01*
X063855Y011770D01*
X063965Y012037D01*
X063965Y012326D01*
X063855Y012593D01*
X063650Y012798D01*
X063383Y012908D01*
X063094Y012908D01*
X062827Y012798D01*
X062622Y012593D01*
X062511Y012326D01*
X062511Y012037D01*
X062622Y011770D01*
X062827Y011565D01*
X063094Y011454D01*
X063422Y011471D02*
X083054Y011471D01*
X083094Y011454D02*
X083383Y011454D01*
X083650Y011565D01*
X083855Y011770D01*
X083965Y012037D01*
X083965Y012326D01*
X083855Y012593D01*
X083650Y012798D01*
X083383Y012908D01*
X083094Y012908D01*
X082827Y012798D01*
X082622Y012593D01*
X082511Y012326D01*
X082511Y012037D01*
X082622Y011770D01*
X082827Y011565D01*
X083094Y011454D01*
X083422Y011471D02*
X103054Y011471D01*
X103094Y011454D02*
X103383Y011454D01*
X103650Y011565D01*
X103855Y011770D01*
X103965Y012037D01*
X103965Y012326D01*
X103855Y012593D01*
X103650Y012798D01*
X103383Y012908D01*
X103094Y012908D01*
X102827Y012798D01*
X102622Y012593D01*
X102511Y012326D01*
X102511Y012037D01*
X102622Y011770D01*
X102827Y011565D01*
X103094Y011454D01*
X103422Y011471D02*
X106609Y011471D01*
X106609Y011619D02*
X103704Y011619D01*
X103853Y011768D02*
X106609Y011768D01*
X106609Y011916D02*
X103915Y011916D01*
X103965Y012065D02*
X106609Y012065D01*
X106609Y012213D02*
X103965Y012213D01*
X103950Y012362D02*
X106609Y012362D01*
X106609Y012511D02*
X103889Y012511D01*
X103789Y012659D02*
X106609Y012659D01*
X106609Y012808D02*
X103626Y012808D01*
X102851Y012808D02*
X083626Y012808D01*
X083789Y012659D02*
X102688Y012659D01*
X102588Y012511D02*
X083889Y012511D01*
X083950Y012362D02*
X102526Y012362D01*
X102511Y012213D02*
X083965Y012213D01*
X083965Y012065D02*
X102511Y012065D01*
X102561Y011916D02*
X083915Y011916D01*
X083853Y011768D02*
X102624Y011768D01*
X102772Y011619D02*
X083704Y011619D01*
X082772Y011619D02*
X063704Y011619D01*
X063853Y011768D02*
X082624Y011768D01*
X082561Y011916D02*
X063915Y011916D01*
X063965Y012065D02*
X082511Y012065D01*
X082511Y012213D02*
X063965Y012213D01*
X063950Y012362D02*
X082526Y012362D01*
X082588Y012511D02*
X063889Y012511D01*
X063789Y012659D02*
X082688Y012659D01*
X082851Y012808D02*
X063626Y012808D01*
X062851Y012808D02*
X059312Y012808D01*
X059348Y012823D02*
X059467Y012942D01*
X059532Y013097D01*
X059532Y013266D01*
X059467Y013421D01*
X059348Y013540D01*
X059193Y013604D01*
X059024Y013604D01*
X058869Y013540D01*
X058750Y013421D01*
X058685Y013266D01*
X058685Y013097D01*
X058750Y012942D01*
X058869Y012823D01*
X059024Y012758D01*
X059193Y012758D01*
X059348Y012823D01*
X059473Y012956D02*
X106609Y012956D01*
X106609Y013105D02*
X059532Y013105D01*
X059532Y013253D02*
X106609Y013253D01*
X106609Y013402D02*
X102791Y013402D01*
X102771Y013393D02*
X103070Y013518D01*
X103300Y013747D01*
X103424Y014047D01*
X103424Y014371D01*
X103300Y014671D01*
X103070Y014900D01*
X102771Y015024D01*
X102446Y015024D01*
X102146Y014900D01*
X101917Y014671D01*
X101793Y014371D01*
X101793Y014047D01*
X101917Y013747D01*
X102146Y013518D01*
X102446Y013393D01*
X102771Y013393D01*
X102426Y013402D02*
X082791Y013402D01*
X082771Y013393D02*
X083070Y013518D01*
X083300Y013747D01*
X083424Y014047D01*
X083424Y014371D01*
X083300Y014671D01*
X083070Y014900D01*
X082771Y015024D01*
X082446Y015024D01*
X082146Y014900D01*
X081917Y014671D01*
X081793Y014371D01*
X081793Y014047D01*
X081917Y013747D01*
X082146Y013518D01*
X082446Y013393D01*
X082771Y013393D01*
X082426Y013402D02*
X062791Y013402D01*
X062771Y013393D02*
X063070Y013518D01*
X063300Y013747D01*
X063424Y014047D01*
X063424Y014371D01*
X063300Y014671D01*
X063070Y014900D01*
X062771Y015024D01*
X062446Y015024D01*
X062146Y014900D01*
X061917Y014671D01*
X061793Y014371D01*
X061793Y014047D01*
X061917Y013747D01*
X062146Y013518D01*
X062446Y013393D01*
X062771Y013393D01*
X062426Y013402D02*
X059475Y013402D01*
X059323Y013550D02*
X062114Y013550D01*
X061965Y013699D02*
X043252Y013699D01*
X043300Y013747D02*
X043070Y013518D01*
X042771Y013393D01*
X042446Y013393D01*
X042146Y013518D01*
X041917Y013747D01*
X041793Y014047D01*
X041793Y014371D01*
X041917Y014671D01*
X042146Y014900D01*
X042446Y015024D01*
X042771Y015024D01*
X043070Y014900D01*
X043300Y014671D01*
X043424Y014371D01*
X043424Y014047D01*
X043300Y013747D01*
X043341Y013847D02*
X061876Y013847D01*
X061814Y013996D02*
X043403Y013996D01*
X043424Y014144D02*
X061793Y014144D01*
X061793Y014293D02*
X043424Y014293D01*
X043395Y014442D02*
X061822Y014442D01*
X061884Y014590D02*
X043333Y014590D01*
X043232Y014739D02*
X061985Y014739D01*
X062133Y014887D02*
X043084Y014887D01*
X042133Y014887D02*
X030454Y014887D01*
X030492Y014925D02*
X030561Y015091D01*
X030561Y015271D01*
X030492Y015438D01*
X030365Y015565D01*
X030199Y015634D01*
X030018Y015634D01*
X029852Y015565D01*
X029725Y015438D01*
X029656Y015271D01*
X029656Y015091D01*
X029725Y014925D01*
X029852Y014798D01*
X030018Y014729D01*
X030199Y014729D01*
X030365Y014798D01*
X030492Y014925D01*
X030538Y015036D02*
X106609Y015036D01*
X106609Y015184D02*
X030561Y015184D01*
X030536Y015333D02*
X060359Y015333D01*
X060369Y015323D02*
X060524Y015258D01*
X060693Y015258D01*
X060848Y015323D01*
X060967Y015442D01*
X061032Y015597D01*
X061032Y015766D01*
X060967Y015921D01*
X060848Y016040D01*
X060693Y016104D01*
X060524Y016104D01*
X060369Y016040D01*
X060250Y015921D01*
X060185Y015766D01*
X060185Y015597D01*
X060250Y015442D01*
X060369Y015323D01*
X060233Y015481D02*
X030449Y015481D01*
X030208Y015630D02*
X060185Y015630D01*
X060191Y015778D02*
X026109Y015778D01*
X026109Y015630D02*
X030009Y015630D01*
X029768Y015481D02*
X026109Y015481D01*
X026109Y015333D02*
X029681Y015333D01*
X029656Y015184D02*
X026109Y015184D01*
X026109Y015036D02*
X029679Y015036D01*
X029763Y014887D02*
X026109Y014887D01*
X026109Y014739D02*
X029995Y014739D01*
X030222Y014739D02*
X041985Y014739D01*
X041884Y014590D02*
X026109Y014590D01*
X026109Y014442D02*
X041822Y014442D01*
X041793Y014293D02*
X026109Y014293D01*
X026109Y014144D02*
X041793Y014144D01*
X041814Y013996D02*
X035934Y013996D01*
X035992Y013938D02*
X035865Y014065D01*
X035699Y014134D01*
X035518Y014134D01*
X035352Y014065D01*
X035225Y013938D01*
X035156Y013771D01*
X035156Y013591D01*
X035225Y013425D01*
X035352Y013298D01*
X035518Y013229D01*
X035699Y013229D01*
X035865Y013298D01*
X035992Y013425D01*
X036061Y013591D01*
X036061Y013771D01*
X035992Y013938D01*
X036030Y013847D02*
X041876Y013847D01*
X041965Y013699D02*
X036061Y013699D01*
X036044Y013550D02*
X042114Y013550D01*
X042426Y013402D02*
X035969Y013402D01*
X035758Y013253D02*
X058685Y013253D01*
X058685Y013105D02*
X026109Y013105D01*
X026109Y013253D02*
X035459Y013253D01*
X035248Y013402D02*
X026109Y013402D01*
X026109Y013550D02*
X035173Y013550D01*
X035156Y013699D02*
X026109Y013699D01*
X026109Y013847D02*
X035187Y013847D01*
X035283Y013996D02*
X026109Y013996D01*
X025609Y013996D02*
X020767Y013996D01*
X020767Y014076D02*
X020678Y014289D01*
X020515Y014452D01*
X020302Y014540D01*
X020072Y014540D01*
X019859Y014452D01*
X019696Y014289D01*
X019608Y014076D01*
X019608Y013846D01*
X019696Y013633D01*
X019859Y013470D01*
X020072Y013382D01*
X020302Y013382D01*
X020515Y013470D01*
X020678Y013633D01*
X020767Y013846D01*
X020767Y014076D01*
X020738Y014144D02*
X025609Y014144D01*
X025609Y014293D02*
X020674Y014293D01*
X020526Y014442D02*
X025609Y014442D01*
X025609Y014590D02*
X018109Y014590D01*
X018109Y014442D02*
X019849Y014442D01*
X019700Y014293D02*
X018109Y014293D01*
X018109Y014144D02*
X019636Y014144D01*
X019608Y013996D02*
X018109Y013996D01*
X018109Y013847D02*
X019608Y013847D01*
X019669Y013699D02*
X018109Y013699D01*
X018109Y013550D02*
X019779Y013550D01*
X020023Y013402D02*
X018109Y013402D01*
X018109Y013253D02*
X025609Y013253D01*
X025609Y013105D02*
X020442Y013105D01*
X020515Y013074D02*
X020302Y013162D01*
X020072Y013162D01*
X019859Y013074D01*
X019696Y012911D01*
X019608Y012698D01*
X019608Y012468D01*
X019696Y012255D01*
X019859Y012092D01*
X020072Y012004D01*
X020302Y012004D01*
X020515Y012092D01*
X020678Y012255D01*
X020767Y012468D01*
X020767Y012698D01*
X020678Y012911D01*
X020515Y013074D01*
X020633Y012956D02*
X025609Y012956D01*
X025609Y012808D02*
X020721Y012808D01*
X020767Y012659D02*
X025609Y012659D01*
X025609Y012511D02*
X020767Y012511D01*
X020723Y012362D02*
X025609Y012362D01*
X025609Y012213D02*
X020637Y012213D01*
X020450Y012065D02*
X022429Y012065D01*
X022369Y012040D02*
X022250Y011921D01*
X022185Y011766D01*
X022185Y011597D01*
X022250Y011442D01*
X022369Y011323D01*
X022524Y011258D01*
X022693Y011258D01*
X022848Y011323D01*
X022967Y011442D01*
X023032Y011597D01*
X023032Y011766D01*
X022967Y011921D01*
X022848Y012040D01*
X022693Y012104D01*
X022524Y012104D01*
X022369Y012040D01*
X022248Y011916D02*
X018109Y011916D01*
X018109Y011768D02*
X022186Y011768D01*
X022185Y011619D02*
X018109Y011619D01*
X018109Y011471D02*
X022238Y011471D01*
X022370Y011322D02*
X018109Y011322D01*
X018109Y011174D02*
X025609Y011174D01*
X025609Y011322D02*
X022847Y011322D01*
X022979Y011471D02*
X025609Y011471D01*
X025609Y011619D02*
X023032Y011619D01*
X023031Y011768D02*
X025609Y011768D01*
X025609Y011916D02*
X022969Y011916D01*
X022788Y012065D02*
X025609Y012065D01*
X026109Y012065D02*
X033167Y012065D01*
X033156Y012091D02*
X033225Y011925D01*
X033352Y011798D01*
X033518Y011729D01*
X033699Y011729D01*
X033865Y011798D01*
X033992Y011925D01*
X034061Y012091D01*
X034061Y012271D01*
X033992Y012438D01*
X033865Y012565D01*
X033699Y012634D01*
X033518Y012634D01*
X033352Y012565D01*
X033225Y012438D01*
X033156Y012271D01*
X033156Y012091D01*
X033156Y012213D02*
X026109Y012213D01*
X026109Y012362D02*
X030330Y012362D01*
X030369Y012323D02*
X030524Y012258D01*
X030693Y012258D01*
X030848Y012323D01*
X030967Y012442D01*
X031032Y012597D01*
X031032Y012766D01*
X030967Y012921D01*
X030848Y013040D01*
X030693Y013104D01*
X030524Y013104D01*
X030369Y013040D01*
X030250Y012921D01*
X030185Y012766D01*
X030185Y012597D01*
X030250Y012442D01*
X030369Y012323D01*
X030221Y012511D02*
X026109Y012511D01*
X026109Y012659D02*
X030185Y012659D01*
X030203Y012808D02*
X026109Y012808D01*
X026109Y012956D02*
X030285Y012956D01*
X030932Y012956D02*
X058744Y012956D01*
X058905Y012808D02*
X043626Y012808D01*
X043789Y012659D02*
X062688Y012659D01*
X062588Y012511D02*
X043889Y012511D01*
X043950Y012362D02*
X062526Y012362D01*
X062511Y012213D02*
X043965Y012213D01*
X043965Y012065D02*
X062511Y012065D01*
X062561Y011916D02*
X043915Y011916D01*
X043853Y011768D02*
X062624Y011768D01*
X062772Y011619D02*
X043704Y011619D01*
X042624Y011768D02*
X033793Y011768D01*
X033984Y011916D02*
X042561Y011916D01*
X042511Y012065D02*
X034050Y012065D01*
X034061Y012213D02*
X042511Y012213D01*
X042526Y012362D02*
X034024Y012362D01*
X033919Y012511D02*
X042588Y012511D01*
X042688Y012659D02*
X031032Y012659D01*
X031014Y012808D02*
X042851Y012808D01*
X042791Y013402D02*
X058742Y013402D01*
X058894Y013550D02*
X043103Y013550D01*
X033424Y011768D02*
X026109Y011768D01*
X026109Y011916D02*
X033233Y011916D01*
X033193Y012362D02*
X030887Y012362D01*
X030996Y012511D02*
X033297Y012511D01*
X026109Y011322D02*
X106609Y011322D01*
X107609Y011681D02*
X107609Y017181D01*
X103289Y017181D01*
X103300Y017192D01*
X103424Y017492D01*
X103424Y017816D01*
X103300Y018116D01*
X103070Y018345D01*
X102771Y018469D01*
X102446Y018469D01*
X102146Y018345D01*
X101917Y018116D01*
X101793Y017816D01*
X101793Y017492D01*
X101917Y017192D01*
X101928Y017181D01*
X083289Y017181D01*
X083300Y017192D01*
X083424Y017492D01*
X083424Y017816D01*
X083300Y018116D01*
X083070Y018345D01*
X082771Y018469D01*
X082446Y018469D01*
X082146Y018345D01*
X081917Y018116D01*
X081793Y017816D01*
X081793Y017492D01*
X081917Y017192D01*
X081928Y017181D01*
X063289Y017181D01*
X063300Y017192D01*
X063424Y017492D01*
X063424Y017816D01*
X063300Y018116D01*
X063070Y018345D01*
X062771Y018469D01*
X062446Y018469D01*
X062146Y018345D01*
X061917Y018116D01*
X061793Y017816D01*
X061793Y017492D01*
X061917Y017192D01*
X061928Y017181D01*
X043289Y017181D01*
X043300Y017192D01*
X043424Y017492D01*
X043424Y017816D01*
X043300Y018116D01*
X043070Y018345D01*
X042771Y018469D01*
X042446Y018469D01*
X042146Y018345D01*
X041917Y018116D01*
X041793Y017816D01*
X041793Y017492D01*
X041917Y017192D01*
X041928Y017181D01*
X030109Y017181D01*
X030109Y020386D01*
X029412Y020386D01*
X029467Y020442D01*
X029532Y020597D01*
X029532Y020766D01*
X029467Y020921D01*
X029348Y021040D01*
X029193Y021104D01*
X029024Y021104D01*
X028869Y021040D01*
X028750Y020921D01*
X028685Y020766D01*
X028685Y020597D01*
X028750Y020442D01*
X028805Y020386D01*
X020542Y020386D01*
X020678Y020523D01*
X020767Y020735D01*
X020767Y020966D01*
X020678Y021179D01*
X020515Y021342D01*
X020302Y021430D01*
X020072Y021430D01*
X019859Y021342D01*
X019696Y021179D01*
X019608Y020966D01*
X019608Y020735D01*
X019696Y020523D01*
X019833Y020386D01*
X018109Y020386D01*
X018109Y022697D01*
X019935Y022697D01*
X019887Y022677D01*
X019739Y022528D01*
X019658Y022334D01*
X019658Y022272D01*
X020144Y022272D01*
X020144Y022185D01*
X020230Y022185D01*
X020230Y021699D01*
X020293Y021699D01*
X020487Y021780D01*
X020636Y021929D01*
X020717Y022123D01*
X020717Y022185D01*
X020231Y022185D01*
X020231Y022272D01*
X020717Y022272D01*
X020717Y022334D01*
X020636Y022528D01*
X020487Y022677D01*
X020439Y022697D01*
X027766Y022697D01*
X027766Y023607D01*
X115589Y023656D01*
X115589Y023578D01*
X115668Y023387D01*
X115814Y023241D01*
X115957Y023181D01*
X115814Y023122D01*
X115668Y022976D01*
X115589Y022785D01*
X115589Y022578D01*
X115668Y022387D01*
X115814Y022241D01*
X115957Y022181D01*
X115814Y022122D01*
X115668Y021976D01*
X115589Y021785D01*
X115589Y021578D01*
X115668Y021387D01*
X115814Y021241D01*
X115957Y021181D01*
X115814Y021122D01*
X115668Y020976D01*
X115589Y020785D01*
X115589Y020578D01*
X115668Y020387D01*
X115814Y020241D01*
X115957Y020181D01*
X115814Y020122D01*
X115668Y019976D01*
X115589Y019785D01*
X115589Y019578D01*
X115668Y019387D01*
X115814Y019241D01*
X115957Y019181D01*
X115814Y019122D01*
X115668Y018976D01*
X115589Y018785D01*
X115589Y018578D01*
X115668Y018387D01*
X115814Y018241D01*
X116005Y018161D01*
X116212Y018161D01*
X116403Y018241D01*
X116549Y018387D01*
X116608Y018530D01*
X116668Y018387D01*
X116814Y018241D01*
X116957Y018181D01*
X116814Y018122D01*
X116668Y017976D01*
X116589Y017785D01*
X116589Y017578D01*
X116668Y017387D01*
X116814Y017241D01*
X116957Y017181D01*
X116814Y017122D01*
X116668Y016976D01*
X116608Y016833D01*
X116549Y016976D01*
X116403Y017122D01*
X116212Y017201D01*
X116005Y017201D01*
X115814Y017122D01*
X115668Y016976D01*
X115589Y016785D01*
X115589Y016578D01*
X115668Y016387D01*
X115814Y016241D01*
X115957Y016181D01*
X115814Y016122D01*
X115668Y015976D01*
X115589Y015785D01*
X115589Y015578D01*
X115668Y015387D01*
X115814Y015241D01*
X116005Y015161D01*
X116212Y015161D01*
X116403Y015241D01*
X116549Y015387D01*
X116608Y015530D01*
X116668Y015387D01*
X116814Y015241D01*
X117005Y015161D01*
X117212Y015161D01*
X117403Y015241D01*
X117549Y015387D01*
X117628Y015578D01*
X117628Y015785D01*
X117549Y015976D01*
X117403Y016122D01*
X117260Y016181D01*
X117403Y016241D01*
X117549Y016387D01*
X117628Y016578D01*
X117628Y016785D01*
X117549Y016976D01*
X117403Y017122D01*
X117260Y017181D01*
X117403Y017241D01*
X117549Y017387D01*
X117628Y017578D01*
X117628Y017785D01*
X117549Y017976D01*
X117403Y018122D01*
X117260Y018181D01*
X117403Y018241D01*
X117549Y018387D01*
X117628Y018578D01*
X117628Y018785D01*
X117549Y018976D01*
X117403Y019122D01*
X117260Y019181D01*
X117403Y019241D01*
X117549Y019387D01*
X117628Y019578D01*
X117628Y019785D01*
X117549Y019976D01*
X117403Y020122D01*
X117260Y020181D01*
X117403Y020241D01*
X117549Y020387D01*
X117628Y020578D01*
X117628Y020785D01*
X117549Y020976D01*
X117403Y021122D01*
X117260Y021181D01*
X117403Y021241D01*
X117549Y021387D01*
X117628Y021578D01*
X117628Y021785D01*
X117549Y021976D01*
X117403Y022122D01*
X117260Y022181D01*
X117403Y022241D01*
X117549Y022387D01*
X117628Y022578D01*
X117628Y022785D01*
X117549Y022976D01*
X117403Y023122D01*
X117260Y023181D01*
X117403Y023241D01*
X117549Y023387D01*
X117628Y023578D01*
X117628Y023657D01*
X148656Y023674D01*
X148656Y023591D01*
X148725Y023425D01*
X148852Y023298D01*
X149018Y023229D01*
X149199Y023229D01*
X149365Y023298D01*
X149492Y023425D01*
X149561Y023591D01*
X149561Y023675D01*
X161109Y023681D01*
X161109Y014681D01*
X144745Y014681D01*
X144742Y014688D01*
X144615Y014815D01*
X144449Y014884D01*
X144268Y014884D01*
X144102Y014815D01*
X143975Y014688D01*
X143972Y014681D01*
X143289Y014681D01*
X143070Y014900D01*
X142771Y015024D01*
X142446Y015024D01*
X142146Y014900D01*
X141928Y014681D01*
X126061Y014681D01*
X126061Y014771D01*
X125992Y014938D01*
X125865Y015065D01*
X125699Y015134D01*
X125518Y015134D01*
X125352Y015065D01*
X125225Y014938D01*
X125156Y014771D01*
X125156Y014681D01*
X121609Y014681D01*
X121609Y011681D01*
X107609Y011681D01*
X107609Y011768D02*
X121609Y011768D01*
X121609Y011916D02*
X107609Y011916D01*
X107609Y012065D02*
X121609Y012065D01*
X121609Y012213D02*
X107609Y012213D01*
X107609Y012362D02*
X121609Y012362D01*
X121609Y012511D02*
X107609Y012511D01*
X107609Y012659D02*
X121609Y012659D01*
X121609Y012808D02*
X107609Y012808D01*
X107609Y012956D02*
X121609Y012956D01*
X121609Y013105D02*
X107609Y013105D01*
X107609Y013253D02*
X121609Y013253D01*
X121609Y013402D02*
X107609Y013402D01*
X107609Y013550D02*
X121609Y013550D01*
X121609Y013699D02*
X107609Y013699D01*
X107609Y013847D02*
X121609Y013847D01*
X121609Y013996D02*
X107609Y013996D01*
X107609Y014144D02*
X121609Y014144D01*
X121609Y014293D02*
X107609Y014293D01*
X107609Y014442D02*
X121609Y014442D01*
X121609Y014590D02*
X107609Y014590D01*
X107609Y014739D02*
X125156Y014739D01*
X125204Y014887D02*
X107609Y014887D01*
X107609Y015036D02*
X125323Y015036D01*
X125894Y015036D02*
X150461Y015036D01*
X150435Y015097D02*
X150500Y014942D01*
X150619Y014823D01*
X150774Y014758D01*
X150943Y014758D01*
X151098Y014823D01*
X151217Y014942D01*
X151282Y015097D01*
X151282Y015266D01*
X151217Y015421D01*
X151098Y015540D01*
X150943Y015604D01*
X150774Y015604D01*
X150619Y015540D01*
X150500Y015421D01*
X150435Y015266D01*
X150435Y015097D01*
X150435Y015184D02*
X117267Y015184D01*
X117495Y015333D02*
X146817Y015333D01*
X146852Y015298D02*
X147018Y015229D01*
X147199Y015229D01*
X147365Y015298D01*
X147492Y015425D01*
X147561Y015591D01*
X147561Y015771D01*
X147492Y015938D01*
X147365Y016065D01*
X147199Y016134D01*
X147018Y016134D01*
X146852Y016065D01*
X146725Y015938D01*
X146656Y015771D01*
X146656Y015591D01*
X146725Y015425D01*
X146852Y015298D01*
X146701Y015481D02*
X117588Y015481D01*
X117628Y015630D02*
X146656Y015630D01*
X146659Y015778D02*
X117628Y015778D01*
X117570Y015927D02*
X146720Y015927D01*
X146877Y016076D02*
X117450Y016076D01*
X117363Y016224D02*
X161109Y016224D01*
X161109Y016076D02*
X147340Y016076D01*
X147497Y015927D02*
X161109Y015927D01*
X161109Y015778D02*
X147558Y015778D01*
X147561Y015630D02*
X161109Y015630D01*
X161109Y015481D02*
X151157Y015481D01*
X151254Y015333D02*
X161109Y015333D01*
X161109Y015184D02*
X151282Y015184D01*
X151256Y015036D02*
X161109Y015036D01*
X161109Y014887D02*
X151163Y014887D01*
X150554Y014887D02*
X143084Y014887D01*
X143232Y014739D02*
X144026Y014739D01*
X144691Y014739D02*
X161109Y014739D01*
X160609Y013550D02*
X152380Y013550D01*
X152365Y013565D02*
X152199Y013634D01*
X152018Y013634D01*
X151852Y013565D01*
X151725Y013438D01*
X151656Y013271D01*
X151656Y013091D01*
X151725Y012925D01*
X151852Y012798D01*
X152018Y012729D01*
X152199Y012729D01*
X152365Y012798D01*
X152492Y012925D01*
X152561Y013091D01*
X152561Y013271D01*
X152492Y013438D01*
X152365Y013565D01*
X152507Y013402D02*
X160609Y013402D01*
X160609Y013253D02*
X152561Y013253D01*
X152561Y013105D02*
X160609Y013105D01*
X160609Y012956D02*
X152505Y012956D01*
X152375Y012808D02*
X160609Y012808D01*
X160609Y012659D02*
X143789Y012659D01*
X143889Y012511D02*
X160609Y012511D01*
X160609Y012362D02*
X143950Y012362D01*
X143965Y012213D02*
X160609Y012213D01*
X160609Y012065D02*
X147788Y012065D01*
X147848Y012040D02*
X147693Y012104D01*
X147524Y012104D01*
X147369Y012040D01*
X147250Y011921D01*
X147185Y011766D01*
X147185Y011597D01*
X147250Y011442D01*
X147369Y011323D01*
X147524Y011258D01*
X147693Y011258D01*
X147848Y011323D01*
X147967Y011442D01*
X148032Y011597D01*
X148032Y011766D01*
X147967Y011921D01*
X147848Y012040D01*
X147969Y011916D02*
X160609Y011916D01*
X160609Y011768D02*
X148031Y011768D01*
X148032Y011619D02*
X160609Y011619D01*
X160609Y011471D02*
X147979Y011471D01*
X147847Y011322D02*
X160609Y011322D01*
X151842Y012808D02*
X151312Y012808D01*
X151348Y012823D02*
X151467Y012942D01*
X151532Y013097D01*
X151532Y013266D01*
X151467Y013421D01*
X151348Y013540D01*
X151193Y013604D01*
X151024Y013604D01*
X150869Y013540D01*
X150750Y013421D01*
X150685Y013266D01*
X150685Y013097D01*
X150750Y012942D01*
X150869Y012823D01*
X151024Y012758D01*
X151193Y012758D01*
X151348Y012823D01*
X151473Y012956D02*
X151712Y012956D01*
X151656Y013105D02*
X151532Y013105D01*
X151532Y013253D02*
X151656Y013253D01*
X151710Y013402D02*
X151475Y013402D01*
X151323Y013550D02*
X151837Y013550D01*
X150894Y013550D02*
X147823Y013550D01*
X147848Y013540D02*
X147693Y013604D01*
X147524Y013604D01*
X147369Y013540D01*
X147250Y013421D01*
X147185Y013266D01*
X147185Y013097D01*
X147250Y012942D01*
X147369Y012823D01*
X147524Y012758D01*
X147693Y012758D01*
X147848Y012823D01*
X147967Y012942D01*
X148032Y013097D01*
X148032Y013266D01*
X147967Y013421D01*
X147848Y013540D01*
X147975Y013402D02*
X150742Y013402D01*
X150685Y013253D02*
X148032Y013253D01*
X148032Y013105D02*
X150685Y013105D01*
X150744Y012956D02*
X147973Y012956D01*
X147812Y012808D02*
X150905Y012808D01*
X147405Y012808D02*
X146312Y012808D01*
X146348Y012823D02*
X146467Y012942D01*
X146532Y013097D01*
X146532Y013266D01*
X146467Y013421D01*
X146348Y013540D01*
X146193Y013604D01*
X146024Y013604D01*
X145869Y013540D01*
X145750Y013421D01*
X145685Y013266D01*
X145685Y013097D01*
X145750Y012942D01*
X145869Y012823D01*
X146024Y012758D01*
X146193Y012758D01*
X146348Y012823D01*
X146473Y012956D02*
X147244Y012956D01*
X147185Y013105D02*
X146532Y013105D01*
X146532Y013253D02*
X147185Y013253D01*
X147242Y013402D02*
X146475Y013402D01*
X146323Y013550D02*
X147394Y013550D01*
X145894Y013550D02*
X143103Y013550D01*
X142791Y013402D02*
X145742Y013402D01*
X145685Y013253D02*
X125532Y013253D01*
X125532Y013266D02*
X125467Y013421D01*
X125348Y013540D01*
X125193Y013604D01*
X125024Y013604D01*
X124869Y013540D01*
X124750Y013421D01*
X124685Y013266D01*
X124685Y013097D01*
X124750Y012942D01*
X124869Y012823D01*
X125024Y012758D01*
X125193Y012758D01*
X125348Y012823D01*
X125467Y012942D01*
X125532Y013097D01*
X125532Y013266D01*
X125475Y013402D02*
X142426Y013402D01*
X142114Y013550D02*
X125323Y013550D01*
X124894Y013550D02*
X122609Y013550D01*
X122609Y013402D02*
X124742Y013402D01*
X124685Y013253D02*
X122609Y013253D01*
X122609Y013105D02*
X124685Y013105D01*
X124744Y012956D02*
X122609Y012956D01*
X122609Y012808D02*
X124905Y012808D01*
X125312Y012808D02*
X126171Y012808D01*
X126156Y012771D02*
X126156Y012591D01*
X126225Y012425D01*
X126352Y012298D01*
X126518Y012229D01*
X126699Y012229D01*
X126865Y012298D01*
X126992Y012425D01*
X127061Y012591D01*
X127061Y012771D01*
X126992Y012938D01*
X126865Y013065D01*
X126699Y013134D01*
X126518Y013134D01*
X126352Y013065D01*
X126225Y012938D01*
X126156Y012771D01*
X126156Y012659D02*
X122609Y012659D01*
X122609Y012511D02*
X126189Y012511D01*
X126288Y012362D02*
X122609Y012362D01*
X122609Y011916D02*
X130716Y011916D01*
X130656Y011768D02*
X122609Y011768D01*
X122609Y011619D02*
X129483Y011619D01*
X129734Y011619D02*
X130656Y011619D01*
X130706Y011471D02*
X129959Y011471D01*
X130040Y011322D02*
X130828Y011322D01*
X130852Y012065D02*
X131018Y012134D01*
X131199Y012134D01*
X131365Y012065D01*
X131501Y011916D02*
X142561Y011916D01*
X142526Y012362D02*
X131929Y012362D01*
X131992Y012425D02*
X132061Y012591D01*
X132061Y012771D01*
X131992Y012938D01*
X131865Y013065D01*
X131699Y013134D01*
X131518Y013134D01*
X131352Y013065D01*
X131225Y012938D01*
X131156Y012771D01*
X131156Y012591D01*
X131225Y012425D01*
X131352Y012298D01*
X131518Y012229D01*
X131699Y012229D01*
X131865Y012298D01*
X131992Y012425D01*
X132028Y012511D02*
X142588Y012511D01*
X142688Y012659D02*
X132061Y012659D01*
X132046Y012808D02*
X142851Y012808D01*
X143626Y012808D02*
X145905Y012808D01*
X145744Y012956D02*
X131974Y012956D01*
X131769Y013105D02*
X145685Y013105D01*
X145929Y012065D02*
X143965Y012065D01*
X143915Y011916D02*
X145748Y011916D01*
X145686Y011768D02*
X143853Y011768D01*
X143704Y011619D02*
X145685Y011619D01*
X146347Y011322D02*
X147370Y011322D01*
X147238Y011471D02*
X146479Y011471D01*
X146532Y011619D02*
X147185Y011619D01*
X147186Y011768D02*
X146531Y011768D01*
X146469Y011916D02*
X147248Y011916D01*
X147429Y012065D02*
X146288Y012065D01*
X142319Y009391D02*
X133458Y009391D01*
X133540Y009540D02*
X142069Y009540D01*
X133018Y010134D02*
X132852Y010065D01*
X132725Y009938D01*
X132683Y009837D02*
X103360Y009837D01*
X103296Y009688D02*
X132656Y009688D01*
X132677Y009540D02*
X103148Y009540D01*
X102898Y009391D02*
X132759Y009391D01*
X129183Y011025D02*
X026109Y011025D01*
X026109Y011174D02*
X129156Y011174D01*
X129177Y011322D02*
X122609Y011322D01*
X122609Y011471D02*
X129258Y011471D01*
X127992Y012425D02*
X128061Y012591D01*
X128061Y012771D01*
X127992Y012938D01*
X127865Y013065D01*
X127699Y013134D01*
X127518Y013134D01*
X127352Y013065D01*
X127225Y012938D01*
X127156Y012771D01*
X127156Y012591D01*
X127225Y012425D01*
X127352Y012298D01*
X127518Y012229D01*
X127699Y012229D01*
X127865Y012298D01*
X127992Y012425D01*
X127929Y012362D02*
X131288Y012362D01*
X131189Y012511D02*
X128028Y012511D01*
X128061Y012659D02*
X131156Y012659D01*
X131171Y012808D02*
X128046Y012808D01*
X127974Y012956D02*
X131243Y012956D01*
X131448Y013105D02*
X127769Y013105D01*
X127448Y013105D02*
X126769Y013105D01*
X126974Y012956D02*
X127243Y012956D01*
X127171Y012808D02*
X127046Y012808D01*
X127061Y012659D02*
X127156Y012659D01*
X127189Y012511D02*
X127028Y012511D01*
X126929Y012362D02*
X127288Y012362D01*
X126448Y013105D02*
X125532Y013105D01*
X125473Y012956D02*
X126243Y012956D01*
X126061Y014739D02*
X141985Y014739D01*
X142133Y014887D02*
X126013Y014887D01*
X117605Y016521D02*
X144217Y016521D01*
X144185Y016597D02*
X144250Y016442D01*
X144369Y016323D01*
X144524Y016258D01*
X144693Y016258D01*
X144848Y016323D01*
X144967Y016442D01*
X145032Y016597D01*
X145032Y016766D01*
X144967Y016921D01*
X144848Y017040D01*
X144693Y017104D01*
X144524Y017104D01*
X144369Y017040D01*
X144250Y016921D01*
X144185Y016766D01*
X144185Y016597D01*
X144185Y016670D02*
X117628Y016670D01*
X117615Y016818D02*
X144207Y016818D01*
X144296Y016967D02*
X143075Y016967D01*
X143070Y016962D02*
X143300Y017192D01*
X143424Y017492D01*
X143424Y017816D01*
X143300Y018116D01*
X143070Y018345D01*
X142771Y018469D01*
X142446Y018469D01*
X142146Y018345D01*
X141917Y018116D01*
X141793Y017816D01*
X141793Y017492D01*
X141917Y017192D01*
X142146Y016962D01*
X142446Y016838D01*
X142771Y016838D01*
X143070Y016962D01*
X143223Y017115D02*
X148973Y017115D01*
X149018Y017134D02*
X148852Y017065D01*
X148725Y016938D01*
X148656Y016771D01*
X148656Y016591D01*
X148725Y016425D01*
X148852Y016298D01*
X149018Y016229D01*
X149199Y016229D01*
X149365Y016298D01*
X149492Y016425D01*
X149561Y016591D01*
X149561Y016771D01*
X149492Y016938D01*
X149365Y017065D01*
X149199Y017134D01*
X149018Y017134D01*
X149244Y017115D02*
X152473Y017115D01*
X152518Y017134D02*
X152352Y017065D01*
X152225Y016938D01*
X152156Y016771D01*
X152156Y016591D01*
X152225Y016425D01*
X152352Y016298D01*
X152518Y016229D01*
X152699Y016229D01*
X152865Y016298D01*
X152992Y016425D01*
X153061Y016591D01*
X153061Y016771D01*
X152992Y016938D01*
X152865Y017065D01*
X152699Y017134D01*
X152518Y017134D01*
X152744Y017115D02*
X153973Y017115D01*
X154018Y017134D02*
X153852Y017065D01*
X153725Y016938D01*
X153656Y016771D01*
X153656Y016591D01*
X153725Y016425D01*
X153852Y016298D01*
X154018Y016229D01*
X154199Y016229D01*
X154365Y016298D01*
X154492Y016425D01*
X154561Y016591D01*
X154561Y016771D01*
X154492Y016938D01*
X154365Y017065D01*
X154199Y017134D01*
X154018Y017134D01*
X154244Y017115D02*
X161109Y017115D01*
X161109Y016967D02*
X154463Y016967D01*
X154542Y016818D02*
X161109Y016818D01*
X161109Y016670D02*
X154561Y016670D01*
X154532Y016521D02*
X161109Y016521D01*
X161109Y016373D02*
X154440Y016373D01*
X153777Y016373D02*
X152940Y016373D01*
X153032Y016521D02*
X153685Y016521D01*
X153656Y016670D02*
X153061Y016670D01*
X153042Y016818D02*
X153675Y016818D01*
X153754Y016967D02*
X152963Y016967D01*
X152254Y016967D02*
X149463Y016967D01*
X149542Y016818D02*
X152175Y016818D01*
X152156Y016670D02*
X149561Y016670D01*
X149532Y016521D02*
X152185Y016521D01*
X152277Y016373D02*
X149440Y016373D01*
X148777Y016373D02*
X144898Y016373D01*
X145000Y016521D02*
X148685Y016521D01*
X148656Y016670D02*
X145032Y016670D01*
X145010Y016818D02*
X148675Y016818D01*
X148754Y016967D02*
X144921Y016967D01*
X143391Y017412D02*
X161109Y017412D01*
X161109Y017264D02*
X143330Y017264D01*
X143424Y017561D02*
X161109Y017561D01*
X161109Y017710D02*
X143424Y017710D01*
X143407Y017858D02*
X161109Y017858D01*
X161109Y018007D02*
X143345Y018007D01*
X143261Y018155D02*
X161109Y018155D01*
X161109Y018304D02*
X143112Y018304D01*
X142812Y018452D02*
X161109Y018452D01*
X161109Y018601D02*
X130032Y018601D01*
X130032Y018597D02*
X129967Y018442D01*
X129848Y018323D01*
X129693Y018258D01*
X129524Y018258D01*
X129369Y018323D01*
X129250Y018442D01*
X129185Y018597D01*
X129185Y018766D01*
X129250Y018921D01*
X129369Y019040D01*
X129524Y019104D01*
X129693Y019104D01*
X129848Y019040D01*
X129967Y018921D01*
X130032Y018766D01*
X130032Y018597D01*
X130032Y018749D02*
X161109Y018749D01*
X161109Y018898D02*
X129977Y018898D01*
X129833Y019046D02*
X142872Y019046D01*
X142827Y019065D02*
X143094Y018954D01*
X143383Y018954D01*
X143650Y019065D01*
X143855Y019270D01*
X143965Y019537D01*
X143965Y019826D01*
X143855Y020093D01*
X143650Y020298D01*
X143383Y020408D01*
X143094Y020408D01*
X142827Y020298D01*
X142622Y020093D01*
X142511Y019826D01*
X142511Y019537D01*
X142622Y019270D01*
X142827Y019065D01*
X142697Y019195D02*
X117293Y019195D01*
X117479Y019046D02*
X126384Y019046D01*
X126369Y019040D02*
X126250Y018921D01*
X126185Y018766D01*
X126185Y018597D01*
X126250Y018442D01*
X126369Y018323D01*
X126524Y018258D01*
X126693Y018258D01*
X126848Y018323D01*
X126967Y018442D01*
X127032Y018597D01*
X127032Y018766D01*
X126967Y018921D01*
X126848Y019040D01*
X126693Y019104D01*
X126524Y019104D01*
X126369Y019040D01*
X126240Y018898D02*
X117582Y018898D01*
X117628Y018749D02*
X126185Y018749D01*
X126185Y018601D02*
X117628Y018601D01*
X117576Y018452D02*
X126245Y018452D01*
X126415Y018304D02*
X117466Y018304D01*
X117323Y018155D02*
X141956Y018155D01*
X141872Y018007D02*
X117519Y018007D01*
X117598Y017858D02*
X141810Y017858D01*
X141793Y017710D02*
X117628Y017710D01*
X117621Y017561D02*
X141793Y017561D01*
X141826Y017412D02*
X117560Y017412D01*
X117426Y017264D02*
X141887Y017264D01*
X141994Y017115D02*
X117410Y017115D01*
X117553Y016967D02*
X142142Y016967D01*
X144319Y016373D02*
X117535Y016373D01*
X115854Y016224D02*
X107609Y016224D01*
X107609Y016076D02*
X115767Y016076D01*
X115647Y015927D02*
X107609Y015927D01*
X107609Y015778D02*
X115589Y015778D01*
X115589Y015630D02*
X107609Y015630D01*
X107609Y015481D02*
X115629Y015481D01*
X115722Y015333D02*
X107609Y015333D01*
X107609Y015184D02*
X115950Y015184D01*
X116267Y015184D02*
X116950Y015184D01*
X116722Y015333D02*
X116495Y015333D01*
X116588Y015481D02*
X116629Y015481D01*
X115682Y016373D02*
X107609Y016373D01*
X107609Y016521D02*
X115612Y016521D01*
X115589Y016670D02*
X107609Y016670D01*
X107609Y016818D02*
X115602Y016818D01*
X115664Y016967D02*
X107609Y016967D01*
X107609Y017115D02*
X115807Y017115D01*
X115888Y017264D02*
X103330Y017264D01*
X103391Y017412D02*
X115713Y017412D01*
X115710Y017415D02*
X115842Y017283D01*
X116015Y017211D01*
X116086Y017211D01*
X116086Y017659D01*
X115639Y017659D01*
X115639Y017588D01*
X115710Y017415D01*
X115650Y017561D02*
X103424Y017561D01*
X103424Y017710D02*
X115639Y017710D01*
X115639Y017704D02*
X116086Y017704D01*
X116086Y018151D01*
X116015Y018151D01*
X115842Y018080D01*
X115710Y017948D01*
X115639Y017775D01*
X115639Y017704D01*
X115673Y017858D02*
X103407Y017858D01*
X103345Y018007D02*
X115769Y018007D01*
X115751Y018304D02*
X103112Y018304D01*
X103261Y018155D02*
X116894Y018155D01*
X116751Y018304D02*
X116466Y018304D01*
X116576Y018452D02*
X116641Y018452D01*
X116698Y018007D02*
X116448Y018007D01*
X116507Y017948D02*
X116375Y018080D01*
X116202Y018151D01*
X116131Y018151D01*
X116131Y017704D01*
X116086Y017704D01*
X116086Y017659D01*
X116131Y017659D01*
X116131Y017704D01*
X116578Y017704D01*
X116578Y017775D01*
X116507Y017948D01*
X116544Y017858D02*
X116619Y017858D01*
X116589Y017710D02*
X116578Y017710D01*
X116578Y017659D02*
X116131Y017659D01*
X116131Y017211D01*
X116202Y017211D01*
X116375Y017283D01*
X116507Y017415D01*
X116578Y017588D01*
X116578Y017659D01*
X116567Y017561D02*
X116596Y017561D01*
X116657Y017412D02*
X116504Y017412D01*
X116329Y017264D02*
X116791Y017264D01*
X116807Y017115D02*
X116410Y017115D01*
X116553Y016967D02*
X116664Y016967D01*
X116131Y017264D02*
X116086Y017264D01*
X116086Y017412D02*
X116131Y017412D01*
X116131Y017561D02*
X116086Y017561D01*
X116086Y017710D02*
X116131Y017710D01*
X116131Y017858D02*
X116086Y017858D01*
X116086Y018007D02*
X116131Y018007D01*
X115641Y018452D02*
X102812Y018452D01*
X102405Y018452D02*
X082812Y018452D01*
X083112Y018304D02*
X102105Y018304D01*
X101956Y018155D02*
X083261Y018155D01*
X083345Y018007D02*
X101872Y018007D01*
X101810Y017858D02*
X083407Y017858D01*
X083424Y017710D02*
X101793Y017710D01*
X101793Y017561D02*
X083424Y017561D01*
X083391Y017412D02*
X101826Y017412D01*
X101887Y017264D02*
X083330Y017264D01*
X081887Y017264D02*
X063330Y017264D01*
X063391Y017412D02*
X081826Y017412D01*
X081793Y017561D02*
X063424Y017561D01*
X063424Y017710D02*
X081793Y017710D01*
X081810Y017858D02*
X063407Y017858D01*
X063345Y018007D02*
X081872Y018007D01*
X081956Y018155D02*
X063261Y018155D01*
X063112Y018304D02*
X082105Y018304D01*
X082405Y018452D02*
X062812Y018452D01*
X062405Y018452D02*
X042812Y018452D01*
X043112Y018304D02*
X062105Y018304D01*
X061956Y018155D02*
X043261Y018155D01*
X043345Y018007D02*
X061872Y018007D01*
X061810Y017858D02*
X043407Y017858D01*
X043424Y017710D02*
X061793Y017710D01*
X061793Y017561D02*
X043424Y017561D01*
X043391Y017412D02*
X061826Y017412D01*
X061887Y017264D02*
X043330Y017264D01*
X041887Y017264D02*
X030109Y017264D01*
X030109Y017412D02*
X041826Y017412D01*
X041793Y017561D02*
X030109Y017561D01*
X030109Y017710D02*
X041793Y017710D01*
X041810Y017858D02*
X030109Y017858D01*
X030109Y018007D02*
X041872Y018007D01*
X041956Y018155D02*
X030109Y018155D01*
X030109Y018304D02*
X040346Y018304D01*
X040352Y018298D02*
X040518Y018229D01*
X040699Y018229D01*
X040865Y018298D01*
X040992Y018425D01*
X041061Y018591D01*
X041061Y018771D01*
X040992Y018938D01*
X040865Y019065D01*
X040699Y019134D01*
X040518Y019134D01*
X040352Y019065D01*
X040225Y018938D01*
X040156Y018771D01*
X040156Y018591D01*
X040225Y018425D01*
X040352Y018298D01*
X040213Y018452D02*
X030109Y018452D01*
X030109Y018601D02*
X040156Y018601D01*
X040156Y018749D02*
X030109Y018749D01*
X030109Y018898D02*
X040208Y018898D01*
X040333Y019046D02*
X030109Y019046D01*
X030109Y019195D02*
X042697Y019195D01*
X042622Y019270D02*
X042827Y019065D01*
X043094Y018954D01*
X043383Y018954D01*
X043650Y019065D01*
X043855Y019270D01*
X043965Y019537D01*
X043965Y019826D01*
X043855Y020093D01*
X043650Y020298D01*
X043383Y020408D01*
X043094Y020408D01*
X042827Y020298D01*
X042622Y020093D01*
X042511Y019826D01*
X042511Y019537D01*
X042622Y019270D01*
X042591Y019344D02*
X030109Y019344D01*
X030109Y019492D02*
X042530Y019492D01*
X042511Y019641D02*
X030109Y019641D01*
X030109Y019789D02*
X042511Y019789D01*
X042558Y019938D02*
X030109Y019938D01*
X030109Y020086D02*
X042619Y020086D01*
X042764Y020235D02*
X030109Y020235D01*
X030109Y020383D02*
X030308Y020383D01*
X030250Y020442D02*
X030369Y020323D01*
X030524Y020258D01*
X030693Y020258D01*
X030848Y020323D01*
X030967Y020442D01*
X031032Y020597D01*
X031032Y020766D01*
X030967Y020921D01*
X030848Y021040D01*
X030693Y021104D01*
X030524Y021104D01*
X030369Y021040D01*
X030250Y020921D01*
X030185Y020766D01*
X030185Y020597D01*
X030250Y020442D01*
X030212Y020532D02*
X029504Y020532D01*
X029532Y020680D02*
X030185Y020680D01*
X030212Y020829D02*
X029505Y020829D01*
X029411Y020977D02*
X030306Y020977D01*
X030485Y021275D02*
X029232Y021275D01*
X029193Y021258D02*
X029348Y021323D01*
X029467Y021442D01*
X029532Y021597D01*
X029532Y021766D01*
X029467Y021921D01*
X029348Y022040D01*
X029193Y022104D01*
X029024Y022104D01*
X028869Y022040D01*
X028750Y021921D01*
X028685Y021766D01*
X028685Y021597D01*
X028750Y021442D01*
X028869Y021323D01*
X029024Y021258D01*
X029193Y021258D01*
X028985Y021275D02*
X020583Y021275D01*
X020700Y021126D02*
X038949Y021126D01*
X038975Y021188D02*
X038906Y021021D01*
X038906Y020841D01*
X038975Y020675D01*
X039102Y020548D01*
X039268Y020479D01*
X039449Y020479D01*
X039615Y020548D01*
X039742Y020675D01*
X039811Y020841D01*
X039811Y021021D01*
X039742Y021188D01*
X039615Y021315D01*
X039449Y021384D01*
X039268Y021384D01*
X039102Y021315D01*
X038975Y021188D01*
X039062Y021275D02*
X032232Y021275D01*
X032193Y021258D02*
X032348Y021323D01*
X032467Y021442D01*
X032532Y021597D01*
X032532Y021766D01*
X032467Y021921D01*
X032348Y022040D01*
X032193Y022104D01*
X032024Y022104D01*
X031869Y022040D01*
X031750Y021921D01*
X031685Y021766D01*
X031685Y021597D01*
X031750Y021442D01*
X031869Y021323D01*
X032024Y021258D01*
X032193Y021258D01*
X032193Y021104D02*
X032024Y021104D01*
X031869Y021040D01*
X031750Y020921D01*
X031685Y020766D01*
X031685Y020597D01*
X031750Y020442D01*
X031869Y020323D01*
X032024Y020258D01*
X032193Y020258D01*
X032348Y020323D01*
X032467Y020442D01*
X032532Y020597D01*
X032532Y020766D01*
X032467Y020921D01*
X032348Y021040D01*
X032193Y021104D01*
X032411Y020977D02*
X038906Y020977D01*
X038911Y020829D02*
X032505Y020829D01*
X032532Y020680D02*
X038973Y020680D01*
X039140Y020532D02*
X032504Y020532D01*
X032409Y020383D02*
X043033Y020383D01*
X043444Y020383D02*
X063033Y020383D01*
X063094Y020408D02*
X062827Y020298D01*
X062622Y020093D01*
X062511Y019826D01*
X062511Y019537D01*
X062622Y019270D01*
X062827Y019065D01*
X063094Y018954D01*
X063383Y018954D01*
X063650Y019065D01*
X063855Y019270D01*
X063965Y019537D01*
X063965Y019826D01*
X063855Y020093D01*
X063650Y020298D01*
X063383Y020408D01*
X063094Y020408D01*
X063444Y020383D02*
X083033Y020383D01*
X083094Y020408D02*
X082827Y020298D01*
X082622Y020093D01*
X082511Y019826D01*
X082511Y019537D01*
X082622Y019270D01*
X082827Y019065D01*
X083094Y018954D01*
X083383Y018954D01*
X083650Y019065D01*
X083855Y019270D01*
X083965Y019537D01*
X083965Y019826D01*
X083855Y020093D01*
X083650Y020298D01*
X083383Y020408D01*
X083094Y020408D01*
X083444Y020383D02*
X103033Y020383D01*
X103094Y020408D02*
X102827Y020298D01*
X102622Y020093D01*
X102511Y019826D01*
X102511Y019537D01*
X102622Y019270D01*
X102827Y019065D01*
X103094Y018954D01*
X103383Y018954D01*
X103650Y019065D01*
X103855Y019270D01*
X103965Y019537D01*
X103965Y019826D01*
X103855Y020093D01*
X103650Y020298D01*
X103383Y020408D01*
X103094Y020408D01*
X103444Y020383D02*
X115671Y020383D01*
X115608Y020532D02*
X039577Y020532D01*
X039744Y020680D02*
X115589Y020680D01*
X115607Y020829D02*
X039806Y020829D01*
X039811Y020977D02*
X042243Y020977D01*
X042146Y021018D02*
X042446Y020893D01*
X042771Y020893D01*
X043070Y021018D01*
X043300Y021247D01*
X043424Y021547D01*
X043424Y021871D01*
X043300Y022171D01*
X043070Y022400D01*
X042771Y022524D01*
X042446Y022524D01*
X042146Y022400D01*
X041917Y022171D01*
X041793Y021871D01*
X041793Y021547D01*
X041917Y021247D01*
X042146Y021018D01*
X042038Y021126D02*
X039768Y021126D01*
X039655Y021275D02*
X041906Y021275D01*
X041844Y021423D02*
X032449Y021423D01*
X032521Y021572D02*
X041793Y021572D01*
X041793Y021720D02*
X032532Y021720D01*
X032489Y021869D02*
X041793Y021869D01*
X041854Y022017D02*
X032371Y022017D01*
X032193Y022258D02*
X032024Y022258D01*
X031869Y022323D01*
X031750Y022442D01*
X031685Y022597D01*
X031685Y022766D01*
X031750Y022921D01*
X031869Y023040D01*
X032024Y023104D01*
X032193Y023104D01*
X032348Y023040D01*
X032467Y022921D01*
X032532Y022766D01*
X032532Y022597D01*
X032467Y022442D01*
X032348Y022323D01*
X032193Y022258D01*
X032328Y022314D02*
X042061Y022314D01*
X041915Y022166D02*
X020717Y022166D01*
X020717Y022314D02*
X028889Y022314D01*
X028869Y022323D02*
X029024Y022258D01*
X029193Y022258D01*
X029348Y022323D01*
X029467Y022442D01*
X029532Y022597D01*
X029532Y022766D01*
X029467Y022921D01*
X029348Y023040D01*
X029193Y023104D01*
X029024Y023104D01*
X028869Y023040D01*
X028750Y022921D01*
X028685Y022766D01*
X028685Y022597D01*
X028750Y022442D01*
X028869Y022323D01*
X028741Y022463D02*
X020663Y022463D01*
X020553Y022611D02*
X028685Y022611D01*
X028685Y022760D02*
X027766Y022760D01*
X027766Y022909D02*
X028745Y022909D01*
X028910Y023057D02*
X027766Y023057D01*
X027766Y023206D02*
X115898Y023206D01*
X115749Y023057D02*
X032307Y023057D01*
X032472Y022909D02*
X115640Y022909D01*
X115589Y022760D02*
X032532Y022760D01*
X032532Y022611D02*
X115589Y022611D01*
X115636Y022463D02*
X102919Y022463D01*
X102771Y022524D02*
X102446Y022524D01*
X102146Y022400D01*
X101917Y022171D01*
X101793Y021871D01*
X101793Y021547D01*
X101917Y021247D01*
X102146Y021018D01*
X102446Y020893D01*
X102771Y020893D01*
X103070Y021018D01*
X103300Y021247D01*
X103424Y021547D01*
X103424Y021871D01*
X103300Y022171D01*
X103070Y022400D01*
X102771Y022524D01*
X103156Y022314D02*
X115740Y022314D01*
X115919Y022166D02*
X103302Y022166D01*
X103364Y022017D02*
X115709Y022017D01*
X115623Y021869D02*
X103424Y021869D01*
X103424Y021720D02*
X115589Y021720D01*
X115591Y021572D02*
X103424Y021572D01*
X103373Y021423D02*
X115653Y021423D01*
X115780Y021275D02*
X103311Y021275D01*
X103179Y021126D02*
X115823Y021126D01*
X115669Y020977D02*
X102974Y020977D01*
X102243Y020977D02*
X082974Y020977D01*
X083070Y021018D02*
X082771Y020893D01*
X082446Y020893D01*
X082146Y021018D01*
X081917Y021247D01*
X081793Y021547D01*
X081793Y021871D01*
X081917Y022171D01*
X082146Y022400D01*
X082446Y022524D01*
X082771Y022524D01*
X083070Y022400D01*
X083300Y022171D01*
X083424Y021871D01*
X083424Y021547D01*
X083300Y021247D01*
X083070Y021018D01*
X083179Y021126D02*
X102038Y021126D01*
X101906Y021275D02*
X083311Y021275D01*
X083373Y021423D02*
X101844Y021423D01*
X101793Y021572D02*
X083424Y021572D01*
X083424Y021720D02*
X101793Y021720D01*
X101793Y021869D02*
X083424Y021869D01*
X083364Y022017D02*
X101854Y022017D01*
X101915Y022166D02*
X083302Y022166D01*
X083156Y022314D02*
X102061Y022314D01*
X102298Y022463D02*
X082919Y022463D01*
X082298Y022463D02*
X062919Y022463D01*
X062771Y022524D02*
X062446Y022524D01*
X062146Y022400D01*
X061917Y022171D01*
X061793Y021871D01*
X061793Y021547D01*
X061917Y021247D01*
X062146Y021018D01*
X062446Y020893D01*
X062771Y020893D01*
X063070Y021018D01*
X063300Y021247D01*
X063424Y021547D01*
X063424Y021871D01*
X063300Y022171D01*
X063070Y022400D01*
X062771Y022524D01*
X063156Y022314D02*
X082061Y022314D01*
X081915Y022166D02*
X063302Y022166D01*
X063364Y022017D02*
X081854Y022017D01*
X081793Y021869D02*
X063424Y021869D01*
X063424Y021720D02*
X081793Y021720D01*
X081793Y021572D02*
X063424Y021572D01*
X063373Y021423D02*
X081844Y021423D01*
X081906Y021275D02*
X063311Y021275D01*
X063179Y021126D02*
X082038Y021126D01*
X082243Y020977D02*
X062974Y020977D01*
X062243Y020977D02*
X042974Y020977D01*
X043179Y021126D02*
X062038Y021126D01*
X061906Y021275D02*
X043311Y021275D01*
X043373Y021423D02*
X061844Y021423D01*
X061793Y021572D02*
X043424Y021572D01*
X043424Y021720D02*
X061793Y021720D01*
X061793Y021869D02*
X043424Y021869D01*
X043364Y022017D02*
X061854Y022017D01*
X061915Y022166D02*
X043302Y022166D01*
X043156Y022314D02*
X062061Y022314D01*
X062298Y022463D02*
X042919Y022463D01*
X042298Y022463D02*
X032476Y022463D01*
X031889Y022314D02*
X030828Y022314D01*
X030848Y022323D02*
X030967Y022442D01*
X031032Y022597D01*
X031032Y022766D01*
X030967Y022921D01*
X030848Y023040D01*
X030693Y023104D01*
X030524Y023104D01*
X030369Y023040D01*
X030250Y022921D01*
X030185Y022766D01*
X030185Y022597D01*
X030250Y022442D01*
X030369Y022323D01*
X030524Y022258D01*
X030693Y022258D01*
X030848Y022323D01*
X030976Y022463D02*
X031741Y022463D01*
X031685Y022611D02*
X031032Y022611D01*
X031032Y022760D02*
X031685Y022760D01*
X031745Y022909D02*
X030972Y022909D01*
X030807Y023057D02*
X031910Y023057D01*
X030410Y023057D02*
X029307Y023057D01*
X029472Y022909D02*
X030245Y022909D01*
X030185Y022760D02*
X029532Y022760D01*
X029532Y022611D02*
X030185Y022611D01*
X030241Y022463D02*
X029476Y022463D01*
X029328Y022314D02*
X030389Y022314D01*
X030524Y022104D02*
X030369Y022040D01*
X030250Y021921D01*
X030185Y021766D01*
X030185Y021597D01*
X030250Y021442D01*
X030369Y021323D01*
X030524Y021258D01*
X030693Y021258D01*
X030848Y021323D01*
X030967Y021442D01*
X031032Y021597D01*
X031032Y021766D01*
X030967Y021921D01*
X030848Y022040D01*
X030693Y022104D01*
X030524Y022104D01*
X030346Y022017D02*
X029371Y022017D01*
X029489Y021869D02*
X030228Y021869D01*
X030185Y021720D02*
X029532Y021720D01*
X029521Y021572D02*
X030196Y021572D01*
X030268Y021423D02*
X029449Y021423D01*
X028768Y021423D02*
X020319Y021423D01*
X020055Y021423D02*
X018109Y021423D01*
X018109Y021275D02*
X019792Y021275D01*
X019674Y021126D02*
X018109Y021126D01*
X018109Y020977D02*
X019613Y020977D01*
X019608Y020829D02*
X018109Y020829D01*
X018109Y020680D02*
X019631Y020680D01*
X019692Y020532D02*
X018109Y020532D01*
X018109Y019938D02*
X019927Y019938D01*
X019755Y019789D02*
X018109Y019789D01*
X018109Y019641D02*
X019684Y019641D01*
X019668Y019344D02*
X018109Y019344D01*
X018109Y019492D02*
X020144Y019492D01*
X020231Y019492D02*
X029538Y019492D01*
X029538Y019344D02*
X020707Y019344D01*
X020645Y019195D02*
X029538Y019195D01*
X029538Y019046D02*
X020509Y019046D01*
X020230Y019046D02*
X020144Y019046D01*
X020144Y019195D02*
X020230Y019195D01*
X020230Y019344D02*
X020144Y019344D01*
X019865Y019046D02*
X018109Y019046D01*
X018109Y018898D02*
X029538Y018898D01*
X029538Y018749D02*
X018109Y018749D01*
X018109Y018601D02*
X019895Y018601D01*
X019725Y018452D02*
X018109Y018452D01*
X018109Y018304D02*
X019647Y018304D01*
X019608Y018155D02*
X018109Y018155D01*
X018109Y018007D02*
X019608Y018007D01*
X019658Y017858D02*
X018109Y017858D01*
X018109Y017710D02*
X019753Y017710D01*
X019837Y017115D02*
X018109Y017115D01*
X018109Y016967D02*
X019718Y016967D01*
X019658Y016818D02*
X018109Y016818D01*
X018109Y016670D02*
X019658Y016670D01*
X019695Y016521D02*
X018109Y016521D01*
X018109Y016373D02*
X019783Y016373D01*
X019994Y016224D02*
X018109Y016224D01*
X018109Y016076D02*
X025609Y016076D01*
X025609Y016224D02*
X020381Y016224D01*
X020230Y016224D02*
X020144Y016224D01*
X020144Y016373D02*
X020230Y016373D01*
X020230Y016521D02*
X020144Y016521D01*
X020144Y016670D02*
X020230Y016670D01*
X020592Y016373D02*
X025609Y016373D01*
X025609Y016521D02*
X020679Y016521D01*
X020717Y016670D02*
X025609Y016670D01*
X025609Y016818D02*
X020717Y016818D01*
X020657Y016967D02*
X025609Y016967D01*
X025609Y017115D02*
X020537Y017115D01*
X020621Y017710D02*
X029538Y017710D01*
X029538Y017858D02*
X020716Y017858D01*
X020767Y018007D02*
X029538Y018007D01*
X029538Y018155D02*
X020767Y018155D01*
X020728Y018304D02*
X029538Y018304D01*
X029538Y018452D02*
X020649Y018452D01*
X020479Y018601D02*
X029538Y018601D01*
X029538Y019641D02*
X020691Y019641D01*
X020619Y019789D02*
X029538Y019789D01*
X029538Y019938D02*
X020448Y019938D01*
X020682Y020532D02*
X028712Y020532D01*
X028685Y020680D02*
X020744Y020680D01*
X020767Y020829D02*
X028712Y020829D01*
X028806Y020977D02*
X020762Y020977D01*
X020343Y021720D02*
X028685Y021720D01*
X028696Y021572D02*
X018109Y021572D01*
X018109Y021720D02*
X020032Y021720D01*
X020082Y021699D02*
X020144Y021699D01*
X020144Y022185D01*
X019658Y022185D01*
X019658Y022123D01*
X019739Y021929D01*
X019887Y021780D01*
X020082Y021699D01*
X020144Y021720D02*
X020230Y021720D01*
X020230Y021869D02*
X020144Y021869D01*
X020144Y022017D02*
X020230Y022017D01*
X020230Y022166D02*
X020144Y022166D01*
X019799Y021869D02*
X018109Y021869D01*
X018109Y022017D02*
X019702Y022017D01*
X019658Y022166D02*
X018109Y022166D01*
X018109Y022314D02*
X019658Y022314D01*
X019711Y022463D02*
X018109Y022463D01*
X018109Y022611D02*
X019821Y022611D01*
X019900Y023099D02*
X018109Y023099D01*
X018109Y025508D01*
X020068Y025508D01*
X019887Y025433D01*
X019739Y025284D01*
X019658Y025090D01*
X019658Y025028D01*
X020144Y025028D01*
X020144Y024941D01*
X020230Y024941D01*
X020230Y024455D01*
X020293Y024455D01*
X020487Y024536D01*
X020636Y024685D01*
X020717Y024879D01*
X020717Y024941D01*
X020231Y024941D01*
X020231Y025028D01*
X020717Y025028D01*
X020717Y025090D01*
X020636Y025284D01*
X020487Y025433D01*
X020306Y025508D01*
X022510Y025508D01*
X022510Y031181D01*
X111609Y031181D01*
X111609Y034681D01*
X121109Y034681D01*
X121109Y030181D01*
X161109Y030181D01*
X161109Y024181D01*
X117350Y024219D01*
X117403Y024241D01*
X117549Y024387D01*
X117628Y024578D01*
X117628Y024785D01*
X117549Y024976D01*
X117403Y025122D01*
X117260Y025181D01*
X117403Y025241D01*
X117549Y025387D01*
X117628Y025578D01*
X117628Y025785D01*
X117549Y025976D01*
X117403Y026122D01*
X117260Y026181D01*
X117403Y026241D01*
X117549Y026387D01*
X117628Y026578D01*
X117628Y026785D01*
X117549Y026976D01*
X117403Y027122D01*
X117260Y027181D01*
X117403Y027241D01*
X117549Y027387D01*
X117628Y027578D01*
X117628Y027785D01*
X117549Y027976D01*
X117403Y028122D01*
X117260Y028181D01*
X117403Y028241D01*
X117549Y028387D01*
X117628Y028578D01*
X117628Y028785D01*
X117549Y028976D01*
X117403Y029122D01*
X117212Y029201D01*
X117005Y029201D01*
X116814Y029122D01*
X116668Y028976D01*
X116608Y028833D01*
X116549Y028976D01*
X116403Y029122D01*
X116212Y029201D01*
X116005Y029201D01*
X115814Y029122D01*
X115668Y028976D01*
X115589Y028785D01*
X115589Y028578D01*
X115668Y028387D01*
X115814Y028241D01*
X115957Y028181D01*
X115814Y028122D01*
X115668Y027976D01*
X115589Y027785D01*
X115589Y027578D01*
X115668Y027387D01*
X115814Y027241D01*
X115957Y027181D01*
X115814Y027122D01*
X115668Y026976D01*
X115589Y026785D01*
X115589Y026578D01*
X115668Y026387D01*
X115814Y026241D01*
X115957Y026181D01*
X115814Y026122D01*
X115668Y025976D01*
X115589Y025785D01*
X115589Y025578D01*
X115668Y025387D01*
X115814Y025241D01*
X115957Y025181D01*
X115814Y025122D01*
X115668Y024976D01*
X115589Y024785D01*
X115589Y024578D01*
X115668Y024387D01*
X115814Y024241D01*
X115864Y024220D01*
X027077Y024296D01*
X027077Y023099D01*
X020475Y023099D01*
X020515Y023115D01*
X020678Y023278D01*
X020767Y023491D01*
X020767Y023722D01*
X020678Y023935D01*
X020515Y024098D01*
X020302Y024186D01*
X020072Y024186D01*
X019859Y024098D01*
X019696Y023935D01*
X019608Y023722D01*
X019608Y023491D01*
X019696Y023278D01*
X019859Y023115D01*
X019900Y023099D01*
X019769Y023206D02*
X018109Y023206D01*
X018109Y023354D02*
X019665Y023354D01*
X019608Y023503D02*
X018109Y023503D01*
X018109Y023651D02*
X019608Y023651D01*
X019640Y023800D02*
X018109Y023800D01*
X018109Y023948D02*
X019710Y023948D01*
X019858Y024097D02*
X018109Y024097D01*
X018109Y024245D02*
X027077Y024245D01*
X027077Y024097D02*
X020516Y024097D01*
X020665Y023948D02*
X027077Y023948D01*
X027077Y023800D02*
X020734Y023800D01*
X020767Y023651D02*
X027077Y023651D01*
X027077Y023503D02*
X020767Y023503D01*
X020710Y023354D02*
X027077Y023354D01*
X027077Y023206D02*
X020606Y023206D01*
X020673Y022017D02*
X028846Y022017D01*
X028728Y021869D02*
X020576Y021869D01*
X027766Y023354D02*
X115700Y023354D01*
X115620Y023503D02*
X027766Y023503D01*
X020700Y024840D02*
X041856Y024840D01*
X041917Y024692D02*
X042146Y024462D01*
X042446Y024338D01*
X042771Y024338D01*
X043070Y024462D01*
X043300Y024692D01*
X043424Y024992D01*
X043424Y025316D01*
X043300Y025616D01*
X043070Y025845D01*
X042771Y025969D01*
X042446Y025969D01*
X042146Y025845D01*
X041917Y025616D01*
X041793Y025316D01*
X041793Y024992D01*
X041917Y024692D01*
X041918Y024691D02*
X020639Y024691D01*
X020494Y024543D02*
X042066Y024543D01*
X042312Y024394D02*
X018109Y024394D01*
X018109Y024543D02*
X019881Y024543D01*
X019887Y024536D02*
X020082Y024455D01*
X020144Y024455D01*
X020144Y024941D01*
X019658Y024941D01*
X019658Y024879D01*
X019739Y024685D01*
X019887Y024536D01*
X019736Y024691D02*
X018109Y024691D01*
X018109Y024840D02*
X019674Y024840D01*
X019677Y025137D02*
X018109Y025137D01*
X018109Y025285D02*
X019739Y025285D01*
X019889Y025434D02*
X018109Y025434D01*
X018109Y025910D02*
X018109Y039181D01*
X140109Y039181D01*
X140109Y030681D01*
X122609Y030681D01*
X122609Y035181D01*
X110109Y035181D01*
X110109Y031681D01*
X053561Y031681D01*
X053561Y031771D01*
X053492Y031938D01*
X053365Y032065D01*
X053199Y032134D01*
X053018Y032134D01*
X052852Y032065D01*
X052725Y031938D01*
X052656Y031771D01*
X052656Y031681D01*
X052061Y031681D01*
X052061Y031771D01*
X051992Y031938D01*
X051865Y032065D01*
X051699Y032134D01*
X051518Y032134D01*
X051352Y032065D01*
X051225Y031938D01*
X051156Y031771D01*
X051156Y031681D01*
X022002Y031681D01*
X022002Y025910D01*
X020554Y025910D01*
X020678Y026034D01*
X020767Y026247D01*
X020767Y026478D01*
X020678Y026691D01*
X020515Y026854D01*
X020302Y026942D01*
X020072Y026942D01*
X019859Y026854D01*
X019696Y026691D01*
X019608Y026478D01*
X019608Y026247D01*
X019696Y026034D01*
X019821Y025910D01*
X018109Y025910D01*
X018109Y026028D02*
X019702Y026028D01*
X019637Y026176D02*
X018109Y026176D01*
X018109Y026325D02*
X019608Y026325D01*
X019608Y026474D02*
X018109Y026474D01*
X018109Y026622D02*
X019668Y026622D01*
X019776Y026771D02*
X018109Y026771D01*
X018109Y026919D02*
X020017Y026919D01*
X020082Y027211D02*
X019887Y027292D01*
X019739Y027441D01*
X019658Y027635D01*
X019658Y027697D01*
X020144Y027697D01*
X020230Y027697D01*
X020230Y027211D01*
X020293Y027211D01*
X020487Y027292D01*
X020636Y027441D01*
X020717Y027635D01*
X020717Y027697D01*
X020231Y027697D01*
X020231Y027784D01*
X020717Y027784D01*
X020717Y027846D01*
X020636Y028040D01*
X020487Y028189D01*
X020293Y028270D01*
X020230Y028270D01*
X020230Y027784D01*
X020144Y027784D01*
X020144Y028270D01*
X020082Y028270D01*
X019887Y028189D01*
X019739Y028040D01*
X019658Y027846D01*
X019658Y027784D01*
X020144Y027784D01*
X020144Y027697D01*
X020144Y027211D01*
X020082Y027211D01*
X020069Y027216D02*
X018109Y027216D01*
X018109Y027068D02*
X022002Y027068D01*
X022002Y027216D02*
X020305Y027216D01*
X020230Y027216D02*
X020144Y027216D01*
X020144Y027365D02*
X020230Y027365D01*
X020230Y027513D02*
X020144Y027513D01*
X020144Y027662D02*
X020230Y027662D01*
X020230Y027810D02*
X020144Y027810D01*
X020144Y027959D02*
X020230Y027959D01*
X020230Y028108D02*
X020144Y028108D01*
X020144Y028256D02*
X020230Y028256D01*
X020326Y028256D02*
X022002Y028256D01*
X022002Y028108D02*
X020569Y028108D01*
X020670Y027959D02*
X022002Y027959D01*
X022002Y027810D02*
X020717Y027810D01*
X020717Y027662D02*
X022002Y027662D01*
X022002Y027513D02*
X020666Y027513D01*
X020560Y027365D02*
X022002Y027365D01*
X022002Y026919D02*
X020357Y026919D01*
X020598Y026771D02*
X022002Y026771D01*
X022002Y026622D02*
X020707Y026622D01*
X020767Y026474D02*
X022002Y026474D01*
X022002Y026325D02*
X020767Y026325D01*
X020737Y026176D02*
X022002Y026176D01*
X022002Y026028D02*
X020672Y026028D01*
X020486Y025434D02*
X041842Y025434D01*
X041793Y025285D02*
X020635Y025285D01*
X020697Y025137D02*
X041793Y025137D01*
X041794Y024988D02*
X020231Y024988D01*
X020144Y024988D02*
X018109Y024988D01*
X020144Y024840D02*
X020230Y024840D01*
X020230Y024691D02*
X020144Y024691D01*
X020144Y024543D02*
X020230Y024543D01*
X022510Y025582D02*
X041903Y025582D01*
X042032Y025731D02*
X022510Y025731D01*
X022510Y025879D02*
X042229Y025879D01*
X042988Y025879D02*
X062229Y025879D01*
X062146Y025845D02*
X061917Y025616D01*
X061793Y025316D01*
X061793Y024992D01*
X061917Y024692D01*
X062146Y024462D01*
X062446Y024338D01*
X062771Y024338D01*
X063070Y024462D01*
X063300Y024692D01*
X063424Y024992D01*
X063424Y025316D01*
X063300Y025616D01*
X063070Y025845D01*
X062771Y025969D01*
X062446Y025969D01*
X062146Y025845D01*
X062032Y025731D02*
X043185Y025731D01*
X043314Y025582D02*
X061903Y025582D01*
X061842Y025434D02*
X043375Y025434D01*
X043424Y025285D02*
X061793Y025285D01*
X061793Y025137D02*
X043424Y025137D01*
X043423Y024988D02*
X061794Y024988D01*
X061856Y024840D02*
X043361Y024840D01*
X043299Y024691D02*
X061918Y024691D01*
X062066Y024543D02*
X043151Y024543D01*
X042905Y024394D02*
X062312Y024394D01*
X062905Y024394D02*
X082312Y024394D01*
X082446Y024338D02*
X082771Y024338D01*
X083070Y024462D01*
X083300Y024692D01*
X083424Y024992D01*
X083424Y025316D01*
X083300Y025616D01*
X083070Y025845D01*
X082771Y025969D01*
X082446Y025969D01*
X082146Y025845D01*
X081917Y025616D01*
X081793Y025316D01*
X081793Y024992D01*
X081917Y024692D01*
X082146Y024462D01*
X082446Y024338D01*
X082066Y024543D02*
X063151Y024543D01*
X063299Y024691D02*
X081918Y024691D01*
X081856Y024840D02*
X063361Y024840D01*
X063423Y024988D02*
X081794Y024988D01*
X081793Y025137D02*
X063424Y025137D01*
X063424Y025285D02*
X081793Y025285D01*
X081842Y025434D02*
X063375Y025434D01*
X063314Y025582D02*
X081903Y025582D01*
X082032Y025731D02*
X063185Y025731D01*
X062988Y025879D02*
X082229Y025879D01*
X082988Y025879D02*
X102229Y025879D01*
X102146Y025845D02*
X101917Y025616D01*
X101793Y025316D01*
X101793Y024992D01*
X101917Y024692D01*
X102146Y024462D01*
X102446Y024338D01*
X102771Y024338D01*
X103070Y024462D01*
X103300Y024692D01*
X103424Y024992D01*
X103424Y025316D01*
X103300Y025616D01*
X103070Y025845D01*
X102771Y025969D01*
X102446Y025969D01*
X102146Y025845D01*
X102032Y025731D02*
X083185Y025731D01*
X083314Y025582D02*
X101903Y025582D01*
X101842Y025434D02*
X083375Y025434D01*
X083424Y025285D02*
X101793Y025285D01*
X101793Y025137D02*
X083424Y025137D01*
X083423Y024988D02*
X101794Y024988D01*
X101856Y024840D02*
X083361Y024840D01*
X083299Y024691D02*
X101918Y024691D01*
X102066Y024543D02*
X083151Y024543D01*
X082905Y024394D02*
X102312Y024394D01*
X102905Y024394D02*
X115665Y024394D01*
X115603Y024543D02*
X103151Y024543D01*
X103299Y024691D02*
X115589Y024691D01*
X115611Y024840D02*
X103361Y024840D01*
X103423Y024988D02*
X115680Y024988D01*
X115849Y025137D02*
X103424Y025137D01*
X103424Y025285D02*
X115769Y025285D01*
X115648Y025434D02*
X103375Y025434D01*
X103314Y025582D02*
X115589Y025582D01*
X115589Y025731D02*
X103185Y025731D01*
X102988Y025879D02*
X115628Y025879D01*
X115720Y026028D02*
X022510Y026028D01*
X022510Y026176D02*
X115945Y026176D01*
X115729Y026325D02*
X022510Y026325D01*
X022510Y026474D02*
X043048Y026474D01*
X043094Y026454D02*
X043383Y026454D01*
X043650Y026565D01*
X043855Y026770D01*
X043965Y027037D01*
X043965Y027326D01*
X043855Y027593D01*
X043650Y027798D01*
X043383Y027908D01*
X043094Y027908D01*
X042827Y027798D01*
X042622Y027593D01*
X042511Y027326D01*
X042511Y027037D01*
X042622Y026770D01*
X042827Y026565D01*
X043094Y026454D01*
X043429Y026474D02*
X063048Y026474D01*
X063094Y026454D02*
X063383Y026454D01*
X063650Y026565D01*
X063855Y026770D01*
X063965Y027037D01*
X063965Y027326D01*
X063855Y027593D01*
X063650Y027798D01*
X063383Y027908D01*
X063094Y027908D01*
X062827Y027798D01*
X062622Y027593D01*
X062511Y027326D01*
X062511Y027037D01*
X062622Y026770D01*
X062827Y026565D01*
X063094Y026454D01*
X063429Y026474D02*
X083048Y026474D01*
X083094Y026454D02*
X083383Y026454D01*
X083650Y026565D01*
X083855Y026770D01*
X083965Y027037D01*
X083965Y027326D01*
X083855Y027593D01*
X083650Y027798D01*
X083383Y027908D01*
X083094Y027908D01*
X082827Y027798D01*
X082622Y027593D01*
X082511Y027326D01*
X082511Y027037D01*
X082622Y026770D01*
X082827Y026565D01*
X083094Y026454D01*
X083429Y026474D02*
X103048Y026474D01*
X103094Y026454D02*
X103383Y026454D01*
X103650Y026565D01*
X103855Y026770D01*
X103965Y027037D01*
X103965Y027326D01*
X103855Y027593D01*
X103650Y027798D01*
X103383Y027908D01*
X103094Y027908D01*
X102827Y027798D01*
X102622Y027593D01*
X102511Y027326D01*
X102511Y027037D01*
X102622Y026770D01*
X102827Y026565D01*
X103094Y026454D01*
X103429Y026474D02*
X115632Y026474D01*
X115589Y026622D02*
X103707Y026622D01*
X103855Y026771D02*
X115589Y026771D01*
X115644Y026919D02*
X103917Y026919D01*
X103965Y027068D02*
X115759Y027068D01*
X115873Y027216D02*
X103965Y027216D01*
X103949Y027365D02*
X115690Y027365D01*
X115615Y027513D02*
X103888Y027513D01*
X103786Y027662D02*
X115589Y027662D01*
X115599Y027810D02*
X103619Y027810D01*
X102858Y027810D02*
X083619Y027810D01*
X083786Y027662D02*
X102691Y027662D01*
X102589Y027513D02*
X083888Y027513D01*
X083949Y027365D02*
X102528Y027365D01*
X102511Y027216D02*
X083965Y027216D01*
X083965Y027068D02*
X102511Y027068D01*
X102560Y026919D02*
X083917Y026919D01*
X083855Y026771D02*
X102622Y026771D01*
X102770Y026622D02*
X083707Y026622D01*
X082770Y026622D02*
X063707Y026622D01*
X063855Y026771D02*
X082622Y026771D01*
X082560Y026919D02*
X063917Y026919D01*
X063965Y027068D02*
X082511Y027068D01*
X082511Y027216D02*
X063965Y027216D01*
X063949Y027365D02*
X082528Y027365D01*
X082589Y027513D02*
X063888Y027513D01*
X063786Y027662D02*
X082691Y027662D01*
X082858Y027810D02*
X063619Y027810D01*
X062858Y027810D02*
X051545Y027810D01*
X051561Y027771D02*
X051492Y027938D01*
X051365Y028065D01*
X051199Y028134D01*
X051018Y028134D01*
X050852Y028065D01*
X050725Y027938D01*
X050656Y027771D01*
X050656Y027591D01*
X050725Y027425D01*
X050852Y027298D01*
X051018Y027229D01*
X051199Y027229D01*
X051365Y027298D01*
X051492Y027425D01*
X051561Y027591D01*
X051561Y027771D01*
X051561Y027662D02*
X062691Y027662D01*
X062589Y027513D02*
X051529Y027513D01*
X051432Y027365D02*
X062528Y027365D01*
X062511Y027216D02*
X043965Y027216D01*
X043965Y027068D02*
X062511Y027068D01*
X062560Y026919D02*
X043917Y026919D01*
X043855Y026771D02*
X062622Y026771D01*
X062770Y026622D02*
X043707Y026622D01*
X042770Y026622D02*
X022510Y026622D01*
X022510Y026771D02*
X033917Y026771D01*
X033852Y026798D02*
X034018Y026729D01*
X034199Y026729D01*
X034365Y026798D01*
X034492Y026925D01*
X034561Y027091D01*
X034561Y027271D01*
X034492Y027438D01*
X034365Y027565D01*
X034199Y027634D01*
X034018Y027634D01*
X033852Y027565D01*
X033725Y027438D01*
X033656Y027271D01*
X033656Y027091D01*
X033725Y026925D01*
X033852Y026798D01*
X033731Y026919D02*
X022510Y026919D01*
X022510Y027068D02*
X033666Y027068D01*
X033656Y027216D02*
X022510Y027216D01*
X022510Y027365D02*
X033695Y027365D01*
X033800Y027513D02*
X022510Y027513D01*
X022510Y027662D02*
X042691Y027662D01*
X042589Y027513D02*
X034417Y027513D01*
X034522Y027365D02*
X042528Y027365D01*
X042511Y027216D02*
X034561Y027216D01*
X034551Y027068D02*
X042511Y027068D01*
X042560Y026919D02*
X034486Y026919D01*
X034300Y026771D02*
X042622Y026771D01*
X043949Y027365D02*
X050785Y027365D01*
X050688Y027513D02*
X043888Y027513D01*
X043786Y027662D02*
X050656Y027662D01*
X050672Y027810D02*
X043619Y027810D01*
X042858Y027810D02*
X032878Y027810D01*
X032865Y027798D02*
X032992Y027925D01*
X033061Y028091D01*
X033061Y028271D01*
X032992Y028438D01*
X032865Y028565D01*
X032699Y028634D01*
X032518Y028634D01*
X032352Y028565D01*
X032225Y028438D01*
X032156Y028271D01*
X032156Y028091D01*
X032225Y027925D01*
X032352Y027798D01*
X032518Y027729D01*
X032699Y027729D01*
X032865Y027798D01*
X033006Y027959D02*
X050746Y027959D01*
X050955Y028108D02*
X037425Y028108D01*
X037365Y028048D02*
X037492Y028175D01*
X037561Y028341D01*
X037561Y028521D01*
X037492Y028688D01*
X037365Y028815D01*
X037199Y028884D01*
X037018Y028884D01*
X036852Y028815D01*
X036725Y028688D01*
X036656Y028521D01*
X036656Y028341D01*
X036725Y028175D01*
X036852Y028048D01*
X037018Y027979D01*
X037199Y027979D01*
X037365Y028048D01*
X037526Y028256D02*
X115798Y028256D01*
X115799Y028108D02*
X051262Y028108D01*
X051471Y027959D02*
X115661Y027959D01*
X115660Y028405D02*
X102798Y028405D01*
X102771Y028393D02*
X103070Y028518D01*
X103300Y028747D01*
X103424Y029047D01*
X103424Y029371D01*
X103300Y029671D01*
X103070Y029900D01*
X102771Y030024D01*
X102446Y030024D01*
X102146Y029900D01*
X101917Y029671D01*
X101793Y029371D01*
X101793Y029047D01*
X101917Y028747D01*
X102146Y028518D01*
X102446Y028393D01*
X102771Y028393D01*
X102419Y028405D02*
X082798Y028405D01*
X082771Y028393D02*
X083070Y028518D01*
X083300Y028747D01*
X083424Y029047D01*
X083424Y029371D01*
X083300Y029671D01*
X083070Y029900D01*
X082771Y030024D01*
X082446Y030024D01*
X082146Y029900D01*
X081917Y029671D01*
X081793Y029371D01*
X081793Y029047D01*
X081917Y028747D01*
X082146Y028518D01*
X082446Y028393D01*
X082771Y028393D01*
X082419Y028405D02*
X062798Y028405D01*
X062771Y028393D02*
X063070Y028518D01*
X063300Y028747D01*
X063424Y029047D01*
X063424Y029371D01*
X063300Y029671D01*
X063070Y029900D01*
X062771Y030024D01*
X062446Y030024D01*
X062146Y029900D01*
X061917Y029671D01*
X061793Y029371D01*
X061793Y029047D01*
X061917Y028747D01*
X062146Y028518D01*
X062446Y028393D01*
X062771Y028393D01*
X062419Y028405D02*
X049805Y028405D01*
X049842Y028442D02*
X049907Y028597D01*
X049907Y028766D01*
X049842Y028921D01*
X049723Y029040D01*
X049568Y029104D01*
X049399Y029104D01*
X049244Y029040D01*
X049125Y028921D01*
X049060Y028766D01*
X049060Y028597D01*
X049125Y028442D01*
X049244Y028323D01*
X049399Y028258D01*
X049568Y028258D01*
X049723Y028323D01*
X049842Y028442D01*
X049888Y028553D02*
X062111Y028553D01*
X061962Y028702D02*
X049907Y028702D01*
X049871Y028850D02*
X061874Y028850D01*
X061813Y028999D02*
X049764Y028999D01*
X049658Y029296D02*
X050059Y029296D01*
X049994Y029323D02*
X050149Y029258D01*
X050318Y029258D01*
X050473Y029323D01*
X050592Y029442D01*
X050657Y029597D01*
X050657Y029766D01*
X050592Y029921D01*
X050473Y030040D01*
X050318Y030104D01*
X050149Y030104D01*
X049994Y030040D01*
X049875Y029921D01*
X049859Y029882D01*
X049842Y029921D01*
X049723Y030040D01*
X049568Y030104D01*
X049399Y030104D01*
X049244Y030040D01*
X049125Y029921D01*
X049060Y029766D01*
X049060Y029597D01*
X049125Y029442D01*
X049244Y029323D01*
X049399Y029258D01*
X049568Y029258D01*
X049723Y029323D01*
X049842Y029442D01*
X049859Y029481D01*
X049875Y029442D01*
X049994Y029323D01*
X049874Y029444D02*
X049843Y029444D01*
X049309Y029296D02*
X043424Y029296D01*
X043424Y029371D02*
X043300Y029671D01*
X043070Y029900D01*
X042771Y030024D01*
X042446Y030024D01*
X042146Y029900D01*
X041917Y029671D01*
X041793Y029371D01*
X041793Y029047D01*
X041917Y028747D01*
X042146Y028518D01*
X042446Y028393D01*
X042771Y028393D01*
X043070Y028518D01*
X043300Y028747D01*
X043424Y029047D01*
X043424Y029371D01*
X043394Y029444D02*
X049124Y029444D01*
X049062Y029593D02*
X043332Y029593D01*
X043229Y029742D02*
X049060Y029742D01*
X049112Y029890D02*
X043081Y029890D01*
X042136Y029890D02*
X039957Y029890D01*
X039992Y029925D02*
X040061Y030091D01*
X040061Y030271D01*
X039992Y030438D01*
X039865Y030565D01*
X039699Y030634D01*
X039518Y030634D01*
X039352Y030565D01*
X039225Y030438D01*
X039156Y030271D01*
X039156Y030091D01*
X039225Y029925D01*
X039352Y029798D01*
X039518Y029729D01*
X039699Y029729D01*
X039865Y029798D01*
X039992Y029925D01*
X040039Y030039D02*
X049242Y030039D01*
X049399Y030258D02*
X049568Y030258D01*
X049723Y030323D01*
X049842Y030442D01*
X049858Y030481D01*
X049875Y030442D01*
X049994Y030323D01*
X050149Y030258D01*
X050318Y030258D01*
X050473Y030323D01*
X050592Y030442D01*
X050657Y030597D01*
X050657Y030766D01*
X050592Y030921D01*
X050473Y031040D01*
X050318Y031104D01*
X050149Y031104D01*
X049994Y031040D01*
X049875Y030921D01*
X049858Y030882D01*
X049842Y030921D01*
X049723Y031040D01*
X049568Y031104D01*
X049399Y031104D01*
X049244Y031040D01*
X049125Y030921D01*
X049060Y030766D01*
X049060Y030597D01*
X049125Y030442D01*
X049244Y030323D01*
X049399Y030258D01*
X049231Y030336D02*
X045903Y030336D01*
X045865Y030298D02*
X045992Y030425D01*
X046061Y030591D01*
X046061Y030771D01*
X045992Y030938D01*
X045865Y031065D01*
X045699Y031134D01*
X045518Y031134D01*
X045352Y031065D01*
X045225Y030938D01*
X045156Y030771D01*
X045156Y030591D01*
X045225Y030425D01*
X045352Y030298D01*
X045518Y030229D01*
X045699Y030229D01*
X045865Y030298D01*
X046017Y030484D02*
X049107Y030484D01*
X049060Y030633D02*
X046061Y030633D01*
X046057Y030781D02*
X049067Y030781D01*
X049134Y030930D02*
X045996Y030930D01*
X045833Y031078D02*
X049336Y031078D01*
X049631Y031078D02*
X050086Y031078D01*
X049884Y030930D02*
X049833Y030930D01*
X050381Y031078D02*
X121109Y031078D01*
X121109Y030930D02*
X050583Y030930D01*
X050650Y030781D02*
X121109Y030781D01*
X121109Y030633D02*
X050657Y030633D01*
X050610Y030484D02*
X121109Y030484D01*
X121109Y030336D02*
X050486Y030336D01*
X050475Y030039D02*
X125326Y030039D01*
X125352Y030065D02*
X125225Y029938D01*
X125156Y029771D01*
X125156Y029591D01*
X125225Y029425D01*
X125352Y029298D01*
X125518Y029229D01*
X125699Y029229D01*
X125865Y029298D01*
X125992Y029425D01*
X126061Y029591D01*
X126061Y029771D01*
X125992Y029938D01*
X125865Y030065D01*
X125699Y030134D01*
X125518Y030134D01*
X125352Y030065D01*
X125205Y029890D02*
X103081Y029890D01*
X103229Y029742D02*
X125156Y029742D01*
X125156Y029593D02*
X103332Y029593D01*
X103394Y029444D02*
X125217Y029444D01*
X125356Y029296D02*
X103424Y029296D01*
X103424Y029147D02*
X115875Y029147D01*
X115691Y028999D02*
X103404Y028999D01*
X103343Y028850D02*
X115616Y028850D01*
X115589Y028702D02*
X103255Y028702D01*
X103106Y028553D02*
X115599Y028553D01*
X116526Y028999D02*
X116691Y028999D01*
X116616Y028850D02*
X116601Y028850D01*
X116342Y029147D02*
X116875Y029147D01*
X117342Y029147D02*
X136156Y029147D01*
X136156Y029091D02*
X136225Y028925D01*
X136352Y028798D01*
X136518Y028729D01*
X136699Y028729D01*
X136865Y028798D01*
X136992Y028925D01*
X137061Y029091D01*
X137061Y029271D01*
X136992Y029438D01*
X136865Y029565D01*
X136699Y029634D01*
X136518Y029634D01*
X136352Y029565D01*
X136225Y029438D01*
X136156Y029271D01*
X136156Y029091D01*
X136194Y028999D02*
X117526Y028999D01*
X117601Y028850D02*
X136299Y028850D01*
X136166Y029296D02*
X129861Y029296D01*
X129865Y029298D02*
X129992Y029425D01*
X130061Y029591D01*
X130061Y029771D01*
X129992Y029938D01*
X129865Y030065D01*
X129699Y030134D01*
X129518Y030134D01*
X129352Y030065D01*
X129225Y029938D01*
X129156Y029771D01*
X129156Y029591D01*
X129225Y029425D01*
X129352Y029298D01*
X129518Y029229D01*
X129699Y029229D01*
X129865Y029298D01*
X130000Y029444D02*
X136231Y029444D01*
X136419Y029593D02*
X130061Y029593D01*
X130061Y029742D02*
X141988Y029742D01*
X141917Y029671D02*
X141793Y029371D01*
X141793Y029047D01*
X141917Y028747D01*
X142146Y028518D01*
X142446Y028393D01*
X142771Y028393D01*
X143070Y028518D01*
X143300Y028747D01*
X143424Y029047D01*
X143424Y029371D01*
X143300Y029671D01*
X143070Y029900D01*
X142771Y030024D01*
X142446Y030024D01*
X142146Y029900D01*
X141917Y029671D01*
X141885Y029593D02*
X136798Y029593D01*
X136986Y029444D02*
X141823Y029444D01*
X141793Y029296D02*
X137051Y029296D01*
X137061Y029147D02*
X141793Y029147D01*
X141813Y028999D02*
X137023Y028999D01*
X136917Y028850D02*
X141874Y028850D01*
X141962Y028702D02*
X117628Y028702D01*
X117618Y028553D02*
X127340Y028553D01*
X127352Y028565D02*
X127225Y028438D01*
X127156Y028271D01*
X127156Y028091D01*
X127225Y027925D01*
X127352Y027798D01*
X127518Y027729D01*
X127699Y027729D01*
X127865Y027798D01*
X127992Y027925D01*
X128061Y028091D01*
X128061Y028271D01*
X127992Y028438D01*
X127865Y028565D01*
X127699Y028634D01*
X127518Y028634D01*
X127352Y028565D01*
X127211Y028405D02*
X117557Y028405D01*
X117419Y028256D02*
X127156Y028256D01*
X127156Y028108D02*
X117418Y028108D01*
X117556Y027959D02*
X127211Y027959D01*
X127339Y027810D02*
X117618Y027810D01*
X117628Y027662D02*
X134656Y027662D01*
X134656Y027591D02*
X134725Y027425D01*
X134852Y027298D01*
X135018Y027229D01*
X135199Y027229D01*
X135365Y027298D01*
X135492Y027425D01*
X135561Y027591D01*
X135561Y027771D01*
X135492Y027938D01*
X135365Y028065D01*
X135199Y028134D01*
X135018Y028134D01*
X134852Y028065D01*
X134725Y027938D01*
X134656Y027771D01*
X134656Y027591D01*
X134688Y027513D02*
X131917Y027513D01*
X131865Y027565D02*
X131699Y027634D01*
X131518Y027634D01*
X131352Y027565D01*
X131225Y027438D01*
X131156Y027271D01*
X131156Y027091D01*
X131225Y026925D01*
X131352Y026798D01*
X131518Y026729D01*
X131699Y026729D01*
X131865Y026798D01*
X131992Y026925D01*
X132061Y027091D01*
X132061Y027271D01*
X131992Y027438D01*
X131865Y027565D01*
X132022Y027365D02*
X134785Y027365D01*
X134672Y027810D02*
X127878Y027810D01*
X128006Y027959D02*
X134746Y027959D01*
X134955Y028108D02*
X128061Y028108D01*
X128061Y028256D02*
X161109Y028256D01*
X161109Y028108D02*
X135262Y028108D01*
X135471Y027959D02*
X161109Y027959D01*
X161109Y027810D02*
X143619Y027810D01*
X143650Y027798D02*
X143383Y027908D01*
X143094Y027908D01*
X142827Y027798D01*
X142622Y027593D01*
X142511Y027326D01*
X142511Y027037D01*
X142622Y026770D01*
X142827Y026565D01*
X143094Y026454D01*
X143383Y026454D01*
X143650Y026565D01*
X143855Y026770D01*
X143965Y027037D01*
X143965Y027326D01*
X143855Y027593D01*
X143650Y027798D01*
X143786Y027662D02*
X161109Y027662D01*
X161109Y027513D02*
X143888Y027513D01*
X143949Y027365D02*
X161109Y027365D01*
X161109Y027216D02*
X143965Y027216D01*
X143965Y027068D02*
X161109Y027068D01*
X161109Y026919D02*
X143917Y026919D01*
X143855Y026771D02*
X161109Y026771D01*
X161109Y026622D02*
X143707Y026622D01*
X143429Y026474D02*
X161109Y026474D01*
X161109Y026325D02*
X117487Y026325D01*
X117585Y026474D02*
X143048Y026474D01*
X142770Y026622D02*
X117628Y026622D01*
X117628Y026771D02*
X131417Y026771D01*
X131231Y026919D02*
X117573Y026919D01*
X117457Y027068D02*
X131166Y027068D01*
X131156Y027216D02*
X117344Y027216D01*
X117527Y027365D02*
X131195Y027365D01*
X131300Y027513D02*
X117602Y027513D01*
X117272Y026176D02*
X161109Y026176D01*
X161109Y026028D02*
X160360Y026028D01*
X160348Y026040D02*
X160193Y026104D01*
X160024Y026104D01*
X159869Y026040D01*
X159750Y025921D01*
X159685Y025766D01*
X159685Y025597D01*
X159750Y025442D01*
X159869Y025323D01*
X160024Y025258D01*
X160193Y025258D01*
X160348Y025323D01*
X160467Y025442D01*
X160532Y025597D01*
X160532Y025766D01*
X160467Y025921D01*
X160348Y026040D01*
X160484Y025879D02*
X161109Y025879D01*
X161109Y025731D02*
X160532Y025731D01*
X160525Y025582D02*
X161109Y025582D01*
X161109Y025434D02*
X160459Y025434D01*
X160258Y025285D02*
X161109Y025285D01*
X161109Y025137D02*
X154061Y025137D01*
X154061Y025091D02*
X153992Y024925D01*
X153865Y024798D01*
X153699Y024729D01*
X153518Y024729D01*
X153352Y024798D01*
X153225Y024925D01*
X153156Y025091D01*
X153156Y025271D01*
X153225Y025438D01*
X153352Y025565D01*
X153518Y025634D01*
X153699Y025634D01*
X153865Y025565D01*
X153992Y025438D01*
X154061Y025271D01*
X154061Y025091D01*
X154018Y024988D02*
X157817Y024988D01*
X157869Y025040D02*
X157750Y024921D01*
X157685Y024766D01*
X157685Y024597D01*
X157750Y024442D01*
X157869Y024323D01*
X158024Y024258D01*
X158193Y024258D01*
X158348Y024323D01*
X158467Y024442D01*
X158532Y024597D01*
X158532Y024766D01*
X158467Y024921D01*
X158348Y025040D01*
X158193Y025104D01*
X158024Y025104D01*
X157869Y025040D01*
X157716Y024840D02*
X153907Y024840D01*
X154055Y025285D02*
X157959Y025285D01*
X158024Y025258D02*
X158193Y025258D01*
X158348Y025323D01*
X158467Y025442D01*
X158532Y025597D01*
X158532Y025766D01*
X158467Y025921D01*
X158348Y026040D01*
X158193Y026104D01*
X158024Y026104D01*
X157869Y026040D01*
X157750Y025921D01*
X157685Y025766D01*
X157685Y025597D01*
X157750Y025442D01*
X157869Y025323D01*
X158024Y025258D01*
X158258Y025285D02*
X158959Y025285D01*
X159024Y025258D02*
X159193Y025258D01*
X159348Y025323D01*
X159467Y025442D01*
X159532Y025597D01*
X159532Y025766D01*
X159467Y025921D01*
X159348Y026040D01*
X159193Y026104D01*
X159024Y026104D01*
X158869Y026040D01*
X158750Y025921D01*
X158685Y025766D01*
X158685Y025597D01*
X158750Y025442D01*
X158869Y025323D01*
X159024Y025258D01*
X159024Y025104D02*
X158869Y025040D01*
X158750Y024921D01*
X158685Y024766D01*
X158685Y024597D01*
X158750Y024442D01*
X158869Y024323D01*
X159024Y024258D01*
X159193Y024258D01*
X159348Y024323D01*
X159467Y024442D01*
X159532Y024597D01*
X159532Y024766D01*
X159467Y024921D01*
X159348Y025040D01*
X159193Y025104D01*
X159024Y025104D01*
X158817Y024988D02*
X158400Y024988D01*
X158501Y024840D02*
X158716Y024840D01*
X158685Y024691D02*
X158532Y024691D01*
X158509Y024543D02*
X158708Y024543D01*
X158798Y024394D02*
X158419Y024394D01*
X157798Y024394D02*
X142905Y024394D01*
X142771Y024338D02*
X143070Y024462D01*
X143300Y024692D01*
X143424Y024992D01*
X143424Y025316D01*
X143300Y025616D01*
X143070Y025845D01*
X142771Y025969D01*
X142446Y025969D01*
X142146Y025845D01*
X141917Y025616D01*
X141793Y025316D01*
X141793Y024992D01*
X141917Y024692D01*
X142146Y024462D01*
X142446Y024338D01*
X142771Y024338D01*
X143151Y024543D02*
X157708Y024543D01*
X157685Y024691D02*
X143299Y024691D01*
X143361Y024840D02*
X153310Y024840D01*
X153199Y024988D02*
X143423Y024988D01*
X143424Y025137D02*
X153156Y025137D01*
X153162Y025285D02*
X143424Y025285D01*
X143375Y025434D02*
X153223Y025434D01*
X153394Y025582D02*
X143314Y025582D01*
X143185Y025731D02*
X157685Y025731D01*
X157692Y025582D02*
X153823Y025582D01*
X153994Y025434D02*
X157758Y025434D01*
X157733Y025879D02*
X142988Y025879D01*
X142229Y025879D02*
X117589Y025879D01*
X117628Y025731D02*
X142032Y025731D01*
X141903Y025582D02*
X117628Y025582D01*
X117569Y025434D02*
X141842Y025434D01*
X141793Y025285D02*
X117448Y025285D01*
X117368Y025137D02*
X141793Y025137D01*
X141794Y024988D02*
X117537Y024988D01*
X117606Y024840D02*
X141856Y024840D01*
X141918Y024691D02*
X117628Y024691D01*
X117614Y024543D02*
X142066Y024543D01*
X142312Y024394D02*
X117552Y024394D01*
X117408Y024245D02*
X161109Y024245D01*
X161109Y024394D02*
X160419Y024394D01*
X160467Y024442D02*
X160532Y024597D01*
X160532Y024766D01*
X160467Y024921D01*
X160348Y025040D01*
X160193Y025104D01*
X160024Y025104D01*
X159869Y025040D01*
X159750Y024921D01*
X159685Y024766D01*
X159685Y024597D01*
X159750Y024442D01*
X159869Y024323D01*
X160024Y024258D01*
X160193Y024258D01*
X160348Y024323D01*
X160467Y024442D01*
X160509Y024543D02*
X161109Y024543D01*
X161109Y024691D02*
X160532Y024691D01*
X160501Y024840D02*
X161109Y024840D01*
X161109Y024988D02*
X160400Y024988D01*
X159959Y025285D02*
X159258Y025285D01*
X159459Y025434D02*
X159758Y025434D01*
X159692Y025582D02*
X159525Y025582D01*
X159532Y025731D02*
X159685Y025731D01*
X159733Y025879D02*
X159484Y025879D01*
X159360Y026028D02*
X159857Y026028D01*
X158857Y026028D02*
X158360Y026028D01*
X158484Y025879D02*
X158733Y025879D01*
X158685Y025731D02*
X158532Y025731D01*
X158525Y025582D02*
X158692Y025582D01*
X158758Y025434D02*
X158459Y025434D01*
X157857Y026028D02*
X117497Y026028D01*
X115809Y024245D02*
X085929Y024245D01*
X083713Y020235D02*
X102764Y020235D01*
X102619Y020086D02*
X083858Y020086D01*
X083919Y019938D02*
X102558Y019938D01*
X102511Y019789D02*
X083965Y019789D01*
X083965Y019641D02*
X102511Y019641D01*
X102530Y019492D02*
X083947Y019492D01*
X083885Y019344D02*
X102591Y019344D01*
X102697Y019195D02*
X083780Y019195D01*
X083605Y019046D02*
X102872Y019046D01*
X103605Y019046D02*
X115738Y019046D01*
X115635Y018898D02*
X041009Y018898D01*
X041061Y018749D02*
X115589Y018749D01*
X115589Y018601D02*
X041061Y018601D01*
X041003Y018452D02*
X042405Y018452D01*
X042105Y018304D02*
X040871Y018304D01*
X040884Y019046D02*
X042872Y019046D01*
X043605Y019046D02*
X062872Y019046D01*
X062697Y019195D02*
X043780Y019195D01*
X043885Y019344D02*
X062591Y019344D01*
X062530Y019492D02*
X043947Y019492D01*
X043965Y019641D02*
X062511Y019641D01*
X062511Y019789D02*
X043965Y019789D01*
X043919Y019938D02*
X062558Y019938D01*
X062619Y020086D02*
X043858Y020086D01*
X043713Y020235D02*
X062764Y020235D01*
X063713Y020235D02*
X082764Y020235D01*
X082619Y020086D02*
X063858Y020086D01*
X063919Y019938D02*
X082558Y019938D01*
X082511Y019789D02*
X063965Y019789D01*
X063965Y019641D02*
X082511Y019641D01*
X082530Y019492D02*
X063947Y019492D01*
X063885Y019344D02*
X082591Y019344D01*
X082697Y019195D02*
X063780Y019195D01*
X063605Y019046D02*
X082872Y019046D01*
X103713Y020235D02*
X115828Y020235D01*
X115778Y020086D02*
X103858Y020086D01*
X103919Y019938D02*
X115652Y019938D01*
X115590Y019789D02*
X103965Y019789D01*
X103965Y019641D02*
X115589Y019641D01*
X115624Y019492D02*
X103947Y019492D01*
X103885Y019344D02*
X115711Y019344D01*
X115924Y019195D02*
X103780Y019195D01*
X106609Y016670D02*
X039561Y016670D01*
X039532Y016521D02*
X106609Y016521D01*
X106609Y016373D02*
X039440Y016373D01*
X038777Y016373D02*
X028440Y016373D01*
X028492Y016425D02*
X028561Y016591D01*
X028561Y016771D01*
X028492Y016938D01*
X028365Y017065D01*
X028199Y017134D01*
X028018Y017134D01*
X027852Y017065D01*
X027725Y016938D01*
X027656Y016771D01*
X027656Y016591D01*
X027725Y016425D01*
X027852Y016298D01*
X028018Y016229D01*
X028199Y016229D01*
X028365Y016298D01*
X028492Y016425D01*
X028532Y016521D02*
X038685Y016521D01*
X038656Y016670D02*
X028561Y016670D01*
X028542Y016818D02*
X029510Y016818D01*
X029510Y016967D02*
X028463Y016967D01*
X028244Y017115D02*
X029510Y017115D01*
X029510Y017264D02*
X026109Y017264D01*
X026109Y017412D02*
X029510Y017412D01*
X029528Y017412D02*
X029538Y017412D01*
X029538Y017561D02*
X026109Y017561D01*
X026109Y017115D02*
X027973Y017115D01*
X027754Y016967D02*
X026109Y016967D01*
X026109Y016818D02*
X027675Y016818D01*
X027656Y016670D02*
X026109Y016670D01*
X026109Y016521D02*
X027685Y016521D01*
X027777Y016373D02*
X026109Y016373D01*
X026109Y016224D02*
X106609Y016224D01*
X106609Y016076D02*
X060763Y016076D01*
X060961Y015927D02*
X106609Y015927D01*
X106609Y015778D02*
X061026Y015778D01*
X061032Y015630D02*
X106609Y015630D01*
X106609Y015481D02*
X060984Y015481D01*
X060858Y015333D02*
X106609Y015333D01*
X106609Y014887D02*
X103084Y014887D01*
X103232Y014739D02*
X106609Y014739D01*
X106609Y014590D02*
X103333Y014590D01*
X103395Y014442D02*
X106609Y014442D01*
X106609Y014293D02*
X103424Y014293D01*
X103424Y014144D02*
X106609Y014144D01*
X106609Y013996D02*
X103403Y013996D01*
X103341Y013847D02*
X106609Y013847D01*
X106609Y013699D02*
X103252Y013699D01*
X103103Y013550D02*
X106609Y013550D01*
X102114Y013550D02*
X083103Y013550D01*
X083252Y013699D02*
X101965Y013699D01*
X101876Y013847D02*
X083341Y013847D01*
X083403Y013996D02*
X101814Y013996D01*
X101793Y014144D02*
X083424Y014144D01*
X083424Y014293D02*
X101793Y014293D01*
X101822Y014442D02*
X083395Y014442D01*
X083333Y014590D02*
X101884Y014590D01*
X101985Y014739D02*
X083232Y014739D01*
X083084Y014887D02*
X102133Y014887D01*
X082133Y014887D02*
X063084Y014887D01*
X063232Y014739D02*
X081985Y014739D01*
X081884Y014590D02*
X063333Y014590D01*
X063395Y014442D02*
X081822Y014442D01*
X081793Y014293D02*
X063424Y014293D01*
X063424Y014144D02*
X081793Y014144D01*
X081814Y013996D02*
X063403Y013996D01*
X063341Y013847D02*
X081876Y013847D01*
X081965Y013699D02*
X063252Y013699D01*
X063103Y013550D02*
X082114Y013550D01*
X062319Y009391D02*
X053980Y009391D01*
X053849Y009540D02*
X062069Y009540D01*
X054032Y008203D02*
X160609Y008203D01*
X160609Y008351D02*
X123169Y008351D01*
X123273Y008500D02*
X160609Y008500D01*
X160609Y008648D02*
X123311Y008648D01*
X123301Y008797D02*
X160609Y008797D01*
X160609Y008945D02*
X123235Y008945D01*
X123045Y009094D02*
X160609Y009094D01*
X160609Y008054D02*
X054014Y008054D01*
X053931Y007906D02*
X160609Y007906D01*
X160609Y007757D02*
X047983Y007757D01*
X047967Y007796D02*
X047848Y007915D01*
X047693Y007979D01*
X047524Y007979D01*
X047369Y007915D01*
X047250Y007796D01*
X047185Y007641D01*
X047185Y007472D01*
X047250Y007317D01*
X047369Y007198D01*
X047524Y007133D01*
X047693Y007133D01*
X047848Y007198D01*
X047967Y007317D01*
X048032Y007472D01*
X048032Y007641D01*
X047967Y007796D01*
X047858Y007906D02*
X053286Y007906D01*
X053203Y008054D02*
X039609Y008054D01*
X039609Y007906D02*
X047359Y007906D01*
X047234Y007757D02*
X039609Y007757D01*
X039609Y007609D02*
X047185Y007609D01*
X047190Y007460D02*
X042926Y007460D01*
X043159Y007311D02*
X047255Y007311D01*
X047453Y007163D02*
X043303Y007163D01*
X043365Y007014D02*
X050343Y007014D01*
X050227Y006866D02*
X043424Y006866D01*
X043424Y006717D02*
X050185Y006717D01*
X050874Y007014D02*
X052343Y007014D01*
X052227Y006866D02*
X050990Y006866D01*
X051032Y006717D02*
X052185Y006717D01*
X052874Y007014D02*
X061852Y007014D01*
X061793Y006866D02*
X052990Y006866D01*
X053032Y006717D02*
X056796Y006717D01*
X057421Y006717D02*
X061793Y006717D01*
X061914Y007163D02*
X047764Y007163D01*
X047962Y007311D02*
X062058Y007311D01*
X062291Y007460D02*
X048026Y007460D01*
X048032Y007609D02*
X160609Y007609D01*
X160609Y007460D02*
X142926Y007460D01*
X143159Y007311D02*
X160609Y007311D01*
X160609Y007163D02*
X143303Y007163D01*
X143365Y007014D02*
X153301Y007014D01*
X153195Y006866D02*
X143424Y006866D01*
X143424Y006717D02*
X153156Y006717D01*
X153916Y007014D02*
X160609Y007014D01*
X160609Y006866D02*
X154022Y006866D01*
X154061Y006717D02*
X160609Y006717D01*
X142291Y007460D02*
X131553Y007460D01*
X131592Y007421D02*
X131473Y007540D01*
X131318Y007604D01*
X131149Y007604D01*
X130994Y007540D01*
X130875Y007421D01*
X130810Y007266D01*
X130810Y007097D01*
X130875Y006942D01*
X130994Y006823D01*
X131149Y006758D01*
X131318Y006758D01*
X131473Y006823D01*
X131592Y006942D01*
X131657Y007097D01*
X131657Y007266D01*
X131592Y007421D01*
X131638Y007311D02*
X142058Y007311D01*
X141914Y007163D02*
X131657Y007163D01*
X131622Y007014D02*
X138551Y007014D01*
X138445Y006866D02*
X131516Y006866D01*
X130951Y006866D02*
X117391Y006866D01*
X117348Y006823D02*
X117467Y006942D01*
X117532Y007097D01*
X117532Y007266D01*
X117467Y007421D01*
X117348Y007540D01*
X117193Y007604D01*
X117024Y007604D01*
X116869Y007540D01*
X116750Y007421D01*
X116685Y007266D01*
X116685Y007097D01*
X116750Y006942D01*
X116869Y006823D01*
X117024Y006758D01*
X117193Y006758D01*
X117348Y006823D01*
X117497Y007014D02*
X130845Y007014D01*
X130810Y007163D02*
X117532Y007163D01*
X117513Y007311D02*
X130829Y007311D01*
X130914Y007460D02*
X117428Y007460D01*
X116789Y007460D02*
X102926Y007460D01*
X103159Y007311D02*
X116704Y007311D01*
X116685Y007163D02*
X103303Y007163D01*
X103365Y007014D02*
X116720Y007014D01*
X116826Y006866D02*
X103424Y006866D01*
X103424Y006717D02*
X138406Y006717D01*
X139166Y007014D02*
X141852Y007014D01*
X141793Y006866D02*
X139272Y006866D01*
X139311Y006717D02*
X141793Y006717D01*
X137109Y005678D02*
X132532Y005678D01*
X132503Y005529D02*
X137109Y005529D01*
X137109Y005380D02*
X132406Y005380D01*
X132193Y004854D02*
X132024Y004854D01*
X131869Y004790D01*
X131750Y004671D01*
X131685Y004516D01*
X131685Y004347D01*
X131750Y004192D01*
X131869Y004073D01*
X132024Y004008D01*
X132193Y004008D01*
X132348Y004073D01*
X132467Y004192D01*
X137109Y004192D01*
X137109Y004044D02*
X132278Y004044D01*
X132467Y004192D02*
X132532Y004347D01*
X132532Y004516D01*
X132467Y004671D01*
X132348Y004790D01*
X132193Y004854D01*
X132352Y004786D02*
X137109Y004786D01*
X137109Y004638D02*
X132481Y004638D01*
X132532Y004489D02*
X137109Y004489D01*
X137109Y004341D02*
X132529Y004341D01*
X131939Y004044D02*
X130778Y004044D01*
X130848Y004073D02*
X130967Y004192D01*
X131750Y004192D01*
X131688Y004341D02*
X131029Y004341D01*
X131032Y004347D02*
X130967Y004192D01*
X131032Y004347D02*
X131032Y004516D01*
X130967Y004671D01*
X130848Y004790D01*
X130693Y004854D01*
X130524Y004854D01*
X130369Y004790D01*
X130250Y004671D01*
X130185Y004516D01*
X130185Y004347D01*
X130250Y004192D01*
X130369Y004073D01*
X130524Y004008D01*
X130693Y004008D01*
X130848Y004073D01*
X130439Y004044D02*
X129278Y004044D01*
X129348Y004073D02*
X129467Y004192D01*
X130250Y004192D01*
X130188Y004341D02*
X129529Y004341D01*
X129532Y004347D02*
X129467Y004192D01*
X129532Y004347D02*
X129532Y004516D01*
X129467Y004671D01*
X129348Y004790D01*
X129193Y004854D01*
X129024Y004854D01*
X128869Y004790D01*
X128750Y004671D01*
X128685Y004516D01*
X128685Y004347D01*
X128750Y004192D01*
X128869Y004073D01*
X129024Y004008D01*
X129193Y004008D01*
X129348Y004073D01*
X128939Y004044D02*
X117404Y004044D01*
X117328Y004120D02*
X117061Y004274D01*
X116763Y004354D01*
X116454Y004354D01*
X116156Y004274D01*
X115889Y004120D01*
X115670Y003901D01*
X115516Y003634D01*
X115436Y003336D01*
X115436Y003027D01*
X115516Y002729D01*
X115670Y002461D01*
X115889Y002243D01*
X116156Y002089D01*
X116454Y002009D01*
X116763Y002009D01*
X117061Y002089D01*
X117328Y002243D01*
X117547Y002461D01*
X117701Y002729D01*
X117781Y003027D01*
X117781Y003336D01*
X117701Y003634D01*
X117547Y003901D01*
X117328Y004120D01*
X117203Y004192D02*
X128750Y004192D01*
X128688Y004341D02*
X116812Y004341D01*
X116405Y004341D02*
X103884Y004341D01*
X103855Y004270D02*
X103965Y004537D01*
X103965Y004826D01*
X103855Y005093D01*
X103650Y005298D01*
X103383Y005408D01*
X103094Y005408D01*
X102827Y005298D01*
X102622Y005093D01*
X102511Y004826D01*
X102511Y004537D01*
X102622Y004270D01*
X102827Y004065D01*
X103094Y003954D01*
X103383Y003954D01*
X103650Y004065D01*
X103855Y004270D01*
X103777Y004192D02*
X116014Y004192D01*
X115813Y004044D02*
X103598Y004044D01*
X103946Y004489D02*
X128685Y004489D01*
X128736Y004638D02*
X103965Y004638D01*
X103965Y004786D02*
X128865Y004786D01*
X129352Y004786D02*
X130365Y004786D01*
X130236Y004638D02*
X129481Y004638D01*
X129532Y004489D02*
X130185Y004489D01*
X130852Y004786D02*
X131865Y004786D01*
X131736Y004638D02*
X130981Y004638D01*
X131032Y004489D02*
X131685Y004489D01*
X131811Y005380D02*
X130906Y005380D01*
X131003Y005529D02*
X131714Y005529D01*
X131685Y005678D02*
X131032Y005678D01*
X130311Y005380D02*
X129406Y005380D01*
X129503Y005529D02*
X130214Y005529D01*
X130185Y005678D02*
X129532Y005678D01*
X128811Y005380D02*
X103450Y005380D01*
X103716Y005232D02*
X137109Y005232D01*
X137109Y005083D02*
X103859Y005083D01*
X103920Y004935D02*
X137109Y004935D01*
X137109Y003895D02*
X117550Y003895D01*
X117636Y003746D02*
X137109Y003746D01*
X137109Y003598D02*
X132209Y003598D01*
X132193Y003604D02*
X132024Y003604D01*
X131869Y003540D01*
X131750Y003421D01*
X131685Y003266D01*
X131685Y003097D01*
X131750Y002942D01*
X131869Y002823D01*
X132024Y002758D01*
X132193Y002758D01*
X132348Y002823D01*
X132467Y002942D01*
X132532Y003097D01*
X132532Y003266D01*
X132467Y003421D01*
X132348Y003540D01*
X132193Y003604D01*
X132008Y003598D02*
X130709Y003598D01*
X130693Y003604D02*
X130524Y003604D01*
X130369Y003540D01*
X130250Y003421D01*
X130185Y003266D01*
X130185Y003097D01*
X130250Y002942D01*
X130369Y002823D01*
X130524Y002758D01*
X130693Y002758D01*
X130848Y002823D01*
X130967Y002942D01*
X131032Y003097D01*
X131032Y003266D01*
X130967Y003421D01*
X130848Y003540D01*
X130693Y003604D01*
X130508Y003598D02*
X129209Y003598D01*
X129193Y003604D02*
X129024Y003604D01*
X128869Y003540D01*
X128750Y003421D01*
X128685Y003266D01*
X128685Y003097D01*
X128750Y002942D01*
X128869Y002823D01*
X129024Y002758D01*
X129193Y002758D01*
X129348Y002823D01*
X129467Y002942D01*
X129532Y003097D01*
X129532Y003266D01*
X129467Y003421D01*
X129348Y003540D01*
X129193Y003604D01*
X129008Y003598D02*
X117711Y003598D01*
X117751Y003449D02*
X128778Y003449D01*
X128700Y003301D02*
X117781Y003301D01*
X117781Y003152D02*
X128685Y003152D01*
X128724Y003004D02*
X117775Y003004D01*
X117735Y002855D02*
X128836Y002855D01*
X129381Y002855D02*
X130336Y002855D01*
X130224Y003004D02*
X129493Y003004D01*
X129532Y003152D02*
X130185Y003152D01*
X130200Y003301D02*
X129517Y003301D01*
X129439Y003449D02*
X130278Y003449D01*
X130939Y003449D02*
X131778Y003449D01*
X131700Y003301D02*
X131017Y003301D01*
X131032Y003152D02*
X131685Y003152D01*
X131724Y003004D02*
X130993Y003004D01*
X130881Y002855D02*
X131836Y002855D01*
X132381Y002855D02*
X137109Y002855D01*
X137109Y002707D02*
X117688Y002707D01*
X117602Y002558D02*
X137109Y002558D01*
X137109Y002410D02*
X117495Y002410D01*
X117346Y002261D02*
X137109Y002261D01*
X137109Y002112D02*
X117102Y002112D01*
X116115Y002112D02*
X103220Y002112D01*
X103300Y002192D02*
X103424Y002492D01*
X103424Y002816D01*
X103300Y003116D01*
X103070Y003345D01*
X102771Y003469D01*
X102446Y003469D01*
X102146Y003345D01*
X101917Y003116D01*
X101793Y002816D01*
X101793Y002492D01*
X101917Y002192D01*
X102146Y001962D01*
X102446Y001838D01*
X102771Y001838D01*
X103070Y001962D01*
X103300Y002192D01*
X103328Y002261D02*
X115871Y002261D01*
X115722Y002410D02*
X103390Y002410D01*
X103424Y002558D02*
X115614Y002558D01*
X115529Y002707D02*
X103424Y002707D01*
X103408Y002855D02*
X115482Y002855D01*
X115442Y003004D02*
X103346Y003004D01*
X103263Y003152D02*
X115436Y003152D01*
X115436Y003301D02*
X103115Y003301D01*
X102819Y003449D02*
X115466Y003449D01*
X115506Y003598D02*
X073781Y003598D01*
X073781Y003527D02*
X073701Y003229D01*
X073547Y002961D01*
X073328Y002743D01*
X073061Y002589D01*
X072763Y002509D01*
X072454Y002509D01*
X072156Y002589D01*
X071889Y002743D01*
X071670Y002961D01*
X071516Y003229D01*
X071436Y003527D01*
X071436Y003836D01*
X071516Y004134D01*
X071670Y004401D01*
X071889Y004620D01*
X072156Y004774D01*
X072454Y004854D01*
X072763Y004854D01*
X073061Y004774D01*
X073328Y004620D01*
X073547Y004401D01*
X073701Y004134D01*
X073781Y003836D01*
X073781Y003527D01*
X073760Y003449D02*
X082398Y003449D01*
X082446Y003469D02*
X082146Y003345D01*
X081917Y003116D01*
X081793Y002816D01*
X081793Y002492D01*
X081917Y002192D01*
X082146Y001962D01*
X082446Y001838D01*
X082771Y001838D01*
X083070Y001962D01*
X083300Y002192D01*
X083424Y002492D01*
X083424Y002816D01*
X083300Y003116D01*
X083070Y003345D01*
X082771Y003469D01*
X082446Y003469D01*
X082819Y003449D02*
X102398Y003449D01*
X102102Y003301D02*
X083115Y003301D01*
X083263Y003152D02*
X101954Y003152D01*
X101871Y003004D02*
X083346Y003004D01*
X083408Y002855D02*
X101809Y002855D01*
X101793Y002707D02*
X083424Y002707D01*
X083424Y002558D02*
X101793Y002558D01*
X101827Y002410D02*
X083390Y002410D01*
X083328Y002261D02*
X101888Y002261D01*
X101996Y002112D02*
X083220Y002112D01*
X083072Y001964D02*
X102145Y001964D01*
X103072Y001964D02*
X137109Y001964D01*
X137109Y001815D02*
X018109Y001815D01*
X018109Y001667D02*
X137109Y001667D01*
X137109Y001518D02*
X018109Y001518D01*
X018109Y001370D02*
X137109Y001370D01*
X137109Y001221D02*
X018109Y001221D01*
X018109Y001073D02*
X137109Y001073D01*
X137109Y000924D02*
X018109Y000924D01*
X018109Y000776D02*
X137109Y000776D01*
X137109Y003004D02*
X132493Y003004D01*
X132532Y003152D02*
X137109Y003152D01*
X137109Y003301D02*
X132517Y003301D01*
X132439Y003449D02*
X137109Y003449D01*
X128714Y005529D02*
X055503Y005529D01*
X055532Y005678D02*
X128685Y005678D01*
X115667Y003895D02*
X073765Y003895D01*
X073781Y003746D02*
X115581Y003746D01*
X103026Y005380D02*
X083450Y005380D01*
X083383Y005408D02*
X083094Y005408D01*
X082827Y005298D01*
X082622Y005093D01*
X082511Y004826D01*
X082511Y004537D01*
X082622Y004270D01*
X082827Y004065D01*
X083094Y003954D01*
X083383Y003954D01*
X083650Y004065D01*
X083855Y004270D01*
X083965Y004537D01*
X083965Y004826D01*
X083855Y005093D01*
X083650Y005298D01*
X083383Y005408D01*
X083026Y005380D02*
X063450Y005380D01*
X063383Y005408D02*
X063094Y005408D01*
X062827Y005298D01*
X062622Y005093D01*
X062511Y004826D01*
X062511Y004537D01*
X062622Y004270D01*
X062827Y004065D01*
X063094Y003954D01*
X063383Y003954D01*
X063650Y004065D01*
X063855Y004270D01*
X063965Y004537D01*
X063965Y004826D01*
X063855Y005093D01*
X063650Y005298D01*
X063383Y005408D01*
X063026Y005380D02*
X055406Y005380D01*
X054811Y005380D02*
X043450Y005380D01*
X043716Y005232D02*
X062761Y005232D01*
X062618Y005083D02*
X043859Y005083D01*
X043920Y004935D02*
X062557Y004935D01*
X062511Y004786D02*
X043965Y004786D01*
X043965Y004638D02*
X062511Y004638D01*
X062531Y004489D02*
X043946Y004489D01*
X043884Y004341D02*
X062593Y004341D01*
X062700Y004192D02*
X043777Y004192D01*
X043598Y004044D02*
X062879Y004044D01*
X063598Y004044D02*
X071492Y004044D01*
X071452Y003895D02*
X018109Y003895D01*
X018109Y003746D02*
X071436Y003746D01*
X071436Y003598D02*
X031709Y003598D01*
X031693Y003604D02*
X031524Y003604D01*
X031369Y003540D01*
X031250Y003421D01*
X031185Y003266D01*
X031185Y003097D01*
X031250Y002942D01*
X031369Y002823D01*
X031524Y002758D01*
X031693Y002758D01*
X031848Y002823D01*
X031967Y002942D01*
X032032Y003097D01*
X032032Y003266D01*
X031967Y003421D01*
X031848Y003540D01*
X031693Y003604D01*
X031508Y003598D02*
X030209Y003598D01*
X030193Y003604D02*
X030024Y003604D01*
X029869Y003540D01*
X029750Y003421D01*
X029685Y003266D01*
X029685Y003097D01*
X029750Y002942D01*
X029869Y002823D01*
X030024Y002758D01*
X030193Y002758D01*
X030348Y002823D01*
X030467Y002942D01*
X030532Y003097D01*
X030532Y003266D01*
X030467Y003421D01*
X030348Y003540D01*
X030193Y003604D01*
X030008Y003598D02*
X028709Y003598D01*
X028693Y003604D02*
X028524Y003604D01*
X028369Y003540D01*
X028250Y003421D01*
X028185Y003266D01*
X028185Y003097D01*
X028250Y002942D01*
X028369Y002823D01*
X028524Y002758D01*
X028693Y002758D01*
X028848Y002823D01*
X028967Y002942D01*
X029032Y003097D01*
X029032Y003266D01*
X028967Y003421D01*
X028848Y003540D01*
X028693Y003604D01*
X028508Y003598D02*
X018109Y003598D01*
X018109Y003449D02*
X028278Y003449D01*
X028200Y003301D02*
X018109Y003301D01*
X018109Y003152D02*
X028185Y003152D01*
X028224Y003004D02*
X018109Y003004D01*
X018109Y002855D02*
X028336Y002855D01*
X028881Y002855D02*
X029836Y002855D01*
X029724Y003004D02*
X028993Y003004D01*
X029032Y003152D02*
X029685Y003152D01*
X029700Y003301D02*
X029017Y003301D01*
X028939Y003449D02*
X029778Y003449D01*
X030024Y004008D02*
X030193Y004008D01*
X030348Y004073D01*
X030467Y004192D01*
X031250Y004192D01*
X031188Y004341D02*
X030529Y004341D01*
X030532Y004347D02*
X030467Y004192D01*
X030532Y004347D02*
X030532Y004516D01*
X030467Y004671D01*
X030348Y004790D01*
X030193Y004854D01*
X030024Y004854D01*
X029869Y004790D01*
X029750Y004671D01*
X029685Y004516D01*
X029685Y004347D01*
X029750Y004192D01*
X029869Y004073D01*
X030024Y004008D01*
X029939Y004044D02*
X028778Y004044D01*
X028848Y004073D02*
X028967Y004192D01*
X029750Y004192D01*
X029688Y004341D02*
X029029Y004341D01*
X029032Y004347D02*
X028967Y004192D01*
X029032Y004347D02*
X029032Y004516D01*
X028967Y004671D01*
X028848Y004790D01*
X028693Y004854D01*
X028524Y004854D01*
X028369Y004790D01*
X028250Y004671D01*
X028185Y004516D01*
X028185Y004347D01*
X028250Y004192D01*
X028369Y004073D01*
X028524Y004008D01*
X028693Y004008D01*
X028848Y004073D01*
X028439Y004044D02*
X018109Y004044D01*
X018109Y004192D02*
X028250Y004192D01*
X028188Y004341D02*
X018109Y004341D01*
X018109Y004489D02*
X028185Y004489D01*
X028236Y004638D02*
X018109Y004638D01*
X018109Y004786D02*
X028365Y004786D01*
X028852Y004786D02*
X029865Y004786D01*
X029736Y004638D02*
X028981Y004638D01*
X029032Y004489D02*
X029685Y004489D01*
X030352Y004786D02*
X031365Y004786D01*
X031524Y004854D02*
X031693Y004854D01*
X031848Y004790D01*
X031967Y004671D01*
X032032Y004516D01*
X032032Y004347D01*
X031967Y004192D01*
X032029Y004341D02*
X038851Y004341D01*
X038730Y004489D02*
X032032Y004489D01*
X031981Y004638D02*
X038685Y004638D01*
X038694Y004786D02*
X031852Y004786D01*
X031236Y004638D02*
X030481Y004638D01*
X030532Y004489D02*
X031185Y004489D01*
X031439Y004044D02*
X030278Y004044D01*
X031778Y004044D02*
X042879Y004044D01*
X042771Y003469D02*
X042446Y003469D01*
X042146Y003345D01*
X041917Y003116D01*
X041793Y002816D01*
X041793Y002492D01*
X041917Y002192D01*
X042146Y001962D01*
X042446Y001838D01*
X042771Y001838D01*
X043070Y001962D01*
X043300Y002192D01*
X043424Y002492D01*
X043424Y002816D01*
X043300Y003116D01*
X043070Y003345D01*
X042771Y003469D01*
X042819Y003449D02*
X062398Y003449D01*
X062446Y003469D02*
X062146Y003345D01*
X061917Y003116D01*
X061793Y002816D01*
X061793Y002492D01*
X061917Y002192D01*
X062146Y001962D01*
X062446Y001838D01*
X062771Y001838D01*
X063070Y001962D01*
X063300Y002192D01*
X063424Y002492D01*
X063424Y002816D01*
X063300Y003116D01*
X063070Y003345D01*
X062771Y003469D01*
X062446Y003469D01*
X062819Y003449D02*
X071457Y003449D01*
X071497Y003301D02*
X063115Y003301D01*
X063263Y003152D02*
X071560Y003152D01*
X071646Y003004D02*
X063346Y003004D01*
X063408Y002855D02*
X071777Y002855D01*
X071952Y002707D02*
X063424Y002707D01*
X063424Y002558D02*
X072271Y002558D01*
X072946Y002558D02*
X081793Y002558D01*
X081793Y002707D02*
X073265Y002707D01*
X073440Y002855D02*
X081809Y002855D01*
X081871Y003004D02*
X073571Y003004D01*
X073657Y003152D02*
X081954Y003152D01*
X082102Y003301D02*
X073720Y003301D01*
X073725Y004044D02*
X082879Y004044D01*
X082700Y004192D02*
X073668Y004192D01*
X073582Y004341D02*
X082593Y004341D01*
X082531Y004489D02*
X073459Y004489D01*
X073297Y004638D02*
X082511Y004638D01*
X082511Y004786D02*
X073015Y004786D01*
X072202Y004786D02*
X063965Y004786D01*
X063965Y004638D02*
X071920Y004638D01*
X071758Y004489D02*
X063946Y004489D01*
X063884Y004341D02*
X071635Y004341D01*
X071549Y004192D02*
X063777Y004192D01*
X063920Y004935D02*
X082557Y004935D01*
X082618Y005083D02*
X063859Y005083D01*
X063716Y005232D02*
X082761Y005232D01*
X083716Y005232D02*
X102761Y005232D01*
X102618Y005083D02*
X083859Y005083D01*
X083920Y004935D02*
X102557Y004935D01*
X102511Y004786D02*
X083965Y004786D01*
X083965Y004638D02*
X102511Y004638D01*
X102531Y004489D02*
X083946Y004489D01*
X083884Y004341D02*
X102593Y004341D01*
X102700Y004192D02*
X083777Y004192D01*
X083598Y004044D02*
X102879Y004044D01*
X101793Y006717D02*
X083424Y006717D01*
X083424Y006866D02*
X101793Y006866D01*
X101852Y007014D02*
X083365Y007014D01*
X083303Y007163D02*
X101914Y007163D01*
X102058Y007311D02*
X083159Y007311D01*
X082926Y007460D02*
X102291Y007460D01*
X082291Y007460D02*
X062926Y007460D01*
X063159Y007311D02*
X082058Y007311D01*
X081914Y007163D02*
X063303Y007163D01*
X063365Y007014D02*
X081852Y007014D01*
X081793Y006866D02*
X063424Y006866D01*
X063424Y006717D02*
X081793Y006717D01*
X062102Y003301D02*
X043115Y003301D01*
X043263Y003152D02*
X061954Y003152D01*
X061871Y003004D02*
X043346Y003004D01*
X043408Y002855D02*
X061809Y002855D01*
X061793Y002707D02*
X043424Y002707D01*
X043424Y002558D02*
X061793Y002558D01*
X061827Y002410D02*
X043390Y002410D01*
X043328Y002261D02*
X061888Y002261D01*
X061996Y002112D02*
X043220Y002112D01*
X043072Y001964D02*
X062145Y001964D01*
X063072Y001964D02*
X082145Y001964D01*
X081996Y002112D02*
X063220Y002112D01*
X063328Y002261D02*
X081888Y002261D01*
X081827Y002410D02*
X063390Y002410D01*
X054714Y005529D02*
X039243Y005529D01*
X039453Y005678D02*
X054685Y005678D01*
X043026Y005380D02*
X031906Y005380D01*
X032003Y005529D02*
X038974Y005529D01*
X038764Y005678D02*
X032032Y005678D01*
X032007Y005826D02*
X038109Y005826D01*
X038764Y004935D02*
X018109Y004935D01*
X018109Y005083D02*
X038973Y005083D01*
X039609Y006717D02*
X041793Y006717D01*
X041793Y006866D02*
X039609Y006866D01*
X039609Y007014D02*
X041852Y007014D01*
X041914Y007163D02*
X039609Y007163D01*
X039609Y007311D02*
X042058Y007311D01*
X042291Y007460D02*
X039609Y007460D01*
X039609Y008203D02*
X053185Y008203D01*
X053221Y008351D02*
X039609Y008351D01*
X039609Y008500D02*
X053329Y008500D01*
X032300Y009391D02*
X023917Y009391D01*
X023967Y009442D02*
X024032Y009597D01*
X024032Y009766D01*
X023967Y009921D01*
X023848Y010040D01*
X023693Y010104D01*
X023524Y010104D01*
X023369Y010040D01*
X023250Y009921D01*
X023185Y009766D01*
X023185Y009597D01*
X023250Y009442D01*
X023369Y009323D01*
X023524Y009258D01*
X023693Y009258D01*
X023848Y009323D01*
X023967Y009442D01*
X024008Y009540D02*
X032209Y009540D01*
X025609Y009688D02*
X024032Y009688D01*
X024002Y009837D02*
X025609Y009837D01*
X025609Y009985D02*
X023903Y009985D01*
X023314Y009985D02*
X018109Y009985D01*
X018109Y009837D02*
X023215Y009837D01*
X023185Y009688D02*
X018109Y009688D01*
X018109Y009540D02*
X023209Y009540D01*
X023300Y009391D02*
X018109Y009391D01*
X018109Y010134D02*
X025609Y010134D01*
X025609Y010282D02*
X018109Y010282D01*
X018109Y010431D02*
X025609Y010431D01*
X025609Y010579D02*
X018109Y010579D01*
X018109Y010728D02*
X025609Y010728D01*
X025609Y010877D02*
X018109Y010877D01*
X018109Y011025D02*
X025609Y011025D01*
X019924Y012065D02*
X018109Y012065D01*
X018109Y012213D02*
X019737Y012213D01*
X019652Y012362D02*
X018109Y012362D01*
X018109Y012511D02*
X019608Y012511D01*
X019608Y012659D02*
X018109Y012659D01*
X018109Y012808D02*
X019653Y012808D01*
X019741Y012956D02*
X018109Y012956D01*
X018109Y013105D02*
X019933Y013105D01*
X020351Y013402D02*
X025609Y013402D01*
X025609Y013550D02*
X020596Y013550D01*
X020706Y013699D02*
X025609Y013699D01*
X025609Y013847D02*
X020767Y013847D01*
X020302Y014760D02*
X020515Y014848D01*
X020678Y015011D01*
X020767Y015224D01*
X020767Y015454D01*
X020678Y015667D01*
X020515Y015830D01*
X020302Y015918D01*
X020072Y015918D01*
X019859Y015830D01*
X019696Y015667D01*
X019608Y015454D01*
X019608Y015224D01*
X019696Y015011D01*
X019859Y014848D01*
X020072Y014760D01*
X020302Y014760D01*
X020555Y014887D02*
X025609Y014887D01*
X025609Y014739D02*
X018109Y014739D01*
X018109Y014887D02*
X019820Y014887D01*
X019686Y015036D02*
X018109Y015036D01*
X018109Y015184D02*
X019624Y015184D01*
X019608Y015333D02*
X018109Y015333D01*
X018109Y015481D02*
X019619Y015481D01*
X019681Y015630D02*
X018109Y015630D01*
X018109Y015778D02*
X019808Y015778D01*
X020567Y015778D02*
X025609Y015778D01*
X025609Y015630D02*
X020694Y015630D01*
X020755Y015481D02*
X025609Y015481D01*
X025609Y015333D02*
X020767Y015333D01*
X020750Y015184D02*
X025609Y015184D01*
X025609Y015036D02*
X020689Y015036D01*
X018109Y015927D02*
X025609Y015927D01*
X026109Y015927D02*
X060256Y015927D01*
X060454Y016076D02*
X026109Y016076D01*
X019729Y019195D02*
X018109Y019195D01*
X030732Y021275D02*
X031985Y021275D01*
X031768Y021423D02*
X030949Y021423D01*
X031021Y021572D02*
X031696Y021572D01*
X031685Y021720D02*
X031032Y021720D01*
X030989Y021869D02*
X031728Y021869D01*
X031846Y022017D02*
X030871Y022017D01*
X030911Y020977D02*
X031806Y020977D01*
X031712Y020829D02*
X031005Y020829D01*
X031032Y020680D02*
X031685Y020680D01*
X031712Y020532D02*
X031004Y020532D01*
X030909Y020383D02*
X031808Y020383D01*
X019814Y027365D02*
X018109Y027365D01*
X018109Y027513D02*
X019708Y027513D01*
X019658Y027662D02*
X018109Y027662D01*
X018109Y027810D02*
X019658Y027810D01*
X019705Y027959D02*
X018109Y027959D01*
X018109Y028108D02*
X019806Y028108D01*
X020049Y028256D02*
X018109Y028256D01*
X018109Y028405D02*
X022002Y028405D01*
X022002Y028553D02*
X018109Y028553D01*
X018109Y028702D02*
X022002Y028702D01*
X022002Y028850D02*
X018109Y028850D01*
X018109Y028999D02*
X022002Y028999D01*
X022002Y029147D02*
X018109Y029147D01*
X018109Y029296D02*
X022002Y029296D01*
X022002Y029444D02*
X018109Y029444D01*
X018109Y029593D02*
X022002Y029593D01*
X022002Y029742D02*
X018109Y029742D01*
X018109Y029890D02*
X022002Y029890D01*
X022002Y030039D02*
X018109Y030039D01*
X018109Y030187D02*
X022002Y030187D01*
X022002Y030336D02*
X018109Y030336D01*
X018109Y030484D02*
X022002Y030484D01*
X022002Y030633D02*
X018109Y030633D01*
X018109Y030781D02*
X022002Y030781D01*
X022002Y030930D02*
X018109Y030930D01*
X018109Y031078D02*
X022002Y031078D01*
X022002Y031227D02*
X018109Y031227D01*
X018109Y031376D02*
X022002Y031376D01*
X022002Y031524D02*
X018109Y031524D01*
X018109Y031673D02*
X022002Y031673D01*
X022510Y031078D02*
X030384Y031078D01*
X030352Y031065D02*
X030225Y030938D01*
X030156Y030771D01*
X030156Y030591D01*
X030225Y030425D01*
X030352Y030298D01*
X030518Y030229D01*
X030699Y030229D01*
X030865Y030298D01*
X030992Y030425D01*
X031061Y030591D01*
X031061Y030771D01*
X030992Y030938D01*
X030865Y031065D01*
X030699Y031134D01*
X030518Y031134D01*
X030352Y031065D01*
X030221Y030930D02*
X022510Y030930D01*
X022510Y030781D02*
X030160Y030781D01*
X030156Y030633D02*
X022510Y030633D01*
X022510Y030484D02*
X030200Y030484D01*
X030314Y030336D02*
X022510Y030336D01*
X022510Y030187D02*
X039156Y030187D01*
X039178Y030039D02*
X022510Y030039D01*
X022510Y029890D02*
X039260Y029890D01*
X039488Y029742D02*
X022510Y029742D01*
X022510Y029593D02*
X041885Y029593D01*
X041823Y029444D02*
X022510Y029444D01*
X022510Y029296D02*
X041793Y029296D01*
X041793Y029147D02*
X022510Y029147D01*
X022510Y028999D02*
X035286Y028999D01*
X035225Y028938D02*
X035156Y028771D01*
X035156Y028591D01*
X035225Y028425D01*
X035352Y028298D01*
X035518Y028229D01*
X035699Y028229D01*
X035865Y028298D01*
X035992Y028425D01*
X036061Y028591D01*
X036061Y028771D01*
X035992Y028938D01*
X035865Y029065D01*
X035699Y029134D01*
X035518Y029134D01*
X035352Y029065D01*
X035225Y028938D01*
X035189Y028850D02*
X022510Y028850D01*
X022510Y028702D02*
X035156Y028702D01*
X035172Y028553D02*
X032877Y028553D01*
X033006Y028405D02*
X035245Y028405D01*
X035452Y028256D02*
X033061Y028256D01*
X033061Y028108D02*
X036792Y028108D01*
X036691Y028256D02*
X035764Y028256D01*
X035972Y028405D02*
X036656Y028405D01*
X036669Y028553D02*
X036045Y028553D01*
X036061Y028702D02*
X036739Y028702D01*
X036937Y028850D02*
X036028Y028850D01*
X035931Y028999D02*
X041813Y028999D01*
X041874Y028850D02*
X037280Y028850D01*
X037478Y028702D02*
X041962Y028702D01*
X042111Y028553D02*
X037548Y028553D01*
X037561Y028405D02*
X042419Y028405D01*
X042798Y028405D02*
X049162Y028405D01*
X049079Y028553D02*
X043106Y028553D01*
X043255Y028702D02*
X049060Y028702D01*
X049096Y028850D02*
X043343Y028850D01*
X043404Y028999D02*
X049203Y028999D01*
X050408Y029296D02*
X061793Y029296D01*
X061793Y029147D02*
X043424Y029147D01*
X041988Y029742D02*
X039729Y029742D01*
X040061Y030187D02*
X121109Y030187D01*
X122609Y030781D02*
X140109Y030781D01*
X140109Y030930D02*
X122609Y030930D01*
X122609Y031078D02*
X140109Y031078D01*
X140109Y031227D02*
X122609Y031227D01*
X122609Y031376D02*
X140109Y031376D01*
X140109Y031524D02*
X122609Y031524D01*
X122609Y031673D02*
X140109Y031673D01*
X140109Y031821D02*
X122609Y031821D01*
X122609Y031970D02*
X123555Y031970D01*
X123602Y031923D02*
X123768Y031854D01*
X123949Y031854D01*
X124115Y031923D01*
X124242Y032050D01*
X124311Y032216D01*
X124311Y032396D01*
X124242Y032563D01*
X124115Y032690D01*
X123949Y032759D01*
X123768Y032759D01*
X123602Y032690D01*
X123475Y032563D01*
X123406Y032396D01*
X123406Y032216D01*
X123475Y032050D01*
X123602Y031923D01*
X123446Y032118D02*
X122609Y032118D01*
X122609Y032267D02*
X123406Y032267D01*
X123414Y032415D02*
X122609Y032415D01*
X122609Y032564D02*
X123476Y032564D01*
X123656Y032712D02*
X122609Y032712D01*
X122609Y032861D02*
X140109Y032861D01*
X140109Y033009D02*
X122609Y033009D01*
X122609Y033158D02*
X140109Y033158D01*
X140109Y033307D02*
X133809Y033307D01*
X133848Y033323D02*
X133967Y033442D01*
X134032Y033597D01*
X134032Y033766D01*
X133967Y033921D01*
X133848Y034040D01*
X133693Y034104D01*
X133524Y034104D01*
X133369Y034040D01*
X133250Y033921D01*
X133185Y033766D01*
X133185Y033597D01*
X133250Y033442D01*
X133369Y033323D01*
X133524Y033258D01*
X133693Y033258D01*
X133848Y033323D01*
X133973Y033455D02*
X140109Y033455D01*
X140109Y033604D02*
X134032Y033604D01*
X134032Y033752D02*
X140109Y033752D01*
X140109Y033901D02*
X133976Y033901D01*
X133826Y034049D02*
X140109Y034049D01*
X140109Y034198D02*
X122609Y034198D01*
X122609Y034346D02*
X130345Y034346D01*
X130369Y034323D02*
X130250Y034442D01*
X130185Y034597D01*
X130185Y034766D01*
X130250Y034921D01*
X130369Y035040D01*
X130524Y035104D01*
X130693Y035104D01*
X130848Y035040D01*
X130967Y034921D01*
X131032Y034766D01*
X131032Y034597D01*
X130967Y034442D01*
X130848Y034323D01*
X130693Y034258D01*
X130524Y034258D01*
X130369Y034323D01*
X130228Y034495D02*
X122609Y034495D01*
X122609Y034643D02*
X130185Y034643D01*
X130196Y034792D02*
X122609Y034792D01*
X122609Y034941D02*
X130269Y034941D01*
X130487Y035089D02*
X122609Y035089D01*
X121109Y034643D02*
X111609Y034643D01*
X111609Y034495D02*
X121109Y034495D01*
X121109Y034346D02*
X111609Y034346D01*
X111609Y034198D02*
X121109Y034198D01*
X121109Y034049D02*
X111609Y034049D01*
X111609Y033901D02*
X121109Y033901D01*
X121109Y033752D02*
X111609Y033752D01*
X111609Y033604D02*
X121109Y033604D01*
X121109Y033455D02*
X111609Y033455D01*
X111609Y033307D02*
X121109Y033307D01*
X121109Y033158D02*
X111609Y033158D01*
X111609Y033009D02*
X121109Y033009D01*
X121109Y032861D02*
X111609Y032861D01*
X111609Y032712D02*
X121109Y032712D01*
X121109Y032564D02*
X111609Y032564D01*
X111609Y032415D02*
X121109Y032415D01*
X121109Y032267D02*
X111609Y032267D01*
X111609Y032118D02*
X121109Y032118D01*
X121109Y031970D02*
X111609Y031970D01*
X111609Y031821D02*
X121109Y031821D01*
X121109Y031673D02*
X111609Y031673D01*
X111609Y031524D02*
X121109Y031524D01*
X121109Y031376D02*
X111609Y031376D01*
X111609Y031227D02*
X121109Y031227D01*
X124162Y031970D02*
X140109Y031970D01*
X140109Y032118D02*
X124270Y032118D01*
X124311Y032267D02*
X140109Y032267D01*
X140109Y032415D02*
X124303Y032415D01*
X124241Y032564D02*
X140109Y032564D01*
X140109Y032712D02*
X124061Y032712D01*
X122609Y033307D02*
X130408Y033307D01*
X130369Y033323D02*
X130524Y033258D01*
X130693Y033258D01*
X130848Y033323D01*
X130967Y033442D01*
X131032Y033597D01*
X131032Y033766D01*
X130967Y033921D01*
X130848Y034040D01*
X130693Y034104D01*
X130524Y034104D01*
X130369Y034040D01*
X130250Y033921D01*
X130185Y033766D01*
X130185Y033597D01*
X130250Y033442D01*
X130369Y033323D01*
X130244Y033455D02*
X122609Y033455D01*
X122609Y033604D02*
X130185Y033604D01*
X130185Y033752D02*
X122609Y033752D01*
X122609Y033901D02*
X130241Y033901D01*
X130391Y034049D02*
X122609Y034049D01*
X130185Y035597D02*
X130250Y035442D01*
X130369Y035323D01*
X130524Y035258D01*
X130693Y035258D01*
X130848Y035323D01*
X130967Y035442D01*
X131032Y035597D01*
X131032Y035766D01*
X130967Y035921D01*
X130848Y036040D01*
X130693Y036104D01*
X130524Y036104D01*
X130369Y036040D01*
X130250Y035921D01*
X130185Y035766D01*
X130185Y035597D01*
X130211Y035535D02*
X034854Y035535D01*
X034848Y035540D02*
X034693Y035604D01*
X034524Y035604D01*
X034369Y035540D01*
X034250Y035421D01*
X034185Y035266D01*
X034185Y035097D01*
X034250Y034942D01*
X034369Y034823D01*
X034524Y034758D01*
X034693Y034758D01*
X034848Y034823D01*
X034967Y034942D01*
X035032Y035097D01*
X035032Y035266D01*
X034967Y035421D01*
X034848Y035540D01*
X034982Y035386D02*
X043040Y035386D01*
X043094Y035408D02*
X042827Y035298D01*
X042622Y035093D01*
X042511Y034826D01*
X042511Y034537D01*
X042622Y034270D01*
X042827Y034065D01*
X043094Y033954D01*
X043383Y033954D01*
X043650Y034065D01*
X043855Y034270D01*
X043965Y034537D01*
X043965Y034826D01*
X043855Y035093D01*
X043650Y035298D01*
X043383Y035408D01*
X043094Y035408D01*
X043437Y035386D02*
X063040Y035386D01*
X063094Y035408D02*
X062827Y035298D01*
X062622Y035093D01*
X062511Y034826D01*
X062511Y034537D01*
X062622Y034270D01*
X062827Y034065D01*
X063094Y033954D01*
X063383Y033954D01*
X063650Y034065D01*
X063855Y034270D01*
X063965Y034537D01*
X063965Y034826D01*
X063855Y035093D01*
X063650Y035298D01*
X063383Y035408D01*
X063094Y035408D01*
X063437Y035386D02*
X083040Y035386D01*
X083094Y035408D02*
X082827Y035298D01*
X082622Y035093D01*
X082511Y034826D01*
X082511Y034537D01*
X082622Y034270D01*
X082827Y034065D01*
X083094Y033954D01*
X083383Y033954D01*
X083650Y034065D01*
X083855Y034270D01*
X083965Y034537D01*
X083965Y034826D01*
X083855Y035093D01*
X083650Y035298D01*
X083383Y035408D01*
X083094Y035408D01*
X083437Y035386D02*
X103040Y035386D01*
X103094Y035408D02*
X102827Y035298D01*
X102622Y035093D01*
X102511Y034826D01*
X102511Y034537D01*
X102622Y034270D01*
X102827Y034065D01*
X103094Y033954D01*
X103383Y033954D01*
X103650Y034065D01*
X103855Y034270D01*
X103965Y034537D01*
X103965Y034826D01*
X103855Y035093D01*
X103650Y035298D01*
X103383Y035408D01*
X103094Y035408D01*
X103437Y035386D02*
X130305Y035386D01*
X130185Y035683D02*
X018109Y035683D01*
X018109Y035535D02*
X031363Y035535D01*
X031369Y035540D02*
X031250Y035421D01*
X031185Y035266D01*
X031185Y035097D01*
X031250Y034942D01*
X031369Y034823D01*
X031524Y034758D01*
X031693Y034758D01*
X031848Y034823D01*
X031967Y034942D01*
X032032Y035097D01*
X032032Y035266D01*
X031967Y035421D01*
X031848Y035540D01*
X031693Y035604D01*
X031524Y035604D01*
X031369Y035540D01*
X031235Y035386D02*
X018109Y035386D01*
X018109Y035238D02*
X031185Y035238D01*
X031189Y035089D02*
X018109Y035089D01*
X018109Y034941D02*
X031251Y034941D01*
X031443Y034792D02*
X018109Y034792D01*
X018109Y034643D02*
X042511Y034643D01*
X042511Y034792D02*
X034774Y034792D01*
X034966Y034941D02*
X042559Y034941D01*
X042620Y035089D02*
X035028Y035089D01*
X035032Y035238D02*
X042767Y035238D01*
X042771Y035893D02*
X042446Y035893D01*
X042146Y036018D01*
X041917Y036247D01*
X041793Y036547D01*
X041793Y036871D01*
X041917Y037171D01*
X042146Y037400D01*
X042446Y037524D01*
X042771Y037524D01*
X043070Y037400D01*
X043300Y037171D01*
X043424Y036871D01*
X043424Y036547D01*
X043300Y036247D01*
X043070Y036018D01*
X042771Y035893D01*
X042981Y035980D02*
X050202Y035980D01*
X050225Y035925D02*
X050352Y035798D01*
X050518Y035729D01*
X050699Y035729D01*
X050865Y035798D01*
X050992Y035925D01*
X051061Y036091D01*
X051061Y036271D01*
X050992Y036438D01*
X050865Y036565D01*
X050699Y036634D01*
X050518Y036634D01*
X050352Y036565D01*
X050225Y036438D01*
X050156Y036271D01*
X050156Y036091D01*
X050225Y035925D01*
X050318Y035832D02*
X034857Y035832D01*
X034848Y035823D02*
X034967Y035942D01*
X035032Y036097D01*
X035032Y036266D01*
X034967Y036421D01*
X034848Y036540D01*
X034693Y036604D01*
X034524Y036604D01*
X034369Y036540D01*
X034250Y036421D01*
X034185Y036266D01*
X034185Y036097D01*
X034250Y035942D01*
X034369Y035823D01*
X034524Y035758D01*
X034693Y035758D01*
X034848Y035823D01*
X034983Y035980D02*
X042236Y035980D01*
X042035Y036129D02*
X035032Y036129D01*
X035027Y036277D02*
X041904Y036277D01*
X041843Y036426D02*
X034962Y036426D01*
X034765Y036575D02*
X041793Y036575D01*
X041793Y036723D02*
X018109Y036723D01*
X018109Y036575D02*
X031452Y036575D01*
X031524Y036604D02*
X031369Y036540D01*
X031250Y036421D01*
X031185Y036266D01*
X031185Y036097D01*
X031250Y035942D01*
X031369Y035823D01*
X031524Y035758D01*
X031693Y035758D01*
X031848Y035823D01*
X031967Y035942D01*
X032032Y036097D01*
X032032Y036266D01*
X031967Y036421D01*
X031848Y036540D01*
X031693Y036604D01*
X031524Y036604D01*
X031524Y036758D02*
X031693Y036758D01*
X031848Y036823D01*
X031967Y036942D01*
X032032Y037097D01*
X032032Y037266D01*
X031967Y037421D01*
X031848Y037540D01*
X031693Y037604D01*
X031524Y037604D01*
X031369Y037540D01*
X031250Y037421D01*
X031185Y037266D01*
X031185Y037097D01*
X031250Y036942D01*
X031369Y036823D01*
X031524Y036758D01*
X031320Y036872D02*
X018109Y036872D01*
X018109Y037020D02*
X031217Y037020D01*
X031185Y037169D02*
X018109Y037169D01*
X018109Y037317D02*
X031207Y037317D01*
X031295Y037466D02*
X018109Y037466D01*
X018109Y037614D02*
X071511Y037614D01*
X071516Y037634D02*
X071436Y037336D01*
X071436Y037027D01*
X071516Y036729D01*
X071670Y036461D01*
X071889Y036243D01*
X072156Y036089D01*
X072454Y036009D01*
X072763Y036009D01*
X073061Y036089D01*
X073328Y036243D01*
X073547Y036461D01*
X073701Y036729D01*
X073781Y037027D01*
X073781Y037336D01*
X073701Y037634D01*
X073547Y037901D01*
X073328Y038120D01*
X073061Y038274D01*
X072763Y038354D01*
X072454Y038354D01*
X072156Y038274D01*
X071889Y038120D01*
X071670Y037901D01*
X071516Y037634D01*
X071590Y037763D02*
X018109Y037763D01*
X018109Y037911D02*
X071680Y037911D01*
X071829Y038060D02*
X018109Y038060D01*
X018109Y038209D02*
X072043Y038209D01*
X073174Y038209D02*
X116043Y038209D01*
X116156Y038274D02*
X115889Y038120D01*
X115670Y037901D01*
X115516Y037634D01*
X115436Y037336D01*
X115436Y037027D01*
X115516Y036729D01*
X115670Y036461D01*
X115889Y036243D01*
X116156Y036089D01*
X116454Y036009D01*
X116763Y036009D01*
X117061Y036089D01*
X117328Y036243D01*
X117547Y036461D01*
X117701Y036729D01*
X117781Y037027D01*
X117781Y037336D01*
X117701Y037634D01*
X117547Y037901D01*
X117328Y038120D01*
X117061Y038274D01*
X116763Y038354D01*
X116454Y038354D01*
X116156Y038274D01*
X115829Y038060D02*
X073388Y038060D01*
X073537Y037911D02*
X115680Y037911D01*
X115590Y037763D02*
X073627Y037763D01*
X073706Y037614D02*
X115511Y037614D01*
X115471Y037466D02*
X102912Y037466D01*
X102771Y037524D02*
X102446Y037524D01*
X102146Y037400D01*
X101917Y037171D01*
X101793Y036871D01*
X101793Y036547D01*
X101917Y036247D01*
X102146Y036018D01*
X102446Y035893D01*
X102771Y035893D01*
X103070Y036018D01*
X103300Y036247D01*
X103424Y036547D01*
X103424Y036871D01*
X103300Y037171D01*
X103070Y037400D01*
X102771Y037524D01*
X103154Y037317D02*
X115436Y037317D01*
X115436Y037169D02*
X103301Y037169D01*
X103362Y037020D02*
X115438Y037020D01*
X115478Y036872D02*
X103424Y036872D01*
X103424Y036723D02*
X115519Y036723D01*
X115605Y036575D02*
X103424Y036575D01*
X103374Y036426D02*
X115706Y036426D01*
X115854Y036277D02*
X103312Y036277D01*
X103182Y036129D02*
X116086Y036129D01*
X117130Y036129D02*
X140109Y036129D01*
X140109Y036277D02*
X117363Y036277D01*
X117511Y036426D02*
X140109Y036426D01*
X140109Y036575D02*
X117612Y036575D01*
X117698Y036723D02*
X140109Y036723D01*
X140109Y036872D02*
X117739Y036872D01*
X117779Y037020D02*
X140109Y037020D01*
X140109Y037169D02*
X117781Y037169D01*
X117781Y037317D02*
X140109Y037317D01*
X140109Y037466D02*
X117746Y037466D01*
X117706Y037614D02*
X140109Y037614D01*
X140109Y037763D02*
X117627Y037763D01*
X117537Y037911D02*
X140109Y037911D01*
X140109Y038060D02*
X117388Y038060D01*
X117174Y038209D02*
X140109Y038209D01*
X140109Y038357D02*
X018109Y038357D01*
X018109Y038506D02*
X140109Y038506D01*
X140109Y038654D02*
X018109Y038654D01*
X018109Y038803D02*
X140109Y038803D01*
X140109Y038951D02*
X018109Y038951D01*
X018109Y039100D02*
X140109Y039100D01*
X140109Y035980D02*
X133908Y035980D01*
X133967Y035921D02*
X133848Y036040D01*
X133693Y036104D01*
X133524Y036104D01*
X133369Y036040D01*
X133250Y035921D01*
X133185Y035766D01*
X133185Y035597D01*
X133250Y035442D01*
X133369Y035323D01*
X133524Y035258D01*
X133693Y035258D01*
X133848Y035323D01*
X133967Y035442D01*
X134032Y035597D01*
X134032Y035766D01*
X133967Y035921D01*
X134004Y035832D02*
X140109Y035832D01*
X140109Y035683D02*
X134032Y035683D01*
X134006Y035535D02*
X140109Y035535D01*
X140109Y035386D02*
X133912Y035386D01*
X133730Y035089D02*
X140109Y035089D01*
X140109Y034941D02*
X133948Y034941D01*
X133967Y034921D02*
X133848Y035040D01*
X133693Y035104D01*
X133524Y035104D01*
X133369Y035040D01*
X133250Y034921D01*
X133185Y034766D01*
X133185Y034597D01*
X133250Y034442D01*
X133369Y034323D01*
X133524Y034258D01*
X133693Y034258D01*
X133848Y034323D01*
X133967Y034442D01*
X134032Y034597D01*
X134032Y034766D01*
X133967Y034921D01*
X134021Y034792D02*
X140109Y034792D01*
X140109Y034643D02*
X134032Y034643D01*
X133989Y034495D02*
X140109Y034495D01*
X140109Y034346D02*
X133872Y034346D01*
X133345Y034346D02*
X132372Y034346D01*
X132348Y034323D02*
X132467Y034442D01*
X132532Y034597D01*
X132532Y034766D01*
X132467Y034921D01*
X132348Y035040D01*
X132193Y035104D01*
X132024Y035104D01*
X131869Y035040D01*
X131750Y034921D01*
X131685Y034766D01*
X131685Y034597D01*
X131750Y034442D01*
X131869Y034323D01*
X132024Y034258D01*
X132193Y034258D01*
X132348Y034323D01*
X132489Y034495D02*
X133228Y034495D01*
X133185Y034643D02*
X132532Y034643D01*
X132521Y034792D02*
X133196Y034792D01*
X133269Y034941D02*
X132448Y034941D01*
X132230Y035089D02*
X133487Y035089D01*
X133305Y035386D02*
X132412Y035386D01*
X132467Y035442D02*
X132532Y035597D01*
X132532Y035766D01*
X132467Y035921D01*
X132348Y036040D01*
X132193Y036104D01*
X132024Y036104D01*
X131869Y036040D01*
X131750Y035921D01*
X131685Y035766D01*
X131685Y035597D01*
X131750Y035442D01*
X131869Y035323D01*
X132024Y035258D01*
X132193Y035258D01*
X132348Y035323D01*
X132467Y035442D01*
X132506Y035535D02*
X133211Y035535D01*
X133185Y035683D02*
X132532Y035683D01*
X132504Y035832D02*
X133213Y035832D01*
X133309Y035980D02*
X132408Y035980D01*
X131809Y035980D02*
X130908Y035980D01*
X131004Y035832D02*
X131713Y035832D01*
X131685Y035683D02*
X131032Y035683D01*
X131006Y035535D02*
X131711Y035535D01*
X131805Y035386D02*
X130912Y035386D01*
X130730Y035089D02*
X131987Y035089D01*
X131769Y034941D02*
X130948Y034941D01*
X131021Y034792D02*
X131696Y034792D01*
X131685Y034643D02*
X131032Y034643D01*
X130989Y034495D02*
X131728Y034495D01*
X131845Y034346D02*
X130872Y034346D01*
X130826Y034049D02*
X131891Y034049D01*
X131869Y034040D02*
X131750Y033921D01*
X131685Y033766D01*
X131685Y033597D01*
X131750Y033442D01*
X131869Y033323D01*
X132024Y033258D01*
X132193Y033258D01*
X132348Y033323D01*
X132467Y033442D01*
X132532Y033597D01*
X132532Y033766D01*
X132467Y033921D01*
X132348Y034040D01*
X132193Y034104D01*
X132024Y034104D01*
X131869Y034040D01*
X131741Y033901D02*
X130976Y033901D01*
X131032Y033752D02*
X131685Y033752D01*
X131685Y033604D02*
X131032Y033604D01*
X130973Y033455D02*
X131744Y033455D01*
X131908Y033307D02*
X130809Y033307D01*
X132309Y033307D02*
X133408Y033307D01*
X133244Y033455D02*
X132473Y033455D01*
X132532Y033604D02*
X133185Y033604D01*
X133185Y033752D02*
X132532Y033752D01*
X132476Y033901D02*
X133241Y033901D01*
X133391Y034049D02*
X132326Y034049D01*
X130213Y035832D02*
X050899Y035832D01*
X051015Y035980D02*
X062236Y035980D01*
X062146Y036018D02*
X062446Y035893D01*
X062771Y035893D01*
X063070Y036018D01*
X063300Y036247D01*
X063424Y036547D01*
X063424Y036871D01*
X063300Y037171D01*
X063070Y037400D01*
X062771Y037524D01*
X062446Y037524D01*
X062146Y037400D01*
X061917Y037171D01*
X061793Y036871D01*
X061793Y036547D01*
X061917Y036247D01*
X062146Y036018D01*
X062035Y036129D02*
X051061Y036129D01*
X051059Y036277D02*
X061904Y036277D01*
X061843Y036426D02*
X050997Y036426D01*
X050842Y036575D02*
X061793Y036575D01*
X061793Y036723D02*
X043424Y036723D01*
X043424Y036575D02*
X050375Y036575D01*
X050220Y036426D02*
X043374Y036426D01*
X043312Y036277D02*
X050158Y036277D01*
X050156Y036129D02*
X043182Y036129D01*
X043424Y036872D02*
X061793Y036872D01*
X061855Y037020D02*
X043362Y037020D01*
X043301Y037169D02*
X061916Y037169D01*
X062063Y037317D02*
X043154Y037317D01*
X042912Y037466D02*
X062305Y037466D01*
X062912Y037466D02*
X071471Y037466D01*
X071436Y037317D02*
X063154Y037317D01*
X063301Y037169D02*
X071436Y037169D01*
X071438Y037020D02*
X063362Y037020D01*
X063424Y036872D02*
X071478Y036872D01*
X071519Y036723D02*
X063424Y036723D01*
X063424Y036575D02*
X071605Y036575D01*
X071706Y036426D02*
X063374Y036426D01*
X063312Y036277D02*
X071854Y036277D01*
X072086Y036129D02*
X063182Y036129D01*
X062981Y035980D02*
X082236Y035980D01*
X082146Y036018D02*
X082446Y035893D01*
X082771Y035893D01*
X083070Y036018D01*
X083300Y036247D01*
X083424Y036547D01*
X083424Y036871D01*
X083300Y037171D01*
X083070Y037400D01*
X082771Y037524D01*
X082446Y037524D01*
X082146Y037400D01*
X081917Y037171D01*
X081793Y036871D01*
X081793Y036547D01*
X081917Y036247D01*
X082146Y036018D01*
X082035Y036129D02*
X073130Y036129D01*
X073363Y036277D02*
X081904Y036277D01*
X081843Y036426D02*
X073511Y036426D01*
X073612Y036575D02*
X081793Y036575D01*
X081793Y036723D02*
X073698Y036723D01*
X073739Y036872D02*
X081793Y036872D01*
X081855Y037020D02*
X073779Y037020D01*
X073781Y037169D02*
X081916Y037169D01*
X082063Y037317D02*
X073781Y037317D01*
X073746Y037466D02*
X082305Y037466D01*
X082912Y037466D02*
X102305Y037466D01*
X102063Y037317D02*
X083154Y037317D01*
X083301Y037169D02*
X101916Y037169D01*
X101855Y037020D02*
X083362Y037020D01*
X083424Y036872D02*
X101793Y036872D01*
X101793Y036723D02*
X083424Y036723D01*
X083424Y036575D02*
X101793Y036575D01*
X101843Y036426D02*
X083374Y036426D01*
X083312Y036277D02*
X101904Y036277D01*
X102035Y036129D02*
X083182Y036129D01*
X082981Y035980D02*
X102236Y035980D01*
X102981Y035980D02*
X130309Y035980D01*
X140109Y035238D02*
X103710Y035238D01*
X103856Y035089D02*
X110109Y035089D01*
X110109Y034941D02*
X103918Y034941D01*
X103965Y034792D02*
X110109Y034792D01*
X110109Y034643D02*
X103965Y034643D01*
X103948Y034495D02*
X110109Y034495D01*
X110109Y034346D02*
X103886Y034346D01*
X103783Y034198D02*
X110109Y034198D01*
X110109Y034049D02*
X103612Y034049D01*
X102865Y034049D02*
X083612Y034049D01*
X083783Y034198D02*
X102694Y034198D01*
X102590Y034346D02*
X083886Y034346D01*
X083948Y034495D02*
X102529Y034495D01*
X102511Y034643D02*
X083965Y034643D01*
X083965Y034792D02*
X102511Y034792D01*
X102559Y034941D02*
X083918Y034941D01*
X083856Y035089D02*
X102620Y035089D01*
X102767Y035238D02*
X083710Y035238D01*
X082767Y035238D02*
X063710Y035238D01*
X063856Y035089D02*
X082620Y035089D01*
X082559Y034941D02*
X063918Y034941D01*
X063965Y034792D02*
X082511Y034792D01*
X082511Y034643D02*
X063965Y034643D01*
X063948Y034495D02*
X082529Y034495D01*
X082590Y034346D02*
X063886Y034346D01*
X063783Y034198D02*
X082694Y034198D01*
X082865Y034049D02*
X063612Y034049D01*
X062865Y034049D02*
X043612Y034049D01*
X043783Y034198D02*
X062694Y034198D01*
X062590Y034346D02*
X049414Y034346D01*
X049365Y034298D02*
X049492Y034425D01*
X049561Y034591D01*
X049561Y034771D01*
X049492Y034938D01*
X049365Y035065D01*
X049199Y035134D01*
X049018Y035134D01*
X048852Y035065D01*
X048725Y034938D01*
X048656Y034771D01*
X048656Y034591D01*
X048725Y034425D01*
X048852Y034298D01*
X049018Y034229D01*
X049199Y034229D01*
X049365Y034298D01*
X049521Y034495D02*
X062529Y034495D01*
X062511Y034643D02*
X049561Y034643D01*
X049553Y034792D02*
X062511Y034792D01*
X062559Y034941D02*
X049489Y034941D01*
X049307Y035089D02*
X062620Y035089D01*
X062767Y035238D02*
X043710Y035238D01*
X043856Y035089D02*
X047910Y035089D01*
X047852Y035065D02*
X047725Y034938D01*
X047656Y034771D01*
X047656Y034591D01*
X047725Y034425D01*
X047852Y034298D01*
X048018Y034229D01*
X048199Y034229D01*
X048365Y034298D01*
X048492Y034425D01*
X048561Y034591D01*
X048561Y034771D01*
X048492Y034938D01*
X048365Y035065D01*
X048199Y035134D01*
X048018Y035134D01*
X047852Y035065D01*
X047728Y034941D02*
X043918Y034941D01*
X043965Y034792D02*
X047664Y034792D01*
X047656Y034643D02*
X043965Y034643D01*
X043948Y034495D02*
X047696Y034495D01*
X047803Y034346D02*
X043886Y034346D01*
X042865Y034049D02*
X018109Y034049D01*
X018109Y033901D02*
X110109Y033901D01*
X110109Y033752D02*
X018109Y033752D01*
X018109Y033604D02*
X110109Y033604D01*
X110109Y033455D02*
X102805Y033455D01*
X102771Y033469D02*
X102446Y033469D01*
X102146Y033345D01*
X101917Y033116D01*
X101793Y032816D01*
X101793Y032492D01*
X101917Y032192D01*
X102146Y031962D01*
X102446Y031838D01*
X102771Y031838D01*
X103070Y031962D01*
X103300Y032192D01*
X103424Y032492D01*
X103424Y032816D01*
X103300Y033116D01*
X103070Y033345D01*
X102771Y033469D01*
X102412Y033455D02*
X082805Y033455D01*
X082771Y033469D02*
X082446Y033469D01*
X082146Y033345D01*
X081917Y033116D01*
X081793Y032816D01*
X081793Y032492D01*
X081917Y032192D01*
X082146Y031962D01*
X082446Y031838D01*
X082771Y031838D01*
X083070Y031962D01*
X083300Y032192D01*
X083424Y032492D01*
X083424Y032816D01*
X083300Y033116D01*
X083070Y033345D01*
X082771Y033469D01*
X082412Y033455D02*
X062805Y033455D01*
X062771Y033469D02*
X062446Y033469D01*
X062146Y033345D01*
X061917Y033116D01*
X061793Y032816D01*
X061793Y032492D01*
X061917Y032192D01*
X062146Y031962D01*
X062446Y031838D01*
X062771Y031838D01*
X063070Y031962D01*
X063300Y032192D01*
X063424Y032492D01*
X063424Y032816D01*
X063300Y033116D01*
X063070Y033345D01*
X062771Y033469D01*
X062412Y033455D02*
X042805Y033455D01*
X042771Y033469D02*
X042446Y033469D01*
X042146Y033345D01*
X041917Y033116D01*
X041793Y032816D01*
X041793Y032492D01*
X041917Y032192D01*
X042146Y031962D01*
X042446Y031838D01*
X042771Y031838D01*
X043070Y031962D01*
X043300Y032192D01*
X043424Y032492D01*
X043424Y032816D01*
X043300Y033116D01*
X043070Y033345D01*
X042771Y033469D01*
X042412Y033455D02*
X018109Y033455D01*
X018109Y033307D02*
X042108Y033307D01*
X041959Y033158D02*
X018109Y033158D01*
X018109Y033009D02*
X041873Y033009D01*
X041812Y032861D02*
X018109Y032861D01*
X018109Y032712D02*
X041793Y032712D01*
X041793Y032564D02*
X040866Y032564D01*
X040865Y032565D02*
X040699Y032634D01*
X040518Y032634D01*
X040352Y032565D01*
X040225Y032438D01*
X040156Y032271D01*
X040156Y032091D01*
X040225Y031925D01*
X040352Y031798D01*
X040518Y031729D01*
X040699Y031729D01*
X040865Y031798D01*
X040992Y031925D01*
X041061Y032091D01*
X041061Y032271D01*
X040992Y032438D01*
X040865Y032565D01*
X041002Y032415D02*
X041825Y032415D01*
X041886Y032267D02*
X041061Y032267D01*
X041061Y032118D02*
X041991Y032118D01*
X042139Y031970D02*
X041011Y031970D01*
X040888Y031821D02*
X046829Y031821D01*
X046852Y031798D02*
X047018Y031729D01*
X047199Y031729D01*
X047365Y031798D01*
X047492Y031925D01*
X047561Y032091D01*
X047561Y032271D01*
X047492Y032438D01*
X047365Y032565D01*
X047199Y032634D01*
X047018Y032634D01*
X046852Y032565D01*
X046725Y032438D01*
X046656Y032271D01*
X046656Y032091D01*
X046725Y031925D01*
X046852Y031798D01*
X046706Y031970D02*
X043078Y031970D01*
X043226Y032118D02*
X046656Y032118D01*
X046656Y032267D02*
X043331Y032267D01*
X043392Y032415D02*
X046715Y032415D01*
X046851Y032564D02*
X043424Y032564D01*
X043424Y032712D02*
X061793Y032712D01*
X061793Y032564D02*
X047366Y032564D01*
X047502Y032415D02*
X061825Y032415D01*
X061886Y032267D02*
X047561Y032267D01*
X047561Y032118D02*
X051480Y032118D01*
X051737Y032118D02*
X052980Y032118D01*
X053237Y032118D02*
X061991Y032118D01*
X062139Y031970D02*
X053460Y031970D01*
X053541Y031821D02*
X110109Y031821D01*
X110109Y031970D02*
X103078Y031970D01*
X103226Y032118D02*
X110109Y032118D01*
X110109Y032267D02*
X103331Y032267D01*
X103392Y032415D02*
X110109Y032415D01*
X110109Y032564D02*
X103424Y032564D01*
X103424Y032712D02*
X110109Y032712D01*
X110109Y032861D02*
X103405Y032861D01*
X103344Y033009D02*
X110109Y033009D01*
X110109Y033158D02*
X103258Y033158D01*
X103109Y033307D02*
X110109Y033307D01*
X102108Y033307D02*
X083109Y033307D01*
X083258Y033158D02*
X101959Y033158D01*
X101873Y033009D02*
X083344Y033009D01*
X083405Y032861D02*
X101812Y032861D01*
X101793Y032712D02*
X083424Y032712D01*
X083424Y032564D02*
X101793Y032564D01*
X101825Y032415D02*
X083392Y032415D01*
X083331Y032267D02*
X101886Y032267D01*
X101991Y032118D02*
X083226Y032118D01*
X083078Y031970D02*
X102139Y031970D01*
X102136Y029890D02*
X083081Y029890D01*
X083229Y029742D02*
X101988Y029742D01*
X101885Y029593D02*
X083332Y029593D01*
X083394Y029444D02*
X101823Y029444D01*
X101793Y029296D02*
X083424Y029296D01*
X083424Y029147D02*
X101793Y029147D01*
X101813Y028999D02*
X083404Y028999D01*
X083343Y028850D02*
X101874Y028850D01*
X101962Y028702D02*
X083255Y028702D01*
X083106Y028553D02*
X102111Y028553D01*
X082111Y028553D02*
X063106Y028553D01*
X063255Y028702D02*
X081962Y028702D01*
X081874Y028850D02*
X063343Y028850D01*
X063404Y028999D02*
X081813Y028999D01*
X081793Y029147D02*
X063424Y029147D01*
X063424Y029296D02*
X081793Y029296D01*
X081823Y029444D02*
X063394Y029444D01*
X063332Y029593D02*
X081885Y029593D01*
X081988Y029742D02*
X063229Y029742D01*
X063081Y029890D02*
X082136Y029890D01*
X082139Y031970D02*
X063078Y031970D01*
X063226Y032118D02*
X081991Y032118D01*
X081886Y032267D02*
X063331Y032267D01*
X063392Y032415D02*
X081825Y032415D01*
X081793Y032564D02*
X063424Y032564D01*
X063424Y032712D02*
X081793Y032712D01*
X081812Y032861D02*
X063405Y032861D01*
X063344Y033009D02*
X081873Y033009D01*
X081959Y033158D02*
X063258Y033158D01*
X063109Y033307D02*
X082108Y033307D01*
X062108Y033307D02*
X043109Y033307D01*
X043258Y033158D02*
X061959Y033158D01*
X061873Y033009D02*
X043344Y033009D01*
X043405Y032861D02*
X061812Y032861D01*
X052757Y031970D02*
X051960Y031970D01*
X052041Y031821D02*
X052676Y031821D01*
X051257Y031970D02*
X047511Y031970D01*
X047388Y031821D02*
X051176Y031821D01*
X045384Y031078D02*
X030833Y031078D01*
X030996Y030930D02*
X045221Y030930D01*
X045160Y030781D02*
X031057Y030781D01*
X031061Y030633D02*
X039516Y030633D01*
X039701Y030633D02*
X045156Y030633D01*
X045200Y030484D02*
X039946Y030484D01*
X040035Y030336D02*
X045314Y030336D01*
X049725Y030039D02*
X049992Y030039D01*
X049862Y029890D02*
X049855Y029890D01*
X049736Y030336D02*
X049981Y030336D01*
X050605Y029890D02*
X062136Y029890D01*
X061988Y029742D02*
X050657Y029742D01*
X050655Y029593D02*
X061885Y029593D01*
X061823Y029444D02*
X050593Y029444D01*
X039271Y030484D02*
X031017Y030484D01*
X030903Y030336D02*
X039182Y030336D01*
X040329Y031821D02*
X018109Y031821D01*
X018109Y031970D02*
X040206Y031970D01*
X040156Y032118D02*
X018109Y032118D01*
X018109Y032267D02*
X040156Y032267D01*
X040215Y032415D02*
X018109Y032415D01*
X018109Y032564D02*
X040351Y032564D01*
X042694Y034198D02*
X018109Y034198D01*
X018109Y034346D02*
X042590Y034346D01*
X042529Y034495D02*
X018109Y034495D01*
X018109Y035832D02*
X031360Y035832D01*
X031234Y035980D02*
X018109Y035980D01*
X018109Y036129D02*
X031185Y036129D01*
X031190Y036277D02*
X018109Y036277D01*
X018109Y036426D02*
X031255Y036426D01*
X031765Y036575D02*
X032952Y036575D01*
X033024Y036604D02*
X032869Y036540D01*
X032750Y036421D01*
X032685Y036266D01*
X032685Y036097D01*
X032750Y035942D01*
X032869Y035823D01*
X033024Y035758D01*
X033193Y035758D01*
X033348Y035823D01*
X033467Y035942D01*
X033532Y036097D01*
X033532Y036266D01*
X033467Y036421D01*
X033348Y036540D01*
X033193Y036604D01*
X033024Y036604D01*
X033024Y036758D02*
X033193Y036758D01*
X033348Y036823D01*
X033467Y036942D01*
X033532Y037097D01*
X033532Y037266D01*
X033467Y037421D01*
X033348Y037540D01*
X033193Y037604D01*
X033024Y037604D01*
X032869Y037540D01*
X032750Y037421D01*
X032685Y037266D01*
X032685Y037097D01*
X032750Y036942D01*
X032869Y036823D01*
X033024Y036758D01*
X032820Y036872D02*
X031897Y036872D01*
X032000Y037020D02*
X032717Y037020D01*
X032685Y037169D02*
X032032Y037169D01*
X032010Y037317D02*
X032707Y037317D01*
X032795Y037466D02*
X031922Y037466D01*
X033422Y037466D02*
X034295Y037466D01*
X034250Y037421D02*
X034185Y037266D01*
X034185Y037097D01*
X034250Y036942D01*
X034369Y036823D01*
X034524Y036758D01*
X034693Y036758D01*
X034848Y036823D01*
X034967Y036942D01*
X035032Y037097D01*
X035032Y037266D01*
X034967Y037421D01*
X034848Y037540D01*
X034693Y037604D01*
X034524Y037604D01*
X034369Y037540D01*
X034250Y037421D01*
X034207Y037317D02*
X033510Y037317D01*
X033532Y037169D02*
X034185Y037169D01*
X034217Y037020D02*
X033500Y037020D01*
X033397Y036872D02*
X034320Y036872D01*
X034452Y036575D02*
X033265Y036575D01*
X033462Y036426D02*
X034255Y036426D01*
X034190Y036277D02*
X033527Y036277D01*
X033532Y036129D02*
X034185Y036129D01*
X034234Y035980D02*
X033483Y035980D01*
X033357Y035832D02*
X034360Y035832D01*
X034363Y035535D02*
X033354Y035535D01*
X033348Y035540D02*
X033193Y035604D01*
X033024Y035604D01*
X032869Y035540D01*
X032750Y035421D01*
X032685Y035266D01*
X032685Y035097D01*
X032750Y034942D01*
X032869Y034823D01*
X033024Y034758D01*
X033193Y034758D01*
X033348Y034823D01*
X033467Y034942D01*
X033532Y035097D01*
X033532Y035266D01*
X033467Y035421D01*
X033348Y035540D01*
X033482Y035386D02*
X034235Y035386D01*
X034185Y035238D02*
X033532Y035238D01*
X033528Y035089D02*
X034189Y035089D01*
X034251Y034941D02*
X033466Y034941D01*
X033274Y034792D02*
X034443Y034792D01*
X032943Y034792D02*
X031774Y034792D01*
X031966Y034941D02*
X032751Y034941D01*
X032689Y035089D02*
X032028Y035089D01*
X032032Y035238D02*
X032685Y035238D01*
X032735Y035386D02*
X031982Y035386D01*
X031854Y035535D02*
X032863Y035535D01*
X032860Y035832D02*
X031857Y035832D01*
X031983Y035980D02*
X032734Y035980D01*
X032685Y036129D02*
X032032Y036129D01*
X032027Y036277D02*
X032690Y036277D01*
X032755Y036426D02*
X031962Y036426D01*
X034897Y036872D02*
X041793Y036872D01*
X041855Y037020D02*
X035000Y037020D01*
X035032Y037169D02*
X041916Y037169D01*
X042063Y037317D02*
X035010Y037317D01*
X034922Y037466D02*
X042305Y037466D01*
X048307Y035089D02*
X048910Y035089D01*
X048728Y034941D02*
X048489Y034941D01*
X048553Y034792D02*
X048664Y034792D01*
X048656Y034643D02*
X048561Y034643D01*
X048521Y034495D02*
X048696Y034495D01*
X048803Y034346D02*
X048414Y034346D01*
X032340Y028553D02*
X022510Y028553D01*
X022510Y028405D02*
X032211Y028405D01*
X032156Y028256D02*
X022510Y028256D01*
X022510Y028108D02*
X032156Y028108D01*
X032211Y027959D02*
X022510Y027959D01*
X022510Y027810D02*
X032339Y027810D01*
X107375Y023651D02*
X115589Y023651D01*
X117319Y023206D02*
X135656Y023206D01*
X135656Y023271D02*
X135656Y023091D01*
X135725Y022925D01*
X135852Y022798D01*
X136018Y022729D01*
X136199Y022729D01*
X136365Y022798D01*
X136492Y022925D01*
X136561Y023091D01*
X136561Y023271D01*
X136492Y023438D01*
X136365Y023565D01*
X136199Y023634D01*
X136018Y023634D01*
X135852Y023565D01*
X135725Y023438D01*
X135656Y023271D01*
X135690Y023354D02*
X117517Y023354D01*
X117597Y023503D02*
X135790Y023503D01*
X135670Y023057D02*
X117468Y023057D01*
X117577Y022909D02*
X135741Y022909D01*
X135943Y022760D02*
X117628Y022760D01*
X117628Y022611D02*
X147464Y022611D01*
X147518Y022634D02*
X147352Y022565D01*
X147225Y022438D01*
X147156Y022271D01*
X147156Y022091D01*
X147225Y021925D01*
X147352Y021798D01*
X147518Y021729D01*
X147699Y021729D01*
X147865Y021798D01*
X147992Y021925D01*
X148061Y022091D01*
X148061Y022271D01*
X147992Y022438D01*
X147865Y022565D01*
X147699Y022634D01*
X147518Y022634D01*
X147753Y022611D02*
X157964Y022611D01*
X158018Y022634D02*
X157852Y022565D01*
X157725Y022438D01*
X157656Y022271D01*
X157656Y022091D01*
X157725Y021925D01*
X157852Y021798D01*
X158018Y021729D01*
X158199Y021729D01*
X158365Y021798D01*
X158492Y021925D01*
X158561Y022091D01*
X158561Y022271D01*
X158492Y022438D01*
X158365Y022565D01*
X158199Y022634D01*
X158018Y022634D01*
X158253Y022611D02*
X159214Y022611D01*
X159268Y022634D02*
X159102Y022565D01*
X158975Y022438D01*
X158906Y022271D01*
X158906Y022091D01*
X158975Y021925D01*
X159102Y021798D01*
X159268Y021729D01*
X159449Y021729D01*
X159615Y021798D01*
X159742Y021925D01*
X159811Y022091D01*
X159811Y022271D01*
X159742Y022438D01*
X159615Y022565D01*
X159449Y022634D01*
X159268Y022634D01*
X159503Y022611D02*
X161109Y022611D01*
X161109Y022463D02*
X159717Y022463D01*
X159793Y022314D02*
X161109Y022314D01*
X161109Y022166D02*
X159811Y022166D01*
X159780Y022017D02*
X161109Y022017D01*
X161109Y021869D02*
X159686Y021869D01*
X159031Y021869D02*
X158436Y021869D01*
X158530Y022017D02*
X158937Y022017D01*
X158906Y022166D02*
X158561Y022166D01*
X158543Y022314D02*
X158924Y022314D01*
X159000Y022463D02*
X158467Y022463D01*
X157750Y022463D02*
X147967Y022463D01*
X148043Y022314D02*
X157674Y022314D01*
X157656Y022166D02*
X148061Y022166D01*
X148030Y022017D02*
X151304Y022017D01*
X151352Y022065D02*
X151225Y021938D01*
X151156Y021771D01*
X151156Y021591D01*
X151225Y021425D01*
X151352Y021298D01*
X151518Y021229D01*
X151699Y021229D01*
X151865Y021298D01*
X151992Y021425D01*
X152061Y021591D01*
X152061Y021771D01*
X151992Y021938D01*
X151865Y022065D01*
X151699Y022134D01*
X151518Y022134D01*
X151352Y022065D01*
X151196Y021869D02*
X147936Y021869D01*
X147281Y021869D02*
X143424Y021869D01*
X143424Y021871D02*
X143300Y022171D01*
X143070Y022400D01*
X142771Y022524D01*
X142446Y022524D01*
X142146Y022400D01*
X141917Y022171D01*
X141793Y021871D01*
X141793Y021547D01*
X141917Y021247D01*
X142146Y021018D01*
X142446Y020893D01*
X142771Y020893D01*
X143070Y021018D01*
X143300Y021247D01*
X143424Y021547D01*
X143424Y021871D01*
X143424Y021720D02*
X151156Y021720D01*
X151164Y021572D02*
X143424Y021572D01*
X143373Y021423D02*
X151227Y021423D01*
X151408Y021275D02*
X143311Y021275D01*
X143179Y021126D02*
X156499Y021126D01*
X156518Y021134D02*
X156352Y021065D01*
X156225Y020938D01*
X156156Y020771D01*
X156156Y020591D01*
X156225Y020425D01*
X156352Y020298D01*
X156518Y020229D01*
X156699Y020229D01*
X156865Y020298D01*
X156992Y020425D01*
X157061Y020591D01*
X157061Y020771D01*
X156992Y020938D01*
X156865Y021065D01*
X156699Y021134D01*
X156518Y021134D01*
X156718Y021126D02*
X161109Y021126D01*
X161109Y020977D02*
X156953Y020977D01*
X157037Y020829D02*
X161109Y020829D01*
X161109Y020680D02*
X157061Y020680D01*
X157036Y020532D02*
X161109Y020532D01*
X161109Y020383D02*
X156951Y020383D01*
X156713Y020235D02*
X161109Y020235D01*
X161109Y020086D02*
X143858Y020086D01*
X143919Y019938D02*
X161109Y019938D01*
X161109Y019789D02*
X143965Y019789D01*
X143965Y019641D02*
X161109Y019641D01*
X161109Y019492D02*
X143947Y019492D01*
X143885Y019344D02*
X161109Y019344D01*
X161109Y019195D02*
X143780Y019195D01*
X143605Y019046D02*
X161109Y019046D01*
X156504Y020235D02*
X143713Y020235D01*
X143444Y020383D02*
X156266Y020383D01*
X156180Y020532D02*
X117609Y020532D01*
X117628Y020680D02*
X156156Y020680D01*
X156180Y020829D02*
X129854Y020829D01*
X129848Y020823D02*
X129967Y020942D01*
X130032Y021097D01*
X130032Y021266D01*
X129967Y021421D01*
X129848Y021540D01*
X129693Y021604D01*
X129524Y021604D01*
X129369Y021540D01*
X129250Y021421D01*
X129185Y021266D01*
X129185Y021097D01*
X129250Y020942D01*
X129369Y020823D01*
X129524Y020758D01*
X129693Y020758D01*
X129848Y020823D01*
X129982Y020977D02*
X142243Y020977D01*
X142038Y021126D02*
X130032Y021126D01*
X130028Y021275D02*
X137908Y021275D01*
X137852Y021298D02*
X138018Y021229D01*
X138199Y021229D01*
X138365Y021298D01*
X138492Y021425D01*
X138561Y021591D01*
X138561Y021771D01*
X138492Y021938D01*
X138365Y022065D01*
X138199Y022134D01*
X138018Y022134D01*
X137852Y022065D01*
X137725Y021938D01*
X137656Y021771D01*
X137656Y021591D01*
X137725Y021425D01*
X137852Y021298D01*
X137727Y021423D02*
X129965Y021423D01*
X129772Y021572D02*
X137664Y021572D01*
X137656Y021720D02*
X117628Y021720D01*
X117626Y021572D02*
X126445Y021572D01*
X126369Y021540D02*
X126250Y021421D01*
X126185Y021266D01*
X126185Y021097D01*
X126250Y020942D01*
X126369Y020823D01*
X126524Y020758D01*
X126693Y020758D01*
X126848Y020823D01*
X126967Y020942D01*
X127032Y021097D01*
X127032Y021266D01*
X126967Y021421D01*
X126848Y021540D01*
X126693Y021604D01*
X126524Y021604D01*
X126369Y021540D01*
X126252Y021423D02*
X117564Y021423D01*
X117437Y021275D02*
X126189Y021275D01*
X126185Y021126D02*
X117394Y021126D01*
X117548Y020977D02*
X126235Y020977D01*
X126363Y020829D02*
X117610Y020829D01*
X117546Y020383D02*
X143033Y020383D01*
X142764Y020235D02*
X129903Y020235D01*
X129848Y020290D02*
X129693Y020354D01*
X129524Y020354D01*
X129369Y020290D01*
X129250Y020171D01*
X129185Y020016D01*
X129185Y019847D01*
X129250Y019692D01*
X129369Y019573D01*
X129524Y019508D01*
X129693Y019508D01*
X129848Y019573D01*
X129967Y019692D01*
X130032Y019847D01*
X130032Y020016D01*
X129967Y020171D01*
X129848Y020290D01*
X130002Y020086D02*
X142619Y020086D01*
X142558Y019938D02*
X130032Y019938D01*
X130007Y019789D02*
X142511Y019789D01*
X142511Y019641D02*
X129916Y019641D01*
X129301Y019641D02*
X128416Y019641D01*
X128467Y019692D02*
X128532Y019847D01*
X128532Y020016D01*
X128467Y020171D01*
X128348Y020290D01*
X128193Y020354D01*
X128024Y020354D01*
X127869Y020290D01*
X127750Y020171D01*
X127685Y020016D01*
X127685Y019847D01*
X127750Y019692D01*
X127869Y019573D01*
X128024Y019508D01*
X128193Y019508D01*
X128348Y019573D01*
X128467Y019692D01*
X128507Y019789D02*
X129209Y019789D01*
X129185Y019938D02*
X128532Y019938D01*
X128502Y020086D02*
X129215Y020086D01*
X129314Y020235D02*
X128403Y020235D01*
X128193Y020758D02*
X128348Y020823D01*
X128467Y020942D01*
X128532Y021097D01*
X128532Y021266D01*
X128467Y021421D01*
X128348Y021540D01*
X128193Y021604D01*
X128024Y021604D01*
X127869Y021540D01*
X127750Y021421D01*
X127685Y021266D01*
X127685Y021097D01*
X127750Y020942D01*
X127869Y020823D01*
X128024Y020758D01*
X128193Y020758D01*
X128354Y020829D02*
X129363Y020829D01*
X129235Y020977D02*
X128482Y020977D01*
X128532Y021126D02*
X129185Y021126D01*
X129189Y021275D02*
X128528Y021275D01*
X128465Y021423D02*
X129252Y021423D01*
X129445Y021572D02*
X128272Y021572D01*
X127945Y021572D02*
X126772Y021572D01*
X126965Y021423D02*
X127752Y021423D01*
X127689Y021275D02*
X127028Y021275D01*
X127032Y021126D02*
X127685Y021126D01*
X127735Y020977D02*
X126982Y020977D01*
X126854Y020829D02*
X127863Y020829D01*
X127814Y020235D02*
X126903Y020235D01*
X126848Y020290D02*
X126693Y020354D01*
X126524Y020354D01*
X126369Y020290D01*
X126250Y020171D01*
X126185Y020016D01*
X126185Y019847D01*
X126250Y019692D01*
X126369Y019573D01*
X126524Y019508D01*
X126693Y019508D01*
X126848Y019573D01*
X126967Y019692D01*
X127032Y019847D01*
X127032Y020016D01*
X126967Y020171D01*
X126848Y020290D01*
X127002Y020086D02*
X127715Y020086D01*
X127685Y019938D02*
X127032Y019938D01*
X127007Y019789D02*
X127709Y019789D01*
X127801Y019641D02*
X126916Y019641D01*
X126833Y019046D02*
X127884Y019046D01*
X127869Y019040D02*
X127750Y018921D01*
X127685Y018766D01*
X127685Y018597D01*
X127750Y018442D01*
X127869Y018323D01*
X128024Y018258D01*
X128193Y018258D01*
X128348Y018323D01*
X128467Y018442D01*
X128532Y018597D01*
X128532Y018766D01*
X128467Y018921D01*
X128348Y019040D01*
X128193Y019104D01*
X128024Y019104D01*
X127869Y019040D01*
X127740Y018898D02*
X126977Y018898D01*
X127032Y018749D02*
X127685Y018749D01*
X127685Y018601D02*
X127032Y018601D01*
X126971Y018452D02*
X127745Y018452D01*
X127915Y018304D02*
X126802Y018304D01*
X128302Y018304D02*
X129415Y018304D01*
X129245Y018452D02*
X128471Y018452D01*
X128532Y018601D02*
X129185Y018601D01*
X129185Y018749D02*
X128532Y018749D01*
X128477Y018898D02*
X129240Y018898D01*
X129384Y019046D02*
X128333Y019046D01*
X126301Y019641D02*
X117628Y019641D01*
X117627Y019789D02*
X126209Y019789D01*
X126185Y019938D02*
X117565Y019938D01*
X117439Y020086D02*
X126215Y020086D01*
X126314Y020235D02*
X117389Y020235D01*
X117593Y019492D02*
X142530Y019492D01*
X142591Y019344D02*
X117506Y019344D01*
X129802Y018304D02*
X142105Y018304D01*
X142405Y018452D02*
X129971Y018452D01*
X142974Y020977D02*
X156264Y020977D01*
X153561Y021591D02*
X153492Y021425D01*
X153365Y021298D01*
X153199Y021229D01*
X153018Y021229D01*
X152852Y021298D01*
X152725Y021425D01*
X152656Y021591D01*
X152656Y021771D01*
X152725Y021938D01*
X152852Y022065D01*
X153018Y022134D01*
X153199Y022134D01*
X153365Y022065D01*
X153492Y021938D01*
X153561Y021771D01*
X153561Y021591D01*
X153553Y021572D02*
X161109Y021572D01*
X161109Y021720D02*
X153561Y021720D01*
X153521Y021869D02*
X157781Y021869D01*
X157687Y022017D02*
X153413Y022017D01*
X153490Y021423D02*
X161109Y021423D01*
X161109Y021275D02*
X153309Y021275D01*
X152908Y021275D02*
X151809Y021275D01*
X151990Y021423D02*
X152727Y021423D01*
X152664Y021572D02*
X152053Y021572D01*
X152061Y021720D02*
X152656Y021720D01*
X152696Y021869D02*
X152021Y021869D01*
X151913Y022017D02*
X152804Y022017D01*
X149421Y023354D02*
X161109Y023354D01*
X161109Y023206D02*
X136561Y023206D01*
X136547Y023057D02*
X161109Y023057D01*
X161109Y022909D02*
X136476Y022909D01*
X136274Y022760D02*
X161109Y022760D01*
X161109Y023503D02*
X149524Y023503D01*
X149561Y023651D02*
X161109Y023651D01*
X159798Y024394D02*
X159419Y024394D01*
X159509Y024543D02*
X159708Y024543D01*
X159685Y024691D02*
X159532Y024691D01*
X159501Y024840D02*
X159716Y024840D01*
X159817Y024988D02*
X159400Y024988D01*
X148796Y023354D02*
X136527Y023354D01*
X136427Y023503D02*
X148693Y023503D01*
X148656Y023651D02*
X117628Y023651D01*
X117581Y022463D02*
X142298Y022463D01*
X142061Y022314D02*
X117477Y022314D01*
X117298Y022166D02*
X141915Y022166D01*
X141854Y022017D02*
X139663Y022017D01*
X139615Y022065D02*
X139449Y022134D01*
X139268Y022134D01*
X139102Y022065D01*
X138975Y021938D01*
X138906Y021771D01*
X138906Y021591D01*
X138975Y021425D01*
X139102Y021298D01*
X139268Y021229D01*
X139449Y021229D01*
X139615Y021298D01*
X139742Y021425D01*
X139811Y021591D01*
X139811Y021771D01*
X139742Y021938D01*
X139615Y022065D01*
X139771Y021869D02*
X141793Y021869D01*
X141793Y021720D02*
X139811Y021720D01*
X139803Y021572D02*
X141793Y021572D01*
X141844Y021423D02*
X139740Y021423D01*
X139559Y021275D02*
X141906Y021275D01*
X139158Y021275D02*
X138309Y021275D01*
X138490Y021423D02*
X138977Y021423D01*
X138914Y021572D02*
X138553Y021572D01*
X138561Y021720D02*
X138906Y021720D01*
X138946Y021869D02*
X138521Y021869D01*
X138413Y022017D02*
X139054Y022017D01*
X137804Y022017D02*
X117508Y022017D01*
X117594Y021869D02*
X137696Y021869D01*
X142919Y022463D02*
X147250Y022463D01*
X147174Y022314D02*
X143156Y022314D01*
X143302Y022166D02*
X147156Y022166D01*
X147187Y022017D02*
X143364Y022017D01*
X142622Y026771D02*
X131800Y026771D01*
X131986Y026919D02*
X142560Y026919D01*
X142511Y027068D02*
X132051Y027068D01*
X132061Y027216D02*
X142511Y027216D01*
X142528Y027365D02*
X135432Y027365D01*
X135529Y027513D02*
X142589Y027513D01*
X142691Y027662D02*
X135561Y027662D01*
X135545Y027810D02*
X142858Y027810D01*
X142798Y028405D02*
X161109Y028405D01*
X161109Y028553D02*
X143106Y028553D01*
X143255Y028702D02*
X161109Y028702D01*
X161109Y028850D02*
X143343Y028850D01*
X143404Y028999D02*
X161109Y028999D01*
X161109Y029147D02*
X143424Y029147D01*
X143424Y029296D02*
X161109Y029296D01*
X161109Y029444D02*
X143394Y029444D01*
X143332Y029593D02*
X161109Y029593D01*
X161109Y029742D02*
X143229Y029742D01*
X143081Y029890D02*
X161109Y029890D01*
X161109Y030039D02*
X129891Y030039D01*
X130012Y029890D02*
X142136Y029890D01*
X142111Y028553D02*
X127877Y028553D01*
X128006Y028405D02*
X142419Y028405D01*
X129356Y029296D02*
X125861Y029296D01*
X126000Y029444D02*
X129217Y029444D01*
X129156Y029593D02*
X126061Y029593D01*
X126061Y029742D02*
X129156Y029742D01*
X129205Y029890D02*
X126012Y029890D01*
X125891Y030039D02*
X129326Y030039D01*
X147516Y015481D02*
X150560Y015481D01*
X150463Y015333D02*
X147400Y015333D01*
X042398Y003449D02*
X031939Y003449D01*
X032017Y003301D02*
X042102Y003301D01*
X041954Y003152D02*
X032032Y003152D01*
X031993Y003004D02*
X040332Y003004D01*
X040369Y003040D02*
X040250Y002921D01*
X040185Y002766D01*
X040185Y002597D01*
X040250Y002442D01*
X040369Y002323D01*
X040524Y002258D01*
X040693Y002258D01*
X040848Y002323D01*
X040967Y002442D01*
X041032Y002597D01*
X041032Y002766D01*
X040967Y002921D01*
X040848Y003040D01*
X040693Y003104D01*
X040524Y003104D01*
X040369Y003040D01*
X040223Y002855D02*
X031881Y002855D01*
X031336Y002855D02*
X030381Y002855D01*
X030493Y003004D02*
X031224Y003004D01*
X031185Y003152D02*
X030532Y003152D01*
X030517Y003301D02*
X031200Y003301D01*
X031278Y003449D02*
X030439Y003449D01*
X040185Y002707D02*
X018109Y002707D01*
X018109Y002558D02*
X040202Y002558D01*
X040282Y002410D02*
X018109Y002410D01*
X018109Y002261D02*
X040518Y002261D01*
X040699Y002261D02*
X041888Y002261D01*
X041827Y002410D02*
X040935Y002410D01*
X041015Y002558D02*
X041793Y002558D01*
X041793Y002707D02*
X041032Y002707D01*
X040994Y002855D02*
X041809Y002855D01*
X041871Y003004D02*
X040884Y003004D01*
X041996Y002112D02*
X018109Y002112D01*
X018109Y001964D02*
X042145Y001964D01*
M02*
