G75*
G70*
%OFA0B0*%
%FSLAX24Y24*%
%IPPOS*%
%LPD*%
%AMOC8*
5,1,8,0,0,1.08239X$1,22.5*
%
%ADD10C,0.1084*%
%ADD11C,0.1261*%
%ADD12R,0.4280X0.3580*%
%ADD13R,0.0430X0.0980*%
%ADD14R,0.1064X0.0828*%
%ADD15R,0.0828X0.1064*%
%ADD16R,0.0580X0.0380*%
%ADD17R,0.0380X0.0580*%
%ADD18R,0.0867X0.3308*%
%ADD19C,0.2580*%
%ADD20R,0.0789X0.0789*%
%ADD21R,0.0670X0.0670*%
%ADD22C,0.0670*%
%ADD23C,0.0535*%
%ADD24C,0.0476*%
%ADD25R,0.0476X0.0476*%
D10*
X043238Y004681D03*
X063238Y004681D03*
X073238Y004681D03*
X083238Y004681D03*
X083238Y012181D03*
X073238Y012181D03*
X063238Y012181D03*
X043238Y012181D03*
X043238Y019681D03*
X063238Y019681D03*
X073238Y019681D03*
X083238Y019681D03*
X083238Y027181D03*
X073238Y027181D03*
X063238Y027181D03*
X043238Y027181D03*
X043238Y034681D03*
X063238Y034681D03*
X073238Y034681D03*
X083238Y034681D03*
X123238Y034681D03*
X143238Y034681D03*
X153238Y034681D03*
X163238Y034681D03*
X163238Y027181D03*
X153238Y027181D03*
X143238Y027181D03*
X123238Y027181D03*
X123238Y019681D03*
X143238Y019681D03*
X153238Y019681D03*
X163238Y019681D03*
X163238Y012181D03*
X153238Y012181D03*
X143238Y012181D03*
X123238Y012181D03*
X123238Y004681D03*
X143238Y004681D03*
X153238Y004681D03*
X163238Y004681D03*
D11*
X162609Y002654D03*
X152609Y002654D03*
X142609Y002654D03*
X142609Y006709D03*
X152609Y006709D03*
X162609Y006709D03*
X162609Y010154D03*
X152609Y010154D03*
X142609Y010154D03*
X142609Y014209D03*
X152609Y014209D03*
X162609Y014209D03*
X162609Y017654D03*
X152609Y017654D03*
X142609Y017654D03*
X142609Y021709D03*
X152609Y021709D03*
X162609Y021709D03*
X162609Y025154D03*
X152609Y025154D03*
X142609Y025154D03*
X142609Y029209D03*
X152609Y029209D03*
X162609Y029209D03*
X162609Y032654D03*
X152609Y032654D03*
X142609Y032654D03*
X142609Y036709D03*
X152609Y036709D03*
X162609Y036709D03*
X122609Y036709D03*
X122609Y032654D03*
X122609Y029209D03*
X122609Y025154D03*
X122609Y021709D03*
X122609Y017654D03*
X122609Y014209D03*
X122609Y010154D03*
X122609Y006709D03*
X122609Y002654D03*
X082609Y002654D03*
X072609Y002654D03*
X062609Y002654D03*
X062609Y006709D03*
X072609Y006709D03*
X082609Y006709D03*
X082609Y010154D03*
X072609Y010154D03*
X062609Y010154D03*
X062609Y014209D03*
X072609Y014209D03*
X082609Y014209D03*
X082609Y017654D03*
X072609Y017654D03*
X062609Y017654D03*
X062609Y021709D03*
X072609Y021709D03*
X082609Y021709D03*
X082609Y025154D03*
X072609Y025154D03*
X062609Y025154D03*
X062609Y029209D03*
X072609Y029209D03*
X082609Y029209D03*
X082609Y032654D03*
X072609Y032654D03*
X062609Y032654D03*
X062609Y036709D03*
X072609Y036709D03*
X082609Y036709D03*
X042609Y036709D03*
X042609Y032654D03*
X042609Y029209D03*
X042609Y025154D03*
X042609Y021709D03*
X042609Y017654D03*
X042609Y014209D03*
X042609Y010154D03*
X042609Y006709D03*
X042609Y002654D03*
D12*
X030109Y004481D03*
X050109Y012881D03*
X030609Y021881D03*
X052109Y024981D03*
X033109Y035881D03*
X108109Y019881D03*
X132609Y027881D03*
X112116Y034826D03*
X133109Y010481D03*
X110609Y004481D03*
D13*
X110609Y008181D03*
X111109Y008181D03*
X111609Y008181D03*
X112109Y008181D03*
X110109Y008181D03*
X109609Y008181D03*
X109109Y008181D03*
X131609Y014181D03*
X132109Y014181D03*
X132609Y014181D03*
X133109Y014181D03*
X133609Y014181D03*
X134109Y014181D03*
X134609Y014181D03*
X109609Y016181D03*
X109109Y016181D03*
X108609Y016181D03*
X108109Y016181D03*
X107609Y016181D03*
X107109Y016181D03*
X106609Y016181D03*
X131109Y024181D03*
X131609Y024181D03*
X132109Y024181D03*
X132609Y024181D03*
X133109Y024181D03*
X133609Y024181D03*
X134109Y024181D03*
X113616Y031126D03*
X113116Y031126D03*
X112616Y031126D03*
X112116Y031126D03*
X111616Y031126D03*
X111116Y031126D03*
X110616Y031126D03*
X053609Y028681D03*
X053109Y028681D03*
X052609Y028681D03*
X052109Y028681D03*
X051609Y028681D03*
X051109Y028681D03*
X050609Y028681D03*
X034609Y032181D03*
X034109Y032181D03*
X033609Y032181D03*
X033109Y032181D03*
X032609Y032181D03*
X032109Y032181D03*
X031609Y032181D03*
X031609Y018181D03*
X032109Y018181D03*
X031109Y018181D03*
X030609Y018181D03*
X030109Y018181D03*
X029609Y018181D03*
X029109Y018181D03*
X048609Y009181D03*
X049109Y009181D03*
X049609Y009181D03*
X050109Y009181D03*
X050609Y009181D03*
X051109Y009181D03*
X051609Y009181D03*
X031609Y008181D03*
X031109Y008181D03*
X030609Y008181D03*
X030109Y008181D03*
X029609Y008181D03*
X029109Y008181D03*
X028609Y008181D03*
D14*
X033609Y012961D03*
X033609Y015402D03*
X055109Y008902D03*
X055109Y006461D03*
X106609Y008961D03*
X106609Y011402D03*
X109609Y011961D03*
X116109Y010402D03*
X116109Y007961D03*
X129109Y013461D03*
X129109Y015902D03*
X116109Y019961D03*
X116109Y022402D03*
X127609Y022961D03*
X127609Y025402D03*
X136609Y023902D03*
X136609Y021461D03*
X109609Y014402D03*
X107609Y028961D03*
X107609Y031402D03*
X050609Y032961D03*
X047109Y031402D03*
X047109Y028961D03*
X034109Y027961D03*
X034109Y030402D03*
X050609Y035402D03*
D15*
X039829Y032181D03*
X037388Y032181D03*
X037388Y018681D03*
X039829Y018681D03*
X056888Y015681D03*
X059329Y015681D03*
X025829Y011681D03*
X023388Y011681D03*
X037388Y002681D03*
X039829Y002681D03*
X130388Y006681D03*
X132829Y006681D03*
X115829Y029181D03*
X113388Y029181D03*
D16*
X111609Y028581D03*
X111609Y027781D03*
X105609Y030281D03*
X105609Y031081D03*
X129109Y025081D03*
X129109Y024281D03*
X131609Y023081D03*
X133109Y023081D03*
X133109Y022281D03*
X131609Y022281D03*
X138109Y022781D03*
X139359Y022781D03*
X139359Y023581D03*
X138109Y023581D03*
X119359Y021081D03*
X118109Y021081D03*
X118109Y020281D03*
X119359Y020281D03*
X132609Y016081D03*
X134109Y016081D03*
X134109Y015281D03*
X132609Y015281D03*
X127109Y015081D03*
X127109Y014281D03*
X111609Y014081D03*
X111609Y013281D03*
X107609Y013281D03*
X107609Y014081D03*
X111109Y011081D03*
X111109Y010281D03*
X114109Y009581D03*
X114109Y008781D03*
X057109Y007831D03*
X057109Y007031D03*
X052609Y007281D03*
X050609Y007281D03*
X050609Y008081D03*
X052609Y008081D03*
X030609Y011281D03*
X030609Y012081D03*
X035609Y014281D03*
X035609Y015081D03*
X030109Y015781D03*
X030109Y016581D03*
X032609Y028781D03*
X032609Y029581D03*
X035609Y029281D03*
X037109Y029031D03*
X037109Y029831D03*
X035609Y030081D03*
X045609Y030081D03*
X045609Y029281D03*
X051609Y030281D03*
X053109Y030281D03*
X053109Y031081D03*
X051609Y031081D03*
X049109Y033281D03*
X048109Y033281D03*
X048109Y034081D03*
X049109Y034081D03*
D17*
X039009Y030181D03*
X038209Y030181D03*
X032009Y030681D03*
X031209Y030681D03*
X037834Y020931D03*
X038634Y020931D03*
X038509Y016681D03*
X037709Y016681D03*
X029509Y016681D03*
X028709Y016681D03*
X057209Y013181D03*
X058009Y013181D03*
X049134Y007556D03*
X048334Y007556D03*
X038509Y005931D03*
X037709Y005931D03*
X037709Y004681D03*
X038509Y004681D03*
X032009Y009681D03*
X031209Y009681D03*
X025009Y009681D03*
X024209Y009681D03*
X103459Y008681D03*
X104259Y008681D03*
X111709Y009681D03*
X112509Y009681D03*
X117459Y006681D03*
X118259Y006681D03*
X130709Y004681D03*
X131509Y004681D03*
X125759Y014431D03*
X124959Y014431D03*
X107009Y014681D03*
X106209Y014681D03*
X113709Y027681D03*
X114509Y027681D03*
X111009Y029681D03*
X110209Y029681D03*
X105259Y032306D03*
X104459Y032306D03*
D18*
X109429Y035034D03*
X114803Y035034D03*
X129921Y028089D03*
X135296Y028089D03*
X110796Y020089D03*
X105421Y020089D03*
X130421Y010089D03*
X135796Y010089D03*
X113296Y004274D03*
X107921Y004274D03*
X052796Y012774D03*
X047421Y012774D03*
X032796Y004589D03*
X027421Y004589D03*
X027921Y022089D03*
X033296Y022089D03*
X049421Y025089D03*
X054796Y025089D03*
X035796Y036089D03*
X030421Y036089D03*
D19*
X016109Y003681D03*
X067609Y003681D03*
X096609Y003681D03*
X127609Y003681D03*
X169109Y003681D03*
X169109Y036681D03*
X127609Y036681D03*
X096609Y036681D03*
X067609Y036681D03*
X016109Y036681D03*
D20*
X020187Y027740D03*
X020187Y026363D03*
X020187Y024985D03*
X020187Y023607D03*
X020187Y022229D03*
X020187Y020851D03*
X020187Y019473D03*
X020187Y018095D03*
X020187Y016717D03*
X020187Y015339D03*
X020187Y013961D03*
X020187Y012583D03*
X167784Y012583D03*
X167784Y013961D03*
X167784Y015339D03*
X167784Y016717D03*
X167784Y018095D03*
X167784Y019473D03*
X167784Y020851D03*
X167784Y022229D03*
X167784Y023607D03*
X167784Y024985D03*
X167784Y026363D03*
X167784Y027740D03*
D21*
X096109Y028681D03*
D22*
X097109Y028681D03*
X097109Y027681D03*
X096109Y027681D03*
X096109Y026681D03*
X097109Y026681D03*
X097109Y025681D03*
X096109Y025681D03*
X096109Y024681D03*
X097109Y024681D03*
X097109Y023681D03*
X096109Y023681D03*
X096109Y022681D03*
X097109Y022681D03*
X097109Y021681D03*
X096109Y021681D03*
X096109Y020681D03*
X097109Y020681D03*
X097109Y019681D03*
X096109Y019681D03*
X096109Y018681D03*
X097109Y018681D03*
X097109Y017681D03*
X096109Y017681D03*
X096109Y016681D03*
X097109Y016681D03*
X097109Y015681D03*
X096109Y015681D03*
D23*
X105609Y014681D03*
X106609Y012681D03*
X107609Y012681D03*
X111609Y012681D03*
X111109Y011681D03*
X109609Y011181D03*
X114109Y010181D03*
X113109Y009681D03*
X116109Y011181D03*
X124359Y014431D03*
X127109Y015681D03*
X129109Y016681D03*
X132609Y016681D03*
X134109Y016681D03*
X132109Y013181D03*
X133609Y006681D03*
X132109Y004681D03*
X118859Y006681D03*
X102859Y008681D03*
X136609Y020681D03*
X133109Y021681D03*
X131609Y021681D03*
X127609Y022181D03*
X129109Y023681D03*
X133609Y025181D03*
X138109Y022181D03*
X139359Y022181D03*
X119359Y021681D03*
X118109Y021681D03*
X116109Y023181D03*
X111609Y027181D03*
X115109Y027681D03*
X116609Y029181D03*
X109609Y029681D03*
X105609Y029681D03*
X107609Y028181D03*
X103859Y032306D03*
X053109Y031681D03*
X051609Y031681D03*
X047109Y032181D03*
X045609Y030681D03*
X040609Y032181D03*
X039609Y030181D03*
X035609Y028681D03*
X037109Y028431D03*
X034109Y027181D03*
X032609Y028181D03*
X030609Y030681D03*
X048109Y034681D03*
X049109Y034681D03*
X050609Y036181D03*
X051109Y027681D03*
X039359Y020931D03*
X040609Y018681D03*
X039109Y016681D03*
X030109Y015181D03*
X028109Y016681D03*
X035609Y013681D03*
X033609Y012181D03*
D24*
X030609Y012681D03*
X022609Y011681D03*
X023609Y009681D03*
X025609Y009181D03*
X026609Y009181D03*
X027609Y009181D03*
X027609Y008181D03*
X026609Y008181D03*
X025609Y008181D03*
X032609Y009681D03*
X031609Y005681D03*
X030109Y005681D03*
X028609Y005681D03*
X028609Y004431D03*
X030109Y004431D03*
X031609Y004431D03*
X031609Y003181D03*
X030109Y003181D03*
X028609Y003181D03*
X039109Y004681D03*
X039109Y005931D03*
X047609Y007556D03*
X050609Y006681D03*
X052609Y006681D03*
X055109Y005681D03*
X057109Y006431D03*
X053609Y008181D03*
X053609Y009181D03*
X052734Y009181D03*
X051109Y010181D03*
X051609Y011681D03*
X050109Y011681D03*
X048609Y011681D03*
X048609Y012931D03*
X050109Y012931D03*
X051609Y012931D03*
X051609Y014181D03*
X050109Y014181D03*
X048609Y014181D03*
X059109Y013181D03*
X060609Y015681D03*
X035109Y017681D03*
X034109Y017681D03*
X033109Y017681D03*
X033109Y018681D03*
X034109Y018681D03*
X035109Y018681D03*
X032109Y020681D03*
X030609Y020681D03*
X029109Y020681D03*
X029109Y021681D03*
X030609Y021681D03*
X032109Y021681D03*
X032109Y022681D03*
X030609Y022681D03*
X029109Y022681D03*
X050609Y024181D03*
X052109Y024181D03*
X053609Y024181D03*
X053609Y025181D03*
X052109Y025181D03*
X050609Y025181D03*
X050609Y026181D03*
X052109Y026181D03*
X053609Y026181D03*
X049484Y028681D03*
X049484Y029681D03*
X050234Y029681D03*
X050234Y030681D03*
X049484Y030681D03*
X035734Y032181D03*
X035359Y033306D03*
X034359Y033306D03*
X034609Y035181D03*
X033109Y035181D03*
X031609Y035181D03*
X031609Y036181D03*
X033109Y036181D03*
X034609Y036181D03*
X034609Y037181D03*
X033109Y037181D03*
X031609Y037181D03*
X106609Y021181D03*
X108109Y021181D03*
X109609Y021181D03*
X109609Y019931D03*
X108109Y019931D03*
X106609Y019931D03*
X106609Y018681D03*
X108109Y018681D03*
X109609Y018681D03*
X109609Y017181D03*
X111109Y017181D03*
X112109Y017181D03*
X113109Y017181D03*
X113109Y016181D03*
X112109Y016181D03*
X111109Y016181D03*
X111109Y015181D03*
X105109Y013181D03*
X100109Y010181D03*
X097109Y007181D03*
X104609Y005181D03*
X105609Y005181D03*
X105609Y004181D03*
X104609Y004181D03*
X104609Y003181D03*
X105609Y003181D03*
X109109Y003181D03*
X110609Y003181D03*
X112109Y003181D03*
X112109Y004431D03*
X110609Y004431D03*
X109109Y004431D03*
X109109Y005681D03*
X110609Y005681D03*
X112109Y005681D03*
X111234Y007181D03*
X126109Y009681D03*
X127609Y009681D03*
X131609Y009181D03*
X133109Y009181D03*
X134609Y009181D03*
X134609Y010681D03*
X133109Y010681D03*
X131609Y010681D03*
X131609Y011681D03*
X133109Y011681D03*
X134609Y011681D03*
X131109Y013181D03*
X127609Y013181D03*
X126109Y013181D03*
X129359Y014181D03*
X130859Y015181D03*
X124609Y016681D03*
X126109Y011681D03*
X127609Y011681D03*
X138109Y024681D03*
X139109Y024681D03*
X140109Y024681D03*
X140109Y025681D03*
X139109Y025681D03*
X138109Y025681D03*
X126609Y025681D03*
X126609Y026681D03*
X126609Y027681D03*
X126609Y028681D03*
X126609Y029681D03*
X115609Y031181D03*
X114609Y031181D03*
X114609Y032181D03*
X115609Y032181D03*
X113609Y032181D03*
X113609Y033681D03*
X112109Y033681D03*
X110609Y033681D03*
X110609Y034681D03*
X112109Y034681D03*
X113609Y034681D03*
X113609Y035681D03*
X112109Y035681D03*
X110609Y035681D03*
X040609Y002681D03*
D25*
X091609Y015181D03*
M02*
