%
M48
M72
T01C0.0236
T02C0.0295
T03C0.0390
T04C0.0472
T05C0.0669
T06C0.0787
T07C0.1495
%
T01
X28609Y3181
X30109Y3181
X31609Y3181
X31609Y4431
X30109Y4431
X28609Y4431
X28609Y5681
X30109Y5681
X31609Y5681
X39109Y5931
X39109Y4681
X40609Y2681
X55109Y5681
X57109Y6431
X52609Y6681
X50609Y6681
X47609Y7556
X52734Y9181
X53609Y9181
X53609Y8181
X51109Y10181
X51609Y11681
X50109Y11681
X48609Y11681
X48609Y12931
X50109Y12931
X51609Y12931
X51609Y14181
X50109Y14181
X48609Y14181
X59109Y13181
X60609Y15681
X35109Y17681
X34109Y17681
X33109Y17681
X33109Y18681
X34109Y18681
X35109Y18681
X32109Y20681
X30609Y20681
X29109Y20681
X29109Y21681
X30609Y21681
X32109Y21681
X32109Y22681
X30609Y22681
X29109Y22681
X50609Y24181
X52109Y24181
X53609Y24181
X53609Y25181
X52109Y25181
X50609Y25181
X50609Y26181
X52109Y26181
X53609Y26181
X49484Y28681
X49484Y29681
X50234Y29681
X50234Y30681
X49484Y30681
X35734Y32181
X35359Y33306
X34359Y33306
X34609Y35181
X33109Y35181
X31609Y35181
X31609Y36181
X33109Y36181
X34609Y36181
X34609Y37181
X33109Y37181
X31609Y37181
X106609Y21181
X108109Y21181
X109609Y21181
X109609Y19931
X108109Y19931
X106609Y19931
X106609Y18681
X108109Y18681
X109609Y18681
X109609Y17181
X111109Y17181
X112109Y17181
X113109Y17181
X113109Y16181
X112109Y16181
X111109Y16181
X111109Y15181
X105109Y13181
X100109Y10181
X97109Y7181
X104609Y5181
X105609Y5181
X105609Y4181
X104609Y4181
X104609Y3181
X105609Y3181
X109109Y3181
X110609Y3181
X112109Y3181
X112109Y4431
X110609Y4431
X109109Y4431
X109109Y5681
X110609Y5681
X112109Y5681
X111234Y7181
X126109Y9681
X127609Y9681
X131609Y9181
X133109Y9181
X134609Y9181
X134609Y10681
X133109Y10681
X131609Y10681
X131609Y11681
X133109Y11681
X134609Y11681
X131109Y13181
X127609Y13181
X126109Y13181
X129359Y14181
X130859Y15181
X124609Y16681
X126109Y11681
X127609Y11681
X91609Y15181
X126609Y25681
X126609Y26681
X126609Y27681
X126609Y28681
X126609Y29681
X115609Y31181
X114609Y31181
X114609Y32181
X115609Y32181
X113609Y32181
X113609Y33681
X112109Y33681
X110609Y33681
X110609Y34681
X112109Y34681
X113609Y34681
X113609Y35681
X112109Y35681
X110609Y35681
X138109Y25681
X139109Y25681
X140109Y25681
X140109Y24681
X139109Y24681
X138109Y24681
X32609Y9681
X27609Y9181
X26609Y9181
X25609Y9181
X23609Y9681
X25609Y8181
X26609Y8181
X27609Y8181
X22609Y11681
X30609Y12681
T02
X33609Y12181
X35609Y13681
X30109Y15181
X28109Y16681
X39109Y16681
X40609Y18681
X39359Y20931
X34109Y27181
X32609Y28181
X35609Y28681
X37109Y28431
X39609Y30181
X45609Y30681
X47109Y32181
X51609Y31681
X53109Y31681
X49109Y34681
X48109Y34681
X50609Y36181
X40609Y32181
X30609Y30681
X51109Y27681
X103859Y32306
X105609Y29681
X109609Y29681
X107609Y28181
X111609Y27181
X115109Y27681
X116609Y29181
X133609Y25181
X129109Y23681
X127609Y22181
X131609Y21681
X133109Y21681
X136609Y20681
X138109Y22181
X139359Y22181
X119359Y21681
X118109Y21681
X116109Y23181
X129109Y16681
X132609Y16681
X134109Y16681
X127109Y15681
X124359Y14431
X132109Y13181
X116109Y11181
X114109Y10181
X113109Y9681
X109609Y11181
X111109Y11681
X111609Y12681
X107609Y12681
X106609Y12681
X105609Y14681
X102859Y8681
X118859Y6681
X132109Y4681
X133609Y6681
T03
X97109Y15681
X96109Y15681
X96109Y16681
X97109Y16681
X97109Y17681
X96109Y17681
X96109Y18681
X97109Y18681
X97109Y19681
X96109Y19681
X96109Y20681
X97109Y20681
X97109Y21681
X96109Y21681
X96109Y22681
X97109Y22681
X97109Y23681
X96109Y23681
X96109Y24681
X97109Y24681
X97109Y25681
X96109Y25681
X96109Y26681
X97109Y26681
X97109Y27681
X96109Y27681
X96109Y28681
X97109Y28681
T04
X167784Y27740
X167784Y26363
X167784Y24985
X167784Y23607
X167784Y22229
X167784Y20851
X167784Y19473
X167784Y18095
X167784Y16717
X167784Y15339
X167784Y13961
X167784Y12583
X20187Y12583
X20187Y13961
X20187Y15339
X20187Y16717
X20187Y18095
X20187Y19473
X20187Y20851
X20187Y22229
X20187Y23607
X20187Y24985
X20187Y26363
X20187Y27740
T05
X43238Y27181
X63238Y27181
X73238Y27181
X83238Y27181
X83238Y34681
X73238Y34681
X63238Y34681
X43238Y34681
X43238Y19681
X63238Y19681
X73238Y19681
X83238Y19681
X83238Y12181
X73238Y12181
X63238Y12181
X43238Y12181
X43238Y4681
X63238Y4681
X73238Y4681
X83238Y4681
X123238Y4681
X143238Y4681
X153238Y4681
X163238Y4681
X163238Y12181
X153238Y12181
X143238Y12181
X123238Y12181
X123238Y19681
X143238Y19681
X153238Y19681
X163238Y19681
X163238Y27181
X153238Y27181
X143238Y27181
X123238Y27181
X123238Y34681
X143238Y34681
X153238Y34681
X163238Y34681
T06
X162609Y32654
X152609Y32654
X142609Y32654
X142609Y29209
X152609Y29209
X162609Y29209
X162609Y25154
X152609Y25154
X142609Y25154
X142609Y21709
X152609Y21709
X162609Y21709
X162609Y17654
X152609Y17654
X142609Y17654
X142609Y14209
X152609Y14209
X162609Y14209
X162609Y10154
X152609Y10154
X142609Y10154
X142609Y6709
X152609Y6709
X162609Y6709
X162609Y2654
X152609Y2654
X142609Y2654
X122609Y2654
X122609Y6709
X122609Y10154
X122609Y14209
X122609Y17654
X122609Y21709
X122609Y25154
X122609Y29209
X122609Y32654
X122609Y36709
X142609Y36709
X152609Y36709
X162609Y36709
X82609Y36709
X72609Y36709
X62609Y36709
X62609Y32654
X72609Y32654
X82609Y32654
X82609Y29209
X72609Y29209
X62609Y29209
X62609Y25154
X72609Y25154
X82609Y25154
X82609Y21709
X72609Y21709
X62609Y21709
X62609Y17654
X72609Y17654
X82609Y17654
X82609Y14209
X72609Y14209
X62609Y14209
X62609Y10154
X72609Y10154
X82609Y10154
X82609Y6709
X72609Y6709
X62609Y6709
X62609Y2654
X72609Y2654
X82609Y2654
X42609Y2654
X42609Y6709
X42609Y10154
X42609Y14209
X42609Y17654
X42609Y21709
X42609Y25154
X42609Y29209
X42609Y32654
X42609Y36709
T07
X16109Y3681
X67609Y3681
X96609Y3681
X127609Y3681
X169109Y3681
X169109Y36681
X127609Y36681
X96609Y36681
X67609Y36681
X16109Y36681
M30
