%
M48
M72
T01C0.0236
T02C0.0295
T03C0.0390
T04C0.0472
T05C0.0669
T06C0.0787
T07C0.2010
%
T01
X28609Y3181
X30109Y3181
X31609Y3181
X31609Y4431
X30109Y4431
X28609Y4431
X28609Y5681
X30109Y5681
X31609Y5681
X39109Y4681
X40609Y2681
X55109Y5681
X52609Y6681
X50609Y6681
X47609Y7556
X53609Y8181
X53609Y9181
X52734Y9181
X51109Y10181
X51609Y11681
X50109Y11681
X48609Y11681
X48609Y12931
X50109Y12931
X51609Y12931
X51609Y14181
X50109Y14181
X48609Y14181
X59109Y13181
X60609Y15681
X35109Y17681
X34109Y17681
X33109Y17681
X33109Y18681
X34109Y18681
X35109Y18681
X32109Y20681
X30609Y20681
X29109Y20681
X29109Y21681
X30609Y21681
X32109Y21681
X32109Y22681
X30609Y22681
X29109Y22681
X50609Y24181
X52109Y24181
X53609Y24181
X53609Y25181
X52109Y25181
X50609Y25181
X50609Y26181
X52109Y26181
X53609Y26181
X49484Y28681
X49484Y29681
X50234Y29681
X50234Y30681
X49484Y30681
X35734Y32181
X35359Y33306
X34359Y33306
X34609Y35181
X33109Y35181
X31609Y35181
X31609Y36181
X33109Y36181
X34609Y36181
X34609Y37181
X33109Y37181
X31609Y37181
X126609Y21181
X128109Y21181
X129609Y21181
X129609Y19931
X128109Y19931
X126609Y19931
X126609Y18681
X128109Y18681
X129609Y18681
X129609Y17181
X131109Y17181
X132109Y17181
X133109Y17181
X133109Y16181
X132109Y16181
X131109Y16181
X144609Y16681
X150859Y15181
X149359Y14181
X151109Y13181
X147609Y13181
X146109Y13181
X146109Y11681
X147609Y11681
X151609Y11681
X153109Y11681
X154609Y11681
X154609Y10681
X153109Y10681
X151609Y10681
X147609Y9681
X146109Y9681
X151609Y9181
X153109Y9181
X154609Y9181
X132109Y5681
X130609Y5681
X129109Y5681
X125609Y5181
X124609Y5181
X124609Y4181
X125609Y4181
X129109Y4431
X130609Y4431
X132109Y4431
X132109Y3181
X130609Y3181
X129109Y3181
X125609Y3181
X124609Y3181
X131234Y7181
X117109Y7181
X120109Y10181
X125109Y13181
X158109Y24681
X159109Y24681
X160109Y24681
X160109Y25681
X159109Y25681
X158109Y25681
X146609Y25681
X146609Y26681
X146609Y27681
X146609Y28681
X146609Y29681
X135609Y31181
X134609Y31181
X134609Y32181
X135609Y32181
X133609Y32181
X133609Y33681
X132109Y33681
X130609Y33681
X130609Y34681
X132109Y34681
X133609Y34681
X133609Y35681
X132109Y35681
X130609Y35681
X30609Y12681
X22609Y11681
X23609Y9681
X25609Y9181
X26609Y9181
X27609Y9181
X27609Y8181
X26609Y8181
X25609Y8181
X32609Y9681
T02
X33609Y12181
X35609Y13681
X30109Y15181
X28109Y16681
X39109Y16681
X40609Y18681
X34109Y27181
X32609Y28181
X35609Y28681
X39609Y30181
X45609Y30681
X47109Y32181
X51609Y31681
X53109Y31681
X40609Y32181
X30609Y30681
X49109Y34681
X50609Y36181
X51109Y27681
X125609Y29681
X129609Y29681
X136609Y29181
X135109Y27681
X131609Y27181
X127609Y28181
X149109Y23681
X147609Y22181
X151609Y21681
X153109Y21681
X156609Y20681
X158109Y22181
X153609Y25181
X136109Y23181
X138109Y21681
X149109Y16681
X152609Y16681
X154109Y16681
X147109Y15681
X152109Y13181
X136109Y11181
X134109Y10181
X133109Y9681
X129609Y11181
X131109Y11681
X131609Y12681
X127609Y12681
X126609Y12681
X125609Y14681
X122859Y8681
X152109Y4681
X153609Y6681
T03
X117109Y15681
X116109Y15681
X116109Y16681
X117109Y16681
X117109Y17681
X116109Y17681
X116109Y18681
X117109Y18681
X117109Y19681
X116109Y19681
X116109Y20681
X117109Y20681
X117109Y21681
X116109Y21681
X116109Y22681
X117109Y22681
X117109Y23681
X116109Y23681
X116109Y24681
X117109Y24681
X117109Y25681
X116109Y25681
X116109Y26681
X117109Y26681
X117109Y27681
X116109Y27681
X116109Y28681
X117109Y28681
T04
X19975Y28441
X19975Y29819
X19975Y26374
X19975Y24996
X19975Y22929
X19975Y21551
X19975Y19485
X19975Y18107
X19975Y16040
X19975Y14662
X19975Y12595
X19975Y11217
T05
X43238Y12181
X63238Y12181
X83238Y12181
X103238Y12181
X103238Y19681
X83238Y19681
X63238Y19681
X43238Y19681
X43238Y27181
X63238Y27181
X83238Y27181
X103238Y27181
X103238Y34681
X83238Y34681
X63238Y34681
X43238Y34681
X143238Y34681
X163238Y34681
X183238Y34681
X203238Y34681
X203238Y27181
X183238Y27181
X163238Y27181
X143238Y27181
X143238Y19681
X163238Y19681
X183238Y19681
X203238Y19681
X203238Y12181
X183238Y12181
X163238Y12181
X143238Y12181
X143238Y4681
X163238Y4681
X183238Y4681
X203238Y4681
X103238Y4681
X83238Y4681
X63238Y4681
X43238Y4681
T06
X42609Y2654
X42609Y6709
X42609Y10154
X42609Y14209
X42609Y17654
X42609Y21709
X42609Y25154
X42609Y29209
X42609Y32654
X42609Y36709
X62609Y36709
X82609Y36709
X82609Y32654
X82609Y29209
X62609Y29209
X62609Y32654
X62609Y25154
X62609Y21709
X82609Y21709
X82609Y25154
X102609Y25154
X102609Y21709
X102609Y17654
X102609Y14209
X102609Y10154
X102609Y6709
X102609Y2654
X82609Y2654
X62609Y2654
X62609Y6709
X62609Y10154
X82609Y10154
X82609Y6709
X82609Y14209
X82609Y17654
X62609Y17654
X62609Y14209
X102609Y29209
X102609Y32654
X102609Y36709
X142609Y36709
X142609Y32654
X142609Y29209
X142609Y25154
X142609Y21709
X142609Y17654
X142609Y14209
X142609Y10154
X142609Y6709
X142609Y2654
X162609Y2654
X182609Y2654
X202609Y2654
X202609Y6709
X202609Y10154
X182609Y10154
X182609Y6709
X162609Y6709
X162609Y10154
X162609Y14209
X162609Y17654
X182609Y17654
X182609Y14209
X202609Y14209
X202609Y17654
X202609Y21709
X202609Y25154
X182609Y25154
X182609Y21709
X162609Y21709
X162609Y25154
X162609Y29209
X162609Y32654
X182609Y32654
X182609Y29209
X202609Y29209
X202609Y32654
X202609Y36709
X182609Y36709
X162609Y36709
T07
X16109Y3681
X116609Y3181
X209609Y3681
X210109Y37181
X116609Y37181
X16109Y37181
M30
