G75*
G70*
%OFA0B0*%
%FSLAX24Y24*%
%IPPOS*%
%LPD*%
%AMOC8*
5,1,8,0,0,1.08239X$1,22.5*
%
%ADD10C,0.1084*%
%ADD11C,0.1261*%
%ADD12C,0.2580*%
%ADD13R,0.0789X0.0789*%
%ADD14R,0.0670X0.0670*%
%ADD15C,0.0670*%
%ADD16C,0.0535*%
%ADD17C,0.0476*%
D10*
X043238Y004681D03*
X063238Y004681D03*
X083238Y004681D03*
X103238Y004681D03*
X103238Y012181D03*
X083238Y012181D03*
X063238Y012181D03*
X043238Y012181D03*
X043238Y019681D03*
X063238Y019681D03*
X083238Y019681D03*
X103238Y019681D03*
X103238Y027181D03*
X083238Y027181D03*
X063238Y027181D03*
X043238Y027181D03*
X043238Y034681D03*
X063238Y034681D03*
X083238Y034681D03*
X103238Y034681D03*
X143238Y034681D03*
X163238Y034681D03*
X183238Y034681D03*
X203238Y034681D03*
X203238Y027181D03*
X183238Y027181D03*
X163238Y027181D03*
X143238Y027181D03*
X143238Y019681D03*
X163238Y019681D03*
X183238Y019681D03*
X203238Y019681D03*
X203238Y012181D03*
X183238Y012181D03*
X163238Y012181D03*
X143238Y012181D03*
X143238Y004681D03*
X163238Y004681D03*
X183238Y004681D03*
X203238Y004681D03*
D11*
X202609Y002654D03*
X182609Y002654D03*
X162609Y002654D03*
X162609Y006709D03*
X162609Y010154D03*
X182609Y010154D03*
X182609Y006709D03*
X202609Y006709D03*
X202609Y010154D03*
X202609Y014209D03*
X202609Y017654D03*
X182609Y017654D03*
X182609Y014209D03*
X162609Y014209D03*
X162609Y017654D03*
X162609Y021709D03*
X162609Y025154D03*
X182609Y025154D03*
X182609Y021709D03*
X202609Y021709D03*
X202609Y025154D03*
X202609Y029209D03*
X202609Y032654D03*
X182609Y032654D03*
X182609Y029209D03*
X162609Y029209D03*
X162609Y032654D03*
X162609Y036709D03*
X182609Y036709D03*
X202609Y036709D03*
X142609Y036709D03*
X142609Y032654D03*
X142609Y029209D03*
X142609Y025154D03*
X142609Y021709D03*
X142609Y017654D03*
X142609Y014209D03*
X142609Y010154D03*
X142609Y006709D03*
X142609Y002654D03*
X102609Y002654D03*
X102609Y006709D03*
X102609Y010154D03*
X102609Y014209D03*
X102609Y017654D03*
X102609Y021709D03*
X102609Y025154D03*
X102609Y029209D03*
X102609Y032654D03*
X102609Y036709D03*
X082609Y036709D03*
X062609Y036709D03*
X062609Y032654D03*
X062609Y029209D03*
X082609Y029209D03*
X082609Y032654D03*
X082609Y025154D03*
X082609Y021709D03*
X062609Y021709D03*
X062609Y025154D03*
X042609Y025154D03*
X042609Y021709D03*
X042609Y017654D03*
X042609Y014209D03*
X042609Y010154D03*
X042609Y006709D03*
X042609Y002654D03*
X062609Y002654D03*
X082609Y002654D03*
X082609Y006709D03*
X082609Y010154D03*
X062609Y010154D03*
X062609Y006709D03*
X062609Y014209D03*
X062609Y017654D03*
X082609Y017654D03*
X082609Y014209D03*
X042609Y029209D03*
X042609Y032654D03*
X042609Y036709D03*
D12*
X016109Y003681D03*
X072609Y003681D03*
X116609Y003181D03*
X172609Y003681D03*
X209609Y003681D03*
X210109Y037181D03*
X172609Y037181D03*
X116609Y037181D03*
X072609Y037181D03*
X016109Y037181D03*
D13*
X020187Y027740D03*
X020187Y026363D03*
X020187Y024985D03*
X020187Y023607D03*
X020187Y022229D03*
X020187Y020851D03*
X020187Y019473D03*
X020187Y018095D03*
X020187Y016717D03*
X020187Y015339D03*
X020187Y013961D03*
X020187Y012583D03*
D14*
X116109Y028681D03*
D15*
X117109Y028681D03*
X117109Y027681D03*
X116109Y027681D03*
X116109Y026681D03*
X117109Y026681D03*
X117109Y025681D03*
X116109Y025681D03*
X116109Y024681D03*
X117109Y024681D03*
X117109Y023681D03*
X116109Y023681D03*
X116109Y022681D03*
X117109Y022681D03*
X117109Y021681D03*
X116109Y021681D03*
X116109Y020681D03*
X117109Y020681D03*
X117109Y019681D03*
X116109Y019681D03*
X116109Y018681D03*
X117109Y018681D03*
X117109Y017681D03*
X116109Y017681D03*
X116109Y016681D03*
X117109Y016681D03*
X117109Y015681D03*
X116109Y015681D03*
D16*
X125609Y014681D03*
X126609Y012681D03*
X127609Y012681D03*
X131609Y012681D03*
X131109Y011681D03*
X129609Y011181D03*
X134109Y010181D03*
X133109Y009681D03*
X136109Y011181D03*
X122859Y008681D03*
X138859Y006681D03*
X152109Y004681D03*
X153609Y006681D03*
X152109Y013181D03*
X144359Y014431D03*
X147109Y015681D03*
X149109Y016681D03*
X152609Y016681D03*
X154109Y016681D03*
X156609Y020681D03*
X153109Y021681D03*
X151609Y021681D03*
X147609Y022181D03*
X149109Y023681D03*
X153609Y025181D03*
X158109Y022181D03*
X159359Y022181D03*
X139359Y021681D03*
X138109Y021681D03*
X136109Y023181D03*
X131609Y027181D03*
X135109Y027681D03*
X136609Y029181D03*
X129609Y029681D03*
X125609Y029681D03*
X127609Y028181D03*
X123859Y032306D03*
X053109Y031681D03*
X051609Y031681D03*
X047109Y032181D03*
X045609Y030681D03*
X040609Y032181D03*
X039609Y030181D03*
X035609Y028681D03*
X037109Y028431D03*
X032609Y028181D03*
X034109Y027181D03*
X051109Y027681D03*
X030609Y030681D03*
X048109Y034681D03*
X049109Y034681D03*
X050609Y036181D03*
X039359Y020931D03*
X040609Y018681D03*
X039109Y016681D03*
X030109Y015181D03*
X028109Y016681D03*
X035609Y013681D03*
X033609Y012181D03*
D17*
X030609Y012681D03*
X022609Y011681D03*
X023609Y009681D03*
X025609Y009181D03*
X026609Y009181D03*
X027609Y009181D03*
X027609Y008181D03*
X026609Y008181D03*
X025609Y008181D03*
X032609Y009681D03*
X047609Y007556D03*
X050609Y006681D03*
X052609Y006681D03*
X055109Y005681D03*
X057109Y006431D03*
X053609Y008181D03*
X053609Y009181D03*
X052734Y009181D03*
X051109Y010181D03*
X051609Y011681D03*
X050109Y011681D03*
X048609Y011681D03*
X048609Y012931D03*
X050109Y012931D03*
X051609Y012931D03*
X051609Y014181D03*
X050109Y014181D03*
X048609Y014181D03*
X059109Y013181D03*
X060609Y015681D03*
X035109Y017681D03*
X034109Y017681D03*
X033109Y017681D03*
X033109Y018681D03*
X034109Y018681D03*
X035109Y018681D03*
X032109Y020681D03*
X030609Y020681D03*
X029109Y020681D03*
X029109Y021681D03*
X030609Y021681D03*
X032109Y021681D03*
X032109Y022681D03*
X030609Y022681D03*
X029109Y022681D03*
X050609Y024181D03*
X052109Y024181D03*
X053609Y024181D03*
X053609Y025181D03*
X052109Y025181D03*
X050609Y025181D03*
X050609Y026181D03*
X052109Y026181D03*
X053609Y026181D03*
X049484Y028681D03*
X049484Y029681D03*
X050234Y029681D03*
X050234Y030681D03*
X049484Y030681D03*
X035734Y032181D03*
X035359Y033306D03*
X034359Y033306D03*
X034609Y035181D03*
X033109Y035181D03*
X031609Y035181D03*
X031609Y036181D03*
X033109Y036181D03*
X034609Y036181D03*
X034609Y037181D03*
X033109Y037181D03*
X031609Y037181D03*
X126609Y021181D03*
X128109Y021181D03*
X129609Y021181D03*
X129609Y019931D03*
X128109Y019931D03*
X126609Y019931D03*
X126609Y018681D03*
X128109Y018681D03*
X129609Y018681D03*
X129609Y017181D03*
X131109Y017181D03*
X132109Y017181D03*
X133109Y017181D03*
X133109Y016181D03*
X132109Y016181D03*
X131109Y016181D03*
X144609Y016681D03*
X150859Y015181D03*
X149359Y014181D03*
X151109Y013181D03*
X147609Y013181D03*
X146109Y013181D03*
X146109Y011681D03*
X147609Y011681D03*
X151609Y011681D03*
X153109Y011681D03*
X154609Y011681D03*
X154609Y010681D03*
X153109Y010681D03*
X151609Y010681D03*
X147609Y009681D03*
X146109Y009681D03*
X151609Y009181D03*
X153109Y009181D03*
X154609Y009181D03*
X132109Y005681D03*
X130609Y005681D03*
X129109Y005681D03*
X125609Y005181D03*
X124609Y005181D03*
X124609Y004181D03*
X125609Y004181D03*
X129109Y004431D03*
X130609Y004431D03*
X132109Y004431D03*
X132109Y003181D03*
X130609Y003181D03*
X129109Y003181D03*
X125609Y003181D03*
X124609Y003181D03*
X131234Y007181D03*
X117109Y007181D03*
X120109Y010181D03*
X125109Y013181D03*
X158109Y024681D03*
X159109Y024681D03*
X160109Y024681D03*
X160109Y025681D03*
X159109Y025681D03*
X158109Y025681D03*
X146609Y025681D03*
X146609Y026681D03*
X146609Y027681D03*
X146609Y028681D03*
X146609Y029681D03*
X135609Y031181D03*
X134609Y031181D03*
X134609Y032181D03*
X135609Y032181D03*
X133609Y032181D03*
X133609Y033681D03*
X132109Y033681D03*
X130609Y033681D03*
X130609Y034681D03*
X132109Y034681D03*
X133609Y034681D03*
X133609Y035681D03*
X132109Y035681D03*
X130609Y035681D03*
X039109Y005931D03*
X039109Y004681D03*
X031609Y004431D03*
X030109Y004431D03*
X028609Y004431D03*
X028609Y003181D03*
X030109Y003181D03*
X031609Y003181D03*
X040609Y002681D03*
X031609Y005681D03*
X030109Y005681D03*
X028609Y005681D03*
M02*
