G75*
G70*
%OFA0B0*%
%FSLAX24Y24*%
%IPPOS*%
%LPD*%
%AMOC8*
5,1,8,0,0,1.08239X$1,22.5*
%
%ADD10C,0.1084*%
%ADD11C,0.1261*%
%ADD12R,0.4280X0.3580*%
%ADD13R,0.0430X0.0980*%
%ADD14R,0.1064X0.0828*%
%ADD15R,0.0828X0.1064*%
%ADD16R,0.0580X0.0380*%
%ADD17R,0.0380X0.0580*%
%ADD18R,0.0867X0.3308*%
%ADD19C,0.3080*%
%ADD20R,0.0789X0.0789*%
%ADD21R,0.0670X0.0670*%
%ADD22C,0.0670*%
%ADD23C,0.0535*%
%ADD24C,0.0476*%
D10*
X043238Y004681D03*
X063238Y004681D03*
X083238Y004681D03*
X103238Y004681D03*
X103238Y012181D03*
X083238Y012181D03*
X063238Y012181D03*
X043238Y012181D03*
X043238Y019681D03*
X063238Y019681D03*
X083238Y019681D03*
X103238Y019681D03*
X103238Y027181D03*
X083238Y027181D03*
X063238Y027181D03*
X043238Y027181D03*
X043238Y034681D03*
X063238Y034681D03*
X083238Y034681D03*
X103238Y034681D03*
X143238Y034681D03*
X163238Y034681D03*
X183238Y034681D03*
X203238Y034681D03*
X203238Y027181D03*
X183238Y027181D03*
X163238Y027181D03*
X143238Y027181D03*
X143238Y019681D03*
X163238Y019681D03*
X183238Y019681D03*
X203238Y019681D03*
X203238Y012181D03*
X183238Y012181D03*
X163238Y012181D03*
X143238Y012181D03*
X143238Y004681D03*
X163238Y004681D03*
X183238Y004681D03*
X203238Y004681D03*
D11*
X202609Y002654D03*
X182609Y002654D03*
X162609Y002654D03*
X162609Y006709D03*
X162609Y010154D03*
X182609Y010154D03*
X182609Y006709D03*
X202609Y006709D03*
X202609Y010154D03*
X202609Y014209D03*
X202609Y017654D03*
X182609Y017654D03*
X182609Y014209D03*
X162609Y014209D03*
X162609Y017654D03*
X162609Y021709D03*
X162609Y025154D03*
X182609Y025154D03*
X182609Y021709D03*
X202609Y021709D03*
X202609Y025154D03*
X202609Y029209D03*
X202609Y032654D03*
X182609Y032654D03*
X182609Y029209D03*
X162609Y029209D03*
X162609Y032654D03*
X162609Y036709D03*
X182609Y036709D03*
X202609Y036709D03*
X142609Y036709D03*
X142609Y032654D03*
X142609Y029209D03*
X142609Y025154D03*
X142609Y021709D03*
X142609Y017654D03*
X142609Y014209D03*
X142609Y010154D03*
X142609Y006709D03*
X142609Y002654D03*
X102609Y002654D03*
X102609Y006709D03*
X102609Y010154D03*
X102609Y014209D03*
X102609Y017654D03*
X102609Y021709D03*
X102609Y025154D03*
X102609Y029209D03*
X102609Y032654D03*
X102609Y036709D03*
X082609Y036709D03*
X062609Y036709D03*
X062609Y032654D03*
X062609Y029209D03*
X082609Y029209D03*
X082609Y032654D03*
X082609Y025154D03*
X082609Y021709D03*
X062609Y021709D03*
X062609Y025154D03*
X042609Y025154D03*
X042609Y021709D03*
X042609Y017654D03*
X042609Y014209D03*
X042609Y010154D03*
X042609Y006709D03*
X042609Y002654D03*
X062609Y002654D03*
X082609Y002654D03*
X082609Y006709D03*
X082609Y010154D03*
X062609Y010154D03*
X062609Y006709D03*
X062609Y014209D03*
X062609Y017654D03*
X082609Y017654D03*
X082609Y014209D03*
X042609Y029209D03*
X042609Y032654D03*
X042609Y036709D03*
D12*
X033109Y035881D03*
X052109Y024981D03*
X030609Y021881D03*
X050109Y012881D03*
X030109Y004481D03*
X128109Y019881D03*
X152609Y027881D03*
X132116Y034826D03*
X153109Y010481D03*
X130609Y004481D03*
D13*
X130609Y008181D03*
X131109Y008181D03*
X131609Y008181D03*
X132109Y008181D03*
X130109Y008181D03*
X129609Y008181D03*
X129109Y008181D03*
X151609Y014181D03*
X152109Y014181D03*
X152609Y014181D03*
X153109Y014181D03*
X153609Y014181D03*
X154109Y014181D03*
X154609Y014181D03*
X129609Y016181D03*
X129109Y016181D03*
X128609Y016181D03*
X128109Y016181D03*
X127609Y016181D03*
X127109Y016181D03*
X126609Y016181D03*
X151109Y024181D03*
X151609Y024181D03*
X152109Y024181D03*
X152609Y024181D03*
X153109Y024181D03*
X153609Y024181D03*
X154109Y024181D03*
X133616Y031126D03*
X133116Y031126D03*
X132616Y031126D03*
X132116Y031126D03*
X131616Y031126D03*
X131116Y031126D03*
X130616Y031126D03*
X053609Y028681D03*
X053109Y028681D03*
X052609Y028681D03*
X052109Y028681D03*
X051609Y028681D03*
X051109Y028681D03*
X050609Y028681D03*
X034609Y032181D03*
X034109Y032181D03*
X033609Y032181D03*
X033109Y032181D03*
X032609Y032181D03*
X032109Y032181D03*
X031609Y032181D03*
X031609Y018181D03*
X032109Y018181D03*
X031109Y018181D03*
X030609Y018181D03*
X030109Y018181D03*
X029609Y018181D03*
X029109Y018181D03*
X048609Y009181D03*
X049109Y009181D03*
X049609Y009181D03*
X050109Y009181D03*
X050609Y009181D03*
X051109Y009181D03*
X051609Y009181D03*
X031609Y008181D03*
X031109Y008181D03*
X030609Y008181D03*
X030109Y008181D03*
X029609Y008181D03*
X029109Y008181D03*
X028609Y008181D03*
D14*
X033609Y012961D03*
X033609Y015402D03*
X055109Y008902D03*
X055109Y006461D03*
X126609Y008961D03*
X136109Y007961D03*
X136109Y010402D03*
X129609Y011961D03*
X126609Y011402D03*
X129609Y014402D03*
X149109Y013461D03*
X149109Y015902D03*
X136109Y019961D03*
X136109Y022402D03*
X147609Y022961D03*
X156609Y023902D03*
X147609Y025402D03*
X156609Y021461D03*
X127609Y028961D03*
X127609Y031402D03*
X050609Y032961D03*
X047109Y031402D03*
X047109Y028961D03*
X034109Y027961D03*
X034109Y030402D03*
X050609Y035402D03*
D15*
X039829Y032181D03*
X037388Y032181D03*
X037388Y018681D03*
X039829Y018681D03*
X056888Y015681D03*
X059329Y015681D03*
X025829Y011681D03*
X023388Y011681D03*
X037388Y002681D03*
X039829Y002681D03*
X150388Y006681D03*
X152829Y006681D03*
X135829Y029181D03*
X133388Y029181D03*
D16*
X131609Y028581D03*
X131609Y027781D03*
X125609Y030281D03*
X125609Y031081D03*
X149109Y025081D03*
X149109Y024281D03*
X151609Y023081D03*
X153109Y023081D03*
X153109Y022281D03*
X151609Y022281D03*
X158109Y022781D03*
X158109Y023581D03*
X138109Y021081D03*
X138109Y020281D03*
X152609Y016081D03*
X154109Y016081D03*
X154109Y015281D03*
X152609Y015281D03*
X147109Y015081D03*
X147109Y014281D03*
X131609Y014081D03*
X131609Y013281D03*
X127609Y013281D03*
X127609Y014081D03*
X131109Y011081D03*
X131109Y010281D03*
X134109Y009581D03*
X134109Y008781D03*
X052609Y008081D03*
X050609Y008081D03*
X050609Y007281D03*
X052609Y007281D03*
X030609Y011281D03*
X030609Y012081D03*
X035609Y014281D03*
X035609Y015081D03*
X030109Y015781D03*
X030109Y016581D03*
X032609Y028781D03*
X035609Y029281D03*
X032609Y029581D03*
X035609Y030081D03*
X045609Y030081D03*
X045609Y029281D03*
X051609Y030281D03*
X053109Y030281D03*
X053109Y031081D03*
X051609Y031081D03*
X049109Y033281D03*
X049109Y034081D03*
D17*
X032009Y030681D03*
X031209Y030681D03*
X038209Y030181D03*
X039009Y030181D03*
X038509Y016681D03*
X037709Y016681D03*
X029509Y016681D03*
X028709Y016681D03*
X057209Y013181D03*
X058009Y013181D03*
X032009Y009681D03*
X031209Y009681D03*
X025009Y009681D03*
X024209Y009681D03*
X048334Y007556D03*
X049134Y007556D03*
X038509Y004681D03*
X037709Y004681D03*
X123459Y008681D03*
X124259Y008681D03*
X131709Y009681D03*
X132509Y009681D03*
X150709Y004681D03*
X151509Y004681D03*
X127009Y014681D03*
X126209Y014681D03*
X133709Y027681D03*
X134509Y027681D03*
X131009Y029681D03*
X130209Y029681D03*
D18*
X149921Y028089D03*
X155296Y028089D03*
X134803Y035034D03*
X129429Y035034D03*
X054796Y025089D03*
X049421Y025089D03*
X033296Y022089D03*
X027921Y022089D03*
X047421Y012774D03*
X052796Y012774D03*
X032796Y004589D03*
X027421Y004589D03*
X125421Y020089D03*
X130796Y020089D03*
X150421Y010089D03*
X155796Y010089D03*
X133296Y004274D03*
X127921Y004274D03*
X035796Y036089D03*
X030421Y036089D03*
D19*
X016109Y003681D03*
X116609Y003181D03*
X209609Y003681D03*
X210109Y037181D03*
X116609Y037181D03*
X016109Y037181D03*
D20*
X019975Y029819D03*
X019975Y028441D03*
X019975Y026374D03*
X019975Y024996D03*
X019975Y022929D03*
X019975Y021551D03*
X019975Y019485D03*
X019975Y018107D03*
X019975Y016040D03*
X019975Y014662D03*
X019975Y012595D03*
X019975Y011217D03*
D21*
X116109Y028681D03*
D22*
X117109Y028681D03*
X117109Y027681D03*
X116109Y027681D03*
X116109Y026681D03*
X117109Y026681D03*
X117109Y025681D03*
X116109Y025681D03*
X116109Y024681D03*
X117109Y024681D03*
X117109Y023681D03*
X116109Y023681D03*
X116109Y022681D03*
X117109Y022681D03*
X117109Y021681D03*
X116109Y021681D03*
X116109Y020681D03*
X117109Y020681D03*
X117109Y019681D03*
X116109Y019681D03*
X116109Y018681D03*
X117109Y018681D03*
X117109Y017681D03*
X116109Y017681D03*
X116109Y016681D03*
X117109Y016681D03*
X117109Y015681D03*
X116109Y015681D03*
D23*
X125609Y014681D03*
X126609Y012681D03*
X127609Y012681D03*
X131609Y012681D03*
X131109Y011681D03*
X129609Y011181D03*
X134109Y010181D03*
X133109Y009681D03*
X136109Y011181D03*
X122859Y008681D03*
X152109Y004681D03*
X153609Y006681D03*
X152109Y013181D03*
X147109Y015681D03*
X149109Y016681D03*
X152609Y016681D03*
X154109Y016681D03*
X156609Y020681D03*
X153109Y021681D03*
X151609Y021681D03*
X147609Y022181D03*
X149109Y023681D03*
X153609Y025181D03*
X158109Y022181D03*
X138109Y021681D03*
X136109Y023181D03*
X131609Y027181D03*
X135109Y027681D03*
X136609Y029181D03*
X129609Y029681D03*
X125609Y029681D03*
X127609Y028181D03*
X053109Y031681D03*
X051609Y031681D03*
X047109Y032181D03*
X045609Y030681D03*
X040609Y032181D03*
X039609Y030181D03*
X035609Y028681D03*
X032609Y028181D03*
X034109Y027181D03*
X051109Y027681D03*
X030609Y030681D03*
X049109Y034681D03*
X050609Y036181D03*
X040609Y018681D03*
X039109Y016681D03*
X030109Y015181D03*
X028109Y016681D03*
X035609Y013681D03*
X033609Y012181D03*
D24*
X030609Y012681D03*
X022609Y011681D03*
X023609Y009681D03*
X025609Y009181D03*
X026609Y009181D03*
X027609Y009181D03*
X027609Y008181D03*
X026609Y008181D03*
X025609Y008181D03*
X032609Y009681D03*
X047609Y007556D03*
X050609Y006681D03*
X052609Y006681D03*
X055109Y005681D03*
X053609Y008181D03*
X053609Y009181D03*
X052734Y009181D03*
X051109Y010181D03*
X051609Y011681D03*
X050109Y011681D03*
X048609Y011681D03*
X048609Y012931D03*
X050109Y012931D03*
X051609Y012931D03*
X051609Y014181D03*
X050109Y014181D03*
X048609Y014181D03*
X059109Y013181D03*
X060609Y015681D03*
X035109Y017681D03*
X034109Y017681D03*
X033109Y017681D03*
X033109Y018681D03*
X034109Y018681D03*
X035109Y018681D03*
X032109Y020681D03*
X030609Y020681D03*
X029109Y020681D03*
X029109Y021681D03*
X030609Y021681D03*
X032109Y021681D03*
X032109Y022681D03*
X030609Y022681D03*
X029109Y022681D03*
X050609Y024181D03*
X052109Y024181D03*
X053609Y024181D03*
X053609Y025181D03*
X052109Y025181D03*
X050609Y025181D03*
X050609Y026181D03*
X052109Y026181D03*
X053609Y026181D03*
X049484Y028681D03*
X049484Y029681D03*
X050234Y029681D03*
X050234Y030681D03*
X049484Y030681D03*
X035734Y032181D03*
X035359Y033306D03*
X034359Y033306D03*
X034609Y035181D03*
X033109Y035181D03*
X031609Y035181D03*
X031609Y036181D03*
X033109Y036181D03*
X034609Y036181D03*
X034609Y037181D03*
X033109Y037181D03*
X031609Y037181D03*
X126609Y021181D03*
X128109Y021181D03*
X129609Y021181D03*
X129609Y019931D03*
X128109Y019931D03*
X126609Y019931D03*
X126609Y018681D03*
X128109Y018681D03*
X129609Y018681D03*
X129609Y017181D03*
X131109Y017181D03*
X132109Y017181D03*
X133109Y017181D03*
X133109Y016181D03*
X132109Y016181D03*
X131109Y016181D03*
X144609Y016681D03*
X150859Y015181D03*
X149359Y014181D03*
X151109Y013181D03*
X147609Y013181D03*
X146109Y013181D03*
X146109Y011681D03*
X147609Y011681D03*
X151609Y011681D03*
X153109Y011681D03*
X154609Y011681D03*
X154609Y010681D03*
X153109Y010681D03*
X151609Y010681D03*
X147609Y009681D03*
X146109Y009681D03*
X151609Y009181D03*
X153109Y009181D03*
X154609Y009181D03*
X132109Y005681D03*
X130609Y005681D03*
X129109Y005681D03*
X125609Y005181D03*
X124609Y005181D03*
X124609Y004181D03*
X125609Y004181D03*
X129109Y004431D03*
X130609Y004431D03*
X132109Y004431D03*
X132109Y003181D03*
X130609Y003181D03*
X129109Y003181D03*
X125609Y003181D03*
X124609Y003181D03*
X131234Y007181D03*
X117109Y007181D03*
X120109Y010181D03*
X125109Y013181D03*
X158109Y024681D03*
X159109Y024681D03*
X160109Y024681D03*
X160109Y025681D03*
X159109Y025681D03*
X158109Y025681D03*
X146609Y025681D03*
X146609Y026681D03*
X146609Y027681D03*
X146609Y028681D03*
X146609Y029681D03*
X135609Y031181D03*
X134609Y031181D03*
X134609Y032181D03*
X135609Y032181D03*
X133609Y032181D03*
X133609Y033681D03*
X132109Y033681D03*
X130609Y033681D03*
X130609Y034681D03*
X132109Y034681D03*
X133609Y034681D03*
X133609Y035681D03*
X132109Y035681D03*
X130609Y035681D03*
X031609Y005681D03*
X030109Y005681D03*
X028609Y005681D03*
X028609Y004431D03*
X030109Y004431D03*
X031609Y004431D03*
X031609Y003181D03*
X030109Y003181D03*
X028609Y003181D03*
X039109Y004681D03*
X040609Y002681D03*
M02*
